<?xml version="1.0" encoding="UTF-8" standalone="no"?><svg xmlns="http://www.w3.org/2000/svg" xmlns:xlink="http://www.w3.org/1999/xlink" clip-rule="evenodd" stroke-miterlimit="4.00" viewBox="0 0 1024 768"><desc>SVG generated by Keynote</desc><defs></defs><g transform="matrix(1.00, 0.00, -0.00, -1.00, 0.0, 768.0)"><path d="M 0.0 768.0 L 1024.0 768.0 L 1024.0 0.0 L 0.0 0.0 Z M 0.0 768.0 " fill="#FEFFFF"></path><text xml:space="preserve" font-family="Helvetica-Light" font-size="80.0" fill="#000000" transform="matrix(1.00, 0.00, -0.00, -1.00, 214.0, 497.0)">L</text><text xml:space="preserve" font-family="Helvetica-Light" font-size="80.0" fill="#000000" transform="matrix(1.00, 0.00, -0.00, -1.00, 258.5, 497.0)">i</text><text xml:space="preserve" font-family="Helvetica-Light" font-size="80.0" fill="#000000" transform="matrix(1.00, 0.00, -0.00, -1.00, 276.2, 497.0)">n</text><text xml:space="preserve" font-family="Helvetica-Light" font-size="80.0" fill="#000000" transform="matrix(1.00, 0.00, -0.00, -1.00, 320.7, 497.0)">k</text><text xml:space="preserve" font-family="Helvetica-Light" font-size="80.0" fill="#000000" transform="matrix(1.00, 0.00, -0.00, -1.00, 360.7, 497.0)">e</text><text xml:space="preserve" font-family="Helvetica-Light" font-size="80.0" fill="#000000" transform="matrix(1.00, 0.00, -0.00, -1.00, 405.2, 497.0)">d</text><text xml:space="preserve" font-family="Helvetica-Light" font-size="80.0" fill="#000000" transform="matrix(1.00, 0.00, -0.00, -1.00, 454.1, 497.0)"> </text><text xml:space="preserve" font-family="Helvetica-Light" font-size="80.0" fill="#000000" transform="matrix(1.00, 0.00, -0.00, -1.00, 476.3, 497.0)">D</text><text xml:space="preserve" font-family="Helvetica-Light" font-size="80.0" fill="#000000" transform="matrix(1.00, 0.00, -0.00, -1.00, 534.1, 497.0)">a</text><text xml:space="preserve" font-family="Helvetica-Light" font-size="80.0" fill="#000000" transform="matrix(1.00, 0.00, -0.00, -1.00, 578.6, 497.0)">t</text><text xml:space="preserve" font-family="Helvetica-Light" font-size="80.0" fill="#000000" transform="matrix(1.00, 0.00, -0.00, -1.00, 600.8, 497.0)">a</text><text xml:space="preserve" font-family="Helvetica-Light" font-size="80.0" fill="#000000" transform="matrix(1.00, 0.00, -0.00, -1.00, 645.3, 497.0)"> </text><text xml:space="preserve" font-family="Helvetica-Light" font-size="80.0" fill="#000000" transform="matrix(1.00, 0.00, -0.00, -1.00, 667.5, 497.0)">w</text><text xml:space="preserve" font-family="Helvetica-Light" font-size="80.0" fill="#000000" transform="matrix(1.00, 0.00, -0.00, -1.00, 725.3, 497.0)">i</text><text xml:space="preserve" font-family="Helvetica-Light" font-size="80.0" fill="#000000" transform="matrix(1.00, 0.00, -0.00, -1.00, 743.0, 497.0)">t</text><text xml:space="preserve" font-family="Helvetica-Light" font-size="80.0" fill="#000000" transform="matrix(1.00, 0.00, -0.00, -1.00, 765.3, 497.0)">h</text><text xml:space="preserve" font-family="LucidaGrande" font-size="80.0" fill="#000000" transform="matrix(1.00, 0.00, -0.00, -1.00, 809.8, 497.0)"> </text><text xml:space="preserve" font-family="Helvetica-Light" font-size="80.0" fill="#000000" transform="matrix(1.00, 0.00, -0.00, -1.00, 206.0, 401.0)">R</text><text xml:space="preserve" font-family="Helvetica-Light" font-size="80.0" fill="#000000" transform="matrix(1.00, 0.00, -0.00, -1.00, 259.4, 401.0)">u</text><text xml:space="preserve" font-family="Helvetica-Light" font-size="80.0" fill="#000000" transform="matrix(1.00, 0.00, -0.00, -1.00, 303.8, 401.0)">b</text><text xml:space="preserve" font-family="Helvetica-Light" font-size="80.0" fill="#000000" transform="matrix(1.00, 0.00, -0.00, -1.00, 352.7, 401.0)">y</text><text xml:space="preserve" font-family="Helvetica-Light" font-size="80.0" fill="#000000" transform="matrix(1.00, 0.00, -0.00, -1.00, 392.7, 401.0)"> </text><text xml:space="preserve" font-family="Helvetica-Light" font-size="80.0" fill="#000000" transform="matrix(1.00, 0.00, -0.00, -1.00, 415.0, 401.0)">a</text><text xml:space="preserve" font-family="Helvetica-Light" font-size="80.0" fill="#000000" transform="matrix(1.00, 0.00, -0.00, -1.00, 459.4, 401.0)">n</text><text xml:space="preserve" font-family="Helvetica-Light" font-size="80.0" fill="#000000" transform="matrix(1.00, 0.00, -0.00, -1.00, 503.9, 401.0)">d</text><text xml:space="preserve" font-family="Helvetica-Light" font-size="80.0" fill="#000000" transform="matrix(1.00, 0.00, -0.00, -1.00, 552.8, 401.0)"> </text><text xml:space="preserve" font-family="Helvetica-Light" font-size="80.0" fill="#000000" transform="matrix(1.00, 0.00, -0.00, -1.00, 575.0, 401.0)">R</text><text xml:space="preserve" font-family="Helvetica-Light" font-size="80.0" fill="#000000" transform="matrix(1.00, 0.00, -0.00, -1.00, 628.4, 401.0)">D</text><text xml:space="preserve" font-family="Helvetica-Light" font-size="80.0" fill="#000000" transform="matrix(1.00, 0.00, -0.00, -1.00, 686.2, 401.0)">F</text><text xml:space="preserve" font-family="Helvetica-Light" font-size="80.0" fill="#000000" transform="matrix(1.00, 0.00, -0.00, -1.00, 720.3, 401.0)">.</text><text xml:space="preserve" font-family="Helvetica-Light" font-size="80.0" fill="#000000" transform="matrix(1.00, 0.00, -0.00, -1.00, 742.6, 401.0)">r</text><text xml:space="preserve" font-family="Helvetica-Light" font-size="80.0" fill="#000000" transform="matrix(1.00, 0.00, -0.00, -1.00, 769.2, 401.0)">b</text><text xml:space="preserve" font-family="Helvetica-Light" font-size="22.7" fill="#000000" transform="matrix(1.00, 0.00, -0.00, -1.00, 437.0, 347.0)">G</text><text xml:space="preserve" font-family="Helvetica-Light" font-size="22.7" fill="#000000" transform="matrix(1.00, 0.00, -0.00, -1.00, 454.7, 347.0)">r</text><text xml:space="preserve" font-family="Helvetica-Light" font-size="22.7" fill="#000000" transform="matrix(1.00, 0.00, -0.00, -1.00, 461.8, 347.0)">e</text><text xml:space="preserve" font-family="Helvetica-Light" font-size="22.7" fill="#000000" transform="matrix(1.00, 0.00, -0.00, -1.00, 474.5, 347.0)">g</text><text xml:space="preserve" font-family="Helvetica-Light" font-size="22.7" fill="#000000" transform="matrix(1.00, 0.00, -0.00, -1.00, 488.3, 347.0)">g</text><text xml:space="preserve" font-family="Helvetica-Light" font-size="22.7" fill="#000000" transform="matrix(1.00, 0.00, -0.00, -1.00, 502.2, 347.0)"> </text><text xml:space="preserve" font-family="Helvetica-Light" font-size="22.7" fill="#000000" transform="matrix(1.00, 0.00, -0.00, -1.00, 508.5, 347.0)">K</text><text xml:space="preserve" font-family="Helvetica-Light" font-size="22.7" fill="#000000" transform="matrix(1.00, 0.00, -0.00, -1.00, 523.7, 347.0)">e</text><text xml:space="preserve" font-family="Helvetica-Light" font-size="22.7" fill="#000000" transform="matrix(1.00, 0.00, -0.00, -1.00, 536.3, 347.0)">l</text><text xml:space="preserve" font-family="Helvetica-Light" font-size="22.7" fill="#000000" transform="matrix(1.00, 0.00, -0.00, -1.00, 541.4, 347.0)">l</text><text xml:space="preserve" font-family="Helvetica-Light" font-size="22.7" fill="#000000" transform="matrix(1.00, 0.00, -0.00, -1.00, 546.4, 347.0)">o</text><text xml:space="preserve" font-family="Helvetica-Light" font-size="22.7" fill="#000000" transform="matrix(1.00, 0.00, -0.00, -1.00, 559.1, 347.0)">g</text><text xml:space="preserve" font-family="Helvetica-Light" font-size="22.7" fill="#000000" transform="matrix(1.00, 0.00, -0.00, -1.00, 572.9, 347.0)">g</text><text xml:space="preserve" font-family="Helvetica-Light" font-size="22.7" fill="#000000" transform="matrix(1.00, 0.00, -0.00, -1.00, 586.8, 347.0)"> </text><text xml:space="preserve" font-family="Helvetica-Light" font-size="22.7" fill="#000000" transform="matrix(1.00, 0.00, -0.00, -1.00, 385.0, 321.0)">g</text><text xml:space="preserve" font-family="Helvetica-Light" font-size="22.7" fill="#000000" transform="matrix(1.00, 0.00, -0.00, -1.00, 398.9, 321.0)">r</text><text xml:space="preserve" font-family="Helvetica-Light" font-size="22.7" fill="#000000" transform="matrix(1.00, 0.00, -0.00, -1.00, 406.0, 321.0)">e</text><text xml:space="preserve" font-family="Helvetica-Light" font-size="22.7" fill="#000000" transform="matrix(1.00, 0.00, -0.00, -1.00, 418.7, 321.0)">g</text><text xml:space="preserve" font-family="Helvetica-Light" font-size="22.7" fill="#000000" transform="matrix(1.00, 0.00, -0.00, -1.00, 432.6, 321.0)">g</text><text xml:space="preserve" font-family="Helvetica-Light" font-size="22.7" fill="#000000" transform="matrix(1.00, 0.00, -0.00, -1.00, 446.4, 321.0)">@</text><text xml:space="preserve" font-family="Helvetica-Light" font-size="22.7" fill="#000000" transform="matrix(1.00, 0.00, -0.00, -1.00, 464.6, 321.0)">g</text><text xml:space="preserve" font-family="Helvetica-Light" font-size="22.7" fill="#000000" transform="matrix(1.00, 0.00, -0.00, -1.00, 478.5, 321.0)">r</text><text xml:space="preserve" font-family="Helvetica-Light" font-size="22.7" fill="#000000" transform="matrix(1.00, 0.00, -0.00, -1.00, 485.6, 321.0)">e</text><text xml:space="preserve" font-family="Helvetica-Light" font-size="22.7" fill="#000000" transform="matrix(1.00, 0.00, -0.00, -1.00, 498.3, 321.0)">g</text><text xml:space="preserve" font-family="Helvetica-Light" font-size="22.7" fill="#000000" transform="matrix(1.00, 0.00, -0.00, -1.00, 512.2, 321.0)">g</text><text xml:space="preserve" font-family="Helvetica-Light" font-size="22.7" fill="#000000" transform="matrix(1.00, 0.00, -0.00, -1.00, 526.0, 321.0)">k</text><text xml:space="preserve" font-family="Helvetica-Light" font-size="22.7" fill="#000000" transform="matrix(1.00, 0.00, -0.00, -1.00, 537.4, 321.0)">e</text><text xml:space="preserve" font-family="Helvetica-Light" font-size="22.7" fill="#000000" transform="matrix(1.00, 0.00, -0.00, -1.00, 550.0, 321.0)">l</text><text xml:space="preserve" font-family="Helvetica-Light" font-size="22.7" fill="#000000" transform="matrix(1.00, 0.00, -0.00, -1.00, 555.1, 321.0)">l</text><text xml:space="preserve" font-family="Helvetica-Light" font-size="22.7" fill="#000000" transform="matrix(1.00, 0.00, -0.00, -1.00, 560.1, 321.0)">o</text><text xml:space="preserve" font-family="Helvetica-Light" font-size="22.7" fill="#000000" transform="matrix(1.00, 0.00, -0.00, -1.00, 572.8, 321.0)">g</text><text xml:space="preserve" font-family="Helvetica-Light" font-size="22.7" fill="#000000" transform="matrix(1.00, 0.00, -0.00, -1.00, 586.6, 321.0)">g</text><text xml:space="preserve" font-family="Helvetica-Light" font-size="22.7" fill="#000000" transform="matrix(1.00, 0.00, -0.00, -1.00, 600.5, 321.0)">.</text><text xml:space="preserve" font-family="Helvetica-Light" font-size="22.7" fill="#000000" transform="matrix(1.00, 0.00, -0.00, -1.00, 606.8, 321.0)">n</text><text xml:space="preserve" font-family="Helvetica-Light" font-size="22.7" fill="#000000" transform="matrix(1.00, 0.00, -0.00, -1.00, 619.5, 321.0)">e</text><text xml:space="preserve" font-family="Helvetica-Light" font-size="22.7" fill="#000000" transform="matrix(1.00, 0.00, -0.00, -1.00, 632.1, 321.0)">t</text><text xml:space="preserve" font-family="Helvetica-Light" font-size="22.7" fill="#000000" transform="matrix(1.00, 0.00, -0.00, -1.00, 638.4, 321.0)"> </text><g><clipPath id="clip-0"><path d="M 384.3 318.0 L 638.7 318.0 L 638.7 321.1 L 384.3 321.1 Z M 384.3 318.0 "></path></clipPath><g clip-path="url(#clip-0)"><path d="M 285.3 52.5 L 538.7 52.5 " fill="none" stroke="#000000" stroke-width="1.14" stroke-miterlimit="0.00" transform="matrix(1.00, 0.00, 0.00, -1.00, 100.0, 372.0)"></path></g></g><text xml:space="preserve" font-family="Helvetica-Light" font-size="22.7" fill="#000000" transform="matrix(1.00, 0.00, -0.00, -1.00, 459.0, 295.0)">@</text><text xml:space="preserve" font-family="Helvetica-Light" font-size="22.7" fill="#000000" transform="matrix(1.00, 0.00, -0.00, -1.00, 477.2, 295.0)">g</text><text xml:space="preserve" font-family="Helvetica-Light" font-size="22.7" fill="#000000" transform="matrix(1.00, 0.00, -0.00, -1.00, 491.1, 295.0)">k</text><text xml:space="preserve" font-family="Helvetica-Light" font-size="22.7" fill="#000000" transform="matrix(1.00, 0.00, -0.00, -1.00, 502.4, 295.0)">e</text><text xml:space="preserve" font-family="Helvetica-Light" font-size="22.7" fill="#000000" transform="matrix(1.00, 0.00, -0.00, -1.00, 515.1, 295.0)">l</text><text xml:space="preserve" font-family="Helvetica-Light" font-size="22.7" fill="#000000" transform="matrix(1.00, 0.00, -0.00, -1.00, 520.1, 295.0)">l</text><text xml:space="preserve" font-family="Helvetica-Light" font-size="22.7" fill="#000000" transform="matrix(1.00, 0.00, -0.00, -1.00, 525.1, 295.0)">o</text><text xml:space="preserve" font-family="Helvetica-Light" font-size="22.7" fill="#000000" transform="matrix(1.00, 0.00, -0.00, -1.00, 537.8, 295.0)">g</text><text xml:space="preserve" font-family="Helvetica-Light" font-size="22.7" fill="#000000" transform="matrix(1.00, 0.00, -0.00, -1.00, 551.7, 295.0)">g</text><text xml:space="preserve" font-family="Helvetica-Light" font-size="22.7" fill="#000000" transform="matrix(1.00, 0.00, -0.00, -1.00, 395.0, 219.0)">h</text><text xml:space="preserve" font-family="Helvetica-Light" font-size="22.7" fill="#000000" transform="matrix(1.00, 0.00, -0.00, -1.00, 407.6, 219.0)">t</text><text xml:space="preserve" font-family="Helvetica-Light" font-size="22.7" fill="#000000" transform="matrix(1.00, 0.00, -0.00, -1.00, 413.9, 219.0)">t</text><text xml:space="preserve" font-family="Helvetica-Light" font-size="22.7" fill="#000000" transform="matrix(1.00, 0.00, -0.00, -1.00, 420.3, 219.0)">p</text><text xml:space="preserve" font-family="Helvetica-Light" font-size="22.7" fill="#000000" transform="matrix(1.00, 0.00, -0.00, -1.00, 434.1, 219.0)">:</text><text xml:space="preserve" font-family="Helvetica-Light" font-size="22.7" fill="#000000" transform="matrix(1.00, 0.00, -0.00, -1.00, 440.5, 219.0)">/</text><text xml:space="preserve" font-family="Helvetica-Light" font-size="22.7" fill="#000000" transform="matrix(1.00, 0.00, -0.00, -1.00, 446.8, 219.0)">/</text><text xml:space="preserve" font-family="Helvetica-Light" font-size="22.7" fill="#000000" transform="matrix(1.00, 0.00, -0.00, -1.00, 453.1, 219.0)">r</text><text xml:space="preserve" font-family="Helvetica-Light" font-size="22.7" fill="#000000" transform="matrix(1.00, 0.00, -0.00, -1.00, 460.7, 219.0)">u</text><text xml:space="preserve" font-family="Helvetica-Light" font-size="22.7" fill="#000000" transform="matrix(1.00, 0.00, -0.00, -1.00, 473.3, 219.0)">b</text><text xml:space="preserve" font-family="Helvetica-Light" font-size="22.7" fill="#000000" transform="matrix(1.00, 0.00, -0.00, -1.00, 487.2, 219.0)">y</text><text xml:space="preserve" font-family="Helvetica-Light" font-size="22.7" fill="#000000" transform="matrix(1.00, 0.00, -0.00, -1.00, 498.5, 219.0)">-</text><text xml:space="preserve" font-family="Helvetica-Light" font-size="22.7" fill="#000000" transform="matrix(1.00, 0.00, -0.00, -1.00, 506.1, 219.0)">r</text><text xml:space="preserve" font-family="Helvetica-Light" font-size="22.7" fill="#000000" transform="matrix(1.00, 0.00, -0.00, -1.00, 513.3, 219.0)">d</text><text xml:space="preserve" font-family="Helvetica-Light" font-size="22.7" fill="#000000" transform="matrix(1.00, 0.00, -0.00, -1.00, 527.1, 219.0)">f</text><text xml:space="preserve" font-family="Helvetica-Light" font-size="22.7" fill="#000000" transform="matrix(1.00, 0.00, -0.00, -1.00, 533.5, 219.0)">.</text><text xml:space="preserve" font-family="Helvetica-Light" font-size="22.7" fill="#000000" transform="matrix(1.00, 0.00, -0.00, -1.00, 539.8, 219.0)">g</text><text xml:space="preserve" font-family="Helvetica-Light" font-size="22.7" fill="#000000" transform="matrix(1.00, 0.00, -0.00, -1.00, 553.7, 219.0)">i</text><text xml:space="preserve" font-family="Helvetica-Light" font-size="22.7" fill="#000000" transform="matrix(1.00, 0.00, -0.00, -1.00, 558.7, 219.0)">t</text><text xml:space="preserve" font-family="Helvetica-Light" font-size="22.7" fill="#000000" transform="matrix(1.00, 0.00, -0.00, -1.00, 565.0, 219.0)">h</text><text xml:space="preserve" font-family="Helvetica-Light" font-size="22.7" fill="#000000" transform="matrix(1.00, 0.00, -0.00, -1.00, 577.6, 219.0)">u</text><text xml:space="preserve" font-family="Helvetica-Light" font-size="22.7" fill="#000000" transform="matrix(1.00, 0.00, -0.00, -1.00, 590.3, 219.0)">b</text><text xml:space="preserve" font-family="Helvetica-Light" font-size="22.7" fill="#000000" transform="matrix(1.00, 0.00, -0.00, -1.00, 604.2, 219.0)">.</text><text xml:space="preserve" font-family="Helvetica-Light" font-size="22.7" fill="#000000" transform="matrix(1.00, 0.00, -0.00, -1.00, 610.5, 219.0)">i</text><text xml:space="preserve" font-family="Helvetica-Light" font-size="22.7" fill="#000000" transform="matrix(1.00, 0.00, -0.00, -1.00, 615.5, 219.0)">o</text><text xml:space="preserve" font-family="Helvetica-Light" font-size="22.7" fill="#000000" transform="matrix(1.00, 0.00, -0.00, -1.00, 628.2, 219.0)"> </text><g><clipPath id="clip-1"><path d="M 394.4 215.6 L 628.6 215.6 L 628.6 218.7 L 394.4 218.7 Z M 394.4 215.6 "></path></clipPath><g clip-path="url(#clip-1)"><path d="M 295.4 26.5 L 528.6 26.5 " fill="none" stroke="#000000" stroke-width="1.14" stroke-miterlimit="0.00" transform="matrix(1.00, 0.00, 0.00, -1.00, 100.0, 243.7)"></path></g></g><text xml:space="preserve" font-family="Helvetica-Light" font-size="22.7" fill="#000000" transform="matrix(1.00, 0.00, -0.00, -1.00, 360.0, 167.0)">h</text><text xml:space="preserve" font-family="Helvetica-Light" font-size="22.7" fill="#000000" transform="matrix(1.00, 0.00, -0.00, -1.00, 372.6, 167.0)">t</text><text xml:space="preserve" font-family="Helvetica-Light" font-size="22.7" fill="#000000" transform="matrix(1.00, 0.00, -0.00, -1.00, 378.9, 167.0)">t</text><text xml:space="preserve" font-family="Helvetica-Light" font-size="22.7" fill="#000000" transform="matrix(1.00, 0.00, -0.00, -1.00, 385.3, 167.0)">p</text><text xml:space="preserve" font-family="Helvetica-Light" font-size="22.7" fill="#000000" transform="matrix(1.00, 0.00, -0.00, -1.00, 399.1, 167.0)">s</text><text xml:space="preserve" font-family="Helvetica-Light" font-size="22.7" fill="#000000" transform="matrix(1.00, 0.00, -0.00, -1.00, 410.5, 167.0)">:</text><text xml:space="preserve" font-family="Helvetica-Light" font-size="22.7" fill="#000000" transform="matrix(1.00, 0.00, -0.00, -1.00, 416.8, 167.0)">/</text><text xml:space="preserve" font-family="Helvetica-Light" font-size="22.7" fill="#000000" transform="matrix(1.00, 0.00, -0.00, -1.00, 423.1, 167.0)">/</text><text xml:space="preserve" font-family="Helvetica-Light" font-size="22.7" fill="#000000" transform="matrix(1.00, 0.00, -0.00, -1.00, 429.5, 167.0)">g</text><text xml:space="preserve" font-family="Helvetica-Light" font-size="22.7" fill="#000000" transform="matrix(1.00, 0.00, -0.00, -1.00, 443.3, 167.0)">i</text><text xml:space="preserve" font-family="Helvetica-Light" font-size="22.7" fill="#000000" transform="matrix(1.00, 0.00, -0.00, -1.00, 448.4, 167.0)">t</text><text xml:space="preserve" font-family="Helvetica-Light" font-size="22.7" fill="#000000" transform="matrix(1.00, 0.00, -0.00, -1.00, 454.7, 167.0)">h</text><text xml:space="preserve" font-family="Helvetica-Light" font-size="22.7" fill="#000000" transform="matrix(1.00, 0.00, -0.00, -1.00, 467.3, 167.0)">u</text><text xml:space="preserve" font-family="Helvetica-Light" font-size="22.7" fill="#000000" transform="matrix(1.00, 0.00, -0.00, -1.00, 480.0, 167.0)">b</text><text xml:space="preserve" font-family="Helvetica-Light" font-size="22.7" fill="#000000" transform="matrix(1.00, 0.00, -0.00, -1.00, 493.8, 167.0)">.</text><text xml:space="preserve" font-family="Helvetica-Light" font-size="22.7" fill="#000000" transform="matrix(1.00, 0.00, -0.00, -1.00, 500.2, 167.0)">c</text><text xml:space="preserve" font-family="Helvetica-Light" font-size="22.7" fill="#000000" transform="matrix(1.00, 0.00, -0.00, -1.00, 512.8, 167.0)">o</text><text xml:space="preserve" font-family="Helvetica-Light" font-size="22.7" fill="#000000" transform="matrix(1.00, 0.00, -0.00, -1.00, 525.4, 167.0)">m</text><text xml:space="preserve" font-family="Helvetica-Light" font-size="22.7" fill="#000000" transform="matrix(1.00, 0.00, -0.00, -1.00, 544.4, 167.0)">/</text><text xml:space="preserve" font-family="Helvetica-Light" font-size="22.7" fill="#000000" transform="matrix(1.00, 0.00, -0.00, -1.00, 550.7, 167.0)">r</text><text xml:space="preserve" font-family="Helvetica-Light" font-size="22.7" fill="#000000" transform="matrix(1.00, 0.00, -0.00, -1.00, 558.2, 167.0)">u</text><text xml:space="preserve" font-family="Helvetica-Light" font-size="22.7" fill="#000000" transform="matrix(1.00, 0.00, -0.00, -1.00, 570.9, 167.0)">b</text><text xml:space="preserve" font-family="Helvetica-Light" font-size="22.7" fill="#000000" transform="matrix(1.00, 0.00, -0.00, -1.00, 584.7, 167.0)">y</text><text xml:space="preserve" font-family="Helvetica-Light" font-size="22.7" fill="#000000" transform="matrix(1.00, 0.00, -0.00, -1.00, 596.1, 167.0)">-</text><text xml:space="preserve" font-family="Helvetica-Light" font-size="22.7" fill="#000000" transform="matrix(1.00, 0.00, -0.00, -1.00, 603.7, 167.0)">r</text><text xml:space="preserve" font-family="Helvetica-Light" font-size="22.7" fill="#000000" transform="matrix(1.00, 0.00, -0.00, -1.00, 610.8, 167.0)">d</text><text xml:space="preserve" font-family="Helvetica-Light" font-size="22.7" fill="#000000" transform="matrix(1.00, 0.00, -0.00, -1.00, 624.7, 167.0)">f</text><text xml:space="preserve" font-family="Helvetica-Light" font-size="22.7" fill="#000000" transform="matrix(1.00, 0.00, -0.00, -1.00, 631.0, 167.0)">/</text><text xml:space="preserve" font-family="Helvetica-Light" font-size="22.7" fill="#000000" transform="matrix(1.00, 0.00, -0.00, -1.00, 637.3, 167.0)">r</text><text xml:space="preserve" font-family="Helvetica-Light" font-size="22.7" fill="#000000" transform="matrix(1.00, 0.00, -0.00, -1.00, 644.5, 167.0)">d</text><text xml:space="preserve" font-family="Helvetica-Light" font-size="22.7" fill="#000000" transform="matrix(1.00, 0.00, -0.00, -1.00, 658.4, 167.0)">f</text><g><clipPath id="clip-2"><path d="M 358.7 163.6 L 664.3 163.6 L 664.3 166.7 L 358.7 166.7 Z M 358.7 163.6 "></path></clipPath><g clip-path="url(#clip-2)"><path d="M 259.7 78.5 L 564.3 78.5 " fill="none" stroke="#000000" stroke-width="1.14" stroke-miterlimit="0.00" transform="matrix(1.00, 0.00, 0.00, -1.00, 100.0, 243.7)"></path></g></g></g></svg>