<?xml version="1.0" encoding="UTF-8" standalone="no"?><svg xmlns="http://www.w3.org/2000/svg" xmlns:xlink="http://www.w3.org/1999/xlink" clip-rule="evenodd" stroke-miterlimit="10" viewBox="0 0 1024 768"><desc>SVG generated by Keynote</desc><defs></defs><g transform="matrix(1.00, 0.00, -0.00, -1.00, 0.0, 768.0)"><path d="M 0.0 768.0 L 1024.0 768.0 L 1024.0 0.0 L 0.0 0.0 Z M 0.0 768.0 " fill="#FEFFFF"></path><text xml:space="preserve" font-family="Helvetica,Helvetica" font-size="12.0" fill="#000000" transform="matrix(1.00, 0.00, -0.00, -1.00, 472.0, 25.8)">H</text><text xml:space="preserve" font-family="Helvetica,Helvetica" font-size="12.0" fill="#000000" transform="matrix(1.00, 0.00, -0.00, -1.00, 480.6, 25.8)">y</text><text xml:space="preserve" font-family="Helvetica,Helvetica" font-size="12.0" fill="#000000" transform="matrix(1.00, 0.00, -0.00, -1.00, 486.6, 25.8)">d</text><text xml:space="preserve" font-family="Helvetica,Helvetica" font-size="12.0" fill="#000000" transform="matrix(1.00, 0.00, -0.00, -1.00, 493.3, 25.8)">r</text><text xml:space="preserve" font-family="Helvetica,Helvetica" font-size="12.0" fill="#000000" transform="matrix(1.00, 0.00, -0.00, -1.00, 497.3, 25.8)">a</text><text xml:space="preserve" font-family="Helvetica,Helvetica" font-size="12.0" fill="#000000" transform="matrix(1.00, 0.00, -0.00, -1.00, 504.0, 25.8)"> </text><text xml:space="preserve" font-family="Helvetica,Helvetica" font-size="12.0" fill="#000000" transform="matrix(1.00, 0.00, -0.00, -1.00, 507.3, 25.8)">C</text><text xml:space="preserve" font-family="Helvetica,Helvetica" font-size="12.0" fill="#000000" transform="matrix(1.00, 0.00, -0.00, -1.00, 516.0, 25.8)">o</text><text xml:space="preserve" font-family="Helvetica,Helvetica" font-size="12.0" fill="#000000" transform="matrix(1.00, 0.00, -0.00, -1.00, 522.7, 25.8)">n</text><text xml:space="preserve" font-family="Helvetica,Helvetica" font-size="12.0" fill="#000000" transform="matrix(1.00, 0.00, -0.00, -1.00, 529.3, 25.8)">n</text><text xml:space="preserve" font-family="Helvetica,Helvetica" font-size="12.0" fill="#000000" transform="matrix(1.00, 0.00, -0.00, -1.00, 536.0, 25.8)">e</text><text xml:space="preserve" font-family="Helvetica,Helvetica" font-size="12.0" fill="#000000" transform="matrix(1.00, 0.00, -0.00, -1.00, 542.7, 25.8)">c</text><text xml:space="preserve" font-family="Helvetica,Helvetica" font-size="12.0" fill="#000000" transform="matrix(1.00, 0.00, -0.00, -1.00, 548.7, 25.8)">t</text><text xml:space="preserve" font-family="Helvetica,Helvetica" font-size="12.0" fill="#000000" transform="matrix(1.00, 0.00, -0.00, -1.00, 107.2, 25.8)">S</text><text xml:space="preserve" font-family="Helvetica,Helvetica" font-size="12.0" fill="#000000" transform="matrix(1.00, 0.00, -0.00, -1.00, 115.2, 25.8)">e</text><text xml:space="preserve" font-family="Helvetica,Helvetica" font-size="12.0" fill="#000000" transform="matrix(1.00, 0.00, -0.00, -1.00, 121.9, 25.8)">p</text><text xml:space="preserve" font-family="Helvetica,Helvetica" font-size="12.0" fill="#000000" transform="matrix(1.00, 0.00, -0.00, -1.00, 128.6, 25.8)">t</text><text xml:space="preserve" font-family="Helvetica,Helvetica" font-size="12.0" fill="#000000" transform="matrix(1.00, 0.00, -0.00, -1.00, 131.9, 25.8)">e</text><text xml:space="preserve" font-family="Helvetica,Helvetica" font-size="12.0" fill="#000000" transform="matrix(1.00, 0.00, -0.00, -1.00, 138.6, 25.8)">m</text><text xml:space="preserve" font-family="Helvetica,Helvetica" font-size="12.0" fill="#000000" transform="matrix(1.00, 0.00, -0.00, -1.00, 148.6, 25.8)">b</text><text xml:space="preserve" font-family="Helvetica,Helvetica" font-size="12.0" fill="#000000" transform="matrix(1.00, 0.00, -0.00, -1.00, 155.2, 25.8)">e</text><text xml:space="preserve" font-family="Helvetica,Helvetica" font-size="12.0" fill="#000000" transform="matrix(1.00, 0.00, -0.00, -1.00, 161.9, 25.8)">r</text><text xml:space="preserve" font-family="Helvetica,Helvetica" font-size="12.0" fill="#000000" transform="matrix(1.00, 0.00, -0.00, -1.00, 165.9, 25.8)"> </text><text xml:space="preserve" font-family="Helvetica,Helvetica" font-size="12.0" fill="#000000" transform="matrix(1.00, 0.00, -0.00, -1.00, 169.2, 25.8)">2</text><text xml:space="preserve" font-family="Helvetica,Helvetica" font-size="12.0" fill="#000000" transform="matrix(1.00, 0.00, -0.00, -1.00, 175.9, 25.8)">0</text><text xml:space="preserve" font-family="Helvetica,Helvetica" font-size="12.0" fill="#000000" transform="matrix(1.00, 0.00, -0.00, -1.00, 182.6, 25.8)">1</text><text xml:space="preserve" font-family="Helvetica,Helvetica" font-size="12.0" fill="#000000" transform="matrix(1.00, 0.00, -0.00, -1.00, 189.3, 25.8)">5</text><text xml:space="preserve" font-family="Helvetica-Light,Helvetica" font-size="50.0" fill="#000000" transform="matrix(1.00, 0.00, -0.00, -1.00, 259.6, 629.5)">B</text><text xml:space="preserve" font-family="Helvetica-Light,Helvetica" font-size="50.0" fill="#000000" transform="matrix(1.00, 0.00, -0.00, -1.00, 293.0, 629.5)">l</text><text xml:space="preserve" font-family="Helvetica-Light,Helvetica" font-size="50.0" fill="#000000" transform="matrix(1.00, 0.00, -0.00, -1.00, 304.1, 629.5)">a</text><text xml:space="preserve" font-family="Helvetica-Light,Helvetica" font-size="50.0" fill="#000000" transform="matrix(1.00, 0.00, -0.00, -1.00, 331.9, 629.5)">n</text><text xml:space="preserve" font-family="Helvetica-Light,Helvetica" font-size="50.0" fill="#000000" transform="matrix(1.00, 0.00, -0.00, -1.00, 359.7, 629.5)">k</text><text xml:space="preserve" font-family="Helvetica-Light,Helvetica" font-size="50.0" fill="#000000" transform="matrix(1.00, 0.00, -0.00, -1.00, 384.7, 629.5)"> </text><text xml:space="preserve" font-family="Helvetica-Light,Helvetica" font-size="50.0" fill="#000000" transform="matrix(1.00, 0.00, -0.00, -1.00, 398.6, 629.5)">N</text><text xml:space="preserve" font-family="Helvetica-Light,Helvetica" font-size="50.0" fill="#000000" transform="matrix(1.00, 0.00, -0.00, -1.00, 434.6, 629.5)">o</text><text xml:space="preserve" font-family="Helvetica-Light,Helvetica" font-size="50.0" fill="#000000" transform="matrix(1.00, 0.00, -0.00, -1.00, 462.5, 629.5)">d</text><text xml:space="preserve" font-family="Helvetica-Light,Helvetica" font-size="50.0" fill="#000000" transform="matrix(1.00, 0.00, -0.00, -1.00, 493.0, 629.5)">e</text><text xml:space="preserve" font-family="Helvetica-Light,Helvetica" font-size="50.0" fill="#000000" transform="matrix(1.00, 0.00, -0.00, -1.00, 520.8, 629.5)">s</text><text xml:space="preserve" font-family="Helvetica-Light,Helvetica" font-size="50.0" fill="#000000" transform="matrix(1.00, 0.00, -0.00, -1.00, 545.8, 629.5)"> </text><text xml:space="preserve" font-family="Helvetica-Light,Helvetica" font-size="50.0" fill="#000000" transform="matrix(1.00, 0.00, -0.00, -1.00, 559.7, 629.5)">i</text><text xml:space="preserve" font-family="Helvetica-Light,Helvetica" font-size="50.0" fill="#000000" transform="matrix(1.00, 0.00, -0.00, -1.00, 570.8, 629.5)">n</text><text xml:space="preserve" font-family="Helvetica-Light,Helvetica" font-size="50.0" fill="#000000" transform="matrix(1.00, 0.00, -0.00, -1.00, 598.6, 629.5)"> </text><text xml:space="preserve" font-family="Helvetica-Light,Helvetica" font-size="50.0" fill="#000000" transform="matrix(1.00, 0.00, -0.00, -1.00, 612.5, 629.5)">R</text><text xml:space="preserve" font-family="Helvetica-Light,Helvetica" font-size="50.0" fill="#000000" transform="matrix(1.00, 0.00, -0.00, -1.00, 645.9, 629.5)">D</text><text xml:space="preserve" font-family="Helvetica-Light,Helvetica" font-size="50.0" fill="#000000" transform="matrix(1.00, 0.00, -0.00, -1.00, 682.0, 629.5)">F</text><text xml:space="preserve" font-family="Helvetica-Light,Helvetica" font-size="50.0" fill="#000000" transform="matrix(1.00, 0.00, -0.00, -1.00, 703.3, 629.5)">.</text><text xml:space="preserve" font-family="Helvetica-Light,Helvetica" font-size="50.0" fill="#000000" transform="matrix(1.00, 0.00, -0.00, -1.00, 717.2, 629.5)">r</text><text xml:space="preserve" font-family="Helvetica-Light,Helvetica" font-size="50.0" fill="#000000" transform="matrix(1.00, 0.00, -0.00, -1.00, 733.9, 629.5)">b</text><text xml:space="preserve" font-family="Helvetica-Light,Helvetica" font-size="26.7" fill="#000000" transform="matrix(1.00, 0.00, -0.00, -1.00, 79.0, 528.1)">•</text><text xml:space="preserve" font-family="Helvetica-Light,Helvetica" font-size="35.6" fill="#000000" transform="matrix(1.00, 0.00, -0.00, -1.00, 113.7, 525.2)">S</text><text xml:space="preserve" font-family="Helvetica-Light,Helvetica" font-size="35.6" fill="#000000" transform="matrix(1.00, 0.00, -0.00, -1.00, 135.4, 525.2)">i</text><text xml:space="preserve" font-family="Helvetica-Light,Helvetica" font-size="35.6" fill="#000000" transform="matrix(1.00, 0.00, -0.00, -1.00, 143.3, 525.2)">m</text><text xml:space="preserve" font-family="Helvetica-Light,Helvetica" font-size="35.6" fill="#000000" transform="matrix(1.00, 0.00, -0.00, -1.00, 173.0, 525.2)">p</text><text xml:space="preserve" font-family="Helvetica-Light,Helvetica" font-size="35.6" fill="#000000" transform="matrix(1.00, 0.00, -0.00, -1.00, 194.8, 525.2)">l</text><text xml:space="preserve" font-family="Helvetica-Light,Helvetica" font-size="35.6" fill="#000000" transform="matrix(1.00, 0.00, -0.00, -1.00, 202.7, 525.2)">e</text><text xml:space="preserve" font-family="Helvetica-Light,Helvetica" font-size="35.6" fill="#000000" transform="matrix(1.00, 0.00, -0.00, -1.00, 222.5, 525.2)"> </text><text xml:space="preserve" font-family="Helvetica-Light,Helvetica" font-size="35.6" fill="#000000" transform="matrix(1.00, 0.00, -0.00, -1.00, 232.4, 525.2)">m</text><text xml:space="preserve" font-family="Helvetica-Light,Helvetica" font-size="35.6" fill="#000000" transform="matrix(1.00, 0.00, -0.00, -1.00, 262.1, 525.2)">o</text><text xml:space="preserve" font-family="Helvetica-Light,Helvetica" font-size="35.6" fill="#000000" transform="matrix(1.00, 0.00, -0.00, -1.00, 281.9, 525.2)">d</text><text xml:space="preserve" font-family="Helvetica-Light,Helvetica" font-size="35.6" fill="#000000" transform="matrix(1.00, 0.00, -0.00, -1.00, 303.7, 525.2)">e</text><text xml:space="preserve" font-family="Helvetica-Light,Helvetica" font-size="35.6" fill="#000000" transform="matrix(1.00, 0.00, -0.00, -1.00, 323.5, 525.2)">l</text><text xml:space="preserve" font-family="Helvetica-Light,Helvetica" font-size="35.6" fill="#000000" transform="matrix(1.00, 0.00, -0.00, -1.00, 331.4, 525.2)"> </text><text xml:space="preserve" font-family="Courier,Courier" font-size="14.8" fill="#000000" transform="matrix(1.00, 0.00, -0.00, -1.00, 114.0, 482.8)">•</text><text xml:space="preserve" font-family="Courier,Courier" font-size="19.8" fill="#000000" transform="matrix(1.00, 0.00, -0.00, -1.00, 133.2, 481.0)">R</text><text xml:space="preserve" font-family="Courier,Courier" font-size="19.8" fill="#000000" transform="matrix(1.00, 0.00, -0.00, -1.00, 145.1, 481.0)">D</text><text xml:space="preserve" font-family="Courier,Courier" font-size="19.8" fill="#000000" transform="matrix(1.00, 0.00, -0.00, -1.00, 157.0, 481.0)">F</text><text xml:space="preserve" font-family="Courier,Courier" font-size="19.8" fill="#000000" transform="matrix(1.00, 0.00, -0.00, -1.00, 168.9, 481.0)">:</text><text xml:space="preserve" font-family="Courier,Courier" font-size="19.8" fill="#000000" transform="matrix(1.00, 0.00, -0.00, -1.00, 180.8, 481.0)">:</text><text xml:space="preserve" font-family="Courier,Courier" font-size="19.8" fill="#000000" transform="matrix(1.00, 0.00, -0.00, -1.00, 192.7, 481.0)">N</text><text xml:space="preserve" font-family="Courier,Courier" font-size="19.8" fill="#000000" transform="matrix(1.00, 0.00, -0.00, -1.00, 204.6, 481.0)">o</text><text xml:space="preserve" font-family="Courier,Courier" font-size="19.8" fill="#000000" transform="matrix(1.00, 0.00, -0.00, -1.00, 216.4, 481.0)">d</text><text xml:space="preserve" font-family="Courier,Courier" font-size="19.8" fill="#000000" transform="matrix(1.00, 0.00, -0.00, -1.00, 228.3, 481.0)">e</text><text xml:space="preserve" font-family="Courier,Courier" font-size="19.8" fill="#000000" transform="matrix(1.00, 0.00, -0.00, -1.00, 240.2, 481.0)">(</text><text xml:space="preserve" font-family="Courier,Courier" font-size="19.8" fill="#000000" transform="matrix(1.00, 0.00, -0.00, -1.00, 252.1, 481.0)">"</text><text xml:space="preserve" font-family="Courier,Courier" font-size="19.8" fill="#000000" transform="matrix(1.00, 0.00, -0.00, -1.00, 264.0, 481.0)">f</text><text xml:space="preserve" font-family="Courier,Courier" font-size="19.8" fill="#000000" transform="matrix(1.00, 0.00, -0.00, -1.00, 275.9, 481.0)">o</text><text xml:space="preserve" font-family="Courier,Courier" font-size="19.8" fill="#000000" transform="matrix(1.00, 0.00, -0.00, -1.00, 287.7, 481.0)">o</text><text xml:space="preserve" font-family="Courier,Courier" font-size="19.8" fill="#000000" transform="matrix(1.00, 0.00, -0.00, -1.00, 299.6, 481.0)">"</text><text xml:space="preserve" font-family="Courier,Courier" font-size="19.8" fill="#000000" transform="matrix(1.00, 0.00, -0.00, -1.00, 311.5, 481.0)">)</text><text xml:space="preserve" font-family="Courier,Courier" font-size="14.8" fill="#000000" transform="matrix(1.00, 0.00, -0.00, -1.00, 114.0, 442.0)">•</text><text xml:space="preserve" font-family="Courier,Courier" font-size="19.8" fill="#000000" transform="matrix(1.00, 0.00, -0.00, -1.00, 133.2, 440.2)">R</text><text xml:space="preserve" font-family="Courier,Courier" font-size="19.8" fill="#000000" transform="matrix(1.00, 0.00, -0.00, -1.00, 145.1, 440.2)">D</text><text xml:space="preserve" font-family="Courier,Courier" font-size="19.8" fill="#000000" transform="matrix(1.00, 0.00, -0.00, -1.00, 157.0, 440.2)">F</text><text xml:space="preserve" font-family="Courier,Courier" font-size="19.8" fill="#000000" transform="matrix(1.00, 0.00, -0.00, -1.00, 168.9, 440.2)">:</text><text xml:space="preserve" font-family="Courier,Courier" font-size="19.8" fill="#000000" transform="matrix(1.00, 0.00, -0.00, -1.00, 180.8, 440.2)">:</text><text xml:space="preserve" font-family="Courier,Courier" font-size="19.8" fill="#000000" transform="matrix(1.00, 0.00, -0.00, -1.00, 192.7, 440.2)">N</text><text xml:space="preserve" font-family="Courier,Courier" font-size="19.8" fill="#000000" transform="matrix(1.00, 0.00, -0.00, -1.00, 204.6, 440.2)">o</text><text xml:space="preserve" font-family="Courier,Courier" font-size="19.8" fill="#000000" transform="matrix(1.00, 0.00, -0.00, -1.00, 216.4, 440.2)">d</text><text xml:space="preserve" font-family="Courier,Courier" font-size="19.8" fill="#000000" transform="matrix(1.00, 0.00, -0.00, -1.00, 228.3, 440.2)">e</text><text xml:space="preserve" font-family="Courier,Courier" font-size="19.8" fill="#000000" transform="matrix(1.00, 0.00, -0.00, -1.00, 240.2, 440.2)">.</text><text xml:space="preserve" font-family="Courier,Courier" font-size="19.8" fill="#000000" transform="matrix(1.00, 0.00, -0.00, -1.00, 252.1, 440.2)">n</text><text xml:space="preserve" font-family="Courier,Courier" font-size="19.8" fill="#000000" transform="matrix(1.00, 0.00, -0.00, -1.00, 264.0, 440.2)">e</text><text xml:space="preserve" font-family="Courier,Courier" font-size="19.8" fill="#000000" transform="matrix(1.00, 0.00, -0.00, -1.00, 275.9, 440.2)">w</text><text xml:space="preserve" font-family="Courier,Courier" font-size="14.8" fill="#000000" transform="matrix(1.00, 0.00, -0.00, -1.00, 114.0, 401.2)">•</text><text xml:space="preserve" font-family="Courier,Courier" font-size="19.8" fill="#000000" transform="matrix(1.00, 0.00, -0.00, -1.00, 133.2, 399.4)">R</text><text xml:space="preserve" font-family="Courier,Courier" font-size="19.8" fill="#000000" transform="matrix(1.00, 0.00, -0.00, -1.00, 145.1, 399.4)">D</text><text xml:space="preserve" font-family="Courier,Courier" font-size="19.8" fill="#000000" transform="matrix(1.00, 0.00, -0.00, -1.00, 157.0, 399.4)">F</text><text xml:space="preserve" font-family="Courier,Courier" font-size="19.8" fill="#000000" transform="matrix(1.00, 0.00, -0.00, -1.00, 168.9, 399.4)">:</text><text xml:space="preserve" font-family="Courier,Courier" font-size="19.8" fill="#000000" transform="matrix(1.00, 0.00, -0.00, -1.00, 180.8, 399.4)">:</text><text xml:space="preserve" font-family="Courier,Courier" font-size="19.8" fill="#000000" transform="matrix(1.00, 0.00, -0.00, -1.00, 192.7, 399.4)">N</text><text xml:space="preserve" font-family="Courier,Courier" font-size="19.8" fill="#000000" transform="matrix(1.00, 0.00, -0.00, -1.00, 204.6, 399.4)">o</text><text xml:space="preserve" font-family="Courier,Courier" font-size="19.8" fill="#000000" transform="matrix(1.00, 0.00, -0.00, -1.00, 216.4, 399.4)">d</text><text xml:space="preserve" font-family="Courier,Courier" font-size="19.8" fill="#000000" transform="matrix(1.00, 0.00, -0.00, -1.00, 228.3, 399.4)">e</text><text xml:space="preserve" font-family="Courier,Courier" font-size="19.8" fill="#000000" transform="matrix(1.00, 0.00, -0.00, -1.00, 240.2, 399.4)">.</text><text xml:space="preserve" font-family="Courier,Courier" font-size="19.8" fill="#000000" transform="matrix(1.00, 0.00, -0.00, -1.00, 252.1, 399.4)">i</text><text xml:space="preserve" font-family="Courier,Courier" font-size="19.8" fill="#000000" transform="matrix(1.00, 0.00, -0.00, -1.00, 264.0, 399.4)">n</text><text xml:space="preserve" font-family="Courier,Courier" font-size="19.8" fill="#000000" transform="matrix(1.00, 0.00, -0.00, -1.00, 275.9, 399.4)">t</text><text xml:space="preserve" font-family="Courier,Courier" font-size="19.8" fill="#000000" transform="matrix(1.00, 0.00, -0.00, -1.00, 287.7, 399.4)">e</text><text xml:space="preserve" font-family="Courier,Courier" font-size="19.8" fill="#000000" transform="matrix(1.00, 0.00, -0.00, -1.00, 299.6, 399.4)">r</text><text xml:space="preserve" font-family="Courier,Courier" font-size="19.8" fill="#000000" transform="matrix(1.00, 0.00, -0.00, -1.00, 311.5, 399.4)">n</text><text xml:space="preserve" font-family="Courier,Courier" font-size="19.8" fill="#000000" transform="matrix(1.00, 0.00, -0.00, -1.00, 323.4, 399.4)">(</text><text xml:space="preserve" font-family="Courier,Courier" font-size="19.8" fill="#000000" transform="matrix(1.00, 0.00, -0.00, -1.00, 335.3, 399.4)">"</text><text xml:space="preserve" font-family="Courier,Courier" font-size="19.8" fill="#000000" transform="matrix(1.00, 0.00, -0.00, -1.00, 347.2, 399.4)">b</text><text xml:space="preserve" font-family="Courier,Courier" font-size="19.8" fill="#000000" transform="matrix(1.00, 0.00, -0.00, -1.00, 359.0, 399.4)">a</text><text xml:space="preserve" font-family="Courier,Courier" font-size="19.8" fill="#000000" transform="matrix(1.00, 0.00, -0.00, -1.00, 370.9, 399.4)">r</text><text xml:space="preserve" font-family="Courier,Courier" font-size="19.8" fill="#000000" transform="matrix(1.00, 0.00, -0.00, -1.00, 382.8, 399.4)">"</text><text xml:space="preserve" font-family="Courier,Courier" font-size="19.8" fill="#000000" transform="matrix(1.00, 0.00, -0.00, -1.00, 394.7, 399.4)">)</text><text xml:space="preserve" font-family="Helvetica-Light,Helvetica" font-size="26.7" fill="#000000" transform="matrix(1.00, 0.00, -0.00, -1.00, 79.0, 346.8)">•</text><text xml:space="preserve" font-family="Helvetica-Light,Helvetica" font-size="35.6" fill="#000000" transform="matrix(1.00, 0.00, -0.00, -1.00, 113.7, 343.9)">E</text><text xml:space="preserve" font-family="Helvetica-Light,Helvetica" font-size="35.6" fill="#000000" transform="matrix(1.00, 0.00, -0.00, -1.00, 135.4, 343.9)">q</text><text xml:space="preserve" font-family="Helvetica-Light,Helvetica" font-size="35.6" fill="#000000" transform="matrix(1.00, 0.00, -0.00, -1.00, 157.2, 343.9)">u</text><text xml:space="preserve" font-family="Helvetica-Light,Helvetica" font-size="35.6" fill="#000000" transform="matrix(1.00, 0.00, -0.00, -1.00, 177.0, 343.9)">i</text><text xml:space="preserve" font-family="Helvetica-Light,Helvetica" font-size="35.6" fill="#000000" transform="matrix(1.00, 0.00, -0.00, -1.00, 184.9, 343.9)">v</text><text xml:space="preserve" font-family="Helvetica-Light,Helvetica" font-size="35.6" fill="#000000" transform="matrix(1.00, 0.00, -0.00, -1.00, 202.8, 343.9)">a</text><text xml:space="preserve" font-family="Helvetica-Light,Helvetica" font-size="35.6" fill="#000000" transform="matrix(1.00, 0.00, -0.00, -1.00, 222.6, 343.9)">l</text><text xml:space="preserve" font-family="Helvetica-Light,Helvetica" font-size="35.6" fill="#000000" transform="matrix(1.00, 0.00, -0.00, -1.00, 230.5, 343.9)">e</text><text xml:space="preserve" font-family="Helvetica-Light,Helvetica" font-size="35.6" fill="#000000" transform="matrix(1.00, 0.00, -0.00, -1.00, 250.3, 343.9)">n</text><text xml:space="preserve" font-family="Helvetica-Light,Helvetica" font-size="35.6" fill="#000000" transform="matrix(1.00, 0.00, -0.00, -1.00, 270.1, 343.9)">c</text><text xml:space="preserve" font-family="Helvetica-Light,Helvetica" font-size="35.6" fill="#000000" transform="matrix(1.00, 0.00, -0.00, -1.00, 289.9, 343.9)">e</text><text xml:space="preserve" font-family="Helvetica-Light,Helvetica" font-size="35.6" fill="#000000" transform="matrix(1.00, 0.00, -0.00, -1.00, 309.7, 343.9)"> </text><text xml:space="preserve" font-family="Helvetica-Light,Helvetica" font-size="35.6" fill="#000000" transform="matrix(1.00, 0.00, -0.00, -1.00, 319.6, 343.9)">i</text><text xml:space="preserve" font-family="Helvetica-Light,Helvetica" font-size="35.6" fill="#000000" transform="matrix(1.00, 0.00, -0.00, -1.00, 327.6, 343.9)">s</text><text xml:space="preserve" font-family="Helvetica-Light,Helvetica" font-size="35.6" fill="#000000" transform="matrix(1.00, 0.00, -0.00, -1.00, 345.4, 343.9)">s</text><text xml:space="preserve" font-family="Helvetica-Light,Helvetica" font-size="35.6" fill="#000000" transform="matrix(1.00, 0.00, -0.00, -1.00, 363.2, 343.9)">u</text><text xml:space="preserve" font-family="Helvetica-Light,Helvetica" font-size="35.6" fill="#000000" transform="matrix(1.00, 0.00, -0.00, -1.00, 383.0, 343.9)">e</text><text xml:space="preserve" font-family="Helvetica-Light,Helvetica" font-size="35.6" fill="#000000" transform="matrix(1.00, 0.00, -0.00, -1.00, 402.8, 343.9)">s</text><text xml:space="preserve" font-family="Helvetica-Light,Helvetica" font-size="35.6" fill="#000000" transform="matrix(1.00, 0.00, -0.00, -1.00, 420.7, 343.9)"> </text><text xml:space="preserve" font-family="Courier,Courier" font-size="14.8" fill="#000000" transform="matrix(1.00, 0.00, -0.00, -1.00, 114.0, 301.5)">•</text><text xml:space="preserve" font-family="Courier,Courier" font-size="19.8" fill="#000000" transform="matrix(1.00, 0.00, -0.00, -1.00, 133.2, 299.7)">R</text><text xml:space="preserve" font-family="Courier,Courier" font-size="19.8" fill="#000000" transform="matrix(1.00, 0.00, -0.00, -1.00, 145.1, 299.7)">D</text><text xml:space="preserve" font-family="Courier,Courier" font-size="19.8" fill="#000000" transform="matrix(1.00, 0.00, -0.00, -1.00, 157.0, 299.7)">F</text><text xml:space="preserve" font-family="Courier,Courier" font-size="19.8" fill="#000000" transform="matrix(1.00, 0.00, -0.00, -1.00, 168.9, 299.7)">:</text><text xml:space="preserve" font-family="Courier,Courier" font-size="19.8" fill="#000000" transform="matrix(1.00, 0.00, -0.00, -1.00, 180.8, 299.7)">:</text><text xml:space="preserve" font-family="Courier,Courier" font-size="19.8" fill="#000000" transform="matrix(1.00, 0.00, -0.00, -1.00, 192.7, 299.7)">N</text><text xml:space="preserve" font-family="Courier,Courier" font-size="19.8" fill="#000000" transform="matrix(1.00, 0.00, -0.00, -1.00, 204.6, 299.7)">o</text><text xml:space="preserve" font-family="Courier,Courier" font-size="19.8" fill="#000000" transform="matrix(1.00, 0.00, -0.00, -1.00, 216.4, 299.7)">d</text><text xml:space="preserve" font-family="Courier,Courier" font-size="19.8" fill="#000000" transform="matrix(1.00, 0.00, -0.00, -1.00, 228.3, 299.7)">e</text><text xml:space="preserve" font-family="Courier,Courier" font-size="19.8" fill="#000000" transform="matrix(1.00, 0.00, -0.00, -1.00, 240.2, 299.7)">(</text><text xml:space="preserve" font-family="Courier,Courier" font-size="19.8" fill="#000000" transform="matrix(1.00, 0.00, -0.00, -1.00, 252.1, 299.7)">"</text><text xml:space="preserve" font-family="Courier,Courier" font-size="19.8" fill="#000000" transform="matrix(1.00, 0.00, -0.00, -1.00, 264.0, 299.7)">f</text><text xml:space="preserve" font-family="Courier,Courier" font-size="19.8" fill="#000000" transform="matrix(1.00, 0.00, -0.00, -1.00, 275.9, 299.7)">o</text><text xml:space="preserve" font-family="Courier,Courier" font-size="19.8" fill="#000000" transform="matrix(1.00, 0.00, -0.00, -1.00, 287.7, 299.7)">o</text><text xml:space="preserve" font-family="Courier,Courier" font-size="19.8" fill="#000000" transform="matrix(1.00, 0.00, -0.00, -1.00, 299.6, 299.7)">"</text><text xml:space="preserve" font-family="Courier,Courier" font-size="19.8" fill="#000000" transform="matrix(1.00, 0.00, -0.00, -1.00, 311.5, 299.7)">)</text><text xml:space="preserve" font-family="Courier,Courier" font-size="19.8" fill="#000000" transform="matrix(1.00, 0.00, -0.00, -1.00, 323.4, 299.7)"> </text><text xml:space="preserve" font-family="Courier,Courier" font-size="19.8" fill="#000000" transform="matrix(1.00, 0.00, -0.00, -1.00, 335.3, 299.7)">!</text><text xml:space="preserve" font-family="Courier,Courier" font-size="19.8" fill="#000000" transform="matrix(1.00, 0.00, -0.00, -1.00, 347.2, 299.7)">=</text><text xml:space="preserve" font-family="Courier,Courier" font-size="19.8" fill="#000000" transform="matrix(1.00, 0.00, -0.00, -1.00, 359.0, 299.7)"> </text><text xml:space="preserve" font-family="Courier,Courier" font-size="19.8" fill="#000000" transform="matrix(1.00, 0.00, -0.00, -1.00, 370.9, 299.7)">R</text><text xml:space="preserve" font-family="Courier,Courier" font-size="19.8" fill="#000000" transform="matrix(1.00, 0.00, -0.00, -1.00, 382.8, 299.7)">D</text><text xml:space="preserve" font-family="Courier,Courier" font-size="19.8" fill="#000000" transform="matrix(1.00, 0.00, -0.00, -1.00, 394.7, 299.7)">F</text><text xml:space="preserve" font-family="Courier,Courier" font-size="19.8" fill="#000000" transform="matrix(1.00, 0.00, -0.00, -1.00, 406.6, 299.7)">:</text><text xml:space="preserve" font-family="Courier,Courier" font-size="19.8" fill="#000000" transform="matrix(1.00, 0.00, -0.00, -1.00, 418.5, 299.7)">:</text><text xml:space="preserve" font-family="Courier,Courier" font-size="19.8" fill="#000000" transform="matrix(1.00, 0.00, -0.00, -1.00, 430.3, 299.7)">N</text><text xml:space="preserve" font-family="Courier,Courier" font-size="19.8" fill="#000000" transform="matrix(1.00, 0.00, -0.00, -1.00, 442.2, 299.7)">o</text><text xml:space="preserve" font-family="Courier,Courier" font-size="19.8" fill="#000000" transform="matrix(1.00, 0.00, -0.00, -1.00, 454.1, 299.7)">d</text><text xml:space="preserve" font-family="Courier,Courier" font-size="19.8" fill="#000000" transform="matrix(1.00, 0.00, -0.00, -1.00, 466.0, 299.7)">e</text><text xml:space="preserve" font-family="Courier,Courier" font-size="19.8" fill="#000000" transform="matrix(1.00, 0.00, -0.00, -1.00, 477.9, 299.7)">(</text><text xml:space="preserve" font-family="Courier,Courier" font-size="19.8" fill="#000000" transform="matrix(1.00, 0.00, -0.00, -1.00, 489.8, 299.7)">"</text><text xml:space="preserve" font-family="Courier,Courier" font-size="19.8" fill="#000000" transform="matrix(1.00, 0.00, -0.00, -1.00, 501.7, 299.7)">f</text><text xml:space="preserve" font-family="Courier,Courier" font-size="19.8" fill="#000000" transform="matrix(1.00, 0.00, -0.00, -1.00, 513.5, 299.7)">o</text><text xml:space="preserve" font-family="Courier,Courier" font-size="19.8" fill="#000000" transform="matrix(1.00, 0.00, -0.00, -1.00, 525.4, 299.7)">o</text><text xml:space="preserve" font-family="Courier,Courier" font-size="19.8" fill="#000000" transform="matrix(1.00, 0.00, -0.00, -1.00, 537.3, 299.7)">"</text><text xml:space="preserve" font-family="Courier,Courier" font-size="19.8" fill="#000000" transform="matrix(1.00, 0.00, -0.00, -1.00, 549.1, 299.7)">)</text><text xml:space="preserve" font-family="Courier,Courier" font-size="14.8" fill="#000000" transform="matrix(1.00, 0.00, -0.00, -1.00, 114.0, 260.7)">•</text><text xml:space="preserve" font-family="Courier,Courier" font-size="19.8" fill="#000000" transform="matrix(1.00, 0.00, -0.00, -1.00, 133.2, 258.9)">n</text><text xml:space="preserve" font-family="Courier,Courier" font-size="19.8" fill="#000000" transform="matrix(1.00, 0.00, -0.00, -1.00, 145.1, 258.9)"> </text><text xml:space="preserve" font-family="Courier,Courier" font-size="19.8" fill="#000000" transform="matrix(1.00, 0.00, -0.00, -1.00, 157.0, 258.9)">=</text><text xml:space="preserve" font-family="Courier,Courier" font-size="19.8" fill="#000000" transform="matrix(1.00, 0.00, -0.00, -1.00, 168.9, 258.9)"> </text><text xml:space="preserve" font-family="Courier,Courier" font-size="19.8" fill="#000000" transform="matrix(1.00, 0.00, -0.00, -1.00, 180.8, 258.9)">R</text><text xml:space="preserve" font-family="Courier,Courier" font-size="19.8" fill="#000000" transform="matrix(1.00, 0.00, -0.00, -1.00, 192.7, 258.9)">D</text><text xml:space="preserve" font-family="Courier,Courier" font-size="19.8" fill="#000000" transform="matrix(1.00, 0.00, -0.00, -1.00, 204.6, 258.9)">F</text><text xml:space="preserve" font-family="Courier,Courier" font-size="19.8" fill="#000000" transform="matrix(1.00, 0.00, -0.00, -1.00, 216.4, 258.9)">:</text><text xml:space="preserve" font-family="Courier,Courier" font-size="19.8" fill="#000000" transform="matrix(1.00, 0.00, -0.00, -1.00, 228.3, 258.9)">:</text><text xml:space="preserve" font-family="Courier,Courier" font-size="19.8" fill="#000000" transform="matrix(1.00, 0.00, -0.00, -1.00, 240.2, 258.9)">N</text><text xml:space="preserve" font-family="Courier,Courier" font-size="19.8" fill="#000000" transform="matrix(1.00, 0.00, -0.00, -1.00, 252.1, 258.9)">o</text><text xml:space="preserve" font-family="Courier,Courier" font-size="19.8" fill="#000000" transform="matrix(1.00, 0.00, -0.00, -1.00, 264.0, 258.9)">d</text><text xml:space="preserve" font-family="Courier,Courier" font-size="19.8" fill="#000000" transform="matrix(1.00, 0.00, -0.00, -1.00, 275.9, 258.9)">e</text><text xml:space="preserve" font-family="Courier,Courier" font-size="19.8" fill="#000000" transform="matrix(1.00, 0.00, -0.00, -1.00, 287.7, 258.9)">(</text><text xml:space="preserve" font-family="Courier,Courier" font-size="19.8" fill="#000000" transform="matrix(1.00, 0.00, -0.00, -1.00, 299.6, 258.9)">"</text><text xml:space="preserve" font-family="Courier,Courier" font-size="19.8" fill="#000000" transform="matrix(1.00, 0.00, -0.00, -1.00, 311.5, 258.9)">f</text><text xml:space="preserve" font-family="Courier,Courier" font-size="19.8" fill="#000000" transform="matrix(1.00, 0.00, -0.00, -1.00, 323.4, 258.9)">o</text><text xml:space="preserve" font-family="Courier,Courier" font-size="19.8" fill="#000000" transform="matrix(1.00, 0.00, -0.00, -1.00, 335.3, 258.9)">o</text><text xml:space="preserve" font-family="Courier,Courier" font-size="19.8" fill="#000000" transform="matrix(1.00, 0.00, -0.00, -1.00, 347.2, 258.9)">"</text><text xml:space="preserve" font-family="Courier,Courier" font-size="19.8" fill="#000000" transform="matrix(1.00, 0.00, -0.00, -1.00, 359.0, 258.9)">)</text><text xml:space="preserve" font-family="Courier,Courier" font-size="19.8" fill="#000000" transform="matrix(1.00, 0.00, -0.00, -1.00, 370.9, 258.9)">;</text><text xml:space="preserve" font-family="Courier,Courier" font-size="19.8" fill="#000000" transform="matrix(1.00, 0.00, -0.00, -1.00, 382.8, 258.9)"> </text><text xml:space="preserve" font-family="Courier,Courier" font-size="19.8" fill="#000000" transform="matrix(1.00, 0.00, -0.00, -1.00, 394.7, 258.9)">n</text><text xml:space="preserve" font-family="Courier,Courier" font-size="19.8" fill="#000000" transform="matrix(1.00, 0.00, -0.00, -1.00, 406.5, 258.9)"> </text><text xml:space="preserve" font-family="Courier,Courier" font-size="19.8" fill="#000000" transform="matrix(1.00, 0.00, -0.00, -1.00, 418.4, 258.9)">=</text><text xml:space="preserve" font-family="Courier,Courier" font-size="19.8" fill="#000000" transform="matrix(1.00, 0.00, -0.00, -1.00, 430.3, 258.9)">=</text><text xml:space="preserve" font-family="Courier,Courier" font-size="19.8" fill="#000000" transform="matrix(1.00, 0.00, -0.00, -1.00, 442.2, 258.9)"> </text><text xml:space="preserve" font-family="Courier,Courier" font-size="19.8" fill="#000000" transform="matrix(1.00, 0.00, -0.00, -1.00, 454.1, 258.9)">n</text><text xml:space="preserve" font-family="Courier,Courier" font-size="19.8" fill="#000000" transform="matrix(1.00, 0.00, -0.00, -1.00, 466.0, 258.9)">.</text><text xml:space="preserve" font-family="Courier,Courier" font-size="19.8" fill="#000000" transform="matrix(1.00, 0.00, -0.00, -1.00, 477.8, 258.9)">d</text><text xml:space="preserve" font-family="Courier,Courier" font-size="19.8" fill="#000000" transform="matrix(1.00, 0.00, -0.00, -1.00, 489.7, 258.9)">u</text><text xml:space="preserve" font-family="Courier,Courier" font-size="19.8" fill="#000000" transform="matrix(1.00, 0.00, -0.00, -1.00, 501.6, 258.9)">p</text><text xml:space="preserve" font-family="Helvetica-Light,Helvetica" font-size="26.7" fill="#000000" transform="matrix(1.00, 0.00, -0.00, -1.00, 79.0, 206.3)">•</text><text xml:space="preserve" font-family="Helvetica-Light,Helvetica" font-size="35.6" fill="#000000" transform="matrix(1.00, 0.00, -0.00, -1.00, 113.7, 203.4)">I</text><text xml:space="preserve" font-family="Helvetica-Light,Helvetica" font-size="35.6" fill="#000000" transform="matrix(1.00, 0.00, -0.00, -1.00, 123.6, 203.4)">n</text><text xml:space="preserve" font-family="Helvetica-Light,Helvetica" font-size="35.6" fill="#000000" transform="matrix(1.00, 0.00, -0.00, -1.00, 143.4, 203.4)">t</text><text xml:space="preserve" font-family="Helvetica-Light,Helvetica" font-size="35.6" fill="#000000" transform="matrix(1.00, 0.00, -0.00, -1.00, 153.3, 203.4)">e</text><text xml:space="preserve" font-family="Helvetica-Light,Helvetica" font-size="35.6" fill="#000000" transform="matrix(1.00, 0.00, -0.00, -1.00, 173.1, 203.4)">r</text><text xml:space="preserve" font-family="Helvetica-Light,Helvetica" font-size="35.6" fill="#000000" transform="matrix(1.00, 0.00, -0.00, -1.00, 185.6, 203.4)">n</text><text xml:space="preserve" font-family="Helvetica-Light,Helvetica" font-size="35.6" fill="#000000" transform="matrix(1.00, 0.00, -0.00, -1.00, 205.4, 203.4)">i</text><text xml:space="preserve" font-family="Helvetica-Light,Helvetica" font-size="35.6" fill="#000000" transform="matrix(1.00, 0.00, -0.00, -1.00, 213.3, 203.4)">n</text><text xml:space="preserve" font-family="Helvetica-Light,Helvetica" font-size="35.6" fill="#000000" transform="matrix(1.00, 0.00, -0.00, -1.00, 233.2, 203.4)">g</text><text xml:space="preserve" font-family="Helvetica-Light,Helvetica" font-size="35.6" fill="#000000" transform="matrix(1.00, 0.00, -0.00, -1.00, 254.9, 203.4)"> </text><text xml:space="preserve" font-family="Helvetica-Light,Helvetica" font-size="26.7" fill="#000000" transform="matrix(1.00, 0.00, -0.00, -1.00, 114.0, 147.5)">•</text><text xml:space="preserve" font-family="Helvetica-Light,Helvetica" font-size="35.6" fill="#000000" transform="matrix(1.00, 0.00, -0.00, -1.00, 148.7, 144.6)">I</text><text xml:space="preserve" font-family="Helvetica-Light,Helvetica" font-size="35.6" fill="#000000" transform="matrix(1.00, 0.00, -0.00, -1.00, 158.6, 144.6)">n</text><text xml:space="preserve" font-family="Helvetica-Light,Helvetica" font-size="35.6" fill="#000000" transform="matrix(1.00, 0.00, -0.00, -1.00, 178.4, 144.6)"> </text><text xml:space="preserve" font-family="Helvetica-Light,Helvetica" font-size="35.6" fill="#000000" transform="matrix(1.00, 0.00, -0.00, -1.00, 188.3, 144.6)">t</text><text xml:space="preserve" font-family="Helvetica-Light,Helvetica" font-size="35.6" fill="#000000" transform="matrix(1.00, 0.00, -0.00, -1.00, 198.2, 144.6)">h</text><text xml:space="preserve" font-family="Helvetica-Light,Helvetica" font-size="35.6" fill="#000000" transform="matrix(1.00, 0.00, -0.00, -1.00, 218.0, 144.6)">e</text><text xml:space="preserve" font-family="Helvetica-Light,Helvetica" font-size="35.6" fill="#000000" transform="matrix(1.00, 0.00, -0.00, -1.00, 237.8, 144.6)">o</text><text xml:space="preserve" font-family="Helvetica-Light,Helvetica" font-size="35.6" fill="#000000" transform="matrix(1.00, 0.00, -0.00, -1.00, 257.6, 144.6)">r</text><text xml:space="preserve" font-family="Helvetica-Light,Helvetica" font-size="35.6" fill="#000000" transform="matrix(1.00, 0.00, -0.00, -1.00, 270.1, 144.6)">y</text><text xml:space="preserve" font-family="Helvetica-Light,Helvetica" font-size="35.6" fill="#000000" transform="matrix(1.00, 0.00, -0.00, -1.00, 288.0, 144.6)">:</text><text xml:space="preserve" font-family="Helvetica-Light,Helvetica" font-size="35.6" fill="#000000" transform="matrix(1.00, 0.00, -0.00, -1.00, 297.9, 144.6)"> </text><text xml:space="preserve" font-family="Courier,Courier" font-size="19.8" fill="#000000" transform="matrix(1.00, 0.00, -0.00, -1.00, 307.8, 144.6)">R</text><text xml:space="preserve" font-family="Courier,Courier" font-size="19.8" fill="#000000" transform="matrix(1.00, 0.00, -0.00, -1.00, 319.7, 144.6)">D</text><text xml:space="preserve" font-family="Courier,Courier" font-size="19.8" fill="#000000" transform="matrix(1.00, 0.00, -0.00, -1.00, 331.6, 144.6)">F</text><text xml:space="preserve" font-family="Courier,Courier" font-size="19.8" fill="#000000" transform="matrix(1.00, 0.00, -0.00, -1.00, 343.4, 144.6)">:</text><text xml:space="preserve" font-family="Courier,Courier" font-size="19.8" fill="#000000" transform="matrix(1.00, 0.00, -0.00, -1.00, 355.3, 144.6)">:</text><text xml:space="preserve" font-family="Courier,Courier" font-size="19.8" fill="#000000" transform="matrix(1.00, 0.00, -0.00, -1.00, 367.2, 144.6)">N</text><text xml:space="preserve" font-family="Courier,Courier" font-size="19.8" fill="#000000" transform="matrix(1.00, 0.00, -0.00, -1.00, 379.1, 144.6)">o</text><text xml:space="preserve" font-family="Courier,Courier" font-size="19.8" fill="#000000" transform="matrix(1.00, 0.00, -0.00, -1.00, 391.0, 144.6)">d</text><text xml:space="preserve" font-family="Courier,Courier" font-size="19.8" fill="#000000" transform="matrix(1.00, 0.00, -0.00, -1.00, 402.9, 144.6)">e</text><text xml:space="preserve" font-family="Courier,Courier" font-size="19.8" fill="#000000" transform="matrix(1.00, 0.00, -0.00, -1.00, 414.7, 144.6)">.</text><text xml:space="preserve" font-family="Courier,Courier" font-size="19.8" fill="#000000" transform="matrix(1.00, 0.00, -0.00, -1.00, 426.6, 144.6)">i</text><text xml:space="preserve" font-family="Courier,Courier" font-size="19.8" fill="#000000" transform="matrix(1.00, 0.00, -0.00, -1.00, 438.5, 144.6)">n</text><text xml:space="preserve" font-family="Courier,Courier" font-size="19.8" fill="#000000" transform="matrix(1.00, 0.00, -0.00, -1.00, 450.4, 144.6)">t</text><text xml:space="preserve" font-family="Courier,Courier" font-size="19.8" fill="#000000" transform="matrix(1.00, 0.00, -0.00, -1.00, 462.3, 144.6)">e</text><text xml:space="preserve" font-family="Courier,Courier" font-size="19.8" fill="#000000" transform="matrix(1.00, 0.00, -0.00, -1.00, 474.2, 144.6)">r</text><text xml:space="preserve" font-family="Courier,Courier" font-size="19.8" fill="#000000" transform="matrix(1.00, 0.00, -0.00, -1.00, 486.0, 144.6)">n</text><text xml:space="preserve" font-family="Courier,Courier" font-size="19.8" fill="#000000" transform="matrix(1.00, 0.00, -0.00, -1.00, 497.9, 144.6)">(</text><text xml:space="preserve" font-family="Courier,Courier" font-size="19.8" fill="#000000" transform="matrix(1.00, 0.00, -0.00, -1.00, 509.8, 144.6)">"</text><text xml:space="preserve" font-family="Courier,Courier" font-size="19.8" fill="#000000" transform="matrix(1.00, 0.00, -0.00, -1.00, 521.7, 144.6)">f</text><text xml:space="preserve" font-family="Courier,Courier" font-size="19.8" fill="#000000" transform="matrix(1.00, 0.00, -0.00, -1.00, 533.6, 144.6)">o</text><text xml:space="preserve" font-family="Courier,Courier" font-size="19.8" fill="#000000" transform="matrix(1.00, 0.00, -0.00, -1.00, 545.5, 144.6)">o</text><text xml:space="preserve" font-family="Courier,Courier" font-size="19.8" fill="#000000" transform="matrix(1.00, 0.00, -0.00, -1.00, 557.3, 144.6)">"</text><text xml:space="preserve" font-family="Courier,Courier" font-size="19.8" fill="#000000" transform="matrix(1.00, 0.00, -0.00, -1.00, 569.2, 144.6)">)</text><text xml:space="preserve" font-family="Courier,Courier" font-size="19.8" fill="#000000" transform="matrix(1.00, 0.00, -0.00, -1.00, 581.1, 144.6)"> </text><text xml:space="preserve" font-family="Courier,Courier" font-size="19.8" fill="#000000" transform="matrix(1.00, 0.00, -0.00, -1.00, 593.0, 144.6)">=</text><text xml:space="preserve" font-family="Courier,Courier" font-size="19.8" fill="#000000" transform="matrix(1.00, 0.00, -0.00, -1.00, 604.9, 144.6)">=</text><text xml:space="preserve" font-family="Courier,Courier" font-size="19.8" fill="#000000" transform="matrix(1.00, 0.00, -0.00, -1.00, 616.8, 144.6)"> </text><text xml:space="preserve" font-family="Courier,Courier" font-size="19.8" fill="#000000" transform="matrix(1.00, 0.00, -0.00, -1.00, 628.6, 144.6)">R</text><text xml:space="preserve" font-family="Courier,Courier" font-size="19.8" fill="#000000" transform="matrix(1.00, 0.00, -0.00, -1.00, 640.5, 144.6)">D</text><text xml:space="preserve" font-family="Courier,Courier" font-size="19.8" fill="#000000" transform="matrix(1.00, 0.00, -0.00, -1.00, 652.4, 144.6)">F</text><text xml:space="preserve" font-family="Courier,Courier" font-size="19.8" fill="#000000" transform="matrix(1.00, 0.00, -0.00, -1.00, 664.3, 144.6)">:</text><text xml:space="preserve" font-family="Courier,Courier" font-size="19.8" fill="#000000" transform="matrix(1.00, 0.00, -0.00, -1.00, 676.2, 144.6)">:</text><text xml:space="preserve" font-family="Courier,Courier" font-size="19.8" fill="#000000" transform="matrix(1.00, 0.00, -0.00, -1.00, 688.1, 144.6)">N</text><text xml:space="preserve" font-family="Courier,Courier" font-size="19.8" fill="#000000" transform="matrix(1.00, 0.00, -0.00, -1.00, 700.0, 144.6)">o</text><text xml:space="preserve" font-family="Courier,Courier" font-size="19.8" fill="#000000" transform="matrix(1.00, 0.00, -0.00, -1.00, 711.8, 144.6)">d</text><text xml:space="preserve" font-family="Courier,Courier" font-size="19.8" fill="#000000" transform="matrix(1.00, 0.00, -0.00, -1.00, 723.7, 144.6)">e</text><text xml:space="preserve" font-family="Courier,Courier" font-size="19.8" fill="#000000" transform="matrix(1.00, 0.00, -0.00, -1.00, 735.6, 144.6)">.</text><text xml:space="preserve" font-family="Courier,Courier" font-size="19.8" fill="#000000" transform="matrix(1.00, 0.00, -0.00, -1.00, 747.5, 144.6)">i</text><text xml:space="preserve" font-family="Courier,Courier" font-size="19.8" fill="#000000" transform="matrix(1.00, 0.00, -0.00, -1.00, 759.4, 144.6)">n</text><text xml:space="preserve" font-family="Courier,Courier" font-size="19.8" fill="#000000" transform="matrix(1.00, 0.00, -0.00, -1.00, 771.3, 144.6)">t</text><text xml:space="preserve" font-family="Courier,Courier" font-size="19.8" fill="#000000" transform="matrix(1.00, 0.00, -0.00, -1.00, 783.1, 144.6)">e</text><text xml:space="preserve" font-family="Courier,Courier" font-size="19.8" fill="#000000" transform="matrix(1.00, 0.00, -0.00, -1.00, 795.0, 144.6)">r</text><text xml:space="preserve" font-family="Courier,Courier" font-size="19.8" fill="#000000" transform="matrix(1.00, 0.00, -0.00, -1.00, 806.9, 144.6)">n</text><text xml:space="preserve" font-family="Courier,Courier" font-size="19.8" fill="#000000" transform="matrix(1.00, 0.00, -0.00, -1.00, 818.8, 144.6)">(</text><text xml:space="preserve" font-family="Courier,Courier" font-size="19.8" fill="#000000" transform="matrix(1.00, 0.00, -0.00, -1.00, 830.7, 144.6)">"</text><text xml:space="preserve" font-family="Courier,Courier" font-size="19.8" fill="#000000" transform="matrix(1.00, 0.00, -0.00, -1.00, 842.6, 144.6)">f</text><text xml:space="preserve" font-family="Courier,Courier" font-size="19.8" fill="#000000" transform="matrix(1.00, 0.00, -0.00, -1.00, 854.4, 144.6)">o</text><text xml:space="preserve" font-family="Courier,Courier" font-size="19.8" fill="#000000" transform="matrix(1.00, 0.00, -0.00, -1.00, 866.3, 144.6)">o</text><text xml:space="preserve" font-family="Courier,Courier" font-size="19.8" fill="#000000" transform="matrix(1.00, 0.00, -0.00, -1.00, 878.2, 144.6)">"</text><text xml:space="preserve" font-family="Courier,Courier" font-size="19.8" fill="#000000" transform="matrix(1.00, 0.00, -0.00, -1.00, 890.1, 144.6)">)</text><text xml:space="preserve" font-family="Helvetica-Light,Helvetica" font-size="35.6" fill="#000000" transform="matrix(1.00, 0.00, -0.00, -1.00, 901.9, 144.6)"> </text><text xml:space="preserve" font-family="Helvetica-Light,Helvetica" font-size="26.7" fill="#000000" transform="matrix(1.00, 0.00, -0.00, -1.00, 149.0, 88.7)">•</text><text xml:space="preserve" font-family="Helvetica-Light,Helvetica" font-size="35.6" fill="#000000" transform="matrix(1.00, 0.00, -0.00, -1.00, 183.7, 85.7)">o</text><text xml:space="preserve" font-family="Helvetica-Light,Helvetica" font-size="35.6" fill="#000000" transform="matrix(1.00, 0.00, -0.00, -1.00, 203.5, 85.7)">u</text><text xml:space="preserve" font-family="Helvetica-Light,Helvetica" font-size="35.6" fill="#000000" transform="matrix(1.00, 0.00, -0.00, -1.00, 223.3, 85.7)">t</text><text xml:space="preserve" font-family="Helvetica-Light,Helvetica" font-size="35.6" fill="#000000" transform="matrix(1.00, 0.00, -0.00, -1.00, 233.2, 85.7)">s</text><text xml:space="preserve" font-family="Helvetica-Light,Helvetica" font-size="35.6" fill="#000000" transform="matrix(1.00, 0.00, -0.00, -1.00, 251.0, 85.7)">t</text><text xml:space="preserve" font-family="Helvetica-Light,Helvetica" font-size="35.6" fill="#000000" transform="matrix(1.00, 0.00, -0.00, -1.00, 260.9, 85.7)">a</text><text xml:space="preserve" font-family="Helvetica-Light,Helvetica" font-size="35.6" fill="#000000" transform="matrix(1.00, 0.00, -0.00, -1.00, 280.7, 85.7)">n</text><text xml:space="preserve" font-family="Helvetica-Light,Helvetica" font-size="35.6" fill="#000000" transform="matrix(1.00, 0.00, -0.00, -1.00, 300.5, 85.7)">d</text><text xml:space="preserve" font-family="Helvetica-Light,Helvetica" font-size="35.6" fill="#000000" transform="matrix(1.00, 0.00, -0.00, -1.00, 322.3, 85.7)">i</text><text xml:space="preserve" font-family="Helvetica-Light,Helvetica" font-size="35.6" fill="#000000" transform="matrix(1.00, 0.00, -0.00, -1.00, 330.2, 85.7)">n</text><text xml:space="preserve" font-family="Helvetica-Light,Helvetica" font-size="35.6" fill="#000000" transform="matrix(1.00, 0.00, -0.00, -1.00, 350.1, 85.7)">g</text><text xml:space="preserve" font-family="Helvetica-Light,Helvetica" font-size="35.6" fill="#000000" transform="matrix(1.00, 0.00, -0.00, -1.00, 371.8, 85.7)"> </text><text xml:space="preserve" font-family="Helvetica-Light,Helvetica" font-size="35.6" fill="#000000" transform="matrix(1.00, 0.00, -0.00, -1.00, 381.7, 85.7)">i</text><text xml:space="preserve" font-family="Helvetica-Light,Helvetica" font-size="35.6" fill="#000000" transform="matrix(1.00, 0.00, -0.00, -1.00, 389.6, 85.7)">s</text><text xml:space="preserve" font-family="Helvetica-Light,Helvetica" font-size="35.6" fill="#000000" transform="matrix(1.00, 0.00, -0.00, -1.00, 407.5, 85.7)">s</text><text xml:space="preserve" font-family="Helvetica-Light,Helvetica" font-size="35.6" fill="#000000" transform="matrix(1.00, 0.00, -0.00, -1.00, 425.3, 85.7)">u</text><text xml:space="preserve" font-family="Helvetica-Light,Helvetica" font-size="35.6" fill="#000000" transform="matrix(1.00, 0.00, -0.00, -1.00, 445.1, 85.7)">e</text><text xml:space="preserve" font-family="Helvetica-Light,Helvetica" font-size="35.6" fill="#000000" transform="matrix(1.00, 0.00, -0.00, -1.00, 464.9, 85.7)">.</text><text xml:space="preserve" font-family="Helvetica-Light,Helvetica" font-size="12.0" fill="#000000" transform="matrix(1.00, 0.00, -0.00, -1.00, 928.8, 25.8)">5</text><text xml:space="preserve" font-family="Helvetica-Light,Helvetica" font-size="12.0" fill="#000000" transform="matrix(1.00, 0.00, -0.00, -1.00, 935.5, 25.8)">0</text></g></svg>