<?xml version="1.0" encoding="UTF-8" standalone="no"?><svg xmlns="http://www.w3.org/2000/svg" xmlns:xlink="http://www.w3.org/1999/xlink" clip-rule="evenodd" stroke-miterlimit="4.00" viewBox="0 0 1024 768"><desc>SVG generated by Keynote</desc><defs></defs><g transform="matrix(1.00, 0.00, -0.00, -1.00, 0.0, 768.0)"><path d="M 0.0 768.0 L 1024.0 768.0 L 1024.0 0.0 L 0.0 0.0 Z M 0.0 768.0 " fill="#FEFFFF"></path><text xml:space="preserve" font-family="Helvetica" font-size="12.0" fill="#000000" transform="matrix(1.00, 0.00, -0.00, -1.00, 434.0, 26.0)">B</text><text xml:space="preserve" font-family="Helvetica" font-size="12.0" fill="#000000" transform="matrix(1.00, 0.00, -0.00, -1.00, 442.0, 26.0)">e</text><text xml:space="preserve" font-family="Helvetica" font-size="12.0" fill="#000000" transform="matrix(1.00, 0.00, -0.00, -1.00, 448.7, 26.0)">r</text><text xml:space="preserve" font-family="Helvetica" font-size="12.0" fill="#000000" transform="matrix(1.00, 0.00, -0.00, -1.00, 452.7, 26.0)">l</text><text xml:space="preserve" font-family="Helvetica" font-size="12.0" fill="#000000" transform="matrix(1.00, 0.00, -0.00, -1.00, 455.3, 26.0)">i</text><text xml:space="preserve" font-family="Helvetica" font-size="12.0" fill="#000000" transform="matrix(1.00, 0.00, -0.00, -1.00, 458.0, 26.0)">n</text><text xml:space="preserve" font-family="Helvetica" font-size="12.0" fill="#000000" transform="matrix(1.00, 0.00, -0.00, -1.00, 464.7, 26.0)"> </text><text xml:space="preserve" font-family="Helvetica" font-size="12.0" fill="#000000" transform="matrix(1.00, 0.00, -0.00, -1.00, 468.0, 26.0)">S</text><text xml:space="preserve" font-family="Helvetica" font-size="12.0" fill="#000000" transform="matrix(1.00, 0.00, -0.00, -1.00, 476.0, 26.0)">e</text><text xml:space="preserve" font-family="Helvetica" font-size="12.0" fill="#000000" transform="matrix(1.00, 0.00, -0.00, -1.00, 482.7, 26.0)">m</text><text xml:space="preserve" font-family="Helvetica" font-size="12.0" fill="#000000" transform="matrix(1.00, 0.00, -0.00, -1.00, 492.7, 26.0)">a</text><text xml:space="preserve" font-family="Helvetica" font-size="12.0" fill="#000000" transform="matrix(1.00, 0.00, -0.00, -1.00, 499.4, 26.0)">n</text><text xml:space="preserve" font-family="Helvetica" font-size="12.0" fill="#000000" transform="matrix(1.00, 0.00, -0.00, -1.00, 506.0, 26.0)">t</text><text xml:space="preserve" font-family="Helvetica" font-size="12.0" fill="#000000" transform="matrix(1.00, 0.00, -0.00, -1.00, 509.4, 26.0)">i</text><text xml:space="preserve" font-family="Helvetica" font-size="12.0" fill="#000000" transform="matrix(1.00, 0.00, -0.00, -1.00, 512.0, 26.0)">c</text><text xml:space="preserve" font-family="Helvetica" font-size="12.0" fill="#000000" transform="matrix(1.00, 0.00, -0.00, -1.00, 518.0, 26.0)"> </text><text xml:space="preserve" font-family="Helvetica" font-size="12.0" fill="#000000" transform="matrix(1.00, 0.00, -0.00, -1.00, 521.4, 26.0)">W</text><text xml:space="preserve" font-family="Helvetica" font-size="12.0" fill="#000000" transform="matrix(1.00, 0.00, -0.00, -1.00, 532.5, 26.0)">e</text><text xml:space="preserve" font-family="Helvetica" font-size="12.0" fill="#000000" transform="matrix(1.00, 0.00, -0.00, -1.00, 539.2, 26.0)">b</text><text xml:space="preserve" font-family="Helvetica" font-size="12.0" fill="#000000" transform="matrix(1.00, 0.00, -0.00, -1.00, 545.8, 26.0)"> </text><text xml:space="preserve" font-family="Helvetica" font-size="12.0" fill="#000000" transform="matrix(1.00, 0.00, -0.00, -1.00, 549.2, 26.0)">M</text><text xml:space="preserve" font-family="Helvetica" font-size="12.0" fill="#000000" transform="matrix(1.00, 0.00, -0.00, -1.00, 559.2, 26.0)">e</text><text xml:space="preserve" font-family="Helvetica" font-size="12.0" fill="#000000" transform="matrix(1.00, 0.00, -0.00, -1.00, 565.9, 26.0)">e</text><text xml:space="preserve" font-family="Helvetica" font-size="12.0" fill="#000000" transform="matrix(1.00, 0.00, -0.00, -1.00, 572.5, 26.0)">t</text><text xml:space="preserve" font-family="Helvetica" font-size="12.0" fill="#000000" transform="matrix(1.00, 0.00, -0.00, -1.00, 575.9, 26.0)">u</text><text xml:space="preserve" font-family="Helvetica" font-size="12.0" fill="#000000" transform="matrix(1.00, 0.00, -0.00, -1.00, 582.5, 26.0)">p</text><text xml:space="preserve" font-family="Helvetica" font-size="12.0" fill="#000000" transform="matrix(1.00, 0.00, -0.00, -1.00, 107.0, 26.0)">J</text><text xml:space="preserve" font-family="Helvetica" font-size="12.0" fill="#000000" transform="matrix(1.00, 0.00, -0.00, -1.00, 113.0, 26.0)">u</text><text xml:space="preserve" font-family="Helvetica" font-size="12.0" fill="#000000" transform="matrix(1.00, 0.00, -0.00, -1.00, 119.7, 26.0)">n</text><text xml:space="preserve" font-family="Helvetica" font-size="12.0" fill="#000000" transform="matrix(1.00, 0.00, -0.00, -1.00, 126.4, 26.0)">e</text><text xml:space="preserve" font-family="Helvetica" font-size="12.0" fill="#000000" transform="matrix(1.00, 0.00, -0.00, -1.00, 133.0, 26.0)"> </text><text xml:space="preserve" font-family="Helvetica" font-size="12.0" fill="#000000" transform="matrix(1.00, 0.00, -0.00, -1.00, 136.4, 26.0)">2</text><text xml:space="preserve" font-family="Helvetica" font-size="12.0" fill="#000000" transform="matrix(1.00, 0.00, -0.00, -1.00, 143.0, 26.0)">0</text><text xml:space="preserve" font-family="Helvetica" font-size="12.0" fill="#000000" transform="matrix(1.00, 0.00, -0.00, -1.00, 149.7, 26.0)">1</text><text xml:space="preserve" font-family="Helvetica" font-size="12.0" fill="#000000" transform="matrix(1.00, 0.00, -0.00, -1.00, 156.4, 26.0)">5</text><text xml:space="preserve" font-family="Helvetica-Light" font-size="50.0" fill="#000000" transform="matrix(1.00, 0.00, -0.00, -1.00, 341.0, 629.0)">B</text><text xml:space="preserve" font-family="Helvetica-Light" font-size="50.0" fill="#000000" transform="matrix(1.00, 0.00, -0.00, -1.00, 374.4, 629.0)">e</text><text xml:space="preserve" font-family="Helvetica-Light" font-size="50.0" fill="#000000" transform="matrix(1.00, 0.00, -0.00, -1.00, 402.1, 629.0)">t</text><text xml:space="preserve" font-family="Helvetica-Light" font-size="50.0" fill="#000000" transform="matrix(1.00, 0.00, -0.00, -1.00, 416.1, 629.0)">t</text><text xml:space="preserve" font-family="Helvetica-Light" font-size="50.0" fill="#000000" transform="matrix(1.00, 0.00, -0.00, -1.00, 430.0, 629.0)">e</text><text xml:space="preserve" font-family="Helvetica-Light" font-size="50.0" fill="#000000" transform="matrix(1.00, 0.00, -0.00, -1.00, 457.8, 629.0)">r</text><text xml:space="preserve" font-family="Helvetica-Light" font-size="50.0" fill="#000000" transform="matrix(1.00, 0.00, -0.00, -1.00, 474.4, 629.0)"> </text><text xml:space="preserve" font-family="Helvetica-Light" font-size="50.0" fill="#000000" transform="matrix(1.00, 0.00, -0.00, -1.00, 488.3, 629.0)">E</text><text xml:space="preserve" font-family="Helvetica-Light" font-size="50.0" fill="#000000" transform="matrix(1.00, 0.00, -0.00, -1.00, 518.9, 629.0)">x</text><text xml:space="preserve" font-family="Helvetica-Light" font-size="50.0" fill="#000000" transform="matrix(1.00, 0.00, -0.00, -1.00, 543.9, 629.0)">a</text><text xml:space="preserve" font-family="Helvetica-Light" font-size="50.0" fill="#000000" transform="matrix(1.00, 0.00, -0.00, -1.00, 571.7, 629.0)">m</text><text xml:space="preserve" font-family="Helvetica-Light" font-size="50.0" fill="#000000" transform="matrix(1.00, 0.00, -0.00, -1.00, 613.3, 629.0)">p</text><text xml:space="preserve" font-family="Helvetica-Light" font-size="50.0" fill="#000000" transform="matrix(1.00, 0.00, -0.00, -1.00, 643.9, 629.0)">l</text><text xml:space="preserve" font-family="Helvetica-Light" font-size="50.0" fill="#000000" transform="matrix(1.00, 0.00, -0.00, -1.00, 655.0, 629.0)">e</text><text xml:space="preserve" font-family="Helvetica-Light" font-size="12.0" fill="#000000" transform="matrix(1.00, 0.00, -0.00, -1.00, 929.0, 26.0)">2</text><text xml:space="preserve" font-family="Helvetica-Light" font-size="12.0" fill="#000000" transform="matrix(1.00, 0.00, -0.00, -1.00, 935.7, 26.0)">9</text><g><clipPath id="clip-334"><path d="M 176.2 410.7 L 369.9 410.7 L 369.9 578.8 L 176.2 578.8 Z M 176.2 410.7 "></path></clipPath><g clip-path="url(#clip-334)"><path d="M 339.4 552.1 C 376.1 520.4 376.1 469.1 339.4 437.4 C 302.8 405.8 243.4 405.8 206.7 437.4 C 170.0 469.1 170.0 520.4 206.7 552.1 C 243.4 583.7 302.8 583.7 339.4 552.1 Z M 339.4 552.1 " fill="#C0504D"></path><path d="M 160.2 23.7 C 196.9 55.4 196.9 106.7 160.2 138.4 C 123.6 170.0 64.2 170.0 27.5 138.4 C -9.2 106.7 -9.2 55.4 27.5 23.7 C 64.2 -7.9 123.6 -7.9 160.2 23.7 Z M 160.2 23.7 " fill="none" stroke="#000000" stroke-width="4.00" stroke-linejoin="round" transform="matrix(1.00, 0.00, 0.00, -1.00, 179.2, 575.8)"></path></g></g><g><clipPath id="clip-335"><path d="M 211.9 474.2 L 335.3 474.2 L 335.3 515.2 L 211.9 515.2 Z M 211.9 474.2 "></path></clipPath><g clip-path="url(#clip-335)"><text xml:space="preserve" font-family="Helvetica-Bold" font-weight="bold" font-size="24.0" fill="#000000" transform="matrix(1.00, 0.00, -0.00, -1.00, 218.0, 486.0)">R</text><text xml:space="preserve" font-family="Helvetica-Bold" font-weight="bold" font-size="24.0" fill="#000000" transform="matrix(1.00, 0.00, -0.00, -1.00, 235.3, 486.0)">e</text><text xml:space="preserve" font-family="Helvetica-Bold" font-weight="bold" font-size="24.0" fill="#000000" transform="matrix(1.00, 0.00, -0.00, -1.00, 248.7, 486.0)">s</text><text xml:space="preserve" font-family="Helvetica-Bold" font-weight="bold" font-size="24.0" fill="#000000" transform="matrix(1.00, 0.00, -0.00, -1.00, 262.0, 486.0)">o</text><text xml:space="preserve" font-family="Helvetica-Bold" font-weight="bold" font-size="24.0" fill="#000000" transform="matrix(1.00, 0.00, -0.00, -1.00, 276.7, 486.0)">u</text><text xml:space="preserve" font-family="Helvetica-Bold" font-weight="bold" font-size="24.0" fill="#000000" transform="matrix(1.00, 0.00, -0.00, -1.00, 291.4, 486.0)">r</text><text xml:space="preserve" font-family="Helvetica-Bold" font-weight="bold" font-size="24.0" fill="#000000" transform="matrix(1.00, 0.00, -0.00, -1.00, 300.7, 486.0)">c</text><text xml:space="preserve" font-family="Helvetica-Bold" font-weight="bold" font-size="24.0" fill="#000000" transform="matrix(1.00, 0.00, -0.00, -1.00, 314.1, 486.0)">e</text></g></g><path d="M 0.0 0.0 L 224.6 0.0 L 226.6 0.0 " fill="none" stroke="#000000" stroke-width="4.00" stroke-linejoin="round" transform="matrix(1.00, 0.00, 0.00, -1.00, 366.9, 490.5)"></path><path d="M 593.8 496.5 L 605.9 490.5 L 593.8 484.4 Z M 593.8 496.5 " fill="#000000"></path><text xml:space="preserve" font-family="Helvetica" font-size="28.0" fill="#000000" transform="matrix(1.00, 0.00, -0.00, -1.00, 424.0, 517.0)">d</text><text xml:space="preserve" font-family="Helvetica" font-size="28.0" fill="#000000" transform="matrix(1.00, 0.00, -0.00, -1.00, 439.6, 517.0)">c</text><text xml:space="preserve" font-family="Helvetica" font-size="28.0" fill="#000000" transform="matrix(1.00, 0.00, -0.00, -1.00, 453.6, 517.0)">:</text><text xml:space="preserve" font-family="Helvetica" font-size="28.0" fill="#000000" transform="matrix(1.00, 0.00, -0.00, -1.00, 461.4, 517.0)">c</text><text xml:space="preserve" font-family="Helvetica" font-size="28.0" fill="#000000" transform="matrix(1.00, 0.00, -0.00, -1.00, 475.4, 517.0)">r</text><text xml:space="preserve" font-family="Helvetica" font-size="28.0" fill="#000000" transform="matrix(1.00, 0.00, -0.00, -1.00, 484.7, 517.0)">e</text><text xml:space="preserve" font-family="Helvetica" font-size="28.0" fill="#000000" transform="matrix(1.00, 0.00, -0.00, -1.00, 500.3, 517.0)">a</text><text xml:space="preserve" font-family="Helvetica" font-size="28.0" fill="#000000" transform="matrix(1.00, 0.00, -0.00, -1.00, 515.8, 517.0)">t</text><text xml:space="preserve" font-family="Helvetica" font-size="28.0" fill="#000000" transform="matrix(1.00, 0.00, -0.00, -1.00, 523.6, 517.0)">o</text><text xml:space="preserve" font-family="Helvetica" font-size="28.0" fill="#000000" transform="matrix(1.00, 0.00, -0.00, -1.00, 539.2, 517.0)">r</text><text xml:space="preserve" font-family="Helvetica" font-size="24.0" fill="#000000" transform="matrix(1.00, 0.00, -0.00, -1.00, 629.0, 270.0)">“</text><text xml:space="preserve" font-family="Helvetica" font-size="24.0" fill="#000000" transform="matrix(1.00, 0.00, -0.00, -1.00, 637.0, 270.0)">M</text><text xml:space="preserve" font-family="Helvetica" font-size="24.0" fill="#000000" transform="matrix(1.00, 0.00, -0.00, -1.00, 657.0, 270.0)">i</text><text xml:space="preserve" font-family="Helvetica" font-size="24.0" fill="#000000" transform="matrix(1.00, 0.00, -0.00, -1.00, 662.3, 270.0)">c</text><text xml:space="preserve" font-family="Helvetica" font-size="24.0" fill="#000000" transform="matrix(1.00, 0.00, -0.00, -1.00, 674.3, 270.0)">h</text><text xml:space="preserve" font-family="Helvetica" font-size="24.0" fill="#000000" transform="matrix(1.00, 0.00, -0.00, -1.00, 687.7, 270.0)">a</text><text xml:space="preserve" font-family="Helvetica" font-size="24.0" fill="#000000" transform="matrix(1.00, 0.00, -0.00, -1.00, 701.0, 270.0)">e</text><text xml:space="preserve" font-family="Helvetica" font-size="24.0" fill="#000000" transform="matrix(1.00, 0.00, -0.00, -1.00, 714.4, 270.0)">l</text><text xml:space="preserve" font-family="Helvetica" font-size="24.0" fill="#000000" transform="matrix(1.00, 0.00, -0.00, -1.00, 719.7, 270.0)"> </text><text xml:space="preserve" font-family="Helvetica" font-size="24.0" fill="#000000" transform="matrix(1.00, 0.00, -0.00, -1.00, 726.4, 270.0)">J</text><text xml:space="preserve" font-family="Helvetica" font-size="24.0" fill="#000000" transform="matrix(1.00, 0.00, -0.00, -1.00, 738.4, 270.0)">a</text><text xml:space="preserve" font-family="Helvetica" font-size="24.0" fill="#000000" transform="matrix(1.00, 0.00, -0.00, -1.00, 751.7, 270.0)">c</text><text xml:space="preserve" font-family="Helvetica" font-size="24.0" fill="#000000" transform="matrix(1.00, 0.00, -0.00, -1.00, 763.7, 270.0)">k</text><text xml:space="preserve" font-family="Helvetica" font-size="24.0" fill="#000000" transform="matrix(1.00, 0.00, -0.00, -1.00, 775.7, 270.0)">s</text><text xml:space="preserve" font-family="Helvetica" font-size="24.0" fill="#000000" transform="matrix(1.00, 0.00, -0.00, -1.00, 787.7, 270.0)">o</text><text xml:space="preserve" font-family="Helvetica" font-size="24.0" fill="#000000" transform="matrix(1.00, 0.00, -0.00, -1.00, 801.1, 270.0)">n</text><text xml:space="preserve" font-family="Helvetica" font-size="24.0" fill="#000000" transform="matrix(1.00, 0.00, -0.00, -1.00, 814.4, 270.0)">”</text><g><clipPath id="clip-336"><path d="M 602.8 404.5 L 796.5 404.5 L 796.5 572.6 L 602.8 572.6 Z M 602.8 404.5 "></path></clipPath><g clip-path="url(#clip-336)"><path d="M 766.0 545.9 C 802.7 514.2 802.7 462.9 766.0 431.2 C 729.4 399.6 669.9 399.6 633.3 431.2 C 596.6 462.9 596.6 514.2 633.3 545.9 C 669.9 577.5 729.4 577.5 766.0 545.9 Z M 766.0 545.9 " fill="#C0504D"></path><path d="M 160.2 23.7 C 196.9 55.4 196.9 106.7 160.2 138.4 C 123.6 170.0 64.2 170.0 27.5 138.4 C -9.2 106.7 -9.2 55.4 27.5 23.7 C 64.2 -7.9 123.6 -7.9 160.2 23.7 Z M 160.2 23.7 " fill="none" stroke="#000000" stroke-width="4.00" stroke-linejoin="round" transform="matrix(1.00, 0.00, 0.00, -1.00, 605.8, 569.6)"></path></g></g><g><clipPath id="clip-337"><path d="M 638.5 468.0 L 761.8 468.0 L 761.8 509.0 L 638.5 509.0 Z M 638.5 468.0 "></path></clipPath><g clip-path="url(#clip-337)"><text xml:space="preserve" font-family="Helvetica-Bold" font-weight="bold" font-size="24.0" fill="#000000" transform="matrix(1.00, 0.00, -0.00, -1.00, 645.0, 480.0)">R</text><text xml:space="preserve" font-family="Helvetica-Bold" font-weight="bold" font-size="24.0" fill="#000000" transform="matrix(1.00, 0.00, -0.00, -1.00, 662.3, 480.0)">e</text><text xml:space="preserve" font-family="Helvetica-Bold" font-weight="bold" font-size="24.0" fill="#000000" transform="matrix(1.00, 0.00, -0.00, -1.00, 675.7, 480.0)">s</text><text xml:space="preserve" font-family="Helvetica-Bold" font-weight="bold" font-size="24.0" fill="#000000" transform="matrix(1.00, 0.00, -0.00, -1.00, 689.0, 480.0)">o</text><text xml:space="preserve" font-family="Helvetica-Bold" font-weight="bold" font-size="24.0" fill="#000000" transform="matrix(1.00, 0.00, -0.00, -1.00, 703.7, 480.0)">u</text><text xml:space="preserve" font-family="Helvetica-Bold" font-weight="bold" font-size="24.0" fill="#000000" transform="matrix(1.00, 0.00, -0.00, -1.00, 718.4, 480.0)">r</text><text xml:space="preserve" font-family="Helvetica-Bold" font-weight="bold" font-size="24.0" fill="#000000" transform="matrix(1.00, 0.00, -0.00, -1.00, 727.7, 480.0)">c</text><text xml:space="preserve" font-family="Helvetica-Bold" font-weight="bold" font-size="24.0" fill="#000000" transform="matrix(1.00, 0.00, -0.00, -1.00, 741.1, 480.0)">e</text></g></g><path d="M 0.0 0.0 L 100.6 0.0 L 102.6 0.0 " fill="none" stroke="#000000" stroke-width="4.00" stroke-linejoin="round" transform="matrix(0.00, -1.00, -1.00, 0.00, 701.5, 410.0)"></path><path d="M 707.5 307.0 L 701.5 295.0 L 695.5 307.0 Z M 707.5 307.0 " fill="#000000"></path><text xml:space="preserve" font-family="Helvetica" font-size="28.0" fill="#000000" transform="matrix(1.00, 0.00, -0.00, -1.00, 709.0, 333.0)">f</text><text xml:space="preserve" font-family="Helvetica" font-size="28.0" fill="#000000" transform="matrix(1.00, 0.00, -0.00, -1.00, 716.8, 333.0)">o</text><text xml:space="preserve" font-family="Helvetica" font-size="28.0" fill="#000000" transform="matrix(1.00, 0.00, -0.00, -1.00, 732.3, 333.0)">a</text><text xml:space="preserve" font-family="Helvetica" font-size="28.0" fill="#000000" transform="matrix(1.00, 0.00, -0.00, -1.00, 747.9, 333.0)">f</text><text xml:space="preserve" font-family="Helvetica" font-size="28.0" fill="#000000" transform="matrix(1.00, 0.00, -0.00, -1.00, 755.7, 333.0)">:</text><text xml:space="preserve" font-family="Helvetica" font-size="28.0" fill="#000000" transform="matrix(1.00, 0.00, -0.00, -1.00, 763.5, 333.0)">n</text><text xml:space="preserve" font-family="Helvetica" font-size="28.0" fill="#000000" transform="matrix(1.00, 0.00, -0.00, -1.00, 779.1, 333.0)">a</text><text xml:space="preserve" font-family="Helvetica" font-size="28.0" fill="#000000" transform="matrix(1.00, 0.00, -0.00, -1.00, 794.6, 333.0)">m</text><text xml:space="preserve" font-family="Helvetica" font-size="28.0" fill="#000000" transform="matrix(1.00, 0.00, -0.00, -1.00, 818.0, 333.0)">e</text><text xml:space="preserve" font-family="Helvetica" font-size="24.0" fill="#000000" transform="matrix(1.00, 0.00, -0.00, -1.00, 199.0, 269.0)">“</text><text xml:space="preserve" font-family="Helvetica" font-size="24.0" fill="#000000" transform="matrix(1.00, 0.00, -0.00, -1.00, 207.0, 269.0)">T</text><text xml:space="preserve" font-family="Helvetica" font-size="24.0" fill="#000000" transform="matrix(1.00, 0.00, -0.00, -1.00, 221.6, 269.0)">h</text><text xml:space="preserve" font-family="Helvetica" font-size="24.0" fill="#000000" transform="matrix(1.00, 0.00, -0.00, -1.00, 235.0, 269.0)">r</text><text xml:space="preserve" font-family="Helvetica" font-size="24.0" fill="#000000" transform="matrix(1.00, 0.00, -0.00, -1.00, 243.0, 269.0)">i</text><text xml:space="preserve" font-family="Helvetica" font-size="24.0" fill="#000000" transform="matrix(1.00, 0.00, -0.00, -1.00, 248.3, 269.0)">l</text><text xml:space="preserve" font-family="Helvetica" font-size="24.0" fill="#000000" transform="matrix(1.00, 0.00, -0.00, -1.00, 253.7, 269.0)">l</text><text xml:space="preserve" font-family="Helvetica" font-size="24.0" fill="#000000" transform="matrix(1.00, 0.00, -0.00, -1.00, 259.0, 269.0)">e</text><text xml:space="preserve" font-family="Helvetica" font-size="24.0" fill="#000000" transform="matrix(1.00, 0.00, -0.00, -1.00, 272.4, 269.0)">r</text><text xml:space="preserve" font-family="Helvetica" font-size="24.0" fill="#000000" transform="matrix(1.00, 0.00, -0.00, -1.00, 280.3, 269.0)">”</text><path d="M 0.0 0.0 L 102.6 0.0 L 104.6 0.0 " fill="none" stroke="#000000" stroke-width="4.00" stroke-linejoin="round" transform="matrix(0.00, -1.00, -1.00, 0.00, 271.5, 411.0)"></path><path d="M 277.5 306.0 L 271.5 294.0 L 265.5 306.0 Z M 277.5 306.0 " fill="#000000"></path><text xml:space="preserve" font-family="Helvetica" font-size="28.0" fill="#000000" transform="matrix(1.00, 0.00, -0.00, -1.00, 295.0, 332.0)">f</text><text xml:space="preserve" font-family="Helvetica" font-size="28.0" fill="#000000" transform="matrix(1.00, 0.00, -0.00, -1.00, 302.8, 332.0)">r</text><text xml:space="preserve" font-family="Helvetica" font-size="28.0" fill="#000000" transform="matrix(1.00, 0.00, -0.00, -1.00, 312.1, 332.0)">b</text><text xml:space="preserve" font-family="Helvetica" font-size="28.0" fill="#000000" transform="matrix(1.00, 0.00, -0.00, -1.00, 327.7, 332.0)">r</text><text xml:space="preserve" font-family="Helvetica" font-size="28.0" fill="#000000" transform="matrix(1.00, 0.00, -0.00, -1.00, 337.0, 332.0)">:</text><text xml:space="preserve" font-family="Helvetica" font-size="28.0" fill="#000000" transform="matrix(1.00, 0.00, -0.00, -1.00, 344.8, 332.0)">t</text><text xml:space="preserve" font-family="Helvetica" font-size="28.0" fill="#000000" transform="matrix(1.00, 0.00, -0.00, -1.00, 352.6, 332.0)">i</text><text xml:space="preserve" font-family="Helvetica" font-size="28.0" fill="#000000" transform="matrix(1.00, 0.00, -0.00, -1.00, 358.8, 332.0)">t</text><text xml:space="preserve" font-family="Helvetica" font-size="28.0" fill="#000000" transform="matrix(1.00, 0.00, -0.00, -1.00, 366.5, 332.0)">l</text><text xml:space="preserve" font-family="Helvetica" font-size="28.0" fill="#000000" transform="matrix(1.00, 0.00, -0.00, -1.00, 372.8, 332.0)">e</text><text xml:space="preserve" font-family="Helvetica-Light" font-size="25.0" fill="#000000" transform="matrix(1.00, 0.00, -0.00, -1.00, 107.0, 180.0)">_</text><text xml:space="preserve" font-family="Helvetica-Light" font-size="25.0" fill="#000000" transform="matrix(1.00, 0.00, -0.00, -1.00, 119.5, 180.0)">:</text><text xml:space="preserve" font-family="Helvetica-Light" font-size="25.0" fill="#000000" transform="matrix(1.00, 0.00, -0.00, -1.00, 126.5, 180.0)">m</text><text xml:space="preserve" font-family="Helvetica-Light" font-size="25.0" fill="#000000" transform="matrix(1.00, 0.00, -0.00, -1.00, 147.3, 180.0)">o</text><text xml:space="preserve" font-family="Helvetica-Light" font-size="25.0" fill="#000000" transform="matrix(1.00, 0.00, -0.00, -1.00, 161.2, 180.0)">v</text><text xml:space="preserve" font-family="Helvetica-Light" font-size="25.0" fill="#000000" transform="matrix(1.00, 0.00, -0.00, -1.00, 173.7, 180.0)">i</text><text xml:space="preserve" font-family="Helvetica-Light" font-size="25.0" fill="#000000" transform="matrix(1.00, 0.00, -0.00, -1.00, 179.2, 180.0)">e</text><text xml:space="preserve" font-family="Helvetica-Light" font-size="25.0" fill="#000000" transform="matrix(1.00, 0.00, -0.00, -1.00, 193.1, 180.0)"> </text><text xml:space="preserve" font-family="Helvetica-Light" font-size="25.0" fill="#000000" transform="matrix(1.00, 0.00, -0.00, -1.00, 200.1, 180.0)">f</text><text xml:space="preserve" font-family="Helvetica-Light" font-size="25.0" fill="#000000" transform="matrix(1.00, 0.00, -0.00, -1.00, 207.0, 180.0)">r</text><text xml:space="preserve" font-family="Helvetica-Light" font-size="25.0" fill="#000000" transform="matrix(1.00, 0.00, -0.00, -1.00, 215.4, 180.0)">b</text><text xml:space="preserve" font-family="Helvetica-Light" font-size="25.0" fill="#000000" transform="matrix(1.00, 0.00, -0.00, -1.00, 230.6, 180.0)">r</text><text xml:space="preserve" font-family="Helvetica-Light" font-size="25.0" fill="#000000" transform="matrix(1.00, 0.00, -0.00, -1.00, 239.0, 180.0)">:</text><text xml:space="preserve" font-family="Helvetica-Light" font-size="25.0" fill="#000000" transform="matrix(1.00, 0.00, -0.00, -1.00, 245.9, 180.0)">t</text><text xml:space="preserve" font-family="Helvetica-Light" font-size="25.0" fill="#000000" transform="matrix(1.00, 0.00, -0.00, -1.00, 252.8, 180.0)">i</text><text xml:space="preserve" font-family="Helvetica-Light" font-size="25.0" fill="#000000" transform="matrix(1.00, 0.00, -0.00, -1.00, 258.4, 180.0)">t</text><text xml:space="preserve" font-family="Helvetica-Light" font-size="25.0" fill="#000000" transform="matrix(1.00, 0.00, -0.00, -1.00, 265.4, 180.0)">l</text><text xml:space="preserve" font-family="Helvetica-Light" font-size="25.0" fill="#000000" transform="matrix(1.00, 0.00, -0.00, -1.00, 270.9, 180.0)">e</text><text xml:space="preserve" font-family="Helvetica-Light" font-size="25.0" fill="#000000" transform="matrix(1.00, 0.00, -0.00, -1.00, 284.8, 180.0)"> </text><text xml:space="preserve" font-family="Helvetica-Light" font-size="25.0" fill="#000000" transform="matrix(1.00, 0.00, -0.00, -1.00, 291.8, 180.0)">“</text><text xml:space="preserve" font-family="Helvetica-Light" font-size="25.0" fill="#000000" transform="matrix(1.00, 0.00, -0.00, -1.00, 301.5, 180.0)">T</text><text xml:space="preserve" font-family="Helvetica-Light" font-size="25.0" fill="#000000" transform="matrix(1.00, 0.00, -0.00, -1.00, 315.4, 180.0)">h</text><text xml:space="preserve" font-family="Helvetica-Light" font-size="25.0" fill="#000000" transform="matrix(1.00, 0.00, -0.00, -1.00, 329.3, 180.0)">r</text><text xml:space="preserve" font-family="Helvetica-Light" font-size="25.0" fill="#000000" transform="matrix(1.00, 0.00, -0.00, -1.00, 337.6, 180.0)">i</text><text xml:space="preserve" font-family="Helvetica-Light" font-size="25.0" fill="#000000" transform="matrix(1.00, 0.00, -0.00, -1.00, 343.1, 180.0)">l</text><text xml:space="preserve" font-family="Helvetica-Light" font-size="25.0" fill="#000000" transform="matrix(1.00, 0.00, -0.00, -1.00, 348.7, 180.0)">l</text><text xml:space="preserve" font-family="Helvetica-Light" font-size="25.0" fill="#000000" transform="matrix(1.00, 0.00, -0.00, -1.00, 354.2, 180.0)">e</text><text xml:space="preserve" font-family="Helvetica-Light" font-size="25.0" fill="#000000" transform="matrix(1.00, 0.00, -0.00, -1.00, 368.2, 180.0)">r</text><text xml:space="preserve" font-family="Helvetica-Light" font-size="25.0" fill="#000000" transform="matrix(1.00, 0.00, -0.00, -1.00, 376.5, 180.0)">”</text><text xml:space="preserve" font-family="Helvetica-Light" font-size="25.0" fill="#000000" transform="matrix(1.00, 0.00, -0.00, -1.00, 386.2, 180.0)">;</text><text xml:space="preserve" font-family="Helvetica-Light" font-size="25.0" fill="#000000" transform="matrix(1.00, 0.00, -0.00, -1.00, 393.2, 180.0)"> </text><text xml:space="preserve" font-family="Helvetica-Light" font-size="25.0" fill="#000000" transform="matrix(1.00, 0.00, -0.00, -1.00, 107.0, 150.0)"> </text><text xml:space="preserve" font-family="Helvetica-Light" font-size="25.0" fill="#000000" transform="matrix(1.00, 0.00, -0.00, -1.00, 114.0, 150.0)"> </text><text xml:space="preserve" font-family="Helvetica-Light" font-size="25.0" fill="#000000" transform="matrix(1.00, 0.00, -0.00, -1.00, 120.9, 150.0)">d</text><text xml:space="preserve" font-family="Helvetica-Light" font-size="25.0" fill="#000000" transform="matrix(1.00, 0.00, -0.00, -1.00, 136.2, 150.0)">c</text><text xml:space="preserve" font-family="Helvetica-Light" font-size="25.0" fill="#000000" transform="matrix(1.00, 0.00, -0.00, -1.00, 150.1, 150.0)">:</text><text xml:space="preserve" font-family="Helvetica-Light" font-size="25.0" fill="#000000" transform="matrix(1.00, 0.00, -0.00, -1.00, 157.0, 150.0)">c</text><text xml:space="preserve" font-family="Helvetica-Light" font-size="25.0" fill="#000000" transform="matrix(1.00, 0.00, -0.00, -1.00, 170.9, 150.0)">r</text><text xml:space="preserve" font-family="Helvetica-Light" font-size="25.0" fill="#000000" transform="matrix(1.00, 0.00, -0.00, -1.00, 178.8, 150.0)">e</text><text xml:space="preserve" font-family="Helvetica-Light" font-size="25.0" fill="#000000" transform="matrix(1.00, 0.00, -0.00, -1.00, 192.7, 150.0)">a</text><text xml:space="preserve" font-family="Helvetica-Light" font-size="25.0" fill="#000000" transform="matrix(1.00, 0.00, -0.00, -1.00, 206.6, 150.0)">t</text><text xml:space="preserve" font-family="Helvetica-Light" font-size="25.0" fill="#000000" transform="matrix(1.00, 0.00, -0.00, -1.00, 213.6, 150.0)">o</text><text xml:space="preserve" font-family="Helvetica-Light" font-size="25.0" fill="#000000" transform="matrix(1.00, 0.00, -0.00, -1.00, 227.5, 150.0)">r</text><text xml:space="preserve" font-family="Helvetica-Light" font-size="25.0" fill="#000000" transform="matrix(1.00, 0.00, -0.00, -1.00, 235.8, 150.0)"> </text><text xml:space="preserve" font-family="Helvetica-Light" font-size="25.0" fill="#000000" transform="matrix(1.00, 0.00, -0.00, -1.00, 242.7, 150.0)">_</text><text xml:space="preserve" font-family="Helvetica-Light" font-size="25.0" fill="#000000" transform="matrix(1.00, 0.00, -0.00, -1.00, 255.2, 150.0)">:</text><text xml:space="preserve" font-family="Helvetica-Light" font-size="25.0" fill="#000000" transform="matrix(1.00, 0.00, -0.00, -1.00, 262.2, 150.0)">p</text><text xml:space="preserve" font-family="Helvetica-Light" font-size="25.0" fill="#000000" transform="matrix(1.00, 0.00, -0.00, -1.00, 277.4, 150.0)">e</text><text xml:space="preserve" font-family="Helvetica-Light" font-size="25.0" fill="#000000" transform="matrix(1.00, 0.00, -0.00, -1.00, 291.4, 150.0)">r</text><text xml:space="preserve" font-family="Helvetica-Light" font-size="25.0" fill="#000000" transform="matrix(1.00, 0.00, -0.00, -1.00, 300.1, 150.0)">f</text><text xml:space="preserve" font-family="Helvetica-Light" font-size="25.0" fill="#000000" transform="matrix(1.00, 0.00, -0.00, -1.00, 307.1, 150.0)">o</text><text xml:space="preserve" font-family="Helvetica-Light" font-size="25.0" fill="#000000" transform="matrix(1.00, 0.00, -0.00, -1.00, 321.0, 150.0)">r</text><text xml:space="preserve" font-family="Helvetica-Light" font-size="25.0" fill="#000000" transform="matrix(1.00, 0.00, -0.00, -1.00, 329.7, 150.0)">m</text><text xml:space="preserve" font-family="Helvetica-Light" font-size="25.0" fill="#000000" transform="matrix(1.00, 0.00, -0.00, -1.00, 350.6, 150.0)">e</text><text xml:space="preserve" font-family="Helvetica-Light" font-size="25.0" fill="#000000" transform="matrix(1.00, 0.00, -0.00, -1.00, 364.5, 150.0)">r</text><text xml:space="preserve" font-family="Helvetica-Light" font-size="25.0" fill="#000000" transform="matrix(1.00, 0.00, -0.00, -1.00, 372.8, 150.0)"> </text><text xml:space="preserve" font-family="Helvetica-Light" font-size="25.0" fill="#000000" transform="matrix(1.00, 0.00, -0.00, -1.00, 379.7, 150.0)">.</text><text xml:space="preserve" font-family="Helvetica-Light" font-size="25.0" fill="#000000" transform="matrix(1.00, 0.00, -0.00, -1.00, 386.7, 150.0)"> </text><text xml:space="preserve" font-family="Helvetica-Light" font-size="25.0" fill="#000000" transform="matrix(1.00, 0.00, -0.00, -1.00, 107.0, 90.0)">_</text><text xml:space="preserve" font-family="Helvetica-Light" font-size="25.0" fill="#000000" transform="matrix(1.00, 0.00, -0.00, -1.00, 119.5, 90.0)">:</text><text xml:space="preserve" font-family="Helvetica-Light" font-size="25.0" fill="#000000" transform="matrix(1.00, 0.00, -0.00, -1.00, 126.5, 90.0)">p</text><text xml:space="preserve" font-family="Helvetica-Light" font-size="25.0" fill="#000000" transform="matrix(1.00, 0.00, -0.00, -1.00, 141.7, 90.0)">e</text><text xml:space="preserve" font-family="Helvetica-Light" font-size="25.0" fill="#000000" transform="matrix(1.00, 0.00, -0.00, -1.00, 155.6, 90.0)">r</text><text xml:space="preserve" font-family="Helvetica-Light" font-size="25.0" fill="#000000" transform="matrix(1.00, 0.00, -0.00, -1.00, 164.4, 90.0)">f</text><text xml:space="preserve" font-family="Helvetica-Light" font-size="25.0" fill="#000000" transform="matrix(1.00, 0.00, -0.00, -1.00, 171.4, 90.0)">o</text><text xml:space="preserve" font-family="Helvetica-Light" font-size="25.0" fill="#000000" transform="matrix(1.00, 0.00, -0.00, -1.00, 185.2, 90.0)">r</text><text xml:space="preserve" font-family="Helvetica-Light" font-size="25.0" fill="#000000" transform="matrix(1.00, 0.00, -0.00, -1.00, 194.0, 90.0)">m</text><text xml:space="preserve" font-family="Helvetica-Light" font-size="25.0" fill="#000000" transform="matrix(1.00, 0.00, -0.00, -1.00, 214.9, 90.0)">e</text><text xml:space="preserve" font-family="Helvetica-Light" font-size="25.0" fill="#000000" transform="matrix(1.00, 0.00, -0.00, -1.00, 228.8, 90.0)">r</text><text xml:space="preserve" font-family="Helvetica-Light" font-size="25.0" fill="#000000" transform="matrix(1.00, 0.00, -0.00, -1.00, 237.1, 90.0)"> </text><text xml:space="preserve" font-family="Helvetica-Light" font-size="25.0" fill="#000000" transform="matrix(1.00, 0.00, -0.00, -1.00, 244.0, 90.0)">f</text><text xml:space="preserve" font-family="Helvetica-Light" font-size="25.0" fill="#000000" transform="matrix(1.00, 0.00, -0.00, -1.00, 251.0, 90.0)">o</text><text xml:space="preserve" font-family="Helvetica-Light" font-size="25.0" fill="#000000" transform="matrix(1.00, 0.00, -0.00, -1.00, 264.9, 90.0)">a</text><text xml:space="preserve" font-family="Helvetica-Light" font-size="25.0" fill="#000000" transform="matrix(1.00, 0.00, -0.00, -1.00, 278.8, 90.0)">f</text><text xml:space="preserve" font-family="Helvetica-Light" font-size="25.0" fill="#000000" transform="matrix(1.00, 0.00, -0.00, -1.00, 285.7, 90.0)">:</text><text xml:space="preserve" font-family="Helvetica-Light" font-size="25.0" fill="#000000" transform="matrix(1.00, 0.00, -0.00, -1.00, 292.7, 90.0)">n</text><text xml:space="preserve" font-family="Helvetica-Light" font-size="25.0" fill="#000000" transform="matrix(1.00, 0.00, -0.00, -1.00, 306.6, 90.0)">a</text><text xml:space="preserve" font-family="Helvetica-Light" font-size="25.0" fill="#000000" transform="matrix(1.00, 0.00, -0.00, -1.00, 320.5, 90.0)">m</text><text xml:space="preserve" font-family="Helvetica-Light" font-size="25.0" fill="#000000" transform="matrix(1.00, 0.00, -0.00, -1.00, 341.3, 90.0)">e</text><text xml:space="preserve" font-family="Helvetica-Light" font-size="25.0" fill="#000000" transform="matrix(1.00, 0.00, -0.00, -1.00, 355.2, 90.0)"> </text><text xml:space="preserve" font-family="Helvetica-Light" font-size="25.0" fill="#000000" transform="matrix(1.00, 0.00, -0.00, -1.00, 362.1, 90.0)">“</text><text xml:space="preserve" font-family="Helvetica-Light" font-size="25.0" fill="#000000" transform="matrix(1.00, 0.00, -0.00, -1.00, 371.9, 90.0)">M</text><text xml:space="preserve" font-family="Helvetica-Light" font-size="25.0" fill="#000000" transform="matrix(1.00, 0.00, -0.00, -1.00, 392.7, 90.0)">i</text><text xml:space="preserve" font-family="Helvetica-Light" font-size="25.0" fill="#000000" transform="matrix(1.00, 0.00, -0.00, -1.00, 398.2, 90.0)">c</text><text xml:space="preserve" font-family="Helvetica-Light" font-size="25.0" fill="#000000" transform="matrix(1.00, 0.00, -0.00, -1.00, 412.1, 90.0)">h</text><text xml:space="preserve" font-family="Helvetica-Light" font-size="25.0" fill="#000000" transform="matrix(1.00, 0.00, -0.00, -1.00, 426.0, 90.0)">a</text><text xml:space="preserve" font-family="Helvetica-Light" font-size="25.0" fill="#000000" transform="matrix(1.00, 0.00, -0.00, -1.00, 439.9, 90.0)">e</text><text xml:space="preserve" font-family="Helvetica-Light" font-size="25.0" fill="#000000" transform="matrix(1.00, 0.00, -0.00, -1.00, 453.8, 90.0)">l</text><text xml:space="preserve" font-family="Helvetica-Light" font-size="25.0" fill="#000000" transform="matrix(1.00, 0.00, -0.00, -1.00, 459.4, 90.0)"> </text><text xml:space="preserve" font-family="Helvetica-Light" font-size="25.0" fill="#000000" transform="matrix(1.00, 0.00, -0.00, -1.00, 466.3, 90.0)">J</text><text xml:space="preserve" font-family="Helvetica-Light" font-size="25.0" fill="#000000" transform="matrix(1.00, 0.00, -0.00, -1.00, 478.8, 90.0)">a</text><text xml:space="preserve" font-family="Helvetica-Light" font-size="25.0" fill="#000000" transform="matrix(1.00, 0.00, -0.00, -1.00, 492.7, 90.0)">c</text><text xml:space="preserve" font-family="Helvetica-Light" font-size="25.0" fill="#000000" transform="matrix(1.00, 0.00, -0.00, -1.00, 506.6, 90.0)">k</text><text xml:space="preserve" font-family="Helvetica-Light" font-size="25.0" fill="#000000" transform="matrix(1.00, 0.00, -0.00, -1.00, 519.1, 90.0)">s</text><text xml:space="preserve" font-family="Helvetica-Light" font-size="25.0" fill="#000000" transform="matrix(1.00, 0.00, -0.00, -1.00, 531.6, 90.0)">o</text><text xml:space="preserve" font-family="Helvetica-Light" font-size="25.0" fill="#000000" transform="matrix(1.00, 0.00, -0.00, -1.00, 545.5, 90.0)">n</text><text xml:space="preserve" font-family="Helvetica-Light" font-size="25.0" fill="#000000" transform="matrix(1.00, 0.00, -0.00, -1.00, 559.4, 90.0)">”</text><text xml:space="preserve" font-family="Helvetica-Light" font-size="25.0" fill="#000000" transform="matrix(1.00, 0.00, -0.00, -1.00, 569.2, 90.0)"> </text><text xml:space="preserve" font-family="Helvetica-Light" font-size="25.0" fill="#000000" transform="matrix(1.00, 0.00, -0.00, -1.00, 576.1, 90.0)">.</text></g></svg>