<?xml version="1.0" encoding="UTF-8" standalone="no"?><svg xmlns="http://www.w3.org/2000/svg" xmlns:xlink="http://www.w3.org/1999/xlink" clip-rule="evenodd" stroke-miterlimit="10" viewBox="0 0 1024 768"><desc>SVG generated by Keynote</desc><defs></defs><g transform="matrix(1.00, 0.00, -0.00, -1.00, 0.0, 768.0)"><g><clipPath id="clip0x7fcd297ec3e0"><path d="M 0.0 768.0 L 1024.0 768.0 L 1024.0 0.0 L 0.0 0.0 Z M 0.0 768.0 "></path></clipPath><g clip-path="url(#clip0x7fcd297ec3e0)"><image xlink:href="../../AB5CD688-8641-4047-B2F5-A7551A6B8537/assets/4E131E180F71435CE7831D195B770FC0.jpeg" width="2048.00" height="1536.00" transform="matrix(0.50, 0.00, -0.00, -0.50, 0.0, 768.0)"></image></g></g><text xml:space="preserve" font-family="GillSans,Gill Sans" font-size="84.0" fill="#FEFFFF" transform="matrix(1.00, 0.00, -0.00, -1.00, 414.9, 623.4)">J</text><text xml:space="preserve" font-family="GillSans,Gill Sans" font-size="84.0" fill="#FEFFFF" transform="matrix(1.00, 0.00, -0.00, -1.00, 435.9, 623.4)">S</text><text xml:space="preserve" font-family="GillSans,Gill Sans" font-size="84.0" fill="#FEFFFF" transform="matrix(1.00, 0.00, -0.00, -1.00, 474.4, 623.4)">O</text><text xml:space="preserve" font-family="GillSans,Gill Sans" font-size="84.0" fill="#FEFFFF" transform="matrix(1.00, 0.00, -0.00, -1.00, 543.5, 623.4)">N</text><image xlink:href="../../AB5CD688-8641-4047-B2F5-A7551A6B8537/assets/A4D1687A3A979CE96E45A68FE3F71EE8.png" width="174.00" height="174.00" transform="matrix(0.62, 0.00, -0.00, -0.62, 830.0, 534.0)"></image><image xlink:href="../../AB5CD688-8641-4047-B2F5-A7551A6B8537/assets/D59C58BF4848AC18399685D7DDEB45F1.png" width="275.00" height="95.00" transform="matrix(0.52, 0.00, -0.00, -0.52, 396.0, 117.0)"></image><image xlink:href="../../AB5CD688-8641-4047-B2F5-A7551A6B8537/assets/6FAD9C489EC9FB38B9FA4C9666015BD4.png" width="84.00" height="62.00" transform="matrix(1.00, 0.00, -0.00, -1.00, 76.0, 430.0)"></image><image xlink:href="../../AB5CD688-8641-4047-B2F5-A7551A6B8537/assets/E3EF120B051F815EDCCB3F646115D290.png" width="200.00" height="200.00" transform="matrix(0.58, 0.00, -0.00, -0.58, 670.0, 179.0)"></image><image xlink:href="../../AB5CD688-8641-4047-B2F5-A7551A6B8537/assets/11D28790E7CBCFF62C351C29A846647D.png" width="200.00" height="200.00" transform="matrix(0.42, 0.00, -0.00, -0.42, 76.0, 293.0)"></image><text xml:space="preserve" font-family="GillSans,Gill Sans" font-size="42.0" fill="#FEFFFF" transform="matrix(1.00, 0.00, -0.00, -1.00, 225.8, 369.7)">J</text><text xml:space="preserve" font-family="GillSans,Gill Sans" font-size="42.0" fill="#FEFFFF" transform="matrix(1.00, 0.00, -0.00, -1.00, 236.3, 369.7)">S</text><text xml:space="preserve" font-family="GillSans,Gill Sans" font-size="42.0" fill="#FEFFFF" transform="matrix(1.00, 0.00, -0.00, -1.00, 255.5, 369.7)">O</text><text xml:space="preserve" font-family="GillSans,Gill Sans" font-size="42.0" fill="#FEFFFF" transform="matrix(1.00, 0.00, -0.00, -1.00, 290.1, 369.7)">N</text><text xml:space="preserve" font-family="GillSans,Gill Sans" font-size="42.0" fill="#FEFFFF" transform="matrix(1.00, 0.00, -0.00, -1.00, 322.9, 369.7)"> </text><text xml:space="preserve" font-family="GillSans,Gill Sans" font-size="42.0" fill="#FEFFFF" transform="matrix(1.00, 0.00, -0.00, -1.00, 334.5, 369.7)">h</text><text xml:space="preserve" font-family="GillSans,Gill Sans" font-size="42.0" fill="#FEFFFF" transform="matrix(1.00, 0.00, -0.00, -1.00, 355.5, 369.7)">a</text><text xml:space="preserve" font-family="GillSans,Gill Sans" font-size="42.0" fill="#FEFFFF" transform="matrix(1.00, 0.00, -0.00, -1.00, 373.4, 369.7)">s</text><text xml:space="preserve" font-family="GillSans,Gill Sans" font-size="42.0" fill="#FEFFFF" transform="matrix(1.00, 0.00, -0.00, -1.00, 389.6, 369.7)"> </text><text xml:space="preserve" font-family="GillSans,Gill Sans" font-size="42.0" fill="#FEFFFF" transform="matrix(1.00, 0.00, -0.00, -1.00, 401.3, 369.7)">t</text><text xml:space="preserve" font-family="GillSans,Gill Sans" font-size="42.0" fill="#FEFFFF" transform="matrix(1.00, 0.00, -0.00, -1.00, 415.2, 369.7)">a</text><text xml:space="preserve" font-family="GillSans,Gill Sans" font-size="42.0" fill="#FEFFFF" transform="matrix(1.00, 0.00, -0.00, -1.00, 433.2, 369.7)">k</text><text xml:space="preserve" font-family="GillSans,Gill Sans" font-size="42.0" fill="#FEFFFF" transform="matrix(1.00, 0.00, -0.00, -1.00, 452.0, 369.7)">e</text><text xml:space="preserve" font-family="GillSans,Gill Sans" font-size="42.0" fill="#FEFFFF" transform="matrix(1.00, 0.00, -0.00, -1.00, 472.1, 369.7)">n</text><text xml:space="preserve" font-family="GillSans,Gill Sans" font-size="42.0" fill="#FEFFFF" transform="matrix(1.00, 0.00, -0.00, -1.00, 493.1, 369.7)"> </text><text xml:space="preserve" font-family="GillSans,Gill Sans" font-size="42.0" fill="#FEFFFF" transform="matrix(1.00, 0.00, -0.00, -1.00, 504.8, 369.7)">o</text><text xml:space="preserve" font-family="GillSans,Gill Sans" font-size="42.0" fill="#FEFFFF" transform="matrix(1.00, 0.00, -0.00, -1.00, 527.6, 369.7)">v</text><text xml:space="preserve" font-family="GillSans,Gill Sans" font-size="42.0" fill="#FEFFFF" transform="matrix(1.00, 0.00, -0.00, -1.00, 545.1, 369.7)">e</text><text xml:space="preserve" font-family="GillSans,Gill Sans" font-size="42.0" fill="#FEFFFF" transform="matrix(1.00, 0.00, -0.00, -1.00, 565.2, 369.7)">r</text><text xml:space="preserve" font-family="GillSans,Gill Sans" font-size="42.0" fill="#FEFFFF" transform="matrix(1.00, 0.00, -0.00, -1.00, 581.9, 369.7)"> </text><text xml:space="preserve" font-family="GillSans,Gill Sans" font-size="42.0" fill="#FEFFFF" transform="matrix(1.00, 0.00, -0.00, -1.00, 593.5, 369.7)">s</text><text xml:space="preserve" font-family="GillSans,Gill Sans" font-size="42.0" fill="#FEFFFF" transform="matrix(1.00, 0.00, -0.00, -1.00, 609.7, 369.7)">e</text><text xml:space="preserve" font-family="GillSans,Gill Sans" font-size="42.0" fill="#FEFFFF" transform="matrix(1.00, 0.00, -0.00, -1.00, 629.8, 369.7)">r</text><text xml:space="preserve" font-family="GillSans,Gill Sans" font-size="42.0" fill="#FEFFFF" transform="matrix(1.00, 0.00, -0.00, -1.00, 647.7, 369.7)">v</text><text xml:space="preserve" font-family="GillSans,Gill Sans" font-size="42.0" fill="#FEFFFF" transform="matrix(1.00, 0.00, -0.00, -1.00, 666.1, 369.7)">i</text><text xml:space="preserve" font-family="GillSans,Gill Sans" font-size="42.0" fill="#FEFFFF" transform="matrix(1.00, 0.00, -0.00, -1.00, 675.3, 369.7)">c</text><text xml:space="preserve" font-family="GillSans,Gill Sans" font-size="42.0" fill="#FEFFFF" transform="matrix(1.00, 0.00, -0.00, -1.00, 693.7, 369.7)">e</text><text xml:space="preserve" font-family="GillSans,Gill Sans" font-size="42.0" fill="#FEFFFF" transform="matrix(1.00, 0.00, -0.00, -1.00, 713.8, 369.7)"> </text><text xml:space="preserve" font-family="GillSans,Gill Sans" font-size="42.0" fill="#FEFFFF" transform="matrix(1.00, 0.00, -0.00, -1.00, 721.3, 369.7)">A</text><text xml:space="preserve" font-family="GillSans,Gill Sans" font-size="42.0" fill="#FEFFFF" transform="matrix(1.00, 0.00, -0.00, -1.00, 749.3, 369.7)">P</text><text xml:space="preserve" font-family="GillSans,Gill Sans" font-size="42.0" fill="#FEFFFF" transform="matrix(1.00, 0.00, -0.00, -1.00, 770.7, 369.7)">I</text><text xml:space="preserve" font-family="GillSans,Gill Sans" font-size="42.0" fill="#FEFFFF" transform="matrix(1.00, 0.00, -0.00, -1.00, 781.2, 369.7)">s</text><image xlink:href="../../AB5CD688-8641-4047-B2F5-A7551A6B8537/assets/B815EF9621B356820CF092BE006F86C4.png" width="259.00" height="194.00" transform="matrix(0.54, 0.00, -0.00, -0.54, 797.0, 316.0)"></image><image xlink:href="../../AB5CD688-8641-4047-B2F5-A7551A6B8537/assets/3087DE51502437A60ABF2D487F0D5BA7.png" width="180.00" height="69.00" transform="matrix(1.00, 0.00, -0.00, -1.00, 128.0, 156.0)"></image></g></svg>