<?xml version="1.0" encoding="UTF-8" standalone="no"?><svg xmlns="http://www.w3.org/2000/svg" xmlns:xlink="http://www.w3.org/1999/xlink" clip-rule="evenodd" stroke-miterlimit="4.00" viewBox="0 0 1024 768"><desc>SVG generated by Keynote</desc><defs></defs><g transform="matrix(1.00, 0.00, -0.00, -1.00, 0.0, 768.0)"><path d="M 0.0 768.0 L 1024.0 768.0 L 1024.0 0.0 L 0.0 0.0 Z M 0.0 768.0 " fill="#FEFFFF"></path><text xml:space="preserve" font-family="Helvetica" font-size="12.0" fill="#000000" transform="matrix(1.00, 0.00, -0.00, -1.00, 472.0, 26.0)">H</text><text xml:space="preserve" font-family="Helvetica" font-size="12.0" fill="#000000" transform="matrix(1.00, 0.00, -0.00, -1.00, 480.7, 26.0)">y</text><text xml:space="preserve" font-family="Helvetica" font-size="12.0" fill="#000000" transform="matrix(1.00, 0.00, -0.00, -1.00, 486.7, 26.0)">d</text><text xml:space="preserve" font-family="Helvetica" font-size="12.0" fill="#000000" transform="matrix(1.00, 0.00, -0.00, -1.00, 493.3, 26.0)">r</text><text xml:space="preserve" font-family="Helvetica" font-size="12.0" fill="#000000" transform="matrix(1.00, 0.00, -0.00, -1.00, 497.3, 26.0)">a</text><text xml:space="preserve" font-family="Helvetica" font-size="12.0" fill="#000000" transform="matrix(1.00, 0.00, -0.00, -1.00, 504.0, 26.0)"> </text><text xml:space="preserve" font-family="Helvetica" font-size="12.0" fill="#000000" transform="matrix(1.00, 0.00, -0.00, -1.00, 507.3, 26.0)">C</text><text xml:space="preserve" font-family="Helvetica" font-size="12.0" fill="#000000" transform="matrix(1.00, 0.00, -0.00, -1.00, 516.0, 26.0)">o</text><text xml:space="preserve" font-family="Helvetica" font-size="12.0" fill="#000000" transform="matrix(1.00, 0.00, -0.00, -1.00, 522.7, 26.0)">n</text><text xml:space="preserve" font-family="Helvetica" font-size="12.0" fill="#000000" transform="matrix(1.00, 0.00, -0.00, -1.00, 529.4, 26.0)">n</text><text xml:space="preserve" font-family="Helvetica" font-size="12.0" fill="#000000" transform="matrix(1.00, 0.00, -0.00, -1.00, 536.0, 26.0)">e</text><text xml:space="preserve" font-family="Helvetica" font-size="12.0" fill="#000000" transform="matrix(1.00, 0.00, -0.00, -1.00, 542.7, 26.0)">c</text><text xml:space="preserve" font-family="Helvetica" font-size="12.0" fill="#000000" transform="matrix(1.00, 0.00, -0.00, -1.00, 548.7, 26.0)">t</text><text xml:space="preserve" font-family="Helvetica" font-size="12.0" fill="#000000" transform="matrix(1.00, 0.00, -0.00, -1.00, 107.0, 26.0)">S</text><text xml:space="preserve" font-family="Helvetica" font-size="12.0" fill="#000000" transform="matrix(1.00, 0.00, -0.00, -1.00, 115.0, 26.0)">e</text><text xml:space="preserve" font-family="Helvetica" font-size="12.0" fill="#000000" transform="matrix(1.00, 0.00, -0.00, -1.00, 121.7, 26.0)">p</text><text xml:space="preserve" font-family="Helvetica" font-size="12.0" fill="#000000" transform="matrix(1.00, 0.00, -0.00, -1.00, 128.4, 26.0)">t</text><text xml:space="preserve" font-family="Helvetica" font-size="12.0" fill="#000000" transform="matrix(1.00, 0.00, -0.00, -1.00, 131.7, 26.0)">e</text><text xml:space="preserve" font-family="Helvetica" font-size="12.0" fill="#000000" transform="matrix(1.00, 0.00, -0.00, -1.00, 138.4, 26.0)">m</text><text xml:space="preserve" font-family="Helvetica" font-size="12.0" fill="#000000" transform="matrix(1.00, 0.00, -0.00, -1.00, 148.4, 26.0)">b</text><text xml:space="preserve" font-family="Helvetica" font-size="12.0" fill="#000000" transform="matrix(1.00, 0.00, -0.00, -1.00, 155.0, 26.0)">e</text><text xml:space="preserve" font-family="Helvetica" font-size="12.0" fill="#000000" transform="matrix(1.00, 0.00, -0.00, -1.00, 161.7, 26.0)">r</text><text xml:space="preserve" font-family="Helvetica" font-size="12.0" fill="#000000" transform="matrix(1.00, 0.00, -0.00, -1.00, 165.7, 26.0)"> </text><text xml:space="preserve" font-family="Helvetica" font-size="12.0" fill="#000000" transform="matrix(1.00, 0.00, -0.00, -1.00, 169.0, 26.0)">2</text><text xml:space="preserve" font-family="Helvetica" font-size="12.0" fill="#000000" transform="matrix(1.00, 0.00, -0.00, -1.00, 175.7, 26.0)">0</text><text xml:space="preserve" font-family="Helvetica" font-size="12.0" fill="#000000" transform="matrix(1.00, 0.00, -0.00, -1.00, 182.4, 26.0)">1</text><text xml:space="preserve" font-family="Helvetica" font-size="12.0" fill="#000000" transform="matrix(1.00, 0.00, -0.00, -1.00, 189.1, 26.0)">5</text><text xml:space="preserve" font-family="Helvetica-Light" font-size="50.0" fill="#000000" transform="matrix(1.00, 0.00, -0.00, -1.00, 345.0, 629.0)">C</text><text xml:space="preserve" font-family="Helvetica-Light" font-size="50.0" fill="#000000" transform="matrix(1.00, 0.00, -0.00, -1.00, 381.1, 629.0)">o</text><text xml:space="preserve" font-family="Helvetica-Light" font-size="50.0" fill="#000000" transform="matrix(1.00, 0.00, -0.00, -1.00, 408.9, 629.0)">u</text><text xml:space="preserve" font-family="Helvetica-Light" font-size="50.0" fill="#000000" transform="matrix(1.00, 0.00, -0.00, -1.00, 436.7, 629.0)">r</text><text xml:space="preserve" font-family="Helvetica-Light" font-size="50.0" fill="#000000" transform="matrix(1.00, 0.00, -0.00, -1.00, 453.4, 629.0)">s</text><text xml:space="preserve" font-family="Helvetica-Light" font-size="50.0" fill="#000000" transform="matrix(1.00, 0.00, -0.00, -1.00, 478.4, 629.0)">e</text><text xml:space="preserve" font-family="Helvetica-Light" font-size="50.0" fill="#000000" transform="matrix(1.00, 0.00, -0.00, -1.00, 506.2, 629.0)"> </text><text xml:space="preserve" font-family="Helvetica-Light" font-size="50.0" fill="#000000" transform="matrix(1.00, 0.00, -0.00, -1.00, 520.1, 629.0)">O</text><text xml:space="preserve" font-family="Helvetica-Light" font-size="50.0" fill="#000000" transform="matrix(1.00, 0.00, -0.00, -1.00, 559.0, 629.0)">u</text><text xml:space="preserve" font-family="Helvetica-Light" font-size="50.0" fill="#000000" transform="matrix(1.00, 0.00, -0.00, -1.00, 586.8, 629.0)">t</text><text xml:space="preserve" font-family="Helvetica-Light" font-size="50.0" fill="#000000" transform="matrix(1.00, 0.00, -0.00, -1.00, 600.7, 629.0)">l</text><text xml:space="preserve" font-family="Helvetica-Light" font-size="50.0" fill="#000000" transform="matrix(1.00, 0.00, -0.00, -1.00, 611.8, 629.0)">i</text><text xml:space="preserve" font-family="Helvetica-Light" font-size="50.0" fill="#000000" transform="matrix(1.00, 0.00, -0.00, -1.00, 622.9, 629.0)">n</text><text xml:space="preserve" font-family="Helvetica-Light" font-size="50.0" fill="#000000" transform="matrix(1.00, 0.00, -0.00, -1.00, 650.7, 629.0)">e</text><text xml:space="preserve" font-family="Helvetica-Light" font-size="27.0" fill="#DCDDE0" transform="matrix(1.00, 0.00, -0.00, -1.00, 79.0, 527.7)">•</text><text xml:space="preserve" font-family="Helvetica-Light" font-size="36.0" fill="#DCDDE0" transform="matrix(1.00, 0.00, -0.00, -1.00, 114.0, 524.0)">S</text><text xml:space="preserve" font-family="Helvetica-Light" font-size="36.0" fill="#DCDDE0" transform="matrix(1.00, 0.00, -0.00, -1.00, 136.0, 524.0)">e</text><text xml:space="preserve" font-family="Helvetica-Light" font-size="36.0" fill="#DCDDE0" transform="matrix(1.00, 0.00, -0.00, -1.00, 156.0, 524.0)">m</text><text xml:space="preserve" font-family="Helvetica-Light" font-size="36.0" fill="#DCDDE0" transform="matrix(1.00, 0.00, -0.00, -1.00, 186.0, 524.0)">a</text><text xml:space="preserve" font-family="Helvetica-Light" font-size="36.0" fill="#DCDDE0" transform="matrix(1.00, 0.00, -0.00, -1.00, 206.0, 524.0)">n</text><text xml:space="preserve" font-family="Helvetica-Light" font-size="36.0" fill="#DCDDE0" transform="matrix(1.00, 0.00, -0.00, -1.00, 226.0, 524.0)">t</text><text xml:space="preserve" font-family="Helvetica-Light" font-size="36.0" fill="#DCDDE0" transform="matrix(1.00, 0.00, -0.00, -1.00, 236.0, 524.0)">i</text><text xml:space="preserve" font-family="Helvetica-Light" font-size="36.0" fill="#DCDDE0" transform="matrix(1.00, 0.00, -0.00, -1.00, 244.0, 524.0)">c</text><text xml:space="preserve" font-family="Helvetica-Light" font-size="36.0" fill="#DCDDE0" transform="matrix(1.00, 0.00, -0.00, -1.00, 264.0, 524.0)"> </text><text xml:space="preserve" font-family="Helvetica-Light" font-size="36.0" fill="#DCDDE0" transform="matrix(1.00, 0.00, -0.00, -1.00, 274.1, 524.0)">W</text><text xml:space="preserve" font-family="Helvetica-Light" font-size="36.0" fill="#DCDDE0" transform="matrix(1.00, 0.00, -0.00, -1.00, 305.4, 524.0)">e</text><text xml:space="preserve" font-family="Helvetica-Light" font-size="36.0" fill="#DCDDE0" transform="matrix(1.00, 0.00, -0.00, -1.00, 325.4, 524.0)">b</text><text xml:space="preserve" font-family="Helvetica-Light" font-size="36.0" fill="#DCDDE0" transform="matrix(1.00, 0.00, -0.00, -1.00, 347.4, 524.0)"> </text><text xml:space="preserve" font-family="Helvetica-Light" font-size="36.0" fill="#DCDDE0" transform="matrix(1.00, 0.00, -0.00, -1.00, 357.4, 524.0)">&amp;</text><text xml:space="preserve" font-family="Helvetica-Light" font-size="36.0" fill="#DCDDE0" transform="matrix(1.00, 0.00, -0.00, -1.00, 381.4, 524.0)"> </text><text xml:space="preserve" font-family="Helvetica-Light" font-size="36.0" fill="#DCDDE0" transform="matrix(1.00, 0.00, -0.00, -1.00, 391.5, 524.0)">L</text><text xml:space="preserve" font-family="Helvetica-Light" font-size="36.0" fill="#DCDDE0" transform="matrix(1.00, 0.00, -0.00, -1.00, 411.5, 524.0)">i</text><text xml:space="preserve" font-family="Helvetica-Light" font-size="36.0" fill="#DCDDE0" transform="matrix(1.00, 0.00, -0.00, -1.00, 419.5, 524.0)">n</text><text xml:space="preserve" font-family="Helvetica-Light" font-size="36.0" fill="#DCDDE0" transform="matrix(1.00, 0.00, -0.00, -1.00, 439.5, 524.0)">k</text><text xml:space="preserve" font-family="Helvetica-Light" font-size="36.0" fill="#DCDDE0" transform="matrix(1.00, 0.00, -0.00, -1.00, 457.5, 524.0)">e</text><text xml:space="preserve" font-family="Helvetica-Light" font-size="36.0" fill="#DCDDE0" transform="matrix(1.00, 0.00, -0.00, -1.00, 477.5, 524.0)">d</text><text xml:space="preserve" font-family="Helvetica-Light" font-size="36.0" fill="#DCDDE0" transform="matrix(1.00, 0.00, -0.00, -1.00, 499.5, 524.0)"> </text><text xml:space="preserve" font-family="Helvetica-Light" font-size="36.0" fill="#DCDDE0" transform="matrix(1.00, 0.00, -0.00, -1.00, 509.5, 524.0)">D</text><text xml:space="preserve" font-family="Helvetica-Light" font-size="36.0" fill="#DCDDE0" transform="matrix(1.00, 0.00, -0.00, -1.00, 535.5, 524.0)">a</text><text xml:space="preserve" font-family="Helvetica-Light" font-size="36.0" fill="#DCDDE0" transform="matrix(1.00, 0.00, -0.00, -1.00, 555.5, 524.0)">t</text><text xml:space="preserve" font-family="Helvetica-Light" font-size="36.0" fill="#DCDDE0" transform="matrix(1.00, 0.00, -0.00, -1.00, 565.5, 524.0)">a</text><text xml:space="preserve" font-family="Helvetica-Light" font-size="36.0" fill="#DCDDE0" transform="matrix(1.00, 0.00, -0.00, -1.00, 585.5, 524.0)"> </text><text xml:space="preserve" font-family="Helvetica-Light" font-size="27.0" fill="#DCDDE0" transform="matrix(1.00, 0.00, -0.00, -1.00, 79.0, 467.7)">•</text><text xml:space="preserve" font-family="Helvetica-Light" font-size="36.0" fill="#DCDDE0" transform="matrix(1.00, 0.00, -0.00, -1.00, 114.0, 464.0)">R</text><text xml:space="preserve" font-family="Helvetica-Light" font-size="36.0" fill="#DCDDE0" transform="matrix(1.00, 0.00, -0.00, -1.00, 138.0, 464.0)">D</text><text xml:space="preserve" font-family="Helvetica-Light" font-size="36.0" fill="#DCDDE0" transform="matrix(1.00, 0.00, -0.00, -1.00, 164.0, 464.0)">F</text><text xml:space="preserve" font-family="Helvetica-Light" font-size="36.0" fill="#DCDDE0" transform="matrix(1.00, 0.00, -0.00, -1.00, 184.0, 464.0)"> </text><text xml:space="preserve" font-family="Helvetica-Light" font-size="36.0" fill="#DCDDE0" transform="matrix(1.00, 0.00, -0.00, -1.00, 194.0, 464.0)">–</text><text xml:space="preserve" font-family="Helvetica-Light" font-size="36.0" fill="#DCDDE0" transform="matrix(1.00, 0.00, -0.00, -1.00, 212.0, 464.0)"> </text><text xml:space="preserve" font-family="Helvetica-Light" font-size="36.0" fill="#DCDDE0" transform="matrix(1.00, 0.00, -0.00, -1.00, 222.0, 464.0)">t</text><text xml:space="preserve" font-family="Helvetica-Light" font-size="36.0" fill="#DCDDE0" transform="matrix(1.00, 0.00, -0.00, -1.00, 232.0, 464.0)">h</text><text xml:space="preserve" font-family="Helvetica-Light" font-size="36.0" fill="#DCDDE0" transform="matrix(1.00, 0.00, -0.00, -1.00, 252.1, 464.0)">e</text><text xml:space="preserve" font-family="Helvetica-Light" font-size="36.0" fill="#DCDDE0" transform="matrix(1.00, 0.00, -0.00, -1.00, 272.1, 464.0)"> </text><text xml:space="preserve" font-family="Helvetica-Light" font-size="36.0" fill="#DCDDE0" transform="matrix(1.00, 0.00, -0.00, -1.00, 282.1, 464.0)">R</text><text xml:space="preserve" font-family="Helvetica-Light" font-size="36.0" fill="#DCDDE0" transform="matrix(1.00, 0.00, -0.00, -1.00, 306.1, 464.0)">e</text><text xml:space="preserve" font-family="Helvetica-Light" font-size="36.0" fill="#DCDDE0" transform="matrix(1.00, 0.00, -0.00, -1.00, 326.1, 464.0)">s</text><text xml:space="preserve" font-family="Helvetica-Light" font-size="36.0" fill="#DCDDE0" transform="matrix(1.00, 0.00, -0.00, -1.00, 344.1, 464.0)">o</text><text xml:space="preserve" font-family="Helvetica-Light" font-size="36.0" fill="#DCDDE0" transform="matrix(1.00, 0.00, -0.00, -1.00, 364.1, 464.0)">u</text><text xml:space="preserve" font-family="Helvetica-Light" font-size="36.0" fill="#DCDDE0" transform="matrix(1.00, 0.00, -0.00, -1.00, 384.1, 464.0)">r</text><text xml:space="preserve" font-family="Helvetica-Light" font-size="36.0" fill="#DCDDE0" transform="matrix(1.00, 0.00, -0.00, -1.00, 395.5, 464.0)">c</text><text xml:space="preserve" font-family="Helvetica-Light" font-size="36.0" fill="#DCDDE0" transform="matrix(1.00, 0.00, -0.00, -1.00, 415.5, 464.0)">e</text><text xml:space="preserve" font-family="Helvetica-Light" font-size="36.0" fill="#DCDDE0" transform="matrix(1.00, 0.00, -0.00, -1.00, 435.5, 464.0)"> </text><text xml:space="preserve" font-family="Helvetica-Light" font-size="36.0" fill="#DCDDE0" transform="matrix(1.00, 0.00, -0.00, -1.00, 445.5, 464.0)">D</text><text xml:space="preserve" font-family="Helvetica-Light" font-size="36.0" fill="#DCDDE0" transform="matrix(1.00, 0.00, -0.00, -1.00, 471.5, 464.0)">e</text><text xml:space="preserve" font-family="Helvetica-Light" font-size="36.0" fill="#DCDDE0" transform="matrix(1.00, 0.00, -0.00, -1.00, 491.5, 464.0)">s</text><text xml:space="preserve" font-family="Helvetica-Light" font-size="36.0" fill="#DCDDE0" transform="matrix(1.00, 0.00, -0.00, -1.00, 509.5, 464.0)">c</text><text xml:space="preserve" font-family="Helvetica-Light" font-size="36.0" fill="#DCDDE0" transform="matrix(1.00, 0.00, -0.00, -1.00, 529.5, 464.0)">r</text><text xml:space="preserve" font-family="Helvetica-Light" font-size="36.0" fill="#DCDDE0" transform="matrix(1.00, 0.00, -0.00, -1.00, 541.5, 464.0)">i</text><text xml:space="preserve" font-family="Helvetica-Light" font-size="36.0" fill="#DCDDE0" transform="matrix(1.00, 0.00, -0.00, -1.00, 549.5, 464.0)">p</text><text xml:space="preserve" font-family="Helvetica-Light" font-size="36.0" fill="#DCDDE0" transform="matrix(1.00, 0.00, -0.00, -1.00, 571.5, 464.0)">t</text><text xml:space="preserve" font-family="Helvetica-Light" font-size="36.0" fill="#DCDDE0" transform="matrix(1.00, 0.00, -0.00, -1.00, 581.5, 464.0)">i</text><text xml:space="preserve" font-family="Helvetica-Light" font-size="36.0" fill="#DCDDE0" transform="matrix(1.00, 0.00, -0.00, -1.00, 589.5, 464.0)">o</text><text xml:space="preserve" font-family="Helvetica-Light" font-size="36.0" fill="#DCDDE0" transform="matrix(1.00, 0.00, -0.00, -1.00, 609.5, 464.0)">n</text><text xml:space="preserve" font-family="Helvetica-Light" font-size="36.0" fill="#DCDDE0" transform="matrix(1.00, 0.00, -0.00, -1.00, 629.6, 464.0)"> </text><text xml:space="preserve" font-family="Helvetica-Light" font-size="36.0" fill="#DCDDE0" transform="matrix(1.00, 0.00, -0.00, -1.00, 639.6, 464.0)">F</text><text xml:space="preserve" font-family="Helvetica-Light" font-size="36.0" fill="#DCDDE0" transform="matrix(1.00, 0.00, -0.00, -1.00, 659.6, 464.0)">r</text><text xml:space="preserve" font-family="Helvetica-Light" font-size="36.0" fill="#DCDDE0" transform="matrix(1.00, 0.00, -0.00, -1.00, 671.6, 464.0)">a</text><text xml:space="preserve" font-family="Helvetica-Light" font-size="36.0" fill="#DCDDE0" transform="matrix(1.00, 0.00, -0.00, -1.00, 691.6, 464.0)">m</text><text xml:space="preserve" font-family="Helvetica-Light" font-size="36.0" fill="#DCDDE0" transform="matrix(1.00, 0.00, -0.00, -1.00, 721.6, 464.0)">e</text><text xml:space="preserve" font-family="Helvetica-Light" font-size="36.0" fill="#DCDDE0" transform="matrix(1.00, 0.00, -0.00, -1.00, 741.6, 464.0)">w</text><text xml:space="preserve" font-family="Helvetica-Light" font-size="36.0" fill="#DCDDE0" transform="matrix(1.00, 0.00, -0.00, -1.00, 767.6, 464.0)">o</text><text xml:space="preserve" font-family="Helvetica-Light" font-size="36.0" fill="#DCDDE0" transform="matrix(1.00, 0.00, -0.00, -1.00, 787.6, 464.0)">r</text><text xml:space="preserve" font-family="Helvetica-Light" font-size="36.0" fill="#DCDDE0" transform="matrix(1.00, 0.00, -0.00, -1.00, 799.6, 464.0)">k</text><text xml:space="preserve" font-family="Helvetica-Light" font-size="36.0" fill="#DCDDE0" transform="matrix(1.00, 0.00, -0.00, -1.00, 817.6, 464.0)"> </text><text xml:space="preserve" font-family="Helvetica-Light" font-size="27.0" fill="#DCDDE0" transform="matrix(1.00, 0.00, -0.00, -1.00, 114.0, 407.7)">•</text><text xml:space="preserve" font-family="Helvetica-Light" font-size="36.0" fill="#DCDDE0" transform="matrix(1.00, 0.00, -0.00, -1.00, 149.0, 404.0)">C</text><text xml:space="preserve" font-family="Helvetica-Light" font-size="36.0" fill="#DCDDE0" transform="matrix(1.00, 0.00, -0.00, -1.00, 175.0, 404.0)">o</text><text xml:space="preserve" font-family="Helvetica-Light" font-size="36.0" fill="#DCDDE0" transform="matrix(1.00, 0.00, -0.00, -1.00, 195.0, 404.0)">n</text><text xml:space="preserve" font-family="Helvetica-Light" font-size="36.0" fill="#DCDDE0" transform="matrix(1.00, 0.00, -0.00, -1.00, 215.0, 404.0)">c</text><text xml:space="preserve" font-family="Helvetica-Light" font-size="36.0" fill="#DCDDE0" transform="matrix(1.00, 0.00, -0.00, -1.00, 235.0, 404.0)">e</text><text xml:space="preserve" font-family="Helvetica-Light" font-size="36.0" fill="#DCDDE0" transform="matrix(1.00, 0.00, -0.00, -1.00, 255.1, 404.0)">p</text><text xml:space="preserve" font-family="Helvetica-Light" font-size="36.0" fill="#DCDDE0" transform="matrix(1.00, 0.00, -0.00, -1.00, 277.1, 404.0)">t</text><text xml:space="preserve" font-family="Helvetica-Light" font-size="36.0" fill="#DCDDE0" transform="matrix(1.00, 0.00, -0.00, -1.00, 287.1, 404.0)">s</text><text xml:space="preserve" font-family="Helvetica-Light" font-size="36.0" fill="#DCDDE0" transform="matrix(1.00, 0.00, -0.00, -1.00, 305.1, 404.0)">,</text><text xml:space="preserve" font-family="Helvetica-Light" font-size="36.0" fill="#DCDDE0" transform="matrix(1.00, 0.00, -0.00, -1.00, 315.1, 404.0)"> </text><text xml:space="preserve" font-family="Helvetica-Light" font-size="36.0" fill="#DCDDE0" transform="matrix(1.00, 0.00, -0.00, -1.00, 325.1, 404.0)">V</text><text xml:space="preserve" font-family="Helvetica-Light" font-size="36.0" fill="#DCDDE0" transform="matrix(1.00, 0.00, -0.00, -1.00, 345.1, 404.0)">o</text><text xml:space="preserve" font-family="Helvetica-Light" font-size="36.0" fill="#DCDDE0" transform="matrix(1.00, 0.00, -0.00, -1.00, 365.1, 404.0)">c</text><text xml:space="preserve" font-family="Helvetica-Light" font-size="36.0" fill="#DCDDE0" transform="matrix(1.00, 0.00, -0.00, -1.00, 385.1, 404.0)">a</text><text xml:space="preserve" font-family="Helvetica-Light" font-size="36.0" fill="#DCDDE0" transform="matrix(1.00, 0.00, -0.00, -1.00, 405.1, 404.0)">b</text><text xml:space="preserve" font-family="Helvetica-Light" font-size="36.0" fill="#DCDDE0" transform="matrix(1.00, 0.00, -0.00, -1.00, 427.1, 404.0)">u</text><text xml:space="preserve" font-family="Helvetica-Light" font-size="36.0" fill="#DCDDE0" transform="matrix(1.00, 0.00, -0.00, -1.00, 447.2, 404.0)">l</text><text xml:space="preserve" font-family="Helvetica-Light" font-size="36.0" fill="#DCDDE0" transform="matrix(1.00, 0.00, -0.00, -1.00, 455.1, 404.0)">a</text><text xml:space="preserve" font-family="Helvetica-Light" font-size="36.0" fill="#DCDDE0" transform="matrix(1.00, 0.00, -0.00, -1.00, 475.2, 404.0)">r</text><text xml:space="preserve" font-family="Helvetica-Light" font-size="36.0" fill="#DCDDE0" transform="matrix(1.00, 0.00, -0.00, -1.00, 487.1, 404.0)">i</text><text xml:space="preserve" font-family="Helvetica-Light" font-size="36.0" fill="#DCDDE0" transform="matrix(1.00, 0.00, -0.00, -1.00, 495.1, 404.0)">e</text><text xml:space="preserve" font-family="Helvetica-Light" font-size="36.0" fill="#DCDDE0" transform="matrix(1.00, 0.00, -0.00, -1.00, 515.2, 404.0)">s</text><text xml:space="preserve" font-family="Helvetica-Light" font-size="36.0" fill="#DCDDE0" transform="matrix(1.00, 0.00, -0.00, -1.00, 533.2, 404.0)">,</text><text xml:space="preserve" font-family="Helvetica-Light" font-size="36.0" fill="#DCDDE0" transform="matrix(1.00, 0.00, -0.00, -1.00, 543.2, 404.0)"> </text><text xml:space="preserve" font-family="Helvetica-Light" font-size="36.0" fill="#DCDDE0" transform="matrix(1.00, 0.00, -0.00, -1.00, 553.2, 404.0)">I</text><text xml:space="preserve" font-family="Helvetica-Light" font-size="36.0" fill="#DCDDE0" transform="matrix(1.00, 0.00, -0.00, -1.00, 563.2, 404.0)">d</text><text xml:space="preserve" font-family="Helvetica-Light" font-size="36.0" fill="#DCDDE0" transform="matrix(1.00, 0.00, -0.00, -1.00, 585.2, 404.0)">e</text><text xml:space="preserve" font-family="Helvetica-Light" font-size="36.0" fill="#DCDDE0" transform="matrix(1.00, 0.00, -0.00, -1.00, 605.2, 404.0)">n</text><text xml:space="preserve" font-family="Helvetica-Light" font-size="36.0" fill="#DCDDE0" transform="matrix(1.00, 0.00, -0.00, -1.00, 625.2, 404.0)">t</text><text xml:space="preserve" font-family="Helvetica-Light" font-size="36.0" fill="#DCDDE0" transform="matrix(1.00, 0.00, -0.00, -1.00, 635.2, 404.0)">i</text><text xml:space="preserve" font-family="Helvetica-Light" font-size="36.0" fill="#DCDDE0" transform="matrix(1.00, 0.00, -0.00, -1.00, 643.2, 404.0)">ﬁ</text><text xml:space="preserve" font-family="Helvetica-Light" font-size="36.0" fill="#DCDDE0" transform="matrix(1.00, 0.00, -0.00, -1.00, 661.2, 404.0)">e</text><text xml:space="preserve" font-family="Helvetica-Light" font-size="36.0" fill="#DCDDE0" transform="matrix(1.00, 0.00, -0.00, -1.00, 681.2, 404.0)">r</text><text xml:space="preserve" font-family="Helvetica-Light" font-size="36.0" fill="#DCDDE0" transform="matrix(1.00, 0.00, -0.00, -1.00, 693.2, 404.0)">s</text><text xml:space="preserve" font-family="Helvetica-Light" font-size="36.0" fill="#DCDDE0" transform="matrix(1.00, 0.00, -0.00, -1.00, 711.2, 404.0)"> </text><text xml:space="preserve" font-family="Helvetica-Light" font-size="27.0" fill="#000000" transform="matrix(1.00, 0.00, -0.00, -1.00, 79.0, 347.7)">•</text><text xml:space="preserve" font-family="Helvetica-Light" font-size="36.0" fill="#000000" transform="matrix(1.00, 0.00, -0.00, -1.00, 114.0, 344.0)">R</text><text xml:space="preserve" font-family="Helvetica-Light" font-size="36.0" fill="#000000" transform="matrix(1.00, 0.00, -0.00, -1.00, 138.0, 344.0)">D</text><text xml:space="preserve" font-family="Helvetica-Light" font-size="36.0" fill="#000000" transform="matrix(1.00, 0.00, -0.00, -1.00, 164.0, 344.0)">F</text><text xml:space="preserve" font-family="Helvetica-Light" font-size="36.0" fill="#000000" transform="matrix(1.00, 0.00, -0.00, -1.00, 184.0, 344.0)"> </text><text xml:space="preserve" font-family="Helvetica-Light" font-size="36.0" fill="#000000" transform="matrix(1.00, 0.00, -0.00, -1.00, 194.0, 344.0)">F</text><text xml:space="preserve" font-family="Helvetica-Light" font-size="36.0" fill="#000000" transform="matrix(1.00, 0.00, -0.00, -1.00, 214.0, 344.0)">o</text><text xml:space="preserve" font-family="Helvetica-Light" font-size="36.0" fill="#000000" transform="matrix(1.00, 0.00, -0.00, -1.00, 234.1, 344.0)">r</text><text xml:space="preserve" font-family="Helvetica-Light" font-size="36.0" fill="#000000" transform="matrix(1.00, 0.00, -0.00, -1.00, 246.7, 344.0)">m</text><text xml:space="preserve" font-family="Helvetica-Light" font-size="36.0" fill="#000000" transform="matrix(1.00, 0.00, -0.00, -1.00, 276.7, 344.0)">a</text><text xml:space="preserve" font-family="Helvetica-Light" font-size="36.0" fill="#000000" transform="matrix(1.00, 0.00, -0.00, -1.00, 296.7, 344.0)">t</text><text xml:space="preserve" font-family="Helvetica-Light" font-size="36.0" fill="#000000" transform="matrix(1.00, 0.00, -0.00, -1.00, 306.7, 344.0)">s</text><text xml:space="preserve" font-family="Helvetica-Light" font-size="36.0" fill="#000000" transform="matrix(1.00, 0.00, -0.00, -1.00, 324.7, 344.0)"> </text><text xml:space="preserve" font-family="Helvetica-Light" font-size="27.0" fill="#DCDDE0" transform="matrix(1.00, 0.00, -0.00, -1.00, 79.0, 287.7)">•</text><text xml:space="preserve" font-family="Helvetica-Light" font-size="36.0" fill="#DCDDE0" transform="matrix(1.00, 0.00, -0.00, -1.00, 114.0, 284.0)">R</text><text xml:space="preserve" font-family="Helvetica-Light" font-size="36.0" fill="#DCDDE0" transform="matrix(1.00, 0.00, -0.00, -1.00, 138.0, 284.0)">D</text><text xml:space="preserve" font-family="Helvetica-Light" font-size="36.0" fill="#DCDDE0" transform="matrix(1.00, 0.00, -0.00, -1.00, 164.0, 284.0)">F</text><text xml:space="preserve" font-family="Helvetica-Light" font-size="36.0" fill="#DCDDE0" transform="matrix(1.00, 0.00, -0.00, -1.00, 184.0, 284.0)"> </text><text xml:space="preserve" font-family="Helvetica-Light" font-size="36.0" fill="#DCDDE0" transform="matrix(1.00, 0.00, -0.00, -1.00, 194.0, 284.0)">A</text><text xml:space="preserve" font-family="Helvetica-Light" font-size="36.0" fill="#DCDDE0" transform="matrix(1.00, 0.00, -0.00, -1.00, 218.0, 284.0)">c</text><text xml:space="preserve" font-family="Helvetica-Light" font-size="36.0" fill="#DCDDE0" transform="matrix(1.00, 0.00, -0.00, -1.00, 238.1, 284.0)">c</text><text xml:space="preserve" font-family="Helvetica-Light" font-size="36.0" fill="#DCDDE0" transform="matrix(1.00, 0.00, -0.00, -1.00, 258.1, 284.0)">e</text><text xml:space="preserve" font-family="Helvetica-Light" font-size="36.0" fill="#DCDDE0" transform="matrix(1.00, 0.00, -0.00, -1.00, 278.1, 284.0)">s</text><text xml:space="preserve" font-family="Helvetica-Light" font-size="36.0" fill="#DCDDE0" transform="matrix(1.00, 0.00, -0.00, -1.00, 296.1, 284.0)">s</text><text xml:space="preserve" font-family="Helvetica-Light" font-size="36.0" fill="#DCDDE0" transform="matrix(1.00, 0.00, -0.00, -1.00, 314.1, 284.0)"> </text><text xml:space="preserve" font-family="Helvetica-Light" font-size="36.0" fill="#DCDDE0" transform="matrix(1.00, 0.00, -0.00, -1.00, 324.1, 284.0)">P</text><text xml:space="preserve" font-family="Helvetica-Light" font-size="36.0" fill="#DCDDE0" transform="matrix(1.00, 0.00, -0.00, -1.00, 346.1, 284.0)">a</text><text xml:space="preserve" font-family="Helvetica-Light" font-size="36.0" fill="#DCDDE0" transform="matrix(1.00, 0.00, -0.00, -1.00, 366.1, 284.0)">t</text><text xml:space="preserve" font-family="Helvetica-Light" font-size="36.0" fill="#DCDDE0" transform="matrix(1.00, 0.00, -0.00, -1.00, 376.1, 284.0)">t</text><text xml:space="preserve" font-family="Helvetica-Light" font-size="36.0" fill="#DCDDE0" transform="matrix(1.00, 0.00, -0.00, -1.00, 386.1, 284.0)">e</text><text xml:space="preserve" font-family="Helvetica-Light" font-size="36.0" fill="#DCDDE0" transform="matrix(1.00, 0.00, -0.00, -1.00, 406.1, 284.0)">r</text><text xml:space="preserve" font-family="Helvetica-Light" font-size="36.0" fill="#DCDDE0" transform="matrix(1.00, 0.00, -0.00, -1.00, 418.8, 284.0)">n</text><text xml:space="preserve" font-family="Helvetica-Light" font-size="36.0" fill="#DCDDE0" transform="matrix(1.00, 0.00, -0.00, -1.00, 438.8, 284.0)">s</text><text xml:space="preserve" font-family="Helvetica-Light" font-size="12.0" fill="#000000" transform="matrix(1.00, 0.00, -0.00, -1.00, 929.0, 26.0)">8</text><text xml:space="preserve" font-family="Helvetica-Light" font-size="12.0" fill="#000000" transform="matrix(1.00, 0.00, -0.00, -1.00, 935.7, 26.0)">9</text></g></svg>