<?xml version="1.0" encoding="UTF-8" standalone="no"?><svg xmlns="http://www.w3.org/2000/svg" xmlns:xlink="http://www.w3.org/1999/xlink" clip-rule="evenodd" stroke-miterlimit="10" viewBox="0 0 1024 768"><desc>SVG generated by Keynote</desc><defs></defs><g transform="matrix(1.00, 0.00, -0.00, -1.00, 0.0, 768.0)"><g><clipPath id="clip0x7fcd2ad9da50"><path d="M 0.0 768.0 L 1024.0 768.0 L 1024.0 0.0 L 0.0 0.0 Z M 0.0 768.0 "></path></clipPath><g clip-path="url(#clip0x7fcd2ad9da50)"><image xlink:href="../../D1633A7A-1E45-48FF-BA06-56002168097B/assets/4E131E180F71435CE7831D195B770FC0.jpeg" width="2048.00" height="1536.00" transform="matrix(0.50, 0.00, -0.00, -0.50, 0.0, 768.0)"></image></g></g><text xml:space="preserve" font-family="Helvetica-Light,Helvetica" font-size="80.0" fill="#FEFFFF" transform="matrix(1.00, 0.00, -0.00, -1.00, 420.8, 622.4)">T</text><text xml:space="preserve" font-family="Helvetica-Light,Helvetica" font-size="80.0" fill="#FEFFFF" transform="matrix(1.00, 0.00, -0.00, -1.00, 456.4, 622.4)">o</text><text xml:space="preserve" font-family="Helvetica-Light,Helvetica" font-size="80.0" fill="#FEFFFF" transform="matrix(1.00, 0.00, -0.00, -1.00, 500.9, 622.4)">o</text><text xml:space="preserve" font-family="Helvetica-Light,Helvetica" font-size="80.0" fill="#FEFFFF" transform="matrix(1.00, 0.00, -0.00, -1.00, 545.4, 622.4)">l</text><text xml:space="preserve" font-family="Helvetica-Light,Helvetica" font-size="80.0" fill="#FEFFFF" transform="matrix(1.00, 0.00, -0.00, -1.00, 563.2, 622.4)">s</text><text xml:space="preserve" font-family="Helvetica-Light,Helvetica" font-size="24.2" fill="#FEFFFF" transform="matrix(1.00, 0.00, -0.00, -1.00, 79.0, 528.6)">•</text><text xml:space="preserve" font-family="Helvetica-Light,Helvetica" font-size="32.3" fill="#FEFFFF" transform="matrix(1.00, 0.00, -0.00, -1.00, 109.6, 526.4)">C</text><text xml:space="preserve" font-family="Helvetica-Light,Helvetica" font-size="32.3" fill="#FEFFFF" transform="matrix(1.00, 0.00, -0.00, -1.00, 132.9, 526.4)">S</text><text xml:space="preserve" font-family="Helvetica-Light,Helvetica" font-size="32.3" fill="#FEFFFF" transform="matrix(1.00, 0.00, -0.00, -1.00, 152.7, 526.4)">V</text><text xml:space="preserve" font-family="Helvetica-Light,Helvetica" font-size="32.3" fill="#FEFFFF" transform="matrix(1.00, 0.00, -0.00, -1.00, 172.4, 526.4)">L</text><text xml:space="preserve" font-family="Helvetica-Light,Helvetica" font-size="32.3" fill="#FEFFFF" transform="matrix(1.00, 0.00, -0.00, -1.00, 190.4, 526.4)">i</text><text xml:space="preserve" font-family="Helvetica-Light,Helvetica" font-size="32.3" fill="#FEFFFF" transform="matrix(1.00, 0.00, -0.00, -1.00, 197.5, 526.4)">n</text><text xml:space="preserve" font-family="Helvetica-Light,Helvetica" font-size="32.3" fill="#FEFFFF" transform="matrix(1.00, 0.00, -0.00, -1.00, 215.5, 526.4)">t</text><text xml:space="preserve" font-family="Helvetica-Light,Helvetica" font-size="32.3" fill="#FEFFFF" transform="matrix(1.00, 0.00, -0.00, -1.00, 224.5, 526.4)"> </text><g><clipPath id="clip0x7fcd28505f70"><path d="M 108.6 522.2 L 224.5 522.2 L 224.5 525.8 L 108.6 525.8 Z M 108.6 522.2 "></path></clipPath><g clip-path="url(#clip0x7fcd28505f70)"><path d="M 34.6 40.0 L 149.5 40.0 " fill="none" stroke="#FEFFFF" stroke-width="1.62" transform="matrix(1.00, 0.00, 0.00, -1.00, 75.0, 564.0)"></path></g></g><text xml:space="preserve" font-family="Helvetica-Light,Helvetica" font-size="24.2" fill="#FEFFFF" transform="matrix(1.00, 0.00, -0.00, -1.00, 79.0, 454.9)">•</text><text xml:space="preserve" font-family="Helvetica-Light,Helvetica" font-size="32.3" fill="#FEFFFF" transform="matrix(1.00, 0.00, -0.00, -1.00, 109.6, 452.7)">C</text><text xml:space="preserve" font-family="Helvetica-Light,Helvetica" font-size="32.3" fill="#FEFFFF" transform="matrix(1.00, 0.00, -0.00, -1.00, 132.9, 452.7)">K</text><text xml:space="preserve" font-family="Helvetica-Light,Helvetica" font-size="32.3" fill="#FEFFFF" transform="matrix(1.00, 0.00, -0.00, -1.00, 154.5, 452.7)">A</text><text xml:space="preserve" font-family="Helvetica-Light,Helvetica" font-size="32.3" fill="#FEFFFF" transform="matrix(1.00, 0.00, -0.00, -1.00, 176.0, 452.7)">N</text><text xml:space="preserve" font-family="Helvetica-Light,Helvetica" font-size="32.3" fill="#FEFFFF" transform="matrix(1.00, 0.00, -0.00, -1.00, 199.3, 452.7)"> </text><text xml:space="preserve" font-family="Helvetica-Light,Helvetica" font-size="32.3" fill="#FEFFFF" transform="matrix(1.00, 0.00, -0.00, -1.00, 208.3, 452.7)">–</text><text xml:space="preserve" font-family="Helvetica-Light,Helvetica" font-size="32.3" fill="#FEFFFF" transform="matrix(1.00, 0.00, -0.00, -1.00, 224.5, 452.7)"> </text><text xml:space="preserve" font-family="Helvetica-Light,Helvetica" font-size="32.3" fill="#FEFFFF" transform="matrix(1.00, 0.00, -0.00, -1.00, 233.4, 452.7)">o</text><text xml:space="preserve" font-family="Helvetica-Light,Helvetica" font-size="32.3" fill="#FEFFFF" transform="matrix(1.00, 0.00, -0.00, -1.00, 251.4, 452.7)">p</text><text xml:space="preserve" font-family="Helvetica-Light,Helvetica" font-size="32.3" fill="#FEFFFF" transform="matrix(1.00, 0.00, -0.00, -1.00, 271.1, 452.7)">e</text><text xml:space="preserve" font-family="Helvetica-Light,Helvetica" font-size="32.3" fill="#FEFFFF" transform="matrix(1.00, 0.00, -0.00, -1.00, 289.1, 452.7)">n</text><text xml:space="preserve" font-family="Helvetica-Light,Helvetica" font-size="32.3" fill="#FEFFFF" transform="matrix(1.00, 0.00, -0.00, -1.00, 307.0, 452.7)"> </text><text xml:space="preserve" font-family="Helvetica-Light,Helvetica" font-size="32.3" fill="#FEFFFF" transform="matrix(1.00, 0.00, -0.00, -1.00, 316.0, 452.7)">s</text><text xml:space="preserve" font-family="Helvetica-Light,Helvetica" font-size="32.3" fill="#FEFFFF" transform="matrix(1.00, 0.00, -0.00, -1.00, 332.2, 452.7)">o</text><text xml:space="preserve" font-family="Helvetica-Light,Helvetica" font-size="32.3" fill="#FEFFFF" transform="matrix(1.00, 0.00, -0.00, -1.00, 350.1, 452.7)">u</text><text xml:space="preserve" font-family="Helvetica-Light,Helvetica" font-size="32.3" fill="#FEFFFF" transform="matrix(1.00, 0.00, -0.00, -1.00, 368.1, 452.7)">r</text><text xml:space="preserve" font-family="Helvetica-Light,Helvetica" font-size="32.3" fill="#FEFFFF" transform="matrix(1.00, 0.00, -0.00, -1.00, 378.3, 452.7)">c</text><text xml:space="preserve" font-family="Helvetica-Light,Helvetica" font-size="32.3" fill="#FEFFFF" transform="matrix(1.00, 0.00, -0.00, -1.00, 396.2, 452.7)">e</text><text xml:space="preserve" font-family="Helvetica-Light,Helvetica" font-size="32.3" fill="#FEFFFF" transform="matrix(1.00, 0.00, -0.00, -1.00, 414.2, 452.7)"> </text><text xml:space="preserve" font-family="Helvetica-Light,Helvetica" font-size="32.3" fill="#FEFFFF" transform="matrix(1.00, 0.00, -0.00, -1.00, 423.2, 452.7)">d</text><text xml:space="preserve" font-family="Helvetica-Light,Helvetica" font-size="32.3" fill="#FEFFFF" transform="matrix(1.00, 0.00, -0.00, -1.00, 442.9, 452.7)">a</text><text xml:space="preserve" font-family="Helvetica-Light,Helvetica" font-size="32.3" fill="#FEFFFF" transform="matrix(1.00, 0.00, -0.00, -1.00, 460.9, 452.7)">t</text><text xml:space="preserve" font-family="Helvetica-Light,Helvetica" font-size="32.3" fill="#FEFFFF" transform="matrix(1.00, 0.00, -0.00, -1.00, 469.8, 452.7)">a</text><text xml:space="preserve" font-family="Helvetica-Light,Helvetica" font-size="32.3" fill="#FEFFFF" transform="matrix(1.00, 0.00, -0.00, -1.00, 487.8, 452.7)"> </text><text xml:space="preserve" font-family="Helvetica-Light,Helvetica" font-size="32.3" fill="#FEFFFF" transform="matrix(1.00, 0.00, -0.00, -1.00, 496.8, 452.7)">p</text><text xml:space="preserve" font-family="Helvetica-Light,Helvetica" font-size="32.3" fill="#FEFFFF" transform="matrix(1.00, 0.00, -0.00, -1.00, 516.5, 452.7)">o</text><text xml:space="preserve" font-family="Helvetica-Light,Helvetica" font-size="32.3" fill="#FEFFFF" transform="matrix(1.00, 0.00, -0.00, -1.00, 534.5, 452.7)">r</text><text xml:space="preserve" font-family="Helvetica-Light,Helvetica" font-size="32.3" fill="#FEFFFF" transform="matrix(1.00, 0.00, -0.00, -1.00, 545.8, 452.7)">t</text><text xml:space="preserve" font-family="Helvetica-Light,Helvetica" font-size="32.3" fill="#FEFFFF" transform="matrix(1.00, 0.00, -0.00, -1.00, 554.8, 452.7)">a</text><text xml:space="preserve" font-family="Helvetica-Light,Helvetica" font-size="32.3" fill="#FEFFFF" transform="matrix(1.00, 0.00, -0.00, -1.00, 572.7, 452.7)">l</text><text xml:space="preserve" font-family="Helvetica-Light,Helvetica" font-size="32.3" fill="#FEFFFF" transform="matrix(1.00, 0.00, -0.00, -1.00, 579.9, 452.7)"> </text><text xml:space="preserve" font-family="Helvetica-Light,Helvetica" font-size="32.3" fill="#FEFFFF" transform="matrix(1.00, 0.00, -0.00, -1.00, 588.9, 452.7)">p</text><text xml:space="preserve" font-family="Helvetica-Light,Helvetica" font-size="32.3" fill="#FEFFFF" transform="matrix(1.00, 0.00, -0.00, -1.00, 608.6, 452.7)">l</text><text xml:space="preserve" font-family="Helvetica-Light,Helvetica" font-size="32.3" fill="#FEFFFF" transform="matrix(1.00, 0.00, -0.00, -1.00, 615.8, 452.7)">a</text><text xml:space="preserve" font-family="Helvetica-Light,Helvetica" font-size="32.3" fill="#FEFFFF" transform="matrix(1.00, 0.00, -0.00, -1.00, 633.8, 452.7)">t</text><text xml:space="preserve" font-family="Helvetica-Light,Helvetica" font-size="32.3" fill="#FEFFFF" transform="matrix(1.00, 0.00, -0.00, -1.00, 642.7, 452.7)">f</text><text xml:space="preserve" font-family="Helvetica-Light,Helvetica" font-size="32.3" fill="#FEFFFF" transform="matrix(1.00, 0.00, -0.00, -1.00, 651.7, 452.7)">o</text><text xml:space="preserve" font-family="Helvetica-Light,Helvetica" font-size="32.3" fill="#FEFFFF" transform="matrix(1.00, 0.00, -0.00, -1.00, 669.7, 452.7)">r</text><text xml:space="preserve" font-family="Helvetica-Light,Helvetica" font-size="32.3" fill="#FEFFFF" transform="matrix(1.00, 0.00, -0.00, -1.00, 681.0, 452.7)">m</text><text xml:space="preserve" font-family="Helvetica-Light,Helvetica" font-size="32.3" fill="#FEFFFF" transform="matrix(1.00, 0.00, -0.00, -1.00, 707.9, 452.7)"> </text><g><clipPath id="clip0x7fcd285179c0"><path d="M 108.6 448.5 L 199.3 448.5 L 199.3 452.1 L 108.6 452.1 Z M 108.6 448.5 "></path></clipPath><g clip-path="url(#clip0x7fcd285179c0)"><path d="M 34.6 113.7 L 124.3 113.7 " fill="none" stroke="#FEFFFF" stroke-width="1.62" transform="matrix(1.00, 0.00, 0.00, -1.00, 75.0, 564.0)"></path></g></g><text xml:space="preserve" font-family="Helvetica-Light,Helvetica" font-size="24.2" fill="#FEFFFF" transform="matrix(1.00, 0.00, -0.00, -1.00, 79.0, 381.2)">•</text><text xml:space="preserve" font-family="Helvetica-Light,Helvetica" font-size="32.3" fill="#FEFFFF" transform="matrix(1.00, 0.00, -0.00, -1.00, 109.6, 379.0)">S</text><text xml:space="preserve" font-family="Helvetica-Light,Helvetica" font-size="32.3" fill="#FEFFFF" transform="matrix(1.00, 0.00, -0.00, -1.00, 129.3, 379.0)">o</text><text xml:space="preserve" font-family="Helvetica-Light,Helvetica" font-size="32.3" fill="#FEFFFF" transform="matrix(1.00, 0.00, -0.00, -1.00, 147.3, 379.0)">c</text><text xml:space="preserve" font-family="Helvetica-Light,Helvetica" font-size="32.3" fill="#FEFFFF" transform="matrix(1.00, 0.00, -0.00, -1.00, 165.3, 379.0)">r</text><text xml:space="preserve" font-family="Helvetica-Light,Helvetica" font-size="32.3" fill="#FEFFFF" transform="matrix(1.00, 0.00, -0.00, -1.00, 176.0, 379.0)">a</text><text xml:space="preserve" font-family="Helvetica-Light,Helvetica" font-size="32.3" fill="#FEFFFF" transform="matrix(1.00, 0.00, -0.00, -1.00, 194.0, 379.0)">t</text><text xml:space="preserve" font-family="Helvetica-Light,Helvetica" font-size="32.3" fill="#FEFFFF" transform="matrix(1.00, 0.00, -0.00, -1.00, 202.9, 379.0)">a</text><text xml:space="preserve" font-family="Helvetica-Light,Helvetica" font-size="32.3" fill="#FEFFFF" transform="matrix(1.00, 0.00, -0.00, -1.00, 220.9, 379.0)"> </text><text xml:space="preserve" font-family="Helvetica-Light,Helvetica" font-size="32.3" fill="#FEFFFF" transform="matrix(1.00, 0.00, -0.00, -1.00, 229.9, 379.0)">–</text><text xml:space="preserve" font-family="Helvetica-Light,Helvetica" font-size="32.3" fill="#FEFFFF" transform="matrix(1.00, 0.00, -0.00, -1.00, 246.0, 379.0)"> </text><text xml:space="preserve" font-family="Helvetica-Light,Helvetica" font-size="32.3" fill="#FEFFFF" transform="matrix(1.00, 0.00, -0.00, -1.00, 255.0, 379.0)">c</text><text xml:space="preserve" font-family="Helvetica-Light,Helvetica" font-size="32.3" fill="#FEFFFF" transform="matrix(1.00, 0.00, -0.00, -1.00, 273.0, 379.0)">l</text><text xml:space="preserve" font-family="Helvetica-Light,Helvetica" font-size="32.3" fill="#FEFFFF" transform="matrix(1.00, 0.00, -0.00, -1.00, 280.1, 379.0)">o</text><text xml:space="preserve" font-family="Helvetica-Light,Helvetica" font-size="32.3" fill="#FEFFFF" transform="matrix(1.00, 0.00, -0.00, -1.00, 298.1, 379.0)">u</text><text xml:space="preserve" font-family="Helvetica-Light,Helvetica" font-size="32.3" fill="#FEFFFF" transform="matrix(1.00, 0.00, -0.00, -1.00, 316.1, 379.0)">d</text><text xml:space="preserve" font-family="Helvetica-Light,Helvetica" font-size="32.3" fill="#FEFFFF" transform="matrix(1.00, 0.00, -0.00, -1.00, 335.8, 379.0)">-</text><text xml:space="preserve" font-family="Helvetica-Light,Helvetica" font-size="32.3" fill="#FEFFFF" transform="matrix(1.00, 0.00, -0.00, -1.00, 346.6, 379.0)">b</text><text xml:space="preserve" font-family="Helvetica-Light,Helvetica" font-size="32.3" fill="#FEFFFF" transform="matrix(1.00, 0.00, -0.00, -1.00, 366.3, 379.0)">a</text><text xml:space="preserve" font-family="Helvetica-Light,Helvetica" font-size="32.3" fill="#FEFFFF" transform="matrix(1.00, 0.00, -0.00, -1.00, 384.2, 379.0)">s</text><text xml:space="preserve" font-family="Helvetica-Light,Helvetica" font-size="32.3" fill="#FEFFFF" transform="matrix(1.00, 0.00, -0.00, -1.00, 400.4, 379.0)">e</text><text xml:space="preserve" font-family="Helvetica-Light,Helvetica" font-size="32.3" fill="#FEFFFF" transform="matrix(1.00, 0.00, -0.00, -1.00, 418.4, 379.0)">d</text><text xml:space="preserve" font-family="Helvetica-Light,Helvetica" font-size="32.3" fill="#FEFFFF" transform="matrix(1.00, 0.00, -0.00, -1.00, 438.1, 379.0)"> </text><text xml:space="preserve" font-family="Helvetica-Light,Helvetica" font-size="32.3" fill="#FEFFFF" transform="matrix(1.00, 0.00, -0.00, -1.00, 447.1, 379.0)">o</text><text xml:space="preserve" font-family="Helvetica-Light,Helvetica" font-size="32.3" fill="#FEFFFF" transform="matrix(1.00, 0.00, -0.00, -1.00, 465.0, 379.0)">p</text><text xml:space="preserve" font-family="Helvetica-Light,Helvetica" font-size="32.3" fill="#FEFFFF" transform="matrix(1.00, 0.00, -0.00, -1.00, 484.8, 379.0)">e</text><text xml:space="preserve" font-family="Helvetica-Light,Helvetica" font-size="32.3" fill="#FEFFFF" transform="matrix(1.00, 0.00, -0.00, -1.00, 502.7, 379.0)">n</text><text xml:space="preserve" font-family="Helvetica-Light,Helvetica" font-size="32.3" fill="#FEFFFF" transform="matrix(1.00, 0.00, -0.00, -1.00, 520.7, 379.0)"> </text><text xml:space="preserve" font-family="Helvetica-Light,Helvetica" font-size="32.3" fill="#FEFFFF" transform="matrix(1.00, 0.00, -0.00, -1.00, 529.7, 379.0)">d</text><text xml:space="preserve" font-family="Helvetica-Light,Helvetica" font-size="32.3" fill="#FEFFFF" transform="matrix(1.00, 0.00, -0.00, -1.00, 549.4, 379.0)">a</text><text xml:space="preserve" font-family="Helvetica-Light,Helvetica" font-size="32.3" fill="#FEFFFF" transform="matrix(1.00, 0.00, -0.00, -1.00, 567.4, 379.0)">t</text><text xml:space="preserve" font-family="Helvetica-Light,Helvetica" font-size="32.3" fill="#FEFFFF" transform="matrix(1.00, 0.00, -0.00, -1.00, 576.3, 379.0)">a</text><text xml:space="preserve" font-family="Helvetica-Light,Helvetica" font-size="32.3" fill="#FEFFFF" transform="matrix(1.00, 0.00, -0.00, -1.00, 594.3, 379.0)"> </text><g><clipPath id="clip0x7fcd28521950"><path d="M 108.6 374.8 L 220.9 374.8 L 220.9 378.4 L 108.6 378.4 Z M 108.6 374.8 "></path></clipPath><g clip-path="url(#clip0x7fcd28521950)"><path d="M 34.6 187.4 L 145.9 187.4 " fill="none" stroke="#FEFFFF" stroke-width="1.62" transform="matrix(1.00, 0.00, 0.00, -1.00, 75.0, 564.0)"></path></g></g><text xml:space="preserve" font-family="Helvetica-Light,Helvetica" font-size="24.2" fill="#FEFFFF" transform="matrix(1.00, 0.00, -0.00, -1.00, 79.0, 307.5)">•</text><text xml:space="preserve" font-family="Helvetica-Light,Helvetica" font-size="32.3" fill="#FEFFFF" transform="matrix(1.00, 0.00, -0.00, -1.00, 109.6, 305.3)">G</text><text xml:space="preserve" font-family="Helvetica-Light,Helvetica" font-size="32.3" fill="#FEFFFF" transform="matrix(1.00, 0.00, -0.00, -1.00, 134.7, 305.3)">o</text><text xml:space="preserve" font-family="Helvetica-Light,Helvetica" font-size="32.3" fill="#FEFFFF" transform="matrix(1.00, 0.00, -0.00, -1.00, 152.7, 305.3)">o</text><text xml:space="preserve" font-family="Helvetica-Light,Helvetica" font-size="32.3" fill="#FEFFFF" transform="matrix(1.00, 0.00, -0.00, -1.00, 170.6, 305.3)">g</text><text xml:space="preserve" font-family="Helvetica-Light,Helvetica" font-size="32.3" fill="#FEFFFF" transform="matrix(1.00, 0.00, -0.00, -1.00, 190.4, 305.3)">l</text><text xml:space="preserve" font-family="Helvetica-Light,Helvetica" font-size="32.3" fill="#FEFFFF" transform="matrix(1.00, 0.00, -0.00, -1.00, 197.6, 305.3)">e</text><text xml:space="preserve" font-family="Helvetica-Light,Helvetica" font-size="32.3" fill="#FEFFFF" transform="matrix(1.00, 0.00, -0.00, -1.00, 215.5, 305.3)"> </text><text xml:space="preserve" font-family="Helvetica-Light,Helvetica" font-size="32.3" fill="#FEFFFF" transform="matrix(1.00, 0.00, -0.00, -1.00, 224.5, 305.3)">F</text><text xml:space="preserve" font-family="Helvetica-Light,Helvetica" font-size="32.3" fill="#FEFFFF" transform="matrix(1.00, 0.00, -0.00, -1.00, 242.4, 305.3)">u</text><text xml:space="preserve" font-family="Helvetica-Light,Helvetica" font-size="32.3" fill="#FEFFFF" transform="matrix(1.00, 0.00, -0.00, -1.00, 260.4, 305.3)">s</text><text xml:space="preserve" font-family="Helvetica-Light,Helvetica" font-size="32.3" fill="#FEFFFF" transform="matrix(1.00, 0.00, -0.00, -1.00, 276.6, 305.3)">i</text><text xml:space="preserve" font-family="Helvetica-Light,Helvetica" font-size="32.3" fill="#FEFFFF" transform="matrix(1.00, 0.00, -0.00, -1.00, 283.7, 305.3)">o</text><text xml:space="preserve" font-family="Helvetica-Light,Helvetica" font-size="32.3" fill="#FEFFFF" transform="matrix(1.00, 0.00, -0.00, -1.00, 301.7, 305.3)">n</text><text xml:space="preserve" font-family="Helvetica-Light,Helvetica" font-size="32.3" fill="#FEFFFF" transform="matrix(1.00, 0.00, -0.00, -1.00, 319.6, 305.3)"> </text><text xml:space="preserve" font-family="Helvetica-Light,Helvetica" font-size="32.3" fill="#FEFFFF" transform="matrix(1.00, 0.00, -0.00, -1.00, 328.6, 305.3)">T</text><text xml:space="preserve" font-family="Helvetica-Light,Helvetica" font-size="32.3" fill="#FEFFFF" transform="matrix(1.00, 0.00, -0.00, -1.00, 343.0, 305.3)">a</text><text xml:space="preserve" font-family="Helvetica-Light,Helvetica" font-size="32.3" fill="#FEFFFF" transform="matrix(1.00, 0.00, -0.00, -1.00, 361.0, 305.3)">b</text><text xml:space="preserve" font-family="Helvetica-Light,Helvetica" font-size="32.3" fill="#FEFFFF" transform="matrix(1.00, 0.00, -0.00, -1.00, 380.7, 305.3)">l</text><text xml:space="preserve" font-family="Helvetica-Light,Helvetica" font-size="32.3" fill="#FEFFFF" transform="matrix(1.00, 0.00, -0.00, -1.00, 387.9, 305.3)">e</text><text xml:space="preserve" font-family="Helvetica-Light,Helvetica" font-size="32.3" fill="#FEFFFF" transform="matrix(1.00, 0.00, -0.00, -1.00, 405.8, 305.3)">s</text><text xml:space="preserve" font-family="Helvetica-Light,Helvetica" font-size="32.3" fill="#FEFFFF" transform="matrix(1.00, 0.00, -0.00, -1.00, 422.0, 305.3)"> </text><text xml:space="preserve" font-family="Helvetica-Light,Helvetica" font-size="32.3" fill="#FEFFFF" transform="matrix(1.00, 0.00, -0.00, -1.00, 431.0, 305.3)">–</text><text xml:space="preserve" font-family="Helvetica-Light,Helvetica" font-size="32.3" fill="#FEFFFF" transform="matrix(1.00, 0.00, -0.00, -1.00, 447.1, 305.3)"> </text><text xml:space="preserve" font-family="Helvetica-Light,Helvetica" font-size="32.3" fill="#FEFFFF" transform="matrix(1.00, 0.00, -0.00, -1.00, 456.1, 305.3)">d</text><text xml:space="preserve" font-family="Helvetica-Light,Helvetica" font-size="32.3" fill="#FEFFFF" transform="matrix(1.00, 0.00, -0.00, -1.00, 475.8, 305.3)">a</text><text xml:space="preserve" font-family="Helvetica-Light,Helvetica" font-size="32.3" fill="#FEFFFF" transform="matrix(1.00, 0.00, -0.00, -1.00, 493.8, 305.3)">t</text><text xml:space="preserve" font-family="Helvetica-Light,Helvetica" font-size="32.3" fill="#FEFFFF" transform="matrix(1.00, 0.00, -0.00, -1.00, 502.8, 305.3)">a</text><text xml:space="preserve" font-family="Helvetica-Light,Helvetica" font-size="32.3" fill="#FEFFFF" transform="matrix(1.00, 0.00, -0.00, -1.00, 520.7, 305.3)"> </text><text xml:space="preserve" font-family="Helvetica-Light,Helvetica" font-size="32.3" fill="#FEFFFF" transform="matrix(1.00, 0.00, -0.00, -1.00, 529.7, 305.3)">v</text><text xml:space="preserve" font-family="Helvetica-Light,Helvetica" font-size="32.3" fill="#FEFFFF" transform="matrix(1.00, 0.00, -0.00, -1.00, 545.8, 305.3)">i</text><text xml:space="preserve" font-family="Helvetica-Light,Helvetica" font-size="32.3" fill="#FEFFFF" transform="matrix(1.00, 0.00, -0.00, -1.00, 553.0, 305.3)">s</text><text xml:space="preserve" font-family="Helvetica-Light,Helvetica" font-size="32.3" fill="#FEFFFF" transform="matrix(1.00, 0.00, -0.00, -1.00, 569.2, 305.3)">u</text><text xml:space="preserve" font-family="Helvetica-Light,Helvetica" font-size="32.3" fill="#FEFFFF" transform="matrix(1.00, 0.00, -0.00, -1.00, 587.1, 305.3)">a</text><text xml:space="preserve" font-family="Helvetica-Light,Helvetica" font-size="32.3" fill="#FEFFFF" transform="matrix(1.00, 0.00, -0.00, -1.00, 605.1, 305.3)">l</text><text xml:space="preserve" font-family="Helvetica-Light,Helvetica" font-size="32.3" fill="#FEFFFF" transform="matrix(1.00, 0.00, -0.00, -1.00, 612.3, 305.3)">i</text><text xml:space="preserve" font-family="Helvetica-Light,Helvetica" font-size="32.3" fill="#FEFFFF" transform="matrix(1.00, 0.00, -0.00, -1.00, 619.4, 305.3)">z</text><text xml:space="preserve" font-family="Helvetica-Light,Helvetica" font-size="32.3" fill="#FEFFFF" transform="matrix(1.00, 0.00, -0.00, -1.00, 635.6, 305.3)">a</text><text xml:space="preserve" font-family="Helvetica-Light,Helvetica" font-size="32.3" fill="#FEFFFF" transform="matrix(1.00, 0.00, -0.00, -1.00, 653.5, 305.3)">t</text><text xml:space="preserve" font-family="Helvetica-Light,Helvetica" font-size="32.3" fill="#FEFFFF" transform="matrix(1.00, 0.00, -0.00, -1.00, 662.5, 305.3)">i</text><text xml:space="preserve" font-family="Helvetica-Light,Helvetica" font-size="32.3" fill="#FEFFFF" transform="matrix(1.00, 0.00, -0.00, -1.00, 669.7, 305.3)">o</text><text xml:space="preserve" font-family="Helvetica-Light,Helvetica" font-size="32.3" fill="#FEFFFF" transform="matrix(1.00, 0.00, -0.00, -1.00, 687.6, 305.3)">n</text><text xml:space="preserve" font-family="Helvetica-Light,Helvetica" font-size="32.3" fill="#FEFFFF" transform="matrix(1.00, 0.00, -0.00, -1.00, 705.6, 305.3)"> </text><g><clipPath id="clip0x7fcd227c2140"><path d="M 108.6 301.1 L 422.0 301.1 L 422.0 304.7 L 108.6 304.7 Z M 108.6 301.1 "></path></clipPath><g clip-path="url(#clip0x7fcd227c2140)"><path d="M 34.6 261.1 L 347.0 261.1 " fill="none" stroke="#FEFFFF" stroke-width="1.62" transform="matrix(1.00, 0.00, 0.00, -1.00, 75.0, 564.0)"></path></g></g><text xml:space="preserve" font-family="Helvetica-Light,Helvetica" font-size="24.2" fill="#FEFFFF" transform="matrix(1.00, 0.00, -0.00, -1.00, 79.0, 233.8)">•</text><text xml:space="preserve" font-family="Helvetica-Light,Helvetica" font-size="32.3" fill="#FEFFFF" transform="matrix(1.00, 0.00, -0.00, -1.00, 109.6, 231.6)">R</text><text xml:space="preserve" font-family="Helvetica-Light,Helvetica" font-size="32.3" fill="#FEFFFF" transform="matrix(1.00, 0.00, -0.00, -1.00, 131.1, 231.6)">u</text><text xml:space="preserve" font-family="Helvetica-Light,Helvetica" font-size="32.3" fill="#FEFFFF" transform="matrix(1.00, 0.00, -0.00, -1.00, 149.1, 231.6)">b</text><text xml:space="preserve" font-family="Helvetica-Light,Helvetica" font-size="32.3" fill="#FEFFFF" transform="matrix(1.00, 0.00, -0.00, -1.00, 168.8, 231.6)">y</text><text xml:space="preserve" font-family="Helvetica-Light,Helvetica" font-size="32.3" fill="#FEFFFF" transform="matrix(1.00, 0.00, -0.00, -1.00, 185.0, 231.6)"> </text><text xml:space="preserve" font-family="Helvetica-Light,Helvetica" font-size="32.3" fill="#FEFFFF" transform="matrix(1.00, 0.00, -0.00, -1.00, 194.0, 231.6)">r</text><text xml:space="preserve" font-family="Helvetica-Light,Helvetica" font-size="32.3" fill="#FEFFFF" transform="matrix(1.00, 0.00, -0.00, -1.00, 204.1, 231.6)">d</text><text xml:space="preserve" font-family="Helvetica-Light,Helvetica" font-size="32.3" fill="#FEFFFF" transform="matrix(1.00, 0.00, -0.00, -1.00, 223.9, 231.6)">f</text><text xml:space="preserve" font-family="Helvetica-Light,Helvetica" font-size="32.3" fill="#FEFFFF" transform="matrix(1.00, 0.00, -0.00, -1.00, 232.9, 231.6)">-</text><text xml:space="preserve" font-family="Helvetica-Light,Helvetica" font-size="32.3" fill="#FEFFFF" transform="matrix(1.00, 0.00, -0.00, -1.00, 243.6, 231.6)">t</text><text xml:space="preserve" font-family="Helvetica-Light,Helvetica" font-size="32.3" fill="#FEFFFF" transform="matrix(1.00, 0.00, -0.00, -1.00, 252.6, 231.6)">a</text><text xml:space="preserve" font-family="Helvetica-Light,Helvetica" font-size="32.3" fill="#FEFFFF" transform="matrix(1.00, 0.00, -0.00, -1.00, 270.6, 231.6)">b</text><text xml:space="preserve" font-family="Helvetica-Light,Helvetica" font-size="32.3" fill="#FEFFFF" transform="matrix(1.00, 0.00, -0.00, -1.00, 290.3, 231.6)">u</text><text xml:space="preserve" font-family="Helvetica-Light,Helvetica" font-size="32.3" fill="#FEFFFF" transform="matrix(1.00, 0.00, -0.00, -1.00, 308.2, 231.6)">l</text><text xml:space="preserve" font-family="Helvetica-Light,Helvetica" font-size="32.3" fill="#FEFFFF" transform="matrix(1.00, 0.00, -0.00, -1.00, 315.4, 231.6)">a</text><text xml:space="preserve" font-family="Helvetica-Light,Helvetica" font-size="32.3" fill="#FEFFFF" transform="matrix(1.00, 0.00, -0.00, -1.00, 333.4, 231.6)">r</text><text xml:space="preserve" font-family="Helvetica-Light,Helvetica" font-size="32.3" fill="#FEFFFF" transform="matrix(1.00, 0.00, -0.00, -1.00, 344.1, 231.6)"> </text><text xml:space="preserve" font-family="Helvetica-Light,Helvetica" font-size="32.3" fill="#FEFFFF" transform="matrix(1.00, 0.00, -0.00, -1.00, 353.1, 231.6)">–</text><text xml:space="preserve" font-family="Helvetica-Light,Helvetica" font-size="32.3" fill="#FEFFFF" transform="matrix(1.00, 0.00, -0.00, -1.00, 369.3, 231.6)"> </text><text xml:space="preserve" font-family="Helvetica-Light,Helvetica" font-size="32.3" fill="#FEFFFF" transform="matrix(1.00, 0.00, -0.00, -1.00, 378.2, 231.6)">C</text><text xml:space="preserve" font-family="Helvetica-Light,Helvetica" font-size="32.3" fill="#FEFFFF" transform="matrix(1.00, 0.00, -0.00, -1.00, 401.6, 231.6)">S</text><text xml:space="preserve" font-family="Helvetica-Light,Helvetica" font-size="32.3" fill="#FEFFFF" transform="matrix(1.00, 0.00, -0.00, -1.00, 421.3, 231.6)">V</text><text xml:space="preserve" font-family="Helvetica-Light,Helvetica" font-size="32.3" fill="#FEFFFF" transform="matrix(1.00, 0.00, -0.00, -1.00, 441.0, 231.6)">W</text><text xml:space="preserve" font-family="Helvetica-Light,Helvetica" font-size="32.3" fill="#FEFFFF" transform="matrix(1.00, 0.00, -0.00, -1.00, 469.7, 231.6)"> </text><text xml:space="preserve" font-family="Helvetica-Light,Helvetica" font-size="32.3" fill="#FEFFFF" transform="matrix(1.00, 0.00, -0.00, -1.00, 478.7, 231.6)">r</text><text xml:space="preserve" font-family="Helvetica-Light,Helvetica" font-size="32.3" fill="#FEFFFF" transform="matrix(1.00, 0.00, -0.00, -1.00, 488.9, 231.6)">e</text><text xml:space="preserve" font-family="Helvetica-Light,Helvetica" font-size="32.3" fill="#FEFFFF" transform="matrix(1.00, 0.00, -0.00, -1.00, 506.9, 231.6)">f</text><text xml:space="preserve" font-family="Helvetica-Light,Helvetica" font-size="32.3" fill="#FEFFFF" transform="matrix(1.00, 0.00, -0.00, -1.00, 515.8, 231.6)">e</text><text xml:space="preserve" font-family="Helvetica-Light,Helvetica" font-size="32.3" fill="#FEFFFF" transform="matrix(1.00, 0.00, -0.00, -1.00, 533.8, 231.6)">r</text><text xml:space="preserve" font-family="Helvetica-Light,Helvetica" font-size="32.3" fill="#FEFFFF" transform="matrix(1.00, 0.00, -0.00, -1.00, 544.0, 231.6)">e</text><text xml:space="preserve" font-family="Helvetica-Light,Helvetica" font-size="32.3" fill="#FEFFFF" transform="matrix(1.00, 0.00, -0.00, -1.00, 561.9, 231.6)">n</text><text xml:space="preserve" font-family="Helvetica-Light,Helvetica" font-size="32.3" fill="#FEFFFF" transform="matrix(1.00, 0.00, -0.00, -1.00, 579.9, 231.6)">c</text><text xml:space="preserve" font-family="Helvetica-Light,Helvetica" font-size="32.3" fill="#FEFFFF" transform="matrix(1.00, 0.00, -0.00, -1.00, 597.8, 231.6)">e</text><text xml:space="preserve" font-family="Helvetica-Light,Helvetica" font-size="32.3" fill="#FEFFFF" transform="matrix(1.00, 0.00, -0.00, -1.00, 615.8, 231.6)"> </text><text xml:space="preserve" font-family="Helvetica-Light,Helvetica" font-size="32.3" fill="#FEFFFF" transform="matrix(1.00, 0.00, -0.00, -1.00, 624.8, 231.6)">i</text><text xml:space="preserve" font-family="Helvetica-Light,Helvetica" font-size="32.3" fill="#FEFFFF" transform="matrix(1.00, 0.00, -0.00, -1.00, 632.0, 231.6)">m</text><text xml:space="preserve" font-family="Helvetica-Light,Helvetica" font-size="32.3" fill="#FEFFFF" transform="matrix(1.00, 0.00, -0.00, -1.00, 658.9, 231.6)">p</text><text xml:space="preserve" font-family="Helvetica-Light,Helvetica" font-size="32.3" fill="#FEFFFF" transform="matrix(1.00, 0.00, -0.00, -1.00, 678.6, 231.6)">l</text><text xml:space="preserve" font-family="Helvetica-Light,Helvetica" font-size="32.3" fill="#FEFFFF" transform="matrix(1.00, 0.00, -0.00, -1.00, 685.8, 231.6)">e</text><text xml:space="preserve" font-family="Helvetica-Light,Helvetica" font-size="32.3" fill="#FEFFFF" transform="matrix(1.00, 0.00, -0.00, -1.00, 703.7, 231.6)">m</text><text xml:space="preserve" font-family="Helvetica-Light,Helvetica" font-size="32.3" fill="#FEFFFF" transform="matrix(1.00, 0.00, -0.00, -1.00, 730.6, 231.6)">e</text><text xml:space="preserve" font-family="Helvetica-Light,Helvetica" font-size="32.3" fill="#FEFFFF" transform="matrix(1.00, 0.00, -0.00, -1.00, 748.6, 231.6)">n</text><text xml:space="preserve" font-family="Helvetica-Light,Helvetica" font-size="32.3" fill="#FEFFFF" transform="matrix(1.00, 0.00, -0.00, -1.00, 766.5, 231.6)">t</text><text xml:space="preserve" font-family="Helvetica-Light,Helvetica" font-size="32.3" fill="#FEFFFF" transform="matrix(1.00, 0.00, -0.00, -1.00, 775.5, 231.6)">a</text><text xml:space="preserve" font-family="Helvetica-Light,Helvetica" font-size="32.3" fill="#FEFFFF" transform="matrix(1.00, 0.00, -0.00, -1.00, 793.5, 231.6)">t</text><text xml:space="preserve" font-family="Helvetica-Light,Helvetica" font-size="32.3" fill="#FEFFFF" transform="matrix(1.00, 0.00, -0.00, -1.00, 802.5, 231.6)">i</text><text xml:space="preserve" font-family="Helvetica-Light,Helvetica" font-size="32.3" fill="#FEFFFF" transform="matrix(1.00, 0.00, -0.00, -1.00, 809.6, 231.6)">o</text><text xml:space="preserve" font-family="Helvetica-Light,Helvetica" font-size="32.3" fill="#FEFFFF" transform="matrix(1.00, 0.00, -0.00, -1.00, 827.6, 231.6)">n</text><text xml:space="preserve" font-family="Helvetica-Light,Helvetica" font-size="32.3" fill="#FEFFFF" transform="matrix(1.00, 0.00, -0.00, -1.00, 845.6, 231.6)"> </text><g><clipPath id="clip0x7fcd227911a0"><path d="M 193.0 227.4 L 344.1 227.4 L 344.1 231.0 L 193.0 231.0 Z M 193.0 227.4 "></path></clipPath><g clip-path="url(#clip0x7fcd227911a0)"><path d="M 119.0 334.8 L 269.1 334.8 " fill="none" stroke="#FEFFFF" stroke-width="1.62" transform="matrix(1.00, 0.00, 0.00, -1.00, 75.0, 564.0)"></path></g></g><text xml:space="preserve" font-family="Helvetica-Light,Helvetica" font-size="24.2" fill="#FEFFFF" transform="matrix(1.00, 0.00, -0.00, -1.00, 79.0, 160.1)">•</text><text xml:space="preserve" font-family="Helvetica-Light,Helvetica" font-size="32.3" fill="#FEFFFF" transform="matrix(1.00, 0.00, -0.00, -1.00, 109.6, 157.9)">R</text><text xml:space="preserve" font-family="Helvetica-Light,Helvetica" font-size="32.3" fill="#FEFFFF" transform="matrix(1.00, 0.00, -0.00, -1.00, 131.1, 157.9)">D</text><text xml:space="preserve" font-family="Helvetica-Light,Helvetica" font-size="32.3" fill="#FEFFFF" transform="matrix(1.00, 0.00, -0.00, -1.00, 154.5, 157.9)">F</text><text xml:space="preserve" font-family="Helvetica-Light,Helvetica" font-size="32.3" fill="#FEFFFF" transform="matrix(1.00, 0.00, -0.00, -1.00, 172.4, 157.9)"> </text><text xml:space="preserve" font-family="Helvetica-Light,Helvetica" font-size="32.3" fill="#FEFFFF" transform="matrix(1.00, 0.00, -0.00, -1.00, 181.4, 157.9)">D</text><text xml:space="preserve" font-family="Helvetica-Light,Helvetica" font-size="32.3" fill="#FEFFFF" transform="matrix(1.00, 0.00, -0.00, -1.00, 204.7, 157.9)">i</text><text xml:space="preserve" font-family="Helvetica-Light,Helvetica" font-size="32.3" fill="#FEFFFF" transform="matrix(1.00, 0.00, -0.00, -1.00, 211.9, 157.9)">s</text><text xml:space="preserve" font-family="Helvetica-Light,Helvetica" font-size="32.3" fill="#FEFFFF" transform="matrix(1.00, 0.00, -0.00, -1.00, 228.0, 157.9)">t</text><text xml:space="preserve" font-family="Helvetica-Light,Helvetica" font-size="32.3" fill="#FEFFFF" transform="matrix(1.00, 0.00, -0.00, -1.00, 237.0, 157.9)">i</text><text xml:space="preserve" font-family="Helvetica-Light,Helvetica" font-size="32.3" fill="#FEFFFF" transform="matrix(1.00, 0.00, -0.00, -1.00, 244.2, 157.9)">l</text><text xml:space="preserve" font-family="Helvetica-Light,Helvetica" font-size="32.3" fill="#FEFFFF" transform="matrix(1.00, 0.00, -0.00, -1.00, 251.4, 157.9)">l</text><text xml:space="preserve" font-family="Helvetica-Light,Helvetica" font-size="32.3" fill="#FEFFFF" transform="matrix(1.00, 0.00, -0.00, -1.00, 258.5, 157.9)">e</text><text xml:space="preserve" font-family="Helvetica-Light,Helvetica" font-size="32.3" fill="#FEFFFF" transform="matrix(1.00, 0.00, -0.00, -1.00, 276.5, 157.9)">r</text><text xml:space="preserve" font-family="Helvetica-Light,Helvetica" font-size="32.3" fill="#FEFFFF" transform="matrix(1.00, 0.00, -0.00, -1.00, 287.2, 157.9)"> </text><g><clipPath id="clip0x7fcd227989a0"><path d="M 108.6 153.7 L 287.2 153.7 L 287.2 157.3 L 108.6 157.3 Z M 108.6 153.7 "></path></clipPath><g clip-path="url(#clip0x7fcd227989a0)"><path d="M 34.6 408.5 L 212.2 408.5 " fill="none" stroke="#FEFFFF" stroke-width="1.62" transform="matrix(1.00, 0.00, 0.00, -1.00, 75.0, 564.0)"></path></g></g><text xml:space="preserve" font-family="Helvetica-Light,Helvetica" font-size="24.2" fill="#FEFFFF" transform="matrix(1.00, 0.00, -0.00, -1.00, 79.0, 86.4)">•</text><text xml:space="preserve" font-family="Helvetica-Light,Helvetica" font-size="32.3" fill="#FEFFFF" transform="matrix(1.00, 0.00, -0.00, -1.00, 109.6, 84.2)">S</text><text xml:space="preserve" font-family="Helvetica-Light,Helvetica" font-size="32.3" fill="#FEFFFF" transform="matrix(1.00, 0.00, -0.00, -1.00, 129.3, 84.2)">t</text><text xml:space="preserve" font-family="Helvetica-Light,Helvetica" font-size="32.3" fill="#FEFFFF" transform="matrix(1.00, 0.00, -0.00, -1.00, 138.3, 84.2)">r</text><text xml:space="preserve" font-family="Helvetica-Light,Helvetica" font-size="32.3" fill="#FEFFFF" transform="matrix(1.00, 0.00, -0.00, -1.00, 149.1, 84.2)">u</text><text xml:space="preserve" font-family="Helvetica-Light,Helvetica" font-size="32.3" fill="#FEFFFF" transform="matrix(1.00, 0.00, -0.00, -1.00, 167.0, 84.2)">c</text><text xml:space="preserve" font-family="Helvetica-Light,Helvetica" font-size="32.3" fill="#FEFFFF" transform="matrix(1.00, 0.00, -0.00, -1.00, 185.0, 84.2)">t</text><text xml:space="preserve" font-family="Helvetica-Light,Helvetica" font-size="32.3" fill="#FEFFFF" transform="matrix(1.00, 0.00, -0.00, -1.00, 194.0, 84.2)">u</text><text xml:space="preserve" font-family="Helvetica-Light,Helvetica" font-size="32.3" fill="#FEFFFF" transform="matrix(1.00, 0.00, -0.00, -1.00, 211.9, 84.2)">r</text><text xml:space="preserve" font-family="Helvetica-Light,Helvetica" font-size="32.3" fill="#FEFFFF" transform="matrix(1.00, 0.00, -0.00, -1.00, 222.1, 84.2)">e</text><text xml:space="preserve" font-family="Helvetica-Light,Helvetica" font-size="32.3" fill="#FEFFFF" transform="matrix(1.00, 0.00, -0.00, -1.00, 240.1, 84.2)">d</text><text xml:space="preserve" font-family="Helvetica-Light,Helvetica" font-size="32.3" fill="#FEFFFF" transform="matrix(1.00, 0.00, -0.00, -1.00, 259.8, 84.2)"> </text><text xml:space="preserve" font-family="Helvetica-Light,Helvetica" font-size="32.3" fill="#FEFFFF" transform="matrix(1.00, 0.00, -0.00, -1.00, 268.8, 84.2)">D</text><text xml:space="preserve" font-family="Helvetica-Light,Helvetica" font-size="32.3" fill="#FEFFFF" transform="matrix(1.00, 0.00, -0.00, -1.00, 292.1, 84.2)">a</text><text xml:space="preserve" font-family="Helvetica-Light,Helvetica" font-size="32.3" fill="#FEFFFF" transform="matrix(1.00, 0.00, -0.00, -1.00, 310.1, 84.2)">t</text><text xml:space="preserve" font-family="Helvetica-Light,Helvetica" font-size="32.3" fill="#FEFFFF" transform="matrix(1.00, 0.00, -0.00, -1.00, 319.0, 84.2)">a</text><text xml:space="preserve" font-family="Helvetica-Light,Helvetica" font-size="32.3" fill="#FEFFFF" transform="matrix(1.00, 0.00, -0.00, -1.00, 337.0, 84.2)"> </text><text xml:space="preserve" font-family="Helvetica-Light,Helvetica" font-size="32.3" fill="#FEFFFF" transform="matrix(1.00, 0.00, -0.00, -1.00, 346.0, 84.2)">L</text><text xml:space="preserve" font-family="Helvetica-Light,Helvetica" font-size="32.3" fill="#FEFFFF" transform="matrix(1.00, 0.00, -0.00, -1.00, 363.9, 84.2)">i</text><text xml:space="preserve" font-family="Helvetica-Light,Helvetica" font-size="32.3" fill="#FEFFFF" transform="matrix(1.00, 0.00, -0.00, -1.00, 371.1, 84.2)">n</text><text xml:space="preserve" font-family="Helvetica-Light,Helvetica" font-size="32.3" fill="#FEFFFF" transform="matrix(1.00, 0.00, -0.00, -1.00, 389.1, 84.2)">t</text><text xml:space="preserve" font-family="Helvetica-Light,Helvetica" font-size="32.3" fill="#FEFFFF" transform="matrix(1.00, 0.00, -0.00, -1.00, 398.0, 84.2)">e</text><text xml:space="preserve" font-family="Helvetica-Light,Helvetica" font-size="32.3" fill="#FEFFFF" transform="matrix(1.00, 0.00, -0.00, -1.00, 416.0, 84.2)">r</text><g><clipPath id="clip0x7fcd2ada9160"><path d="M 108.6 80.0 L 426.8 80.0 L 426.8 83.6 L 108.6 83.6 Z M 108.6 80.0 "></path></clipPath><g clip-path="url(#clip0x7fcd2ada9160)"><path d="M 34.6 482.2 L 351.8 482.2 " fill="none" stroke="#FEFFFF" stroke-width="1.62" transform="matrix(1.00, 0.00, 0.00, -1.00, 75.0, 564.0)"></path></g></g><text xml:space="preserve" font-family="Helvetica-Light,Helvetica" font-size="18.0" fill="#FEFFFF" transform="matrix(1.00, 0.00, -0.00, -1.00, 501.5, 18.1)">2</text><text xml:space="preserve" font-family="Helvetica-Light,Helvetica" font-size="18.0" fill="#FEFFFF" transform="matrix(1.00, 0.00, -0.00, -1.00, 511.5, 18.1)">1</text></g></svg>