<?xml version="1.0" encoding="UTF-8" standalone="no"?><svg xmlns="http://www.w3.org/2000/svg" xmlns:xlink="http://www.w3.org/1999/xlink" clip-rule="evenodd" stroke-miterlimit="4.00" viewBox="0 0 1024 768"><desc>SVG generated by Keynote</desc><defs></defs><g transform="matrix(1.00, 0.00, -0.00, -1.00, 0.0, 768.0)"><path d="M 0.0 768.0 L 1024.0 768.0 L 1024.0 0.0 L 0.0 0.0 Z M 0.0 768.0 " fill="#FEFFFF"></path><text xml:space="preserve" font-family="Helvetica" font-size="11.0" fill="#000000" transform="matrix(1.00, 0.00, -0.00, -1.00, 107.0, 26.0)">M</text><text xml:space="preserve" font-family="Helvetica" font-size="11.0" fill="#000000" transform="matrix(1.00, 0.00, -0.00, -1.00, 116.2, 26.0)">a</text><text xml:space="preserve" font-family="Helvetica" font-size="11.0" fill="#000000" transform="matrix(1.00, 0.00, -0.00, -1.00, 122.3, 26.0)">y</text><text xml:space="preserve" font-family="Helvetica" font-size="11.0" fill="#000000" transform="matrix(1.00, 0.00, -0.00, -1.00, 127.8, 26.0)"> </text><text xml:space="preserve" font-family="Helvetica" font-size="11.0" fill="#000000" transform="matrix(1.00, 0.00, -0.00, -1.00, 130.8, 26.0)">2</text><text xml:space="preserve" font-family="Helvetica" font-size="11.0" fill="#000000" transform="matrix(1.00, 0.00, -0.00, -1.00, 137.0, 26.0)">0</text><text xml:space="preserve" font-family="Helvetica" font-size="11.0" fill="#000000" transform="matrix(1.00, 0.00, -0.00, -1.00, 143.1, 26.0)">1</text><text xml:space="preserve" font-family="Helvetica" font-size="11.0" fill="#000000" transform="matrix(1.00, 0.00, -0.00, -1.00, 149.2, 26.0)">4</text><text xml:space="preserve" font-family="Helvetica" font-size="11.0" fill="#000000" transform="matrix(1.00, 0.00, -0.00, -1.00, 478.0, 26.0)">S</text><text xml:space="preserve" font-family="Helvetica" font-size="11.0" fill="#000000" transform="matrix(1.00, 0.00, -0.00, -1.00, 485.3, 26.0)">e</text><text xml:space="preserve" font-family="Helvetica" font-size="11.0" fill="#000000" transform="matrix(1.00, 0.00, -0.00, -1.00, 491.5, 26.0)">m</text><text xml:space="preserve" font-family="Helvetica" font-size="11.0" fill="#000000" transform="matrix(1.00, 0.00, -0.00, -1.00, 500.6, 26.0)">i</text><text xml:space="preserve" font-family="Helvetica" font-size="11.0" fill="#000000" transform="matrix(1.00, 0.00, -0.00, -1.00, 503.1, 26.0)">o</text><text xml:space="preserve" font-family="Helvetica" font-size="11.0" fill="#000000" transform="matrix(1.00, 0.00, -0.00, -1.00, 509.2, 26.0)"> </text><text xml:space="preserve" font-family="Helvetica" font-size="11.0" fill="#000000" transform="matrix(1.00, 0.00, -0.00, -1.00, 512.2, 26.0)">R</text><text xml:space="preserve" font-family="Helvetica" font-size="11.0" fill="#000000" transform="matrix(1.00, 0.00, -0.00, -1.00, 520.2, 26.0)">D</text><text xml:space="preserve" font-family="Helvetica" font-size="11.0" fill="#000000" transform="matrix(1.00, 0.00, -0.00, -1.00, 528.1, 26.0)">F</text><text xml:space="preserve" font-family="Helvetica" font-size="11.0" fill="#000000" transform="matrix(1.00, 0.00, -0.00, -1.00, 534.8, 26.0)"> </text><text xml:space="preserve" font-family="Helvetica" font-size="11.0" fill="#000000" transform="matrix(1.00, 0.00, -0.00, -1.00, 537.7, 26.0)">T</text><text xml:space="preserve" font-family="Helvetica" font-size="11.0" fill="#000000" transform="matrix(1.00, 0.00, -0.00, -1.00, 544.0, 26.0)">r</text><text xml:space="preserve" font-family="Helvetica" font-size="11.0" fill="#000000" transform="matrix(1.00, 0.00, -0.00, -1.00, 547.7, 26.0)">a</text><text xml:space="preserve" font-family="Helvetica" font-size="11.0" fill="#000000" transform="matrix(1.00, 0.00, -0.00, -1.00, 553.8, 26.0)">i</text><text xml:space="preserve" font-family="Helvetica" font-size="11.0" fill="#000000" transform="matrix(1.00, 0.00, -0.00, -1.00, 556.3, 26.0)">n</text><text xml:space="preserve" font-family="Helvetica" font-size="11.0" fill="#000000" transform="matrix(1.00, 0.00, -0.00, -1.00, 562.4, 26.0)">i</text><text xml:space="preserve" font-family="Helvetica" font-size="11.0" fill="#000000" transform="matrix(1.00, 0.00, -0.00, -1.00, 564.8, 26.0)">n</text><text xml:space="preserve" font-family="Helvetica" font-size="11.0" fill="#000000" transform="matrix(1.00, 0.00, -0.00, -1.00, 570.9, 26.0)">g</text><text xml:space="preserve" font-family="Helvetica-Light" font-size="80.0" fill="#000000" transform="matrix(1.00, 0.00, -0.00, -1.00, 137.0, 149.0)">R</text><text xml:space="preserve" font-family="Helvetica-Light" font-size="80.0" fill="#000000" transform="matrix(1.00, 0.00, -0.00, -1.00, 190.4, 149.0)">D</text><text xml:space="preserve" font-family="Helvetica-Light" font-size="80.0" fill="#000000" transform="matrix(1.00, 0.00, -0.00, -1.00, 248.1, 149.0)">F</text><text xml:space="preserve" font-family="Helvetica-Light" font-size="80.0" fill="#000000" transform="matrix(1.00, 0.00, -0.00, -1.00, 282.3, 149.0)">.</text><text xml:space="preserve" font-family="Helvetica-Light" font-size="80.0" fill="#000000" transform="matrix(1.00, 0.00, -0.00, -1.00, 304.5, 149.0)">r</text><text xml:space="preserve" font-family="Helvetica-Light" font-size="80.0" fill="#000000" transform="matrix(1.00, 0.00, -0.00, -1.00, 331.2, 149.0)">b</text><text xml:space="preserve" font-family="Helvetica-Light" font-size="80.0" fill="#000000" transform="matrix(1.00, 0.00, -0.00, -1.00, 380.0, 149.0)"> </text><text xml:space="preserve" font-family="Helvetica-Light" font-size="80.0" fill="#000000" transform="matrix(1.00, 0.00, -0.00, -1.00, 402.3, 149.0)">O</text><text xml:space="preserve" font-family="Helvetica-Light" font-size="80.0" fill="#000000" transform="matrix(1.00, 0.00, -0.00, -1.00, 464.5, 149.0)">b</text><text xml:space="preserve" font-family="Helvetica-Light" font-size="80.0" fill="#000000" transform="matrix(1.00, 0.00, -0.00, -1.00, 513.4, 149.0)">j</text><text xml:space="preserve" font-family="Helvetica-Light" font-size="80.0" fill="#000000" transform="matrix(1.00, 0.00, -0.00, -1.00, 531.2, 149.0)">e</text><text xml:space="preserve" font-family="Helvetica-Light" font-size="80.0" fill="#000000" transform="matrix(1.00, 0.00, -0.00, -1.00, 575.6, 149.0)">c</text><text xml:space="preserve" font-family="Helvetica-Light" font-size="80.0" fill="#000000" transform="matrix(1.00, 0.00, -0.00, -1.00, 620.1, 149.0)">t</text><text xml:space="preserve" font-family="Helvetica-Light" font-size="80.0" fill="#000000" transform="matrix(1.00, 0.00, -0.00, -1.00, 642.4, 149.0)"> </text><text xml:space="preserve" font-family="Helvetica-Light" font-size="80.0" fill="#000000" transform="matrix(1.00, 0.00, -0.00, -1.00, 664.6, 149.0)">M</text><text xml:space="preserve" font-family="Helvetica-Light" font-size="80.0" fill="#000000" transform="matrix(1.00, 0.00, -0.00, -1.00, 731.2, 149.0)">o</text><text xml:space="preserve" font-family="Helvetica-Light" font-size="80.0" fill="#000000" transform="matrix(1.00, 0.00, -0.00, -1.00, 775.7, 149.0)">d</text><text xml:space="preserve" font-family="Helvetica-Light" font-size="80.0" fill="#000000" transform="matrix(1.00, 0.00, -0.00, -1.00, 824.6, 149.0)">e</text><text xml:space="preserve" font-family="Helvetica-Light" font-size="80.0" fill="#000000" transform="matrix(1.00, 0.00, -0.00, -1.00, 869.1, 149.0)">l</text><text xml:space="preserve" font-family="Helvetica-Light" font-size="11.0" fill="#000000" transform="matrix(1.00, 0.00, -0.00, -1.00, 929.0, 35.0)">1</text><text xml:space="preserve" font-family="Helvetica-Light" font-size="11.0" fill="#000000" transform="matrix(1.00, 0.00, -0.00, -1.00, 935.1, 35.0)">0</text><image xlink:href="6289A859D271B311BE6DB8FA300ABA30.png" width="634.00" height="264.00" transform="matrix(1.42, 0.00, -0.00, -1.42, 63.0, 658.0)"></image></g></svg>