<?xml version="1.0" encoding="UTF-8" standalone="no"?><svg xmlns="http://www.w3.org/2000/svg" xmlns:xlink="http://www.w3.org/1999/xlink" clip-rule="evenodd" stroke-miterlimit="10" viewBox="0 0 1024 768"><desc>SVG generated by Keynote</desc><defs></defs><g transform="matrix(1.00, 0.00, -0.00, -1.00, 0.0, 768.0)"><path d="M 0.0 768.0 L 1024.0 768.0 L 1024.0 0.0 L 0.0 0.0 Z M 0.0 768.0 " fill="#FEFFFF"></path><text xml:space="preserve" font-family="Helvetica,Helvetica" font-size="12.0" fill="#000000" transform="matrix(1.00, 0.00, -0.00, -1.00, 472.0, 25.8)">H</text><text xml:space="preserve" font-family="Helvetica,Helvetica" font-size="12.0" fill="#000000" transform="matrix(1.00, 0.00, -0.00, -1.00, 480.6, 25.8)">y</text><text xml:space="preserve" font-family="Helvetica,Helvetica" font-size="12.0" fill="#000000" transform="matrix(1.00, 0.00, -0.00, -1.00, 486.6, 25.8)">d</text><text xml:space="preserve" font-family="Helvetica,Helvetica" font-size="12.0" fill="#000000" transform="matrix(1.00, 0.00, -0.00, -1.00, 493.3, 25.8)">r</text><text xml:space="preserve" font-family="Helvetica,Helvetica" font-size="12.0" fill="#000000" transform="matrix(1.00, 0.00, -0.00, -1.00, 497.3, 25.8)">a</text><text xml:space="preserve" font-family="Helvetica,Helvetica" font-size="12.0" fill="#000000" transform="matrix(1.00, 0.00, -0.00, -1.00, 504.0, 25.8)"> </text><text xml:space="preserve" font-family="Helvetica,Helvetica" font-size="12.0" fill="#000000" transform="matrix(1.00, 0.00, -0.00, -1.00, 507.3, 25.8)">C</text><text xml:space="preserve" font-family="Helvetica,Helvetica" font-size="12.0" fill="#000000" transform="matrix(1.00, 0.00, -0.00, -1.00, 516.0, 25.8)">o</text><text xml:space="preserve" font-family="Helvetica,Helvetica" font-size="12.0" fill="#000000" transform="matrix(1.00, 0.00, -0.00, -1.00, 522.7, 25.8)">n</text><text xml:space="preserve" font-family="Helvetica,Helvetica" font-size="12.0" fill="#000000" transform="matrix(1.00, 0.00, -0.00, -1.00, 529.3, 25.8)">n</text><text xml:space="preserve" font-family="Helvetica,Helvetica" font-size="12.0" fill="#000000" transform="matrix(1.00, 0.00, -0.00, -1.00, 536.0, 25.8)">e</text><text xml:space="preserve" font-family="Helvetica,Helvetica" font-size="12.0" fill="#000000" transform="matrix(1.00, 0.00, -0.00, -1.00, 542.7, 25.8)">c</text><text xml:space="preserve" font-family="Helvetica,Helvetica" font-size="12.0" fill="#000000" transform="matrix(1.00, 0.00, -0.00, -1.00, 548.7, 25.8)">t</text><text xml:space="preserve" font-family="Helvetica,Helvetica" font-size="12.0" fill="#000000" transform="matrix(1.00, 0.00, -0.00, -1.00, 107.2, 25.8)">S</text><text xml:space="preserve" font-family="Helvetica,Helvetica" font-size="12.0" fill="#000000" transform="matrix(1.00, 0.00, -0.00, -1.00, 115.2, 25.8)">e</text><text xml:space="preserve" font-family="Helvetica,Helvetica" font-size="12.0" fill="#000000" transform="matrix(1.00, 0.00, -0.00, -1.00, 121.9, 25.8)">p</text><text xml:space="preserve" font-family="Helvetica,Helvetica" font-size="12.0" fill="#000000" transform="matrix(1.00, 0.00, -0.00, -1.00, 128.6, 25.8)">t</text><text xml:space="preserve" font-family="Helvetica,Helvetica" font-size="12.0" fill="#000000" transform="matrix(1.00, 0.00, -0.00, -1.00, 131.9, 25.8)">e</text><text xml:space="preserve" font-family="Helvetica,Helvetica" font-size="12.0" fill="#000000" transform="matrix(1.00, 0.00, -0.00, -1.00, 138.6, 25.8)">m</text><text xml:space="preserve" font-family="Helvetica,Helvetica" font-size="12.0" fill="#000000" transform="matrix(1.00, 0.00, -0.00, -1.00, 148.6, 25.8)">b</text><text xml:space="preserve" font-family="Helvetica,Helvetica" font-size="12.0" fill="#000000" transform="matrix(1.00, 0.00, -0.00, -1.00, 155.2, 25.8)">e</text><text xml:space="preserve" font-family="Helvetica,Helvetica" font-size="12.0" fill="#000000" transform="matrix(1.00, 0.00, -0.00, -1.00, 161.9, 25.8)">r</text><text xml:space="preserve" font-family="Helvetica,Helvetica" font-size="12.0" fill="#000000" transform="matrix(1.00, 0.00, -0.00, -1.00, 165.9, 25.8)"> </text><text xml:space="preserve" font-family="Helvetica,Helvetica" font-size="12.0" fill="#000000" transform="matrix(1.00, 0.00, -0.00, -1.00, 169.2, 25.8)">2</text><text xml:space="preserve" font-family="Helvetica,Helvetica" font-size="12.0" fill="#000000" transform="matrix(1.00, 0.00, -0.00, -1.00, 175.9, 25.8)">0</text><text xml:space="preserve" font-family="Helvetica,Helvetica" font-size="12.0" fill="#000000" transform="matrix(1.00, 0.00, -0.00, -1.00, 182.6, 25.8)">1</text><text xml:space="preserve" font-family="Helvetica,Helvetica" font-size="12.0" fill="#000000" transform="matrix(1.00, 0.00, -0.00, -1.00, 189.3, 25.8)">5</text><text xml:space="preserve" font-family="Helvetica-Light,Helvetica" font-size="50.0" fill="#000000" transform="matrix(1.00, 0.00, -0.00, -1.00, 172.5, 629.5)">S</text><text xml:space="preserve" font-family="Helvetica-Light,Helvetica" font-size="50.0" fill="#000000" transform="matrix(1.00, 0.00, -0.00, -1.00, 203.0, 629.5)">t</text><text xml:space="preserve" font-family="Helvetica-Light,Helvetica" font-size="50.0" fill="#000000" transform="matrix(1.00, 0.00, -0.00, -1.00, 216.9, 629.5)">r</text><text xml:space="preserve" font-family="Helvetica-Light,Helvetica" font-size="50.0" fill="#000000" transform="matrix(1.00, 0.00, -0.00, -1.00, 233.6, 629.5)">u</text><text xml:space="preserve" font-family="Helvetica-Light,Helvetica" font-size="50.0" fill="#000000" transform="matrix(1.00, 0.00, -0.00, -1.00, 261.4, 629.5)">c</text><text xml:space="preserve" font-family="Helvetica-Light,Helvetica" font-size="50.0" fill="#000000" transform="matrix(1.00, 0.00, -0.00, -1.00, 289.2, 629.5)">t</text><text xml:space="preserve" font-family="Helvetica-Light,Helvetica" font-size="50.0" fill="#000000" transform="matrix(1.00, 0.00, -0.00, -1.00, 303.1, 629.5)">u</text><text xml:space="preserve" font-family="Helvetica-Light,Helvetica" font-size="50.0" fill="#000000" transform="matrix(1.00, 0.00, -0.00, -1.00, 330.9, 629.5)">r</text><text xml:space="preserve" font-family="Helvetica-Light,Helvetica" font-size="50.0" fill="#000000" transform="matrix(1.00, 0.00, -0.00, -1.00, 346.6, 629.5)">e</text><text xml:space="preserve" font-family="Helvetica-Light,Helvetica" font-size="50.0" fill="#000000" transform="matrix(1.00, 0.00, -0.00, -1.00, 374.4, 629.5)"> </text><text xml:space="preserve" font-family="Helvetica-Light,Helvetica" font-size="50.0" fill="#000000" transform="matrix(1.00, 0.00, -0.00, -1.00, 388.3, 629.5)">o</text><text xml:space="preserve" font-family="Helvetica-Light,Helvetica" font-size="50.0" fill="#000000" transform="matrix(1.00, 0.00, -0.00, -1.00, 416.1, 629.5)">f</text><text xml:space="preserve" font-family="Helvetica-Light,Helvetica" font-size="50.0" fill="#000000" transform="matrix(1.00, 0.00, -0.00, -1.00, 430.0, 629.5)"> </text><text xml:space="preserve" font-family="Helvetica-Light,Helvetica" font-size="50.0" fill="#000000" transform="matrix(1.00, 0.00, -0.00, -1.00, 443.9, 629.5)">t</text><text xml:space="preserve" font-family="Helvetica-Light,Helvetica" font-size="50.0" fill="#000000" transform="matrix(1.00, 0.00, -0.00, -1.00, 457.8, 629.5)">h</text><text xml:space="preserve" font-family="Helvetica-Light,Helvetica" font-size="50.0" fill="#000000" transform="matrix(1.00, 0.00, -0.00, -1.00, 485.6, 629.5)">e</text><text xml:space="preserve" font-family="Helvetica-Light,Helvetica" font-size="50.0" fill="#000000" transform="matrix(1.00, 0.00, -0.00, -1.00, 513.4, 629.5)"> </text><text xml:space="preserve" font-family="Helvetica-Light,Helvetica" font-size="50.0" fill="#000000" transform="matrix(1.00, 0.00, -0.00, -1.00, 527.3, 629.5)">S</text><text xml:space="preserve" font-family="Helvetica-Light,Helvetica" font-size="50.0" fill="#000000" transform="matrix(1.00, 0.00, -0.00, -1.00, 557.9, 629.5)">e</text><text xml:space="preserve" font-family="Helvetica-Light,Helvetica" font-size="50.0" fill="#000000" transform="matrix(1.00, 0.00, -0.00, -1.00, 585.7, 629.5)">m</text><text xml:space="preserve" font-family="Helvetica-Light,Helvetica" font-size="50.0" fill="#000000" transform="matrix(1.00, 0.00, -0.00, -1.00, 627.3, 629.5)">a</text><text xml:space="preserve" font-family="Helvetica-Light,Helvetica" font-size="50.0" fill="#000000" transform="matrix(1.00, 0.00, -0.00, -1.00, 655.1, 629.5)">n</text><text xml:space="preserve" font-family="Helvetica-Light,Helvetica" font-size="50.0" fill="#000000" transform="matrix(1.00, 0.00, -0.00, -1.00, 682.9, 629.5)">t</text><text xml:space="preserve" font-family="Helvetica-Light,Helvetica" font-size="50.0" fill="#000000" transform="matrix(1.00, 0.00, -0.00, -1.00, 696.8, 629.5)">i</text><text xml:space="preserve" font-family="Helvetica-Light,Helvetica" font-size="50.0" fill="#000000" transform="matrix(1.00, 0.00, -0.00, -1.00, 707.9, 629.5)">c</text><text xml:space="preserve" font-family="Helvetica-Light,Helvetica" font-size="50.0" fill="#000000" transform="matrix(1.00, 0.00, -0.00, -1.00, 735.7, 629.5)"> </text><text xml:space="preserve" font-family="Helvetica-Light,Helvetica" font-size="50.0" fill="#000000" transform="matrix(1.00, 0.00, -0.00, -1.00, 749.6, 629.5)">W</text><text xml:space="preserve" font-family="Helvetica-Light,Helvetica" font-size="50.0" fill="#000000" transform="matrix(1.00, 0.00, -0.00, -1.00, 793.2, 629.5)">e</text><text xml:space="preserve" font-family="Helvetica-Light,Helvetica" font-size="50.0" fill="#000000" transform="matrix(1.00, 0.00, -0.00, -1.00, 821.0, 629.5)">b</text><text xml:space="preserve" font-family="Helvetica-Light,Helvetica" font-size="12.0" fill="#000000" transform="matrix(1.00, 0.00, -0.00, -1.00, 928.8, 34.3)">1</text><text xml:space="preserve" font-family="Helvetica-Light,Helvetica" font-size="12.0" fill="#000000" transform="matrix(1.00, 0.00, -0.00, -1.00, 935.5, 34.3)">2</text><g><clipPath id="clip0x7fcd292ba1a0"><path d="M 113.0 91.0 L 902.0 91.0 L 902.0 464.0 L 113.0 464.0 Z M 113.0 91.0 "></path></clipPath><g clip-path="url(#clip0x7fcd292ba1a0)"><path d="M 113.0 91.0 L 902.0 91.0 L 902.0 464.0 L 113.0 464.0 Z M 113.0 91.0 " fill="#FEFFFF" fill-opacity="0.00"></path></g></g><g><clipPath id="clip0x7fcd292bb4d0"><path d="M 113.0 91.0 L 902.0 91.0 L 902.0 464.0 L 113.0 464.0 Z M 119.9 158.4 L 499.3 158.4 L 499.3 100.6 L 119.9 100.6 Z M 119.9 158.4 "></path></clipPath><g clip-path="url(#clip0x7fcd292bb4d0)"><g><clipPath id="clip0x7fcd292bbcf0"><path d="M 113.0 91.0 L 902.0 91.0 L 902.0 464.0 L 113.0 464.0 Z M 113.0 91.0 "></path></clipPath><g clip-path="url(#clip0x7fcd292bbcf0)"><image xlink:href="../../39B359E7-9D31-40E6-8500-DF24FC4B4C0B/assets/A1F21CA9D35E9154DE5381E76F74AE66.png" width="286.00" height="53.00" transform="matrix(1.37, 0.00, -0.00, -1.38, 113.0, 163.9)"></image><image xlink:href="../../39B359E7-9D31-40E6-8500-DF24FC4B4C0B/assets/7163CEDB21BB3AF38CF87EC294D9FFB7.png" width="71.00" height="33.00" transform="matrix(1.37, 0.00, -0.00, -1.38, 260.1, 148.8)"></image></g></g></g></g><g><clipPath id="clip0x7fcd19ef8750"><path d="M 113.0 91.0 L 902.0 91.0 L 902.0 464.0 L 113.0 464.0 Z M 113.0 91.0 "></path></clipPath><g clip-path="url(#clip0x7fcd19ef8750)"><path d="M 119.9 158.4 L 499.3 158.4 L 499.3 100.6 L 119.9 100.6 Z M 119.9 158.4 " fill="#323232"></path><path d="M 838200.0 4953000.0 L 4343400.0 4953000.0 L 4343400.0 5486400.0 L 838200.0 5486400.0 Z M 838200.0 4953000.0 " fill="none" stroke="#5A91C7" stroke-width="12700.00" stroke-linejoin="round" transform="matrix(0.00, 0.00, 0.00, -0.00, 29.2, 695.2)"></path><text xml:space="preserve" font-family="Calibri,Calibri" font-size="18.0" fill="#FFFFFF" transform="matrix(1.37, 0.00, -0.00, -1.38, 268.3, 119.6)">U</text><text xml:space="preserve" font-family="Calibri,Calibri" font-size="18.0" fill="#FFFFFF" transform="matrix(1.37, 0.00, -0.00, -1.38, 284.1, 119.6)">n</text><text xml:space="preserve" font-family="Calibri,Calibri" font-size="18.0" fill="#FFFFFF" transform="matrix(1.37, 0.00, -0.00, -1.38, 297.1, 119.6)">i</text><text xml:space="preserve" font-family="Calibri,Calibri" font-size="18.0" fill="#FFFFFF" transform="matrix(1.37, 0.00, -0.00, -1.38, 302.8, 119.6)">c</text><text xml:space="preserve" font-family="Calibri,Calibri" font-size="18.0" fill="#FFFFFF" transform="matrix(1.37, 0.00, -0.00, -1.38, 313.1, 119.6)">o</text><text xml:space="preserve" font-family="Calibri,Calibri" font-size="18.0" fill="#FFFFFF" transform="matrix(1.37, 0.00, -0.00, -1.38, 326.1, 119.6)">d</text><text xml:space="preserve" font-family="Calibri,Calibri" font-size="18.0" fill="#FFFFFF" transform="matrix(1.37, 0.00, -0.00, -1.38, 339.2, 119.6)">e</text><text xml:space="preserve" font-family="Calibri,Calibri" font-size="18.0" fill="#FFFFFF" transform="matrix(1.37, 0.00, -0.00, -1.38, 351.5, 119.6)">(</text></g></g><g><clipPath id="clip0x7fcd26d366e0"><path d="M 113.0 91.0 L 902.0 91.0 L 902.0 464.0 L 113.0 464.0 Z M 499.3 158.4 L 895.1 158.4 L 895.1 100.6 L 499.3 100.6 Z M 499.3 158.4 "></path></clipPath><g clip-path="url(#clip0x7fcd26d366e0)"><g><clipPath id="clip0x7fcd26d36fa0"><path d="M 113.0 91.0 L 902.0 91.0 L 902.0 464.0 L 113.0 464.0 Z M 113.0 91.0 "></path></clipPath><g clip-path="url(#clip0x7fcd26d36fa0)"><image xlink:href="../../39B359E7-9D31-40E6-8500-DF24FC4B4C0B/assets/C9B5A880A717DCC5E88614F1D8601951.png" width="298.00" height="53.00" transform="matrix(1.37, 0.00, -0.00, -1.38, 492.4, 163.9)"></image><image xlink:href="../../39B359E7-9D31-40E6-8500-DF24FC4B4C0B/assets/B9D6F9E1AAA5A485533C9EA830859CDC.png" width="35.00" height="33.00" transform="matrix(1.37, 0.00, -0.00, -1.38, 672.4, 148.8)"></image></g></g></g></g><g><clipPath id="clip0x7fcd0f481bb0"><path d="M 113.0 91.0 L 902.0 91.0 L 902.0 464.0 L 113.0 464.0 Z M 113.0 91.0 "></path></clipPath><g clip-path="url(#clip0x7fcd0f481bb0)"><path d="M 499.3 158.4 L 895.1 158.4 L 895.1 100.6 L 499.3 100.6 Z M 499.3 158.4 " fill="#000000"></path><path d="M 4343400.0 4953000.0 L 8001000.0 4953000.0 L 8001000.0 5486400.0 L 4343400.0 5486400.0 Z M 4343400.0 4953000.0 " fill="none" stroke="#5A91C7" stroke-width="12700.00" stroke-linejoin="round" transform="matrix(0.00, 0.00, 0.00, -0.00, 29.2, 695.2)"></path><text xml:space="preserve" font-family="Calibri,Calibri" font-size="18.0" fill="#FFFFFF" transform="matrix(1.37, 0.00, -0.00, -1.38, 679.7, 119.6)">U</text><text xml:space="preserve" font-family="Calibri,Calibri" font-size="18.0" fill="#FFFFFF" transform="matrix(1.37, 0.00, -0.00, -1.38, 695.6, 119.6)">R</text><text xml:space="preserve" font-family="Calibri,Calibri" font-size="18.0" fill="#FFFFFF" transform="matrix(1.37, 0.00, -0.00, -1.38, 709.0, 119.6)">I</text><text xml:space="preserve" font-family="Calibri,Calibri" font-size="18.0" fill="#FFFFFF" transform="matrix(1.37, 0.00, -0.00, -1.38, 715.2, 119.6)">(</text></g></g><g><clipPath id="clip0x7fcd0f4e4260"><path d="M 113.0 91.0 L 902.0 91.0 L 902.0 464.0 L 113.0 464.0 Z M 119.9 208.0 L 895.1 208.0 L 895.1 158.4 L 119.9 158.4 Z M 119.9 208.0 "></path></clipPath><g clip-path="url(#clip0x7fcd0f4e4260)"><g><clipPath id="clip0x7fcd0f4e4a30"><path d="M 113.0 91.0 L 902.0 91.0 L 902.0 464.0 L 113.0 464.0 Z M 113.0 91.0 "></path></clipPath><g clip-path="url(#clip0x7fcd0f4e4a30)"><image xlink:href="../../39B359E7-9D31-40E6-8500-DF24FC4B4C0B/assets/13FA8E2B5097A8BCDA190929323080A0.png" width="574.00" height="47.00" transform="matrix(1.37, 0.00, -0.00, -1.38, 113.0, 213.5)"></image><image xlink:href="../../39B359E7-9D31-40E6-8500-DF24FC4B4C0B/assets/277B0295ED777C1C9907E6625075B857.png" width="179.00" height="33.00" transform="matrix(1.37, 0.00, -0.00, -1.38, 383.8, 202.5)"></image></g></g></g></g><g><clipPath id="clip0x7fcd10ee27d0"><path d="M 113.0 91.0 L 902.0 91.0 L 902.0 464.0 L 113.0 464.0 Z M 113.0 91.0 "></path></clipPath><g clip-path="url(#clip0x7fcd10ee27d0)"><path d="M 119.9 208.0 L 895.1 208.0 L 895.1 158.4 L 119.9 158.4 Z M 119.9 208.0 " fill="#FF2600"></path><path d="M 838200.0 4495800.0 L 8001000.0 4495800.0 L 8001000.0 4953000.0 L 838200.0 4953000.0 Z M 838200.0 4495800.0 " fill="none" stroke="#5A91C7" stroke-width="12700.00" stroke-linejoin="round" transform="matrix(0.00, 0.00, 0.00, -0.00, 29.2, 695.2)"></path><text xml:space="preserve" font-family="Calibri,Calibri" font-size="18.0" fill="#FFFFFF" transform="matrix(1.37, 0.00, -0.00, -1.38, 391.8, 173.3)">X</text><text xml:space="preserve" font-family="Calibri,Calibri" font-size="18.0" fill="#FFFFFF" transform="matrix(1.37, 0.00, -0.00, -1.38, 404.6, 173.3)">M</text><text xml:space="preserve" font-family="Calibri,Calibri" font-size="18.0" fill="#FFFFFF" transform="matrix(1.37, 0.00, -0.00, -1.38, 425.8, 173.3)">L</text><text xml:space="preserve" font-family="Calibri,Calibri" font-size="18.0" fill="#FFFFFF" transform="matrix(1.37, 0.00, -0.00, -1.38, 436.2, 173.3)">(</text><text xml:space="preserve" font-family="Calibri,Calibri" font-size="18.0" fill="#FFFFFF" transform="matrix(1.37, 0.00, -0.00, -1.38, 443.7, 173.3)">+</text><text xml:space="preserve" font-family="Calibri,Calibri" font-size="18.0" fill="#FFFFFF" transform="matrix(1.37, 0.00, -0.00, -1.38, 456.0, 173.3)">(</text><text xml:space="preserve" font-family="Calibri,Calibri" font-size="18.0" fill="#FFFFFF" transform="matrix(1.37, 0.00, -0.00, -1.38, 463.5, 173.3)">N</text><text xml:space="preserve" font-family="Calibri,Calibri" font-size="18.0" fill="#FFFFFF" transform="matrix(1.37, 0.00, -0.00, -1.38, 479.5, 173.3)">S</text><text xml:space="preserve" font-family="Calibri,Calibri" font-size="18.0" fill="#FFFFFF" transform="matrix(1.37, 0.00, -0.00, -1.38, 490.9, 173.3)">(</text><text xml:space="preserve" font-family="Calibri,Calibri" font-size="18.0" fill="#FFFFFF" transform="matrix(1.37, 0.00, -0.00, -1.38, 498.4, 173.3)">+</text><text xml:space="preserve" font-family="Calibri,Calibri" font-size="18.0" fill="#FFFFFF" transform="matrix(1.37, 0.00, -0.00, -1.38, 510.7, 173.3)">(</text><text xml:space="preserve" font-family="Calibri,Calibri" font-size="18.0" fill="#FFFFFF" transform="matrix(1.37, 0.00, -0.00, -1.38, 510.5, 173.3)">x</text><text xml:space="preserve" font-family="Calibri,Calibri" font-size="18.0" fill="#FFFFFF" transform="matrix(1.37, 0.00, -0.00, -1.38, 521.3, 173.3)">m</text><text xml:space="preserve" font-family="Calibri,Calibri" font-size="18.0" fill="#FFFFFF" transform="matrix(1.37, 0.00, -0.00, -1.38, 541.0, 173.3)">l</text><text xml:space="preserve" font-family="Calibri,Calibri" font-size="18.0" fill="#FFFFFF" transform="matrix(1.37, 0.00, -0.00, -1.38, 546.7, 173.3)">s</text><text xml:space="preserve" font-family="Calibri,Calibri" font-size="18.0" fill="#FFFFFF" transform="matrix(1.37, 0.00, -0.00, -1.38, 556.4, 173.3)">c</text><text xml:space="preserve" font-family="Calibri,Calibri" font-size="18.0" fill="#FFFFFF" transform="matrix(1.37, 0.00, -0.00, -1.38, 566.9, 173.3)">h</text><text xml:space="preserve" font-family="Calibri,Calibri" font-size="18.0" fill="#FFFFFF" transform="matrix(1.37, 0.00, -0.00, -1.38, 579.9, 173.3)">e</text><text xml:space="preserve" font-family="Calibri,Calibri" font-size="18.0" fill="#FFFFFF" transform="matrix(1.37, 0.00, -0.00, -1.38, 592.1, 173.3)">m</text><text xml:space="preserve" font-family="Calibri,Calibri" font-size="18.0" fill="#FFFFFF" transform="matrix(1.37, 0.00, -0.00, -1.38, 611.9, 173.3)">a</text><text xml:space="preserve" font-family="Calibri,Calibri" font-size="18.0" fill="#FFFFFF" transform="matrix(1.37, 0.00, -0.00, -1.38, 623.8, 173.3)">(</text></g></g><g><clipPath id="clip0x7fcd10ef60c0"><path d="M 113.0 91.0 L 902.0 91.0 L 902.0 464.0 L 113.0 464.0 Z M 243.6 258.7 L 763.2 258.7 L 763.2 209.2 L 243.6 209.2 Z M 243.6 258.7 "></path></clipPath><g clip-path="url(#clip0x7fcd10ef60c0)"><g><clipPath id="clip0x7fcd10ef68c0"><path d="M 113.0 91.0 L 902.0 91.0 L 902.0 464.0 L 113.0 464.0 Z M 113.0 91.0 "></path></clipPath><g clip-path="url(#clip0x7fcd10ef68c0)"><image xlink:href="../../39B359E7-9D31-40E6-8500-DF24FC4B4C0B/assets/E490C4E5542B906792852B216AF2673D.png" width="388.00" height="47.00" transform="matrix(1.37, 0.00, -0.00, -1.38, 236.7, 264.4)"></image><image xlink:href="../../39B359E7-9D31-40E6-8500-DF24FC4B4C0B/assets/727F220F36661FCE69EB31443242EE86.png" width="147.00" height="33.00" transform="matrix(1.37, 0.00, -0.00, -1.38, 401.7, 253.4)"></image></g></g></g></g><g><clipPath id="clip0x7fcd10ef8df0"><path d="M 113.0 91.0 L 902.0 91.0 L 902.0 464.0 L 113.0 464.0 Z M 113.0 91.0 "></path></clipPath><g clip-path="url(#clip0x7fcd10ef8df0)"><path d="M 243.6 258.7 L 763.2 258.7 L 763.2 209.2 L 243.6 209.2 Z M 243.6 258.7 " fill="#FF7C00"></path><path d="M 1981200.0 4027536.0 L 6781800.0 4027536.0 L 6781800.0 4484736.0 L 1981200.0 4484736.0 Z M 1981200.0 4027536.0 " fill="none" stroke="#5A91C7" stroke-width="12700.00" stroke-linejoin="round" transform="matrix(0.00, 0.00, 0.00, -0.00, 29.2, 695.2)"></path><text xml:space="preserve" font-family="Calibri,Calibri" font-size="18.0" fill="#FFFFFF" transform="matrix(1.37, 0.00, -0.00, -1.38, 409.7, 224.1)">R</text><text xml:space="preserve" font-family="Calibri,Calibri" font-size="18.0" fill="#FFFFFF" transform="matrix(1.37, 0.00, -0.00, -1.38, 423.1, 224.1)">D</text><text xml:space="preserve" font-family="Calibri,Calibri" font-size="18.0" fill="#FFFFFF" transform="matrix(1.37, 0.00, -0.00, -1.38, 438.4, 224.1)">F</text><text xml:space="preserve" font-family="Calibri,Calibri" font-size="18.0" fill="#FFFFFF" transform="matrix(1.37, 0.00, -0.00, -1.38, 449.7, 224.1)">(</text><text xml:space="preserve" font-family="Calibri,Calibri" font-size="18.0" fill="#FFFFFF" transform="matrix(1.37, 0.00, -0.00, -1.38, 457.2, 224.1)">+</text><text xml:space="preserve" font-family="Calibri,Calibri" font-size="18.0" fill="#FFFFFF" transform="matrix(1.37, 0.00, -0.00, -1.38, 469.6, 224.1)">(</text><text xml:space="preserve" font-family="Calibri,Calibri" font-size="18.0" fill="#FFFFFF" transform="matrix(1.37, 0.00, -0.00, -1.38, 477.1, 224.1)">R</text><text xml:space="preserve" font-family="Calibri,Calibri" font-size="18.0" fill="#FFFFFF" transform="matrix(1.37, 0.00, -0.00, -1.38, 490.5, 224.1)">D</text><text xml:space="preserve" font-family="Calibri,Calibri" font-size="18.0" fill="#FFFFFF" transform="matrix(1.37, 0.00, -0.00, -1.38, 505.7, 224.1)">F</text><text xml:space="preserve" font-family="Calibri,Calibri" font-size="18.0" fill="#FFFFFF" transform="matrix(1.37, 0.00, -0.00, -1.38, 517.1, 224.1)">(</text><text xml:space="preserve" font-family="Calibri,Calibri" font-size="18.0" fill="#FFFFFF" transform="matrix(1.37, 0.00, -0.00, -1.38, 524.6, 224.1)">S</text><text xml:space="preserve" font-family="Calibri,Calibri" font-size="18.0" fill="#FFFFFF" transform="matrix(1.37, 0.00, -0.00, -1.38, 536.0, 224.1)">c</text><text xml:space="preserve" font-family="Calibri,Calibri" font-size="18.0" fill="#FFFFFF" transform="matrix(1.37, 0.00, -0.00, -1.38, 546.5, 224.1)">h</text><text xml:space="preserve" font-family="Calibri,Calibri" font-size="18.0" fill="#FFFFFF" transform="matrix(1.37, 0.00, -0.00, -1.38, 559.5, 224.1)">e</text><text xml:space="preserve" font-family="Calibri,Calibri" font-size="18.0" fill="#FFFFFF" transform="matrix(1.37, 0.00, -0.00, -1.38, 571.8, 224.1)">m</text><text xml:space="preserve" font-family="Calibri,Calibri" font-size="18.0" fill="#FFFFFF" transform="matrix(1.37, 0.00, -0.00, -1.38, 591.5, 224.1)">a</text><text xml:space="preserve" font-family="Calibri,Calibri" font-size="18.0" fill="#FFFFFF" transform="matrix(1.37, 0.00, -0.00, -1.38, 603.4, 224.1)">(</text></g></g><g><clipPath id="clip0x7fcd10ea1ac0"><path d="M 113.0 91.0 L 902.0 91.0 L 902.0 464.0 L 113.0 464.0 Z M 763.2 409.7 L 895.1 409.7 L 895.1 209.2 L 763.2 209.2 Z M 763.2 409.7 "></path></clipPath><g clip-path="url(#clip0x7fcd10ea1ac0)"><g><clipPath id="clip0x7fcd10ea2580"><path d="M 113.0 91.0 L 902.0 91.0 L 902.0 464.0 L 113.0 464.0 Z M 113.0 91.0 "></path></clipPath><g clip-path="url(#clip0x7fcd10ea2580)"><image xlink:href="../../39B359E7-9D31-40E6-8500-DF24FC4B4C0B/assets/0BB45C1D715CAFCCC415803F723F7DA7.png" width="106.00" height="156.00" transform="matrix(1.37, 0.00, -0.00, -1.38, 756.3, 414.5)"></image><image xlink:href="../../39B359E7-9D31-40E6-8500-DF24FC4B4C0B/assets/E0397EDCE043FE16BD4CAD0C4AFF0E32.png" width="79.00" height="55.00" transform="matrix(1.37, 0.00, -0.00, -1.38, 774.2, 344.3)"></image></g></g></g></g><g><clipPath id="clip0x7fcd22f4d910"><path d="M 113.0 91.0 L 902.0 91.0 L 902.0 464.0 L 113.0 464.0 Z M 113.0 91.0 "></path></clipPath><g clip-path="url(#clip0x7fcd22f4d910)"><path d="M 763.2 409.7 L 895.1 409.7 L 895.1 209.2 L 763.2 209.2 Z M 763.2 409.7 " fill="#FEFCA9"></path><path d="M 6781800.0 2634224.0 L 8001000.0 2634224.0 L 8001000.0 4484736.0 L 6781800.0 4484736.0 Z M 6781800.0 2634224.0 " fill="none" stroke="#5A91C7" stroke-width="12700.00" stroke-linejoin="round" transform="matrix(0.00, 0.00, 0.00, -0.00, 29.2, 695.2)"></path><text xml:space="preserve" font-family="Calibri,Calibri" font-size="18.0" fill="#000000" transform="matrix(1.37, 0.00, -0.00, -1.38, 797.6, 314.4)">D</text><text xml:space="preserve" font-family="Calibri,Calibri" font-size="18.0" fill="#000000" transform="matrix(1.37, 0.00, -0.00, -1.38, 812.8, 314.4)">i</text><text xml:space="preserve" font-family="Calibri,Calibri" font-size="18.0" fill="#000000" transform="matrix(1.37, 0.00, -0.00, -1.38, 818.5, 314.4)">g</text><text xml:space="preserve" font-family="Calibri,Calibri" font-size="18.0" fill="#000000" transform="matrix(1.37, 0.00, -0.00, -1.38, 830.1, 314.4)">i</text><text xml:space="preserve" font-family="Calibri,Calibri" font-size="18.0" fill="#000000" transform="matrix(1.37, 0.00, -0.00, -1.38, 835.8, 314.4)">t</text><text xml:space="preserve" font-family="Calibri,Calibri" font-size="18.0" fill="#000000" transform="matrix(1.37, 0.00, -0.00, -1.38, 843.8, 314.4)">a</text><text xml:space="preserve" font-family="Calibri,Calibri" font-size="18.0" fill="#000000" transform="matrix(1.37, 0.00, -0.00, -1.38, 855.6, 314.4)">l</text><text xml:space="preserve" font-family="Calibri,Calibri" font-size="18.0" fill="#000000" transform="matrix(1.37, 0.00, -0.00, -1.38, 861.3, 314.4)">(</text><text xml:space="preserve" font-family="Calibri,Calibri" font-size="18.0" fill="#000000" transform="matrix(1.37, 0.00, -0.00, -1.38, 781.8, 284.1)">S</text><text xml:space="preserve" font-family="Calibri,Calibri" font-size="18.0" fill="#000000" transform="matrix(1.37, 0.00, -0.00, -1.38, 793.2, 284.1)">i</text><text xml:space="preserve" font-family="Calibri,Calibri" font-size="18.0" fill="#000000" transform="matrix(1.37, 0.00, -0.00, -1.38, 798.9, 284.1)">g</text><text xml:space="preserve" font-family="Calibri,Calibri" font-size="18.0" fill="#000000" transform="matrix(1.37, 0.00, -0.00, -1.38, 810.5, 284.1)">n</text><text xml:space="preserve" font-family="Calibri,Calibri" font-size="18.0" fill="#000000" transform="matrix(1.37, 0.00, -0.00, -1.38, 823.5, 284.1)">a</text><text xml:space="preserve" font-family="Calibri,Calibri" font-size="18.0" fill="#000000" transform="matrix(1.37, 0.00, -0.00, -1.38, 835.2, 284.1)">t</text><text xml:space="preserve" font-family="Calibri,Calibri" font-size="18.0" fill="#000000" transform="matrix(1.37, 0.00, -0.00, -1.38, 843.4, 284.1)">u</text><text xml:space="preserve" font-family="Calibri,Calibri" font-size="18.0" fill="#000000" transform="matrix(1.37, 0.00, -0.00, -1.38, 856.5, 284.1)">r</text><text xml:space="preserve" font-family="Calibri,Calibri" font-size="18.0" fill="#000000" transform="matrix(1.37, 0.00, -0.00, -1.38, 864.7, 284.1)">e</text><text xml:space="preserve" font-family="Calibri,Calibri" font-size="18.0" fill="#000000" transform="matrix(1.37, 0.00, -0.00, -1.38, 877.0, 284.1)">(</text></g></g><g><clipPath id="clip0x7fccfd1e7c10"><path d="M 113.0 91.0 L 902.0 91.0 L 902.0 464.0 L 113.0 464.0 Z M 350.8 310.6 L 763.2 310.6 L 763.2 261.1 L 350.8 261.1 Z M 350.8 310.6 "></path></clipPath><g clip-path="url(#clip0x7fccfd1e7c10)"><g><clipPath id="clip0x7fccfd1e86e0"><path d="M 113.0 91.0 L 902.0 91.0 L 902.0 464.0 L 113.0 464.0 Z M 113.0 91.0 "></path></clipPath><g clip-path="url(#clip0x7fccfd1e86e0)"><image xlink:href="../../39B359E7-9D31-40E6-8500-DF24FC4B4C0B/assets/618BA9CE69D3E6DFA03C4E4CF974F418.png" width="310.00" height="47.00" transform="matrix(1.37, 0.00, -0.00, -1.38, 343.9, 315.4)"></image><image xlink:href="../../39B359E7-9D31-40E6-8500-DF24FC4B4C0B/assets/8675AABF65B2C6B43FB0850228EF606F.png" width="211.00" height="33.00" transform="matrix(1.37, 0.00, -0.00, -1.38, 411.3, 305.7)"></image></g></g></g></g><g><clipPath id="clip0x7fccfd1eac90"><path d="M 113.0 91.0 L 902.0 91.0 L 902.0 464.0 L 113.0 464.0 Z M 113.0 91.0 "></path></clipPath><g clip-path="url(#clip0x7fccfd1eac90)"><path d="M 350.8 310.6 L 763.2 310.6 L 763.2 261.1 L 350.8 261.1 Z M 350.8 310.6 " fill="#FEFB00"></path><path d="M 2971800.0 3548624.0 L 6781800.0 3548624.0 L 6781800.0 4005824.0 L 2971800.0 4005824.0 Z M 2971800.0 3548624.0 " fill="none" stroke="#5A91C7" stroke-width="12700.00" stroke-linejoin="round" transform="matrix(0.00, 0.00, 0.00, -0.00, 29.2, 695.2)"></path><text xml:space="preserve" font-family="Calibri,Calibri" font-size="18.0" fill="#000000" transform="matrix(1.37, 0.00, -0.00, -1.38, 419.2, 276.0)">O</text><text xml:space="preserve" font-family="Calibri,Calibri" font-size="18.0" fill="#000000" transform="matrix(1.37, 0.00, -0.00, -1.38, 435.6, 276.0)">n</text><text xml:space="preserve" font-family="Calibri,Calibri" font-size="18.0" fill="#000000" transform="matrix(1.37, 0.00, -0.00, -1.38, 448.4, 276.0)">t</text><text xml:space="preserve" font-family="Calibri,Calibri" font-size="18.0" fill="#000000" transform="matrix(1.37, 0.00, -0.00, -1.38, 456.4, 276.0)">o</text><text xml:space="preserve" font-family="Calibri,Calibri" font-size="18.0" fill="#000000" transform="matrix(1.37, 0.00, -0.00, -1.38, 469.5, 276.0)">l</text><text xml:space="preserve" font-family="Calibri,Calibri" font-size="18.0" fill="#000000" transform="matrix(1.37, 0.00, -0.00, -1.38, 475.2, 276.0)">o</text><text xml:space="preserve" font-family="Calibri,Calibri" font-size="18.0" fill="#000000" transform="matrix(1.37, 0.00, -0.00, -1.38, 488.2, 276.0)">g</text><text xml:space="preserve" font-family="Calibri,Calibri" font-size="18.0" fill="#000000" transform="matrix(1.37, 0.00, -0.00, -1.38, 499.9, 276.0)">y</text><text xml:space="preserve" font-family="Calibri,Calibri" font-size="18.0" fill="#000000" transform="matrix(1.37, 0.00, -0.00, -1.38, 511.0, 276.0)">(</text><text xml:space="preserve" font-family="Calibri,Calibri" font-size="18.0" fill="#000000" transform="matrix(1.37, 0.00, -0.00, -1.38, 518.5, 276.0)">v</text><text xml:space="preserve" font-family="Calibri,Calibri" font-size="18.0" fill="#000000" transform="matrix(1.37, 0.00, -0.00, -1.38, 529.5, 276.0)">o</text><text xml:space="preserve" font-family="Calibri,Calibri" font-size="18.0" fill="#000000" transform="matrix(1.37, 0.00, -0.00, -1.38, 542.5, 276.0)">c</text><text xml:space="preserve" font-family="Calibri,Calibri" font-size="18.0" fill="#000000" transform="matrix(1.37, 0.00, -0.00, -1.38, 552.8, 276.0)">a</text><text xml:space="preserve" font-family="Calibri,Calibri" font-size="18.0" fill="#000000" transform="matrix(1.37, 0.00, -0.00, -1.38, 564.6, 276.0)">b</text><text xml:space="preserve" font-family="Calibri,Calibri" font-size="18.0" fill="#000000" transform="matrix(1.37, 0.00, -0.00, -1.38, 577.7, 276.0)">u</text><text xml:space="preserve" font-family="Calibri,Calibri" font-size="18.0" fill="#000000" transform="matrix(1.37, 0.00, -0.00, -1.38, 590.7, 276.0)">l</text><text xml:space="preserve" font-family="Calibri,Calibri" font-size="18.0" fill="#000000" transform="matrix(1.37, 0.00, -0.00, -1.38, 596.4, 276.0)">a</text><text xml:space="preserve" font-family="Calibri,Calibri" font-size="18.0" fill="#000000" transform="matrix(1.37, 0.00, -0.00, -1.38, 608.2, 276.0)">r</text><text xml:space="preserve" font-family="Calibri,Calibri" font-size="18.0" fill="#000000" transform="matrix(1.37, 0.00, -0.00, -1.38, 616.9, 276.0)">y</text><text xml:space="preserve" font-family="Calibri,Calibri" font-size="18.0" fill="#000000" transform="matrix(1.37, 0.00, -0.00, -1.38, 628.1, 276.0)">(</text><text xml:space="preserve" font-family="Calibri,Calibri" font-size="18.0" fill="#000000" transform="matrix(1.37, 0.00, -0.00, -1.38, 635.6, 276.0)">(</text><text xml:space="preserve" font-family="Calibri,Calibri" font-size="18.0" fill="#000000" transform="matrix(1.37, 0.00, -0.00, -1.38, 643.1, 276.0)">O</text><text xml:space="preserve" font-family="Calibri,Calibri" font-size="18.0" fill="#000000" transform="matrix(1.37, 0.00, -0.00, -1.38, 659.3, 276.0)">W</text><text xml:space="preserve" font-family="Calibri,Calibri" font-size="18.0" fill="#000000" transform="matrix(1.37, 0.00, -0.00, -1.38, 681.3, 276.0)">L</text><text xml:space="preserve" font-family="Calibri,Calibri" font-size="18.0" fill="#000000" transform="matrix(1.37, 0.00, -0.00, -1.38, 691.7, 276.0)">)</text><text xml:space="preserve" font-family="Calibri,Calibri" font-size="18.0" fill="#000000" transform="matrix(1.37, 0.00, -0.00, -1.38, 699.2, 276.0)">(</text></g></g><g><clipPath id="clip0x7fccfd1ef590"><path d="M 113.0 91.0 L 902.0 91.0 L 902.0 464.0 L 113.0 464.0 Z M 425.0 360.2 L 763.2 360.2 L 763.2 310.6 L 425.0 310.6 Z M 425.0 360.2 "></path></clipPath><g clip-path="url(#clip0x7fccfd1ef590)"><g><clipPath id="clip0x7fccfd17ed20"><path d="M 113.0 91.0 L 902.0 91.0 L 902.0 464.0 L 113.0 464.0 Z M 113.0 91.0 "></path></clipPath><g clip-path="url(#clip0x7fccfd17ed20)"><image xlink:href="../../39B359E7-9D31-40E6-8500-DF24FC4B4C0B/assets/928DBE5B3465D926A72A85FB9843A78F.png" width="256.00" height="47.00" transform="matrix(1.37, 0.00, -0.00, -1.38, 418.2, 364.9)"></image><image xlink:href="../../39B359E7-9D31-40E6-8500-DF24FC4B4C0B/assets/E0C71E365CE4CEA4D4A16F8BAC383262.png" width="47.00" height="33.00" transform="matrix(1.37, 0.00, -0.00, -1.38, 561.1, 355.3)"></image></g></g></g></g><g><clipPath id="clip0x7fccfd181290"><path d="M 113.0 91.0 L 902.0 91.0 L 902.0 464.0 L 113.0 464.0 Z M 113.0 91.0 "></path></clipPath><g clip-path="url(#clip0x7fccfd181290)"><path d="M 425.0 360.2 L 763.2 360.2 L 763.2 310.6 L 425.0 310.6 Z M 425.0 360.2 " fill="#D4FDD5"></path><path d="M 3657600.0 3091424.0 L 6781800.0 3091424.0 L 6781800.0 3548624.0 L 3657600.0 3548624.0 Z M 3657600.0 3091424.0 " fill="none" stroke="#5A91C7" stroke-width="12700.00" stroke-linejoin="round" transform="matrix(0.00, 0.00, 0.00, -0.00, 29.2, 695.2)"></path><text xml:space="preserve" font-family="Calibri,Calibri" font-size="18.0" fill="#000000" transform="matrix(1.37, 0.00, -0.00, -1.38, 568.8, 325.5)">L</text><text xml:space="preserve" font-family="Calibri,Calibri" font-size="18.0" fill="#000000" transform="matrix(1.37, 0.00, -0.00, -1.38, 579.2, 325.5)">o</text><text xml:space="preserve" font-family="Calibri,Calibri" font-size="18.0" fill="#000000" transform="matrix(1.37, 0.00, -0.00, -1.38, 592.2, 325.5)">g</text><text xml:space="preserve" font-family="Calibri,Calibri" font-size="18.0" fill="#000000" transform="matrix(1.37, 0.00, -0.00, -1.38, 603.9, 325.5)">i</text><text xml:space="preserve" font-family="Calibri,Calibri" font-size="18.0" fill="#000000" transform="matrix(1.37, 0.00, -0.00, -1.38, 609.5, 325.5)">c</text><text xml:space="preserve" font-family="Calibri,Calibri" font-size="18.0" fill="#000000" transform="matrix(1.37, 0.00, -0.00, -1.38, 620.0, 325.5)">(</text></g></g><g><clipPath id="clip0x7fccfd1888a0"><path d="M 113.0 91.0 L 902.0 91.0 L 902.0 464.0 L 113.0 464.0 Z M 540.5 409.7 L 763.2 409.7 L 763.2 360.2 L 540.5 360.2 Z M 540.5 409.7 "></path></clipPath><g clip-path="url(#clip0x7fccfd1888a0)"><g><clipPath id="clip0x7fccfd188fd0"><path d="M 113.0 91.0 L 902.0 91.0 L 902.0 464.0 L 113.0 464.0 Z M 113.0 91.0 "></path></clipPath><g clip-path="url(#clip0x7fccfd188fd0)"><image xlink:href="../../39B359E7-9D31-40E6-8500-DF24FC4B4C0B/assets/3AE092543D2D1562C05309D3DAA34859.png" width="172.00" height="47.00" transform="matrix(1.37, 0.00, -0.00, -1.38, 533.6, 414.5)"></image><image xlink:href="../../39B359E7-9D31-40E6-8500-DF24FC4B4C0B/assets/FFE41DF829911842407EDAF1FE62471D.png" width="50.00" height="33.00" transform="matrix(1.37, 0.00, -0.00, -1.38, 617.5, 404.8)"></image></g></g></g></g><g><clipPath id="clip0x7fccfd18a510"><path d="M 113.0 91.0 L 902.0 91.0 L 902.0 464.0 L 113.0 464.0 Z M 113.0 91.0 "></path></clipPath><g clip-path="url(#clip0x7fccfd18a510)"><path d="M 540.5 409.7 L 763.2 409.7 L 763.2 360.2 L 540.5 360.2 Z M 540.5 409.7 " fill="#407FFF"></path><path d="M 4724400.0 2634224.0 L 6781800.0 2634224.0 L 6781800.0 3091424.0 L 4724400.0 3091424.0 Z M 4724400.0 2634224.0 " fill="none" stroke="#5A91C7" stroke-width="12700.00" stroke-linejoin="round" transform="matrix(0.00, 0.00, 0.00, -0.00, 29.2, 695.2)"></path><text xml:space="preserve" font-family="Calibri,Calibri" font-size="18.0" fill="#FFFFFF" transform="matrix(1.37, 0.00, -0.00, -1.38, 624.8, 375.1)">P</text><text xml:space="preserve" font-family="Calibri,Calibri" font-size="18.0" fill="#FFFFFF" transform="matrix(1.37, 0.00, -0.00, -1.38, 637.5, 375.1)">r</text><text xml:space="preserve" font-family="Calibri,Calibri" font-size="18.0" fill="#FFFFFF" transform="matrix(1.37, 0.00, -0.00, -1.38, 645.8, 375.1)">o</text><text xml:space="preserve" font-family="Calibri,Calibri" font-size="18.0" fill="#FFFFFF" transform="matrix(1.37, 0.00, -0.00, -1.38, 658.8, 375.1)">o</text><text xml:space="preserve" font-family="Calibri,Calibri" font-size="18.0" fill="#FFFFFF" transform="matrix(1.37, 0.00, -0.00, -1.38, 671.9, 375.1)">f</text><text xml:space="preserve" font-family="Calibri,Calibri" font-size="18.0" fill="#FFFFFF" transform="matrix(1.37, 0.00, -0.00, -1.38, 679.5, 375.1)">(</text></g></g><g><clipPath id="clip0x7fccfd192c50"><path d="M 113.0 91.0 L 902.0 91.0 L 902.0 464.0 L 113.0 464.0 Z M 651.8 459.3 L 895.1 459.3 L 895.1 409.7 L 651.8 409.7 Z M 651.8 459.3 "></path></clipPath><g clip-path="url(#clip0x7fccfd192c50)"><g><clipPath id="clip0x7fccfd1937d0"><path d="M 113.0 91.0 L 902.0 91.0 L 902.0 464.0 L 113.0 464.0 Z M 113.0 91.0 "></path></clipPath><g clip-path="url(#clip0x7fccfd1937d0)"><image xlink:href="../../39B359E7-9D31-40E6-8500-DF24FC4B4C0B/assets/4715D017BEF818C0CBEC765ED02C9E8B.png" width="187.00" height="47.00" transform="matrix(1.37, 0.00, -0.00, -1.38, 645.0, 464.0)"></image><image xlink:href="../../39B359E7-9D31-40E6-8500-DF24FC4B4C0B/assets/CEC4486C3D7930454FCA9AA79EE71501.png" width="48.00" height="33.00" transform="matrix(1.37, 0.00, -0.00, -1.38, 739.8, 454.4)"></image></g></g></g></g><g><clipPath id="clip0x7fccfd194b10"><path d="M 113.0 91.0 L 902.0 91.0 L 902.0 464.0 L 113.0 464.0 Z M 113.0 91.0 "></path></clipPath><g clip-path="url(#clip0x7fccfd194b10)"><path d="M 651.8 459.3 L 895.1 459.3 L 895.1 409.7 L 651.8 409.7 Z M 651.8 459.3 " fill="#7A1979"></path><path d="M 5753100.0 2177024.0 L 8001000.0 2177024.0 L 8001000.0 2634224.0 L 5753100.0 2634224.0 Z M 5753100.0 2177024.0 " fill="none" stroke="#5A91C7" stroke-width="12700.00" stroke-linejoin="round" transform="matrix(0.00, 0.00, 0.00, -0.00, 29.2, 695.2)"></path><text xml:space="preserve" font-family="Calibri,Calibri" font-size="18.0" fill="#FFFFFF" transform="matrix(1.37, 0.00, -0.00, -1.38, 748.8, 424.6)">T</text><text xml:space="preserve" font-family="Calibri,Calibri" font-size="18.0" fill="#FFFFFF" transform="matrix(1.37, 0.00, -0.00, -1.38, 759.4, 424.6)">r</text><text xml:space="preserve" font-family="Calibri,Calibri" font-size="18.0" fill="#FFFFFF" transform="matrix(1.37, 0.00, -0.00, -1.38, 768.0, 424.6)">u</text><text xml:space="preserve" font-family="Calibri,Calibri" font-size="18.0" fill="#FFFFFF" transform="matrix(1.37, 0.00, -0.00, -1.38, 781.0, 424.6)">s</text><text xml:space="preserve" font-family="Calibri,Calibri" font-size="18.0" fill="#FFFFFF" transform="matrix(1.37, 0.00, -0.00, -1.38, 790.4, 424.6)">t</text><text xml:space="preserve" font-family="Calibri,Calibri" font-size="18.0" fill="#FFFFFF" transform="matrix(1.37, 0.00, -0.00, -1.38, 798.7, 424.6)">(</text></g></g></g></svg>