<?xml version="1.0" encoding="UTF-8" standalone="no"?><svg xmlns="http://www.w3.org/2000/svg" xmlns:xlink="http://www.w3.org/1999/xlink" clip-rule="evenodd" stroke-miterlimit="4.00" viewBox="0 0 1024 768"><desc>SVG generated by Keynote</desc><defs></defs><g transform="matrix(1.00, 0.00, -0.00, -1.00, 0.0, 768.0)"><path d="M 0.0 768.0 L 1024.0 768.0 L 1024.0 0.0 L 0.0 0.0 Z M 0.0 768.0 " fill="#FEFFFF"></path><text xml:space="preserve" font-family="Helvetica" font-size="12.0" fill="#000000" transform="matrix(1.00, 0.00, -0.00, -1.00, 472.0, 26.0)">H</text><text xml:space="preserve" font-family="Helvetica" font-size="12.0" fill="#000000" transform="matrix(1.00, 0.00, -0.00, -1.00, 480.7, 26.0)">y</text><text xml:space="preserve" font-family="Helvetica" font-size="12.0" fill="#000000" transform="matrix(1.00, 0.00, -0.00, -1.00, 486.7, 26.0)">d</text><text xml:space="preserve" font-family="Helvetica" font-size="12.0" fill="#000000" transform="matrix(1.00, 0.00, -0.00, -1.00, 493.3, 26.0)">r</text><text xml:space="preserve" font-family="Helvetica" font-size="12.0" fill="#000000" transform="matrix(1.00, 0.00, -0.00, -1.00, 497.3, 26.0)">a</text><text xml:space="preserve" font-family="Helvetica" font-size="12.0" fill="#000000" transform="matrix(1.00, 0.00, -0.00, -1.00, 504.0, 26.0)"> </text><text xml:space="preserve" font-family="Helvetica" font-size="12.0" fill="#000000" transform="matrix(1.00, 0.00, -0.00, -1.00, 507.3, 26.0)">C</text><text xml:space="preserve" font-family="Helvetica" font-size="12.0" fill="#000000" transform="matrix(1.00, 0.00, -0.00, -1.00, 516.0, 26.0)">o</text><text xml:space="preserve" font-family="Helvetica" font-size="12.0" fill="#000000" transform="matrix(1.00, 0.00, -0.00, -1.00, 522.7, 26.0)">n</text><text xml:space="preserve" font-family="Helvetica" font-size="12.0" fill="#000000" transform="matrix(1.00, 0.00, -0.00, -1.00, 529.4, 26.0)">n</text><text xml:space="preserve" font-family="Helvetica" font-size="12.0" fill="#000000" transform="matrix(1.00, 0.00, -0.00, -1.00, 536.0, 26.0)">e</text><text xml:space="preserve" font-family="Helvetica" font-size="12.0" fill="#000000" transform="matrix(1.00, 0.00, -0.00, -1.00, 542.7, 26.0)">c</text><text xml:space="preserve" font-family="Helvetica" font-size="12.0" fill="#000000" transform="matrix(1.00, 0.00, -0.00, -1.00, 548.7, 26.0)">t</text><text xml:space="preserve" font-family="Helvetica" font-size="12.0" fill="#000000" transform="matrix(1.00, 0.00, -0.00, -1.00, 107.0, 26.0)">S</text><text xml:space="preserve" font-family="Helvetica" font-size="12.0" fill="#000000" transform="matrix(1.00, 0.00, -0.00, -1.00, 115.0, 26.0)">e</text><text xml:space="preserve" font-family="Helvetica" font-size="12.0" fill="#000000" transform="matrix(1.00, 0.00, -0.00, -1.00, 121.7, 26.0)">p</text><text xml:space="preserve" font-family="Helvetica" font-size="12.0" fill="#000000" transform="matrix(1.00, 0.00, -0.00, -1.00, 128.4, 26.0)">t</text><text xml:space="preserve" font-family="Helvetica" font-size="12.0" fill="#000000" transform="matrix(1.00, 0.00, -0.00, -1.00, 131.7, 26.0)">e</text><text xml:space="preserve" font-family="Helvetica" font-size="12.0" fill="#000000" transform="matrix(1.00, 0.00, -0.00, -1.00, 138.4, 26.0)">m</text><text xml:space="preserve" font-family="Helvetica" font-size="12.0" fill="#000000" transform="matrix(1.00, 0.00, -0.00, -1.00, 148.4, 26.0)">b</text><text xml:space="preserve" font-family="Helvetica" font-size="12.0" fill="#000000" transform="matrix(1.00, 0.00, -0.00, -1.00, 155.0, 26.0)">e</text><text xml:space="preserve" font-family="Helvetica" font-size="12.0" fill="#000000" transform="matrix(1.00, 0.00, -0.00, -1.00, 161.7, 26.0)">r</text><text xml:space="preserve" font-family="Helvetica" font-size="12.0" fill="#000000" transform="matrix(1.00, 0.00, -0.00, -1.00, 165.7, 26.0)"> </text><text xml:space="preserve" font-family="Helvetica" font-size="12.0" fill="#000000" transform="matrix(1.00, 0.00, -0.00, -1.00, 169.0, 26.0)">2</text><text xml:space="preserve" font-family="Helvetica" font-size="12.0" fill="#000000" transform="matrix(1.00, 0.00, -0.00, -1.00, 175.7, 26.0)">0</text><text xml:space="preserve" font-family="Helvetica" font-size="12.0" fill="#000000" transform="matrix(1.00, 0.00, -0.00, -1.00, 182.4, 26.0)">1</text><text xml:space="preserve" font-family="Helvetica" font-size="12.0" fill="#000000" transform="matrix(1.00, 0.00, -0.00, -1.00, 189.1, 26.0)">5</text><text xml:space="preserve" font-family="Helvetica-Light" font-size="50.0" fill="#000000" transform="matrix(1.00, 0.00, -0.00, -1.00, 313.0, 629.0)">H</text><text xml:space="preserve" font-family="Helvetica-Light" font-size="50.0" fill="#000000" transform="matrix(1.00, 0.00, -0.00, -1.00, 349.1, 629.0)">e</text><text xml:space="preserve" font-family="Helvetica-Light" font-size="50.0" fill="#000000" transform="matrix(1.00, 0.00, -0.00, -1.00, 376.9, 629.0)">l</text><text xml:space="preserve" font-family="Helvetica-Light" font-size="50.0" fill="#000000" transform="matrix(1.00, 0.00, -0.00, -1.00, 388.0, 629.0)">l</text><text xml:space="preserve" font-family="Helvetica-Light" font-size="50.0" fill="#000000" transform="matrix(1.00, 0.00, -0.00, -1.00, 399.1, 629.0)">o</text><text xml:space="preserve" font-family="Helvetica-Light" font-size="50.0" fill="#000000" transform="matrix(1.00, 0.00, -0.00, -1.00, 426.9, 629.0)">,</text><text xml:space="preserve" font-family="Helvetica-Light" font-size="50.0" fill="#000000" transform="matrix(1.00, 0.00, -0.00, -1.00, 440.8, 629.0)"> </text><text xml:space="preserve" font-family="Helvetica-Light" font-size="50.0" fill="#000000" transform="matrix(1.00, 0.00, -0.00, -1.00, 454.7, 629.0)">w</text><text xml:space="preserve" font-family="Helvetica-Light" font-size="50.0" fill="#000000" transform="matrix(1.00, 0.00, -0.00, -1.00, 490.8, 629.0)">o</text><text xml:space="preserve" font-family="Helvetica-Light" font-size="50.0" fill="#000000" transform="matrix(1.00, 0.00, -0.00, -1.00, 518.6, 629.0)">r</text><text xml:space="preserve" font-family="Helvetica-Light" font-size="50.0" fill="#000000" transform="matrix(1.00, 0.00, -0.00, -1.00, 535.2, 629.0)">l</text><text xml:space="preserve" font-family="Helvetica-Light" font-size="50.0" fill="#000000" transform="matrix(1.00, 0.00, -0.00, -1.00, 546.4, 629.0)">d</text><text xml:space="preserve" font-family="Helvetica-Light" font-size="50.0" fill="#000000" transform="matrix(1.00, 0.00, -0.00, -1.00, 576.9, 629.0)">!</text><text xml:space="preserve" font-family="Helvetica-Light" font-size="50.0" fill="#000000" transform="matrix(1.00, 0.00, -0.00, -1.00, 593.5, 629.0)"> </text><text xml:space="preserve" font-family="Helvetica-Light" font-size="50.0" fill="#000000" transform="matrix(1.00, 0.00, -0.00, -1.00, 607.4, 629.0)">(</text><text xml:space="preserve" font-family="Helvetica-Light" font-size="50.0" fill="#000000" transform="matrix(1.00, 0.00, -0.00, -1.00, 624.1, 629.0)">2</text><text xml:space="preserve" font-family="Helvetica-Light" font-size="50.0" fill="#000000" transform="matrix(1.00, 0.00, -0.00, -1.00, 651.9, 629.0)">/</text><text xml:space="preserve" font-family="Helvetica-Light" font-size="50.0" fill="#000000" transform="matrix(1.00, 0.00, -0.00, -1.00, 665.8, 629.0)">2</text><text xml:space="preserve" font-family="Helvetica-Light" font-size="50.0" fill="#000000" transform="matrix(1.00, 0.00, -0.00, -1.00, 693.6, 629.0)">)</text><text xml:space="preserve" font-family="Helvetica-Light" font-size="27.0" fill="#000000" transform="matrix(1.00, 0.00, -0.00, -1.00, 79.0, 527.7)">•</text><text xml:space="preserve" font-family="Helvetica-Light" font-size="36.0" fill="#C82505" transform="matrix(1.00, 0.00, -0.00, -1.00, 114.0, 524.0)">c</text><text xml:space="preserve" font-family="Helvetica-Light" font-size="36.0" fill="#C82505" transform="matrix(1.00, 0.00, -0.00, -1.00, 134.0, 524.0)">a</text><text xml:space="preserve" font-family="Helvetica-Light" font-size="36.0" fill="#C82505" transform="matrix(1.00, 0.00, -0.00, -1.00, 154.0, 524.0)">t</text><text xml:space="preserve" font-family="Helvetica-Light" font-size="36.0" fill="#C82505" transform="matrix(1.00, 0.00, -0.00, -1.00, 164.0, 524.0)"> </text><text xml:space="preserve" font-family="Helvetica-Light" font-size="36.0" fill="#C82505" transform="matrix(1.00, 0.00, -0.00, -1.00, 174.0, 524.0)">h</text><text xml:space="preserve" font-family="Helvetica-Light" font-size="36.0" fill="#C82505" transform="matrix(1.00, 0.00, -0.00, -1.00, 194.1, 524.0)">e</text><text xml:space="preserve" font-family="Helvetica-Light" font-size="36.0" fill="#C82505" transform="matrix(1.00, 0.00, -0.00, -1.00, 214.1, 524.0)">l</text><text xml:space="preserve" font-family="Helvetica-Light" font-size="36.0" fill="#C82505" transform="matrix(1.00, 0.00, -0.00, -1.00, 222.1, 524.0)">l</text><text xml:space="preserve" font-family="Helvetica-Light" font-size="36.0" fill="#C82505" transform="matrix(1.00, 0.00, -0.00, -1.00, 230.1, 524.0)">o</text><text xml:space="preserve" font-family="Helvetica-Light" font-size="36.0" fill="#C82505" transform="matrix(1.00, 0.00, -0.00, -1.00, 250.1, 524.0)">2</text><text xml:space="preserve" font-family="Helvetica-Light" font-size="36.0" fill="#C82505" transform="matrix(1.00, 0.00, -0.00, -1.00, 270.1, 524.0)">.</text><text xml:space="preserve" font-family="Helvetica-Light" font-size="36.0" fill="#C82505" transform="matrix(1.00, 0.00, -0.00, -1.00, 280.1, 524.0)">r</text><text xml:space="preserve" font-family="Helvetica-Light" font-size="36.0" fill="#C82505" transform="matrix(1.00, 0.00, -0.00, -1.00, 292.1, 524.0)">b</text><text xml:space="preserve" font-family="LucidaGrande" font-size="36.0" fill="#000000" transform="matrix(1.00, 0.00, -0.00, -1.00, 314.1, 524.0)"> </text><g><clipPath id="clip-229"><path d="M 173.0 519.7 L 314.1 519.7 L 314.1 523.5 L 173.0 523.5 Z M 173.0 519.7 "></path></clipPath><g clip-path="url(#clip-229)"><path d="M 99.0 41.4 L 239.1 41.4 " fill="none" stroke="#C82505" stroke-width="1.80" stroke-miterlimit="0.00" transform="matrix(1.00, 0.00, 0.00, -1.00, 75.0, 563.0)"></path></g></g><text xml:space="preserve" font-family="LucidaGrande" font-size="36.0" fill="#000000" transform="matrix(1.00, 0.00, -0.00, -1.00, 114.0, 481.0)"> </text><text xml:space="preserve" font-family="LucidaGrande" font-size="36.0" fill="#000000" transform="matrix(1.00, 0.00, -0.00, -1.00, 114.0, 438.0)"> </text><text xml:space="preserve" font-family="LucidaGrande" font-size="36.0" fill="#000000" transform="matrix(1.00, 0.00, -0.00, -1.00, 114.0, 395.0)"> </text><text xml:space="preserve" font-family="LucidaGrande" font-size="36.0" fill="#000000" transform="matrix(1.00, 0.00, -0.00, -1.00, 114.0, 352.0)"> </text><text xml:space="preserve" font-family="LucidaGrande" font-size="36.0" fill="#000000" transform="matrix(1.00, 0.00, -0.00, -1.00, 114.0, 309.0)"> </text><text xml:space="preserve" font-family="Courier" font-size="27.0" fill="#000000" transform="matrix(1.00, 0.00, -0.00, -1.00, 79.0, 210.1)">•</text><text xml:space="preserve" font-family="Courier" font-size="36.0" fill="#000000" transform="matrix(1.00, 0.00, -0.00, -1.00, 114.0, 207.0)">r</text><text xml:space="preserve" font-family="Courier" font-size="36.0" fill="#000000" transform="matrix(1.00, 0.00, -0.00, -1.00, 135.6, 207.0)">u</text><text xml:space="preserve" font-family="Courier" font-size="36.0" fill="#000000" transform="matrix(1.00, 0.00, -0.00, -1.00, 157.2, 207.0)">b</text><text xml:space="preserve" font-family="Courier" font-size="36.0" fill="#000000" transform="matrix(1.00, 0.00, -0.00, -1.00, 178.8, 207.0)">y</text><text xml:space="preserve" font-family="Courier" font-size="36.0" fill="#000000" transform="matrix(1.00, 0.00, -0.00, -1.00, 200.4, 207.0)"> </text><text xml:space="preserve" font-family="Courier" font-size="36.0" fill="#000000" transform="matrix(1.00, 0.00, -0.00, -1.00, 222.0, 207.0)">h</text><text xml:space="preserve" font-family="Courier" font-size="36.0" fill="#000000" transform="matrix(1.00, 0.00, -0.00, -1.00, 243.6, 207.0)">e</text><text xml:space="preserve" font-family="Courier" font-size="36.0" fill="#000000" transform="matrix(1.00, 0.00, -0.00, -1.00, 265.2, 207.0)">l</text><text xml:space="preserve" font-family="Courier" font-size="36.0" fill="#000000" transform="matrix(1.00, 0.00, -0.00, -1.00, 286.9, 207.0)">l</text><text xml:space="preserve" font-family="Courier" font-size="36.0" fill="#000000" transform="matrix(1.00, 0.00, -0.00, -1.00, 308.5, 207.0)">o</text><text xml:space="preserve" font-family="Courier" font-size="36.0" fill="#000000" transform="matrix(1.00, 0.00, -0.00, -1.00, 330.1, 207.0)">2</text><text xml:space="preserve" font-family="Courier" font-size="36.0" fill="#000000" transform="matrix(1.00, 0.00, -0.00, -1.00, 351.7, 207.0)">.</text><text xml:space="preserve" font-family="Courier" font-size="36.0" fill="#000000" transform="matrix(1.00, 0.00, -0.00, -1.00, 373.3, 207.0)">r</text><text xml:space="preserve" font-family="Courier" font-size="36.0" fill="#000000" transform="matrix(1.00, 0.00, -0.00, -1.00, 394.9, 207.0)">b</text><text xml:space="preserve" font-family="Courier" font-size="36.0" fill="#000000" transform="matrix(1.00, 0.00, -0.00, -1.00, 416.5, 207.0)"> </text><text xml:space="preserve" font-family="Helvetica-Light" font-size="12.0" fill="#000000" transform="matrix(1.00, 0.00, -0.00, -1.00, 929.0, 26.0)">4</text><text xml:space="preserve" font-family="Helvetica-Light" font-size="12.0" fill="#000000" transform="matrix(1.00, 0.00, -0.00, -1.00, 935.7, 26.0)">5</text><text xml:space="preserve" font-family="CourierNewPS-BoldMT" font-weight="bold" font-size="20.0" fill="#000000" transform="matrix(1.00, 0.00, -0.00, -1.00, 119.0, 480.0)">r</text><text xml:space="preserve" font-family="CourierNewPS-BoldMT" font-weight="bold" font-size="20.0" fill="#000000" transform="matrix(1.00, 0.00, -0.00, -1.00, 131.0, 480.0)">e</text><text xml:space="preserve" font-family="CourierNewPS-BoldMT" font-weight="bold" font-size="20.0" fill="#000000" transform="matrix(1.00, 0.00, -0.00, -1.00, 143.0, 480.0)">q</text><text xml:space="preserve" font-family="CourierNewPS-BoldMT" font-weight="bold" font-size="20.0" fill="#000000" transform="matrix(1.00, 0.00, -0.00, -1.00, 155.0, 480.0)">u</text><text xml:space="preserve" font-family="CourierNewPS-BoldMT" font-weight="bold" font-size="20.0" fill="#000000" transform="matrix(1.00, 0.00, -0.00, -1.00, 167.0, 480.0)">i</text><text xml:space="preserve" font-family="CourierNewPS-BoldMT" font-weight="bold" font-size="20.0" fill="#000000" transform="matrix(1.00, 0.00, -0.00, -1.00, 179.0, 480.0)">r</text><text xml:space="preserve" font-family="CourierNewPS-BoldMT" font-weight="bold" font-size="20.0" fill="#000000" transform="matrix(1.00, 0.00, -0.00, -1.00, 191.0, 480.0)">e</text><text xml:space="preserve" font-family="CourierNewPSMT" font-size="20.0" fill="#000000" transform="matrix(1.00, 0.00, -0.00, -1.00, 203.0, 480.0)"> </text><text xml:space="preserve" font-family="CourierNewPSMT" font-size="20.0" fill="#CC1C00" transform="matrix(1.00, 0.00, -0.00, -1.00, 215.0, 480.0)">'</text><text xml:space="preserve" font-family="CourierNewPSMT" font-size="20.0" fill="#CC1C00" transform="matrix(1.00, 0.00, -0.00, -1.00, 227.0, 480.0)">r</text><text xml:space="preserve" font-family="CourierNewPSMT" font-size="20.0" fill="#CC1C00" transform="matrix(1.00, 0.00, -0.00, -1.00, 239.0, 480.0)">d</text><text xml:space="preserve" font-family="CourierNewPSMT" font-size="20.0" fill="#CC1C00" transform="matrix(1.00, 0.00, -0.00, -1.00, 251.0, 480.0)">f</text><text xml:space="preserve" font-family="CourierNewPSMT" font-size="20.0" fill="#CC1C00" transform="matrix(1.00, 0.00, -0.00, -1.00, 263.0, 480.0)">'</text><text xml:space="preserve" font-family="CourierNewPSMT" font-size="20.0" fill="#000000" transform="matrix(1.00, 0.00, -0.00, -1.00, 275.0, 480.0)"> </text><text xml:space="preserve" font-family="CourierNewPS-BoldMT" font-weight="bold" font-size="20.0" fill="#000000" transform="matrix(1.00, 0.00, -0.00, -1.00, 119.0, 457.0)">r</text><text xml:space="preserve" font-family="CourierNewPS-BoldMT" font-weight="bold" font-size="20.0" fill="#000000" transform="matrix(1.00, 0.00, -0.00, -1.00, 131.0, 457.0)">e</text><text xml:space="preserve" font-family="CourierNewPS-BoldMT" font-weight="bold" font-size="20.0" fill="#000000" transform="matrix(1.00, 0.00, -0.00, -1.00, 143.0, 457.0)">q</text><text xml:space="preserve" font-family="CourierNewPS-BoldMT" font-weight="bold" font-size="20.0" fill="#000000" transform="matrix(1.00, 0.00, -0.00, -1.00, 155.0, 457.0)">u</text><text xml:space="preserve" font-family="CourierNewPS-BoldMT" font-weight="bold" font-size="20.0" fill="#000000" transform="matrix(1.00, 0.00, -0.00, -1.00, 167.0, 457.0)">i</text><text xml:space="preserve" font-family="CourierNewPS-BoldMT" font-weight="bold" font-size="20.0" fill="#000000" transform="matrix(1.00, 0.00, -0.00, -1.00, 179.0, 457.0)">r</text><text xml:space="preserve" font-family="CourierNewPS-BoldMT" font-weight="bold" font-size="20.0" fill="#000000" transform="matrix(1.00, 0.00, -0.00, -1.00, 191.0, 457.0)">e</text><text xml:space="preserve" font-family="CourierNewPSMT" font-size="20.0" fill="#000000" transform="matrix(1.00, 0.00, -0.00, -1.00, 203.0, 457.0)"> </text><text xml:space="preserve" font-family="CourierNewPSMT" font-size="20.0" fill="#CC1C00" transform="matrix(1.00, 0.00, -0.00, -1.00, 215.0, 457.0)">'</text><text xml:space="preserve" font-family="CourierNewPSMT" font-size="20.0" fill="#CC1C00" transform="matrix(1.00, 0.00, -0.00, -1.00, 227.0, 457.0)">r</text><text xml:space="preserve" font-family="CourierNewPSMT" font-size="20.0" fill="#CC1C00" transform="matrix(1.00, 0.00, -0.00, -1.00, 239.0, 457.0)">d</text><text xml:space="preserve" font-family="CourierNewPSMT" font-size="20.0" fill="#CC1C00" transform="matrix(1.00, 0.00, -0.00, -1.00, 251.0, 457.0)">f</text><text xml:space="preserve" font-family="CourierNewPSMT" font-size="20.0" fill="#CC1C00" transform="matrix(1.00, 0.00, -0.00, -1.00, 263.0, 457.0)">/</text><text xml:space="preserve" font-family="CourierNewPSMT" font-size="20.0" fill="#CC1C00" transform="matrix(1.00, 0.00, -0.00, -1.00, 275.0, 457.0)">n</text><text xml:space="preserve" font-family="CourierNewPSMT" font-size="20.0" fill="#CC1C00" transform="matrix(1.00, 0.00, -0.00, -1.00, 287.0, 457.0)">t</text><text xml:space="preserve" font-family="CourierNewPSMT" font-size="20.0" fill="#CC1C00" transform="matrix(1.00, 0.00, -0.00, -1.00, 299.0, 457.0)">r</text><text xml:space="preserve" font-family="CourierNewPSMT" font-size="20.0" fill="#CC1C00" transform="matrix(1.00, 0.00, -0.00, -1.00, 311.0, 457.0)">i</text><text xml:space="preserve" font-family="CourierNewPSMT" font-size="20.0" fill="#CC1C00" transform="matrix(1.00, 0.00, -0.00, -1.00, 323.1, 457.0)">p</text><text xml:space="preserve" font-family="CourierNewPSMT" font-size="20.0" fill="#CC1C00" transform="matrix(1.00, 0.00, -0.00, -1.00, 335.1, 457.0)">l</text><text xml:space="preserve" font-family="CourierNewPSMT" font-size="20.0" fill="#CC1C00" transform="matrix(1.00, 0.00, -0.00, -1.00, 347.1, 457.0)">e</text><text xml:space="preserve" font-family="CourierNewPSMT" font-size="20.0" fill="#CC1C00" transform="matrix(1.00, 0.00, -0.00, -1.00, 359.1, 457.0)">s</text><text xml:space="preserve" font-family="CourierNewPSMT" font-size="20.0" fill="#CC1C00" transform="matrix(1.00, 0.00, -0.00, -1.00, 371.1, 457.0)">'</text><text xml:space="preserve" font-family="CourierNewPSMT" font-size="20.0" fill="#000000" transform="matrix(1.00, 0.00, -0.00, -1.00, 383.0, 457.0)"> </text><text xml:space="preserve" font-family="CourierNewPS-BoldMT" font-weight="bold" font-size="20.0" fill="#000000" transform="matrix(1.00, 0.00, -0.00, -1.00, 119.0, 411.0)">i</text><text xml:space="preserve" font-family="CourierNewPS-BoldMT" font-weight="bold" font-size="20.0" fill="#000000" transform="matrix(1.00, 0.00, -0.00, -1.00, 131.0, 411.0)">n</text><text xml:space="preserve" font-family="CourierNewPS-BoldMT" font-weight="bold" font-size="20.0" fill="#000000" transform="matrix(1.00, 0.00, -0.00, -1.00, 143.0, 411.0)">c</text><text xml:space="preserve" font-family="CourierNewPS-BoldMT" font-weight="bold" font-size="20.0" fill="#000000" transform="matrix(1.00, 0.00, -0.00, -1.00, 155.0, 411.0)">l</text><text xml:space="preserve" font-family="CourierNewPS-BoldMT" font-weight="bold" font-size="20.0" fill="#000000" transform="matrix(1.00, 0.00, -0.00, -1.00, 167.0, 411.0)">u</text><text xml:space="preserve" font-family="CourierNewPS-BoldMT" font-weight="bold" font-size="20.0" fill="#000000" transform="matrix(1.00, 0.00, -0.00, -1.00, 179.0, 411.0)">d</text><text xml:space="preserve" font-family="CourierNewPS-BoldMT" font-weight="bold" font-size="20.0" fill="#000000" transform="matrix(1.00, 0.00, -0.00, -1.00, 191.0, 411.0)">e</text><text xml:space="preserve" font-family="CourierNewPSMT" font-size="20.0" fill="#000000" transform="matrix(1.00, 0.00, -0.00, -1.00, 203.0, 411.0)"> </text><text xml:space="preserve" font-family="CourierNewPSMT" font-size="20.0" fill="#000000" transform="matrix(1.00, 0.00, -0.00, -1.00, 215.0, 411.0)">R</text><text xml:space="preserve" font-family="CourierNewPSMT" font-size="20.0" fill="#000000" transform="matrix(1.00, 0.00, -0.00, -1.00, 227.0, 411.0)">D</text><text xml:space="preserve" font-family="CourierNewPSMT" font-size="20.0" fill="#000000" transform="matrix(1.00, 0.00, -0.00, -1.00, 239.0, 411.0)">F</text><text xml:space="preserve" font-family="CourierNewPSMT" font-size="20.0" fill="#000000" transform="matrix(1.00, 0.00, -0.00, -1.00, 251.0, 411.0)"> </text><text xml:space="preserve" font-family="CourierNewPSMT" font-size="20.0" fill="#000000" transform="matrix(1.00, 0.00, -0.00, -1.00, 119.0, 365.0)">g</text><text xml:space="preserve" font-family="CourierNewPSMT" font-size="20.0" fill="#000000" transform="matrix(1.00, 0.00, -0.00, -1.00, 131.0, 365.0)">r</text><text xml:space="preserve" font-family="CourierNewPSMT" font-size="20.0" fill="#000000" transform="matrix(1.00, 0.00, -0.00, -1.00, 143.0, 365.0)">a</text><text xml:space="preserve" font-family="CourierNewPSMT" font-size="20.0" fill="#000000" transform="matrix(1.00, 0.00, -0.00, -1.00, 155.0, 365.0)">p</text><text xml:space="preserve" font-family="CourierNewPSMT" font-size="20.0" fill="#000000" transform="matrix(1.00, 0.00, -0.00, -1.00, 167.0, 365.0)">h</text><text xml:space="preserve" font-family="CourierNewPSMT" font-size="20.0" fill="#000000" transform="matrix(1.00, 0.00, -0.00, -1.00, 179.0, 365.0)"> </text><text xml:space="preserve" font-family="CourierNewPSMT" font-size="20.0" fill="#000000" transform="matrix(1.00, 0.00, -0.00, -1.00, 191.0, 365.0)">=</text><text xml:space="preserve" font-family="CourierNewPSMT" font-size="20.0" fill="#000000" transform="matrix(1.00, 0.00, -0.00, -1.00, 203.0, 365.0)"> </text><text xml:space="preserve" font-family="CourierNewPSMT" font-size="20.0" fill="#000000" transform="matrix(1.00, 0.00, -0.00, -1.00, 215.0, 365.0)">G</text><text xml:space="preserve" font-family="CourierNewPSMT" font-size="20.0" fill="#000000" transform="matrix(1.00, 0.00, -0.00, -1.00, 227.0, 365.0)">r</text><text xml:space="preserve" font-family="CourierNewPSMT" font-size="20.0" fill="#000000" transform="matrix(1.00, 0.00, -0.00, -1.00, 239.0, 365.0)">a</text><text xml:space="preserve" font-family="CourierNewPSMT" font-size="20.0" fill="#000000" transform="matrix(1.00, 0.00, -0.00, -1.00, 251.0, 365.0)">p</text><text xml:space="preserve" font-family="CourierNewPSMT" font-size="20.0" fill="#000000" transform="matrix(1.00, 0.00, -0.00, -1.00, 263.0, 365.0)">h</text><text xml:space="preserve" font-family="CourierNewPSMT" font-size="20.0" fill="#000000" transform="matrix(1.00, 0.00, -0.00, -1.00, 275.1, 365.0)">.</text><text xml:space="preserve" font-family="CourierNewPSMT" font-size="20.0" fill="#000000" transform="matrix(1.00, 0.00, -0.00, -1.00, 287.1, 365.0)">n</text><text xml:space="preserve" font-family="CourierNewPSMT" font-size="20.0" fill="#000000" transform="matrix(1.00, 0.00, -0.00, -1.00, 299.1, 365.0)">e</text><text xml:space="preserve" font-family="CourierNewPSMT" font-size="20.0" fill="#000000" transform="matrix(1.00, 0.00, -0.00, -1.00, 311.1, 365.0)">w</text><text xml:space="preserve" font-family="CourierNewPSMT" font-size="20.0" fill="#000000" transform="matrix(1.00, 0.00, -0.00, -1.00, 323.1, 365.0)"> </text><text xml:space="preserve" font-family="CourierNewPSMT" font-size="20.0" fill="#000000" transform="matrix(1.00, 0.00, -0.00, -1.00, 119.0, 319.0)">g</text><text xml:space="preserve" font-family="CourierNewPSMT" font-size="20.0" fill="#000000" transform="matrix(1.00, 0.00, -0.00, -1.00, 131.0, 319.0)">r</text><text xml:space="preserve" font-family="CourierNewPSMT" font-size="20.0" fill="#000000" transform="matrix(1.00, 0.00, -0.00, -1.00, 143.0, 319.0)">a</text><text xml:space="preserve" font-family="CourierNewPSMT" font-size="20.0" fill="#000000" transform="matrix(1.00, 0.00, -0.00, -1.00, 155.0, 319.0)">p</text><text xml:space="preserve" font-family="CourierNewPSMT" font-size="20.0" fill="#000000" transform="matrix(1.00, 0.00, -0.00, -1.00, 167.0, 319.0)">h</text><text xml:space="preserve" font-family="CourierNewPSMT" font-size="20.0" fill="#000000" transform="matrix(1.00, 0.00, -0.00, -1.00, 179.0, 319.0)"> </text><text xml:space="preserve" font-family="CourierNewPSMT" font-size="20.0" fill="#000000" transform="matrix(1.00, 0.00, -0.00, -1.00, 191.0, 319.0)">&lt;</text><text xml:space="preserve" font-family="CourierNewPSMT" font-size="20.0" fill="#000000" transform="matrix(1.00, 0.00, -0.00, -1.00, 203.0, 319.0)">&lt;</text><text xml:space="preserve" font-family="CourierNewPSMT" font-size="20.0" fill="#000000" transform="matrix(1.00, 0.00, -0.00, -1.00, 215.0, 319.0)"> </text><text xml:space="preserve" font-family="CourierNewPSMT" font-size="20.0" fill="#000000" transform="matrix(1.00, 0.00, -0.00, -1.00, 227.0, 319.0)">[</text><text xml:space="preserve" font-family="CourierNewPS-BoldMT" font-weight="bold" font-size="20.0" fill="#000000" transform="matrix(1.00, 0.00, -0.00, -1.00, 239.0, 319.0)">:</text><text xml:space="preserve" font-family="CourierNewPS-BoldMT" font-weight="bold" font-size="20.0" fill="#000000" transform="matrix(1.00, 0.00, -0.00, -1.00, 251.0, 319.0)">h</text><text xml:space="preserve" font-family="CourierNewPS-BoldMT" font-weight="bold" font-size="20.0" fill="#000000" transform="matrix(1.00, 0.00, -0.00, -1.00, 263.0, 319.0)">e</text><text xml:space="preserve" font-family="CourierNewPS-BoldMT" font-weight="bold" font-size="20.0" fill="#000000" transform="matrix(1.00, 0.00, -0.00, -1.00, 275.0, 319.0)">l</text><text xml:space="preserve" font-family="CourierNewPS-BoldMT" font-weight="bold" font-size="20.0" fill="#000000" transform="matrix(1.00, 0.00, -0.00, -1.00, 287.0, 319.0)">l</text><text xml:space="preserve" font-family="CourierNewPS-BoldMT" font-weight="bold" font-size="20.0" fill="#000000" transform="matrix(1.00, 0.00, -0.00, -1.00, 299.0, 319.0)">o</text><text xml:space="preserve" font-family="CourierNewPSMT" font-size="20.0" fill="#000000" transform="matrix(1.00, 0.00, -0.00, -1.00, 311.0, 319.0)">,</text><text xml:space="preserve" font-family="CourierNewPSMT" font-size="20.0" fill="#000000" transform="matrix(1.00, 0.00, -0.00, -1.00, 323.0, 319.0)"> </text><text xml:space="preserve" font-family="CourierNewPSMT" font-size="20.0" fill="#000000" transform="matrix(1.00, 0.00, -0.00, -1.00, 335.0, 319.0)">D</text><text xml:space="preserve" font-family="CourierNewPSMT" font-size="20.0" fill="#000000" transform="matrix(1.00, 0.00, -0.00, -1.00, 347.0, 319.0)">C</text><text xml:space="preserve" font-family="CourierNewPSMT" font-size="20.0" fill="#000000" transform="matrix(1.00, 0.00, -0.00, -1.00, 359.0, 319.0)">.</text><text xml:space="preserve" font-family="CourierNewPSMT" font-size="20.0" fill="#000000" transform="matrix(1.00, 0.00, -0.00, -1.00, 371.1, 319.0)">t</text><text xml:space="preserve" font-family="CourierNewPSMT" font-size="20.0" fill="#000000" transform="matrix(1.00, 0.00, -0.00, -1.00, 383.1, 319.0)">i</text><text xml:space="preserve" font-family="CourierNewPSMT" font-size="20.0" fill="#000000" transform="matrix(1.00, 0.00, -0.00, -1.00, 395.1, 319.0)">t</text><text xml:space="preserve" font-family="CourierNewPSMT" font-size="20.0" fill="#000000" transform="matrix(1.00, 0.00, -0.00, -1.00, 407.1, 319.0)">l</text><text xml:space="preserve" font-family="CourierNewPSMT" font-size="20.0" fill="#000000" transform="matrix(1.00, 0.00, -0.00, -1.00, 419.1, 319.0)">e</text><text xml:space="preserve" font-family="CourierNewPSMT" font-size="20.0" fill="#000000" transform="matrix(1.00, 0.00, -0.00, -1.00, 431.1, 319.0)">,</text><text xml:space="preserve" font-family="CourierNewPSMT" font-size="20.0" fill="#000000" transform="matrix(1.00, 0.00, -0.00, -1.00, 443.1, 319.0)"> </text><text xml:space="preserve" font-family="CourierNewPSMT" font-size="20.0" fill="#CC1C00" transform="matrix(1.00, 0.00, -0.00, -1.00, 455.1, 319.0)">"</text><text xml:space="preserve" font-family="CourierNewPSMT" font-size="20.0" fill="#CC1C00" transform="matrix(1.00, 0.00, -0.00, -1.00, 467.1, 319.0)">H</text><text xml:space="preserve" font-family="CourierNewPSMT" font-size="20.0" fill="#CC1C00" transform="matrix(1.00, 0.00, -0.00, -1.00, 479.1, 319.0)">e</text><text xml:space="preserve" font-family="CourierNewPSMT" font-size="20.0" fill="#CC1C00" transform="matrix(1.00, 0.00, -0.00, -1.00, 491.1, 319.0)">l</text><text xml:space="preserve" font-family="CourierNewPSMT" font-size="20.0" fill="#CC1C00" transform="matrix(1.00, 0.00, -0.00, -1.00, 503.1, 319.0)">l</text><text xml:space="preserve" font-family="CourierNewPSMT" font-size="20.0" fill="#CC1C00" transform="matrix(1.00, 0.00, -0.00, -1.00, 515.1, 319.0)">o</text><text xml:space="preserve" font-family="CourierNewPSMT" font-size="20.0" fill="#CC1C00" transform="matrix(1.00, 0.00, -0.00, -1.00, 527.1, 319.0)">,</text><text xml:space="preserve" font-family="CourierNewPSMT" font-size="20.0" fill="#CC1C00" transform="matrix(1.00, 0.00, -0.00, -1.00, 539.1, 319.0)"> </text><text xml:space="preserve" font-family="CourierNewPSMT" font-size="20.0" fill="#CC1C00" transform="matrix(1.00, 0.00, -0.00, -1.00, 551.1, 319.0)">w</text><text xml:space="preserve" font-family="CourierNewPSMT" font-size="20.0" fill="#CC1C00" transform="matrix(1.00, 0.00, -0.00, -1.00, 563.1, 319.0)">o</text><text xml:space="preserve" font-family="CourierNewPSMT" font-size="20.0" fill="#CC1C00" transform="matrix(1.00, 0.00, -0.00, -1.00, 575.1, 319.0)">r</text><text xml:space="preserve" font-family="CourierNewPSMT" font-size="20.0" fill="#CC1C00" transform="matrix(1.00, 0.00, -0.00, -1.00, 587.1, 319.0)">l</text><text xml:space="preserve" font-family="CourierNewPSMT" font-size="20.0" fill="#CC1C00" transform="matrix(1.00, 0.00, -0.00, -1.00, 599.1, 319.0)">d</text><text xml:space="preserve" font-family="CourierNewPSMT" font-size="20.0" fill="#CC1C00" transform="matrix(1.00, 0.00, -0.00, -1.00, 611.1, 319.0)">!</text><text xml:space="preserve" font-family="CourierNewPSMT" font-size="20.0" fill="#CC1C00" transform="matrix(1.00, 0.00, -0.00, -1.00, 623.1, 319.0)">"</text><text xml:space="preserve" font-family="CourierNewPSMT" font-size="20.0" fill="#000000" transform="matrix(1.00, 0.00, -0.00, -1.00, 635.1, 319.0)">]</text><text xml:space="preserve" font-family="CourierNewPSMT" font-size="20.0" fill="#000000" transform="matrix(1.00, 0.00, -0.00, -1.00, 647.1, 319.0)"> </text><text xml:space="preserve" font-family="CourierNewPSMT" font-size="20.0" fill="#000000" transform="matrix(1.00, 0.00, -0.00, -1.00, 119.0, 273.0)">p</text><text xml:space="preserve" font-family="CourierNewPSMT" font-size="20.0" fill="#000000" transform="matrix(1.00, 0.00, -0.00, -1.00, 131.0, 273.0)">u</text><text xml:space="preserve" font-family="CourierNewPSMT" font-size="20.0" fill="#000000" transform="matrix(1.00, 0.00, -0.00, -1.00, 143.0, 273.0)">t</text><text xml:space="preserve" font-family="CourierNewPSMT" font-size="20.0" fill="#000000" transform="matrix(1.00, 0.00, -0.00, -1.00, 155.0, 273.0)">s</text><text xml:space="preserve" font-family="CourierNewPSMT" font-size="20.0" fill="#000000" transform="matrix(1.00, 0.00, -0.00, -1.00, 167.0, 273.0)"> </text><text xml:space="preserve" font-family="CourierNewPSMT" font-size="20.0" fill="#000000" transform="matrix(1.00, 0.00, -0.00, -1.00, 179.0, 273.0)">g</text><text xml:space="preserve" font-family="CourierNewPSMT" font-size="20.0" fill="#000000" transform="matrix(1.00, 0.00, -0.00, -1.00, 191.0, 273.0)">r</text><text xml:space="preserve" font-family="CourierNewPSMT" font-size="20.0" fill="#000000" transform="matrix(1.00, 0.00, -0.00, -1.00, 203.0, 273.0)">a</text><text xml:space="preserve" font-family="CourierNewPSMT" font-size="20.0" fill="#000000" transform="matrix(1.00, 0.00, -0.00, -1.00, 215.0, 273.0)">p</text><text xml:space="preserve" font-family="CourierNewPSMT" font-size="20.0" fill="#000000" transform="matrix(1.00, 0.00, -0.00, -1.00, 227.0, 273.0)">h</text><text xml:space="preserve" font-family="CourierNewPSMT" font-size="20.0" fill="#000000" transform="matrix(1.00, 0.00, -0.00, -1.00, 239.0, 273.0)">.</text><text xml:space="preserve" font-family="CourierNewPSMT" font-size="20.0" fill="#021993" transform="matrix(1.00, 0.00, -0.00, -1.00, 251.0, 273.0)">d</text><text xml:space="preserve" font-family="CourierNewPSMT" font-size="20.0" fill="#021993" transform="matrix(1.00, 0.00, -0.00, -1.00, 263.0, 273.0)">u</text><text xml:space="preserve" font-family="CourierNewPSMT" font-size="20.0" fill="#021993" transform="matrix(1.00, 0.00, -0.00, -1.00, 275.0, 273.0)">m</text><text xml:space="preserve" font-family="CourierNewPSMT" font-size="20.0" fill="#021993" transform="matrix(1.00, 0.00, -0.00, -1.00, 287.0, 273.0)">p</text><text xml:space="preserve" font-family="CourierNewPSMT" font-size="20.0" fill="#000000" transform="matrix(1.00, 0.00, -0.00, -1.00, 299.0, 273.0)">(</text><text xml:space="preserve" font-family="CourierNewPS-BoldMT" font-weight="bold" font-size="20.0" fill="#000000" transform="matrix(1.00, 0.00, -0.00, -1.00, 311.0, 273.0)">:</text><text xml:space="preserve" font-family="CourierNewPS-BoldMT" font-weight="bold" font-size="20.0" fill="#000000" transform="matrix(1.00, 0.00, -0.00, -1.00, 323.0, 273.0)">n</text><text xml:space="preserve" font-family="CourierNewPS-BoldMT" font-weight="bold" font-size="20.0" fill="#000000" transform="matrix(1.00, 0.00, -0.00, -1.00, 335.0, 273.0)">t</text><text xml:space="preserve" font-family="CourierNewPS-BoldMT" font-weight="bold" font-size="20.0" fill="#000000" transform="matrix(1.00, 0.00, -0.00, -1.00, 347.0, 273.0)">r</text><text xml:space="preserve" font-family="CourierNewPS-BoldMT" font-weight="bold" font-size="20.0" fill="#000000" transform="matrix(1.00, 0.00, -0.00, -1.00, 359.0, 273.0)">i</text><text xml:space="preserve" font-family="CourierNewPS-BoldMT" font-weight="bold" font-size="20.0" fill="#000000" transform="matrix(1.00, 0.00, -0.00, -1.00, 371.1, 273.0)">p</text><text xml:space="preserve" font-family="CourierNewPS-BoldMT" font-weight="bold" font-size="20.0" fill="#000000" transform="matrix(1.00, 0.00, -0.00, -1.00, 383.1, 273.0)">l</text><text xml:space="preserve" font-family="CourierNewPS-BoldMT" font-weight="bold" font-size="20.0" fill="#000000" transform="matrix(1.00, 0.00, -0.00, -1.00, 395.1, 273.0)">e</text><text xml:space="preserve" font-family="CourierNewPS-BoldMT" font-weight="bold" font-size="20.0" fill="#000000" transform="matrix(1.00, 0.00, -0.00, -1.00, 407.1, 273.0)">s</text><text xml:space="preserve" font-family="CourierNewPSMT" font-size="20.0" fill="#000000" transform="matrix(1.00, 0.00, -0.00, -1.00, 419.0, 273.0)">)</text><text xml:space="preserve" font-family="CourierNewPSMT" font-size="20.0" fill="#000000" transform="matrix(1.00, 0.00, -0.00, -1.00, 431.1, 273.0)"> </text><text xml:space="preserve" font-family="CourierNewPSMT" font-size="20.0" fill="#000000" transform="matrix(1.00, 0.00, -0.00, -1.00, 118.0, 147.0)">_</text><text xml:space="preserve" font-family="CourierNewPSMT" font-size="20.0" fill="#000000" transform="matrix(1.00, 0.00, -0.00, -1.00, 130.0, 147.0)">:</text><text xml:space="preserve" font-family="CourierNewPSMT" font-size="20.0" fill="#000000" transform="matrix(1.00, 0.00, -0.00, -1.00, 142.0, 147.0)">h</text><text xml:space="preserve" font-family="CourierNewPSMT" font-size="20.0" fill="#000000" transform="matrix(1.00, 0.00, -0.00, -1.00, 154.0, 147.0)">e</text><text xml:space="preserve" font-family="CourierNewPSMT" font-size="20.0" fill="#000000" transform="matrix(1.00, 0.00, -0.00, -1.00, 166.0, 147.0)">l</text><text xml:space="preserve" font-family="CourierNewPSMT" font-size="20.0" fill="#000000" transform="matrix(1.00, 0.00, -0.00, -1.00, 178.0, 147.0)">l</text><text xml:space="preserve" font-family="CourierNewPSMT" font-size="20.0" fill="#000000" transform="matrix(1.00, 0.00, -0.00, -1.00, 190.0, 147.0)">o</text><text xml:space="preserve" font-family="CourierNewPSMT" font-size="20.0" fill="#000000" transform="matrix(1.00, 0.00, -0.00, -1.00, 202.0, 147.0)"> </text><text xml:space="preserve" font-family="CourierNewPSMT" font-size="20.0" fill="#000000" transform="matrix(1.00, 0.00, -0.00, -1.00, 214.0, 147.0)">&lt;</text><text xml:space="preserve" font-family="CourierNewPSMT" font-size="20.0" fill="#000000" transform="matrix(1.00, 0.00, -0.00, -1.00, 226.0, 147.0)">h</text><text xml:space="preserve" font-family="CourierNewPSMT" font-size="20.0" fill="#000000" transform="matrix(1.00, 0.00, -0.00, -1.00, 238.0, 147.0)">t</text><text xml:space="preserve" font-family="CourierNewPSMT" font-size="20.0" fill="#000000" transform="matrix(1.00, 0.00, -0.00, -1.00, 250.0, 147.0)">t</text><text xml:space="preserve" font-family="CourierNewPSMT" font-size="20.0" fill="#000000" transform="matrix(1.00, 0.00, -0.00, -1.00, 262.0, 147.0)">p</text><text xml:space="preserve" font-family="CourierNewPSMT" font-size="20.0" fill="#000000" transform="matrix(1.00, 0.00, -0.00, -1.00, 274.1, 147.0)">:</text><text xml:space="preserve" font-family="CourierNewPSMT" font-size="20.0" fill="#000000" transform="matrix(1.00, 0.00, -0.00, -1.00, 286.1, 147.0)">/</text><text xml:space="preserve" font-family="CourierNewPSMT" font-size="20.0" fill="#000000" transform="matrix(1.00, 0.00, -0.00, -1.00, 298.1, 147.0)">/</text><text xml:space="preserve" font-family="CourierNewPSMT" font-size="20.0" fill="#000000" transform="matrix(1.00, 0.00, -0.00, -1.00, 310.1, 147.0)">p</text><text xml:space="preserve" font-family="CourierNewPSMT" font-size="20.0" fill="#000000" transform="matrix(1.00, 0.00, -0.00, -1.00, 322.1, 147.0)">u</text><text xml:space="preserve" font-family="CourierNewPSMT" font-size="20.0" fill="#000000" transform="matrix(1.00, 0.00, -0.00, -1.00, 334.1, 147.0)">r</text><text xml:space="preserve" font-family="CourierNewPSMT" font-size="20.0" fill="#000000" transform="matrix(1.00, 0.00, -0.00, -1.00, 346.1, 147.0)">l</text><text xml:space="preserve" font-family="CourierNewPSMT" font-size="20.0" fill="#000000" transform="matrix(1.00, 0.00, -0.00, -1.00, 358.1, 147.0)">.</text><text xml:space="preserve" font-family="CourierNewPSMT" font-size="20.0" fill="#000000" transform="matrix(1.00, 0.00, -0.00, -1.00, 370.1, 147.0)">o</text><text xml:space="preserve" font-family="CourierNewPSMT" font-size="20.0" fill="#000000" transform="matrix(1.00, 0.00, -0.00, -1.00, 382.1, 147.0)">r</text><text xml:space="preserve" font-family="CourierNewPSMT" font-size="20.0" fill="#000000" transform="matrix(1.00, 0.00, -0.00, -1.00, 394.1, 147.0)">g</text><text xml:space="preserve" font-family="CourierNewPSMT" font-size="20.0" fill="#000000" transform="matrix(1.00, 0.00, -0.00, -1.00, 406.1, 147.0)">/</text><text xml:space="preserve" font-family="CourierNewPSMT" font-size="20.0" fill="#000000" transform="matrix(1.00, 0.00, -0.00, -1.00, 418.1, 147.0)">d</text><text xml:space="preserve" font-family="CourierNewPSMT" font-size="20.0" fill="#000000" transform="matrix(1.00, 0.00, -0.00, -1.00, 430.1, 147.0)">c</text><text xml:space="preserve" font-family="CourierNewPSMT" font-size="20.0" fill="#000000" transform="matrix(1.00, 0.00, -0.00, -1.00, 442.1, 147.0)">/</text><text xml:space="preserve" font-family="CourierNewPSMT" font-size="20.0" fill="#000000" transform="matrix(1.00, 0.00, -0.00, -1.00, 454.1, 147.0)">t</text><text xml:space="preserve" font-family="CourierNewPSMT" font-size="20.0" fill="#000000" transform="matrix(1.00, 0.00, -0.00, -1.00, 466.1, 147.0)">e</text><text xml:space="preserve" font-family="CourierNewPSMT" font-size="20.0" fill="#000000" transform="matrix(1.00, 0.00, -0.00, -1.00, 478.1, 147.0)">r</text><text xml:space="preserve" font-family="CourierNewPSMT" font-size="20.0" fill="#000000" transform="matrix(1.00, 0.00, -0.00, -1.00, 490.1, 147.0)">m</text><text xml:space="preserve" font-family="CourierNewPSMT" font-size="20.0" fill="#000000" transform="matrix(1.00, 0.00, -0.00, -1.00, 502.1, 147.0)">s</text><text xml:space="preserve" font-family="CourierNewPSMT" font-size="20.0" fill="#000000" transform="matrix(1.00, 0.00, -0.00, -1.00, 514.1, 147.0)">/</text><text xml:space="preserve" font-family="CourierNewPSMT" font-size="20.0" fill="#000000" transform="matrix(1.00, 0.00, -0.00, -1.00, 526.1, 147.0)">t</text><text xml:space="preserve" font-family="CourierNewPSMT" font-size="20.0" fill="#000000" transform="matrix(1.00, 0.00, -0.00, -1.00, 538.1, 147.0)">i</text><text xml:space="preserve" font-family="CourierNewPSMT" font-size="20.0" fill="#000000" transform="matrix(1.00, 0.00, -0.00, -1.00, 550.1, 147.0)">t</text><text xml:space="preserve" font-family="CourierNewPSMT" font-size="20.0" fill="#000000" transform="matrix(1.00, 0.00, -0.00, -1.00, 562.1, 147.0)">l</text><text xml:space="preserve" font-family="CourierNewPSMT" font-size="20.0" fill="#000000" transform="matrix(1.00, 0.00, -0.00, -1.00, 574.2, 147.0)">e</text><text xml:space="preserve" font-family="CourierNewPSMT" font-size="20.0" fill="#000000" transform="matrix(1.00, 0.00, -0.00, -1.00, 586.2, 147.0)">&gt;</text><text xml:space="preserve" font-family="CourierNewPSMT" font-size="20.0" fill="#000000" transform="matrix(1.00, 0.00, -0.00, -1.00, 598.2, 147.0)"> </text><text xml:space="preserve" font-family="CourierNewPSMT" font-size="20.0" fill="#000000" transform="matrix(1.00, 0.00, -0.00, -1.00, 610.2, 147.0)">"</text><text xml:space="preserve" font-family="CourierNewPSMT" font-size="20.0" fill="#000000" transform="matrix(1.00, 0.00, -0.00, -1.00, 622.2, 147.0)">H</text><text xml:space="preserve" font-family="CourierNewPSMT" font-size="20.0" fill="#000000" transform="matrix(1.00, 0.00, -0.00, -1.00, 634.2, 147.0)">e</text><text xml:space="preserve" font-family="CourierNewPSMT" font-size="20.0" fill="#000000" transform="matrix(1.00, 0.00, -0.00, -1.00, 646.2, 147.0)">l</text><text xml:space="preserve" font-family="CourierNewPSMT" font-size="20.0" fill="#000000" transform="matrix(1.00, 0.00, -0.00, -1.00, 658.2, 147.0)">l</text><text xml:space="preserve" font-family="CourierNewPSMT" font-size="20.0" fill="#000000" transform="matrix(1.00, 0.00, -0.00, -1.00, 670.2, 147.0)">o</text><text xml:space="preserve" font-family="CourierNewPSMT" font-size="20.0" fill="#000000" transform="matrix(1.00, 0.00, -0.00, -1.00, 682.2, 147.0)">,</text><text xml:space="preserve" font-family="CourierNewPSMT" font-size="20.0" fill="#000000" transform="matrix(1.00, 0.00, -0.00, -1.00, 694.2, 147.0)"> </text><text xml:space="preserve" font-family="CourierNewPSMT" font-size="20.0" fill="#000000" transform="matrix(1.00, 0.00, -0.00, -1.00, 706.2, 147.0)">w</text><text xml:space="preserve" font-family="CourierNewPSMT" font-size="20.0" fill="#000000" transform="matrix(1.00, 0.00, -0.00, -1.00, 718.2, 147.0)">o</text><text xml:space="preserve" font-family="CourierNewPSMT" font-size="20.0" fill="#000000" transform="matrix(1.00, 0.00, -0.00, -1.00, 730.2, 147.0)">r</text><text xml:space="preserve" font-family="CourierNewPSMT" font-size="20.0" fill="#000000" transform="matrix(1.00, 0.00, -0.00, -1.00, 742.2, 147.0)">l</text><text xml:space="preserve" font-family="CourierNewPSMT" font-size="20.0" fill="#000000" transform="matrix(1.00, 0.00, -0.00, -1.00, 754.2, 147.0)">d</text><text xml:space="preserve" font-family="CourierNewPSMT" font-size="20.0" fill="#000000" transform="matrix(1.00, 0.00, -0.00, -1.00, 766.2, 147.0)">!</text><text xml:space="preserve" font-family="CourierNewPSMT" font-size="20.0" fill="#000000" transform="matrix(1.00, 0.00, -0.00, -1.00, 778.2, 147.0)">"</text><text xml:space="preserve" font-family="CourierNewPSMT" font-size="20.0" fill="#000000" transform="matrix(1.00, 0.00, -0.00, -1.00, 790.2, 147.0)"> </text><text xml:space="preserve" font-family="CourierNewPSMT" font-size="20.0" fill="#000000" transform="matrix(1.00, 0.00, -0.00, -1.00, 802.2, 147.0)">.</text><text xml:space="preserve" font-family="CourierNewPSMT" font-size="20.0" fill="#000000" transform="matrix(1.00, 0.00, -0.00, -1.00, 814.2, 147.0)"> </text></g></svg>