<?xml version="1.0" encoding="UTF-8" standalone="no"?><svg xmlns="http://www.w3.org/2000/svg" xmlns:xlink="http://www.w3.org/1999/xlink" clip-rule="evenodd" stroke-miterlimit="10" viewBox="0 0 1024 768"><desc>SVG generated by Keynote</desc><defs></defs><g transform="matrix(1.00, 0.00, -0.00, -1.00, 0.0, 768.0)"><g><clipPath id="clip0x7fcd218d98e0"><path d="M 0.0 768.0 L 1024.0 768.0 L 1024.0 0.0 L 0.0 0.0 Z M 0.0 768.0 "></path></clipPath><g clip-path="url(#clip0x7fcd218d98e0)"><image xlink:href="../../91442AAD-F006-493B-88D1-0BD5660DF9EE/assets/4E131E180F71435CE7831D195B770FC0.jpeg" width="2048.00" height="1536.00" transform="matrix(0.50, 0.00, -0.00, -0.50, 0.0, 768.0)"></image></g></g><text xml:space="preserve" font-family="GillSans,Gill Sans" font-size="84.0" fill="#FEFFFF" transform="matrix(1.00, 0.00, -0.00, -1.00, 376.8, 623.4)">D</text><text xml:space="preserve" font-family="GillSans,Gill Sans" font-size="84.0" fill="#FEFFFF" transform="matrix(1.00, 0.00, -0.00, -1.00, 439.8, 623.4)">i</text><text xml:space="preserve" font-family="GillSans,Gill Sans" font-size="84.0" fill="#FEFFFF" transform="matrix(1.00, 0.00, -0.00, -1.00, 458.2, 623.4)">s</text><text xml:space="preserve" font-family="GillSans,Gill Sans" font-size="84.0" fill="#FEFFFF" transform="matrix(1.00, 0.00, -0.00, -1.00, 490.5, 623.4)">t</text><text xml:space="preserve" font-family="GillSans,Gill Sans" font-size="84.0" fill="#FEFFFF" transform="matrix(1.00, 0.00, -0.00, -1.00, 518.5, 623.4)">i</text><text xml:space="preserve" font-family="GillSans,Gill Sans" font-size="84.0" fill="#FEFFFF" transform="matrix(1.00, 0.00, -0.00, -1.00, 536.9, 623.4)">l</text><text xml:space="preserve" font-family="GillSans,Gill Sans" font-size="84.0" fill="#FEFFFF" transform="matrix(1.00, 0.00, -0.00, -1.00, 555.3, 623.4)">l</text><text xml:space="preserve" font-family="GillSans,Gill Sans" font-size="84.0" fill="#FEFFFF" transform="matrix(1.00, 0.00, -0.00, -1.00, 573.8, 623.4)">e</text><text xml:space="preserve" font-family="GillSans,Gill Sans" font-size="84.0" fill="#FEFFFF" transform="matrix(1.00, 0.00, -0.00, -1.00, 614.0, 623.4)">r</text><text xml:space="preserve" font-family="GillSans,Gill Sans" font-size="66.1" fill="#FEFFFF" transform="matrix(1.00, 0.00, -0.00, -1.00, 129.0, 500.2)">•</text><text xml:space="preserve" font-family="GillSans,Gill Sans" font-size="38.6" fill="#FEFFFF" transform="matrix(1.00, 0.00, -0.00, -1.00, 170.4, 509.9)">S</text><text xml:space="preserve" font-family="GillSans,Gill Sans" font-size="38.6" fill="#FEFFFF" transform="matrix(1.00, 0.00, -0.00, -1.00, 188.1, 509.9)">h</text><text xml:space="preserve" font-family="GillSans,Gill Sans" font-size="38.6" fill="#FEFFFF" transform="matrix(1.00, 0.00, -0.00, -1.00, 207.4, 509.9)">o</text><text xml:space="preserve" font-family="GillSans,Gill Sans" font-size="38.6" fill="#FEFFFF" transform="matrix(1.00, 0.00, -0.00, -1.00, 228.4, 509.9)">w</text><text xml:space="preserve" font-family="GillSans,Gill Sans" font-size="38.6" fill="#FEFFFF" transform="matrix(1.00, 0.00, -0.00, -1.00, 256.2, 509.9)">c</text><text xml:space="preserve" font-family="GillSans,Gill Sans" font-size="38.6" fill="#FEFFFF" transform="matrix(1.00, 0.00, -0.00, -1.00, 273.1, 509.9)">a</text><text xml:space="preserve" font-family="GillSans,Gill Sans" font-size="38.6" fill="#FEFFFF" transform="matrix(1.00, 0.00, -0.00, -1.00, 289.6, 509.9)">s</text><text xml:space="preserve" font-family="GillSans,Gill Sans" font-size="38.6" fill="#FEFFFF" transform="matrix(1.00, 0.00, -0.00, -1.00, 304.4, 509.9)">e</text><text xml:space="preserve" font-family="GillSans,Gill Sans" font-size="38.6" fill="#FEFFFF" transform="matrix(1.00, 0.00, -0.00, -1.00, 322.9, 509.9)"> </text><text xml:space="preserve" font-family="GillSans,Gill Sans" font-size="38.6" fill="#FEFFFF" transform="matrix(1.00, 0.00, -0.00, -1.00, 333.7, 509.9)">f</text><text xml:space="preserve" font-family="GillSans,Gill Sans" font-size="38.6" fill="#FEFFFF" transform="matrix(1.00, 0.00, -0.00, -1.00, 342.9, 509.9)">o</text><text xml:space="preserve" font-family="GillSans,Gill Sans" font-size="38.6" fill="#FEFFFF" transform="matrix(1.00, 0.00, -0.00, -1.00, 364.2, 509.9)">r</text><text xml:space="preserve" font-family="GillSans,Gill Sans" font-size="38.6" fill="#FEFFFF" transform="matrix(1.00, 0.00, -0.00, -1.00, 379.5, 509.9)"> </text><text xml:space="preserve" font-family="GillSans,Gill Sans" font-size="38.6" fill="#FEFFFF" transform="matrix(1.00, 0.00, -0.00, -1.00, 390.3, 509.9)">R</text><text xml:space="preserve" font-family="GillSans,Gill Sans" font-size="38.6" fill="#FEFFFF" transform="matrix(1.00, 0.00, -0.00, -1.00, 413.6, 509.9)">u</text><text xml:space="preserve" font-family="GillSans,Gill Sans" font-size="38.6" fill="#FEFFFF" transform="matrix(1.00, 0.00, -0.00, -1.00, 432.9, 509.9)">b</text><text xml:space="preserve" font-family="GillSans,Gill Sans" font-size="38.6" fill="#FEFFFF" transform="matrix(1.00, 0.00, -0.00, -1.00, 451.9, 509.9)">y</text><text xml:space="preserve" font-family="GillSans,Gill Sans" font-size="38.6" fill="#FEFFFF" transform="matrix(1.00, 0.00, -0.00, -1.00, 468.8, 509.9)"> </text><text xml:space="preserve" font-family="GillSans,Gill Sans" font-size="38.6" fill="#FEFFFF" transform="matrix(1.00, 0.00, -0.00, -1.00, 479.5, 509.9)">R</text><text xml:space="preserve" font-family="GillSans,Gill Sans" font-size="38.6" fill="#FEFFFF" transform="matrix(1.00, 0.00, -0.00, -1.00, 502.9, 509.9)">D</text><text xml:space="preserve" font-family="GillSans,Gill Sans" font-size="38.6" fill="#FEFFFF" transform="matrix(1.00, 0.00, -0.00, -1.00, 531.8, 509.9)">F</text><text xml:space="preserve" font-family="GillSans,Gill Sans" font-size="38.6" fill="#FEFFFF" transform="matrix(1.00, 0.00, -0.00, -1.00, 550.0, 509.9)"> </text><text xml:space="preserve" font-family="GillSans,Gill Sans" font-size="38.6" fill="#FEFFFF" transform="matrix(1.00, 0.00, -0.00, -1.00, 560.7, 509.9)">t</text><text xml:space="preserve" font-family="GillSans,Gill Sans" font-size="38.6" fill="#FEFFFF" transform="matrix(1.00, 0.00, -0.00, -1.00, 573.6, 509.9)">o</text><text xml:space="preserve" font-family="GillSans,Gill Sans" font-size="38.6" fill="#FEFFFF" transform="matrix(1.00, 0.00, -0.00, -1.00, 594.9, 509.9)">o</text><text xml:space="preserve" font-family="GillSans,Gill Sans" font-size="38.6" fill="#FEFFFF" transform="matrix(1.00, 0.00, -0.00, -1.00, 616.2, 509.9)">l</text><text xml:space="preserve" font-family="GillSans,Gill Sans" font-size="38.6" fill="#FEFFFF" transform="matrix(1.00, 0.00, -0.00, -1.00, 624.7, 509.9)">s</text><text xml:space="preserve" font-family="GillSans,Gill Sans" font-size="38.6" fill="#FEFFFF" transform="matrix(1.00, 0.00, -0.00, -1.00, 639.5, 509.9)">e</text><text xml:space="preserve" font-family="GillSans,Gill Sans" font-size="38.6" fill="#FEFFFF" transform="matrix(1.00, 0.00, -0.00, -1.00, 658.1, 509.9)">t</text><text xml:space="preserve" font-family="GillSans,Gill Sans" font-size="66.1" fill="#FEFFFF" transform="matrix(1.00, 0.00, -0.00, -1.00, 129.0, 434.1)">•</text><text xml:space="preserve" font-family="GillSans,Gill Sans" font-size="38.6" fill="#FEFFFF" transform="matrix(1.00, 0.00, -0.00, -1.00, 170.4, 443.8)">B</text><text xml:space="preserve" font-family="GillSans,Gill Sans" font-size="38.6" fill="#FEFFFF" transform="matrix(1.00, 0.00, -0.00, -1.00, 192.2, 443.8)">a</text><text xml:space="preserve" font-family="GillSans,Gill Sans" font-size="38.6" fill="#FEFFFF" transform="matrix(1.00, 0.00, -0.00, -1.00, 208.6, 443.8)">s</text><text xml:space="preserve" font-family="GillSans,Gill Sans" font-size="38.6" fill="#FEFFFF" transform="matrix(1.00, 0.00, -0.00, -1.00, 223.5, 443.8)">i</text><text xml:space="preserve" font-family="GillSans,Gill Sans" font-size="38.6" fill="#FEFFFF" transform="matrix(1.00, 0.00, -0.00, -1.00, 232.0, 443.8)">c</text><text xml:space="preserve" font-family="GillSans,Gill Sans" font-size="38.6" fill="#FEFFFF" transform="matrix(1.00, 0.00, -0.00, -1.00, 248.9, 443.8)"> </text><text xml:space="preserve" font-family="GillSans,Gill Sans" font-size="38.6" fill="#FEFFFF" transform="matrix(1.00, 0.00, -0.00, -1.00, 259.6, 443.8)">f</text><text xml:space="preserve" font-family="GillSans,Gill Sans" font-size="38.6" fill="#FEFFFF" transform="matrix(1.00, 0.00, -0.00, -1.00, 269.3, 443.8)">u</text><text xml:space="preserve" font-family="GillSans,Gill Sans" font-size="38.6" fill="#FEFFFF" transform="matrix(1.00, 0.00, -0.00, -1.00, 288.6, 443.8)">n</text><text xml:space="preserve" font-family="GillSans,Gill Sans" font-size="38.6" fill="#FEFFFF" transform="matrix(1.00, 0.00, -0.00, -1.00, 307.9, 443.8)">c</text><text xml:space="preserve" font-family="GillSans,Gill Sans" font-size="38.6" fill="#FEFFFF" transform="matrix(1.00, 0.00, -0.00, -1.00, 324.9, 443.8)">t</text><text xml:space="preserve" font-family="GillSans,Gill Sans" font-size="38.6" fill="#FEFFFF" transform="matrix(1.00, 0.00, -0.00, -1.00, 337.7, 443.8)">i</text><text xml:space="preserve" font-family="GillSans,Gill Sans" font-size="38.6" fill="#FEFFFF" transform="matrix(1.00, 0.00, -0.00, -1.00, 346.2, 443.8)">o</text><text xml:space="preserve" font-family="GillSans,Gill Sans" font-size="38.6" fill="#FEFFFF" transform="matrix(1.00, 0.00, -0.00, -1.00, 367.5, 443.8)">n</text><text xml:space="preserve" font-family="GillSans,Gill Sans" font-size="38.6" fill="#FEFFFF" transform="matrix(1.00, 0.00, -0.00, -1.00, 386.8, 443.8)">:</text><text xml:space="preserve" font-family="GillSans,Gill Sans" font-size="38.6" fill="#FEFFFF" transform="matrix(1.00, 0.00, -0.00, -1.00, 391.4, 443.8)"> </text><text xml:space="preserve" font-family="GillSans,Gill Sans" font-size="38.6" fill="#FEFFFF" transform="matrix(1.00, 0.00, -0.00, -1.00, 397.3, 443.8)">T</text><text xml:space="preserve" font-family="GillSans,Gill Sans" font-size="38.6" fill="#FEFFFF" transform="matrix(1.00, 0.00, -0.00, -1.00, 415.8, 443.8)">r</text><text xml:space="preserve" font-family="GillSans,Gill Sans" font-size="38.6" fill="#FEFFFF" transform="matrix(1.00, 0.00, -0.00, -1.00, 431.1, 443.8)">a</text><text xml:space="preserve" font-family="GillSans,Gill Sans" font-size="38.6" fill="#FEFFFF" transform="matrix(1.00, 0.00, -0.00, -1.00, 447.6, 443.8)">n</text><text xml:space="preserve" font-family="GillSans,Gill Sans" font-size="38.6" fill="#FEFFFF" transform="matrix(1.00, 0.00, -0.00, -1.00, 467.0, 443.8)">s</text><text xml:space="preserve" font-family="GillSans,Gill Sans" font-size="38.6" fill="#FEFFFF" transform="matrix(1.00, 0.00, -0.00, -1.00, 481.8, 443.8)">l</text><text xml:space="preserve" font-family="GillSans,Gill Sans" font-size="38.6" fill="#FEFFFF" transform="matrix(1.00, 0.00, -0.00, -1.00, 490.3, 443.8)">a</text><text xml:space="preserve" font-family="GillSans,Gill Sans" font-size="38.6" fill="#FEFFFF" transform="matrix(1.00, 0.00, -0.00, -1.00, 506.8, 443.8)">t</text><text xml:space="preserve" font-family="GillSans,Gill Sans" font-size="38.6" fill="#FEFFFF" transform="matrix(1.00, 0.00, -0.00, -1.00, 519.6, 443.8)">e</text><text xml:space="preserve" font-family="GillSans,Gill Sans" font-size="38.6" fill="#FEFFFF" transform="matrix(1.00, 0.00, -0.00, -1.00, 538.1, 443.8)"> </text><text xml:space="preserve" font-family="GillSans,Gill Sans" font-size="38.6" fill="#FEFFFF" transform="matrix(1.00, 0.00, -0.00, -1.00, 548.9, 443.8)">b</text><text xml:space="preserve" font-family="GillSans,Gill Sans" font-size="38.6" fill="#FEFFFF" transform="matrix(1.00, 0.00, -0.00, -1.00, 568.2, 443.8)">e</text><text xml:space="preserve" font-family="GillSans,Gill Sans" font-size="38.6" fill="#FEFFFF" transform="matrix(1.00, 0.00, -0.00, -1.00, 586.7, 443.8)">t</text><text xml:space="preserve" font-family="GillSans,Gill Sans" font-size="38.6" fill="#FEFFFF" transform="matrix(1.00, 0.00, -0.00, -1.00, 599.6, 443.8)">w</text><text xml:space="preserve" font-family="GillSans,Gill Sans" font-size="38.6" fill="#FEFFFF" transform="matrix(1.00, 0.00, -0.00, -1.00, 626.6, 443.8)">e</text><text xml:space="preserve" font-family="GillSans,Gill Sans" font-size="38.6" fill="#FEFFFF" transform="matrix(1.00, 0.00, -0.00, -1.00, 645.1, 443.8)">e</text><text xml:space="preserve" font-family="GillSans,Gill Sans" font-size="38.6" fill="#FEFFFF" transform="matrix(1.00, 0.00, -0.00, -1.00, 663.6, 443.8)">n</text><text xml:space="preserve" font-family="GillSans,Gill Sans" font-size="38.6" fill="#FEFFFF" transform="matrix(1.00, 0.00, -0.00, -1.00, 682.9, 443.8)"> </text><text xml:space="preserve" font-family="GillSans,Gill Sans" font-size="38.6" fill="#FEFFFF" transform="matrix(1.00, 0.00, -0.00, -1.00, 693.7, 443.8)">R</text><text xml:space="preserve" font-family="GillSans,Gill Sans" font-size="38.6" fill="#FEFFFF" transform="matrix(1.00, 0.00, -0.00, -1.00, 717.0, 443.8)">D</text><text xml:space="preserve" font-family="GillSans,Gill Sans" font-size="38.6" fill="#FEFFFF" transform="matrix(1.00, 0.00, -0.00, -1.00, 746.0, 443.8)">F</text><text xml:space="preserve" font-family="GillSans,Gill Sans" font-size="38.6" fill="#FEFFFF" transform="matrix(1.00, 0.00, -0.00, -1.00, 764.1, 443.8)"> </text><text xml:space="preserve" font-family="GillSans,Gill Sans" font-size="38.6" fill="#FEFFFF" transform="matrix(1.00, 0.00, -0.00, -1.00, 170.4, 399.8)">s</text><text xml:space="preserve" font-family="GillSans,Gill Sans" font-size="38.6" fill="#FEFFFF" transform="matrix(1.00, 0.00, -0.00, -1.00, 185.3, 399.8)">e</text><text xml:space="preserve" font-family="GillSans,Gill Sans" font-size="38.6" fill="#FEFFFF" transform="matrix(1.00, 0.00, -0.00, -1.00, 203.8, 399.8)">r</text><text xml:space="preserve" font-family="GillSans,Gill Sans" font-size="38.6" fill="#FEFFFF" transform="matrix(1.00, 0.00, -0.00, -1.00, 219.1, 399.8)">i</text><text xml:space="preserve" font-family="GillSans,Gill Sans" font-size="38.6" fill="#FEFFFF" transform="matrix(1.00, 0.00, -0.00, -1.00, 227.5, 399.8)">a</text><text xml:space="preserve" font-family="GillSans,Gill Sans" font-size="38.6" fill="#FEFFFF" transform="matrix(1.00, 0.00, -0.00, -1.00, 244.0, 399.8)">l</text><text xml:space="preserve" font-family="GillSans,Gill Sans" font-size="38.6" fill="#FEFFFF" transform="matrix(1.00, 0.00, -0.00, -1.00, 252.5, 399.8)">i</text><text xml:space="preserve" font-family="GillSans,Gill Sans" font-size="38.6" fill="#FEFFFF" transform="matrix(1.00, 0.00, -0.00, -1.00, 261.0, 399.8)">z</text><text xml:space="preserve" font-family="GillSans,Gill Sans" font-size="38.6" fill="#FEFFFF" transform="matrix(1.00, 0.00, -0.00, -1.00, 277.1, 399.8)">a</text><text xml:space="preserve" font-family="GillSans,Gill Sans" font-size="38.6" fill="#FEFFFF" transform="matrix(1.00, 0.00, -0.00, -1.00, 293.6, 399.8)">t</text><text xml:space="preserve" font-family="GillSans,Gill Sans" font-size="38.6" fill="#FEFFFF" transform="matrix(1.00, 0.00, -0.00, -1.00, 306.5, 399.8)">i</text><text xml:space="preserve" font-family="GillSans,Gill Sans" font-size="38.6" fill="#FEFFFF" transform="matrix(1.00, 0.00, -0.00, -1.00, 314.9, 399.8)">o</text><text xml:space="preserve" font-family="GillSans,Gill Sans" font-size="38.6" fill="#FEFFFF" transform="matrix(1.00, 0.00, -0.00, -1.00, 336.2, 399.8)">n</text><text xml:space="preserve" font-family="GillSans,Gill Sans" font-size="38.6" fill="#FEFFFF" transform="matrix(1.00, 0.00, -0.00, -1.00, 355.6, 399.8)"> </text><text xml:space="preserve" font-family="GillSans,Gill Sans" font-size="38.6" fill="#FEFFFF" transform="matrix(1.00, 0.00, -0.00, -1.00, 366.3, 399.8)">f</text><text xml:space="preserve" font-family="GillSans,Gill Sans" font-size="38.6" fill="#FEFFFF" transform="matrix(1.00, 0.00, -0.00, -1.00, 375.6, 399.8)">o</text><text xml:space="preserve" font-family="GillSans,Gill Sans" font-size="38.6" fill="#FEFFFF" transform="matrix(1.00, 0.00, -0.00, -1.00, 396.9, 399.8)">r</text><text xml:space="preserve" font-family="GillSans,Gill Sans" font-size="38.6" fill="#FEFFFF" transform="matrix(1.00, 0.00, -0.00, -1.00, 412.2, 399.8)">m</text><text xml:space="preserve" font-family="GillSans,Gill Sans" font-size="38.6" fill="#FEFFFF" transform="matrix(1.00, 0.00, -0.00, -1.00, 442.0, 399.8)">a</text><text xml:space="preserve" font-family="GillSans,Gill Sans" font-size="38.6" fill="#FEFFFF" transform="matrix(1.00, 0.00, -0.00, -1.00, 458.5, 399.8)">t</text><text xml:space="preserve" font-family="GillSans,Gill Sans" font-size="38.6" fill="#FEFFFF" transform="matrix(1.00, 0.00, -0.00, -1.00, 471.3, 399.8)">s</text><text xml:space="preserve" font-family="GillSans,Gill Sans" font-size="66.1" fill="#FEFFFF" transform="matrix(1.00, 0.00, -0.00, -1.00, 129.0, 324.1)">•</text><text xml:space="preserve" font-family="GillSans,Gill Sans" font-size="38.6" fill="#FEFFFF" transform="matrix(1.00, 0.00, -0.00, -1.00, 170.4, 333.7)">O</text><text xml:space="preserve" font-family="GillSans,Gill Sans" font-size="38.6" fill="#FEFFFF" transform="matrix(1.00, 0.00, -0.00, -1.00, 202.2, 333.7)">r</text><text xml:space="preserve" font-family="GillSans,Gill Sans" font-size="38.6" fill="#FEFFFF" transform="matrix(1.00, 0.00, -0.00, -1.00, 217.5, 333.7)">i</text><text xml:space="preserve" font-family="GillSans,Gill Sans" font-size="38.6" fill="#FEFFFF" transform="matrix(1.00, 0.00, -0.00, -1.00, 226.0, 333.7)">g</text><text xml:space="preserve" font-family="GillSans,Gill Sans" font-size="38.6" fill="#FEFFFF" transform="matrix(1.00, 0.00, -0.00, -1.00, 242.5, 333.7)">i</text><text xml:space="preserve" font-family="GillSans,Gill Sans" font-size="38.6" fill="#FEFFFF" transform="matrix(1.00, 0.00, -0.00, -1.00, 251.0, 333.7)">n</text><text xml:space="preserve" font-family="GillSans,Gill Sans" font-size="38.6" fill="#FEFFFF" transform="matrix(1.00, 0.00, -0.00, -1.00, 270.3, 333.7)">a</text><text xml:space="preserve" font-family="GillSans,Gill Sans" font-size="38.6" fill="#FEFFFF" transform="matrix(1.00, 0.00, -0.00, -1.00, 286.8, 333.7)">l</text><text xml:space="preserve" font-family="GillSans,Gill Sans" font-size="38.6" fill="#FEFFFF" transform="matrix(1.00, 0.00, -0.00, -1.00, 295.2, 333.7)"> </text><text xml:space="preserve" font-family="GillSans,Gill Sans" font-size="38.6" fill="#FEFFFF" transform="matrix(1.00, 0.00, -0.00, -1.00, 306.0, 333.7)">f</text><text xml:space="preserve" font-family="GillSans,Gill Sans" font-size="38.6" fill="#FEFFFF" transform="matrix(1.00, 0.00, -0.00, -1.00, 315.6, 333.7)">u</text><text xml:space="preserve" font-family="GillSans,Gill Sans" font-size="38.6" fill="#FEFFFF" transform="matrix(1.00, 0.00, -0.00, -1.00, 334.9, 333.7)">n</text><text xml:space="preserve" font-family="GillSans,Gill Sans" font-size="38.6" fill="#FEFFFF" transform="matrix(1.00, 0.00, -0.00, -1.00, 354.3, 333.7)">c</text><text xml:space="preserve" font-family="GillSans,Gill Sans" font-size="38.6" fill="#FEFFFF" transform="matrix(1.00, 0.00, -0.00, -1.00, 371.2, 333.7)">t</text><text xml:space="preserve" font-family="GillSans,Gill Sans" font-size="38.6" fill="#FEFFFF" transform="matrix(1.00, 0.00, -0.00, -1.00, 384.1, 333.7)">i</text><text xml:space="preserve" font-family="GillSans,Gill Sans" font-size="38.6" fill="#FEFFFF" transform="matrix(1.00, 0.00, -0.00, -1.00, 392.5, 333.7)">o</text><text xml:space="preserve" font-family="GillSans,Gill Sans" font-size="38.6" fill="#FEFFFF" transform="matrix(1.00, 0.00, -0.00, -1.00, 413.9, 333.7)">n</text><text xml:space="preserve" font-family="GillSans,Gill Sans" font-size="38.6" fill="#FEFFFF" transform="matrix(1.00, 0.00, -0.00, -1.00, 433.2, 333.7)">:</text><text xml:space="preserve" font-family="GillSans,Gill Sans" font-size="38.6" fill="#FEFFFF" transform="matrix(1.00, 0.00, -0.00, -1.00, 437.8, 333.7)"> </text><text xml:space="preserve" font-family="GillSans,Gill Sans" font-size="38.6" fill="#FEFFFF" transform="matrix(1.00, 0.00, -0.00, -1.00, 448.5, 333.7)">R</text><text xml:space="preserve" font-family="GillSans,Gill Sans" font-size="38.6" fill="#FEFFFF" transform="matrix(1.00, 0.00, -0.00, -1.00, 471.8, 333.7)">e</text><text xml:space="preserve" font-family="GillSans,Gill Sans" font-size="38.6" fill="#FEFFFF" transform="matrix(1.00, 0.00, -0.00, -1.00, 490.4, 333.7)">s</text><text xml:space="preserve" font-family="GillSans,Gill Sans" font-size="38.6" fill="#FEFFFF" transform="matrix(1.00, 0.00, -0.00, -1.00, 505.2, 333.7)">p</text><text xml:space="preserve" font-family="GillSans,Gill Sans" font-size="38.6" fill="#FEFFFF" transform="matrix(1.00, 0.00, -0.00, -1.00, 524.5, 333.7)">o</text><text xml:space="preserve" font-family="GillSans,Gill Sans" font-size="38.6" fill="#FEFFFF" transform="matrix(1.00, 0.00, -0.00, -1.00, 545.8, 333.7)">n</text><text xml:space="preserve" font-family="GillSans,Gill Sans" font-size="38.6" fill="#FEFFFF" transform="matrix(1.00, 0.00, -0.00, -1.00, 565.2, 333.7)">d</text><text xml:space="preserve" font-family="GillSans,Gill Sans" font-size="38.6" fill="#FEFFFF" transform="matrix(1.00, 0.00, -0.00, -1.00, 584.9, 333.7)"> </text><text xml:space="preserve" font-family="GillSans,Gill Sans" font-size="38.6" fill="#FEFFFF" transform="matrix(1.00, 0.00, -0.00, -1.00, 595.6, 333.7)">t</text><text xml:space="preserve" font-family="GillSans,Gill Sans" font-size="38.6" fill="#FEFFFF" transform="matrix(1.00, 0.00, -0.00, -1.00, 608.5, 333.7)">o</text><text xml:space="preserve" font-family="GillSans,Gill Sans" font-size="38.6" fill="#FEFFFF" transform="matrix(1.00, 0.00, -0.00, -1.00, 629.8, 333.7)"> </text><text xml:space="preserve" font-family="GillSans,Gill Sans" font-size="38.6" fill="#FEFFFF" transform="matrix(1.00, 0.00, -0.00, -1.00, 640.5, 333.7)">o</text><text xml:space="preserve" font-family="GillSans,Gill Sans" font-size="38.6" fill="#FEFFFF" transform="matrix(1.00, 0.00, -0.00, -1.00, 661.8, 333.7)">n</text><text xml:space="preserve" font-family="GillSans,Gill Sans" font-size="38.6" fill="#FEFFFF" transform="matrix(1.00, 0.00, -0.00, -1.00, 681.1, 333.7)">l</text><text xml:space="preserve" font-family="GillSans,Gill Sans" font-size="38.6" fill="#FEFFFF" transform="matrix(1.00, 0.00, -0.00, -1.00, 689.6, 333.7)">i</text><text xml:space="preserve" font-family="GillSans,Gill Sans" font-size="38.6" fill="#FEFFFF" transform="matrix(1.00, 0.00, -0.00, -1.00, 698.1, 333.7)">n</text><text xml:space="preserve" font-family="GillSans,Gill Sans" font-size="38.6" fill="#FEFFFF" transform="matrix(1.00, 0.00, -0.00, -1.00, 717.4, 333.7)">e</text><text xml:space="preserve" font-family="GillSans,Gill Sans" font-size="38.6" fill="#FEFFFF" transform="matrix(1.00, 0.00, -0.00, -1.00, 735.9, 333.7)"> </text><text xml:space="preserve" font-family="GillSans,Gill Sans" font-size="38.6" fill="#FEFFFF" transform="matrix(1.00, 0.00, -0.00, -1.00, 746.6, 333.7)">t</text><text xml:space="preserve" font-family="GillSans,Gill Sans" font-size="38.6" fill="#FEFFFF" transform="matrix(1.00, 0.00, -0.00, -1.00, 759.5, 333.7)">e</text><text xml:space="preserve" font-family="GillSans,Gill Sans" font-size="38.6" fill="#FEFFFF" transform="matrix(1.00, 0.00, -0.00, -1.00, 778.0, 333.7)">s</text><text xml:space="preserve" font-family="GillSans,Gill Sans" font-size="38.6" fill="#FEFFFF" transform="matrix(1.00, 0.00, -0.00, -1.00, 792.9, 333.7)">t</text><text xml:space="preserve" font-family="GillSans,Gill Sans" font-size="38.6" fill="#FEFFFF" transform="matrix(1.00, 0.00, -0.00, -1.00, 805.7, 333.7)"> </text><text xml:space="preserve" font-family="GillSans,Gill Sans" font-size="38.6" fill="#FEFFFF" transform="matrix(1.00, 0.00, -0.00, -1.00, 170.4, 289.7)">r</text><text xml:space="preserve" font-family="GillSans,Gill Sans" font-size="38.6" fill="#FEFFFF" transform="matrix(1.00, 0.00, -0.00, -1.00, 185.7, 289.7)">u</text><text xml:space="preserve" font-family="GillSans,Gill Sans" font-size="38.6" fill="#FEFFFF" transform="matrix(1.00, 0.00, -0.00, -1.00, 205.0, 289.7)">n</text><text xml:space="preserve" font-family="GillSans,Gill Sans" font-size="38.6" fill="#FEFFFF" transform="matrix(1.00, 0.00, -0.00, -1.00, 224.3, 289.7)">n</text><text xml:space="preserve" font-family="GillSans,Gill Sans" font-size="38.6" fill="#FEFFFF" transform="matrix(1.00, 0.00, -0.00, -1.00, 243.7, 289.7)">e</text><text xml:space="preserve" font-family="GillSans,Gill Sans" font-size="38.6" fill="#FEFFFF" transform="matrix(1.00, 0.00, -0.00, -1.00, 262.2, 289.7)">r</text><text xml:space="preserve" font-family="GillSans,Gill Sans" font-size="38.6" fill="#FEFFFF" transform="matrix(1.00, 0.00, -0.00, -1.00, 277.5, 289.7)"> </text><text xml:space="preserve" font-family="GillSans,Gill Sans" font-size="38.6" fill="#FEFFFF" transform="matrix(1.00, 0.00, -0.00, -1.00, 288.2, 289.7)">f</text><text xml:space="preserve" font-family="GillSans,Gill Sans" font-size="38.6" fill="#FEFFFF" transform="matrix(1.00, 0.00, -0.00, -1.00, 297.5, 289.7)">o</text><text xml:space="preserve" font-family="GillSans,Gill Sans" font-size="38.6" fill="#FEFFFF" transform="matrix(1.00, 0.00, -0.00, -1.00, 318.8, 289.7)">r</text><text xml:space="preserve" font-family="GillSans,Gill Sans" font-size="38.6" fill="#FEFFFF" transform="matrix(1.00, 0.00, -0.00, -1.00, 334.1, 289.7)"> </text><text xml:space="preserve" font-family="GillSans,Gill Sans" font-size="38.6" fill="#FEFFFF" transform="matrix(1.00, 0.00, -0.00, -1.00, 344.8, 289.7)">R</text><text xml:space="preserve" font-family="GillSans,Gill Sans" font-size="38.6" fill="#FEFFFF" transform="matrix(1.00, 0.00, -0.00, -1.00, 368.2, 289.7)">D</text><text xml:space="preserve" font-family="GillSans,Gill Sans" font-size="38.6" fill="#FEFFFF" transform="matrix(1.00, 0.00, -0.00, -1.00, 397.2, 289.7)">F</text><text xml:space="preserve" font-family="GillSans,Gill Sans" font-size="38.6" fill="#FEFFFF" transform="matrix(1.00, 0.00, -0.00, -1.00, 415.3, 289.7)">a</text><text xml:space="preserve" font-family="GillSans,Gill Sans" font-size="38.6" fill="#FEFFFF" transform="matrix(1.00, 0.00, -0.00, -1.00, 431.8, 289.7)"> </text><text xml:space="preserve" font-family="GillSans,Gill Sans" font-size="38.6" fill="#FEFFFF" transform="matrix(1.00, 0.00, -0.00, -1.00, 437.7, 289.7)">T</text><text xml:space="preserve" font-family="GillSans,Gill Sans" font-size="38.6" fill="#FEFFFF" transform="matrix(1.00, 0.00, -0.00, -1.00, 455.2, 289.7)">e</text><text xml:space="preserve" font-family="GillSans,Gill Sans" font-size="38.6" fill="#FEFFFF" transform="matrix(1.00, 0.00, -0.00, -1.00, 473.7, 289.7)">s</text><text xml:space="preserve" font-family="GillSans,Gill Sans" font-size="38.6" fill="#FEFFFF" transform="matrix(1.00, 0.00, -0.00, -1.00, 488.6, 289.7)">t</text><text xml:space="preserve" font-family="GillSans,Gill Sans" font-size="38.6" fill="#FEFFFF" transform="matrix(1.00, 0.00, -0.00, -1.00, 501.5, 289.7)"> </text><text xml:space="preserve" font-family="GillSans,Gill Sans" font-size="38.6" fill="#FEFFFF" transform="matrix(1.00, 0.00, -0.00, -1.00, 512.2, 289.7)">S</text><text xml:space="preserve" font-family="GillSans,Gill Sans" font-size="38.6" fill="#FEFFFF" transform="matrix(1.00, 0.00, -0.00, -1.00, 529.9, 289.7)">u</text><text xml:space="preserve" font-family="GillSans,Gill Sans" font-size="38.6" fill="#FEFFFF" transform="matrix(1.00, 0.00, -0.00, -1.00, 549.2, 289.7)">i</text><text xml:space="preserve" font-family="GillSans,Gill Sans" font-size="38.6" fill="#FEFFFF" transform="matrix(1.00, 0.00, -0.00, -1.00, 557.7, 289.7)">t</text><text xml:space="preserve" font-family="GillSans,Gill Sans" font-size="38.6" fill="#FEFFFF" transform="matrix(1.00, 0.00, -0.00, -1.00, 570.6, 289.7)">e</text><g><clipPath id="clip0x7fcd20f4f1f0"><path d="M 343.8 284.9 L 589.1 284.9 L 589.1 288.8 L 343.8 288.8 Z M 343.8 284.9 "></path></clipPath><g clip-path="url(#clip0x7fcd20f4f1f0)"><path d="M 244.8 263.2 L 489.1 263.2 " fill="none" stroke="#FEFFFF" stroke-width="1.92" transform="matrix(1.00, 0.00, 0.00, -1.00, 100.0, 550.0)"></path></g></g><text xml:space="preserve" font-family="GillSans,Gill Sans" font-size="66.1" fill="#FEFFFF" transform="matrix(1.00, 0.00, -0.00, -1.00, 129.0, 214.0)">•</text><text xml:space="preserve" font-family="GillSans,Gill Sans" font-size="38.6" fill="#FEFFFF" transform="matrix(1.00, 0.00, -0.00, -1.00, 170.4, 223.7)">S</text><text xml:space="preserve" font-family="GillSans,Gill Sans" font-size="38.6" fill="#FEFFFF" transform="matrix(1.00, 0.00, -0.00, -1.00, 188.1, 223.7)">e</text><text xml:space="preserve" font-family="GillSans,Gill Sans" font-size="38.6" fill="#FEFFFF" transform="matrix(1.00, 0.00, -0.00, -1.00, 206.6, 223.7)">r</text><text xml:space="preserve" font-family="GillSans,Gill Sans" font-size="38.6" fill="#FEFFFF" transform="matrix(1.00, 0.00, -0.00, -1.00, 221.9, 223.7)">i</text><text xml:space="preserve" font-family="GillSans,Gill Sans" font-size="38.6" fill="#FEFFFF" transform="matrix(1.00, 0.00, -0.00, -1.00, 230.4, 223.7)">a</text><text xml:space="preserve" font-family="GillSans,Gill Sans" font-size="38.6" fill="#FEFFFF" transform="matrix(1.00, 0.00, -0.00, -1.00, 246.9, 223.7)">l</text><text xml:space="preserve" font-family="GillSans,Gill Sans" font-size="38.6" fill="#FEFFFF" transform="matrix(1.00, 0.00, -0.00, -1.00, 255.3, 223.7)">i</text><text xml:space="preserve" font-family="GillSans,Gill Sans" font-size="38.6" fill="#FEFFFF" transform="matrix(1.00, 0.00, -0.00, -1.00, 263.8, 223.7)">z</text><text xml:space="preserve" font-family="GillSans,Gill Sans" font-size="38.6" fill="#FEFFFF" transform="matrix(1.00, 0.00, -0.00, -1.00, 279.9, 223.7)">i</text><text xml:space="preserve" font-family="GillSans,Gill Sans" font-size="38.6" fill="#FEFFFF" transform="matrix(1.00, 0.00, -0.00, -1.00, 288.4, 223.7)">n</text><text xml:space="preserve" font-family="GillSans,Gill Sans" font-size="38.6" fill="#FEFFFF" transform="matrix(1.00, 0.00, -0.00, -1.00, 307.7, 223.7)">g</text><text xml:space="preserve" font-family="GillSans,Gill Sans" font-size="38.6" fill="#FEFFFF" transform="matrix(1.00, 0.00, -0.00, -1.00, 324.2, 223.7)"> </text><text xml:space="preserve" font-family="GillSans,Gill Sans" font-size="38.6" fill="#FEFFFF" transform="matrix(1.00, 0.00, -0.00, -1.00, 334.9, 223.7)">t</text><text xml:space="preserve" font-family="GillSans,Gill Sans" font-size="38.6" fill="#FEFFFF" transform="matrix(1.00, 0.00, -0.00, -1.00, 347.8, 223.7)">o</text><text xml:space="preserve" font-family="GillSans,Gill Sans" font-size="38.6" fill="#FEFFFF" transform="matrix(1.00, 0.00, -0.00, -1.00, 369.1, 223.7)"> </text><text xml:space="preserve" font-family="GillSans,Gill Sans" font-size="38.6" fill="#FEFFFF" transform="matrix(1.00, 0.00, -0.00, -1.00, 379.9, 223.7)">H</text><text xml:space="preserve" font-family="GillSans,Gill Sans" font-size="38.6" fill="#FEFFFF" transform="matrix(1.00, 0.00, -0.00, -1.00, 408.0, 223.7)">T</text><text xml:space="preserve" font-family="GillSans,Gill Sans" font-size="38.6" fill="#FEFFFF" transform="matrix(1.00, 0.00, -0.00, -1.00, 431.4, 223.7)">M</text><text xml:space="preserve" font-family="GillSans,Gill Sans" font-size="38.6" fill="#FEFFFF" transform="matrix(1.00, 0.00, -0.00, -1.00, 461.5, 223.7)">L</text><text xml:space="preserve" font-family="GillSans,Gill Sans" font-size="38.6" fill="#FEFFFF" transform="matrix(1.00, 0.00, -0.00, -1.00, 480.5, 223.7)"> </text><text xml:space="preserve" font-family="GillSans,Gill Sans" font-size="38.6" fill="#FEFFFF" transform="matrix(1.00, 0.00, -0.00, -1.00, 491.2, 223.7)">p</text><text xml:space="preserve" font-family="GillSans,Gill Sans" font-size="38.6" fill="#FEFFFF" transform="matrix(1.00, 0.00, -0.00, -1.00, 510.5, 223.7)">r</text><text xml:space="preserve" font-family="GillSans,Gill Sans" font-size="38.6" fill="#FEFFFF" transform="matrix(1.00, 0.00, -0.00, -1.00, 524.9, 223.7)">o</text><text xml:space="preserve" font-family="GillSans,Gill Sans" font-size="38.6" fill="#FEFFFF" transform="matrix(1.00, 0.00, -0.00, -1.00, 545.8, 223.7)">v</text><text xml:space="preserve" font-family="GillSans,Gill Sans" font-size="38.6" fill="#FEFFFF" transform="matrix(1.00, 0.00, -0.00, -1.00, 562.7, 223.7)">i</text><text xml:space="preserve" font-family="GillSans,Gill Sans" font-size="38.6" fill="#FEFFFF" transform="matrix(1.00, 0.00, -0.00, -1.00, 571.2, 223.7)">d</text><text xml:space="preserve" font-family="GillSans,Gill Sans" font-size="38.6" fill="#FEFFFF" transform="matrix(1.00, 0.00, -0.00, -1.00, 590.9, 223.7)">e</text><text xml:space="preserve" font-family="GillSans,Gill Sans" font-size="38.6" fill="#FEFFFF" transform="matrix(1.00, 0.00, -0.00, -1.00, 609.4, 223.7)">s</text><text xml:space="preserve" font-family="GillSans,Gill Sans" font-size="38.6" fill="#FEFFFF" transform="matrix(1.00, 0.00, -0.00, -1.00, 624.3, 223.7)"> </text><text xml:space="preserve" font-family="GillSans,Gill Sans" font-size="38.6" fill="#FEFFFF" transform="matrix(1.00, 0.00, -0.00, -1.00, 635.0, 223.7)">b</text><text xml:space="preserve" font-family="GillSans,Gill Sans" font-size="38.6" fill="#FEFFFF" transform="matrix(1.00, 0.00, -0.00, -1.00, 654.3, 223.7)">a</text><text xml:space="preserve" font-family="GillSans,Gill Sans" font-size="38.6" fill="#FEFFFF" transform="matrix(1.00, 0.00, -0.00, -1.00, 670.8, 223.7)">s</text><text xml:space="preserve" font-family="GillSans,Gill Sans" font-size="38.6" fill="#FEFFFF" transform="matrix(1.00, 0.00, -0.00, -1.00, 685.6, 223.7)">i</text><text xml:space="preserve" font-family="GillSans,Gill Sans" font-size="38.6" fill="#FEFFFF" transform="matrix(1.00, 0.00, -0.00, -1.00, 694.1, 223.7)">c</text><text xml:space="preserve" font-family="GillSans,Gill Sans" font-size="38.6" fill="#FEFFFF" transform="matrix(1.00, 0.00, -0.00, -1.00, 711.0, 223.7)"> </text><text xml:space="preserve" font-family="GillSans,Gill Sans" font-size="38.6" fill="#FEFFFF" transform="matrix(1.00, 0.00, -0.00, -1.00, 170.4, 179.7)">r</text><text xml:space="preserve" font-family="GillSans,Gill Sans" font-size="38.6" fill="#FEFFFF" transform="matrix(1.00, 0.00, -0.00, -1.00, 184.9, 179.7)">e</text><text xml:space="preserve" font-family="GillSans,Gill Sans" font-size="38.6" fill="#FEFFFF" transform="matrix(1.00, 0.00, -0.00, -1.00, 203.4, 179.7)">p</text><text xml:space="preserve" font-family="GillSans,Gill Sans" font-size="38.6" fill="#FEFFFF" transform="matrix(1.00, 0.00, -0.00, -1.00, 222.8, 179.7)">r</text><text xml:space="preserve" font-family="GillSans,Gill Sans" font-size="38.6" fill="#FEFFFF" transform="matrix(1.00, 0.00, -0.00, -1.00, 237.3, 179.7)">e</text><text xml:space="preserve" font-family="GillSans,Gill Sans" font-size="38.6" fill="#FEFFFF" transform="matrix(1.00, 0.00, -0.00, -1.00, 255.8, 179.7)">s</text><text xml:space="preserve" font-family="GillSans,Gill Sans" font-size="38.6" fill="#FEFFFF" transform="matrix(1.00, 0.00, -0.00, -1.00, 270.7, 179.7)">e</text><text xml:space="preserve" font-family="GillSans,Gill Sans" font-size="38.6" fill="#FEFFFF" transform="matrix(1.00, 0.00, -0.00, -1.00, 289.2, 179.7)">n</text><text xml:space="preserve" font-family="GillSans,Gill Sans" font-size="38.6" fill="#FEFFFF" transform="matrix(1.00, 0.00, -0.00, -1.00, 308.5, 179.7)">t</text><text xml:space="preserve" font-family="GillSans,Gill Sans" font-size="38.6" fill="#FEFFFF" transform="matrix(1.00, 0.00, -0.00, -1.00, 321.4, 179.7)">a</text><text xml:space="preserve" font-family="GillSans,Gill Sans" font-size="38.6" fill="#FEFFFF" transform="matrix(1.00, 0.00, -0.00, -1.00, 337.8, 179.7)">t</text><text xml:space="preserve" font-family="GillSans,Gill Sans" font-size="38.6" fill="#FEFFFF" transform="matrix(1.00, 0.00, -0.00, -1.00, 350.7, 179.7)">i</text><text xml:space="preserve" font-family="GillSans,Gill Sans" font-size="38.6" fill="#FEFFFF" transform="matrix(1.00, 0.00, -0.00, -1.00, 359.2, 179.7)">o</text><text xml:space="preserve" font-family="GillSans,Gill Sans" font-size="38.6" fill="#FEFFFF" transform="matrix(1.00, 0.00, -0.00, -1.00, 380.5, 179.7)">n</text><text xml:space="preserve" font-family="GillSans,Gill Sans" font-size="38.6" fill="#FEFFFF" transform="matrix(1.00, 0.00, -0.00, -1.00, 399.8, 179.7)"> </text><text xml:space="preserve" font-family="GillSans,Gill Sans" font-size="38.6" fill="#FEFFFF" transform="matrix(1.00, 0.00, -0.00, -1.00, 410.5, 179.7)">o</text><text xml:space="preserve" font-family="GillSans,Gill Sans" font-size="38.6" fill="#FEFFFF" transform="matrix(1.00, 0.00, -0.00, -1.00, 431.9, 179.7)">f</text><text xml:space="preserve" font-family="GillSans,Gill Sans" font-size="38.6" fill="#FEFFFF" transform="matrix(1.00, 0.00, -0.00, -1.00, 441.5, 179.7)"> </text><text xml:space="preserve" font-family="GillSans,Gill Sans" font-size="38.6" fill="#FEFFFF" transform="matrix(1.00, 0.00, -0.00, -1.00, 452.2, 179.7)">o</text><text xml:space="preserve" font-family="GillSans,Gill Sans" font-size="38.6" fill="#FEFFFF" transform="matrix(1.00, 0.00, -0.00, -1.00, 473.6, 179.7)">r</text><text xml:space="preserve" font-family="GillSans,Gill Sans" font-size="38.6" fill="#FEFFFF" transform="matrix(1.00, 0.00, -0.00, -1.00, 488.9, 179.7)">i</text><text xml:space="preserve" font-family="GillSans,Gill Sans" font-size="38.6" fill="#FEFFFF" transform="matrix(1.00, 0.00, -0.00, -1.00, 497.3, 179.7)">g</text><text xml:space="preserve" font-family="GillSans,Gill Sans" font-size="38.6" fill="#FEFFFF" transform="matrix(1.00, 0.00, -0.00, -1.00, 513.8, 179.7)">i</text><text xml:space="preserve" font-family="GillSans,Gill Sans" font-size="38.6" fill="#FEFFFF" transform="matrix(1.00, 0.00, -0.00, -1.00, 522.3, 179.7)">n</text><text xml:space="preserve" font-family="GillSans,Gill Sans" font-size="38.6" fill="#FEFFFF" transform="matrix(1.00, 0.00, -0.00, -1.00, 541.6, 179.7)">a</text><text xml:space="preserve" font-family="GillSans,Gill Sans" font-size="38.6" fill="#FEFFFF" transform="matrix(1.00, 0.00, -0.00, -1.00, 558.1, 179.7)">l</text><text xml:space="preserve" font-family="GillSans,Gill Sans" font-size="38.6" fill="#FEFFFF" transform="matrix(1.00, 0.00, -0.00, -1.00, 566.6, 179.7)"> </text><text xml:space="preserve" font-family="GillSans,Gill Sans" font-size="38.6" fill="#FEFFFF" transform="matrix(1.00, 0.00, -0.00, -1.00, 577.3, 179.7)">i</text><text xml:space="preserve" font-family="GillSans,Gill Sans" font-size="38.6" fill="#FEFFFF" transform="matrix(1.00, 0.00, -0.00, -1.00, 585.8, 179.7)">n</text><text xml:space="preserve" font-family="GillSans,Gill Sans" font-size="38.6" fill="#FEFFFF" transform="matrix(1.00, 0.00, -0.00, -1.00, 605.1, 179.7)">p</text><text xml:space="preserve" font-family="GillSans,Gill Sans" font-size="38.6" fill="#FEFFFF" transform="matrix(1.00, 0.00, -0.00, -1.00, 624.4, 179.7)">u</text><text xml:space="preserve" font-family="GillSans,Gill Sans" font-size="38.6" fill="#FEFFFF" transform="matrix(1.00, 0.00, -0.00, -1.00, 643.7, 179.7)">t</text><text xml:space="preserve" font-family="GillSans,Gill Sans" font-size="66.1" fill="#FEFFFF" transform="matrix(1.00, 0.00, -0.00, -1.00, 164.0, 103.9)">•</text><text xml:space="preserve" font-family="GillSans,Gill Sans" font-size="38.6" fill="#FEFFFF" transform="matrix(1.00, 0.00, -0.00, -1.00, 205.4, 113.6)">e</text><text xml:space="preserve" font-family="GillSans,Gill Sans" font-size="38.6" fill="#FEFFFF" transform="matrix(1.00, 0.00, -0.00, -1.00, 224.7, 113.6)">.</text><text xml:space="preserve" font-family="GillSans,Gill Sans" font-size="38.6" fill="#FEFFFF" transform="matrix(1.00, 0.00, -0.00, -1.00, 233.2, 113.6)">g</text><text xml:space="preserve" font-family="GillSans,Gill Sans" font-size="38.6" fill="#FEFFFF" transform="matrix(1.00, 0.00, -0.00, -1.00, 249.6, 113.6)">.</text><text xml:space="preserve" font-family="GillSans,Gill Sans" font-size="38.6" fill="#FEFFFF" transform="matrix(1.00, 0.00, -0.00, -1.00, 254.3, 113.6)"> </text><text xml:space="preserve" font-family="GillSans,Gill Sans" font-size="38.6" fill="#FEFFFF" transform="matrix(1.00, 0.00, -0.00, -1.00, 265.0, 113.6)">f</text><text xml:space="preserve" font-family="GillSans,Gill Sans" font-size="38.6" fill="#FEFFFF" transform="matrix(1.00, 0.00, -0.00, -1.00, 274.6, 113.6)">r</text><text xml:space="preserve" font-family="GillSans,Gill Sans" font-size="38.6" fill="#FEFFFF" transform="matrix(1.00, 0.00, -0.00, -1.00, 289.9, 113.6)">a</text><text xml:space="preserve" font-family="GillSans,Gill Sans" font-size="38.6" fill="#FEFFFF" transform="matrix(1.00, 0.00, -0.00, -1.00, 306.4, 113.6)">n</text><text xml:space="preserve" font-family="GillSans,Gill Sans" font-size="38.6" fill="#FEFFFF" transform="matrix(1.00, 0.00, -0.00, -1.00, 325.7, 113.6)">z</text><text xml:space="preserve" font-family="GillSans,Gill Sans" font-size="38.6" fill="#FEFFFF" transform="matrix(1.00, 0.00, -0.00, -1.00, 341.9, 113.6)">.</text><text xml:space="preserve" font-family="GillSans,Gill Sans" font-size="38.6" fill="#FEFFFF" transform="matrix(1.00, 0.00, -0.00, -1.00, 350.3, 113.6)">c</text><text xml:space="preserve" font-family="GillSans,Gill Sans" font-size="38.6" fill="#FEFFFF" transform="matrix(1.00, 0.00, -0.00, -1.00, 367.3, 113.6)">o</text><text xml:space="preserve" font-family="GillSans,Gill Sans" font-size="38.6" fill="#FEFFFF" transform="matrix(1.00, 0.00, -0.00, -1.00, 388.6, 113.6)">m</text><g><clipPath id="clip0x7fcd20f247a0"><path d="M 264.0 108.7 L 418.4 108.7 L 418.4 112.6 L 264.0 112.6 Z M 264.0 108.7 "></path></clipPath><g clip-path="url(#clip0x7fcd20f247a0)"><path d="M 165.0 439.3 L 318.4 439.3 " fill="none" stroke="#FEFFFF" stroke-width="1.92" transform="matrix(1.00, 0.00, 0.00, -1.00, 100.0, 550.0)"></path></g></g><text xml:space="preserve" font-family="GillSans,Gill Sans" font-size="18.0" fill="#FEFFFF" transform="matrix(1.00, 0.00, -0.00, -1.00, 507.0, 18.1)">6</text></g></svg>