<?xml version="1.0" encoding="UTF-8" standalone="no"?><svg xmlns="http://www.w3.org/2000/svg" xmlns:xlink="http://www.w3.org/1999/xlink" clip-rule="evenodd" stroke-miterlimit="4.00" viewBox="0 0 1024 768"><desc>SVG generated by Keynote</desc><defs></defs><g transform="matrix(1.00, 0.00, -0.00, -1.00, 0.0, 768.0)"><path d="M 0.0 768.0 L 1024.0 768.0 L 1024.0 0.0 L 0.0 0.0 Z M 0.0 768.0 " fill="#FEFFFF"></path><text xml:space="preserve" font-family="Helvetica" font-size="12.0" fill="#000000" transform="matrix(1.00, 0.00, -0.00, -1.00, 472.0, 26.0)">H</text><text xml:space="preserve" font-family="Helvetica" font-size="12.0" fill="#000000" transform="matrix(1.00, 0.00, -0.00, -1.00, 480.7, 26.0)">y</text><text xml:space="preserve" font-family="Helvetica" font-size="12.0" fill="#000000" transform="matrix(1.00, 0.00, -0.00, -1.00, 486.7, 26.0)">d</text><text xml:space="preserve" font-family="Helvetica" font-size="12.0" fill="#000000" transform="matrix(1.00, 0.00, -0.00, -1.00, 493.3, 26.0)">r</text><text xml:space="preserve" font-family="Helvetica" font-size="12.0" fill="#000000" transform="matrix(1.00, 0.00, -0.00, -1.00, 497.3, 26.0)">a</text><text xml:space="preserve" font-family="Helvetica" font-size="12.0" fill="#000000" transform="matrix(1.00, 0.00, -0.00, -1.00, 504.0, 26.0)"> </text><text xml:space="preserve" font-family="Helvetica" font-size="12.0" fill="#000000" transform="matrix(1.00, 0.00, -0.00, -1.00, 507.3, 26.0)">C</text><text xml:space="preserve" font-family="Helvetica" font-size="12.0" fill="#000000" transform="matrix(1.00, 0.00, -0.00, -1.00, 516.0, 26.0)">o</text><text xml:space="preserve" font-family="Helvetica" font-size="12.0" fill="#000000" transform="matrix(1.00, 0.00, -0.00, -1.00, 522.7, 26.0)">n</text><text xml:space="preserve" font-family="Helvetica" font-size="12.0" fill="#000000" transform="matrix(1.00, 0.00, -0.00, -1.00, 529.4, 26.0)">n</text><text xml:space="preserve" font-family="Helvetica" font-size="12.0" fill="#000000" transform="matrix(1.00, 0.00, -0.00, -1.00, 536.0, 26.0)">e</text><text xml:space="preserve" font-family="Helvetica" font-size="12.0" fill="#000000" transform="matrix(1.00, 0.00, -0.00, -1.00, 542.7, 26.0)">c</text><text xml:space="preserve" font-family="Helvetica" font-size="12.0" fill="#000000" transform="matrix(1.00, 0.00, -0.00, -1.00, 548.7, 26.0)">t</text><text xml:space="preserve" font-family="Helvetica" font-size="12.0" fill="#000000" transform="matrix(1.00, 0.00, -0.00, -1.00, 107.0, 26.0)">S</text><text xml:space="preserve" font-family="Helvetica" font-size="12.0" fill="#000000" transform="matrix(1.00, 0.00, -0.00, -1.00, 115.0, 26.0)">e</text><text xml:space="preserve" font-family="Helvetica" font-size="12.0" fill="#000000" transform="matrix(1.00, 0.00, -0.00, -1.00, 121.7, 26.0)">p</text><text xml:space="preserve" font-family="Helvetica" font-size="12.0" fill="#000000" transform="matrix(1.00, 0.00, -0.00, -1.00, 128.4, 26.0)">t</text><text xml:space="preserve" font-family="Helvetica" font-size="12.0" fill="#000000" transform="matrix(1.00, 0.00, -0.00, -1.00, 131.7, 26.0)">e</text><text xml:space="preserve" font-family="Helvetica" font-size="12.0" fill="#000000" transform="matrix(1.00, 0.00, -0.00, -1.00, 138.4, 26.0)">m</text><text xml:space="preserve" font-family="Helvetica" font-size="12.0" fill="#000000" transform="matrix(1.00, 0.00, -0.00, -1.00, 148.4, 26.0)">b</text><text xml:space="preserve" font-family="Helvetica" font-size="12.0" fill="#000000" transform="matrix(1.00, 0.00, -0.00, -1.00, 155.0, 26.0)">e</text><text xml:space="preserve" font-family="Helvetica" font-size="12.0" fill="#000000" transform="matrix(1.00, 0.00, -0.00, -1.00, 161.7, 26.0)">r</text><text xml:space="preserve" font-family="Helvetica" font-size="12.0" fill="#000000" transform="matrix(1.00, 0.00, -0.00, -1.00, 165.7, 26.0)"> </text><text xml:space="preserve" font-family="Helvetica" font-size="12.0" fill="#000000" transform="matrix(1.00, 0.00, -0.00, -1.00, 169.0, 26.0)">2</text><text xml:space="preserve" font-family="Helvetica" font-size="12.0" fill="#000000" transform="matrix(1.00, 0.00, -0.00, -1.00, 175.7, 26.0)">0</text><text xml:space="preserve" font-family="Helvetica" font-size="12.0" fill="#000000" transform="matrix(1.00, 0.00, -0.00, -1.00, 182.4, 26.0)">1</text><text xml:space="preserve" font-family="Helvetica" font-size="12.0" fill="#000000" transform="matrix(1.00, 0.00, -0.00, -1.00, 189.1, 26.0)">5</text><text xml:space="preserve" font-family="Helvetica-Light" font-size="50.0" fill="#000000" transform="matrix(1.00, 0.00, -0.00, -1.00, 329.0, 629.0)">R</text><text xml:space="preserve" font-family="Helvetica-Light" font-size="50.0" fill="#000000" transform="matrix(1.00, 0.00, -0.00, -1.00, 362.4, 629.0)">D</text><text xml:space="preserve" font-family="Helvetica-Light" font-size="50.0" fill="#000000" transform="matrix(1.00, 0.00, -0.00, -1.00, 398.4, 629.0)">F</text><text xml:space="preserve" font-family="Helvetica-Light" font-size="50.0" fill="#000000" transform="matrix(1.00, 0.00, -0.00, -1.00, 426.2, 629.0)"> </text><text xml:space="preserve" font-family="Helvetica-Light" font-size="50.0" fill="#000000" transform="matrix(1.00, 0.00, -0.00, -1.00, 440.1, 629.0)">A</text><text xml:space="preserve" font-family="Helvetica-Light" font-size="50.0" fill="#000000" transform="matrix(1.00, 0.00, -0.00, -1.00, 473.5, 629.0)">s</text><text xml:space="preserve" font-family="Helvetica-Light" font-size="50.0" fill="#000000" transform="matrix(1.00, 0.00, -0.00, -1.00, 498.5, 629.0)"> </text><text xml:space="preserve" font-family="Helvetica-Light" font-size="50.0" fill="#000000" transform="matrix(1.00, 0.00, -0.00, -1.00, 512.4, 629.0)">a</text><text xml:space="preserve" font-family="Helvetica-Light" font-size="50.0" fill="#000000" transform="matrix(1.00, 0.00, -0.00, -1.00, 540.2, 629.0)"> </text><text xml:space="preserve" font-family="Helvetica-Light" font-size="50.0" fill="#000000" transform="matrix(1.00, 0.00, -0.00, -1.00, 554.1, 629.0)">G</text><text xml:space="preserve" font-family="Helvetica-Light" font-size="50.0" fill="#000000" transform="matrix(1.00, 0.00, -0.00, -1.00, 593.0, 629.0)">r</text><text xml:space="preserve" font-family="Helvetica-Light" font-size="50.0" fill="#000000" transform="matrix(1.00, 0.00, -0.00, -1.00, 609.6, 629.0)">a</text><text xml:space="preserve" font-family="Helvetica-Light" font-size="50.0" fill="#000000" transform="matrix(1.00, 0.00, -0.00, -1.00, 637.5, 629.0)">p</text><text xml:space="preserve" font-family="Helvetica-Light" font-size="50.0" fill="#000000" transform="matrix(1.00, 0.00, -0.00, -1.00, 668.0, 629.0)">h</text><text xml:space="preserve" font-family="Helvetica-Light" font-size="12.0" fill="#000000" transform="matrix(1.00, 0.00, -0.00, -1.00, 929.0, 34.0)">1</text><text xml:space="preserve" font-family="Helvetica-Light" font-size="12.0" fill="#000000" transform="matrix(1.00, 0.00, -0.00, -1.00, 935.7, 34.0)">6</text><g><clipPath id="clip-67"><path d="M 151.0 246.1 L 507.4 246.1 L 507.4 289.1 L 151.0 289.1 Z M 151.0 246.1 "></path></clipPath><g clip-path="url(#clip-67)"><path d="M 0.0 0.0 L 352.4 0.0 L 352.4 39.0 L 0.0 39.0 Z M 0.0 0.0 " fill="none" stroke="#85878C" stroke-width="2.00" transform="matrix(1.00, 0.00, 0.00, -1.00, 153.0, 287.1)"></path></g></g><g><clipPath id="clip-68"><path d="M 152.0 247.1 L 506.4 247.1 L 506.4 288.1 L 152.0 288.1 Z M 152.0 247.1 "></path></clipPath><g clip-path="url(#clip-68)"><text xml:space="preserve" font-family="Helvetica-Light" font-size="24.0" fill="#000000" transform="matrix(1.00, 0.00, -0.00, -1.00, 159.0, 259.0)">2</text><text xml:space="preserve" font-family="Helvetica-Light" font-size="24.0" fill="#000000" transform="matrix(1.00, 0.00, -0.00, -1.00, 172.3, 259.0)">0</text><text xml:space="preserve" font-family="Helvetica-Light" font-size="24.0" fill="#000000" transform="matrix(1.00, 0.00, -0.00, -1.00, 185.7, 259.0)">0</text><text xml:space="preserve" font-family="Helvetica-Light" font-size="24.0" fill="#000000" transform="matrix(1.00, 0.00, -0.00, -1.00, 199.0, 259.0)">1</text><text xml:space="preserve" font-family="Helvetica-Light" font-size="24.0" fill="#000000" transform="matrix(1.00, 0.00, -0.00, -1.00, 212.4, 259.0)">:</text><text xml:space="preserve" font-family="Helvetica-Light" font-size="24.0" fill="#000000" transform="matrix(1.00, 0.00, -0.00, -1.00, 219.0, 259.0)">_</text><text xml:space="preserve" font-family="Helvetica-Light" font-size="24.0" fill="#000000" transform="matrix(1.00, 0.00, -0.00, -1.00, 231.0, 259.0)">A</text><text xml:space="preserve" font-family="Helvetica-Light" font-size="24.0" fill="#000000" transform="matrix(1.00, 0.00, -0.00, -1.00, 247.1, 259.0)">_</text><text xml:space="preserve" font-family="Helvetica-Light" font-size="24.0" fill="#000000" transform="matrix(1.00, 0.00, -0.00, -1.00, 259.1, 259.0)">S</text><text xml:space="preserve" font-family="Helvetica-Light" font-size="24.0" fill="#000000" transform="matrix(1.00, 0.00, -0.00, -1.00, 273.7, 259.0)">p</text><text xml:space="preserve" font-family="Helvetica-Light" font-size="24.0" fill="#000000" transform="matrix(1.00, 0.00, -0.00, -1.00, 288.4, 259.0)">a</text><text xml:space="preserve" font-family="Helvetica-Light" font-size="24.0" fill="#000000" transform="matrix(1.00, 0.00, -0.00, -1.00, 301.7, 259.0)">c</text><text xml:space="preserve" font-family="Helvetica-Light" font-size="24.0" fill="#000000" transform="matrix(1.00, 0.00, -0.00, -1.00, 315.1, 259.0)">e</text><text xml:space="preserve" font-family="Helvetica-Light" font-size="24.0" fill="#000000" transform="matrix(1.00, 0.00, -0.00, -1.00, 328.4, 259.0)">_</text><text xml:space="preserve" font-family="Helvetica-Light" font-size="24.0" fill="#000000" transform="matrix(1.00, 0.00, -0.00, -1.00, 340.4, 259.0)">O</text><text xml:space="preserve" font-family="Helvetica-Light" font-size="24.0" fill="#000000" transform="matrix(1.00, 0.00, -0.00, -1.00, 359.1, 259.0)">d</text><text xml:space="preserve" font-family="Helvetica-Light" font-size="24.0" fill="#000000" transform="matrix(1.00, 0.00, -0.00, -1.00, 373.8, 259.0)">y</text><text xml:space="preserve" font-family="Helvetica-Light" font-size="24.0" fill="#000000" transform="matrix(1.00, 0.00, -0.00, -1.00, 385.8, 259.0)">s</text><text xml:space="preserve" font-family="Helvetica-Light" font-size="24.0" fill="#000000" transform="matrix(1.00, 0.00, -0.00, -1.00, 397.8, 259.0)">s</text><text xml:space="preserve" font-family="Helvetica-Light" font-size="24.0" fill="#000000" transform="matrix(1.00, 0.00, -0.00, -1.00, 409.8, 259.0)">e</text><text xml:space="preserve" font-family="Helvetica-Light" font-size="24.0" fill="#000000" transform="matrix(1.00, 0.00, -0.00, -1.00, 423.1, 259.0)">y</text><text xml:space="preserve" font-family="Helvetica-Light" font-size="24.0" fill="#000000" transform="matrix(1.00, 0.00, -0.00, -1.00, 435.1, 259.0)">_</text><text xml:space="preserve" font-family="Helvetica-Light" font-size="24.0" fill="#000000" transform="matrix(1.00, 0.00, -0.00, -1.00, 447.1, 259.0)">(</text><text xml:space="preserve" font-family="Helvetica-Light" font-size="24.0" fill="#000000" transform="matrix(1.00, 0.00, -0.00, -1.00, 455.1, 259.0)">ﬁ</text><text xml:space="preserve" font-family="Helvetica-Light" font-size="24.0" fill="#000000" transform="matrix(1.00, 0.00, -0.00, -1.00, 467.1, 259.0)">l</text><text xml:space="preserve" font-family="Helvetica-Light" font-size="24.0" fill="#000000" transform="matrix(1.00, 0.00, -0.00, -1.00, 472.4, 259.0)">m</text><text xml:space="preserve" font-family="Helvetica-Light" font-size="24.0" fill="#000000" transform="matrix(1.00, 0.00, -0.00, -1.00, 492.4, 259.0)">)</text></g></g><g><clipPath id="clip-69"><path d="M 439.0 288.2 L 508.6 288.2 L 508.6 320.7 L 439.0 320.7 Z M 439.0 288.2 "></path></clipPath><g clip-path="url(#clip-69)"><text xml:space="preserve" font-family="Helvetica-Light" font-size="19.0" fill="#000000" transform="matrix(1.00, 0.00, -0.00, -1.00, 444.0, 297.0)">:</text><text xml:space="preserve" font-family="Helvetica-Bold" font-weight="bold" font-size="19.0" fill="#000000" transform="matrix(1.00, 0.00, -0.00, -1.00, 449.3, 297.0)">M</text><text xml:space="preserve" font-family="Helvetica-Bold" font-weight="bold" font-size="19.0" fill="#000000" transform="matrix(1.00, 0.00, -0.00, -1.00, 465.1, 297.0)">o</text><text xml:space="preserve" font-family="Helvetica-Bold" font-weight="bold" font-size="19.0" fill="#000000" transform="matrix(1.00, 0.00, -0.00, -1.00, 476.7, 297.0)">v</text><text xml:space="preserve" font-family="Helvetica-Bold" font-weight="bold" font-size="19.0" fill="#000000" transform="matrix(1.00, 0.00, -0.00, -1.00, 487.3, 297.0)">i</text><text xml:space="preserve" font-family="Helvetica-Bold" font-weight="bold" font-size="19.0" fill="#000000" transform="matrix(1.00, 0.00, -0.00, -1.00, 492.6, 297.0)">e</text></g></g><g><clipPath id="clip-70"><path d="M 615.5 213.2 L 969.9 213.2 L 969.9 317.2 L 615.5 317.2 Z M 615.5 213.2 "></path></clipPath><g clip-path="url(#clip-70)"><path d="M 299.1 14.6 C 367.5 34.2 367.5 65.8 299.1 85.4 C 230.7 104.9 119.7 104.9 51.3 85.4 C -17.1 65.8 -17.1 34.2 51.3 14.6 C 119.7 -4.9 230.7 -4.9 299.1 14.6 Z M 299.1 14.6 " fill="none" stroke="#85878C" stroke-width="2.00" transform="matrix(1.00, 0.00, 0.00, -1.00, 617.5, 315.2)"></path></g></g><g><clipPath id="clip-71"><path d="M 617.5 215.2 L 967.9 215.2 L 967.9 315.2 L 617.5 315.2 Z M 617.5 215.2 "></path></clipPath><g clip-path="url(#clip-71)"><text xml:space="preserve" font-family="Helvetica-Light" font-size="24.0" fill="#00872A" transform="matrix(1.00, 0.00, -0.00, -1.00, 653.0, 256.0)">“</text><text xml:space="preserve" font-family="Helvetica-Light" font-size="24.0" fill="#00872A" transform="matrix(1.00, 0.00, -0.00, -1.00, 662.3, 256.0)">2</text><text xml:space="preserve" font-family="Helvetica-Light" font-size="24.0" fill="#00872A" transform="matrix(1.00, 0.00, -0.00, -1.00, 675.7, 256.0)">0</text><text xml:space="preserve" font-family="Helvetica-Light" font-size="24.0" fill="#00872A" transform="matrix(1.00, 0.00, -0.00, -1.00, 689.0, 256.0)">0</text><text xml:space="preserve" font-family="Helvetica-Light" font-size="24.0" fill="#00872A" transform="matrix(1.00, 0.00, -0.00, -1.00, 702.4, 256.0)">1</text><text xml:space="preserve" font-family="Helvetica-Light" font-size="24.0" fill="#00872A" transform="matrix(1.00, 0.00, -0.00, -1.00, 715.7, 256.0)">:</text><text xml:space="preserve" font-family="Helvetica-Light" font-size="24.0" fill="#00872A" transform="matrix(1.00, 0.00, -0.00, -1.00, 722.4, 256.0)"> </text><text xml:space="preserve" font-family="Helvetica-Light" font-size="24.0" fill="#00872A" transform="matrix(1.00, 0.00, -0.00, -1.00, 729.1, 256.0)">A</text><text xml:space="preserve" font-family="Helvetica-Light" font-size="24.0" fill="#00872A" transform="matrix(1.00, 0.00, -0.00, -1.00, 745.1, 256.0)"> </text><text xml:space="preserve" font-family="Helvetica-Light" font-size="24.0" fill="#00872A" transform="matrix(1.00, 0.00, -0.00, -1.00, 751.7, 256.0)">S</text><text xml:space="preserve" font-family="Helvetica-Light" font-size="24.0" fill="#00872A" transform="matrix(1.00, 0.00, -0.00, -1.00, 766.4, 256.0)">p</text><text xml:space="preserve" font-family="Helvetica-Light" font-size="24.0" fill="#00872A" transform="matrix(1.00, 0.00, -0.00, -1.00, 781.1, 256.0)">a</text><text xml:space="preserve" font-family="Helvetica-Light" font-size="24.0" fill="#00872A" transform="matrix(1.00, 0.00, -0.00, -1.00, 794.4, 256.0)">c</text><text xml:space="preserve" font-family="Helvetica-Light" font-size="24.0" fill="#00872A" transform="matrix(1.00, 0.00, -0.00, -1.00, 807.8, 256.0)">e</text><text xml:space="preserve" font-family="Helvetica-Light" font-size="24.0" fill="#00872A" transform="matrix(1.00, 0.00, -0.00, -1.00, 821.1, 256.0)"> </text><text xml:space="preserve" font-family="Helvetica-Light" font-size="24.0" fill="#00872A" transform="matrix(1.00, 0.00, -0.00, -1.00, 827.8, 256.0)">O</text><text xml:space="preserve" font-family="Helvetica-Light" font-size="24.0" fill="#00872A" transform="matrix(1.00, 0.00, -0.00, -1.00, 846.4, 256.0)">d</text><text xml:space="preserve" font-family="Helvetica-Light" font-size="24.0" fill="#00872A" transform="matrix(1.00, 0.00, -0.00, -1.00, 861.1, 256.0)">y</text><text xml:space="preserve" font-family="Helvetica-Light" font-size="24.0" fill="#00872A" transform="matrix(1.00, 0.00, -0.00, -1.00, 873.1, 256.0)">s</text><text xml:space="preserve" font-family="Helvetica-Light" font-size="24.0" fill="#00872A" transform="matrix(1.00, 0.00, -0.00, -1.00, 885.1, 256.0)">s</text><text xml:space="preserve" font-family="Helvetica-Light" font-size="24.0" fill="#00872A" transform="matrix(1.00, 0.00, -0.00, -1.00, 897.1, 256.0)">e</text><text xml:space="preserve" font-family="Helvetica-Light" font-size="24.0" fill="#00872A" transform="matrix(1.00, 0.00, -0.00, -1.00, 910.4, 256.0)">y</text><text xml:space="preserve" font-family="Helvetica-Light" font-size="24.0" fill="#00872A" transform="matrix(1.00, 0.00, -0.00, -1.00, 922.4, 256.0)">”</text></g></g><g><clipPath id="clip-72"><path d="M 510.5 256.4 L 611.4 256.4 L 611.4 268.0 L 510.5 268.0 Z M 510.5 256.4 "></path></clipPath><g clip-path="url(#clip-72)"><path d="M 0.0 0.0 L 89.3 0.0 L 90.3 0.0 " fill="none" stroke="#000000" stroke-width="2.00" transform="matrix(1.00, 0.00, 0.00, -1.00, 511.5, 262.2)"></path><path d="M 600.8 257.4 L 610.4 262.2 L 600.8 267.0 Z M 600.8 257.4 " fill="#000000"></path></g></g><g><clipPath id="clip-73"><path d="M 536.0 266.2 L 586.0 266.2 L 586.0 301.8 L 536.0 301.8 Z M 536.0 266.2 "></path></clipPath><g clip-path="url(#clip-73)"><text xml:space="preserve" font-family="Helvetica-Light" font-size="21.0" fill="#000000" transform="matrix(1.00, 0.00, -0.00, -1.00, 542.0, 276.0)">:</text><text xml:space="preserve" font-family="Helvetica-Light" font-size="21.0" fill="#000000" transform="matrix(1.00, 0.00, -0.00, -1.00, 547.8, 276.0)">t</text><text xml:space="preserve" font-family="Helvetica-Light" font-size="21.0" fill="#000000" transform="matrix(1.00, 0.00, -0.00, -1.00, 553.7, 276.0)">i</text><text xml:space="preserve" font-family="Helvetica-Light" font-size="21.0" fill="#000000" transform="matrix(1.00, 0.00, -0.00, -1.00, 558.3, 276.0)">t</text><text xml:space="preserve" font-family="Helvetica-Light" font-size="21.0" fill="#000000" transform="matrix(1.00, 0.00, -0.00, -1.00, 564.2, 276.0)">l</text><text xml:space="preserve" font-family="Helvetica-Light" font-size="21.0" fill="#000000" transform="matrix(1.00, 0.00, -0.00, -1.00, 568.8, 276.0)">e</text></g></g><g><clipPath id="clip-74"><path d="M 250.0 138.3 L 438.4 138.3 L 438.4 181.3 L 250.0 181.3 Z M 250.0 138.3 "></path></clipPath><g clip-path="url(#clip-74)"><path d="M 0.0 0.0 L 184.4 0.0 L 184.4 39.0 L 0.0 39.0 Z M 0.0 0.0 " fill="none" stroke="#85878C" stroke-width="2.00" transform="matrix(1.00, 0.00, 0.00, -1.00, 252.0, 179.3)"></path></g></g><g><clipPath id="clip-75"><path d="M 251.0 139.3 L 437.4 139.3 L 437.4 180.3 L 251.0 180.3 Z M 251.0 139.3 "></path></clipPath><g clip-path="url(#clip-75)"><text xml:space="preserve" font-family="Helvetica-Light" font-size="24.0" fill="#000000" transform="matrix(1.00, 0.00, -0.00, -1.00, 258.0, 151.0)">S</text><text xml:space="preserve" font-family="Helvetica-Light" font-size="24.0" fill="#000000" transform="matrix(1.00, 0.00, -0.00, -1.00, 272.7, 151.0)">t</text><text xml:space="preserve" font-family="Helvetica-Light" font-size="24.0" fill="#000000" transform="matrix(1.00, 0.00, -0.00, -1.00, 279.3, 151.0)">a</text><text xml:space="preserve" font-family="Helvetica-Light" font-size="24.0" fill="#000000" transform="matrix(1.00, 0.00, -0.00, -1.00, 292.7, 151.0)">n</text><text xml:space="preserve" font-family="Helvetica-Light" font-size="24.0" fill="#000000" transform="matrix(1.00, 0.00, -0.00, -1.00, 306.0, 151.0)">l</text><text xml:space="preserve" font-family="Helvetica-Light" font-size="24.0" fill="#000000" transform="matrix(1.00, 0.00, -0.00, -1.00, 311.4, 151.0)">e</text><text xml:space="preserve" font-family="Helvetica-Light" font-size="24.0" fill="#000000" transform="matrix(1.00, 0.00, -0.00, -1.00, 324.7, 151.0)">y</text><text xml:space="preserve" font-family="Helvetica-Light" font-size="24.0" fill="#000000" transform="matrix(1.00, 0.00, -0.00, -1.00, 336.7, 151.0)">_</text><text xml:space="preserve" font-family="Helvetica-Light" font-size="24.0" fill="#000000" transform="matrix(1.00, 0.00, -0.00, -1.00, 348.7, 151.0)">K</text><text xml:space="preserve" font-family="Helvetica-Light" font-size="24.0" fill="#000000" transform="matrix(1.00, 0.00, -0.00, -1.00, 364.7, 151.0)">u</text><text xml:space="preserve" font-family="Helvetica-Light" font-size="24.0" fill="#000000" transform="matrix(1.00, 0.00, -0.00, -1.00, 378.0, 151.0)">b</text><text xml:space="preserve" font-family="Helvetica-Light" font-size="24.0" fill="#000000" transform="matrix(1.00, 0.00, -0.00, -1.00, 392.7, 151.0)">r</text><text xml:space="preserve" font-family="Helvetica-Light" font-size="24.0" fill="#000000" transform="matrix(1.00, 0.00, -0.00, -1.00, 400.7, 151.0)">i</text><text xml:space="preserve" font-family="Helvetica-Light" font-size="24.0" fill="#000000" transform="matrix(1.00, 0.00, -0.00, -1.00, 406.0, 151.0)">c</text><text xml:space="preserve" font-family="Helvetica-Light" font-size="24.0" fill="#000000" transform="matrix(1.00, 0.00, -0.00, -1.00, 419.4, 151.0)">k</text></g></g><g><clipPath id="clip-76"><path d="M 358.7 178.6 L 438.9 178.6 L 438.9 211.1 L 358.7 211.1 Z M 358.7 178.6 "></path></clipPath><g clip-path="url(#clip-76)"><text xml:space="preserve" font-family="Helvetica-Light" font-size="19.0" fill="#000000" transform="matrix(1.00, 0.00, -0.00, -1.00, 364.0, 188.0)">:</text><text xml:space="preserve" font-family="Helvetica-Bold" font-weight="bold" font-size="19.0" fill="#000000" transform="matrix(1.00, 0.00, -0.00, -1.00, 369.3, 188.0)">P</text><text xml:space="preserve" font-family="Helvetica-Bold" font-weight="bold" font-size="19.0" fill="#000000" transform="matrix(1.00, 0.00, -0.00, -1.00, 382.0, 188.0)">e</text><text xml:space="preserve" font-family="Helvetica-Bold" font-weight="bold" font-size="19.0" fill="#000000" transform="matrix(1.00, 0.00, -0.00, -1.00, 392.5, 188.0)">r</text><text xml:space="preserve" font-family="Helvetica-Bold" font-weight="bold" font-size="19.0" fill="#000000" transform="matrix(1.00, 0.00, -0.00, -1.00, 399.9, 188.0)">s</text><text xml:space="preserve" font-family="Helvetica-Bold" font-weight="bold" font-size="19.0" fill="#000000" transform="matrix(1.00, 0.00, -0.00, -1.00, 410.5, 188.0)">o</text><text xml:space="preserve" font-family="Helvetica-Bold" font-weight="bold" font-size="19.0" fill="#000000" transform="matrix(1.00, 0.00, -0.00, -1.00, 422.1, 188.0)">n</text></g></g><g><clipPath id="clip-77"><path d="M 322.0 190.2 L 322.0 239.8 L 333.6 239.8 L 333.6 190.2 Z M 322.0 190.2 "></path></clipPath><g clip-path="url(#clip-77)"><path d="M 0.0 0.0 L 38.0 0.0 L 39.0 0.0 " fill="none" stroke="#000000" stroke-width="2.00" transform="matrix(0.00, 1.00, 1.00, 0.00, 327.8, 191.2)"></path><path d="M 332.6 229.2 L 327.8 238.8 L 323.0 229.2 Z M 332.6 229.2 " fill="#000000"></path></g></g><g><clipPath id="clip-78"><path d="M 235.7 197.2 L 325.1 197.2 L 325.1 232.8 L 235.7 232.8 Z M 235.7 197.2 "></path></clipPath><g clip-path="url(#clip-78)"><text xml:space="preserve" font-family="Helvetica-Light" font-size="21.0" fill="#000000" transform="matrix(1.00, 0.00, -0.00, -1.00, 241.0, 207.0)">:</text><text xml:space="preserve" font-family="Helvetica-Light" font-size="21.0" fill="#000000" transform="matrix(1.00, 0.00, -0.00, -1.00, 246.8, 207.0)">d</text><text xml:space="preserve" font-family="Helvetica-Light" font-size="21.0" fill="#000000" transform="matrix(1.00, 0.00, -0.00, -1.00, 259.7, 207.0)">i</text><text xml:space="preserve" font-family="Helvetica-Light" font-size="21.0" fill="#000000" transform="matrix(1.00, 0.00, -0.00, -1.00, 264.3, 207.0)">r</text><text xml:space="preserve" font-family="Helvetica-Light" font-size="21.0" fill="#000000" transform="matrix(1.00, 0.00, -0.00, -1.00, 270.9, 207.0)">e</text><text xml:space="preserve" font-family="Helvetica-Light" font-size="21.0" fill="#000000" transform="matrix(1.00, 0.00, -0.00, -1.00, 282.6, 207.0)">c</text><text xml:space="preserve" font-family="Helvetica-Light" font-size="21.0" fill="#000000" transform="matrix(1.00, 0.00, -0.00, -1.00, 294.3, 207.0)">t</text><text xml:space="preserve" font-family="Helvetica-Light" font-size="21.0" fill="#000000" transform="matrix(1.00, 0.00, -0.00, -1.00, 300.1, 207.0)">o</text><text xml:space="preserve" font-family="Helvetica-Light" font-size="21.0" fill="#000000" transform="matrix(1.00, 0.00, -0.00, -1.00, 311.8, 207.0)">r</text></g></g><g><clipPath id="clip-79"><path d="M 138.4 433.3 L 514.8 433.3 L 514.8 476.3 L 138.4 476.3 Z M 138.4 433.3 "></path></clipPath><g clip-path="url(#clip-79)"><path d="M 0.0 0.0 L 372.4 0.0 L 372.4 39.0 L 0.0 39.0 Z M 0.0 0.0 " fill="none" stroke="#85878C" stroke-width="2.00" transform="matrix(1.00, 0.00, 0.00, -1.00, 140.4, 474.3)"></path></g></g><g><clipPath id="clip-80"><path d="M 139.4 434.3 L 513.8 434.3 L 513.8 475.3 L 139.4 475.3 Z M 139.4 434.3 "></path></clipPath><g clip-path="url(#clip-80)"><text xml:space="preserve" font-family="Helvetica-Light" font-size="24.0" fill="#000000" transform="matrix(1.00, 0.00, -0.00, -1.00, 146.0, 446.0)">2</text><text xml:space="preserve" font-family="Helvetica-Light" font-size="24.0" fill="#000000" transform="matrix(1.00, 0.00, -0.00, -1.00, 159.3, 446.0)">0</text><text xml:space="preserve" font-family="Helvetica-Light" font-size="24.0" fill="#000000" transform="matrix(1.00, 0.00, -0.00, -1.00, 172.7, 446.0)">0</text><text xml:space="preserve" font-family="Helvetica-Light" font-size="24.0" fill="#000000" transform="matrix(1.00, 0.00, -0.00, -1.00, 186.0, 446.0)">1</text><text xml:space="preserve" font-family="Helvetica-Light" font-size="24.0" fill="#000000" transform="matrix(1.00, 0.00, -0.00, -1.00, 199.4, 446.0)">:</text><text xml:space="preserve" font-family="Helvetica-Light" font-size="24.0" fill="#000000" transform="matrix(1.00, 0.00, -0.00, -1.00, 206.0, 446.0)">_</text><text xml:space="preserve" font-family="Helvetica-Light" font-size="24.0" fill="#000000" transform="matrix(1.00, 0.00, -0.00, -1.00, 218.0, 446.0)">A</text><text xml:space="preserve" font-family="Helvetica-Light" font-size="24.0" fill="#000000" transform="matrix(1.00, 0.00, -0.00, -1.00, 234.1, 446.0)">_</text><text xml:space="preserve" font-family="Helvetica-Light" font-size="24.0" fill="#000000" transform="matrix(1.00, 0.00, -0.00, -1.00, 246.1, 446.0)">S</text><text xml:space="preserve" font-family="Helvetica-Light" font-size="24.0" fill="#000000" transform="matrix(1.00, 0.00, -0.00, -1.00, 260.7, 446.0)">p</text><text xml:space="preserve" font-family="Helvetica-Light" font-size="24.0" fill="#000000" transform="matrix(1.00, 0.00, -0.00, -1.00, 275.4, 446.0)">a</text><text xml:space="preserve" font-family="Helvetica-Light" font-size="24.0" fill="#000000" transform="matrix(1.00, 0.00, -0.00, -1.00, 288.7, 446.0)">c</text><text xml:space="preserve" font-family="Helvetica-Light" font-size="24.0" fill="#000000" transform="matrix(1.00, 0.00, -0.00, -1.00, 302.1, 446.0)">e</text><text xml:space="preserve" font-family="Helvetica-Light" font-size="24.0" fill="#000000" transform="matrix(1.00, 0.00, -0.00, -1.00, 315.4, 446.0)">_</text><text xml:space="preserve" font-family="Helvetica-Light" font-size="24.0" fill="#000000" transform="matrix(1.00, 0.00, -0.00, -1.00, 327.4, 446.0)">O</text><text xml:space="preserve" font-family="Helvetica-Light" font-size="24.0" fill="#000000" transform="matrix(1.00, 0.00, -0.00, -1.00, 346.1, 446.0)">d</text><text xml:space="preserve" font-family="Helvetica-Light" font-size="24.0" fill="#000000" transform="matrix(1.00, 0.00, -0.00, -1.00, 360.8, 446.0)">y</text><text xml:space="preserve" font-family="Helvetica-Light" font-size="24.0" fill="#000000" transform="matrix(1.00, 0.00, -0.00, -1.00, 372.8, 446.0)">s</text><text xml:space="preserve" font-family="Helvetica-Light" font-size="24.0" fill="#000000" transform="matrix(1.00, 0.00, -0.00, -1.00, 384.8, 446.0)">s</text><text xml:space="preserve" font-family="Helvetica-Light" font-size="24.0" fill="#000000" transform="matrix(1.00, 0.00, -0.00, -1.00, 396.8, 446.0)">e</text><text xml:space="preserve" font-family="Helvetica-Light" font-size="24.0" fill="#000000" transform="matrix(1.00, 0.00, -0.00, -1.00, 410.1, 446.0)">y</text><text xml:space="preserve" font-family="Helvetica-Light" font-size="24.0" fill="#000000" transform="matrix(1.00, 0.00, -0.00, -1.00, 422.1, 446.0)">_</text><text xml:space="preserve" font-family="Helvetica-Light" font-size="24.0" fill="#000000" transform="matrix(1.00, 0.00, -0.00, -1.00, 434.1, 446.0)">(</text><text xml:space="preserve" font-family="Helvetica-Light" font-size="24.0" fill="#000000" transform="matrix(1.00, 0.00, -0.00, -1.00, 442.1, 446.0)">n</text><text xml:space="preserve" font-family="Helvetica-Light" font-size="24.0" fill="#000000" transform="matrix(1.00, 0.00, -0.00, -1.00, 455.4, 446.0)">o</text><text xml:space="preserve" font-family="Helvetica-Light" font-size="24.0" fill="#000000" transform="matrix(1.00, 0.00, -0.00, -1.00, 468.8, 446.0)">v</text><text xml:space="preserve" font-family="Helvetica-Light" font-size="24.0" fill="#000000" transform="matrix(1.00, 0.00, -0.00, -1.00, 480.8, 446.0)">e</text><text xml:space="preserve" font-family="Helvetica-Light" font-size="24.0" fill="#000000" transform="matrix(1.00, 0.00, -0.00, -1.00, 494.1, 446.0)">l</text><text xml:space="preserve" font-family="Helvetica-Light" font-size="24.0" fill="#000000" transform="matrix(1.00, 0.00, -0.00, -1.00, 499.4, 446.0)">)</text></g></g><g><clipPath id="clip-81"><path d="M 439.6 475.4 L 502.8 475.4 L 502.8 507.9 L 439.6 507.9 Z M 439.6 475.4 "></path></clipPath><g clip-path="url(#clip-81)"><text xml:space="preserve" font-family="Helvetica-Light" font-size="19.0" fill="#000000" transform="matrix(1.00, 0.00, -0.00, -1.00, 445.0, 485.0)">:</text><text xml:space="preserve" font-family="Helvetica-Bold" font-weight="bold" font-size="19.0" fill="#000000" transform="matrix(1.00, 0.00, -0.00, -1.00, 450.3, 485.0)">B</text><text xml:space="preserve" font-family="Helvetica-Bold" font-weight="bold" font-size="19.0" fill="#000000" transform="matrix(1.00, 0.00, -0.00, -1.00, 464.0, 485.0)">o</text><text xml:space="preserve" font-family="Helvetica-Bold" font-weight="bold" font-size="19.0" fill="#000000" transform="matrix(1.00, 0.00, -0.00, -1.00, 475.6, 485.0)">o</text><text xml:space="preserve" font-family="Helvetica-Bold" font-weight="bold" font-size="19.0" fill="#000000" transform="matrix(1.00, 0.00, -0.00, -1.00, 487.2, 485.0)">k</text></g></g><g><clipPath id="clip-82"><path d="M 325.8 292.3 L 325.8 426.7 L 337.4 426.7 L 337.4 292.3 Z M 325.8 292.3 "></path></clipPath><g clip-path="url(#clip-82)"><path d="M 0.0 0.0 L 122.8 0.0 L 123.8 0.0 " fill="none" stroke="#000000" stroke-width="2.00" transform="matrix(0.00, 1.00, 1.00, 0.00, 331.6, 293.3)"></path><path d="M 336.4 416.1 L 331.6 425.7 L 326.8 416.1 Z M 336.4 416.1 " fill="#000000"></path></g></g><g><clipPath id="clip-83"><path d="M 150.7 341.8 L 318.1 341.8 L 318.1 377.3 L 150.7 377.3 Z M 150.7 341.8 "></path></clipPath><g clip-path="url(#clip-83)"><text xml:space="preserve" font-family="Helvetica-Light" font-size="21.0" fill="#000000" transform="matrix(1.00, 0.00, -0.00, -1.00, 156.0, 352.0)">:</text><text xml:space="preserve" font-family="Helvetica-Light" font-size="21.0" fill="#000000" transform="matrix(1.00, 0.00, -0.00, -1.00, 161.8, 352.0)">e</text><text xml:space="preserve" font-family="Helvetica-Light" font-size="21.0" fill="#000000" transform="matrix(1.00, 0.00, -0.00, -1.00, 173.5, 352.0)">x</text><text xml:space="preserve" font-family="Helvetica-Light" font-size="21.0" fill="#000000" transform="matrix(1.00, 0.00, -0.00, -1.00, 184.0, 352.0)">a</text><text xml:space="preserve" font-family="Helvetica-Light" font-size="21.0" fill="#000000" transform="matrix(1.00, 0.00, -0.00, -1.00, 195.7, 352.0)">m</text><text xml:space="preserve" font-family="Helvetica-Light" font-size="21.0" fill="#000000" transform="matrix(1.00, 0.00, -0.00, -1.00, 213.2, 352.0)">p</text><text xml:space="preserve" font-family="Helvetica-Light" font-size="21.0" fill="#000000" transform="matrix(1.00, 0.00, -0.00, -1.00, 226.0, 352.0)">l</text><text xml:space="preserve" font-family="Helvetica-Light" font-size="21.0" fill="#000000" transform="matrix(1.00, 0.00, -0.00, -1.00, 230.7, 352.0)">e</text><text xml:space="preserve" font-family="Helvetica-Light" font-size="21.0" fill="#000000" transform="matrix(1.00, 0.00, -0.00, -1.00, 242.4, 352.0)">O</text><text xml:space="preserve" font-family="Helvetica-Light" font-size="21.0" fill="#000000" transform="matrix(1.00, 0.00, -0.00, -1.00, 258.7, 352.0)">f</text><text xml:space="preserve" font-family="Helvetica-Light" font-size="21.0" fill="#000000" transform="matrix(1.00, 0.00, -0.00, -1.00, 264.5, 352.0)">W</text><text xml:space="preserve" font-family="Helvetica-Light" font-size="21.0" fill="#000000" transform="matrix(1.00, 0.00, -0.00, -1.00, 282.8, 352.0)">o</text><text xml:space="preserve" font-family="Helvetica-Light" font-size="21.0" fill="#000000" transform="matrix(1.00, 0.00, -0.00, -1.00, 294.5, 352.0)">r</text><text xml:space="preserve" font-family="Helvetica-Light" font-size="21.0" fill="#000000" transform="matrix(1.00, 0.00, -0.00, -1.00, 301.5, 352.0)">k</text></g></g><g><clipPath id="clip-84"><path d="M 465.1 340.6 L 656.6 340.6 L 656.6 383.6 L 465.1 383.6 Z M 465.1 340.6 "></path></clipPath><g clip-path="url(#clip-84)"><path d="M 0.0 0.0 L 187.4 0.0 L 187.4 39.0 L 0.0 39.0 Z M 0.0 0.0 " fill="none" stroke="#85878C" stroke-width="2.00" transform="matrix(1.00, 0.00, 0.00, -1.00, 467.1, 381.6)"></path></g></g><g><clipPath id="clip-85"><path d="M 466.1 341.6 L 655.6 341.6 L 655.6 382.6 L 466.1 382.6 Z M 466.1 341.6 "></path></clipPath><g clip-path="url(#clip-85)"><text xml:space="preserve" font-family="Helvetica-Light" font-size="24.0" fill="#000000" transform="matrix(1.00, 0.00, -0.00, -1.00, 473.0, 353.0)">A</text><text xml:space="preserve" font-family="Helvetica-Light" font-size="24.0" fill="#000000" transform="matrix(1.00, 0.00, -0.00, -1.00, 489.0, 353.0)">r</text><text xml:space="preserve" font-family="Helvetica-Light" font-size="24.0" fill="#000000" transform="matrix(1.00, 0.00, -0.00, -1.00, 497.4, 353.0)">t</text><text xml:space="preserve" font-family="Helvetica-Light" font-size="24.0" fill="#000000" transform="matrix(1.00, 0.00, -0.00, -1.00, 504.1, 353.0)">h</text><text xml:space="preserve" font-family="Helvetica-Light" font-size="24.0" fill="#000000" transform="matrix(1.00, 0.00, -0.00, -1.00, 517.4, 353.0)">u</text><text xml:space="preserve" font-family="Helvetica-Light" font-size="24.0" fill="#000000" transform="matrix(1.00, 0.00, -0.00, -1.00, 530.8, 353.0)">r</text><text xml:space="preserve" font-family="Helvetica-Light" font-size="24.0" fill="#000000" transform="matrix(1.00, 0.00, -0.00, -1.00, 538.8, 353.0)">_</text><text xml:space="preserve" font-family="Helvetica-Light" font-size="24.0" fill="#000000" transform="matrix(1.00, 0.00, -0.00, -1.00, 550.8, 353.0)">C</text><text xml:space="preserve" font-family="Helvetica-Light" font-size="24.0" fill="#000000" transform="matrix(1.00, 0.00, -0.00, -1.00, 568.1, 353.0)">_</text><text xml:space="preserve" font-family="Helvetica-Light" font-size="24.0" fill="#000000" transform="matrix(1.00, 0.00, -0.00, -1.00, 580.1, 353.0)">C</text><text xml:space="preserve" font-family="Helvetica-Light" font-size="24.0" fill="#000000" transform="matrix(1.00, 0.00, -0.00, -1.00, 597.4, 353.0)">l</text><text xml:space="preserve" font-family="Helvetica-Light" font-size="24.0" fill="#000000" transform="matrix(1.00, 0.00, -0.00, -1.00, 602.8, 353.0)">a</text><text xml:space="preserve" font-family="Helvetica-Light" font-size="24.0" fill="#000000" transform="matrix(1.00, 0.00, -0.00, -1.00, 616.1, 353.0)">r</text><text xml:space="preserve" font-family="Helvetica-Light" font-size="24.0" fill="#000000" transform="matrix(1.00, 0.00, -0.00, -1.00, 624.1, 353.0)">k</text><text xml:space="preserve" font-family="Helvetica-Light" font-size="24.0" fill="#000000" transform="matrix(1.00, 0.00, -0.00, -1.00, 636.1, 353.0)">e</text></g></g><g><clipPath id="clip-86"><path d="M 575.3 380.9 L 655.5 380.9 L 655.5 413.4 L 575.3 413.4 Z M 575.3 380.9 "></path></clipPath><g clip-path="url(#clip-86)"><text xml:space="preserve" font-family="Helvetica-Light" font-size="19.0" fill="#000000" transform="matrix(1.00, 0.00, -0.00, -1.00, 581.0, 390.0)">:</text><text xml:space="preserve" font-family="Helvetica-Bold" font-weight="bold" font-size="19.0" fill="#000000" transform="matrix(1.00, 0.00, -0.00, -1.00, 586.3, 390.0)">P</text><text xml:space="preserve" font-family="Helvetica-Bold" font-weight="bold" font-size="19.0" fill="#000000" transform="matrix(1.00, 0.00, -0.00, -1.00, 599.0, 390.0)">e</text><text xml:space="preserve" font-family="Helvetica-Bold" font-weight="bold" font-size="19.0" fill="#000000" transform="matrix(1.00, 0.00, -0.00, -1.00, 609.5, 390.0)">r</text><text xml:space="preserve" font-family="Helvetica-Bold" font-weight="bold" font-size="19.0" fill="#000000" transform="matrix(1.00, 0.00, -0.00, -1.00, 616.9, 390.0)">s</text><text xml:space="preserve" font-family="Helvetica-Bold" font-weight="bold" font-size="19.0" fill="#000000" transform="matrix(1.00, 0.00, -0.00, -1.00, 627.5, 390.0)">o</text><text xml:space="preserve" font-family="Helvetica-Bold" font-weight="bold" font-size="19.0" fill="#000000" transform="matrix(1.00, 0.00, -0.00, -1.00, 639.1, 390.0)">n</text></g></g><g><clipPath id="clip-87"><path d="M 485.6 381.4 L 397.4 414.2 L 401.4 425.1 L 489.7 392.3 Z M 485.6 381.4 "></path></clipPath><g clip-path="url(#clip-87)"><path d="M 0.0 0.0 L 82.5 0.0 L 83.5 0.0 " fill="none" stroke="#000000" stroke-width="2.00" transform="matrix(-0.94, 0.35, 0.35, 0.94, 486.7, 387.2)"></path><path d="M 411.0 420.4 L 400.4 419.3 L 407.7 411.4 Z M 411.0 420.4 " fill="#000000"></path></g></g><g><clipPath id="clip-88"><path d="M 496.0 339.0 L 395.6 295.5 L 391.0 306.2 L 491.4 349.7 Z M 496.0 339.0 "></path></clipPath><g clip-path="url(#clip-88)"><path d="M 0.0 0.0 L 97.8 0.0 L 98.8 0.0 " fill="none" stroke="#000000" stroke-width="2.00" transform="matrix(-0.92, -0.40, -0.40, 0.92, 492.8, 344.0)"></path><path d="M 401.1 309.5 L 394.2 301.3 L 404.9 300.7 Z M 401.1 309.5 " fill="#000000"></path></g></g><g><clipPath id="clip-89"><path d="M 363.3 378.6 L 440.2 378.6 L 440.2 414.1 L 363.3 414.1 Z M 363.3 378.6 "></path></clipPath><g clip-path="url(#clip-89)"><text xml:space="preserve" font-family="Helvetica-Light" font-size="21.0" fill="#000000" transform="matrix(1.00, 0.00, -0.00, -1.00, 369.0, 389.0)">:</text><text xml:space="preserve" font-family="Helvetica-Light" font-size="21.0" fill="#000000" transform="matrix(1.00, 0.00, -0.00, -1.00, 374.8, 389.0)">a</text><text xml:space="preserve" font-family="Helvetica-Light" font-size="21.0" fill="#000000" transform="matrix(1.00, 0.00, -0.00, -1.00, 386.5, 389.0)">u</text><text xml:space="preserve" font-family="Helvetica-Light" font-size="21.0" fill="#000000" transform="matrix(1.00, 0.00, -0.00, -1.00, 398.2, 389.0)">t</text><text xml:space="preserve" font-family="Helvetica-Light" font-size="21.0" fill="#000000" transform="matrix(1.00, 0.00, -0.00, -1.00, 404.0, 389.0)">h</text><text xml:space="preserve" font-family="Helvetica-Light" font-size="21.0" fill="#000000" transform="matrix(1.00, 0.00, -0.00, -1.00, 415.7, 389.0)">o</text><text xml:space="preserve" font-family="Helvetica-Light" font-size="21.0" fill="#000000" transform="matrix(1.00, 0.00, -0.00, -1.00, 427.4, 389.0)">r</text></g></g><g><clipPath id="clip-90"><path d="M 368.2 323.1 L 436.8 323.1 L 436.8 358.6 L 368.2 358.6 Z M 368.2 323.1 "></path></clipPath><g clip-path="url(#clip-90)"><text xml:space="preserve" font-family="Helvetica-Light" font-size="21.0" fill="#000000" transform="matrix(1.00, 0.00, -0.00, -1.00, 374.0, 333.0)">:</text><text xml:space="preserve" font-family="Helvetica-Light" font-size="21.0" fill="#000000" transform="matrix(1.00, 0.00, -0.00, -1.00, 379.8, 333.0)">w</text><text xml:space="preserve" font-family="Helvetica-Light" font-size="21.0" fill="#000000" transform="matrix(1.00, 0.00, -0.00, -1.00, 395.0, 333.0)">r</text><text xml:space="preserve" font-family="Helvetica-Light" font-size="21.0" fill="#000000" transform="matrix(1.00, 0.00, -0.00, -1.00, 402.0, 333.0)">i</text><text xml:space="preserve" font-family="Helvetica-Light" font-size="21.0" fill="#000000" transform="matrix(1.00, 0.00, -0.00, -1.00, 406.7, 333.0)">t</text><text xml:space="preserve" font-family="Helvetica-Light" font-size="21.0" fill="#000000" transform="matrix(1.00, 0.00, -0.00, -1.00, 412.5, 333.0)">e</text><text xml:space="preserve" font-family="Helvetica-Light" font-size="21.0" fill="#000000" transform="matrix(1.00, 0.00, -0.00, -1.00, 424.2, 333.0)">r</text></g></g></g></svg>