<?xml version="1.0" encoding="UTF-8" standalone="no"?><svg xmlns="http://www.w3.org/2000/svg" xmlns:xlink="http://www.w3.org/1999/xlink" clip-rule="evenodd" stroke-miterlimit="10" viewBox="0 0 506 210"><desc>SVG generated by Keynote</desc><defs></defs><g transform="matrix(1.00, 0.00, -0.00, -1.00, 0.0, 210.0)"><text xml:space="preserve" font-family="GillSans,Gill Sans" font-size="23.0" fill="#FEFFFF" transform="matrix(1.00, 0.00, -0.00, -1.00, 1.0, 188.8)">@</text><text xml:space="preserve" font-family="GillSans,Gill Sans" font-size="23.0" fill="#FEFFFF" transform="matrix(1.00, 0.00, -0.00, -1.00, 24.2, 188.8)">p</text><text xml:space="preserve" font-family="GillSans,Gill Sans" font-size="23.0" fill="#FEFFFF" transform="matrix(1.00, 0.00, -0.00, -1.00, 35.7, 188.8)">r</text><text xml:space="preserve" font-family="GillSans,Gill Sans" font-size="23.0" fill="#FEFFFF" transform="matrix(1.00, 0.00, -0.00, -1.00, 44.4, 188.8)">e</text><text xml:space="preserve" font-family="GillSans,Gill Sans" font-size="23.0" fill="#FEFFFF" transform="matrix(1.00, 0.00, -0.00, -1.00, 55.4, 188.8)">ﬁ</text><text xml:space="preserve" font-family="GillSans,Gill Sans" font-size="23.0" fill="#FEFFFF" transform="matrix(1.00, 0.00, -0.00, -1.00, 66.9, 188.8)">x</text><text xml:space="preserve" font-family="GillSans,Gill Sans" font-size="23.0" fill="#FEFFFF" transform="matrix(1.00, 0.00, -0.00, -1.00, 78.4, 188.8)">:</text><text xml:space="preserve" font-family="GillSans,Gill Sans" font-size="23.0" fill="#FEFFFF" transform="matrix(1.00, 0.00, -0.00, -1.00, 81.1, 188.8)"> </text><text xml:space="preserve" font-family="GillSans,Gill Sans" font-size="23.0" fill="#FEFFFF" transform="matrix(1.00, 0.00, -0.00, -1.00, 87.5, 188.8)">s</text><text xml:space="preserve" font-family="GillSans,Gill Sans" font-size="23.0" fill="#FEFFFF" transform="matrix(1.00, 0.00, -0.00, -1.00, 96.4, 188.8)">c</text><text xml:space="preserve" font-family="GillSans,Gill Sans" font-size="23.0" fill="#FEFFFF" transform="matrix(1.00, 0.00, -0.00, -1.00, 106.4, 188.8)">h</text><text xml:space="preserve" font-family="GillSans,Gill Sans" font-size="23.0" fill="#FEFFFF" transform="matrix(1.00, 0.00, -0.00, -1.00, 117.9, 188.8)">e</text><text xml:space="preserve" font-family="GillSans,Gill Sans" font-size="23.0" fill="#FEFFFF" transform="matrix(1.00, 0.00, -0.00, -1.00, 129.0, 188.8)">m</text><text xml:space="preserve" font-family="GillSans,Gill Sans" font-size="23.0" fill="#FEFFFF" transform="matrix(1.00, 0.00, -0.00, -1.00, 146.7, 188.8)">a</text><text xml:space="preserve" font-family="GillSans,Gill Sans" font-size="23.0" fill="#FEFFFF" transform="matrix(1.00, 0.00, -0.00, -1.00, 156.5, 188.8)"> </text><text xml:space="preserve" font-family="GillSans,Gill Sans" font-size="23.0" fill="#FEFFFF" transform="matrix(1.00, 0.00, -0.00, -1.00, 162.9, 188.8)">&lt;</text><text xml:space="preserve" font-family="GillSans,Gill Sans" font-size="23.0" fill="#FEFFFF" transform="matrix(1.00, 0.00, -0.00, -1.00, 176.3, 188.8)">h</text><text xml:space="preserve" font-family="GillSans,Gill Sans" font-size="23.0" fill="#FEFFFF" transform="matrix(1.00, 0.00, -0.00, -1.00, 187.8, 188.8)">t</text><text xml:space="preserve" font-family="GillSans,Gill Sans" font-size="23.0" fill="#FEFFFF" transform="matrix(1.00, 0.00, -0.00, -1.00, 195.5, 188.8)">t</text><text xml:space="preserve" font-family="GillSans,Gill Sans" font-size="23.0" fill="#FEFFFF" transform="matrix(1.00, 0.00, -0.00, -1.00, 203.1, 188.8)">p</text><text xml:space="preserve" font-family="GillSans,Gill Sans" font-size="23.0" fill="#FEFFFF" transform="matrix(1.00, 0.00, -0.00, -1.00, 214.6, 188.8)">:</text><text xml:space="preserve" font-family="GillSans,Gill Sans" font-size="23.0" fill="#FEFFFF" transform="matrix(1.00, 0.00, -0.00, -1.00, 219.7, 188.8)">/</text><text xml:space="preserve" font-family="GillSans,Gill Sans" font-size="23.0" fill="#FEFFFF" transform="matrix(1.00, 0.00, -0.00, -1.00, 226.1, 188.8)">/</text><text xml:space="preserve" font-family="GillSans,Gill Sans" font-size="23.0" fill="#FEFFFF" transform="matrix(1.00, 0.00, -0.00, -1.00, 232.6, 188.8)">s</text><text xml:space="preserve" font-family="GillSans,Gill Sans" font-size="23.0" fill="#FEFFFF" transform="matrix(1.00, 0.00, -0.00, -1.00, 241.4, 188.8)">c</text><text xml:space="preserve" font-family="GillSans,Gill Sans" font-size="23.0" fill="#FEFFFF" transform="matrix(1.00, 0.00, -0.00, -1.00, 251.5, 188.8)">h</text><text xml:space="preserve" font-family="GillSans,Gill Sans" font-size="23.0" fill="#FEFFFF" transform="matrix(1.00, 0.00, -0.00, -1.00, 263.0, 188.8)">e</text><text xml:space="preserve" font-family="GillSans,Gill Sans" font-size="23.0" fill="#FEFFFF" transform="matrix(1.00, 0.00, -0.00, -1.00, 274.0, 188.8)">m</text><text xml:space="preserve" font-family="GillSans,Gill Sans" font-size="23.0" fill="#FEFFFF" transform="matrix(1.00, 0.00, -0.00, -1.00, 291.8, 188.8)">a</text><text xml:space="preserve" font-family="GillSans,Gill Sans" font-size="23.0" fill="#FEFFFF" transform="matrix(1.00, 0.00, -0.00, -1.00, 301.6, 188.8)">.</text><text xml:space="preserve" font-family="GillSans,Gill Sans" font-size="23.0" fill="#FEFFFF" transform="matrix(1.00, 0.00, -0.00, -1.00, 306.6, 188.8)">o</text><text xml:space="preserve" font-family="GillSans,Gill Sans" font-size="23.0" fill="#FEFFFF" transform="matrix(1.00, 0.00, -0.00, -1.00, 319.3, 188.8)">r</text><text xml:space="preserve" font-family="GillSans,Gill Sans" font-size="23.0" fill="#FEFFFF" transform="matrix(1.00, 0.00, -0.00, -1.00, 328.4, 188.8)">g</text><text xml:space="preserve" font-family="GillSans,Gill Sans" font-size="23.0" fill="#FEFFFF" transform="matrix(1.00, 0.00, -0.00, -1.00, 338.3, 188.8)">/</text><text xml:space="preserve" font-family="GillSans,Gill Sans" font-size="23.0" fill="#FEFFFF" transform="matrix(1.00, 0.00, -0.00, -1.00, 344.7, 188.8)">&gt;</text><text xml:space="preserve" font-family="GillSans,Gill Sans" font-size="23.0" fill="#FEFFFF" transform="matrix(1.00, 0.00, -0.00, -1.00, 358.1, 188.8)"> </text><text xml:space="preserve" font-family="GillSans,Gill Sans" font-size="23.0" fill="#FEFFFF" transform="matrix(1.00, 0.00, -0.00, -1.00, 364.5, 188.8)">.</text><g><clipPath id="clip0x7fcd1118ca50"><path d="M 175.3 185.5 L 338.3 185.5 L 338.3 188.6 L 175.3 188.6 Z M 175.3 185.5 "></path></clipPath><g clip-path="url(#clip0x7fcd1118ca50)"><path d="M 179.3 26.4 L 341.3 26.4 " fill="none" stroke="#FEFFFF" stroke-width="1.15" transform="matrix(1.00, 0.00, 0.00, -1.00, -3.0, 213.5)"></path></g></g><text xml:space="preserve" font-family="GillSans,Gill Sans" font-size="23.0" fill="#FF9200" transform="matrix(1.00, 0.00, -0.00, -1.00, 1.0, 162.8)">&lt;</text><text xml:space="preserve" font-family="GillSans,Gill Sans" font-size="23.0" fill="#FF9200" transform="matrix(1.00, 0.00, -0.00, -1.00, 14.4, 162.8)">h</text><text xml:space="preserve" font-family="GillSans,Gill Sans" font-size="23.0" fill="#FF9200" transform="matrix(1.00, 0.00, -0.00, -1.00, 25.9, 162.8)">t</text><text xml:space="preserve" font-family="GillSans,Gill Sans" font-size="23.0" fill="#FF9200" transform="matrix(1.00, 0.00, -0.00, -1.00, 33.6, 162.8)">t</text><text xml:space="preserve" font-family="GillSans,Gill Sans" font-size="23.0" fill="#FF9200" transform="matrix(1.00, 0.00, -0.00, -1.00, 41.2, 162.8)">p</text><text xml:space="preserve" font-family="GillSans,Gill Sans" font-size="23.0" fill="#FF9200" transform="matrix(1.00, 0.00, -0.00, -1.00, 52.7, 162.8)">:</text><text xml:space="preserve" font-family="GillSans,Gill Sans" font-size="23.0" fill="#FF9200" transform="matrix(1.00, 0.00, -0.00, -1.00, 57.8, 162.8)">/</text><text xml:space="preserve" font-family="GillSans,Gill Sans" font-size="23.0" fill="#FF9200" transform="matrix(1.00, 0.00, -0.00, -1.00, 64.2, 162.8)">/</text><text xml:space="preserve" font-family="GillSans,Gill Sans" font-size="23.0" fill="#FF9200" transform="matrix(1.00, 0.00, -0.00, -1.00, 70.7, 162.8)">g</text><text xml:space="preserve" font-family="GillSans,Gill Sans" font-size="23.0" fill="#FF9200" transform="matrix(1.00, 0.00, -0.00, -1.00, 80.5, 162.8)">r</text><text xml:space="preserve" font-family="GillSans,Gill Sans" font-size="23.0" fill="#FF9200" transform="matrix(1.00, 0.00, -0.00, -1.00, 89.2, 162.8)">e</text><text xml:space="preserve" font-family="GillSans,Gill Sans" font-size="23.0" fill="#FF9200" transform="matrix(1.00, 0.00, -0.00, -1.00, 100.2, 162.8)">g</text><text xml:space="preserve" font-family="GillSans,Gill Sans" font-size="23.0" fill="#FF9200" transform="matrix(1.00, 0.00, -0.00, -1.00, 110.0, 162.8)">g</text><text xml:space="preserve" font-family="GillSans,Gill Sans" font-size="23.0" fill="#FF9200" transform="matrix(1.00, 0.00, -0.00, -1.00, 119.8, 162.8)">k</text><text xml:space="preserve" font-family="GillSans,Gill Sans" font-size="23.0" fill="#FF9200" transform="matrix(1.00, 0.00, -0.00, -1.00, 130.1, 162.8)">e</text><text xml:space="preserve" font-family="GillSans,Gill Sans" font-size="23.0" fill="#FF9200" transform="matrix(1.00, 0.00, -0.00, -1.00, 141.1, 162.8)">l</text><text xml:space="preserve" font-family="GillSans,Gill Sans" font-size="23.0" fill="#FF9200" transform="matrix(1.00, 0.00, -0.00, -1.00, 146.2, 162.8)">l</text><text xml:space="preserve" font-family="GillSans,Gill Sans" font-size="23.0" fill="#FF9200" transform="matrix(1.00, 0.00, -0.00, -1.00, 151.2, 162.8)">o</text><text xml:space="preserve" font-family="GillSans,Gill Sans" font-size="23.0" fill="#FF9200" transform="matrix(1.00, 0.00, -0.00, -1.00, 163.9, 162.8)">g</text><text xml:space="preserve" font-family="GillSans,Gill Sans" font-size="23.0" fill="#FF9200" transform="matrix(1.00, 0.00, -0.00, -1.00, 173.7, 162.8)">g</text><text xml:space="preserve" font-family="GillSans,Gill Sans" font-size="23.0" fill="#FF9200" transform="matrix(1.00, 0.00, -0.00, -1.00, 183.6, 162.8)">.</text><text xml:space="preserve" font-family="GillSans,Gill Sans" font-size="23.0" fill="#FF9200" transform="matrix(1.00, 0.00, -0.00, -1.00, 188.6, 162.8)">n</text><text xml:space="preserve" font-family="GillSans,Gill Sans" font-size="23.0" fill="#FF9200" transform="matrix(1.00, 0.00, -0.00, -1.00, 200.1, 162.8)">e</text><text xml:space="preserve" font-family="GillSans,Gill Sans" font-size="23.0" fill="#FF9200" transform="matrix(1.00, 0.00, -0.00, -1.00, 211.1, 162.8)">t</text><text xml:space="preserve" font-family="GillSans,Gill Sans" font-size="23.0" fill="#FF9200" transform="matrix(1.00, 0.00, -0.00, -1.00, 218.8, 162.8)">/</text><text xml:space="preserve" font-family="GillSans,Gill Sans" font-size="23.0" fill="#FF9200" transform="matrix(1.00, 0.00, -0.00, -1.00, 225.2, 162.8)">f</text><text xml:space="preserve" font-family="GillSans,Gill Sans" font-size="23.0" fill="#FF9200" transform="matrix(1.00, 0.00, -0.00, -1.00, 230.8, 162.8)">o</text><text xml:space="preserve" font-family="GillSans,Gill Sans" font-size="23.0" fill="#FF9200" transform="matrix(1.00, 0.00, -0.00, -1.00, 243.4, 162.8)">a</text><text xml:space="preserve" font-family="GillSans,Gill Sans" font-size="23.0" fill="#FF9200" transform="matrix(1.00, 0.00, -0.00, -1.00, 253.2, 162.8)">f</text><text xml:space="preserve" font-family="GillSans,Gill Sans" font-size="23.0" fill="#FF9200" transform="matrix(1.00, 0.00, -0.00, -1.00, 259.0, 162.8)">#</text><text xml:space="preserve" font-family="GillSans,Gill Sans" font-size="23.0" fill="#FF9200" transform="matrix(1.00, 0.00, -0.00, -1.00, 272.5, 162.8)">m</text><text xml:space="preserve" font-family="GillSans,Gill Sans" font-size="23.0" fill="#FF9200" transform="matrix(1.00, 0.00, -0.00, -1.00, 290.2, 162.8)">e</text><text xml:space="preserve" font-family="GillSans,Gill Sans" font-size="23.0" fill="#FF9200" transform="matrix(1.00, 0.00, -0.00, -1.00, 301.2, 162.8)">&gt;</text><text xml:space="preserve" font-family="GillSans,Gill Sans" font-size="23.0" fill="#FF9200" transform="matrix(1.00, 0.00, -0.00, -1.00, 314.6, 162.8)"> </text><text xml:space="preserve" font-family="GillSans,Gill Sans" font-size="23.0" fill="#FF9200" transform="matrix(1.00, 0.00, -0.00, -1.00, 321.0, 162.8)">a</text><text xml:space="preserve" font-family="GillSans,Gill Sans" font-size="23.0" fill="#FF9200" transform="matrix(1.00, 0.00, -0.00, -1.00, 330.8, 162.8)"> </text><text xml:space="preserve" font-family="GillSans,Gill Sans" font-size="23.0" fill="#FF9200" transform="matrix(1.00, 0.00, -0.00, -1.00, 337.2, 162.8)">s</text><text xml:space="preserve" font-family="GillSans,Gill Sans" font-size="23.0" fill="#FF9200" transform="matrix(1.00, 0.00, -0.00, -1.00, 346.1, 162.8)">c</text><text xml:space="preserve" font-family="GillSans,Gill Sans" font-size="23.0" fill="#FF9200" transform="matrix(1.00, 0.00, -0.00, -1.00, 356.1, 162.8)">h</text><text xml:space="preserve" font-family="GillSans,Gill Sans" font-size="23.0" fill="#FF9200" transform="matrix(1.00, 0.00, -0.00, -1.00, 367.6, 162.8)">e</text><text xml:space="preserve" font-family="GillSans,Gill Sans" font-size="23.0" fill="#FF9200" transform="matrix(1.00, 0.00, -0.00, -1.00, 378.7, 162.8)">m</text><text xml:space="preserve" font-family="GillSans,Gill Sans" font-size="23.0" fill="#FF9200" transform="matrix(1.00, 0.00, -0.00, -1.00, 396.4, 162.8)">a</text><text xml:space="preserve" font-family="GillSans,Gill Sans" font-size="23.0" fill="#FF9200" transform="matrix(1.00, 0.00, -0.00, -1.00, 406.2, 162.8)">:</text><text xml:space="preserve" font-family="GillSans,Gill Sans" font-size="23.0" fill="#FF9200" transform="matrix(1.00, 0.00, -0.00, -1.00, 411.3, 162.8)">P</text><text xml:space="preserve" font-family="GillSans,Gill Sans" font-size="23.0" fill="#FF9200" transform="matrix(1.00, 0.00, -0.00, -1.00, 422.4, 162.8)">e</text><text xml:space="preserve" font-family="GillSans,Gill Sans" font-size="23.0" fill="#FF9200" transform="matrix(1.00, 0.00, -0.00, -1.00, 433.4, 162.8)">r</text><text xml:space="preserve" font-family="GillSans,Gill Sans" font-size="23.0" fill="#FF9200" transform="matrix(1.00, 0.00, -0.00, -1.00, 442.5, 162.8)">s</text><text xml:space="preserve" font-family="GillSans,Gill Sans" font-size="23.0" fill="#FF9200" transform="matrix(1.00, 0.00, -0.00, -1.00, 451.4, 162.8)">o</text><text xml:space="preserve" font-family="GillSans,Gill Sans" font-size="23.0" fill="#FF9200" transform="matrix(1.00, 0.00, -0.00, -1.00, 464.1, 162.8)">n</text><text xml:space="preserve" font-family="GillSans,Gill Sans" font-size="23.0" fill="#FF9200" transform="matrix(1.00, 0.00, -0.00, -1.00, 475.6, 162.8)">;</text><g><clipPath id="clip0x7fcd1118e9b0"><path d="M 13.4 159.5 L 272.5 159.5 L 272.5 162.6 L 13.4 162.6 Z M 13.4 159.5 "></path></clipPath><g clip-path="url(#clip0x7fcd1118e9b0)"><path d="M 17.4 52.4 L 275.5 52.4 " fill="none" stroke="#FF9200" stroke-width="1.15" transform="matrix(1.00, 0.00, 0.00, -1.00, -3.0, 213.5)"></path></g></g><text xml:space="preserve" font-family="GillSans,Gill Sans" font-size="23.0" fill="#FF9200" transform="matrix(1.00, 0.00, -0.00, -1.00, 1.0, 136.8)"> </text><text xml:space="preserve" font-family="GillSans,Gill Sans" font-size="23.0" fill="#FF9200" transform="matrix(1.00, 0.00, -0.00, -1.00, 7.4, 136.8)"> </text><text xml:space="preserve" font-family="GillSans,Gill Sans" font-size="23.0" fill="#FF9200" transform="matrix(1.00, 0.00, -0.00, -1.00, 13.8, 136.8)">s</text><text xml:space="preserve" font-family="GillSans,Gill Sans" font-size="23.0" fill="#FF9200" transform="matrix(1.00, 0.00, -0.00, -1.00, 22.6, 136.8)">c</text><text xml:space="preserve" font-family="GillSans,Gill Sans" font-size="23.0" fill="#FF9200" transform="matrix(1.00, 0.00, -0.00, -1.00, 32.7, 136.8)">h</text><text xml:space="preserve" font-family="GillSans,Gill Sans" font-size="23.0" fill="#FF9200" transform="matrix(1.00, 0.00, -0.00, -1.00, 44.2, 136.8)">e</text><text xml:space="preserve" font-family="GillSans,Gill Sans" font-size="23.0" fill="#FF9200" transform="matrix(1.00, 0.00, -0.00, -1.00, 55.2, 136.8)">m</text><text xml:space="preserve" font-family="GillSans,Gill Sans" font-size="23.0" fill="#FF9200" transform="matrix(1.00, 0.00, -0.00, -1.00, 72.9, 136.8)">a</text><text xml:space="preserve" font-family="GillSans,Gill Sans" font-size="23.0" fill="#FF9200" transform="matrix(1.00, 0.00, -0.00, -1.00, 82.8, 136.8)">:</text><text xml:space="preserve" font-family="GillSans,Gill Sans" font-size="23.0" fill="#FF9200" transform="matrix(1.00, 0.00, -0.00, -1.00, 87.8, 136.8)">n</text><text xml:space="preserve" font-family="GillSans,Gill Sans" font-size="23.0" fill="#FF9200" transform="matrix(1.00, 0.00, -0.00, -1.00, 99.3, 136.8)">a</text><text xml:space="preserve" font-family="GillSans,Gill Sans" font-size="23.0" fill="#FF9200" transform="matrix(1.00, 0.00, -0.00, -1.00, 109.1, 136.8)">m</text><text xml:space="preserve" font-family="GillSans,Gill Sans" font-size="23.0" fill="#FF9200" transform="matrix(1.00, 0.00, -0.00, -1.00, 126.8, 136.8)">e</text><text xml:space="preserve" font-family="GillSans,Gill Sans" font-size="23.0" fill="#FF9200" transform="matrix(1.00, 0.00, -0.00, -1.00, 137.9, 136.8)"> </text><text xml:space="preserve" font-family="GillSans,Gill Sans" font-size="23.0" fill="#FF9200" transform="matrix(1.00, 0.00, -0.00, -1.00, 141.9, 136.8)">“</text><text xml:space="preserve" font-family="GillSans,Gill Sans" font-size="23.0" fill="#FF9200" transform="matrix(1.00, 0.00, -0.00, -1.00, 151.8, 136.8)">G</text><text xml:space="preserve" font-family="GillSans,Gill Sans" font-size="23.0" fill="#FF9200" transform="matrix(1.00, 0.00, -0.00, -1.00, 168.8, 136.8)">r</text><text xml:space="preserve" font-family="GillSans,Gill Sans" font-size="23.0" fill="#FF9200" transform="matrix(1.00, 0.00, -0.00, -1.00, 177.4, 136.8)">e</text><text xml:space="preserve" font-family="GillSans,Gill Sans" font-size="23.0" fill="#FF9200" transform="matrix(1.00, 0.00, -0.00, -1.00, 188.4, 136.8)">g</text><text xml:space="preserve" font-family="GillSans,Gill Sans" font-size="23.0" fill="#FF9200" transform="matrix(1.00, 0.00, -0.00, -1.00, 198.3, 136.8)">g</text><text xml:space="preserve" font-family="GillSans,Gill Sans" font-size="23.0" fill="#FF9200" transform="matrix(1.00, 0.00, -0.00, -1.00, 208.1, 136.8)"> </text><text xml:space="preserve" font-family="GillSans,Gill Sans" font-size="23.0" fill="#FF9200" transform="matrix(1.00, 0.00, -0.00, -1.00, 214.5, 136.8)">K</text><text xml:space="preserve" font-family="GillSans,Gill Sans" font-size="23.0" fill="#FF9200" transform="matrix(1.00, 0.00, -0.00, -1.00, 228.2, 136.8)">e</text><text xml:space="preserve" font-family="GillSans,Gill Sans" font-size="23.0" fill="#FF9200" transform="matrix(1.00, 0.00, -0.00, -1.00, 239.2, 136.8)">l</text><text xml:space="preserve" font-family="GillSans,Gill Sans" font-size="23.0" fill="#FF9200" transform="matrix(1.00, 0.00, -0.00, -1.00, 244.2, 136.8)">l</text><text xml:space="preserve" font-family="GillSans,Gill Sans" font-size="23.0" fill="#FF9200" transform="matrix(1.00, 0.00, -0.00, -1.00, 249.3, 136.8)">o</text><text xml:space="preserve" font-family="GillSans,Gill Sans" font-size="23.0" fill="#FF9200" transform="matrix(1.00, 0.00, -0.00, -1.00, 261.9, 136.8)">g</text><text xml:space="preserve" font-family="GillSans,Gill Sans" font-size="23.0" fill="#FF9200" transform="matrix(1.00, 0.00, -0.00, -1.00, 271.8, 136.8)">g</text><text xml:space="preserve" font-family="GillSans,Gill Sans" font-size="23.0" fill="#FF9200" transform="matrix(1.00, 0.00, -0.00, -1.00, 281.6, 136.8)">”</text><text xml:space="preserve" font-family="GillSans,Gill Sans" font-size="23.0" fill="#FF9200" transform="matrix(1.00, 0.00, -0.00, -1.00, 291.4, 136.8)">;</text><text xml:space="preserve" font-family="GillSans,Gill Sans" font-size="23.0" fill="#FF9200" transform="matrix(1.00, 0.00, -0.00, -1.00, 1.0, 110.8)"> </text><text xml:space="preserve" font-family="GillSans,Gill Sans" font-size="23.0" fill="#FF9200" transform="matrix(1.00, 0.00, -0.00, -1.00, 7.4, 110.8)"> </text><text xml:space="preserve" font-family="GillSans,Gill Sans" font-size="23.0" fill="#FF9200" transform="matrix(1.00, 0.00, -0.00, -1.00, 13.8, 110.8)">s</text><text xml:space="preserve" font-family="GillSans,Gill Sans" font-size="23.0" fill="#FF9200" transform="matrix(1.00, 0.00, -0.00, -1.00, 22.6, 110.8)">h</text><text xml:space="preserve" font-family="GillSans,Gill Sans" font-size="23.0" fill="#FF9200" transform="matrix(1.00, 0.00, -0.00, -1.00, 34.1, 110.8)">e</text><text xml:space="preserve" font-family="GillSans,Gill Sans" font-size="23.0" fill="#FF9200" transform="matrix(1.00, 0.00, -0.00, -1.00, 45.1, 110.8)">m</text><text xml:space="preserve" font-family="GillSans,Gill Sans" font-size="23.0" fill="#FF9200" transform="matrix(1.00, 0.00, -0.00, -1.00, 62.9, 110.8)">a</text><text xml:space="preserve" font-family="GillSans,Gill Sans" font-size="23.0" fill="#FF9200" transform="matrix(1.00, 0.00, -0.00, -1.00, 72.7, 110.8)">:</text><text xml:space="preserve" font-family="GillSans,Gill Sans" font-size="23.0" fill="#FF9200" transform="matrix(1.00, 0.00, -0.00, -1.00, 77.7, 110.8)">k</text><text xml:space="preserve" font-family="GillSans,Gill Sans" font-size="23.0" fill="#FF9200" transform="matrix(1.00, 0.00, -0.00, -1.00, 88.7, 110.8)">n</text><text xml:space="preserve" font-family="GillSans,Gill Sans" font-size="23.0" fill="#FF9200" transform="matrix(1.00, 0.00, -0.00, -1.00, 100.2, 110.8)">o</text><text xml:space="preserve" font-family="GillSans,Gill Sans" font-size="23.0" fill="#FF9200" transform="matrix(1.00, 0.00, -0.00, -1.00, 112.7, 110.8)">w</text><text xml:space="preserve" font-family="GillSans,Gill Sans" font-size="23.0" fill="#FF9200" transform="matrix(1.00, 0.00, -0.00, -1.00, 129.2, 110.8)">s</text><text xml:space="preserve" font-family="GillSans,Gill Sans" font-size="23.0" fill="#FF9200" transform="matrix(1.00, 0.00, -0.00, -1.00, 138.1, 110.8)"> </text><text xml:space="preserve" font-family="GillSans,Gill Sans" font-size="23.0" fill="#FF9200" transform="matrix(1.00, 0.00, -0.00, -1.00, 144.5, 110.8)">&lt;</text><text xml:space="preserve" font-family="GillSans,Gill Sans" font-size="23.0" fill="#FF9200" transform="matrix(1.00, 0.00, -0.00, -1.00, 157.9, 110.8)">h</text><text xml:space="preserve" font-family="GillSans,Gill Sans" font-size="23.0" fill="#FF9200" transform="matrix(1.00, 0.00, -0.00, -1.00, 169.4, 110.8)">t</text><text xml:space="preserve" font-family="GillSans,Gill Sans" font-size="23.0" fill="#FF9200" transform="matrix(1.00, 0.00, -0.00, -1.00, 177.1, 110.8)">t</text><text xml:space="preserve" font-family="GillSans,Gill Sans" font-size="23.0" fill="#FF9200" transform="matrix(1.00, 0.00, -0.00, -1.00, 184.7, 110.8)">p</text><text xml:space="preserve" font-family="GillSans,Gill Sans" font-size="23.0" fill="#FF9200" transform="matrix(1.00, 0.00, -0.00, -1.00, 196.2, 110.8)">:</text><text xml:space="preserve" font-family="GillSans,Gill Sans" font-size="23.0" fill="#FF9200" transform="matrix(1.00, 0.00, -0.00, -1.00, 201.3, 110.8)">/</text><text xml:space="preserve" font-family="GillSans,Gill Sans" font-size="23.0" fill="#FF9200" transform="matrix(1.00, 0.00, -0.00, -1.00, 207.7, 110.8)">/</text><text xml:space="preserve" font-family="GillSans,Gill Sans" font-size="23.0" fill="#FF9200" transform="matrix(1.00, 0.00, -0.00, -1.00, 214.2, 110.8)">w</text><text xml:space="preserve" font-family="GillSans,Gill Sans" font-size="23.0" fill="#FF9200" transform="matrix(1.00, 0.00, -0.00, -1.00, 230.7, 110.8)">w</text><text xml:space="preserve" font-family="GillSans,Gill Sans" font-size="23.0" fill="#FF9200" transform="matrix(1.00, 0.00, -0.00, -1.00, 247.3, 110.8)">w</text><text xml:space="preserve" font-family="GillSans,Gill Sans" font-size="23.0" fill="#FF9200" transform="matrix(1.00, 0.00, -0.00, -1.00, 262.4, 110.8)">.</text><text xml:space="preserve" font-family="GillSans,Gill Sans" font-size="23.0" fill="#FF9200" transform="matrix(1.00, 0.00, -0.00, -1.00, 267.5, 110.8)">m</text><text xml:space="preserve" font-family="GillSans,Gill Sans" font-size="23.0" fill="#FF9200" transform="matrix(1.00, 0.00, -0.00, -1.00, 285.2, 110.8)">a</text><text xml:space="preserve" font-family="GillSans,Gill Sans" font-size="23.0" fill="#FF9200" transform="matrix(1.00, 0.00, -0.00, -1.00, 295.0, 110.8)">r</text><text xml:space="preserve" font-family="GillSans,Gill Sans" font-size="23.0" fill="#FF9200" transform="matrix(1.00, 0.00, -0.00, -1.00, 304.1, 110.8)">k</text><text xml:space="preserve" font-family="GillSans,Gill Sans" font-size="23.0" fill="#FF9200" transform="matrix(1.00, 0.00, -0.00, -1.00, 315.2, 110.8)">u</text><text xml:space="preserve" font-family="GillSans,Gill Sans" font-size="23.0" fill="#FF9200" transform="matrix(1.00, 0.00, -0.00, -1.00, 326.7, 110.8)">s</text><text xml:space="preserve" font-family="GillSans,Gill Sans" font-size="23.0" fill="#FF9200" transform="matrix(1.00, 0.00, -0.00, -1.00, 335.5, 110.8)">-</text><text xml:space="preserve" font-family="GillSans,Gill Sans" font-size="23.0" fill="#FF9200" transform="matrix(1.00, 0.00, -0.00, -1.00, 342.9, 110.8)">l</text><text xml:space="preserve" font-family="GillSans,Gill Sans" font-size="23.0" fill="#FF9200" transform="matrix(1.00, 0.00, -0.00, -1.00, 348.0, 110.8)">a</text><text xml:space="preserve" font-family="GillSans,Gill Sans" font-size="23.0" fill="#FF9200" transform="matrix(1.00, 0.00, -0.00, -1.00, 357.8, 110.8)">n</text><text xml:space="preserve" font-family="GillSans,Gill Sans" font-size="23.0" fill="#FF9200" transform="matrix(1.00, 0.00, -0.00, -1.00, 369.3, 110.8)">t</text><text xml:space="preserve" font-family="GillSans,Gill Sans" font-size="23.0" fill="#FF9200" transform="matrix(1.00, 0.00, -0.00, -1.00, 377.0, 110.8)">h</text><text xml:space="preserve" font-family="GillSans,Gill Sans" font-size="23.0" fill="#FF9200" transform="matrix(1.00, 0.00, -0.00, -1.00, 388.5, 110.8)">a</text><text xml:space="preserve" font-family="GillSans,Gill Sans" font-size="23.0" fill="#FF9200" transform="matrix(1.00, 0.00, -0.00, -1.00, 398.3, 110.8)">l</text><text xml:space="preserve" font-family="GillSans,Gill Sans" font-size="23.0" fill="#FF9200" transform="matrix(1.00, 0.00, -0.00, -1.00, 403.3, 110.8)">e</text><text xml:space="preserve" font-family="GillSans,Gill Sans" font-size="23.0" fill="#FF9200" transform="matrix(1.00, 0.00, -0.00, -1.00, 414.3, 110.8)">r</text><text xml:space="preserve" font-family="GillSans,Gill Sans" font-size="23.0" fill="#FF9200" transform="matrix(1.00, 0.00, -0.00, -1.00, 421.1, 110.8)">.</text><text xml:space="preserve" font-family="GillSans,Gill Sans" font-size="23.0" fill="#FF9200" transform="matrix(1.00, 0.00, -0.00, -1.00, 426.2, 110.8)">c</text><text xml:space="preserve" font-family="GillSans,Gill Sans" font-size="23.0" fill="#FF9200" transform="matrix(1.00, 0.00, -0.00, -1.00, 436.3, 110.8)">o</text><text xml:space="preserve" font-family="GillSans,Gill Sans" font-size="23.0" fill="#FF9200" transform="matrix(1.00, 0.00, -0.00, -1.00, 448.9, 110.8)">m</text><text xml:space="preserve" font-family="GillSans,Gill Sans" font-size="23.0" fill="#FF9200" transform="matrix(1.00, 0.00, -0.00, -1.00, 466.7, 110.8)">/</text><text xml:space="preserve" font-family="GillSans,Gill Sans" font-size="23.0" fill="#FF9200" transform="matrix(1.00, 0.00, -0.00, -1.00, 473.1, 110.8)">&gt;</text><text xml:space="preserve" font-family="GillSans,Gill Sans" font-size="23.0" fill="#FF9200" transform="matrix(1.00, 0.00, -0.00, -1.00, 486.6, 110.8)"> </text><text xml:space="preserve" font-family="GillSans,Gill Sans" font-size="23.0" fill="#FF9200" transform="matrix(1.00, 0.00, -0.00, -1.00, 493.0, 110.8)">.</text><text xml:space="preserve" font-family="GillSans,Gill Sans" font-size="23.0" fill="#00F900" transform="matrix(1.00, 0.00, -0.00, -1.00, 1.0, 58.8)">&lt;</text><text xml:space="preserve" font-family="GillSans,Gill Sans" font-size="23.0" fill="#00F900" transform="matrix(1.00, 0.00, -0.00, -1.00, 14.4, 58.8)">h</text><text xml:space="preserve" font-family="GillSans,Gill Sans" font-size="23.0" fill="#00F900" transform="matrix(1.00, 0.00, -0.00, -1.00, 25.9, 58.8)">t</text><text xml:space="preserve" font-family="GillSans,Gill Sans" font-size="23.0" fill="#00F900" transform="matrix(1.00, 0.00, -0.00, -1.00, 33.6, 58.8)">t</text><text xml:space="preserve" font-family="GillSans,Gill Sans" font-size="23.0" fill="#00F900" transform="matrix(1.00, 0.00, -0.00, -1.00, 41.2, 58.8)">p</text><text xml:space="preserve" font-family="GillSans,Gill Sans" font-size="23.0" fill="#00F900" transform="matrix(1.00, 0.00, -0.00, -1.00, 52.8, 58.8)">:</text><text xml:space="preserve" font-family="GillSans,Gill Sans" font-size="23.0" fill="#00F900" transform="matrix(1.00, 0.00, -0.00, -1.00, 57.8, 58.8)">/</text><text xml:space="preserve" font-family="GillSans,Gill Sans" font-size="23.0" fill="#00F900" transform="matrix(1.00, 0.00, -0.00, -1.00, 64.2, 58.8)">/</text><text xml:space="preserve" font-family="GillSans,Gill Sans" font-size="23.0" fill="#00F900" transform="matrix(1.00, 0.00, -0.00, -1.00, 70.7, 58.8)">w</text><text xml:space="preserve" font-family="GillSans,Gill Sans" font-size="23.0" fill="#00F900" transform="matrix(1.00, 0.00, -0.00, -1.00, 87.2, 58.8)">w</text><text xml:space="preserve" font-family="GillSans,Gill Sans" font-size="23.0" fill="#00F900" transform="matrix(1.00, 0.00, -0.00, -1.00, 103.8, 58.8)">w</text><text xml:space="preserve" font-family="GillSans,Gill Sans" font-size="23.0" fill="#00F900" transform="matrix(1.00, 0.00, -0.00, -1.00, 119.0, 58.8)">.</text><text xml:space="preserve" font-family="GillSans,Gill Sans" font-size="23.0" fill="#00F900" transform="matrix(1.00, 0.00, -0.00, -1.00, 124.0, 58.8)">m</text><text xml:space="preserve" font-family="GillSans,Gill Sans" font-size="23.0" fill="#00F900" transform="matrix(1.00, 0.00, -0.00, -1.00, 141.7, 58.8)">a</text><text xml:space="preserve" font-family="GillSans,Gill Sans" font-size="23.0" fill="#00F900" transform="matrix(1.00, 0.00, -0.00, -1.00, 151.6, 58.8)">r</text><text xml:space="preserve" font-family="GillSans,Gill Sans" font-size="23.0" fill="#00F900" transform="matrix(1.00, 0.00, -0.00, -1.00, 160.7, 58.8)">k</text><text xml:space="preserve" font-family="GillSans,Gill Sans" font-size="23.0" fill="#00F900" transform="matrix(1.00, 0.00, -0.00, -1.00, 171.7, 58.8)">u</text><text xml:space="preserve" font-family="GillSans,Gill Sans" font-size="23.0" fill="#00F900" transform="matrix(1.00, 0.00, -0.00, -1.00, 183.2, 58.8)">s</text><text xml:space="preserve" font-family="GillSans,Gill Sans" font-size="23.0" fill="#00F900" transform="matrix(1.00, 0.00, -0.00, -1.00, 192.0, 58.8)">-</text><text xml:space="preserve" font-family="GillSans,Gill Sans" font-size="23.0" fill="#00F900" transform="matrix(1.00, 0.00, -0.00, -1.00, 199.5, 58.8)">l</text><text xml:space="preserve" font-family="GillSans,Gill Sans" font-size="23.0" fill="#00F900" transform="matrix(1.00, 0.00, -0.00, -1.00, 204.5, 58.8)">a</text><text xml:space="preserve" font-family="GillSans,Gill Sans" font-size="23.0" fill="#00F900" transform="matrix(1.00, 0.00, -0.00, -1.00, 214.3, 58.8)">n</text><text xml:space="preserve" font-family="GillSans,Gill Sans" font-size="23.0" fill="#00F900" transform="matrix(1.00, 0.00, -0.00, -1.00, 225.8, 58.8)">t</text><text xml:space="preserve" font-family="GillSans,Gill Sans" font-size="23.0" fill="#00F900" transform="matrix(1.00, 0.00, -0.00, -1.00, 233.5, 58.8)">h</text><text xml:space="preserve" font-family="GillSans,Gill Sans" font-size="23.0" fill="#00F900" transform="matrix(1.00, 0.00, -0.00, -1.00, 245.0, 58.8)">a</text><text xml:space="preserve" font-family="GillSans,Gill Sans" font-size="23.0" fill="#00F900" transform="matrix(1.00, 0.00, -0.00, -1.00, 254.8, 58.8)">l</text><text xml:space="preserve" font-family="GillSans,Gill Sans" font-size="23.0" fill="#00F900" transform="matrix(1.00, 0.00, -0.00, -1.00, 259.8, 58.8)">e</text><text xml:space="preserve" font-family="GillSans,Gill Sans" font-size="23.0" fill="#00F900" transform="matrix(1.00, 0.00, -0.00, -1.00, 270.9, 58.8)">r</text><text xml:space="preserve" font-family="GillSans,Gill Sans" font-size="23.0" fill="#00F900" transform="matrix(1.00, 0.00, -0.00, -1.00, 277.7, 58.8)">.</text><text xml:space="preserve" font-family="GillSans,Gill Sans" font-size="23.0" fill="#00F900" transform="matrix(1.00, 0.00, -0.00, -1.00, 282.7, 58.8)">c</text><text xml:space="preserve" font-family="GillSans,Gill Sans" font-size="23.0" fill="#00F900" transform="matrix(1.00, 0.00, -0.00, -1.00, 292.8, 58.8)">o</text><text xml:space="preserve" font-family="GillSans,Gill Sans" font-size="23.0" fill="#00F900" transform="matrix(1.00, 0.00, -0.00, -1.00, 305.5, 58.8)">m</text><text xml:space="preserve" font-family="GillSans,Gill Sans" font-size="23.0" fill="#00F900" transform="matrix(1.00, 0.00, -0.00, -1.00, 323.2, 58.8)">/</text><text xml:space="preserve" font-family="GillSans,Gill Sans" font-size="23.0" fill="#00F900" transform="matrix(1.00, 0.00, -0.00, -1.00, 329.7, 58.8)">&gt;</text><text xml:space="preserve" font-family="GillSans,Gill Sans" font-size="23.0" fill="#00F900" transform="matrix(1.00, 0.00, -0.00, -1.00, 343.1, 58.8)"> </text><text xml:space="preserve" font-family="GillSans,Gill Sans" font-size="23.0" fill="#00F900" transform="matrix(1.00, 0.00, -0.00, -1.00, 349.5, 58.8)">a</text><text xml:space="preserve" font-family="GillSans,Gill Sans" font-size="23.0" fill="#00F900" transform="matrix(1.00, 0.00, -0.00, -1.00, 359.3, 58.8)"> </text><text xml:space="preserve" font-family="GillSans,Gill Sans" font-size="23.0" fill="#00F900" transform="matrix(1.00, 0.00, -0.00, -1.00, 365.7, 58.8)">s</text><text xml:space="preserve" font-family="GillSans,Gill Sans" font-size="23.0" fill="#00F900" transform="matrix(1.00, 0.00, -0.00, -1.00, 374.5, 58.8)">c</text><text xml:space="preserve" font-family="GillSans,Gill Sans" font-size="23.0" fill="#00F900" transform="matrix(1.00, 0.00, -0.00, -1.00, 384.6, 58.8)">h</text><text xml:space="preserve" font-family="GillSans,Gill Sans" font-size="23.0" fill="#00F900" transform="matrix(1.00, 0.00, -0.00, -1.00, 396.1, 58.8)">e</text><text xml:space="preserve" font-family="GillSans,Gill Sans" font-size="23.0" fill="#00F900" transform="matrix(1.00, 0.00, -0.00, -1.00, 407.1, 58.8)">m</text><text xml:space="preserve" font-family="GillSans,Gill Sans" font-size="23.0" fill="#00F900" transform="matrix(1.00, 0.00, -0.00, -1.00, 424.8, 58.8)">a</text><text xml:space="preserve" font-family="GillSans,Gill Sans" font-size="23.0" fill="#00F900" transform="matrix(1.00, 0.00, -0.00, -1.00, 434.6, 58.8)">:</text><text xml:space="preserve" font-family="GillSans,Gill Sans" font-size="23.0" fill="#00F900" transform="matrix(1.00, 0.00, -0.00, -1.00, 439.7, 58.8)">P</text><text xml:space="preserve" font-family="GillSans,Gill Sans" font-size="23.0" fill="#00F900" transform="matrix(1.00, 0.00, -0.00, -1.00, 450.8, 58.8)">e</text><text xml:space="preserve" font-family="GillSans,Gill Sans" font-size="23.0" fill="#00F900" transform="matrix(1.00, 0.00, -0.00, -1.00, 461.9, 58.8)">r</text><text xml:space="preserve" font-family="GillSans,Gill Sans" font-size="23.0" fill="#00F900" transform="matrix(1.00, 0.00, -0.00, -1.00, 471.0, 58.8)">s</text><text xml:space="preserve" font-family="GillSans,Gill Sans" font-size="23.0" fill="#00F900" transform="matrix(1.00, 0.00, -0.00, -1.00, 479.8, 58.8)">o</text><text xml:space="preserve" font-family="GillSans,Gill Sans" font-size="23.0" fill="#00F900" transform="matrix(1.00, 0.00, -0.00, -1.00, 492.5, 58.8)">n</text><text xml:space="preserve" font-family="GillSans,Gill Sans" font-size="23.0" fill="#00F900" transform="matrix(1.00, 0.00, -0.00, -1.00, 1.0, 32.8)"> </text><text xml:space="preserve" font-family="GillSans,Gill Sans" font-size="23.0" fill="#00F900" transform="matrix(1.00, 0.00, -0.00, -1.00, 7.4, 32.8)"> </text><text xml:space="preserve" font-family="GillSans,Gill Sans" font-size="23.0" fill="#00F900" transform="matrix(1.00, 0.00, -0.00, -1.00, 13.8, 32.8)">s</text><text xml:space="preserve" font-family="GillSans,Gill Sans" font-size="23.0" fill="#00F900" transform="matrix(1.00, 0.00, -0.00, -1.00, 22.6, 32.8)">c</text><text xml:space="preserve" font-family="GillSans,Gill Sans" font-size="23.0" fill="#00F900" transform="matrix(1.00, 0.00, -0.00, -1.00, 32.7, 32.8)">h</text><text xml:space="preserve" font-family="GillSans,Gill Sans" font-size="23.0" fill="#00F900" transform="matrix(1.00, 0.00, -0.00, -1.00, 44.2, 32.8)">e</text><text xml:space="preserve" font-family="GillSans,Gill Sans" font-size="23.0" fill="#00F900" transform="matrix(1.00, 0.00, -0.00, -1.00, 55.2, 32.8)">m</text><text xml:space="preserve" font-family="GillSans,Gill Sans" font-size="23.0" fill="#00F900" transform="matrix(1.00, 0.00, -0.00, -1.00, 72.9, 32.8)">a</text><text xml:space="preserve" font-family="GillSans,Gill Sans" font-size="23.0" fill="#00F900" transform="matrix(1.00, 0.00, -0.00, -1.00, 82.8, 32.8)">:</text><text xml:space="preserve" font-family="GillSans,Gill Sans" font-size="23.0" fill="#00F900" transform="matrix(1.00, 0.00, -0.00, -1.00, 87.8, 32.8)">n</text><text xml:space="preserve" font-family="GillSans,Gill Sans" font-size="23.0" fill="#00F900" transform="matrix(1.00, 0.00, -0.00, -1.00, 99.3, 32.8)">a</text><text xml:space="preserve" font-family="GillSans,Gill Sans" font-size="23.0" fill="#00F900" transform="matrix(1.00, 0.00, -0.00, -1.00, 109.1, 32.8)">m</text><text xml:space="preserve" font-family="GillSans,Gill Sans" font-size="23.0" fill="#00F900" transform="matrix(1.00, 0.00, -0.00, -1.00, 126.8, 32.8)">e</text><text xml:space="preserve" font-family="GillSans,Gill Sans" font-size="23.0" fill="#00F900" transform="matrix(1.00, 0.00, -0.00, -1.00, 137.9, 32.8)"> </text><text xml:space="preserve" font-family="GillSans,Gill Sans" font-size="23.0" fill="#00F900" transform="matrix(1.00, 0.00, -0.00, -1.00, 141.9, 32.8)">“</text><text xml:space="preserve" font-family="GillSans,Gill Sans" font-size="23.0" fill="#00F900" transform="matrix(1.00, 0.00, -0.00, -1.00, 151.8, 32.8)">M</text><text xml:space="preserve" font-family="GillSans,Gill Sans" font-size="23.0" fill="#00F900" transform="matrix(1.00, 0.00, -0.00, -1.00, 169.7, 32.8)">a</text><text xml:space="preserve" font-family="GillSans,Gill Sans" font-size="23.0" fill="#00F900" transform="matrix(1.00, 0.00, -0.00, -1.00, 179.5, 32.8)">r</text><text xml:space="preserve" font-family="GillSans,Gill Sans" font-size="23.0" fill="#00F900" transform="matrix(1.00, 0.00, -0.00, -1.00, 188.6, 32.8)">k</text><text xml:space="preserve" font-family="GillSans,Gill Sans" font-size="23.0" fill="#00F900" transform="matrix(1.00, 0.00, -0.00, -1.00, 199.6, 32.8)">u</text><text xml:space="preserve" font-family="GillSans,Gill Sans" font-size="23.0" fill="#00F900" transform="matrix(1.00, 0.00, -0.00, -1.00, 211.1, 32.8)">s</text><text xml:space="preserve" font-family="GillSans,Gill Sans" font-size="23.0" fill="#00F900" transform="matrix(1.00, 0.00, -0.00, -1.00, 220.0, 32.8)"> </text><text xml:space="preserve" font-family="GillSans,Gill Sans" font-size="23.0" fill="#00F900" transform="matrix(1.00, 0.00, -0.00, -1.00, 226.4, 32.8)">L</text><text xml:space="preserve" font-family="GillSans,Gill Sans" font-size="23.0" fill="#00F900" transform="matrix(1.00, 0.00, -0.00, -1.00, 237.7, 32.8)">a</text><text xml:space="preserve" font-family="GillSans,Gill Sans" font-size="23.0" fill="#00F900" transform="matrix(1.00, 0.00, -0.00, -1.00, 247.5, 32.8)">n</text><text xml:space="preserve" font-family="GillSans,Gill Sans" font-size="23.0" fill="#00F900" transform="matrix(1.00, 0.00, -0.00, -1.00, 259.0, 32.8)">t</text><text xml:space="preserve" font-family="GillSans,Gill Sans" font-size="23.0" fill="#00F900" transform="matrix(1.00, 0.00, -0.00, -1.00, 266.6, 32.8)">h</text><text xml:space="preserve" font-family="GillSans,Gill Sans" font-size="23.0" fill="#00F900" transform="matrix(1.00, 0.00, -0.00, -1.00, 278.1, 32.8)">a</text><text xml:space="preserve" font-family="GillSans,Gill Sans" font-size="23.0" fill="#00F900" transform="matrix(1.00, 0.00, -0.00, -1.00, 287.9, 32.8)">l</text><text xml:space="preserve" font-family="GillSans,Gill Sans" font-size="23.0" fill="#00F900" transform="matrix(1.00, 0.00, -0.00, -1.00, 293.0, 32.8)">e</text><text xml:space="preserve" font-family="GillSans,Gill Sans" font-size="23.0" fill="#00F900" transform="matrix(1.00, 0.00, -0.00, -1.00, 304.0, 32.8)">r</text><text xml:space="preserve" font-family="GillSans,Gill Sans" font-size="23.0" fill="#00F900" transform="matrix(1.00, 0.00, -0.00, -1.00, 313.1, 32.8)">”</text><text xml:space="preserve" font-family="GillSans,Gill Sans" font-size="23.0" fill="#00F900" transform="matrix(1.00, 0.00, -0.00, -1.00, 1.0, 6.8)"> </text><text xml:space="preserve" font-family="GillSans,Gill Sans" font-size="23.0" fill="#00F900" transform="matrix(1.00, 0.00, -0.00, -1.00, 7.4, 6.8)"> </text><text xml:space="preserve" font-family="GillSans,Gill Sans" font-size="23.0" fill="#00F900" transform="matrix(1.00, 0.00, -0.00, -1.00, 13.8, 6.8)">s</text><text xml:space="preserve" font-family="GillSans,Gill Sans" font-size="23.0" fill="#00F900" transform="matrix(1.00, 0.00, -0.00, -1.00, 22.6, 6.8)">c</text><text xml:space="preserve" font-family="GillSans,Gill Sans" font-size="23.0" fill="#00F900" transform="matrix(1.00, 0.00, -0.00, -1.00, 32.7, 6.8)">h</text><text xml:space="preserve" font-family="GillSans,Gill Sans" font-size="23.0" fill="#00F900" transform="matrix(1.00, 0.00, -0.00, -1.00, 44.2, 6.8)">e</text><text xml:space="preserve" font-family="GillSans,Gill Sans" font-size="23.0" fill="#00F900" transform="matrix(1.00, 0.00, -0.00, -1.00, 55.2, 6.8)">m</text><text xml:space="preserve" font-family="GillSans,Gill Sans" font-size="23.0" fill="#00F900" transform="matrix(1.00, 0.00, -0.00, -1.00, 72.9, 6.8)">a</text><text xml:space="preserve" font-family="GillSans,Gill Sans" font-size="23.0" fill="#00F900" transform="matrix(1.00, 0.00, -0.00, -1.00, 82.8, 6.8)">:</text><text xml:space="preserve" font-family="GillSans,Gill Sans" font-size="23.0" fill="#00F900" transform="matrix(1.00, 0.00, -0.00, -1.00, 87.8, 6.8)">k</text><text xml:space="preserve" font-family="GillSans,Gill Sans" font-size="23.0" fill="#00F900" transform="matrix(1.00, 0.00, -0.00, -1.00, 98.8, 6.8)">n</text><text xml:space="preserve" font-family="GillSans,Gill Sans" font-size="23.0" fill="#00F900" transform="matrix(1.00, 0.00, -0.00, -1.00, 110.3, 6.8)">o</text><text xml:space="preserve" font-family="GillSans,Gill Sans" font-size="23.0" fill="#00F900" transform="matrix(1.00, 0.00, -0.00, -1.00, 122.8, 6.8)">w</text><text xml:space="preserve" font-family="GillSans,Gill Sans" font-size="23.0" fill="#00F900" transform="matrix(1.00, 0.00, -0.00, -1.00, 139.3, 6.8)">s</text><text xml:space="preserve" font-family="GillSans,Gill Sans" font-size="23.0" fill="#00F900" transform="matrix(1.00, 0.00, -0.00, -1.00, 148.2, 6.8)"> </text><text xml:space="preserve" font-family="GillSans,Gill Sans" font-size="23.0" fill="#00F900" transform="matrix(1.00, 0.00, -0.00, -1.00, 154.6, 6.8)">&lt;</text><text xml:space="preserve" font-family="GillSans,Gill Sans" font-size="23.0" fill="#00F900" transform="matrix(1.00, 0.00, -0.00, -1.00, 168.0, 6.8)">h</text><text xml:space="preserve" font-family="GillSans,Gill Sans" font-size="23.0" fill="#00F900" transform="matrix(1.00, 0.00, -0.00, -1.00, 179.5, 6.8)">t</text><text xml:space="preserve" font-family="GillSans,Gill Sans" font-size="23.0" fill="#00F900" transform="matrix(1.00, 0.00, -0.00, -1.00, 187.1, 6.8)">t</text><text xml:space="preserve" font-family="GillSans,Gill Sans" font-size="23.0" fill="#00F900" transform="matrix(1.00, 0.00, -0.00, -1.00, 194.8, 6.8)">p</text><text xml:space="preserve" font-family="GillSans,Gill Sans" font-size="23.0" fill="#00F900" transform="matrix(1.00, 0.00, -0.00, -1.00, 206.3, 6.8)">:</text><text xml:space="preserve" font-family="GillSans,Gill Sans" font-size="23.0" fill="#00F900" transform="matrix(1.00, 0.00, -0.00, -1.00, 211.3, 6.8)">/</text><text xml:space="preserve" font-family="GillSans,Gill Sans" font-size="23.0" fill="#00F900" transform="matrix(1.00, 0.00, -0.00, -1.00, 217.8, 6.8)">/</text><text xml:space="preserve" font-family="GillSans,Gill Sans" font-size="23.0" fill="#00F900" transform="matrix(1.00, 0.00, -0.00, -1.00, 224.3, 6.8)">g</text><text xml:space="preserve" font-family="GillSans,Gill Sans" font-size="23.0" fill="#00F900" transform="matrix(1.00, 0.00, -0.00, -1.00, 234.1, 6.8)">r</text><text xml:space="preserve" font-family="GillSans,Gill Sans" font-size="23.0" fill="#00F900" transform="matrix(1.00, 0.00, -0.00, -1.00, 242.7, 6.8)">e</text><text xml:space="preserve" font-family="GillSans,Gill Sans" font-size="23.0" fill="#00F900" transform="matrix(1.00, 0.00, -0.00, -1.00, 253.7, 6.8)">g</text><text xml:space="preserve" font-family="GillSans,Gill Sans" font-size="23.0" fill="#00F900" transform="matrix(1.00, 0.00, -0.00, -1.00, 263.5, 6.8)">g</text><text xml:space="preserve" font-family="GillSans,Gill Sans" font-size="23.0" fill="#00F900" transform="matrix(1.00, 0.00, -0.00, -1.00, 273.4, 6.8)">k</text><text xml:space="preserve" font-family="GillSans,Gill Sans" font-size="23.0" fill="#00F900" transform="matrix(1.00, 0.00, -0.00, -1.00, 283.7, 6.8)">e</text><text xml:space="preserve" font-family="GillSans,Gill Sans" font-size="23.0" fill="#00F900" transform="matrix(1.00, 0.00, -0.00, -1.00, 294.7, 6.8)">l</text><text xml:space="preserve" font-family="GillSans,Gill Sans" font-size="23.0" fill="#00F900" transform="matrix(1.00, 0.00, -0.00, -1.00, 299.7, 6.8)">l</text><text xml:space="preserve" font-family="GillSans,Gill Sans" font-size="23.0" fill="#00F900" transform="matrix(1.00, 0.00, -0.00, -1.00, 304.8, 6.8)">o</text><text xml:space="preserve" font-family="GillSans,Gill Sans" font-size="23.0" fill="#00F900" transform="matrix(1.00, 0.00, -0.00, -1.00, 317.5, 6.8)">g</text><text xml:space="preserve" font-family="GillSans,Gill Sans" font-size="23.0" fill="#00F900" transform="matrix(1.00, 0.00, -0.00, -1.00, 327.3, 6.8)">g</text><text xml:space="preserve" font-family="GillSans,Gill Sans" font-size="23.0" fill="#00F900" transform="matrix(1.00, 0.00, -0.00, -1.00, 337.1, 6.8)">.</text><text xml:space="preserve" font-family="GillSans,Gill Sans" font-size="23.0" fill="#00F900" transform="matrix(1.00, 0.00, -0.00, -1.00, 342.2, 6.8)">n</text><text xml:space="preserve" font-family="GillSans,Gill Sans" font-size="23.0" fill="#00F900" transform="matrix(1.00, 0.00, -0.00, -1.00, 353.7, 6.8)">e</text><text xml:space="preserve" font-family="GillSans,Gill Sans" font-size="23.0" fill="#00F900" transform="matrix(1.00, 0.00, -0.00, -1.00, 364.7, 6.8)">t</text><text xml:space="preserve" font-family="GillSans,Gill Sans" font-size="23.0" fill="#00F900" transform="matrix(1.00, 0.00, -0.00, -1.00, 372.3, 6.8)">/</text><text xml:space="preserve" font-family="GillSans,Gill Sans" font-size="23.0" fill="#00F900" transform="matrix(1.00, 0.00, -0.00, -1.00, 378.8, 6.8)">f</text><text xml:space="preserve" font-family="GillSans,Gill Sans" font-size="23.0" fill="#00F900" transform="matrix(1.00, 0.00, -0.00, -1.00, 384.3, 6.8)">o</text><text xml:space="preserve" font-family="GillSans,Gill Sans" font-size="23.0" fill="#00F900" transform="matrix(1.00, 0.00, -0.00, -1.00, 397.0, 6.8)">a</text><text xml:space="preserve" font-family="GillSans,Gill Sans" font-size="23.0" fill="#00F900" transform="matrix(1.00, 0.00, -0.00, -1.00, 406.8, 6.8)">f</text><text xml:space="preserve" font-family="GillSans,Gill Sans" font-size="23.0" fill="#00F900" transform="matrix(1.00, 0.00, -0.00, -1.00, 412.6, 6.8)">#</text><text xml:space="preserve" font-family="GillSans,Gill Sans" font-size="23.0" fill="#00F900" transform="matrix(1.00, 0.00, -0.00, -1.00, 426.0, 6.8)">m</text><text xml:space="preserve" font-family="GillSans,Gill Sans" font-size="23.0" fill="#00F900" transform="matrix(1.00, 0.00, -0.00, -1.00, 443.7, 6.8)">e</text><text xml:space="preserve" font-family="GillSans,Gill Sans" font-size="23.0" fill="#00F900" transform="matrix(1.00, 0.00, -0.00, -1.00, 454.7, 6.8)">&gt;</text><text xml:space="preserve" font-family="GillSans,Gill Sans" font-size="23.0" fill="#00F900" transform="matrix(1.00, 0.00, -0.00, -1.00, 468.2, 6.8)"> </text><text xml:space="preserve" font-family="GillSans,Gill Sans" font-size="23.0" fill="#00F900" transform="matrix(1.00, 0.00, -0.00, -1.00, 474.6, 6.8)">.</text></g></svg>