<?xml version="1.0" encoding="UTF-8" standalone="no"?><svg xmlns="http://www.w3.org/2000/svg" xmlns:xlink="http://www.w3.org/1999/xlink" clip-rule="evenodd" stroke-miterlimit="10" viewBox="0 0 451 299"><desc>SVG generated by Keynote</desc><defs></defs><g transform="matrix(1.00, 0.00, -0.00, -1.00, 0.0, 299.0)"><text xml:space="preserve" font-family="GillSans,Gill Sans" font-size="22.0" fill="#FEFFFF" transform="matrix(1.00, 0.00, -0.00, -1.00, 1.0, 281.1)">{</text><text xml:space="preserve" font-family="GillSans,Gill Sans" font-size="22.0" fill="#FEFFFF" transform="matrix(1.00, 0.00, -0.00, -1.00, 1.0, 256.1)"> </text><text xml:space="preserve" font-family="GillSans,Gill Sans" font-size="22.0" fill="#FEFFFF" transform="matrix(1.00, 0.00, -0.00, -1.00, 7.1, 256.1)"> </text><text xml:space="preserve" font-family="GillSans,Gill Sans" font-size="22.0" fill="#FEFFFF" transform="matrix(1.00, 0.00, -0.00, -1.00, 13.2, 256.1)">"</text><text xml:space="preserve" font-family="GillSans,Gill Sans" font-size="22.0" fill="#FEFFFF" transform="matrix(1.00, 0.00, -0.00, -1.00, 21.0, 256.1)">@</text><text xml:space="preserve" font-family="GillSans,Gill Sans" font-size="22.0" fill="#FEFFFF" transform="matrix(1.00, 0.00, -0.00, -1.00, 43.2, 256.1)">c</text><text xml:space="preserve" font-family="GillSans,Gill Sans" font-size="22.0" fill="#FEFFFF" transform="matrix(1.00, 0.00, -0.00, -1.00, 52.9, 256.1)">o</text><text xml:space="preserve" font-family="GillSans,Gill Sans" font-size="22.0" fill="#FEFFFF" transform="matrix(1.00, 0.00, -0.00, -1.00, 65.0, 256.1)">n</text><text xml:space="preserve" font-family="GillSans,Gill Sans" font-size="22.0" fill="#FEFFFF" transform="matrix(1.00, 0.00, -0.00, -1.00, 76.0, 256.1)">t</text><text xml:space="preserve" font-family="GillSans,Gill Sans" font-size="22.0" fill="#FEFFFF" transform="matrix(1.00, 0.00, -0.00, -1.00, 83.3, 256.1)">e</text><text xml:space="preserve" font-family="GillSans,Gill Sans" font-size="22.0" fill="#FEFFFF" transform="matrix(1.00, 0.00, -0.00, -1.00, 93.8, 256.1)">x</text><text xml:space="preserve" font-family="GillSans,Gill Sans" font-size="22.0" fill="#FEFFFF" transform="matrix(1.00, 0.00, -0.00, -1.00, 104.8, 256.1)">t</text><text xml:space="preserve" font-family="GillSans,Gill Sans" font-size="22.0" fill="#FEFFFF" transform="matrix(1.00, 0.00, -0.00, -1.00, 112.2, 256.1)">"</text><text xml:space="preserve" font-family="GillSans,Gill Sans" font-size="22.0" fill="#FEFFFF" transform="matrix(1.00, 0.00, -0.00, -1.00, 120.0, 256.1)">:</text><text xml:space="preserve" font-family="GillSans,Gill Sans" font-size="22.0" fill="#FEFFFF" transform="matrix(1.00, 0.00, -0.00, -1.00, 122.6, 256.1)"> </text><text xml:space="preserve" font-family="GillSans,Gill Sans" font-size="22.0" fill="#FEFFFF" transform="matrix(1.00, 0.00, -0.00, -1.00, 128.7, 256.1)">"</text><text xml:space="preserve" font-family="GillSans,Gill Sans" font-size="22.0" fill="#FEFFFF" transform="matrix(1.00, 0.00, -0.00, -1.00, 136.5, 256.1)">h</text><text xml:space="preserve" font-family="GillSans,Gill Sans" font-size="22.0" fill="#FEFFFF" transform="matrix(1.00, 0.00, -0.00, -1.00, 147.5, 256.1)">t</text><text xml:space="preserve" font-family="GillSans,Gill Sans" font-size="22.0" fill="#FEFFFF" transform="matrix(1.00, 0.00, -0.00, -1.00, 154.8, 256.1)">t</text><text xml:space="preserve" font-family="GillSans,Gill Sans" font-size="22.0" fill="#FEFFFF" transform="matrix(1.00, 0.00, -0.00, -1.00, 162.2, 256.1)">p</text><text xml:space="preserve" font-family="GillSans,Gill Sans" font-size="22.0" fill="#FEFFFF" transform="matrix(1.00, 0.00, -0.00, -1.00, 173.2, 256.1)">:</text><text xml:space="preserve" font-family="GillSans,Gill Sans" font-size="22.0" fill="#FEFFFF" transform="matrix(1.00, 0.00, -0.00, -1.00, 178.0, 256.1)">/</text><text xml:space="preserve" font-family="GillSans,Gill Sans" font-size="22.0" fill="#FEFFFF" transform="matrix(1.00, 0.00, -0.00, -1.00, 184.2, 256.1)">/</text><text xml:space="preserve" font-family="GillSans,Gill Sans" font-size="22.0" fill="#FEFFFF" transform="matrix(1.00, 0.00, -0.00, -1.00, 190.3, 256.1)">j</text><text xml:space="preserve" font-family="GillSans,Gill Sans" font-size="22.0" fill="#FEFFFF" transform="matrix(1.00, 0.00, -0.00, -1.00, 195.2, 256.1)">s</text><text xml:space="preserve" font-family="GillSans,Gill Sans" font-size="22.0" fill="#FEFFFF" transform="matrix(1.00, 0.00, -0.00, -1.00, 203.6, 256.1)">o</text><text xml:space="preserve" font-family="GillSans,Gill Sans" font-size="22.0" fill="#FEFFFF" transform="matrix(1.00, 0.00, -0.00, -1.00, 215.7, 256.1)">n</text><text xml:space="preserve" font-family="GillSans,Gill Sans" font-size="22.0" fill="#FEFFFF" transform="matrix(1.00, 0.00, -0.00, -1.00, 226.7, 256.1)">-</text><text xml:space="preserve" font-family="GillSans,Gill Sans" font-size="22.0" fill="#FEFFFF" transform="matrix(1.00, 0.00, -0.00, -1.00, 233.9, 256.1)">l</text><text xml:space="preserve" font-family="GillSans,Gill Sans" font-size="22.0" fill="#FEFFFF" transform="matrix(1.00, 0.00, -0.00, -1.00, 238.7, 256.1)">d</text><text xml:space="preserve" font-family="GillSans,Gill Sans" font-size="22.0" fill="#FEFFFF" transform="matrix(1.00, 0.00, -0.00, -1.00, 249.9, 256.1)">.</text><text xml:space="preserve" font-family="GillSans,Gill Sans" font-size="22.0" fill="#FEFFFF" transform="matrix(1.00, 0.00, -0.00, -1.00, 254.7, 256.1)">o</text><text xml:space="preserve" font-family="GillSans,Gill Sans" font-size="22.0" fill="#FEFFFF" transform="matrix(1.00, 0.00, -0.00, -1.00, 266.9, 256.1)">r</text><text xml:space="preserve" font-family="GillSans,Gill Sans" font-size="22.0" fill="#FEFFFF" transform="matrix(1.00, 0.00, -0.00, -1.00, 275.6, 256.1)">g</text><text xml:space="preserve" font-family="GillSans,Gill Sans" font-size="22.0" fill="#FEFFFF" transform="matrix(1.00, 0.00, -0.00, -1.00, 285.0, 256.1)">/</text><text xml:space="preserve" font-family="GillSans,Gill Sans" font-size="22.0" fill="#FEFFFF" transform="matrix(1.00, 0.00, -0.00, -1.00, 291.1, 256.1)">c</text><text xml:space="preserve" font-family="GillSans,Gill Sans" font-size="22.0" fill="#FEFFFF" transform="matrix(1.00, 0.00, -0.00, -1.00, 300.8, 256.1)">o</text><text xml:space="preserve" font-family="GillSans,Gill Sans" font-size="22.0" fill="#FEFFFF" transform="matrix(1.00, 0.00, -0.00, -1.00, 312.9, 256.1)">n</text><text xml:space="preserve" font-family="GillSans,Gill Sans" font-size="22.0" fill="#FEFFFF" transform="matrix(1.00, 0.00, -0.00, -1.00, 323.9, 256.1)">t</text><text xml:space="preserve" font-family="GillSans,Gill Sans" font-size="22.0" fill="#FEFFFF" transform="matrix(1.00, 0.00, -0.00, -1.00, 331.2, 256.1)">e</text><text xml:space="preserve" font-family="GillSans,Gill Sans" font-size="22.0" fill="#FEFFFF" transform="matrix(1.00, 0.00, -0.00, -1.00, 341.8, 256.1)">x</text><text xml:space="preserve" font-family="GillSans,Gill Sans" font-size="22.0" fill="#FEFFFF" transform="matrix(1.00, 0.00, -0.00, -1.00, 352.8, 256.1)">t</text><text xml:space="preserve" font-family="GillSans,Gill Sans" font-size="22.0" fill="#FEFFFF" transform="matrix(1.00, 0.00, -0.00, -1.00, 360.1, 256.1)">s</text><text xml:space="preserve" font-family="GillSans,Gill Sans" font-size="22.0" fill="#FEFFFF" transform="matrix(1.00, 0.00, -0.00, -1.00, 368.6, 256.1)">/</text><text xml:space="preserve" font-family="GillSans,Gill Sans" font-size="22.0" fill="#FEFFFF" transform="matrix(1.00, 0.00, -0.00, -1.00, 374.7, 256.1)">p</text><text xml:space="preserve" font-family="GillSans,Gill Sans" font-size="22.0" fill="#FEFFFF" transform="matrix(1.00, 0.00, -0.00, -1.00, 385.7, 256.1)">e</text><text xml:space="preserve" font-family="GillSans,Gill Sans" font-size="22.0" fill="#FEFFFF" transform="matrix(1.00, 0.00, -0.00, -1.00, 396.3, 256.1)">r</text><text xml:space="preserve" font-family="GillSans,Gill Sans" font-size="22.0" fill="#FEFFFF" transform="matrix(1.00, 0.00, -0.00, -1.00, 405.0, 256.1)">s</text><text xml:space="preserve" font-family="GillSans,Gill Sans" font-size="22.0" fill="#FEFFFF" transform="matrix(1.00, 0.00, -0.00, -1.00, 413.4, 256.1)">o</text><text xml:space="preserve" font-family="GillSans,Gill Sans" font-size="22.0" fill="#FEFFFF" transform="matrix(1.00, 0.00, -0.00, -1.00, 425.6, 256.1)">n</text><text xml:space="preserve" font-family="GillSans,Gill Sans" font-size="22.0" fill="#FEFFFF" transform="matrix(1.00, 0.00, -0.00, -1.00, 436.6, 256.1)">"</text><text xml:space="preserve" font-family="GillSans,Gill Sans" font-size="22.0" fill="#FEFFFF" transform="matrix(1.00, 0.00, -0.00, -1.00, 444.4, 256.1)">,</text><g><clipPath id="clip0x7fcd11748960"><path d="M 135.5 252.9 L 436.6 252.9 L 436.6 256.0 L 135.5 256.0 Z M 135.5 252.9 "></path></clipPath><g clip-path="url(#clip0x7fcd11748960)"><path d="M 139.5 50.6 L 439.6 50.6 " fill="none" stroke="#FEFFFF" stroke-width="1.10" transform="matrix(1.00, 0.00, 0.00, -1.00, -3.0, 305.0)"></path></g></g><text xml:space="preserve" font-family="GillSans,Gill Sans" font-size="22.0" fill="#FEFFFF" transform="matrix(1.00, 0.00, -0.00, -1.00, 1.0, 231.1)"> </text><text xml:space="preserve" font-family="GillSans,Gill Sans" font-size="22.0" fill="#FEFFFF" transform="matrix(1.00, 0.00, -0.00, -1.00, 7.1, 231.1)"> </text><text xml:space="preserve" font-family="GillSans,Gill Sans" font-size="22.0" fill="#FEFFFF" transform="matrix(1.00, 0.00, -0.00, -1.00, 13.2, 231.1)">"</text><text xml:space="preserve" font-family="GillSans,Gill Sans" font-size="22.0" fill="#FEFFFF" transform="matrix(1.00, 0.00, -0.00, -1.00, 21.0, 231.1)">@</text><text xml:space="preserve" font-family="GillSans,Gill Sans" font-size="22.0" fill="#FEFFFF" transform="matrix(1.00, 0.00, -0.00, -1.00, 43.2, 231.1)">i</text><text xml:space="preserve" font-family="GillSans,Gill Sans" font-size="22.0" fill="#FEFFFF" transform="matrix(1.00, 0.00, -0.00, -1.00, 48.0, 231.1)">d</text><text xml:space="preserve" font-family="GillSans,Gill Sans" font-size="22.0" fill="#FEFFFF" transform="matrix(1.00, 0.00, -0.00, -1.00, 59.3, 231.1)">"</text><text xml:space="preserve" font-family="GillSans,Gill Sans" font-size="22.0" fill="#FEFFFF" transform="matrix(1.00, 0.00, -0.00, -1.00, 67.0, 231.1)">:</text><text xml:space="preserve" font-family="GillSans,Gill Sans" font-size="22.0" fill="#FEFFFF" transform="matrix(1.00, 0.00, -0.00, -1.00, 69.7, 231.1)"> </text><text xml:space="preserve" font-family="GillSans,Gill Sans" font-size="22.0" fill="#FEFFFF" transform="matrix(1.00, 0.00, -0.00, -1.00, 75.8, 231.1)">"</text><text xml:space="preserve" font-family="GillSans,Gill Sans" font-size="22.0" fill="#FF9200" transform="matrix(1.00, 0.00, -0.00, -1.00, 83.6, 231.1)">h</text><text xml:space="preserve" font-family="GillSans,Gill Sans" font-size="22.0" fill="#FF9200" transform="matrix(1.00, 0.00, -0.00, -1.00, 94.6, 231.1)">t</text><text xml:space="preserve" font-family="GillSans,Gill Sans" font-size="22.0" fill="#FF9200" transform="matrix(1.00, 0.00, -0.00, -1.00, 101.9, 231.1)">t</text><text xml:space="preserve" font-family="GillSans,Gill Sans" font-size="22.0" fill="#FF9200" transform="matrix(1.00, 0.00, -0.00, -1.00, 109.2, 231.1)">p</text><text xml:space="preserve" font-family="GillSans,Gill Sans" font-size="22.0" fill="#FF9200" transform="matrix(1.00, 0.00, -0.00, -1.00, 120.2, 231.1)">:</text><text xml:space="preserve" font-family="GillSans,Gill Sans" font-size="22.0" fill="#FF9200" transform="matrix(1.00, 0.00, -0.00, -1.00, 125.1, 231.1)">/</text><text xml:space="preserve" font-family="GillSans,Gill Sans" font-size="22.0" fill="#FF9200" transform="matrix(1.00, 0.00, -0.00, -1.00, 131.2, 231.1)">/</text><text xml:space="preserve" font-family="GillSans,Gill Sans" font-size="22.0" fill="#FF9200" transform="matrix(1.00, 0.00, -0.00, -1.00, 137.4, 231.1)">g</text><text xml:space="preserve" font-family="GillSans,Gill Sans" font-size="22.0" fill="#FF9200" transform="matrix(1.00, 0.00, -0.00, -1.00, 146.8, 231.1)">r</text><text xml:space="preserve" font-family="GillSans,Gill Sans" font-size="22.0" fill="#FF9200" transform="matrix(1.00, 0.00, -0.00, -1.00, 155.1, 231.1)">e</text><text xml:space="preserve" font-family="GillSans,Gill Sans" font-size="22.0" fill="#FF9200" transform="matrix(1.00, 0.00, -0.00, -1.00, 165.6, 231.1)">g</text><text xml:space="preserve" font-family="GillSans,Gill Sans" font-size="22.0" fill="#FF9200" transform="matrix(1.00, 0.00, -0.00, -1.00, 175.0, 231.1)">g</text><text xml:space="preserve" font-family="GillSans,Gill Sans" font-size="22.0" fill="#FF9200" transform="matrix(1.00, 0.00, -0.00, -1.00, 184.4, 231.1)">k</text><text xml:space="preserve" font-family="GillSans,Gill Sans" font-size="22.0" fill="#FF9200" transform="matrix(1.00, 0.00, -0.00, -1.00, 194.2, 231.1)">e</text><text xml:space="preserve" font-family="GillSans,Gill Sans" font-size="22.0" fill="#FF9200" transform="matrix(1.00, 0.00, -0.00, -1.00, 204.8, 231.1)">l</text><text xml:space="preserve" font-family="GillSans,Gill Sans" font-size="22.0" fill="#FF9200" transform="matrix(1.00, 0.00, -0.00, -1.00, 209.6, 231.1)">l</text><text xml:space="preserve" font-family="GillSans,Gill Sans" font-size="22.0" fill="#FF9200" transform="matrix(1.00, 0.00, -0.00, -1.00, 214.4, 231.1)">o</text><text xml:space="preserve" font-family="GillSans,Gill Sans" font-size="22.0" fill="#FF9200" transform="matrix(1.00, 0.00, -0.00, -1.00, 226.6, 231.1)">g</text><text xml:space="preserve" font-family="GillSans,Gill Sans" font-size="22.0" fill="#FF9200" transform="matrix(1.00, 0.00, -0.00, -1.00, 236.0, 231.1)">g</text><text xml:space="preserve" font-family="GillSans,Gill Sans" font-size="22.0" fill="#FF9200" transform="matrix(1.00, 0.00, -0.00, -1.00, 245.3, 231.1)">.</text><text xml:space="preserve" font-family="GillSans,Gill Sans" font-size="22.0" fill="#FF9200" transform="matrix(1.00, 0.00, -0.00, -1.00, 250.2, 231.1)">n</text><text xml:space="preserve" font-family="GillSans,Gill Sans" font-size="22.0" fill="#FF9200" transform="matrix(1.00, 0.00, -0.00, -1.00, 261.2, 231.1)">e</text><text xml:space="preserve" font-family="GillSans,Gill Sans" font-size="22.0" fill="#FF9200" transform="matrix(1.00, 0.00, -0.00, -1.00, 271.7, 231.1)">t</text><text xml:space="preserve" font-family="GillSans,Gill Sans" font-size="22.0" fill="#FF9200" transform="matrix(1.00, 0.00, -0.00, -1.00, 279.0, 231.1)">/</text><text xml:space="preserve" font-family="GillSans,Gill Sans" font-size="22.0" fill="#FF9200" transform="matrix(1.00, 0.00, -0.00, -1.00, 285.2, 231.1)">f</text><text xml:space="preserve" font-family="GillSans,Gill Sans" font-size="22.0" fill="#FF9200" transform="matrix(1.00, 0.00, -0.00, -1.00, 290.5, 231.1)">o</text><text xml:space="preserve" font-family="GillSans,Gill Sans" font-size="22.0" fill="#FF9200" transform="matrix(1.00, 0.00, -0.00, -1.00, 302.6, 231.1)">a</text><text xml:space="preserve" font-family="GillSans,Gill Sans" font-size="22.0" fill="#FF9200" transform="matrix(1.00, 0.00, -0.00, -1.00, 312.0, 231.1)">f</text><text xml:space="preserve" font-family="GillSans,Gill Sans" font-size="22.0" fill="#FF9200" transform="matrix(1.00, 0.00, -0.00, -1.00, 317.5, 231.1)">#</text><text xml:space="preserve" font-family="GillSans,Gill Sans" font-size="22.0" fill="#FF9200" transform="matrix(1.00, 0.00, -0.00, -1.00, 330.4, 231.1)">m</text><text xml:space="preserve" font-family="GillSans,Gill Sans" font-size="22.0" fill="#FF9200" transform="matrix(1.00, 0.00, -0.00, -1.00, 347.3, 231.1)">e</text><text xml:space="preserve" font-family="GillSans,Gill Sans" font-size="22.0" fill="#FEFFFF" transform="matrix(1.00, 0.00, -0.00, -1.00, 357.9, 231.1)">"</text><text xml:space="preserve" font-family="GillSans,Gill Sans" font-size="22.0" fill="#FEFFFF" transform="matrix(1.00, 0.00, -0.00, -1.00, 365.7, 231.1)">,</text><g><clipPath id="clip0x7fcd1175b460"><path d="M 82.6 227.9 L 357.9 227.9 L 357.9 231.0 L 82.6 231.0 Z M 82.6 227.9 "></path></clipPath><g clip-path="url(#clip0x7fcd1175b460)"><path d="M 86.6 75.6 L 360.9 75.6 " fill="none" stroke="#FF9200" stroke-width="1.10" transform="matrix(1.00, 0.00, 0.00, -1.00, -3.0, 305.0)"></path></g></g><text xml:space="preserve" font-family="GillSans,Gill Sans" font-size="22.0" fill="#FEFFFF" transform="matrix(1.00, 0.00, -0.00, -1.00, 1.0, 206.1)"> </text><text xml:space="preserve" font-family="GillSans,Gill Sans" font-size="22.0" fill="#FEFFFF" transform="matrix(1.00, 0.00, -0.00, -1.00, 7.1, 206.1)"> </text><text xml:space="preserve" font-family="GillSans,Gill Sans" font-size="22.0" fill="#FEFFFF" transform="matrix(1.00, 0.00, -0.00, -1.00, 13.2, 206.1)">"</text><text xml:space="preserve" font-family="GillSans,Gill Sans" font-size="22.0" fill="#FEFFFF" transform="matrix(1.00, 0.00, -0.00, -1.00, 21.0, 206.1)">@</text><text xml:space="preserve" font-family="GillSans,Gill Sans" font-size="22.0" fill="#FEFFFF" transform="matrix(1.00, 0.00, -0.00, -1.00, 43.2, 206.1)">t</text><text xml:space="preserve" font-family="GillSans,Gill Sans" font-size="22.0" fill="#FEFFFF" transform="matrix(1.00, 0.00, -0.00, -1.00, 50.5, 206.1)">y</text><text xml:space="preserve" font-family="GillSans,Gill Sans" font-size="22.0" fill="#FEFFFF" transform="matrix(1.00, 0.00, -0.00, -1.00, 60.2, 206.1)">p</text><text xml:space="preserve" font-family="GillSans,Gill Sans" font-size="22.0" fill="#FEFFFF" transform="matrix(1.00, 0.00, -0.00, -1.00, 71.2, 206.1)">e</text><text xml:space="preserve" font-family="GillSans,Gill Sans" font-size="22.0" fill="#FEFFFF" transform="matrix(1.00, 0.00, -0.00, -1.00, 81.7, 206.1)">"</text><text xml:space="preserve" font-family="GillSans,Gill Sans" font-size="22.0" fill="#FEFFFF" transform="matrix(1.00, 0.00, -0.00, -1.00, 89.5, 206.1)">:</text><text xml:space="preserve" font-family="GillSans,Gill Sans" font-size="22.0" fill="#FEFFFF" transform="matrix(1.00, 0.00, -0.00, -1.00, 92.1, 206.1)"> </text><text xml:space="preserve" font-family="GillSans,Gill Sans" font-size="22.0" fill="#FEFFFF" transform="matrix(1.00, 0.00, -0.00, -1.00, 98.2, 206.1)">"</text><text xml:space="preserve" font-family="GillSans,Gill Sans" font-size="22.0" fill="#FEFFFF" transform="matrix(1.00, 0.00, -0.00, -1.00, 106.0, 206.1)">P</text><text xml:space="preserve" font-family="GillSans,Gill Sans" font-size="22.0" fill="#FEFFFF" transform="matrix(1.00, 0.00, -0.00, -1.00, 116.7, 206.1)">e</text><text xml:space="preserve" font-family="GillSans,Gill Sans" font-size="22.0" fill="#FEFFFF" transform="matrix(1.00, 0.00, -0.00, -1.00, 127.2, 206.1)">r</text><text xml:space="preserve" font-family="GillSans,Gill Sans" font-size="22.0" fill="#FEFFFF" transform="matrix(1.00, 0.00, -0.00, -1.00, 135.9, 206.1)">s</text><text xml:space="preserve" font-family="GillSans,Gill Sans" font-size="22.0" fill="#FEFFFF" transform="matrix(1.00, 0.00, -0.00, -1.00, 144.4, 206.1)">o</text><text xml:space="preserve" font-family="GillSans,Gill Sans" font-size="22.0" fill="#FEFFFF" transform="matrix(1.00, 0.00, -0.00, -1.00, 156.5, 206.1)">n</text><text xml:space="preserve" font-family="GillSans,Gill Sans" font-size="22.0" fill="#FEFFFF" transform="matrix(1.00, 0.00, -0.00, -1.00, 167.5, 206.1)">"</text><text xml:space="preserve" font-family="GillSans,Gill Sans" font-size="22.0" fill="#FEFFFF" transform="matrix(1.00, 0.00, -0.00, -1.00, 175.3, 206.1)">,</text><text xml:space="preserve" font-family="GillSans,Gill Sans" font-size="22.0" fill="#FEFFFF" transform="matrix(1.00, 0.00, -0.00, -1.00, 1.0, 181.1)"> </text><text xml:space="preserve" font-family="GillSans,Gill Sans" font-size="22.0" fill="#FEFFFF" transform="matrix(1.00, 0.00, -0.00, -1.00, 7.1, 181.1)"> </text><text xml:space="preserve" font-family="GillSans,Gill Sans" font-size="22.0" fill="#FEFFFF" transform="matrix(1.00, 0.00, -0.00, -1.00, 13.2, 181.1)">"</text><text xml:space="preserve" font-family="GillSans,Gill Sans" font-size="22.0" fill="#FEFFFF" transform="matrix(1.00, 0.00, -0.00, -1.00, 21.0, 181.1)">n</text><text xml:space="preserve" font-family="GillSans,Gill Sans" font-size="22.0" fill="#FEFFFF" transform="matrix(1.00, 0.00, -0.00, -1.00, 32.0, 181.1)">a</text><text xml:space="preserve" font-family="GillSans,Gill Sans" font-size="22.0" fill="#FEFFFF" transform="matrix(1.00, 0.00, -0.00, -1.00, 41.4, 181.1)">m</text><text xml:space="preserve" font-family="GillSans,Gill Sans" font-size="22.0" fill="#FEFFFF" transform="matrix(1.00, 0.00, -0.00, -1.00, 58.4, 181.1)">e</text><text xml:space="preserve" font-family="GillSans,Gill Sans" font-size="22.0" fill="#FEFFFF" transform="matrix(1.00, 0.00, -0.00, -1.00, 68.9, 181.1)">"</text><text xml:space="preserve" font-family="GillSans,Gill Sans" font-size="22.0" fill="#FEFFFF" transform="matrix(1.00, 0.00, -0.00, -1.00, 76.7, 181.1)">:</text><text xml:space="preserve" font-family="GillSans,Gill Sans" font-size="22.0" fill="#FEFFFF" transform="matrix(1.00, 0.00, -0.00, -1.00, 79.3, 181.1)"> </text><text xml:space="preserve" font-family="GillSans,Gill Sans" font-size="22.0" fill="#FEFFFF" transform="matrix(1.00, 0.00, -0.00, -1.00, 85.4, 181.1)">"</text><text xml:space="preserve" font-family="GillSans,Gill Sans" font-size="22.0" fill="#FEFFFF" transform="matrix(1.00, 0.00, -0.00, -1.00, 93.2, 181.1)">G</text><text xml:space="preserve" font-family="GillSans,Gill Sans" font-size="22.0" fill="#FEFFFF" transform="matrix(1.00, 0.00, -0.00, -1.00, 109.5, 181.1)">r</text><text xml:space="preserve" font-family="GillSans,Gill Sans" font-size="22.0" fill="#FEFFFF" transform="matrix(1.00, 0.00, -0.00, -1.00, 117.8, 181.1)">e</text><text xml:space="preserve" font-family="GillSans,Gill Sans" font-size="22.0" fill="#FEFFFF" transform="matrix(1.00, 0.00, -0.00, -1.00, 128.3, 181.1)">g</text><text xml:space="preserve" font-family="GillSans,Gill Sans" font-size="22.0" fill="#FEFFFF" transform="matrix(1.00, 0.00, -0.00, -1.00, 137.7, 181.1)">g</text><text xml:space="preserve" font-family="GillSans,Gill Sans" font-size="22.0" fill="#FEFFFF" transform="matrix(1.00, 0.00, -0.00, -1.00, 147.1, 181.1)"> </text><text xml:space="preserve" font-family="GillSans,Gill Sans" font-size="22.0" fill="#FEFFFF" transform="matrix(1.00, 0.00, -0.00, -1.00, 153.2, 181.1)">K</text><text xml:space="preserve" font-family="GillSans,Gill Sans" font-size="22.0" fill="#FEFFFF" transform="matrix(1.00, 0.00, -0.00, -1.00, 166.3, 181.1)">e</text><text xml:space="preserve" font-family="GillSans,Gill Sans" font-size="22.0" fill="#FEFFFF" transform="matrix(1.00, 0.00, -0.00, -1.00, 176.8, 181.1)">l</text><text xml:space="preserve" font-family="GillSans,Gill Sans" font-size="22.0" fill="#FEFFFF" transform="matrix(1.00, 0.00, -0.00, -1.00, 181.6, 181.1)">l</text><text xml:space="preserve" font-family="GillSans,Gill Sans" font-size="22.0" fill="#FEFFFF" transform="matrix(1.00, 0.00, -0.00, -1.00, 186.5, 181.1)">o</text><text xml:space="preserve" font-family="GillSans,Gill Sans" font-size="22.0" fill="#FEFFFF" transform="matrix(1.00, 0.00, -0.00, -1.00, 198.6, 181.1)">g</text><text xml:space="preserve" font-family="GillSans,Gill Sans" font-size="22.0" fill="#FEFFFF" transform="matrix(1.00, 0.00, -0.00, -1.00, 208.0, 181.1)">g</text><text xml:space="preserve" font-family="GillSans,Gill Sans" font-size="22.0" fill="#FEFFFF" transform="matrix(1.00, 0.00, -0.00, -1.00, 217.4, 181.1)">"</text><text xml:space="preserve" font-family="GillSans,Gill Sans" font-size="22.0" fill="#FEFFFF" transform="matrix(1.00, 0.00, -0.00, -1.00, 225.2, 181.1)">,</text><text xml:space="preserve" font-family="GillSans,Gill Sans" font-size="22.0" fill="#FEFFFF" transform="matrix(1.00, 0.00, -0.00, -1.00, 1.0, 156.1)"> </text><text xml:space="preserve" font-family="GillSans,Gill Sans" font-size="22.0" fill="#FEFFFF" transform="matrix(1.00, 0.00, -0.00, -1.00, 7.1, 156.1)"> </text><text xml:space="preserve" font-family="GillSans,Gill Sans" font-size="22.0" fill="#FEFFFF" transform="matrix(1.00, 0.00, -0.00, -1.00, 13.2, 156.1)">"</text><text xml:space="preserve" font-family="GillSans,Gill Sans" font-size="22.0" fill="#FEFFFF" transform="matrix(1.00, 0.00, -0.00, -1.00, 21.0, 156.1)">k</text><text xml:space="preserve" font-family="GillSans,Gill Sans" font-size="22.0" fill="#FEFFFF" transform="matrix(1.00, 0.00, -0.00, -1.00, 31.5, 156.1)">n</text><text xml:space="preserve" font-family="GillSans,Gill Sans" font-size="22.0" fill="#FEFFFF" transform="matrix(1.00, 0.00, -0.00, -1.00, 42.5, 156.1)">o</text><text xml:space="preserve" font-family="GillSans,Gill Sans" font-size="22.0" fill="#FEFFFF" transform="matrix(1.00, 0.00, -0.00, -1.00, 54.5, 156.1)">w</text><text xml:space="preserve" font-family="GillSans,Gill Sans" font-size="22.0" fill="#FEFFFF" transform="matrix(1.00, 0.00, -0.00, -1.00, 70.3, 156.1)">s</text><text xml:space="preserve" font-family="GillSans,Gill Sans" font-size="22.0" fill="#FEFFFF" transform="matrix(1.00, 0.00, -0.00, -1.00, 78.7, 156.1)">"</text><text xml:space="preserve" font-family="GillSans,Gill Sans" font-size="22.0" fill="#FEFFFF" transform="matrix(1.00, 0.00, -0.00, -1.00, 86.5, 156.1)">:</text><text xml:space="preserve" font-family="GillSans,Gill Sans" font-size="22.0" fill="#FEFFFF" transform="matrix(1.00, 0.00, -0.00, -1.00, 89.2, 156.1)"> </text><text xml:space="preserve" font-family="GillSans,Gill Sans" font-size="22.0" fill="#00F900" transform="matrix(1.00, 0.00, -0.00, -1.00, 95.3, 156.1)">{</text><text xml:space="preserve" font-family="GillSans,Gill Sans" font-size="22.0" fill="#00F900" transform="matrix(1.00, 0.00, -0.00, -1.00, 1.0, 131.1)"> </text><text xml:space="preserve" font-family="GillSans,Gill Sans" font-size="22.0" fill="#00F900" transform="matrix(1.00, 0.00, -0.00, -1.00, 7.1, 131.1)"> </text><text xml:space="preserve" font-family="GillSans,Gill Sans" font-size="22.0" fill="#00F900" transform="matrix(1.00, 0.00, -0.00, -1.00, 13.2, 131.1)"> </text><text xml:space="preserve" font-family="GillSans,Gill Sans" font-size="22.0" fill="#00F900" transform="matrix(1.00, 0.00, -0.00, -1.00, 19.3, 131.1)"> </text><text xml:space="preserve" font-family="GillSans,Gill Sans" font-size="22.0" fill="#00F900" transform="matrix(1.00, 0.00, -0.00, -1.00, 25.4, 131.1)">"</text><text xml:space="preserve" font-family="GillSans,Gill Sans" font-size="22.0" fill="#00F900" transform="matrix(1.00, 0.00, -0.00, -1.00, 33.2, 131.1)">@</text><text xml:space="preserve" font-family="GillSans,Gill Sans" font-size="22.0" fill="#00F900" transform="matrix(1.00, 0.00, -0.00, -1.00, 55.4, 131.1)">i</text><text xml:space="preserve" font-family="GillSans,Gill Sans" font-size="22.0" fill="#00F900" transform="matrix(1.00, 0.00, -0.00, -1.00, 60.3, 131.1)">d</text><text xml:space="preserve" font-family="GillSans,Gill Sans" font-size="22.0" fill="#00F900" transform="matrix(1.00, 0.00, -0.00, -1.00, 71.5, 131.1)">"</text><text xml:space="preserve" font-family="GillSans,Gill Sans" font-size="22.0" fill="#00F900" transform="matrix(1.00, 0.00, -0.00, -1.00, 79.3, 131.1)">:</text><text xml:space="preserve" font-family="GillSans,Gill Sans" font-size="22.0" fill="#00F900" transform="matrix(1.00, 0.00, -0.00, -1.00, 81.9, 131.1)"> </text><text xml:space="preserve" font-family="GillSans,Gill Sans" font-size="22.0" fill="#00F900" transform="matrix(1.00, 0.00, -0.00, -1.00, 88.0, 131.1)">"</text><text xml:space="preserve" font-family="GillSans,Gill Sans" font-size="22.0" fill="#00F900" transform="matrix(1.00, 0.00, -0.00, -1.00, 95.8, 131.1)">h</text><text xml:space="preserve" font-family="GillSans,Gill Sans" font-size="22.0" fill="#00F900" transform="matrix(1.00, 0.00, -0.00, -1.00, 106.8, 131.1)">t</text><text xml:space="preserve" font-family="GillSans,Gill Sans" font-size="22.0" fill="#00F900" transform="matrix(1.00, 0.00, -0.00, -1.00, 114.1, 131.1)">t</text><text xml:space="preserve" font-family="GillSans,Gill Sans" font-size="22.0" fill="#00F900" transform="matrix(1.00, 0.00, -0.00, -1.00, 121.5, 131.1)">p</text><text xml:space="preserve" font-family="GillSans,Gill Sans" font-size="22.0" fill="#00F900" transform="matrix(1.00, 0.00, -0.00, -1.00, 132.5, 131.1)">:</text><text xml:space="preserve" font-family="GillSans,Gill Sans" font-size="22.0" fill="#00F900" transform="matrix(1.00, 0.00, -0.00, -1.00, 137.3, 131.1)">/</text><text xml:space="preserve" font-family="GillSans,Gill Sans" font-size="22.0" fill="#00F900" transform="matrix(1.00, 0.00, -0.00, -1.00, 143.5, 131.1)">/</text><text xml:space="preserve" font-family="GillSans,Gill Sans" font-size="22.0" fill="#00F900" transform="matrix(1.00, 0.00, -0.00, -1.00, 149.6, 131.1)">w</text><text xml:space="preserve" font-family="GillSans,Gill Sans" font-size="22.0" fill="#00F900" transform="matrix(1.00, 0.00, -0.00, -1.00, 165.5, 131.1)">w</text><text xml:space="preserve" font-family="GillSans,Gill Sans" font-size="22.0" fill="#00F900" transform="matrix(1.00, 0.00, -0.00, -1.00, 181.3, 131.1)">w</text><text xml:space="preserve" font-family="GillSans,Gill Sans" font-size="22.0" fill="#00F900" transform="matrix(1.00, 0.00, -0.00, -1.00, 195.8, 131.1)">.</text><text xml:space="preserve" font-family="GillSans,Gill Sans" font-size="22.0" fill="#00F900" transform="matrix(1.00, 0.00, -0.00, -1.00, 200.6, 131.1)">m</text><text xml:space="preserve" font-family="GillSans,Gill Sans" font-size="22.0" fill="#00F900" transform="matrix(1.00, 0.00, -0.00, -1.00, 217.6, 131.1)">a</text><text xml:space="preserve" font-family="GillSans,Gill Sans" font-size="22.0" fill="#00F900" transform="matrix(1.00, 0.00, -0.00, -1.00, 227.0, 131.1)">r</text><text xml:space="preserve" font-family="GillSans,Gill Sans" font-size="22.0" fill="#00F900" transform="matrix(1.00, 0.00, -0.00, -1.00, 235.7, 131.1)">k</text><text xml:space="preserve" font-family="GillSans,Gill Sans" font-size="22.0" fill="#00F900" transform="matrix(1.00, 0.00, -0.00, -1.00, 246.2, 131.1)">u</text><text xml:space="preserve" font-family="GillSans,Gill Sans" font-size="22.0" fill="#00F900" transform="matrix(1.00, 0.00, -0.00, -1.00, 257.2, 131.1)">s</text><text xml:space="preserve" font-family="GillSans,Gill Sans" font-size="22.0" fill="#00F900" transform="matrix(1.00, 0.00, -0.00, -1.00, 265.7, 131.1)">-</text><text xml:space="preserve" font-family="GillSans,Gill Sans" font-size="22.0" fill="#00F900" transform="matrix(1.00, 0.00, -0.00, -1.00, 272.8, 131.1)">l</text><text xml:space="preserve" font-family="GillSans,Gill Sans" font-size="22.0" fill="#00F900" transform="matrix(1.00, 0.00, -0.00, -1.00, 277.6, 131.1)">a</text><text xml:space="preserve" font-family="GillSans,Gill Sans" font-size="22.0" fill="#00F900" transform="matrix(1.00, 0.00, -0.00, -1.00, 287.0, 131.1)">n</text><text xml:space="preserve" font-family="GillSans,Gill Sans" font-size="22.0" fill="#00F900" transform="matrix(1.00, 0.00, -0.00, -1.00, 298.0, 131.1)">t</text><text xml:space="preserve" font-family="GillSans,Gill Sans" font-size="22.0" fill="#00F900" transform="matrix(1.00, 0.00, -0.00, -1.00, 305.3, 131.1)">h</text><text xml:space="preserve" font-family="GillSans,Gill Sans" font-size="22.0" fill="#00F900" transform="matrix(1.00, 0.00, -0.00, -1.00, 316.3, 131.1)">a</text><text xml:space="preserve" font-family="GillSans,Gill Sans" font-size="22.0" fill="#00F900" transform="matrix(1.00, 0.00, -0.00, -1.00, 325.7, 131.1)">l</text><text xml:space="preserve" font-family="GillSans,Gill Sans" font-size="22.0" fill="#00F900" transform="matrix(1.00, 0.00, -0.00, -1.00, 330.5, 131.1)">e</text><text xml:space="preserve" font-family="GillSans,Gill Sans" font-size="22.0" fill="#00F900" transform="matrix(1.00, 0.00, -0.00, -1.00, 341.1, 131.1)">r</text><text xml:space="preserve" font-family="GillSans,Gill Sans" font-size="22.0" fill="#00F900" transform="matrix(1.00, 0.00, -0.00, -1.00, 347.6, 131.1)">.</text><text xml:space="preserve" font-family="GillSans,Gill Sans" font-size="22.0" fill="#00F900" transform="matrix(1.00, 0.00, -0.00, -1.00, 352.4, 131.1)">c</text><text xml:space="preserve" font-family="GillSans,Gill Sans" font-size="22.0" fill="#00F900" transform="matrix(1.00, 0.00, -0.00, -1.00, 362.0, 131.1)">o</text><text xml:space="preserve" font-family="GillSans,Gill Sans" font-size="22.0" fill="#00F900" transform="matrix(1.00, 0.00, -0.00, -1.00, 374.2, 131.1)">m</text><text xml:space="preserve" font-family="GillSans,Gill Sans" font-size="22.0" fill="#00F900" transform="matrix(1.00, 0.00, -0.00, -1.00, 391.1, 131.1)">/</text><text xml:space="preserve" font-family="GillSans,Gill Sans" font-size="22.0" fill="#00F900" transform="matrix(1.00, 0.00, -0.00, -1.00, 397.3, 131.1)">"</text><text xml:space="preserve" font-family="GillSans,Gill Sans" font-size="22.0" fill="#00F900" transform="matrix(1.00, 0.00, -0.00, -1.00, 405.1, 131.1)">,</text><g><clipPath id="clip0x7fcd11786500"><path d="M 94.8 127.9 L 391.1 127.9 L 391.1 131.0 L 94.8 131.0 Z M 94.8 127.9 "></path></clipPath><g clip-path="url(#clip0x7fcd11786500)"><path d="M 98.8 175.6 L 394.1 175.6 " fill="none" stroke="#00F900" stroke-width="1.10" transform="matrix(1.00, 0.00, 0.00, -1.00, -3.0, 305.0)"></path></g></g><text xml:space="preserve" font-family="GillSans,Gill Sans" font-size="22.0" fill="#00F900" transform="matrix(1.00, 0.00, -0.00, -1.00, 1.0, 106.1)"> </text><text xml:space="preserve" font-family="GillSans,Gill Sans" font-size="22.0" fill="#00F900" transform="matrix(1.00, 0.00, -0.00, -1.00, 7.1, 106.1)"> </text><text xml:space="preserve" font-family="GillSans,Gill Sans" font-size="22.0" fill="#00F900" transform="matrix(1.00, 0.00, -0.00, -1.00, 13.2, 106.1)"> </text><text xml:space="preserve" font-family="GillSans,Gill Sans" font-size="22.0" fill="#00F900" transform="matrix(1.00, 0.00, -0.00, -1.00, 19.3, 106.1)"> </text><text xml:space="preserve" font-family="GillSans,Gill Sans" font-size="22.0" fill="#00F900" transform="matrix(1.00, 0.00, -0.00, -1.00, 25.4, 106.1)">"</text><text xml:space="preserve" font-family="GillSans,Gill Sans" font-size="22.0" fill="#00F900" transform="matrix(1.00, 0.00, -0.00, -1.00, 33.2, 106.1)">@</text><text xml:space="preserve" font-family="GillSans,Gill Sans" font-size="22.0" fill="#00F900" transform="matrix(1.00, 0.00, -0.00, -1.00, 55.4, 106.1)">t</text><text xml:space="preserve" font-family="GillSans,Gill Sans" font-size="22.0" fill="#00F900" transform="matrix(1.00, 0.00, -0.00, -1.00, 62.8, 106.1)">y</text><text xml:space="preserve" font-family="GillSans,Gill Sans" font-size="22.0" fill="#00F900" transform="matrix(1.00, 0.00, -0.00, -1.00, 72.4, 106.1)">p</text><text xml:space="preserve" font-family="GillSans,Gill Sans" font-size="22.0" fill="#00F900" transform="matrix(1.00, 0.00, -0.00, -1.00, 83.4, 106.1)">e</text><text xml:space="preserve" font-family="GillSans,Gill Sans" font-size="22.0" fill="#00F900" transform="matrix(1.00, 0.00, -0.00, -1.00, 93.9, 106.1)">"</text><text xml:space="preserve" font-family="GillSans,Gill Sans" font-size="22.0" fill="#00F900" transform="matrix(1.00, 0.00, -0.00, -1.00, 101.7, 106.1)">:</text><text xml:space="preserve" font-family="GillSans,Gill Sans" font-size="22.0" fill="#00F900" transform="matrix(1.00, 0.00, -0.00, -1.00, 104.3, 106.1)"> </text><text xml:space="preserve" font-family="GillSans,Gill Sans" font-size="22.0" fill="#00F900" transform="matrix(1.00, 0.00, -0.00, -1.00, 110.5, 106.1)">"</text><text xml:space="preserve" font-family="GillSans,Gill Sans" font-size="22.0" fill="#00F900" transform="matrix(1.00, 0.00, -0.00, -1.00, 118.2, 106.1)">P</text><text xml:space="preserve" font-family="GillSans,Gill Sans" font-size="22.0" fill="#00F900" transform="matrix(1.00, 0.00, -0.00, -1.00, 128.9, 106.1)">e</text><text xml:space="preserve" font-family="GillSans,Gill Sans" font-size="22.0" fill="#00F900" transform="matrix(1.00, 0.00, -0.00, -1.00, 139.4, 106.1)">r</text><text xml:space="preserve" font-family="GillSans,Gill Sans" font-size="22.0" fill="#00F900" transform="matrix(1.00, 0.00, -0.00, -1.00, 148.2, 106.1)">s</text><text xml:space="preserve" font-family="GillSans,Gill Sans" font-size="22.0" fill="#00F900" transform="matrix(1.00, 0.00, -0.00, -1.00, 156.6, 106.1)">o</text><text xml:space="preserve" font-family="GillSans,Gill Sans" font-size="22.0" fill="#00F900" transform="matrix(1.00, 0.00, -0.00, -1.00, 168.7, 106.1)">n</text><text xml:space="preserve" font-family="GillSans,Gill Sans" font-size="22.0" fill="#00F900" transform="matrix(1.00, 0.00, -0.00, -1.00, 179.7, 106.1)">"</text><text xml:space="preserve" font-family="GillSans,Gill Sans" font-size="22.0" fill="#00F900" transform="matrix(1.00, 0.00, -0.00, -1.00, 187.5, 106.1)">,</text><text xml:space="preserve" font-family="GillSans,Gill Sans" font-size="22.0" fill="#00F900" transform="matrix(1.00, 0.00, -0.00, -1.00, 1.0, 81.1)"> </text><text xml:space="preserve" font-family="GillSans,Gill Sans" font-size="22.0" fill="#00F900" transform="matrix(1.00, 0.00, -0.00, -1.00, 7.1, 81.1)"> </text><text xml:space="preserve" font-family="GillSans,Gill Sans" font-size="22.0" fill="#00F900" transform="matrix(1.00, 0.00, -0.00, -1.00, 13.2, 81.1)"> </text><text xml:space="preserve" font-family="GillSans,Gill Sans" font-size="22.0" fill="#00F900" transform="matrix(1.00, 0.00, -0.00, -1.00, 19.3, 81.1)"> </text><text xml:space="preserve" font-family="GillSans,Gill Sans" font-size="22.0" fill="#00F900" transform="matrix(1.00, 0.00, -0.00, -1.00, 25.4, 81.1)">"</text><text xml:space="preserve" font-family="GillSans,Gill Sans" font-size="22.0" fill="#00F900" transform="matrix(1.00, 0.00, -0.00, -1.00, 33.2, 81.1)">n</text><text xml:space="preserve" font-family="GillSans,Gill Sans" font-size="22.0" fill="#00F900" transform="matrix(1.00, 0.00, -0.00, -1.00, 44.2, 81.1)">a</text><text xml:space="preserve" font-family="GillSans,Gill Sans" font-size="22.0" fill="#00F900" transform="matrix(1.00, 0.00, -0.00, -1.00, 53.6, 81.1)">m</text><text xml:space="preserve" font-family="GillSans,Gill Sans" font-size="22.0" fill="#00F900" transform="matrix(1.00, 0.00, -0.00, -1.00, 70.6, 81.1)">e</text><text xml:space="preserve" font-family="GillSans,Gill Sans" font-size="22.0" fill="#00F900" transform="matrix(1.00, 0.00, -0.00, -1.00, 81.1, 81.1)">"</text><text xml:space="preserve" font-family="GillSans,Gill Sans" font-size="22.0" fill="#00F900" transform="matrix(1.00, 0.00, -0.00, -1.00, 88.9, 81.1)">:</text><text xml:space="preserve" font-family="GillSans,Gill Sans" font-size="22.0" fill="#00F900" transform="matrix(1.00, 0.00, -0.00, -1.00, 91.5, 81.1)"> </text><text xml:space="preserve" font-family="GillSans,Gill Sans" font-size="22.0" fill="#00F900" transform="matrix(1.00, 0.00, -0.00, -1.00, 97.6, 81.1)">"</text><text xml:space="preserve" font-family="GillSans,Gill Sans" font-size="22.0" fill="#00F900" transform="matrix(1.00, 0.00, -0.00, -1.00, 105.4, 81.1)">M</text><text xml:space="preserve" font-family="GillSans,Gill Sans" font-size="22.0" fill="#00F900" transform="matrix(1.00, 0.00, -0.00, -1.00, 122.6, 81.1)">a</text><text xml:space="preserve" font-family="GillSans,Gill Sans" font-size="22.0" fill="#00F900" transform="matrix(1.00, 0.00, -0.00, -1.00, 132.0, 81.1)">r</text><text xml:space="preserve" font-family="GillSans,Gill Sans" font-size="22.0" fill="#00F900" transform="matrix(1.00, 0.00, -0.00, -1.00, 140.7, 81.1)">k</text><text xml:space="preserve" font-family="GillSans,Gill Sans" font-size="22.0" fill="#00F900" transform="matrix(1.00, 0.00, -0.00, -1.00, 151.2, 81.1)">u</text><text xml:space="preserve" font-family="GillSans,Gill Sans" font-size="22.0" fill="#00F900" transform="matrix(1.00, 0.00, -0.00, -1.00, 162.2, 81.1)">s</text><text xml:space="preserve" font-family="GillSans,Gill Sans" font-size="22.0" fill="#00F900" transform="matrix(1.00, 0.00, -0.00, -1.00, 170.7, 81.1)"> </text><text xml:space="preserve" font-family="GillSans,Gill Sans" font-size="22.0" fill="#00F900" transform="matrix(1.00, 0.00, -0.00, -1.00, 176.8, 81.1)">L</text><text xml:space="preserve" font-family="GillSans,Gill Sans" font-size="22.0" fill="#00F900" transform="matrix(1.00, 0.00, -0.00, -1.00, 187.6, 81.1)">a</text><text xml:space="preserve" font-family="GillSans,Gill Sans" font-size="22.0" fill="#00F900" transform="matrix(1.00, 0.00, -0.00, -1.00, 197.0, 81.1)">n</text><text xml:space="preserve" font-family="GillSans,Gill Sans" font-size="22.0" fill="#00F900" transform="matrix(1.00, 0.00, -0.00, -1.00, 208.0, 81.1)">t</text><text xml:space="preserve" font-family="GillSans,Gill Sans" font-size="22.0" fill="#00F900" transform="matrix(1.00, 0.00, -0.00, -1.00, 215.3, 81.1)">h</text><text xml:space="preserve" font-family="GillSans,Gill Sans" font-size="22.0" fill="#00F900" transform="matrix(1.00, 0.00, -0.00, -1.00, 226.3, 81.1)">a</text><text xml:space="preserve" font-family="GillSans,Gill Sans" font-size="22.0" fill="#00F900" transform="matrix(1.00, 0.00, -0.00, -1.00, 235.7, 81.1)">l</text><text xml:space="preserve" font-family="GillSans,Gill Sans" font-size="22.0" fill="#00F900" transform="matrix(1.00, 0.00, -0.00, -1.00, 240.5, 81.1)">e</text><text xml:space="preserve" font-family="GillSans,Gill Sans" font-size="22.0" fill="#00F900" transform="matrix(1.00, 0.00, -0.00, -1.00, 251.0, 81.1)">r</text><text xml:space="preserve" font-family="GillSans,Gill Sans" font-size="22.0" fill="#00F900" transform="matrix(1.00, 0.00, -0.00, -1.00, 259.8, 81.1)">"</text><text xml:space="preserve" font-family="GillSans,Gill Sans" font-size="22.0" fill="#00F900" transform="matrix(1.00, 0.00, -0.00, -1.00, 267.5, 81.1)">,</text><text xml:space="preserve" font-family="GillSans,Gill Sans" font-size="22.0" fill="#00F900" transform="matrix(1.00, 0.00, -0.00, -1.00, 1.0, 56.1)"> </text><text xml:space="preserve" font-family="GillSans,Gill Sans" font-size="22.0" fill="#00F900" transform="matrix(1.00, 0.00, -0.00, -1.00, 7.1, 56.1)"> </text><text xml:space="preserve" font-family="GillSans,Gill Sans" font-size="22.0" fill="#00F900" transform="matrix(1.00, 0.00, -0.00, -1.00, 13.2, 56.1)"> </text><text xml:space="preserve" font-family="GillSans,Gill Sans" font-size="22.0" fill="#00F900" transform="matrix(1.00, 0.00, -0.00, -1.00, 19.3, 56.1)"> </text><text xml:space="preserve" font-family="GillSans,Gill Sans" font-size="22.0" fill="#00F900" transform="matrix(1.00, 0.00, -0.00, -1.00, 25.4, 56.1)">"</text><text xml:space="preserve" font-family="GillSans,Gill Sans" font-size="22.0" fill="#00F900" transform="matrix(1.00, 0.00, -0.00, -1.00, 33.2, 56.1)">k</text><text xml:space="preserve" font-family="GillSans,Gill Sans" font-size="22.0" fill="#00F900" transform="matrix(1.00, 0.00, -0.00, -1.00, 43.8, 56.1)">n</text><text xml:space="preserve" font-family="GillSans,Gill Sans" font-size="22.0" fill="#00F900" transform="matrix(1.00, 0.00, -0.00, -1.00, 54.8, 56.1)">o</text><text xml:space="preserve" font-family="GillSans,Gill Sans" font-size="22.0" fill="#00F900" transform="matrix(1.00, 0.00, -0.00, -1.00, 66.7, 56.1)">w</text><text xml:space="preserve" font-family="GillSans,Gill Sans" font-size="22.0" fill="#00F900" transform="matrix(1.00, 0.00, -0.00, -1.00, 82.5, 56.1)">s</text><text xml:space="preserve" font-family="GillSans,Gill Sans" font-size="22.0" fill="#00F900" transform="matrix(1.00, 0.00, -0.00, -1.00, 91.0, 56.1)">"</text><text xml:space="preserve" font-family="GillSans,Gill Sans" font-size="22.0" fill="#00F900" transform="matrix(1.00, 0.00, -0.00, -1.00, 98.8, 56.1)"> </text><text xml:space="preserve" font-family="GillSans,Gill Sans" font-size="22.0" fill="#00F900" transform="matrix(1.00, 0.00, -0.00, -1.00, 104.9, 56.1)">"</text><text xml:space="preserve" font-family="GillSans,Gill Sans" font-size="22.0" fill="#00F900" transform="matrix(1.00, 0.00, -0.00, -1.00, 112.7, 56.1)">h</text><text xml:space="preserve" font-family="GillSans,Gill Sans" font-size="22.0" fill="#00F900" transform="matrix(1.00, 0.00, -0.00, -1.00, 123.7, 56.1)">t</text><text xml:space="preserve" font-family="GillSans,Gill Sans" font-size="22.0" fill="#00F900" transform="matrix(1.00, 0.00, -0.00, -1.00, 131.0, 56.1)">t</text><text xml:space="preserve" font-family="GillSans,Gill Sans" font-size="22.0" fill="#00F900" transform="matrix(1.00, 0.00, -0.00, -1.00, 138.3, 56.1)">p</text><text xml:space="preserve" font-family="GillSans,Gill Sans" font-size="22.0" fill="#00F900" transform="matrix(1.00, 0.00, -0.00, -1.00, 149.3, 56.1)">:</text><text xml:space="preserve" font-family="GillSans,Gill Sans" font-size="22.0" fill="#00F900" transform="matrix(1.00, 0.00, -0.00, -1.00, 154.2, 56.1)">/</text><text xml:space="preserve" font-family="GillSans,Gill Sans" font-size="22.0" fill="#00F900" transform="matrix(1.00, 0.00, -0.00, -1.00, 160.3, 56.1)">/</text><text xml:space="preserve" font-family="GillSans,Gill Sans" font-size="22.0" fill="#00F900" transform="matrix(1.00, 0.00, -0.00, -1.00, 166.5, 56.1)">g</text><text xml:space="preserve" font-family="GillSans,Gill Sans" font-size="22.0" fill="#00F900" transform="matrix(1.00, 0.00, -0.00, -1.00, 175.9, 56.1)">r</text><text xml:space="preserve" font-family="GillSans,Gill Sans" font-size="22.0" fill="#00F900" transform="matrix(1.00, 0.00, -0.00, -1.00, 184.2, 56.1)">e</text><text xml:space="preserve" font-family="GillSans,Gill Sans" font-size="22.0" fill="#00F900" transform="matrix(1.00, 0.00, -0.00, -1.00, 194.7, 56.1)">g</text><text xml:space="preserve" font-family="GillSans,Gill Sans" font-size="22.0" fill="#00F900" transform="matrix(1.00, 0.00, -0.00, -1.00, 204.1, 56.1)">g</text><text xml:space="preserve" font-family="GillSans,Gill Sans" font-size="22.0" fill="#00F900" transform="matrix(1.00, 0.00, -0.00, -1.00, 213.5, 56.1)">k</text><text xml:space="preserve" font-family="GillSans,Gill Sans" font-size="22.0" fill="#00F900" transform="matrix(1.00, 0.00, -0.00, -1.00, 223.3, 56.1)">e</text><text xml:space="preserve" font-family="GillSans,Gill Sans" font-size="22.0" fill="#00F900" transform="matrix(1.00, 0.00, -0.00, -1.00, 233.9, 56.1)">l</text><text xml:space="preserve" font-family="GillSans,Gill Sans" font-size="22.0" fill="#00F900" transform="matrix(1.00, 0.00, -0.00, -1.00, 238.7, 56.1)">l</text><text xml:space="preserve" font-family="GillSans,Gill Sans" font-size="22.0" fill="#00F900" transform="matrix(1.00, 0.00, -0.00, -1.00, 243.5, 56.1)">o</text><text xml:space="preserve" font-family="GillSans,Gill Sans" font-size="22.0" fill="#00F900" transform="matrix(1.00, 0.00, -0.00, -1.00, 255.7, 56.1)">g</text><text xml:space="preserve" font-family="GillSans,Gill Sans" font-size="22.0" fill="#00F900" transform="matrix(1.00, 0.00, -0.00, -1.00, 265.1, 56.1)">g</text><text xml:space="preserve" font-family="GillSans,Gill Sans" font-size="22.0" fill="#00F900" transform="matrix(1.00, 0.00, -0.00, -1.00, 274.4, 56.1)">.</text><text xml:space="preserve" font-family="GillSans,Gill Sans" font-size="22.0" fill="#00F900" transform="matrix(1.00, 0.00, -0.00, -1.00, 279.3, 56.1)">n</text><text xml:space="preserve" font-family="GillSans,Gill Sans" font-size="22.0" fill="#00F900" transform="matrix(1.00, 0.00, -0.00, -1.00, 290.3, 56.1)">e</text><text xml:space="preserve" font-family="GillSans,Gill Sans" font-size="22.0" fill="#00F900" transform="matrix(1.00, 0.00, -0.00, -1.00, 300.8, 56.1)">t</text><text xml:space="preserve" font-family="GillSans,Gill Sans" font-size="22.0" fill="#00F900" transform="matrix(1.00, 0.00, -0.00, -1.00, 308.1, 56.1)">/</text><text xml:space="preserve" font-family="GillSans,Gill Sans" font-size="22.0" fill="#00F900" transform="matrix(1.00, 0.00, -0.00, -1.00, 314.3, 56.1)">f</text><text xml:space="preserve" font-family="GillSans,Gill Sans" font-size="22.0" fill="#00F900" transform="matrix(1.00, 0.00, -0.00, -1.00, 319.6, 56.1)">o</text><text xml:space="preserve" font-family="GillSans,Gill Sans" font-size="22.0" fill="#00F900" transform="matrix(1.00, 0.00, -0.00, -1.00, 331.7, 56.1)">a</text><text xml:space="preserve" font-family="GillSans,Gill Sans" font-size="22.0" fill="#00F900" transform="matrix(1.00, 0.00, -0.00, -1.00, 341.1, 56.1)">f</text><text xml:space="preserve" font-family="GillSans,Gill Sans" font-size="22.0" fill="#00F900" transform="matrix(1.00, 0.00, -0.00, -1.00, 346.6, 56.1)">#</text><text xml:space="preserve" font-family="GillSans,Gill Sans" font-size="22.0" fill="#00F900" transform="matrix(1.00, 0.00, -0.00, -1.00, 359.5, 56.1)">m</text><text xml:space="preserve" font-family="GillSans,Gill Sans" font-size="22.0" fill="#00F900" transform="matrix(1.00, 0.00, -0.00, -1.00, 376.4, 56.1)">e</text><text xml:space="preserve" font-family="GillSans,Gill Sans" font-size="22.0" fill="#00F900" transform="matrix(1.00, 0.00, -0.00, -1.00, 387.0, 56.1)">"</text><g><clipPath id="clip0x7fcd117ae9e0"><path d="M 111.7 52.9 L 387.0 52.9 L 387.0 56.0 L 111.7 56.0 Z M 111.7 52.9 "></path></clipPath><g clip-path="url(#clip0x7fcd117ae9e0)"><path d="M 115.7 250.6 L 390.0 250.6 " fill="none" stroke="#00F900" stroke-width="1.10" transform="matrix(1.00, 0.00, 0.00, -1.00, -3.0, 305.0)"></path></g></g><text xml:space="preserve" font-family="GillSans,Gill Sans" font-size="22.0" fill="#00F900" transform="matrix(1.00, 0.00, -0.00, -1.00, 1.0, 31.1)"> </text><text xml:space="preserve" font-family="GillSans,Gill Sans" font-size="22.0" fill="#00F900" transform="matrix(1.00, 0.00, -0.00, -1.00, 7.1, 31.1)"> </text><text xml:space="preserve" font-family="GillSans,Gill Sans" font-size="22.0" fill="#00F900" transform="matrix(1.00, 0.00, -0.00, -1.00, 13.2, 31.1)">}</text><text xml:space="preserve" font-family="GillSans,Gill Sans" font-size="22.0" fill="#FEFFFF" transform="matrix(1.00, 0.00, -0.00, -1.00, 1.0, 6.1)">}</text></g></svg>