<?xml version="1.0" encoding="UTF-8" standalone="no"?><svg xmlns="http://www.w3.org/2000/svg" xmlns:xlink="http://www.w3.org/1999/xlink" clip-rule="evenodd" stroke-miterlimit="10" viewBox="0 0 1024 768"><desc>SVG generated by Keynote</desc><defs></defs><g transform="matrix(1.00, 0.00, -0.00, -1.00, 0.0, 768.0)"><path d="M 0.0 768.0 L 1024.0 768.0 L 1024.0 0.0 L 0.0 0.0 Z M 0.0 768.0 " fill="#FEFFFF"></path><text xml:space="preserve" font-family="Helvetica,Helvetica" font-size="12.0" fill="#000000" transform="matrix(1.00, 0.00, -0.00, -1.00, 472.0, 25.8)">H</text><text xml:space="preserve" font-family="Helvetica,Helvetica" font-size="12.0" fill="#000000" transform="matrix(1.00, 0.00, -0.00, -1.00, 480.6, 25.8)">y</text><text xml:space="preserve" font-family="Helvetica,Helvetica" font-size="12.0" fill="#000000" transform="matrix(1.00, 0.00, -0.00, -1.00, 486.6, 25.8)">d</text><text xml:space="preserve" font-family="Helvetica,Helvetica" font-size="12.0" fill="#000000" transform="matrix(1.00, 0.00, -0.00, -1.00, 493.3, 25.8)">r</text><text xml:space="preserve" font-family="Helvetica,Helvetica" font-size="12.0" fill="#000000" transform="matrix(1.00, 0.00, -0.00, -1.00, 497.3, 25.8)">a</text><text xml:space="preserve" font-family="Helvetica,Helvetica" font-size="12.0" fill="#000000" transform="matrix(1.00, 0.00, -0.00, -1.00, 504.0, 25.8)"> </text><text xml:space="preserve" font-family="Helvetica,Helvetica" font-size="12.0" fill="#000000" transform="matrix(1.00, 0.00, -0.00, -1.00, 507.3, 25.8)">C</text><text xml:space="preserve" font-family="Helvetica,Helvetica" font-size="12.0" fill="#000000" transform="matrix(1.00, 0.00, -0.00, -1.00, 516.0, 25.8)">o</text><text xml:space="preserve" font-family="Helvetica,Helvetica" font-size="12.0" fill="#000000" transform="matrix(1.00, 0.00, -0.00, -1.00, 522.7, 25.8)">n</text><text xml:space="preserve" font-family="Helvetica,Helvetica" font-size="12.0" fill="#000000" transform="matrix(1.00, 0.00, -0.00, -1.00, 529.3, 25.8)">n</text><text xml:space="preserve" font-family="Helvetica,Helvetica" font-size="12.0" fill="#000000" transform="matrix(1.00, 0.00, -0.00, -1.00, 536.0, 25.8)">e</text><text xml:space="preserve" font-family="Helvetica,Helvetica" font-size="12.0" fill="#000000" transform="matrix(1.00, 0.00, -0.00, -1.00, 542.7, 25.8)">c</text><text xml:space="preserve" font-family="Helvetica,Helvetica" font-size="12.0" fill="#000000" transform="matrix(1.00, 0.00, -0.00, -1.00, 548.7, 25.8)">t</text><text xml:space="preserve" font-family="Helvetica,Helvetica" font-size="12.0" fill="#000000" transform="matrix(1.00, 0.00, -0.00, -1.00, 107.2, 25.8)">S</text><text xml:space="preserve" font-family="Helvetica,Helvetica" font-size="12.0" fill="#000000" transform="matrix(1.00, 0.00, -0.00, -1.00, 115.2, 25.8)">e</text><text xml:space="preserve" font-family="Helvetica,Helvetica" font-size="12.0" fill="#000000" transform="matrix(1.00, 0.00, -0.00, -1.00, 121.9, 25.8)">p</text><text xml:space="preserve" font-family="Helvetica,Helvetica" font-size="12.0" fill="#000000" transform="matrix(1.00, 0.00, -0.00, -1.00, 128.6, 25.8)">t</text><text xml:space="preserve" font-family="Helvetica,Helvetica" font-size="12.0" fill="#000000" transform="matrix(1.00, 0.00, -0.00, -1.00, 131.9, 25.8)">e</text><text xml:space="preserve" font-family="Helvetica,Helvetica" font-size="12.0" fill="#000000" transform="matrix(1.00, 0.00, -0.00, -1.00, 138.6, 25.8)">m</text><text xml:space="preserve" font-family="Helvetica,Helvetica" font-size="12.0" fill="#000000" transform="matrix(1.00, 0.00, -0.00, -1.00, 148.6, 25.8)">b</text><text xml:space="preserve" font-family="Helvetica,Helvetica" font-size="12.0" fill="#000000" transform="matrix(1.00, 0.00, -0.00, -1.00, 155.2, 25.8)">e</text><text xml:space="preserve" font-family="Helvetica,Helvetica" font-size="12.0" fill="#000000" transform="matrix(1.00, 0.00, -0.00, -1.00, 161.9, 25.8)">r</text><text xml:space="preserve" font-family="Helvetica,Helvetica" font-size="12.0" fill="#000000" transform="matrix(1.00, 0.00, -0.00, -1.00, 165.9, 25.8)"> </text><text xml:space="preserve" font-family="Helvetica,Helvetica" font-size="12.0" fill="#000000" transform="matrix(1.00, 0.00, -0.00, -1.00, 169.2, 25.8)">2</text><text xml:space="preserve" font-family="Helvetica,Helvetica" font-size="12.0" fill="#000000" transform="matrix(1.00, 0.00, -0.00, -1.00, 175.9, 25.8)">0</text><text xml:space="preserve" font-family="Helvetica,Helvetica" font-size="12.0" fill="#000000" transform="matrix(1.00, 0.00, -0.00, -1.00, 182.6, 25.8)">1</text><text xml:space="preserve" font-family="Helvetica,Helvetica" font-size="12.0" fill="#000000" transform="matrix(1.00, 0.00, -0.00, -1.00, 189.3, 25.8)">5</text><text xml:space="preserve" font-family="Helvetica-Light,Helvetica" font-size="50.0" fill="#000000" transform="matrix(1.00, 0.00, -0.00, -1.00, 387.0, 629.5)">L</text><text xml:space="preserve" font-family="Helvetica-Light,Helvetica" font-size="50.0" fill="#000000" transform="matrix(1.00, 0.00, -0.00, -1.00, 414.8, 629.5)">O</text><text xml:space="preserve" font-family="Helvetica-Light,Helvetica" font-size="50.0" fill="#000000" transform="matrix(1.00, 0.00, -0.00, -1.00, 453.7, 629.5)">D</text><text xml:space="preserve" font-family="Helvetica-Light,Helvetica" font-size="50.0" fill="#000000" transform="matrix(1.00, 0.00, -0.00, -1.00, 489.8, 629.5)"> </text><text xml:space="preserve" font-family="Helvetica-Light,Helvetica" font-size="50.0" fill="#000000" transform="matrix(1.00, 0.00, -0.00, -1.00, 503.7, 629.5)">C</text><text xml:space="preserve" font-family="Helvetica-Light,Helvetica" font-size="50.0" fill="#000000" transform="matrix(1.00, 0.00, -0.00, -1.00, 539.8, 629.5)">l</text><text xml:space="preserve" font-family="Helvetica-Light,Helvetica" font-size="50.0" fill="#000000" transform="matrix(1.00, 0.00, -0.00, -1.00, 550.9, 629.5)">o</text><text xml:space="preserve" font-family="Helvetica-Light,Helvetica" font-size="50.0" fill="#000000" transform="matrix(1.00, 0.00, -0.00, -1.00, 578.7, 629.5)">u</text><text xml:space="preserve" font-family="Helvetica-Light,Helvetica" font-size="50.0" fill="#000000" transform="matrix(1.00, 0.00, -0.00, -1.00, 606.5, 629.5)">d</text><text xml:space="preserve" font-family="Helvetica-Light,Helvetica" font-size="12.0" fill="#000000" transform="matrix(1.00, 0.00, -0.00, -1.00, 932.2, 34.3)">5</text><image xlink:href="49292540A45CF31498EB6809F36739EB.png" width="1000.00" height="650.00" transform="matrix(0.92, 0.00, -0.00, -0.92, 52.0, 614.0)"></image></g></svg>