<?xml version="1.0" encoding="UTF-8" standalone="no"?><svg xmlns="http://www.w3.org/2000/svg" xmlns:xlink="http://www.w3.org/1999/xlink" clip-rule="evenodd" stroke-miterlimit="10" viewBox="0 0 1024 768"><desc>SVG generated by Keynote</desc><defs></defs><g transform="matrix(1.00, 0.00, -0.00, -1.00, 0.0, 768.0)"><g><clipPath id="clip0x7fcd22493700"><path d="M 0.0 768.0 L 1024.0 768.0 L 1024.0 0.0 L 0.0 0.0 Z M 0.0 768.0 "></path></clipPath><g clip-path="url(#clip0x7fcd22493700)"><image xlink:href="../../D1633A7A-1E45-48FF-BA06-56002168097B/assets/4E131E180F71435CE7831D195B770FC0.jpeg" width="2048.00" height="1536.00" transform="matrix(0.50, 0.00, -0.00, -0.50, 0.0, 768.0)"></image></g></g><text xml:space="preserve" font-family="Helvetica-Light,Helvetica" font-size="80.0" fill="#FEFFFF" transform="matrix(1.00, 0.00, -0.00, -1.00, 365.3, 622.4)">S</text><text xml:space="preserve" font-family="Helvetica-Light,Helvetica" font-size="80.0" fill="#FEFFFF" transform="matrix(1.00, 0.00, -0.00, -1.00, 414.2, 622.4)">c</text><text xml:space="preserve" font-family="Helvetica-Light,Helvetica" font-size="80.0" fill="#FEFFFF" transform="matrix(1.00, 0.00, -0.00, -1.00, 458.6, 622.4)">h</text><text xml:space="preserve" font-family="Helvetica-Light,Helvetica" font-size="80.0" fill="#FEFFFF" transform="matrix(1.00, 0.00, -0.00, -1.00, 503.1, 622.4)">e</text><text xml:space="preserve" font-family="Helvetica-Light,Helvetica" font-size="80.0" fill="#FEFFFF" transform="matrix(1.00, 0.00, -0.00, -1.00, 547.6, 622.4)">m</text><text xml:space="preserve" font-family="Helvetica-Light,Helvetica" font-size="80.0" fill="#FEFFFF" transform="matrix(1.00, 0.00, -0.00, -1.00, 614.2, 622.4)">a</text><text xml:space="preserve" font-family="Helvetica-Light,Helvetica" font-size="28.5" fill="#FEFFFF" transform="matrix(1.00, 0.00, -0.00, -1.00, 79.0, 481.1)">•</text><text xml:space="preserve" font-family="Helvetica-Light,Helvetica" font-size="38.0" fill="#FEFFFF" transform="matrix(1.00, 0.00, -0.00, -1.00, 115.0, 477.7)">C</text><text xml:space="preserve" font-family="Helvetica-Light,Helvetica" font-size="38.0" fill="#FEFFFF" transform="matrix(1.00, 0.00, -0.00, -1.00, 142.4, 477.7)">o</text><text xml:space="preserve" font-family="Helvetica-Light,Helvetica" font-size="38.0" fill="#FEFFFF" transform="matrix(1.00, 0.00, -0.00, -1.00, 163.6, 477.7)">l</text><text xml:space="preserve" font-family="Helvetica-Light,Helvetica" font-size="38.0" fill="#FEFFFF" transform="matrix(1.00, 0.00, -0.00, -1.00, 172.0, 477.7)">u</text><text xml:space="preserve" font-family="Helvetica-Light,Helvetica" font-size="38.0" fill="#FEFFFF" transform="matrix(1.00, 0.00, -0.00, -1.00, 193.1, 477.7)">m</text><text xml:space="preserve" font-family="Helvetica-Light,Helvetica" font-size="38.0" fill="#FEFFFF" transform="matrix(1.00, 0.00, -0.00, -1.00, 224.8, 477.7)">n</text><text xml:space="preserve" font-family="Helvetica-Light,Helvetica" font-size="38.0" fill="#FEFFFF" transform="matrix(1.00, 0.00, -0.00, -1.00, 245.9, 477.7)"> </text><text xml:space="preserve" font-family="Helvetica-Light,Helvetica" font-size="38.0" fill="#FEFFFF" transform="matrix(1.00, 0.00, -0.00, -1.00, 256.5, 477.7)">D</text><text xml:space="preserve" font-family="Helvetica-Light,Helvetica" font-size="38.0" fill="#FEFFFF" transform="matrix(1.00, 0.00, -0.00, -1.00, 283.9, 477.7)">e</text><text xml:space="preserve" font-family="Helvetica-Light,Helvetica" font-size="38.0" fill="#FEFFFF" transform="matrix(1.00, 0.00, -0.00, -1.00, 305.0, 477.7)">s</text><text xml:space="preserve" font-family="Helvetica-Light,Helvetica" font-size="38.0" fill="#FEFFFF" transform="matrix(1.00, 0.00, -0.00, -1.00, 324.0, 477.7)">c</text><text xml:space="preserve" font-family="Helvetica-Light,Helvetica" font-size="38.0" fill="#FEFFFF" transform="matrix(1.00, 0.00, -0.00, -1.00, 345.2, 477.7)">r</text><text xml:space="preserve" font-family="Helvetica-Light,Helvetica" font-size="38.0" fill="#FEFFFF" transform="matrix(1.00, 0.00, -0.00, -1.00, 357.8, 477.7)">i</text><text xml:space="preserve" font-family="Helvetica-Light,Helvetica" font-size="38.0" fill="#FEFFFF" transform="matrix(1.00, 0.00, -0.00, -1.00, 366.3, 477.7)">p</text><text xml:space="preserve" font-family="Helvetica-Light,Helvetica" font-size="38.0" fill="#FEFFFF" transform="matrix(1.00, 0.00, -0.00, -1.00, 389.5, 477.7)">t</text><text xml:space="preserve" font-family="Helvetica-Light,Helvetica" font-size="38.0" fill="#FEFFFF" transform="matrix(1.00, 0.00, -0.00, -1.00, 400.0, 477.7)">i</text><text xml:space="preserve" font-family="Helvetica-Light,Helvetica" font-size="38.0" fill="#FEFFFF" transform="matrix(1.00, 0.00, -0.00, -1.00, 408.5, 477.7)">o</text><text xml:space="preserve" font-family="Helvetica-Light,Helvetica" font-size="38.0" fill="#FEFFFF" transform="matrix(1.00, 0.00, -0.00, -1.00, 429.6, 477.7)">n</text><text xml:space="preserve" font-family="Helvetica-Light,Helvetica" font-size="38.0" fill="#FEFFFF" transform="matrix(1.00, 0.00, -0.00, -1.00, 450.7, 477.7)">s</text><text xml:space="preserve" font-family="Helvetica-Light,Helvetica" font-size="38.0" fill="#FEFFFF" transform="matrix(1.00, 0.00, -0.00, -1.00, 469.7, 477.7)"> </text><text xml:space="preserve" font-family="Helvetica-Light,Helvetica" font-size="28.5" fill="#FEFFFF" transform="matrix(1.00, 0.00, -0.00, -1.00, 115.0, 393.1)">•</text><text xml:space="preserve" font-family="Helvetica-Light,Helvetica" font-size="38.0" fill="#FEFFFF" transform="matrix(1.00, 0.00, -0.00, -1.00, 151.0, 389.7)">N</text><text xml:space="preserve" font-family="Helvetica-Light,Helvetica" font-size="38.0" fill="#FEFFFF" transform="matrix(1.00, 0.00, -0.00, -1.00, 178.4, 389.7)">a</text><text xml:space="preserve" font-family="Helvetica-Light,Helvetica" font-size="38.0" fill="#FEFFFF" transform="matrix(1.00, 0.00, -0.00, -1.00, 199.6, 389.7)">m</text><text xml:space="preserve" font-family="Helvetica-Light,Helvetica" font-size="38.0" fill="#FEFFFF" transform="matrix(1.00, 0.00, -0.00, -1.00, 231.2, 389.7)">e</text><text xml:space="preserve" font-family="Helvetica-Light,Helvetica" font-size="38.0" fill="#FEFFFF" transform="matrix(1.00, 0.00, -0.00, -1.00, 252.3, 389.7)">s</text><text xml:space="preserve" font-family="Helvetica-Light,Helvetica" font-size="38.0" fill="#FEFFFF" transform="matrix(1.00, 0.00, -0.00, -1.00, 271.3, 389.7)">/</text><text xml:space="preserve" font-family="Helvetica-Light,Helvetica" font-size="38.0" fill="#FEFFFF" transform="matrix(1.00, 0.00, -0.00, -1.00, 281.9, 389.7)">T</text><text xml:space="preserve" font-family="Helvetica-Light,Helvetica" font-size="38.0" fill="#FEFFFF" transform="matrix(1.00, 0.00, -0.00, -1.00, 303.0, 389.7)">i</text><text xml:space="preserve" font-family="Helvetica-Light,Helvetica" font-size="38.0" fill="#FEFFFF" transform="matrix(1.00, 0.00, -0.00, -1.00, 311.5, 389.7)">t</text><text xml:space="preserve" font-family="Helvetica-Light,Helvetica" font-size="38.0" fill="#FEFFFF" transform="matrix(1.00, 0.00, -0.00, -1.00, 322.0, 389.7)">l</text><text xml:space="preserve" font-family="Helvetica-Light,Helvetica" font-size="38.0" fill="#FEFFFF" transform="matrix(1.00, 0.00, -0.00, -1.00, 330.5, 389.7)">e</text><text xml:space="preserve" font-family="Helvetica-Light,Helvetica" font-size="38.0" fill="#FEFFFF" transform="matrix(1.00, 0.00, -0.00, -1.00, 351.6, 389.7)">s</text><text xml:space="preserve" font-family="Helvetica-Light,Helvetica" font-size="38.0" fill="#FEFFFF" transform="matrix(1.00, 0.00, -0.00, -1.00, 370.6, 389.7)"> </text><text xml:space="preserve" font-family="Helvetica-Light,Helvetica" font-size="28.5" fill="#FEFFFF" transform="matrix(1.00, 0.00, -0.00, -1.00, 115.0, 305.1)">•</text><text xml:space="preserve" font-family="Helvetica-Light,Helvetica" font-size="38.0" fill="#FEFFFF" transform="matrix(1.00, 0.00, -0.00, -1.00, 151.0, 301.7)">D</text><text xml:space="preserve" font-family="Helvetica-Light,Helvetica" font-size="38.0" fill="#FEFFFF" transform="matrix(1.00, 0.00, -0.00, -1.00, 178.4, 301.7)">a</text><text xml:space="preserve" font-family="Helvetica-Light,Helvetica" font-size="38.0" fill="#FEFFFF" transform="matrix(1.00, 0.00, -0.00, -1.00, 199.6, 301.7)">t</text><text xml:space="preserve" font-family="Helvetica-Light,Helvetica" font-size="38.0" fill="#FEFFFF" transform="matrix(1.00, 0.00, -0.00, -1.00, 210.1, 301.7)">a</text><text xml:space="preserve" font-family="Helvetica-Light,Helvetica" font-size="38.0" fill="#FEFFFF" transform="matrix(1.00, 0.00, -0.00, -1.00, 231.3, 301.7)">t</text><text xml:space="preserve" font-family="Helvetica-Light,Helvetica" font-size="38.0" fill="#FEFFFF" transform="matrix(1.00, 0.00, -0.00, -1.00, 241.8, 301.7)">y</text><text xml:space="preserve" font-family="Helvetica-Light,Helvetica" font-size="38.0" fill="#FEFFFF" transform="matrix(1.00, 0.00, -0.00, -1.00, 260.8, 301.7)">p</text><text xml:space="preserve" font-family="Helvetica-Light,Helvetica" font-size="38.0" fill="#FEFFFF" transform="matrix(1.00, 0.00, -0.00, -1.00, 284.0, 301.7)">e</text><text xml:space="preserve" font-family="Helvetica-Light,Helvetica" font-size="38.0" fill="#FEFFFF" transform="matrix(1.00, 0.00, -0.00, -1.00, 305.2, 301.7)"> </text><text xml:space="preserve" font-family="Helvetica-Light,Helvetica" font-size="28.5" fill="#FEFFFF" transform="matrix(1.00, 0.00, -0.00, -1.00, 79.0, 217.1)">•</text><text xml:space="preserve" font-family="Helvetica-Light,Helvetica" font-size="38.0" fill="#FEFFFF" transform="matrix(1.00, 0.00, -0.00, -1.00, 115.0, 213.7)">P</text><text xml:space="preserve" font-family="Helvetica-Light,Helvetica" font-size="38.0" fill="#FEFFFF" transform="matrix(1.00, 0.00, -0.00, -1.00, 138.2, 213.7)">r</text><text xml:space="preserve" font-family="Helvetica-Light,Helvetica" font-size="38.0" fill="#FEFFFF" transform="matrix(1.00, 0.00, -0.00, -1.00, 150.9, 213.7)">i</text><text xml:space="preserve" font-family="Helvetica-Light,Helvetica" font-size="38.0" fill="#FEFFFF" transform="matrix(1.00, 0.00, -0.00, -1.00, 159.3, 213.7)">m</text><text xml:space="preserve" font-family="Helvetica-Light,Helvetica" font-size="38.0" fill="#FEFFFF" transform="matrix(1.00, 0.00, -0.00, -1.00, 191.0, 213.7)">a</text><text xml:space="preserve" font-family="Helvetica-Light,Helvetica" font-size="38.0" fill="#FEFFFF" transform="matrix(1.00, 0.00, -0.00, -1.00, 212.1, 213.7)">r</text><text xml:space="preserve" font-family="Helvetica-Light,Helvetica" font-size="38.0" fill="#FEFFFF" transform="matrix(1.00, 0.00, -0.00, -1.00, 225.4, 213.7)">y</text><text xml:space="preserve" font-family="Helvetica-Light,Helvetica" font-size="38.0" fill="#FEFFFF" transform="matrix(1.00, 0.00, -0.00, -1.00, 244.4, 213.7)"> </text><text xml:space="preserve" font-family="Helvetica-Light,Helvetica" font-size="38.0" fill="#FEFFFF" transform="matrix(1.00, 0.00, -0.00, -1.00, 255.0, 213.7)">K</text><text xml:space="preserve" font-family="Helvetica-Light,Helvetica" font-size="38.0" fill="#FEFFFF" transform="matrix(1.00, 0.00, -0.00, -1.00, 280.3, 213.7)">e</text><text xml:space="preserve" font-family="Helvetica-Light,Helvetica" font-size="38.0" fill="#FEFFFF" transform="matrix(1.00, 0.00, -0.00, -1.00, 301.5, 213.7)">y</text><text xml:space="preserve" font-family="Helvetica-Light,Helvetica" font-size="38.0" fill="#FEFFFF" transform="matrix(1.00, 0.00, -0.00, -1.00, 320.5, 213.7)">s</text><text xml:space="preserve" font-family="Helvetica-Light,Helvetica" font-size="38.0" fill="#FEFFFF" transform="matrix(1.00, 0.00, -0.00, -1.00, 339.5, 213.7)"> </text><text xml:space="preserve" font-family="Helvetica-Light,Helvetica" font-size="28.5" fill="#FEFFFF" transform="matrix(1.00, 0.00, -0.00, -1.00, 79.0, 129.1)">•</text><text xml:space="preserve" font-family="Helvetica-Light,Helvetica" font-size="38.0" fill="#FEFFFF" transform="matrix(1.00, 0.00, -0.00, -1.00, 115.0, 125.7)">F</text><text xml:space="preserve" font-family="Helvetica-Light,Helvetica" font-size="38.0" fill="#FEFFFF" transform="matrix(1.00, 0.00, -0.00, -1.00, 136.1, 125.7)">o</text><text xml:space="preserve" font-family="Helvetica-Light,Helvetica" font-size="38.0" fill="#FEFFFF" transform="matrix(1.00, 0.00, -0.00, -1.00, 157.3, 125.7)">r</text><text xml:space="preserve" font-family="Helvetica-Light,Helvetica" font-size="38.0" fill="#FEFFFF" transform="matrix(1.00, 0.00, -0.00, -1.00, 169.2, 125.7)">e</text><text xml:space="preserve" font-family="Helvetica-Light,Helvetica" font-size="38.0" fill="#FEFFFF" transform="matrix(1.00, 0.00, -0.00, -1.00, 190.4, 125.7)">i</text><text xml:space="preserve" font-family="Helvetica-Light,Helvetica" font-size="38.0" fill="#FEFFFF" transform="matrix(1.00, 0.00, -0.00, -1.00, 198.8, 125.7)">g</text><text xml:space="preserve" font-family="Helvetica-Light,Helvetica" font-size="38.0" fill="#FEFFFF" transform="matrix(1.00, 0.00, -0.00, -1.00, 222.0, 125.7)">n</text><text xml:space="preserve" font-family="Helvetica-Light,Helvetica" font-size="38.0" fill="#FEFFFF" transform="matrix(1.00, 0.00, -0.00, -1.00, 243.1, 125.7)"> </text><text xml:space="preserve" font-family="Helvetica-Light,Helvetica" font-size="38.0" fill="#FEFFFF" transform="matrix(1.00, 0.00, -0.00, -1.00, 253.7, 125.7)">K</text><text xml:space="preserve" font-family="Helvetica-Light,Helvetica" font-size="38.0" fill="#FEFFFF" transform="matrix(1.00, 0.00, -0.00, -1.00, 279.0, 125.7)">e</text><text xml:space="preserve" font-family="Helvetica-Light,Helvetica" font-size="38.0" fill="#FEFFFF" transform="matrix(1.00, 0.00, -0.00, -1.00, 300.2, 125.7)">y</text><text xml:space="preserve" font-family="Helvetica-Light,Helvetica" font-size="38.0" fill="#FEFFFF" transform="matrix(1.00, 0.00, -0.00, -1.00, 319.2, 125.7)"> </text><text xml:space="preserve" font-family="Helvetica-Light,Helvetica" font-size="38.0" fill="#FEFFFF" transform="matrix(1.00, 0.00, -0.00, -1.00, 329.7, 125.7)">R</text><text xml:space="preserve" font-family="Helvetica-Light,Helvetica" font-size="38.0" fill="#FEFFFF" transform="matrix(1.00, 0.00, -0.00, -1.00, 355.1, 125.7)">e</text><text xml:space="preserve" font-family="Helvetica-Light,Helvetica" font-size="38.0" fill="#FEFFFF" transform="matrix(1.00, 0.00, -0.00, -1.00, 376.2, 125.7)">l</text><text xml:space="preserve" font-family="Helvetica-Light,Helvetica" font-size="38.0" fill="#FEFFFF" transform="matrix(1.00, 0.00, -0.00, -1.00, 384.6, 125.7)">a</text><text xml:space="preserve" font-family="Helvetica-Light,Helvetica" font-size="38.0" fill="#FEFFFF" transform="matrix(1.00, 0.00, -0.00, -1.00, 405.8, 125.7)">t</text><text xml:space="preserve" font-family="Helvetica-Light,Helvetica" font-size="38.0" fill="#FEFFFF" transform="matrix(1.00, 0.00, -0.00, -1.00, 416.3, 125.7)">i</text><text xml:space="preserve" font-family="Helvetica-Light,Helvetica" font-size="38.0" fill="#FEFFFF" transform="matrix(1.00, 0.00, -0.00, -1.00, 424.8, 125.7)">o</text><text xml:space="preserve" font-family="Helvetica-Light,Helvetica" font-size="38.0" fill="#FEFFFF" transform="matrix(1.00, 0.00, -0.00, -1.00, 445.9, 125.7)">n</text><text xml:space="preserve" font-family="Helvetica-Light,Helvetica" font-size="38.0" fill="#FEFFFF" transform="matrix(1.00, 0.00, -0.00, -1.00, 467.0, 125.7)">s</text><text xml:space="preserve" font-family="Helvetica-Light,Helvetica" font-size="38.0" fill="#FEFFFF" transform="matrix(1.00, 0.00, -0.00, -1.00, 486.0, 125.7)">h</text><text xml:space="preserve" font-family="Helvetica-Light,Helvetica" font-size="38.0" fill="#FEFFFF" transform="matrix(1.00, 0.00, -0.00, -1.00, 507.2, 125.7)">i</text><text xml:space="preserve" font-family="Helvetica-Light,Helvetica" font-size="38.0" fill="#FEFFFF" transform="matrix(1.00, 0.00, -0.00, -1.00, 515.6, 125.7)">p</text><text xml:space="preserve" font-family="Helvetica-Light,Helvetica" font-size="38.0" fill="#FEFFFF" transform="matrix(1.00, 0.00, -0.00, -1.00, 538.8, 125.7)">s</text><text xml:space="preserve" font-family="Helvetica-Light,Helvetica" font-size="18.0" fill="#FEFFFF" transform="matrix(1.00, 0.00, -0.00, -1.00, 501.5, 18.1)">1</text><text xml:space="preserve" font-family="Helvetica-Light,Helvetica" font-size="18.0" fill="#FEFFFF" transform="matrix(1.00, 0.00, -0.00, -1.00, 511.5, 18.1)">2</text></g></svg>