<?xml version="1.0" encoding="UTF-8" standalone="no"?><svg xmlns="http://www.w3.org/2000/svg" xmlns:xlink="http://www.w3.org/1999/xlink" clip-rule="evenodd" stroke-miterlimit="10" viewBox="0 0 1024 768"><desc>SVG generated by Keynote</desc><defs></defs><g transform="matrix(1.00, 0.00, -0.00, -1.00, 0.0, 768.0)"><path d="M 0.0 768.0 L 1024.0 768.0 L 1024.0 0.0 L 0.0 0.0 Z M 0.0 768.0 " fill="#FEFFFF"></path><text xml:space="preserve" font-family="Helvetica,Helvetica" font-size="12.0" fill="#000000" transform="matrix(1.00, 0.00, -0.00, -1.00, 472.0, 25.8)">H</text><text xml:space="preserve" font-family="Helvetica,Helvetica" font-size="12.0" fill="#000000" transform="matrix(1.00, 0.00, -0.00, -1.00, 480.6, 25.8)">y</text><text xml:space="preserve" font-family="Helvetica,Helvetica" font-size="12.0" fill="#000000" transform="matrix(1.00, 0.00, -0.00, -1.00, 486.6, 25.8)">d</text><text xml:space="preserve" font-family="Helvetica,Helvetica" font-size="12.0" fill="#000000" transform="matrix(1.00, 0.00, -0.00, -1.00, 493.3, 25.8)">r</text><text xml:space="preserve" font-family="Helvetica,Helvetica" font-size="12.0" fill="#000000" transform="matrix(1.00, 0.00, -0.00, -1.00, 497.3, 25.8)">a</text><text xml:space="preserve" font-family="Helvetica,Helvetica" font-size="12.0" fill="#000000" transform="matrix(1.00, 0.00, -0.00, -1.00, 504.0, 25.8)"> </text><text xml:space="preserve" font-family="Helvetica,Helvetica" font-size="12.0" fill="#000000" transform="matrix(1.00, 0.00, -0.00, -1.00, 507.3, 25.8)">C</text><text xml:space="preserve" font-family="Helvetica,Helvetica" font-size="12.0" fill="#000000" transform="matrix(1.00, 0.00, -0.00, -1.00, 516.0, 25.8)">o</text><text xml:space="preserve" font-family="Helvetica,Helvetica" font-size="12.0" fill="#000000" transform="matrix(1.00, 0.00, -0.00, -1.00, 522.7, 25.8)">n</text><text xml:space="preserve" font-family="Helvetica,Helvetica" font-size="12.0" fill="#000000" transform="matrix(1.00, 0.00, -0.00, -1.00, 529.3, 25.8)">n</text><text xml:space="preserve" font-family="Helvetica,Helvetica" font-size="12.0" fill="#000000" transform="matrix(1.00, 0.00, -0.00, -1.00, 536.0, 25.8)">e</text><text xml:space="preserve" font-family="Helvetica,Helvetica" font-size="12.0" fill="#000000" transform="matrix(1.00, 0.00, -0.00, -1.00, 542.7, 25.8)">c</text><text xml:space="preserve" font-family="Helvetica,Helvetica" font-size="12.0" fill="#000000" transform="matrix(1.00, 0.00, -0.00, -1.00, 548.7, 25.8)">t</text><text xml:space="preserve" font-family="Helvetica,Helvetica" font-size="12.0" fill="#000000" transform="matrix(1.00, 0.00, -0.00, -1.00, 107.2, 25.8)">S</text><text xml:space="preserve" font-family="Helvetica,Helvetica" font-size="12.0" fill="#000000" transform="matrix(1.00, 0.00, -0.00, -1.00, 115.2, 25.8)">e</text><text xml:space="preserve" font-family="Helvetica,Helvetica" font-size="12.0" fill="#000000" transform="matrix(1.00, 0.00, -0.00, -1.00, 121.9, 25.8)">p</text><text xml:space="preserve" font-family="Helvetica,Helvetica" font-size="12.0" fill="#000000" transform="matrix(1.00, 0.00, -0.00, -1.00, 128.6, 25.8)">t</text><text xml:space="preserve" font-family="Helvetica,Helvetica" font-size="12.0" fill="#000000" transform="matrix(1.00, 0.00, -0.00, -1.00, 131.9, 25.8)">e</text><text xml:space="preserve" font-family="Helvetica,Helvetica" font-size="12.0" fill="#000000" transform="matrix(1.00, 0.00, -0.00, -1.00, 138.6, 25.8)">m</text><text xml:space="preserve" font-family="Helvetica,Helvetica" font-size="12.0" fill="#000000" transform="matrix(1.00, 0.00, -0.00, -1.00, 148.6, 25.8)">b</text><text xml:space="preserve" font-family="Helvetica,Helvetica" font-size="12.0" fill="#000000" transform="matrix(1.00, 0.00, -0.00, -1.00, 155.2, 25.8)">e</text><text xml:space="preserve" font-family="Helvetica,Helvetica" font-size="12.0" fill="#000000" transform="matrix(1.00, 0.00, -0.00, -1.00, 161.9, 25.8)">r</text><text xml:space="preserve" font-family="Helvetica,Helvetica" font-size="12.0" fill="#000000" transform="matrix(1.00, 0.00, -0.00, -1.00, 165.9, 25.8)"> </text><text xml:space="preserve" font-family="Helvetica,Helvetica" font-size="12.0" fill="#000000" transform="matrix(1.00, 0.00, -0.00, -1.00, 169.2, 25.8)">2</text><text xml:space="preserve" font-family="Helvetica,Helvetica" font-size="12.0" fill="#000000" transform="matrix(1.00, 0.00, -0.00, -1.00, 175.9, 25.8)">0</text><text xml:space="preserve" font-family="Helvetica,Helvetica" font-size="12.0" fill="#000000" transform="matrix(1.00, 0.00, -0.00, -1.00, 182.6, 25.8)">1</text><text xml:space="preserve" font-family="Helvetica,Helvetica" font-size="12.0" fill="#000000" transform="matrix(1.00, 0.00, -0.00, -1.00, 189.3, 25.8)">5</text><text xml:space="preserve" font-family="Helvetica-Light,Helvetica" font-size="50.0" fill="#000000" transform="matrix(1.00, 0.00, -0.00, -1.00, 328.6, 629.5)">R</text><text xml:space="preserve" font-family="Helvetica-Light,Helvetica" font-size="50.0" fill="#000000" transform="matrix(1.00, 0.00, -0.00, -1.00, 362.0, 629.5)">D</text><text xml:space="preserve" font-family="Helvetica-Light,Helvetica" font-size="50.0" fill="#000000" transform="matrix(1.00, 0.00, -0.00, -1.00, 398.1, 629.5)">F</text><text xml:space="preserve" font-family="Helvetica-Light,Helvetica" font-size="50.0" fill="#000000" transform="matrix(1.00, 0.00, -0.00, -1.00, 425.9, 629.5)"> </text><text xml:space="preserve" font-family="Helvetica-Light,Helvetica" font-size="50.0" fill="#000000" transform="matrix(1.00, 0.00, -0.00, -1.00, 439.8, 629.5)">A</text><text xml:space="preserve" font-family="Helvetica-Light,Helvetica" font-size="50.0" fill="#000000" transform="matrix(1.00, 0.00, -0.00, -1.00, 473.1, 629.5)">s</text><text xml:space="preserve" font-family="Helvetica-Light,Helvetica" font-size="50.0" fill="#000000" transform="matrix(1.00, 0.00, -0.00, -1.00, 498.1, 629.5)"> </text><text xml:space="preserve" font-family="Helvetica-Light,Helvetica" font-size="50.0" fill="#000000" transform="matrix(1.00, 0.00, -0.00, -1.00, 512.0, 629.5)">a</text><text xml:space="preserve" font-family="Helvetica-Light,Helvetica" font-size="50.0" fill="#000000" transform="matrix(1.00, 0.00, -0.00, -1.00, 539.8, 629.5)"> </text><text xml:space="preserve" font-family="Helvetica-Light,Helvetica" font-size="50.0" fill="#000000" transform="matrix(1.00, 0.00, -0.00, -1.00, 553.7, 629.5)">G</text><text xml:space="preserve" font-family="Helvetica-Light,Helvetica" font-size="50.0" fill="#000000" transform="matrix(1.00, 0.00, -0.00, -1.00, 592.6, 629.5)">r</text><text xml:space="preserve" font-family="Helvetica-Light,Helvetica" font-size="50.0" fill="#000000" transform="matrix(1.00, 0.00, -0.00, -1.00, 609.2, 629.5)">a</text><text xml:space="preserve" font-family="Helvetica-Light,Helvetica" font-size="50.0" fill="#000000" transform="matrix(1.00, 0.00, -0.00, -1.00, 637.0, 629.5)">p</text><text xml:space="preserve" font-family="Helvetica-Light,Helvetica" font-size="50.0" fill="#000000" transform="matrix(1.00, 0.00, -0.00, -1.00, 667.6, 629.5)">h</text><text xml:space="preserve" font-family="Helvetica-Light,Helvetica" font-size="12.0" fill="#000000" transform="matrix(1.00, 0.00, -0.00, -1.00, 928.8, 34.3)">1</text><text xml:space="preserve" font-family="Helvetica-Light,Helvetica" font-size="12.0" fill="#000000" transform="matrix(1.00, 0.00, -0.00, -1.00, 935.5, 34.3)">6</text><g><clipPath id="clip0x608000eb8600"><path d="M 151.0 246.1 L 507.4 246.1 L 507.4 289.1 L 151.0 289.1 Z M 151.0 246.1 "></path></clipPath><g clip-path="url(#clip0x608000eb8600)"><path d="M -0.0 0.1 L 352.0 0.1 L 352.0 39.1 L -0.0 39.1 Z M 0.0 0.0 " fill="none" stroke="#85878C" stroke-width="2.00" transform="matrix(1.00, 0.00, 0.00, -1.00, 153.0, 287.1)"></path></g></g><g><clipPath id="clip0x608000eb8840"><path d="M 152.0 247.1 L 506.4 247.1 L 506.4 288.1 L 152.0 288.1 Z M 152.0 247.1 "></path></clipPath><g clip-path="url(#clip0x608000eb8840)"><text xml:space="preserve" font-family="Helvetica-Light,Helvetica" font-size="24.0" fill="#000000" transform="matrix(1.00, 0.00, -0.00, -1.00, 158.5, 258.6)">2</text><text xml:space="preserve" font-family="Helvetica-Light,Helvetica" font-size="24.0" fill="#000000" transform="matrix(1.00, 0.00, -0.00, -1.00, 171.9, 258.6)">0</text><text xml:space="preserve" font-family="Helvetica-Light,Helvetica" font-size="24.0" fill="#000000" transform="matrix(1.00, 0.00, -0.00, -1.00, 185.2, 258.6)">0</text><text xml:space="preserve" font-family="Helvetica-Light,Helvetica" font-size="24.0" fill="#000000" transform="matrix(1.00, 0.00, -0.00, -1.00, 198.5, 258.6)">1</text><text xml:space="preserve" font-family="Helvetica-Light,Helvetica" font-size="24.0" fill="#000000" transform="matrix(1.00, 0.00, -0.00, -1.00, 211.9, 258.6)">:</text><text xml:space="preserve" font-family="Helvetica-Light,Helvetica" font-size="24.0" fill="#000000" transform="matrix(1.00, 0.00, -0.00, -1.00, 218.6, 258.6)">_</text><text xml:space="preserve" font-family="Helvetica-Light,Helvetica" font-size="24.0" fill="#000000" transform="matrix(1.00, 0.00, -0.00, -1.00, 230.6, 258.6)">A</text><text xml:space="preserve" font-family="Helvetica-Light,Helvetica" font-size="24.0" fill="#000000" transform="matrix(1.00, 0.00, -0.00, -1.00, 246.6, 258.6)">_</text><text xml:space="preserve" font-family="Helvetica-Light,Helvetica" font-size="24.0" fill="#000000" transform="matrix(1.00, 0.00, -0.00, -1.00, 258.6, 258.6)">S</text><text xml:space="preserve" font-family="Helvetica-Light,Helvetica" font-size="24.0" fill="#000000" transform="matrix(1.00, 0.00, -0.00, -1.00, 273.2, 258.6)">p</text><text xml:space="preserve" font-family="Helvetica-Light,Helvetica" font-size="24.0" fill="#000000" transform="matrix(1.00, 0.00, -0.00, -1.00, 287.9, 258.6)">a</text><text xml:space="preserve" font-family="Helvetica-Light,Helvetica" font-size="24.0" fill="#000000" transform="matrix(1.00, 0.00, -0.00, -1.00, 301.2, 258.6)">c</text><text xml:space="preserve" font-family="Helvetica-Light,Helvetica" font-size="24.0" fill="#000000" transform="matrix(1.00, 0.00, -0.00, -1.00, 314.6, 258.6)">e</text><text xml:space="preserve" font-family="Helvetica-Light,Helvetica" font-size="24.0" fill="#000000" transform="matrix(1.00, 0.00, -0.00, -1.00, 327.9, 258.6)">_</text><text xml:space="preserve" font-family="Helvetica-Light,Helvetica" font-size="24.0" fill="#000000" transform="matrix(1.00, 0.00, -0.00, -1.00, 339.9, 258.6)">O</text><text xml:space="preserve" font-family="Helvetica-Light,Helvetica" font-size="24.0" fill="#000000" transform="matrix(1.00, 0.00, -0.00, -1.00, 358.6, 258.6)">d</text><text xml:space="preserve" font-family="Helvetica-Light,Helvetica" font-size="24.0" fill="#000000" transform="matrix(1.00, 0.00, -0.00, -1.00, 373.3, 258.6)">y</text><text xml:space="preserve" font-family="Helvetica-Light,Helvetica" font-size="24.0" fill="#000000" transform="matrix(1.00, 0.00, -0.00, -1.00, 385.3, 258.6)">s</text><text xml:space="preserve" font-family="Helvetica-Light,Helvetica" font-size="24.0" fill="#000000" transform="matrix(1.00, 0.00, -0.00, -1.00, 397.3, 258.6)">s</text><text xml:space="preserve" font-family="Helvetica-Light,Helvetica" font-size="24.0" fill="#000000" transform="matrix(1.00, 0.00, -0.00, -1.00, 409.3, 258.6)">e</text><text xml:space="preserve" font-family="Helvetica-Light,Helvetica" font-size="24.0" fill="#000000" transform="matrix(1.00, 0.00, -0.00, -1.00, 422.6, 258.6)">y</text><text xml:space="preserve" font-family="Helvetica-Light,Helvetica" font-size="24.0" fill="#000000" transform="matrix(1.00, 0.00, -0.00, -1.00, 434.6, 258.6)">_</text><text xml:space="preserve" font-family="Helvetica-Light,Helvetica" font-size="24.0" fill="#000000" transform="matrix(1.00, 0.00, -0.00, -1.00, 446.6, 258.6)">(</text><text xml:space="preserve" font-family="Helvetica-Light,Helvetica" font-size="24.0" fill="#000000" transform="matrix(1.00, 0.00, -0.00, -1.00, 454.6, 258.6)">ﬁ</text><text xml:space="preserve" font-family="Helvetica-Light,Helvetica" font-size="24.0" fill="#000000" transform="matrix(1.00, 0.00, -0.00, -1.00, 466.6, 258.6)">l</text><text xml:space="preserve" font-family="Helvetica-Light,Helvetica" font-size="24.0" fill="#000000" transform="matrix(1.00, 0.00, -0.00, -1.00, 471.9, 258.6)">m</text><text xml:space="preserve" font-family="Helvetica-Light,Helvetica" font-size="24.0" fill="#000000" transform="matrix(1.00, 0.00, -0.00, -1.00, 491.9, 258.6)">)</text></g></g><g><clipPath id="clip0x608000eb9440"><path d="M 439.0 288.2 L 508.6 288.2 L 508.6 320.7 L 439.0 320.7 Z M 439.0 288.2 "></path></clipPath><g clip-path="url(#clip0x608000eb9440)"><text xml:space="preserve" font-family="Helvetica-Light,Helvetica" font-size="19.0" fill="#000000" transform="matrix(1.00, 0.00, -0.00, -1.00, 444.2, 297.3)">:</text><text xml:space="preserve" font-family="Helvetica-Bold,Helvetica" font-weight="bold" font-size="19.0" fill="#000000" transform="matrix(1.00, 0.00, -0.00, -1.00, 449.5, 297.3)">M</text><text xml:space="preserve" font-family="Helvetica-Bold,Helvetica" font-weight="bold" font-size="19.0" fill="#000000" transform="matrix(1.00, 0.00, -0.00, -1.00, 465.3, 297.3)">o</text><text xml:space="preserve" font-family="Helvetica-Bold,Helvetica" font-weight="bold" font-size="19.0" fill="#000000" transform="matrix(1.00, 0.00, -0.00, -1.00, 477.0, 297.3)">v</text><text xml:space="preserve" font-family="Helvetica-Bold,Helvetica" font-weight="bold" font-size="19.0" fill="#000000" transform="matrix(1.00, 0.00, -0.00, -1.00, 487.5, 297.3)">i</text><text xml:space="preserve" font-family="Helvetica-Bold,Helvetica" font-weight="bold" font-size="19.0" fill="#000000" transform="matrix(1.00, 0.00, -0.00, -1.00, 492.8, 297.3)">e</text></g></g><g><clipPath id="clip0x608000eb9860"><path d="M 615.5 213.2 L 969.9 213.2 L 969.9 317.2 L 615.5 317.2 Z M 615.5 213.2 "></path></clipPath><g clip-path="url(#clip0x608000eb9860)"><path d="M 299.1 14.6 C 367.5 34.2 367.5 65.8 299.1 85.4 C 230.7 104.9 119.7 104.9 51.3 85.4 C -17.1 65.8 -17.1 34.2 51.3 14.6 C 119.7 -4.9 230.7 -4.9 299.1 14.6 Z M 299.1 14.6 " fill="none" stroke="#85878C" stroke-width="2.00" transform="matrix(1.00, 0.00, 0.00, -1.00, 617.5, 315.2)"></path></g></g><g><clipPath id="clip0x608000eb9aa0"><path d="M 617.5 215.2 L 967.9 215.2 L 967.9 315.2 L 617.5 315.2 Z M 617.5 215.2 "></path></clipPath><g clip-path="url(#clip0x608000eb9aa0)"><text xml:space="preserve" font-family="Helvetica-Light,Helvetica" font-size="24.0" fill="#00872A" transform="matrix(1.00, 0.00, -0.00, -1.00, 653.3, 256.2)">“</text><text xml:space="preserve" font-family="Helvetica-Light,Helvetica" font-size="24.0" fill="#00872A" transform="matrix(1.00, 0.00, -0.00, -1.00, 662.7, 256.2)">2</text><text xml:space="preserve" font-family="Helvetica-Light,Helvetica" font-size="24.0" fill="#00872A" transform="matrix(1.00, 0.00, -0.00, -1.00, 676.0, 256.2)">0</text><text xml:space="preserve" font-family="Helvetica-Light,Helvetica" font-size="24.0" fill="#00872A" transform="matrix(1.00, 0.00, -0.00, -1.00, 689.3, 256.2)">0</text><text xml:space="preserve" font-family="Helvetica-Light,Helvetica" font-size="24.0" fill="#00872A" transform="matrix(1.00, 0.00, -0.00, -1.00, 702.7, 256.2)">1</text><text xml:space="preserve" font-family="Helvetica-Light,Helvetica" font-size="24.0" fill="#00872A" transform="matrix(1.00, 0.00, -0.00, -1.00, 716.0, 256.2)">:</text><text xml:space="preserve" font-family="Helvetica-Light,Helvetica" font-size="24.0" fill="#00872A" transform="matrix(1.00, 0.00, -0.00, -1.00, 722.7, 256.2)"> </text><text xml:space="preserve" font-family="Helvetica-Light,Helvetica" font-size="24.0" fill="#00872A" transform="matrix(1.00, 0.00, -0.00, -1.00, 729.4, 256.2)">A</text><text xml:space="preserve" font-family="Helvetica-Light,Helvetica" font-size="24.0" fill="#00872A" transform="matrix(1.00, 0.00, -0.00, -1.00, 745.4, 256.2)"> </text><text xml:space="preserve" font-family="Helvetica-Light,Helvetica" font-size="24.0" fill="#00872A" transform="matrix(1.00, 0.00, -0.00, -1.00, 752.1, 256.2)">S</text><text xml:space="preserve" font-family="Helvetica-Light,Helvetica" font-size="24.0" fill="#00872A" transform="matrix(1.00, 0.00, -0.00, -1.00, 766.7, 256.2)">p</text><text xml:space="preserve" font-family="Helvetica-Light,Helvetica" font-size="24.0" fill="#00872A" transform="matrix(1.00, 0.00, -0.00, -1.00, 781.4, 256.2)">a</text><text xml:space="preserve" font-family="Helvetica-Light,Helvetica" font-size="24.0" fill="#00872A" transform="matrix(1.00, 0.00, -0.00, -1.00, 794.7, 256.2)">c</text><text xml:space="preserve" font-family="Helvetica-Light,Helvetica" font-size="24.0" fill="#00872A" transform="matrix(1.00, 0.00, -0.00, -1.00, 808.1, 256.2)">e</text><text xml:space="preserve" font-family="Helvetica-Light,Helvetica" font-size="24.0" fill="#00872A" transform="matrix(1.00, 0.00, -0.00, -1.00, 821.4, 256.2)"> </text><text xml:space="preserve" font-family="Helvetica-Light,Helvetica" font-size="24.0" fill="#00872A" transform="matrix(1.00, 0.00, -0.00, -1.00, 828.1, 256.2)">O</text><text xml:space="preserve" font-family="Helvetica-Light,Helvetica" font-size="24.0" fill="#00872A" transform="matrix(1.00, 0.00, -0.00, -1.00, 846.8, 256.2)">d</text><text xml:space="preserve" font-family="Helvetica-Light,Helvetica" font-size="24.0" fill="#00872A" transform="matrix(1.00, 0.00, -0.00, -1.00, 861.4, 256.2)">y</text><text xml:space="preserve" font-family="Helvetica-Light,Helvetica" font-size="24.0" fill="#00872A" transform="matrix(1.00, 0.00, -0.00, -1.00, 873.4, 256.2)">s</text><text xml:space="preserve" font-family="Helvetica-Light,Helvetica" font-size="24.0" fill="#00872A" transform="matrix(1.00, 0.00, -0.00, -1.00, 885.4, 256.2)">s</text><text xml:space="preserve" font-family="Helvetica-Light,Helvetica" font-size="24.0" fill="#00872A" transform="matrix(1.00, 0.00, -0.00, -1.00, 897.4, 256.2)">e</text><text xml:space="preserve" font-family="Helvetica-Light,Helvetica" font-size="24.0" fill="#00872A" transform="matrix(1.00, 0.00, -0.00, -1.00, 910.8, 256.2)">y</text><text xml:space="preserve" font-family="Helvetica-Light,Helvetica" font-size="24.0" fill="#00872A" transform="matrix(1.00, 0.00, -0.00, -1.00, 922.8, 256.2)">”</text></g></g><g><clipPath id="clip0x608000eba520"><path d="M 510.5 268.0 L 611.4 268.0 L 611.4 256.4 L 510.5 256.4 Z M 510.5 268.0 "></path></clipPath><g clip-path="url(#clip0x608000eba520)"><path d="M 0.5 0.2 L 89.3 0.2 L 90.5 0.2 " fill="none" stroke="#000000" stroke-width="2.00" transform="matrix(1.00, 0.00, 0.00, -1.00, 511.5, 262.2)"></path><path d="M 601.0 257.2 L 610.6 262.0 L 601.0 266.8 Z M 601.0 257.2 " fill="#000000"></path></g></g><g><clipPath id="clip0x608000eba820"><path d="M 536.0 266.2 L 586.0 266.2 L 586.0 301.8 L 536.0 301.8 Z M 536.0 266.2 "></path></clipPath><g clip-path="url(#clip0x608000eba820)"><text xml:space="preserve" font-family="Helvetica-Light,Helvetica" font-size="21.0" fill="#000000" transform="matrix(1.00, 0.00, -0.00, -1.00, 541.7, 276.3)">:</text><text xml:space="preserve" font-family="Helvetica-Light,Helvetica" font-size="21.0" fill="#000000" transform="matrix(1.00, 0.00, -0.00, -1.00, 547.5, 276.3)">t</text><text xml:space="preserve" font-family="Helvetica-Light,Helvetica" font-size="21.0" fill="#000000" transform="matrix(1.00, 0.00, -0.00, -1.00, 553.4, 276.3)">i</text><text xml:space="preserve" font-family="Helvetica-Light,Helvetica" font-size="21.0" fill="#000000" transform="matrix(1.00, 0.00, -0.00, -1.00, 558.0, 276.3)">t</text><text xml:space="preserve" font-family="Helvetica-Light,Helvetica" font-size="21.0" fill="#000000" transform="matrix(1.00, 0.00, -0.00, -1.00, 563.9, 276.3)">l</text><text xml:space="preserve" font-family="Helvetica-Light,Helvetica" font-size="21.0" fill="#000000" transform="matrix(1.00, 0.00, -0.00, -1.00, 568.5, 276.3)">e</text></g></g><g><clipPath id="clip0x608000ebac40"><path d="M 250.0 138.3 L 438.4 138.3 L 438.4 181.3 L 250.0 181.3 Z M 250.0 138.3 "></path></clipPath><g clip-path="url(#clip0x608000ebac40)"><path d="M -0.0 0.3 L 184.0 0.3 L 184.0 39.3 L -0.0 39.3 Z M 0.0 0.0 " fill="none" stroke="#85878C" stroke-width="2.00" transform="matrix(1.00, 0.00, 0.00, -1.00, 252.0, 179.3)"></path></g></g><g><clipPath id="clip0x608000ebae80"><path d="M 251.0 139.3 L 437.4 139.3 L 437.4 180.3 L 251.0 180.3 Z M 251.0 139.3 "></path></clipPath><g clip-path="url(#clip0x608000ebae80)"><text xml:space="preserve" font-family="Helvetica-Light,Helvetica" font-size="24.0" fill="#000000" transform="matrix(1.00, 0.00, -0.00, -1.00, 257.5, 150.8)">S</text><text xml:space="preserve" font-family="Helvetica-Light,Helvetica" font-size="24.0" fill="#000000" transform="matrix(1.00, 0.00, -0.00, -1.00, 272.2, 150.8)">t</text><text xml:space="preserve" font-family="Helvetica-Light,Helvetica" font-size="24.0" fill="#000000" transform="matrix(1.00, 0.00, -0.00, -1.00, 278.9, 150.8)">a</text><text xml:space="preserve" font-family="Helvetica-Light,Helvetica" font-size="24.0" fill="#000000" transform="matrix(1.00, 0.00, -0.00, -1.00, 292.2, 150.8)">n</text><text xml:space="preserve" font-family="Helvetica-Light,Helvetica" font-size="24.0" fill="#000000" transform="matrix(1.00, 0.00, -0.00, -1.00, 305.5, 150.8)">l</text><text xml:space="preserve" font-family="Helvetica-Light,Helvetica" font-size="24.0" fill="#000000" transform="matrix(1.00, 0.00, -0.00, -1.00, 310.9, 150.8)">e</text><text xml:space="preserve" font-family="Helvetica-Light,Helvetica" font-size="24.0" fill="#000000" transform="matrix(1.00, 0.00, -0.00, -1.00, 324.2, 150.8)">y</text><text xml:space="preserve" font-family="Helvetica-Light,Helvetica" font-size="24.0" fill="#000000" transform="matrix(1.00, 0.00, -0.00, -1.00, 336.2, 150.8)">_</text><text xml:space="preserve" font-family="Helvetica-Light,Helvetica" font-size="24.0" fill="#000000" transform="matrix(1.00, 0.00, -0.00, -1.00, 348.2, 150.8)">K</text><text xml:space="preserve" font-family="Helvetica-Light,Helvetica" font-size="24.0" fill="#000000" transform="matrix(1.00, 0.00, -0.00, -1.00, 364.2, 150.8)">u</text><text xml:space="preserve" font-family="Helvetica-Light,Helvetica" font-size="24.0" fill="#000000" transform="matrix(1.00, 0.00, -0.00, -1.00, 377.6, 150.8)">b</text><text xml:space="preserve" font-family="Helvetica-Light,Helvetica" font-size="24.0" fill="#000000" transform="matrix(1.00, 0.00, -0.00, -1.00, 392.2, 150.8)">r</text><text xml:space="preserve" font-family="Helvetica-Light,Helvetica" font-size="24.0" fill="#000000" transform="matrix(1.00, 0.00, -0.00, -1.00, 400.2, 150.8)">i</text><text xml:space="preserve" font-family="Helvetica-Light,Helvetica" font-size="24.0" fill="#000000" transform="matrix(1.00, 0.00, -0.00, -1.00, 405.6, 150.8)">c</text><text xml:space="preserve" font-family="Helvetica-Light,Helvetica" font-size="24.0" fill="#000000" transform="matrix(1.00, 0.00, -0.00, -1.00, 418.9, 150.8)">k</text></g></g><g><clipPath id="clip0x608000ebb600"><path d="M 358.7 178.6 L 438.9 178.6 L 438.9 211.1 L 358.7 211.1 Z M 358.7 178.6 "></path></clipPath><g clip-path="url(#clip0x608000ebb600)"><text xml:space="preserve" font-family="Helvetica-Light,Helvetica" font-size="19.0" fill="#000000" transform="matrix(1.00, 0.00, -0.00, -1.00, 363.9, 187.7)">:</text><text xml:space="preserve" font-family="Helvetica-Bold,Helvetica" font-weight="bold" font-size="19.0" fill="#000000" transform="matrix(1.00, 0.00, -0.00, -1.00, 369.2, 187.7)">P</text><text xml:space="preserve" font-family="Helvetica-Bold,Helvetica" font-weight="bold" font-size="19.0" fill="#000000" transform="matrix(1.00, 0.00, -0.00, -1.00, 381.9, 187.7)">e</text><text xml:space="preserve" font-family="Helvetica-Bold,Helvetica" font-weight="bold" font-size="19.0" fill="#000000" transform="matrix(1.00, 0.00, -0.00, -1.00, 392.5, 187.7)">r</text><text xml:space="preserve" font-family="Helvetica-Bold,Helvetica" font-weight="bold" font-size="19.0" fill="#000000" transform="matrix(1.00, 0.00, -0.00, -1.00, 399.9, 187.7)">s</text><text xml:space="preserve" font-family="Helvetica-Bold,Helvetica" font-weight="bold" font-size="19.0" fill="#000000" transform="matrix(1.00, 0.00, -0.00, -1.00, 410.4, 187.7)">o</text><text xml:space="preserve" font-family="Helvetica-Bold,Helvetica" font-weight="bold" font-size="19.0" fill="#000000" transform="matrix(1.00, 0.00, -0.00, -1.00, 422.0, 187.7)">n</text></g></g><g><clipPath id="clip0x608000ebba80"><path d="M 322.0 190.2 L 322.0 239.8 L 333.6 239.8 L 333.6 190.2 Z M 322.0 190.2 "></path></clipPath><g clip-path="url(#clip0x608000ebba80)"><path d="M -0.2 0.2 L 38.0 0.2 L 38.8 0.2 " fill="none" stroke="#000000" stroke-width="2.00" transform="matrix(0.00, 1.00, 1.00, 0.00, 327.8, 191.2)"></path><path d="M 332.8 229.0 L 328.0 238.6 L 323.2 229.0 Z M 332.8 229.0 " fill="#000000"></path></g></g><g><clipPath id="clip0x608000ebbd80"><path d="M 235.7 197.2 L 325.1 197.2 L 325.1 232.8 L 235.7 232.8 Z M 235.7 197.2 "></path></clipPath><g clip-path="url(#clip0x608000ebbd80)"><text xml:space="preserve" font-family="Helvetica-Light,Helvetica" font-size="21.0" fill="#000000" transform="matrix(1.00, 0.00, -0.00, -1.00, 241.5, 207.3)">:</text><text xml:space="preserve" font-family="Helvetica-Light,Helvetica" font-size="21.0" fill="#000000" transform="matrix(1.00, 0.00, -0.00, -1.00, 247.3, 207.3)">d</text><text xml:space="preserve" font-family="Helvetica-Light,Helvetica" font-size="21.0" fill="#000000" transform="matrix(1.00, 0.00, -0.00, -1.00, 260.2, 207.3)">i</text><text xml:space="preserve" font-family="Helvetica-Light,Helvetica" font-size="21.0" fill="#000000" transform="matrix(1.00, 0.00, -0.00, -1.00, 264.8, 207.3)">r</text><text xml:space="preserve" font-family="Helvetica-Light,Helvetica" font-size="21.0" fill="#000000" transform="matrix(1.00, 0.00, -0.00, -1.00, 271.4, 207.3)">e</text><text xml:space="preserve" font-family="Helvetica-Light,Helvetica" font-size="21.0" fill="#000000" transform="matrix(1.00, 0.00, -0.00, -1.00, 283.1, 207.3)">c</text><text xml:space="preserve" font-family="Helvetica-Light,Helvetica" font-size="21.0" fill="#000000" transform="matrix(1.00, 0.00, -0.00, -1.00, 294.8, 207.3)">t</text><text xml:space="preserve" font-family="Helvetica-Light,Helvetica" font-size="21.0" fill="#000000" transform="matrix(1.00, 0.00, -0.00, -1.00, 300.6, 207.3)">o</text><text xml:space="preserve" font-family="Helvetica-Light,Helvetica" font-size="21.0" fill="#000000" transform="matrix(1.00, 0.00, -0.00, -1.00, 312.3, 207.3)">r</text></g></g><g><clipPath id="clip0x608000ebc2c0"><path d="M 138.4 433.3 L 514.8 433.3 L 514.8 476.3 L 138.4 476.3 Z M 138.4 433.3 "></path></clipPath><g clip-path="url(#clip0x608000ebc2c0)"><path d="M -0.4 0.3 L 372.6 0.3 L 372.6 39.3 L -0.4 39.3 Z M 0.0 0.0 " fill="none" stroke="#85878C" stroke-width="2.00" transform="matrix(1.00, 0.00, 0.00, -1.00, 140.4, 474.3)"></path></g></g><g><clipPath id="clip0x608000ebc500"><path d="M 139.4 434.3 L 513.8 434.3 L 513.8 475.3 L 139.4 475.3 Z M 139.4 434.3 "></path></clipPath><g clip-path="url(#clip0x608000ebc500)"><text xml:space="preserve" font-family="Helvetica-Light,Helvetica" font-size="24.0" fill="#000000" transform="matrix(1.00, 0.00, -0.00, -1.00, 145.9, 445.8)">2</text><text xml:space="preserve" font-family="Helvetica-Light,Helvetica" font-size="24.0" fill="#000000" transform="matrix(1.00, 0.00, -0.00, -1.00, 159.2, 445.8)">0</text><text xml:space="preserve" font-family="Helvetica-Light,Helvetica" font-size="24.0" fill="#000000" transform="matrix(1.00, 0.00, -0.00, -1.00, 172.6, 445.8)">0</text><text xml:space="preserve" font-family="Helvetica-Light,Helvetica" font-size="24.0" fill="#000000" transform="matrix(1.00, 0.00, -0.00, -1.00, 185.9, 445.8)">1</text><text xml:space="preserve" font-family="Helvetica-Light,Helvetica" font-size="24.0" fill="#000000" transform="matrix(1.00, 0.00, -0.00, -1.00, 199.3, 445.8)">:</text><text xml:space="preserve" font-family="Helvetica-Light,Helvetica" font-size="24.0" fill="#000000" transform="matrix(1.00, 0.00, -0.00, -1.00, 205.9, 445.8)">_</text><text xml:space="preserve" font-family="Helvetica-Light,Helvetica" font-size="24.0" fill="#000000" transform="matrix(1.00, 0.00, -0.00, -1.00, 217.9, 445.8)">A</text><text xml:space="preserve" font-family="Helvetica-Light,Helvetica" font-size="24.0" fill="#000000" transform="matrix(1.00, 0.00, -0.00, -1.00, 233.9, 445.8)">_</text><text xml:space="preserve" font-family="Helvetica-Light,Helvetica" font-size="24.0" fill="#000000" transform="matrix(1.00, 0.00, -0.00, -1.00, 245.9, 445.8)">S</text><text xml:space="preserve" font-family="Helvetica-Light,Helvetica" font-size="24.0" fill="#000000" transform="matrix(1.00, 0.00, -0.00, -1.00, 260.6, 445.8)">p</text><text xml:space="preserve" font-family="Helvetica-Light,Helvetica" font-size="24.0" fill="#000000" transform="matrix(1.00, 0.00, -0.00, -1.00, 275.3, 445.8)">a</text><text xml:space="preserve" font-family="Helvetica-Light,Helvetica" font-size="24.0" fill="#000000" transform="matrix(1.00, 0.00, -0.00, -1.00, 288.6, 445.8)">c</text><text xml:space="preserve" font-family="Helvetica-Light,Helvetica" font-size="24.0" fill="#000000" transform="matrix(1.00, 0.00, -0.00, -1.00, 302.0, 445.8)">e</text><text xml:space="preserve" font-family="Helvetica-Light,Helvetica" font-size="24.0" fill="#000000" transform="matrix(1.00, 0.00, -0.00, -1.00, 315.3, 445.8)">_</text><text xml:space="preserve" font-family="Helvetica-Light,Helvetica" font-size="24.0" fill="#000000" transform="matrix(1.00, 0.00, -0.00, -1.00, 327.3, 445.8)">O</text><text xml:space="preserve" font-family="Helvetica-Light,Helvetica" font-size="24.0" fill="#000000" transform="matrix(1.00, 0.00, -0.00, -1.00, 346.0, 445.8)">d</text><text xml:space="preserve" font-family="Helvetica-Light,Helvetica" font-size="24.0" fill="#000000" transform="matrix(1.00, 0.00, -0.00, -1.00, 360.6, 445.8)">y</text><text xml:space="preserve" font-family="Helvetica-Light,Helvetica" font-size="24.0" fill="#000000" transform="matrix(1.00, 0.00, -0.00, -1.00, 372.6, 445.8)">s</text><text xml:space="preserve" font-family="Helvetica-Light,Helvetica" font-size="24.0" fill="#000000" transform="matrix(1.00, 0.00, -0.00, -1.00, 384.6, 445.8)">s</text><text xml:space="preserve" font-family="Helvetica-Light,Helvetica" font-size="24.0" fill="#000000" transform="matrix(1.00, 0.00, -0.00, -1.00, 396.6, 445.8)">e</text><text xml:space="preserve" font-family="Helvetica-Light,Helvetica" font-size="24.0" fill="#000000" transform="matrix(1.00, 0.00, -0.00, -1.00, 410.0, 445.8)">y</text><text xml:space="preserve" font-family="Helvetica-Light,Helvetica" font-size="24.0" fill="#000000" transform="matrix(1.00, 0.00, -0.00, -1.00, 422.0, 445.8)">_</text><text xml:space="preserve" font-family="Helvetica-Light,Helvetica" font-size="24.0" fill="#000000" transform="matrix(1.00, 0.00, -0.00, -1.00, 434.0, 445.8)">(</text><text xml:space="preserve" font-family="Helvetica-Light,Helvetica" font-size="24.0" fill="#000000" transform="matrix(1.00, 0.00, -0.00, -1.00, 442.0, 445.8)">n</text><text xml:space="preserve" font-family="Helvetica-Light,Helvetica" font-size="24.0" fill="#000000" transform="matrix(1.00, 0.00, -0.00, -1.00, 455.3, 445.8)">o</text><text xml:space="preserve" font-family="Helvetica-Light,Helvetica" font-size="24.0" fill="#000000" transform="matrix(1.00, 0.00, -0.00, -1.00, 468.7, 445.8)">v</text><text xml:space="preserve" font-family="Helvetica-Light,Helvetica" font-size="24.0" fill="#000000" transform="matrix(1.00, 0.00, -0.00, -1.00, 480.7, 445.8)">e</text><text xml:space="preserve" font-family="Helvetica-Light,Helvetica" font-size="24.0" fill="#000000" transform="matrix(1.00, 0.00, -0.00, -1.00, 494.0, 445.8)">l</text><text xml:space="preserve" font-family="Helvetica-Light,Helvetica" font-size="24.0" fill="#000000" transform="matrix(1.00, 0.00, -0.00, -1.00, 499.3, 445.8)">)</text></g></g><g><clipPath id="clip0x608000ebd1c0"><path d="M 439.6 475.4 L 502.8 475.4 L 502.8 507.9 L 439.6 507.9 Z M 439.6 475.4 "></path></clipPath><g clip-path="url(#clip0x608000ebd1c0)"><text xml:space="preserve" font-family="Helvetica-Light,Helvetica" font-size="19.0" fill="#000000" transform="matrix(1.00, 0.00, -0.00, -1.00, 444.8, 484.5)">:</text><text xml:space="preserve" font-family="Helvetica-Bold,Helvetica" font-weight="bold" font-size="19.0" fill="#000000" transform="matrix(1.00, 0.00, -0.00, -1.00, 450.1, 484.5)">B</text><text xml:space="preserve" font-family="Helvetica-Bold,Helvetica" font-weight="bold" font-size="19.0" fill="#000000" transform="matrix(1.00, 0.00, -0.00, -1.00, 463.8, 484.5)">o</text><text xml:space="preserve" font-family="Helvetica-Bold,Helvetica" font-weight="bold" font-size="19.0" fill="#000000" transform="matrix(1.00, 0.00, -0.00, -1.00, 475.4, 484.5)">o</text><text xml:space="preserve" font-family="Helvetica-Bold,Helvetica" font-weight="bold" font-size="19.0" fill="#000000" transform="matrix(1.00, 0.00, -0.00, -1.00, 487.0, 484.5)">k</text></g></g><g><clipPath id="clip0x608000ebd580"><path d="M 325.8 292.3 L 325.8 426.7 L 337.4 426.7 L 337.4 292.3 Z M 325.8 292.3 "></path></clipPath><g clip-path="url(#clip0x608000ebd580)"><path d="M -0.3 0.4 L 122.8 0.4 L 123.7 0.4 " fill="none" stroke="#000000" stroke-width="2.00" transform="matrix(0.00, 1.00, 1.00, 0.00, 331.6, 293.3)"></path><path d="M 336.8 416.0 L 332.0 425.6 L 327.2 416.0 Z M 336.8 416.0 " fill="#000000"></path></g></g><g><clipPath id="clip0x608000ebd880"><path d="M 150.7 341.8 L 318.1 341.8 L 318.1 377.3 L 150.7 377.3 Z M 150.7 341.8 "></path></clipPath><g clip-path="url(#clip0x608000ebd880)"><text xml:space="preserve" font-family="Helvetica-Light,Helvetica" font-size="21.0" fill="#000000" transform="matrix(1.00, 0.00, -0.00, -1.00, 156.4, 351.8)">:</text><text xml:space="preserve" font-family="Helvetica-Light,Helvetica" font-size="21.0" fill="#000000" transform="matrix(1.00, 0.00, -0.00, -1.00, 162.2, 351.8)">e</text><text xml:space="preserve" font-family="Helvetica-Light,Helvetica" font-size="21.0" fill="#000000" transform="matrix(1.00, 0.00, -0.00, -1.00, 173.9, 351.8)">x</text><text xml:space="preserve" font-family="Helvetica-Light,Helvetica" font-size="21.0" fill="#000000" transform="matrix(1.00, 0.00, -0.00, -1.00, 184.4, 351.8)">a</text><text xml:space="preserve" font-family="Helvetica-Light,Helvetica" font-size="21.0" fill="#000000" transform="matrix(1.00, 0.00, -0.00, -1.00, 196.1, 351.8)">m</text><text xml:space="preserve" font-family="Helvetica-Light,Helvetica" font-size="21.0" fill="#000000" transform="matrix(1.00, 0.00, -0.00, -1.00, 213.6, 351.8)">p</text><text xml:space="preserve" font-family="Helvetica-Light,Helvetica" font-size="21.0" fill="#000000" transform="matrix(1.00, 0.00, -0.00, -1.00, 226.4, 351.8)">l</text><text xml:space="preserve" font-family="Helvetica-Light,Helvetica" font-size="21.0" fill="#000000" transform="matrix(1.00, 0.00, -0.00, -1.00, 231.1, 351.8)">e</text><text xml:space="preserve" font-family="Helvetica-Light,Helvetica" font-size="21.0" fill="#000000" transform="matrix(1.00, 0.00, -0.00, -1.00, 242.8, 351.8)">O</text><text xml:space="preserve" font-family="Helvetica-Light,Helvetica" font-size="21.0" fill="#000000" transform="matrix(1.00, 0.00, -0.00, -1.00, 259.1, 351.8)">f</text><text xml:space="preserve" font-family="Helvetica-Light,Helvetica" font-size="21.0" fill="#000000" transform="matrix(1.00, 0.00, -0.00, -1.00, 264.9, 351.8)">W</text><text xml:space="preserve" font-family="Helvetica-Light,Helvetica" font-size="21.0" fill="#000000" transform="matrix(1.00, 0.00, -0.00, -1.00, 283.2, 351.8)">o</text><text xml:space="preserve" font-family="Helvetica-Light,Helvetica" font-size="21.0" fill="#000000" transform="matrix(1.00, 0.00, -0.00, -1.00, 294.9, 351.8)">r</text><text xml:space="preserve" font-family="Helvetica-Light,Helvetica" font-size="21.0" fill="#000000" transform="matrix(1.00, 0.00, -0.00, -1.00, 301.9, 351.8)">k</text></g></g><g><clipPath id="clip0x608000ebdfa0"><path d="M 465.1 340.6 L 656.6 340.6 L 656.6 383.6 L 465.1 383.6 Z M 465.1 340.6 "></path></clipPath><g clip-path="url(#clip0x608000ebdfa0)"><path d="M -0.1 -0.4 L 187.9 -0.4 L 187.9 38.6 L -0.1 38.6 Z M 0.0 0.0 " fill="none" stroke="#85878C" stroke-width="2.00" transform="matrix(1.00, 0.00, 0.00, -1.00, 467.1, 381.6)"></path></g></g><g><clipPath id="clip0x608000ebe1e0"><path d="M 466.1 341.6 L 655.6 341.6 L 655.6 382.6 L 466.1 382.6 Z M 466.1 341.6 "></path></clipPath><g clip-path="url(#clip0x608000ebe1e0)"><text xml:space="preserve" font-family="Helvetica-Light,Helvetica" font-size="24.0" fill="#000000" transform="matrix(1.00, 0.00, -0.00, -1.00, 472.6, 353.1)">A</text><text xml:space="preserve" font-family="Helvetica-Light,Helvetica" font-size="24.0" fill="#000000" transform="matrix(1.00, 0.00, -0.00, -1.00, 488.6, 353.1)">r</text><text xml:space="preserve" font-family="Helvetica-Light,Helvetica" font-size="24.0" fill="#000000" transform="matrix(1.00, 0.00, -0.00, -1.00, 497.1, 353.1)">t</text><text xml:space="preserve" font-family="Helvetica-Light,Helvetica" font-size="24.0" fill="#000000" transform="matrix(1.00, 0.00, -0.00, -1.00, 503.7, 353.1)">h</text><text xml:space="preserve" font-family="Helvetica-Light,Helvetica" font-size="24.0" fill="#000000" transform="matrix(1.00, 0.00, -0.00, -1.00, 517.1, 353.1)">u</text><text xml:space="preserve" font-family="Helvetica-Light,Helvetica" font-size="24.0" fill="#000000" transform="matrix(1.00, 0.00, -0.00, -1.00, 530.4, 353.1)">r</text><text xml:space="preserve" font-family="Helvetica-Light,Helvetica" font-size="24.0" fill="#000000" transform="matrix(1.00, 0.00, -0.00, -1.00, 538.4, 353.1)">_</text><text xml:space="preserve" font-family="Helvetica-Light,Helvetica" font-size="24.0" fill="#000000" transform="matrix(1.00, 0.00, -0.00, -1.00, 550.4, 353.1)">C</text><text xml:space="preserve" font-family="Helvetica-Light,Helvetica" font-size="24.0" fill="#000000" transform="matrix(1.00, 0.00, -0.00, -1.00, 567.8, 353.1)">_</text><text xml:space="preserve" font-family="Helvetica-Light,Helvetica" font-size="24.0" fill="#000000" transform="matrix(1.00, 0.00, -0.00, -1.00, 579.8, 353.1)">C</text><text xml:space="preserve" font-family="Helvetica-Light,Helvetica" font-size="24.0" fill="#000000" transform="matrix(1.00, 0.00, -0.00, -1.00, 597.1, 353.1)">l</text><text xml:space="preserve" font-family="Helvetica-Light,Helvetica" font-size="24.0" fill="#000000" transform="matrix(1.00, 0.00, -0.00, -1.00, 602.4, 353.1)">a</text><text xml:space="preserve" font-family="Helvetica-Light,Helvetica" font-size="24.0" fill="#000000" transform="matrix(1.00, 0.00, -0.00, -1.00, 615.8, 353.1)">r</text><text xml:space="preserve" font-family="Helvetica-Light,Helvetica" font-size="24.0" fill="#000000" transform="matrix(1.00, 0.00, -0.00, -1.00, 623.7, 353.1)">k</text><text xml:space="preserve" font-family="Helvetica-Light,Helvetica" font-size="24.0" fill="#000000" transform="matrix(1.00, 0.00, -0.00, -1.00, 635.7, 353.1)">e</text></g></g><g><clipPath id="clip0x608000ebe960"><path d="M 575.3 380.9 L 655.5 380.9 L 655.5 413.4 L 575.3 413.4 Z M 575.3 380.9 "></path></clipPath><g clip-path="url(#clip0x608000ebe960)"><text xml:space="preserve" font-family="Helvetica-Light,Helvetica" font-size="19.0" fill="#000000" transform="matrix(1.00, 0.00, -0.00, -1.00, 580.6, 390.0)">:</text><text xml:space="preserve" font-family="Helvetica-Bold,Helvetica" font-weight="bold" font-size="19.0" fill="#000000" transform="matrix(1.00, 0.00, -0.00, -1.00, 585.9, 390.0)">P</text><text xml:space="preserve" font-family="Helvetica-Bold,Helvetica" font-weight="bold" font-size="19.0" fill="#000000" transform="matrix(1.00, 0.00, -0.00, -1.00, 598.5, 390.0)">e</text><text xml:space="preserve" font-family="Helvetica-Bold,Helvetica" font-weight="bold" font-size="19.0" fill="#000000" transform="matrix(1.00, 0.00, -0.00, -1.00, 609.1, 390.0)">r</text><text xml:space="preserve" font-family="Helvetica-Bold,Helvetica" font-weight="bold" font-size="19.0" fill="#000000" transform="matrix(1.00, 0.00, -0.00, -1.00, 616.5, 390.0)">s</text><text xml:space="preserve" font-family="Helvetica-Bold,Helvetica" font-weight="bold" font-size="19.0" fill="#000000" transform="matrix(1.00, 0.00, -0.00, -1.00, 627.1, 390.0)">o</text><text xml:space="preserve" font-family="Helvetica-Bold,Helvetica" font-weight="bold" font-size="19.0" fill="#000000" transform="matrix(1.00, 0.00, -0.00, -1.00, 638.7, 390.0)">n</text></g></g><g><clipPath id="clip0x608000ebede0"><path d="M 485.6 381.4 L 397.4 414.2 L 401.4 425.1 L 489.7 392.3 Z M 485.6 381.4 "></path></clipPath><g clip-path="url(#clip0x608000ebede0)"><path d="M 0.0 0.0 L 82.5 0.0 L 83.5 0.0 " fill="none" stroke="#000000" stroke-width="2.00" transform="matrix(-0.94, 0.35, 0.35, 0.94, 486.7, 387.2)"></path><path d="M 411.0 420.4 L 400.4 419.3 L 407.7 411.4 Z M 411.0 420.4 " fill="#000000"></path></g></g><g><clipPath id="clip0x608000ebf0e0"><path d="M 496.0 339.0 L 395.6 295.5 L 391.0 306.2 L 491.4 349.7 Z M 496.0 339.0 "></path></clipPath><g clip-path="url(#clip0x608000ebf0e0)"><path d="M 0.0 0.0 L 97.8 0.0 L 98.8 0.0 " fill="none" stroke="#000000" stroke-width="2.00" transform="matrix(-0.92, -0.40, -0.40, 0.92, 492.8, 344.0)"></path><path d="M 401.1 309.5 L 394.2 301.3 L 404.9 300.7 Z M 401.1 309.5 " fill="#000000"></path></g></g><g><clipPath id="clip0x608000ebf3e0"><path d="M 363.3 378.6 L 440.2 378.6 L 440.2 414.1 L 363.3 414.1 Z M 363.3 378.6 "></path></clipPath><g clip-path="url(#clip0x608000ebf3e0)"><text xml:space="preserve" font-family="Helvetica-Light,Helvetica" font-size="21.0" fill="#000000" transform="matrix(1.00, 0.00, -0.00, -1.00, 369.1, 388.6)">:</text><text xml:space="preserve" font-family="Helvetica-Light,Helvetica" font-size="21.0" fill="#000000" transform="matrix(1.00, 0.00, -0.00, -1.00, 374.9, 388.6)">a</text><text xml:space="preserve" font-family="Helvetica-Light,Helvetica" font-size="21.0" fill="#000000" transform="matrix(1.00, 0.00, -0.00, -1.00, 386.6, 388.6)">u</text><text xml:space="preserve" font-family="Helvetica-Light,Helvetica" font-size="21.0" fill="#000000" transform="matrix(1.00, 0.00, -0.00, -1.00, 398.3, 388.6)">t</text><text xml:space="preserve" font-family="Helvetica-Light,Helvetica" font-size="21.0" fill="#000000" transform="matrix(1.00, 0.00, -0.00, -1.00, 404.1, 388.6)">h</text><text xml:space="preserve" font-family="Helvetica-Light,Helvetica" font-size="21.0" fill="#000000" transform="matrix(1.00, 0.00, -0.00, -1.00, 415.8, 388.6)">o</text><text xml:space="preserve" font-family="Helvetica-Light,Helvetica" font-size="21.0" fill="#000000" transform="matrix(1.00, 0.00, -0.00, -1.00, 427.5, 388.6)">r</text></g></g><g><clipPath id="clip0x608000ebf860"><path d="M 368.2 323.1 L 436.8 323.1 L 436.8 358.6 L 368.2 358.6 Z M 368.2 323.1 "></path></clipPath><g clip-path="url(#clip0x608000ebf860)"><text xml:space="preserve" font-family="Helvetica-Light,Helvetica" font-size="21.0" fill="#000000" transform="matrix(1.00, 0.00, -0.00, -1.00, 373.9, 333.1)">:</text><text xml:space="preserve" font-family="Helvetica-Light,Helvetica" font-size="21.0" fill="#000000" transform="matrix(1.00, 0.00, -0.00, -1.00, 379.8, 333.1)">w</text><text xml:space="preserve" font-family="Helvetica-Light,Helvetica" font-size="21.0" fill="#000000" transform="matrix(1.00, 0.00, -0.00, -1.00, 394.9, 333.1)">r</text><text xml:space="preserve" font-family="Helvetica-Light,Helvetica" font-size="21.0" fill="#000000" transform="matrix(1.00, 0.00, -0.00, -1.00, 401.9, 333.1)">i</text><text xml:space="preserve" font-family="Helvetica-Light,Helvetica" font-size="21.0" fill="#000000" transform="matrix(1.00, 0.00, -0.00, -1.00, 406.6, 333.1)">t</text><text xml:space="preserve" font-family="Helvetica-Light,Helvetica" font-size="21.0" fill="#000000" transform="matrix(1.00, 0.00, -0.00, -1.00, 412.4, 333.1)">e</text><text xml:space="preserve" font-family="Helvetica-Light,Helvetica" font-size="21.0" fill="#000000" transform="matrix(1.00, 0.00, -0.00, -1.00, 424.1, 333.1)">r</text></g></g></g></svg>