<?xml version="1.0" encoding="UTF-8" standalone="no"?><svg xmlns="http://www.w3.org/2000/svg" xmlns:xlink="http://www.w3.org/1999/xlink" clip-rule="evenodd" stroke-miterlimit="10" viewBox="0 0 309 22"><desc>SVG generated by Keynote</desc><defs></defs><g transform="matrix(1.00, 0.00, -0.00, -1.00, 0.0, 22.0)"><text xml:space="preserve" font-family="GillSans,Gill Sans" font-size="17.0" fill="#FEFFFF" transform="matrix(1.00, 0.00, -0.00, -1.00, 1.6, 5.4)">*</text><text xml:space="preserve" font-family="GillSans,Gill Sans" font-size="17.0" fill="#FEFFFF" transform="matrix(1.00, 0.00, -0.00, -1.00, 8.7, 5.4)"> </text><text xml:space="preserve" font-family="GillSans,Gill Sans" font-size="17.0" fill="#FEFFFF" transform="matrix(1.00, 0.00, -0.00, -1.00, 13.4, 5.4)">b</text><text xml:space="preserve" font-family="GillSans,Gill Sans" font-size="17.0" fill="#FEFFFF" transform="matrix(1.00, 0.00, -0.00, -1.00, 21.9, 5.4)">o</text><text xml:space="preserve" font-family="GillSans,Gill Sans" font-size="17.0" fill="#FEFFFF" transform="matrix(1.00, 0.00, -0.00, -1.00, 31.3, 5.4)">o</text><text xml:space="preserve" font-family="GillSans,Gill Sans" font-size="17.0" fill="#FEFFFF" transform="matrix(1.00, 0.00, -0.00, -1.00, 40.6, 5.4)">k</text><text xml:space="preserve" font-family="GillSans,Gill Sans" font-size="17.0" fill="#FEFFFF" transform="matrix(1.00, 0.00, -0.00, -1.00, 48.8, 5.4)">m</text><text xml:space="preserve" font-family="GillSans,Gill Sans" font-size="17.0" fill="#FEFFFF" transform="matrix(1.00, 0.00, -0.00, -1.00, 61.9, 5.4)">a</text><text xml:space="preserve" font-family="GillSans,Gill Sans" font-size="17.0" fill="#FEFFFF" transform="matrix(1.00, 0.00, -0.00, -1.00, 69.2, 5.4)">r</text><text xml:space="preserve" font-family="GillSans,Gill Sans" font-size="17.0" fill="#FEFFFF" transform="matrix(1.00, 0.00, -0.00, -1.00, 75.9, 5.4)">k</text><text xml:space="preserve" font-family="GillSans,Gill Sans" font-size="17.0" fill="#FEFFFF" transform="matrix(1.00, 0.00, -0.00, -1.00, 84.0, 5.4)">l</text><text xml:space="preserve" font-family="GillSans,Gill Sans" font-size="17.0" fill="#FEFFFF" transform="matrix(1.00, 0.00, -0.00, -1.00, 87.8, 5.4)">e</text><text xml:space="preserve" font-family="GillSans,Gill Sans" font-size="17.0" fill="#FEFFFF" transform="matrix(1.00, 0.00, -0.00, -1.00, 95.9, 5.4)">t</text><text xml:space="preserve" font-family="GillSans,Gill Sans" font-size="17.0" fill="#FEFFFF" transform="matrix(1.00, 0.00, -0.00, -1.00, 101.6, 5.4)"> </text><text xml:space="preserve" font-family="GillSans,Gill Sans" font-size="17.0" fill="#FEFFFF" transform="matrix(1.00, 0.00, -0.00, -1.00, 106.3, 5.4)">c</text><text xml:space="preserve" font-family="GillSans,Gill Sans" font-size="17.0" fill="#FEFFFF" transform="matrix(1.00, 0.00, -0.00, -1.00, 113.7, 5.4)">o</text><text xml:space="preserve" font-family="GillSans,Gill Sans" font-size="17.0" fill="#FEFFFF" transform="matrix(1.00, 0.00, -0.00, -1.00, 123.1, 5.4)">u</text><text xml:space="preserve" font-family="GillSans,Gill Sans" font-size="17.0" fill="#FEFFFF" transform="matrix(1.00, 0.00, -0.00, -1.00, 131.6, 5.4)">r</text><text xml:space="preserve" font-family="GillSans,Gill Sans" font-size="17.0" fill="#FEFFFF" transform="matrix(1.00, 0.00, -0.00, -1.00, 138.7, 5.4)">t</text><text xml:space="preserve" font-family="GillSans,Gill Sans" font-size="17.0" fill="#FEFFFF" transform="matrix(1.00, 0.00, -0.00, -1.00, 144.3, 5.4)">e</text><text xml:space="preserve" font-family="GillSans,Gill Sans" font-size="17.0" fill="#FEFFFF" transform="matrix(1.00, 0.00, -0.00, -1.00, 152.5, 5.4)">s</text><text xml:space="preserve" font-family="GillSans,Gill Sans" font-size="17.0" fill="#FEFFFF" transform="matrix(1.00, 0.00, -0.00, -1.00, 159.0, 5.4)">y</text><text xml:space="preserve" font-family="GillSans,Gill Sans" font-size="17.0" fill="#FEFFFF" transform="matrix(1.00, 0.00, -0.00, -1.00, 166.5, 5.4)"> </text><text xml:space="preserve" font-family="GillSans,Gill Sans" font-size="17.0" fill="#FEFFFF" transform="matrix(1.00, 0.00, -0.00, -1.00, 171.2, 5.4)">o</text><text xml:space="preserve" font-family="GillSans,Gill Sans" font-size="17.0" fill="#FEFFFF" transform="matrix(1.00, 0.00, -0.00, -1.00, 180.6, 5.4)">f</text><text xml:space="preserve" font-family="GillSans,Gill Sans" font-size="17.0" fill="#FEFFFF" transform="matrix(1.00, 0.00, -0.00, -1.00, 184.8, 5.4)"> </text><text xml:space="preserve" font-family="GillSans,Gill Sans" font-size="17.0" fill="#FEFFFF" transform="matrix(1.00, 0.00, -0.00, -1.00, 189.5, 5.4)">N</text><text xml:space="preserve" font-family="GillSans,Gill Sans" font-size="17.0" fill="#FEFFFF" transform="matrix(1.00, 0.00, -0.00, -1.00, 202.8, 5.4)">i</text><text xml:space="preserve" font-family="GillSans,Gill Sans" font-size="17.0" fill="#FEFFFF" transform="matrix(1.00, 0.00, -0.00, -1.00, 206.5, 5.4)">k</text><text xml:space="preserve" font-family="GillSans,Gill Sans" font-size="17.0" fill="#FEFFFF" transform="matrix(1.00, 0.00, -0.00, -1.00, 214.7, 5.4)">l</text><text xml:space="preserve" font-family="GillSans,Gill Sans" font-size="17.0" fill="#FEFFFF" transform="matrix(1.00, 0.00, -0.00, -1.00, 218.4, 5.4)">a</text><text xml:space="preserve" font-family="GillSans,Gill Sans" font-size="17.0" fill="#FEFFFF" transform="matrix(1.00, 0.00, -0.00, -1.00, 225.7, 5.4)">s</text><text xml:space="preserve" font-family="GillSans,Gill Sans" font-size="17.0" fill="#FEFFFF" transform="matrix(1.00, 0.00, -0.00, -1.00, 232.2, 5.4)"> </text><text xml:space="preserve" font-family="GillSans,Gill Sans" font-size="17.0" fill="#FEFFFF" transform="matrix(1.00, 0.00, -0.00, -1.00, 236.9, 5.4)">L</text><text xml:space="preserve" font-family="GillSans,Gill Sans" font-size="17.0" fill="#FEFFFF" transform="matrix(1.00, 0.00, -0.00, -1.00, 245.3, 5.4)">i</text><text xml:space="preserve" font-family="GillSans,Gill Sans" font-size="17.0" fill="#FEFFFF" transform="matrix(1.00, 0.00, -0.00, -1.00, 249.0, 5.4)">n</text><text xml:space="preserve" font-family="GillSans,Gill Sans" font-size="17.0" fill="#FEFFFF" transform="matrix(1.00, 0.00, -0.00, -1.00, 257.5, 5.4)">d</text><text xml:space="preserve" font-family="GillSans,Gill Sans" font-size="17.0" fill="#FEFFFF" transform="matrix(1.00, 0.00, -0.00, -1.00, 266.1, 5.4)">s</text><text xml:space="preserve" font-family="GillSans,Gill Sans" font-size="17.0" fill="#FEFFFF" transform="matrix(1.00, 0.00, -0.00, -1.00, 272.7, 5.4)">t</text><text xml:space="preserve" font-family="GillSans,Gill Sans" font-size="17.0" fill="#FEFFFF" transform="matrix(1.00, 0.00, -0.00, -1.00, 278.3, 5.4)">r</text><text xml:space="preserve" font-family="GillSans,Gill Sans" font-size="17.0" fill="#FEFFFF" transform="matrix(1.00, 0.00, -0.00, -1.00, 285.1, 5.4)">รถ</text><text xml:space="preserve" font-family="GillSans,Gill Sans" font-size="17.0" fill="#FEFFFF" transform="matrix(1.00, 0.00, -0.00, -1.00, 294.5, 5.4)">m</text><g><clipPath id="clip0x7fcd24515310"><path d="M 12.4 2.7 L 101.6 2.7 L 101.6 5.6 L 12.4 5.6 Z M 12.4 2.7 "></path></clipPath><g clip-path="url(#clip0x7fcd24515310)"><path d="M 56.3 21.4 L 144.5 21.4 " fill="none" stroke="#FEFFFF" stroke-width="0.85" transform="matrix(1.00, 0.00, 0.00, -1.00, -42.9, 25.5)"></path></g></g></g></svg>