<?xml version="1.0" encoding="UTF-8" standalone="no"?><svg xmlns="http://www.w3.org/2000/svg" xmlns:xlink="http://www.w3.org/1999/xlink" clip-rule="evenodd" stroke-miterlimit="10" viewBox="0 0 357 50"><desc>SVG generated by Keynote</desc><defs></defs><g transform="matrix(1.00, 0.00, -0.00, -1.00, 0.0, 50.0)"><text xml:space="preserve" font-family="GillSans,Gill Sans" font-size="21.0" fill="#FEFFFF" transform="matrix(1.00, 0.00, -0.00, -1.00, 0.2, 30.3)">h</text><text xml:space="preserve" font-family="GillSans,Gill Sans" font-size="21.0" fill="#FEFFFF" transform="matrix(1.00, 0.00, -0.00, -1.00, 10.7, 30.3)">t</text><text xml:space="preserve" font-family="GillSans,Gill Sans" font-size="21.0" fill="#FEFFFF" transform="matrix(1.00, 0.00, -0.00, -1.00, 17.7, 30.3)">t</text><text xml:space="preserve" font-family="GillSans,Gill Sans" font-size="21.0" fill="#FEFFFF" transform="matrix(1.00, 0.00, -0.00, -1.00, 24.7, 30.3)">p</text><text xml:space="preserve" font-family="GillSans,Gill Sans" font-size="21.0" fill="#FEFFFF" transform="matrix(1.00, 0.00, -0.00, -1.00, 35.2, 30.3)">:</text><text xml:space="preserve" font-family="GillSans,Gill Sans" font-size="21.0" fill="#FEFFFF" transform="matrix(1.00, 0.00, -0.00, -1.00, 39.8, 30.3)">/</text><text xml:space="preserve" font-family="GillSans,Gill Sans" font-size="21.0" fill="#FEFFFF" transform="matrix(1.00, 0.00, -0.00, -1.00, 45.7, 30.3)">/</text><text xml:space="preserve" font-family="GillSans,Gill Sans" font-size="21.0" fill="#FEFFFF" transform="matrix(1.00, 0.00, -0.00, -1.00, 51.6, 30.3)">l</text><text xml:space="preserve" font-family="GillSans,Gill Sans" font-size="21.0" fill="#FEFFFF" transform="matrix(1.00, 0.00, -0.00, -1.00, 56.2, 30.3)">i</text><text xml:space="preserve" font-family="GillSans,Gill Sans" font-size="21.0" fill="#FEFFFF" transform="matrix(1.00, 0.00, -0.00, -1.00, 60.8, 30.3)">n</text><text xml:space="preserve" font-family="GillSans,Gill Sans" font-size="21.0" fill="#FEFFFF" transform="matrix(1.00, 0.00, -0.00, -1.00, 71.3, 30.3)">t</text><text xml:space="preserve" font-family="GillSans,Gill Sans" font-size="21.0" fill="#FEFFFF" transform="matrix(1.00, 0.00, -0.00, -1.00, 78.3, 30.3)">e</text><text xml:space="preserve" font-family="GillSans,Gill Sans" font-size="21.0" fill="#FEFFFF" transform="matrix(1.00, 0.00, -0.00, -1.00, 88.3, 30.3)">r</text><text xml:space="preserve" font-family="GillSans,Gill Sans" font-size="21.0" fill="#FEFFFF" transform="matrix(1.00, 0.00, -0.00, -1.00, 94.5, 30.3)">.</text><text xml:space="preserve" font-family="GillSans,Gill Sans" font-size="21.0" fill="#FEFFFF" transform="matrix(1.00, 0.00, -0.00, -1.00, 99.1, 30.3)">s</text><text xml:space="preserve" font-family="GillSans,Gill Sans" font-size="21.0" fill="#FEFFFF" transform="matrix(1.00, 0.00, -0.00, -1.00, 107.2, 30.3)">t</text><text xml:space="preserve" font-family="GillSans,Gill Sans" font-size="21.0" fill="#FEFFFF" transform="matrix(1.00, 0.00, -0.00, -1.00, 114.2, 30.3)">r</text><text xml:space="preserve" font-family="GillSans,Gill Sans" font-size="21.0" fill="#FEFFFF" transform="matrix(1.00, 0.00, -0.00, -1.00, 122.5, 30.3)">u</text><text xml:space="preserve" font-family="GillSans,Gill Sans" font-size="21.0" fill="#FEFFFF" transform="matrix(1.00, 0.00, -0.00, -1.00, 133.0, 30.3)">c</text><text xml:space="preserve" font-family="GillSans,Gill Sans" font-size="21.0" fill="#FEFFFF" transform="matrix(1.00, 0.00, -0.00, -1.00, 142.2, 30.3)">t</text><text xml:space="preserve" font-family="GillSans,Gill Sans" font-size="21.0" fill="#FEFFFF" transform="matrix(1.00, 0.00, -0.00, -1.00, 149.2, 30.3)">u</text><text xml:space="preserve" font-family="GillSans,Gill Sans" font-size="21.0" fill="#FEFFFF" transform="matrix(1.00, 0.00, -0.00, -1.00, 159.7, 30.3)">r</text><text xml:space="preserve" font-family="GillSans,Gill Sans" font-size="21.0" fill="#FEFFFF" transform="matrix(1.00, 0.00, -0.00, -1.00, 167.6, 30.3)">e</text><text xml:space="preserve" font-family="GillSans,Gill Sans" font-size="21.0" fill="#FEFFFF" transform="matrix(1.00, 0.00, -0.00, -1.00, 177.7, 30.3)">d</text><text xml:space="preserve" font-family="GillSans,Gill Sans" font-size="21.0" fill="#FEFFFF" transform="matrix(1.00, 0.00, -0.00, -1.00, 188.4, 30.3)">-</text><text xml:space="preserve" font-family="GillSans,Gill Sans" font-size="21.0" fill="#FEFFFF" transform="matrix(1.00, 0.00, -0.00, -1.00, 195.2, 30.3)">d</text><text xml:space="preserve" font-family="GillSans,Gill Sans" font-size="21.0" fill="#FEFFFF" transform="matrix(1.00, 0.00, -0.00, -1.00, 205.9, 30.3)">a</text><text xml:space="preserve" font-family="GillSans,Gill Sans" font-size="21.0" fill="#FEFFFF" transform="matrix(1.00, 0.00, -0.00, -1.00, 214.8, 30.3)">t</text><text xml:space="preserve" font-family="GillSans,Gill Sans" font-size="21.0" fill="#FEFFFF" transform="matrix(1.00, 0.00, -0.00, -1.00, 221.8, 30.3)">a</text><text xml:space="preserve" font-family="GillSans,Gill Sans" font-size="21.0" fill="#FEFFFF" transform="matrix(1.00, 0.00, -0.00, -1.00, 230.8, 30.3)">.</text><text xml:space="preserve" font-family="GillSans,Gill Sans" font-size="21.0" fill="#FEFFFF" transform="matrix(1.00, 0.00, -0.00, -1.00, 235.4, 30.3)">o</text><text xml:space="preserve" font-family="GillSans,Gill Sans" font-size="21.0" fill="#FEFFFF" transform="matrix(1.00, 0.00, -0.00, -1.00, 247.0, 30.3)">r</text><text xml:space="preserve" font-family="GillSans,Gill Sans" font-size="21.0" fill="#FEFFFF" transform="matrix(1.00, 0.00, -0.00, -1.00, 255.3, 30.3)">g</text><text xml:space="preserve" font-family="GillSans,Gill Sans" font-size="21.0" fill="#FEFFFF" transform="matrix(1.00, 0.00, -0.00, -1.00, 264.2, 30.3)">/</text><text xml:space="preserve" font-family="GillSans,Gill Sans" font-size="21.0" fill="#FEFFFF" transform="matrix(1.00, 0.00, -0.00, -1.00, 270.1, 30.3)">e</text><text xml:space="preserve" font-family="GillSans,Gill Sans" font-size="21.0" fill="#FEFFFF" transform="matrix(1.00, 0.00, -0.00, -1.00, 280.2, 30.3)">x</text><text xml:space="preserve" font-family="GillSans,Gill Sans" font-size="21.0" fill="#FEFFFF" transform="matrix(1.00, 0.00, -0.00, -1.00, 290.7, 30.3)">a</text><text xml:space="preserve" font-family="GillSans,Gill Sans" font-size="21.0" fill="#FEFFFF" transform="matrix(1.00, 0.00, -0.00, -1.00, 299.7, 30.3)">m</text><text xml:space="preserve" font-family="GillSans,Gill Sans" font-size="21.0" fill="#FEFFFF" transform="matrix(1.00, 0.00, -0.00, -1.00, 315.8, 30.3)">p</text><text xml:space="preserve" font-family="GillSans,Gill Sans" font-size="21.0" fill="#FEFFFF" transform="matrix(1.00, 0.00, -0.00, -1.00, 326.3, 30.3)">l</text><text xml:space="preserve" font-family="GillSans,Gill Sans" font-size="21.0" fill="#FEFFFF" transform="matrix(1.00, 0.00, -0.00, -1.00, 330.9, 30.3)">e</text><text xml:space="preserve" font-family="GillSans,Gill Sans" font-size="21.0" fill="#FEFFFF" transform="matrix(1.00, 0.00, -0.00, -1.00, 341.0, 30.3)">s</text><text xml:space="preserve" font-family="GillSans,Gill Sans" font-size="21.0" fill="#FEFFFF" transform="matrix(1.00, 0.00, -0.00, -1.00, 349.1, 30.3)">/</text><g><clipPath id="clip0x7fcd244be9e0"><path d="M -0.8 27.2 L 355.0 27.2 L 355.0 30.3 L -0.8 30.3 Z M -0.8 27.2 "></path></clipPath><g clip-path="url(#clip0x7fcd244be9e0)"><path d="M 20.1 24.7 L 374.9 24.7 " fill="none" stroke="#FEFFFF" stroke-width="1.05" transform="matrix(1.00, 0.00, 0.00, -1.00, -19.9, 53.5)"></path></g></g><text xml:space="preserve" font-family="GillSans,Gill Sans" font-size="21.0" fill="#FEFFFF" transform="matrix(1.00, 0.00, -0.00, -1.00, 35.9, 6.3)">s</text><text xml:space="preserve" font-family="GillSans,Gill Sans" font-size="21.0" fill="#FEFFFF" transform="matrix(1.00, 0.00, -0.00, -1.00, 44.0, 6.3)">c</text><text xml:space="preserve" font-family="GillSans,Gill Sans" font-size="21.0" fill="#FEFFFF" transform="matrix(1.00, 0.00, -0.00, -1.00, 53.2, 6.3)">h</text><text xml:space="preserve" font-family="GillSans,Gill Sans" font-size="21.0" fill="#FEFFFF" transform="matrix(1.00, 0.00, -0.00, -1.00, 63.7, 6.3)">e</text><text xml:space="preserve" font-family="GillSans,Gill Sans" font-size="21.0" fill="#FEFFFF" transform="matrix(1.00, 0.00, -0.00, -1.00, 73.8, 6.3)">m</text><text xml:space="preserve" font-family="GillSans,Gill Sans" font-size="21.0" fill="#FEFFFF" transform="matrix(1.00, 0.00, -0.00, -1.00, 90.0, 6.3)">a</text><text xml:space="preserve" font-family="GillSans,Gill Sans" font-size="21.0" fill="#FEFFFF" transform="matrix(1.00, 0.00, -0.00, -1.00, 98.9, 6.3)">.</text><text xml:space="preserve" font-family="GillSans,Gill Sans" font-size="21.0" fill="#FEFFFF" transform="matrix(1.00, 0.00, -0.00, -1.00, 103.5, 6.3)">o</text><text xml:space="preserve" font-family="GillSans,Gill Sans" font-size="21.0" fill="#FEFFFF" transform="matrix(1.00, 0.00, -0.00, -1.00, 115.1, 6.3)">r</text><text xml:space="preserve" font-family="GillSans,Gill Sans" font-size="21.0" fill="#FEFFFF" transform="matrix(1.00, 0.00, -0.00, -1.00, 123.4, 6.3)">g</text><text xml:space="preserve" font-family="GillSans,Gill Sans" font-size="21.0" fill="#FEFFFF" transform="matrix(1.00, 0.00, -0.00, -1.00, 132.4, 6.3)">/</text><text xml:space="preserve" font-family="GillSans,Gill Sans" font-size="21.0" fill="#FEFFFF" transform="matrix(1.00, 0.00, -0.00, -1.00, 138.3, 6.3)">s</text><text xml:space="preserve" font-family="GillSans,Gill Sans" font-size="21.0" fill="#FEFFFF" transform="matrix(1.00, 0.00, -0.00, -1.00, 146.3, 6.3)">d</text><text xml:space="preserve" font-family="GillSans,Gill Sans" font-size="21.0" fill="#FEFFFF" transform="matrix(1.00, 0.00, -0.00, -1.00, 157.0, 6.3)">o</text><text xml:space="preserve" font-family="GillSans,Gill Sans" font-size="21.0" fill="#FEFFFF" transform="matrix(1.00, 0.00, -0.00, -1.00, 168.6, 6.3)">_</text><text xml:space="preserve" font-family="GillSans,Gill Sans" font-size="21.0" fill="#FEFFFF" transform="matrix(1.00, 0.00, -0.00, -1.00, 180.2, 6.3)">e</text><text xml:space="preserve" font-family="GillSans,Gill Sans" font-size="21.0" fill="#FEFFFF" transform="matrix(1.00, 0.00, -0.00, -1.00, 190.3, 6.3)">g</text><text xml:space="preserve" font-family="GillSans,Gill Sans" font-size="21.0" fill="#FEFFFF" transform="matrix(1.00, 0.00, -0.00, -1.00, 199.2, 6.3)">_</text><text xml:space="preserve" font-family="GillSans,Gill Sans" font-size="21.0" fill="#FEFFFF" transform="matrix(1.00, 0.00, -0.00, -1.00, 210.8, 6.3)">r</text><text xml:space="preserve" font-family="GillSans,Gill Sans" font-size="21.0" fill="#FEFFFF" transform="matrix(1.00, 0.00, -0.00, -1.00, 218.8, 6.3)">d</text><text xml:space="preserve" font-family="GillSans,Gill Sans" font-size="21.0" fill="#FEFFFF" transform="matrix(1.00, 0.00, -0.00, -1.00, 229.5, 6.3)">f</text><text xml:space="preserve" font-family="GillSans,Gill Sans" font-size="21.0" fill="#FEFFFF" transform="matrix(1.00, 0.00, -0.00, -1.00, 234.8, 6.3)">a</text><text xml:space="preserve" font-family="GillSans,Gill Sans" font-size="21.0" fill="#FEFFFF" transform="matrix(1.00, 0.00, -0.00, -1.00, 243.7, 6.3)">_</text><text xml:space="preserve" font-family="GillSans,Gill Sans" font-size="21.0" fill="#FEFFFF" transform="matrix(1.00, 0.00, -0.00, -1.00, 255.3, 6.3)">1</text><text xml:space="preserve" font-family="GillSans,Gill Sans" font-size="21.0" fill="#FEFFFF" transform="matrix(1.00, 0.00, -0.00, -1.00, 265.8, 6.3)">2</text><text xml:space="preserve" font-family="GillSans,Gill Sans" font-size="21.0" fill="#FEFFFF" transform="matrix(1.00, 0.00, -0.00, -1.00, 276.3, 6.3)">.</text><text xml:space="preserve" font-family="GillSans,Gill Sans" font-size="21.0" fill="#FEFFFF" transform="matrix(1.00, 0.00, -0.00, -1.00, 280.9, 6.3)">h</text><text xml:space="preserve" font-family="GillSans,Gill Sans" font-size="21.0" fill="#FEFFFF" transform="matrix(1.00, 0.00, -0.00, -1.00, 291.4, 6.3)">t</text><text xml:space="preserve" font-family="GillSans,Gill Sans" font-size="21.0" fill="#FEFFFF" transform="matrix(1.00, 0.00, -0.00, -1.00, 298.4, 6.3)">m</text><text xml:space="preserve" font-family="GillSans,Gill Sans" font-size="21.0" fill="#FEFFFF" transform="matrix(1.00, 0.00, -0.00, -1.00, 314.6, 6.3)">l</text><g><clipPath id="clip0x7fcd244a1670"><path d="M 34.9 3.2 L 319.2 3.2 L 319.2 6.3 L 34.9 6.3 Z M 34.9 3.2 "></path></clipPath><g clip-path="url(#clip0x7fcd244a1670)"><path d="M 55.8 48.7 L 339.2 48.7 " fill="none" stroke="#FEFFFF" stroke-width="1.05" transform="matrix(1.00, 0.00, 0.00, -1.00, -19.9, 53.5)"></path></g></g></g></svg>