<?xml version="1.0" encoding="UTF-8" standalone="no"?><svg xmlns="http://www.w3.org/2000/svg" xmlns:xlink="http://www.w3.org/1999/xlink" clip-rule="evenodd" stroke-miterlimit="10" viewBox="0 0 958 185"><desc>SVG generated by Keynote</desc><defs></defs><g transform="matrix(1.00, 0.00, -0.00, -1.00, 0.0, 185.0)"><g><clipPath id="clip0x7fcd27386b70"><path d="M 485.7 -1.3 L 959.3 -1.3 L 959.3 186.3 L 485.7 186.3 Z M 485.7 -1.3 "></path></clipPath><g clip-path="url(#clip0x7fcd27386b70)"><text xml:space="preserve" font-family="GillSans,Gill Sans" font-size="22.0" fill="#FEFFFF" transform="matrix(1.00, 0.00, -0.00, -1.00, 492.0, 160.1)">{</text><text xml:space="preserve" font-family="GillSans,Gill Sans" font-size="22.0" fill="#FEFFFF" transform="matrix(1.00, 0.00, -0.00, -1.00, 492.0, 135.1)"> </text><text xml:space="preserve" font-family="GillSans,Gill Sans" font-size="22.0" fill="#FEFFFF" transform="matrix(1.00, 0.00, -0.00, -1.00, 498.1, 135.1)"> </text><text xml:space="preserve" font-family="GillSans,Gill Sans" font-size="22.0" fill="#FEFFFF" transform="matrix(1.00, 0.00, -0.00, -1.00, 504.2, 135.1)">"</text><text xml:space="preserve" font-family="GillSans,Gill Sans" font-size="22.0" fill="#FF9200" transform="matrix(1.00, 0.00, -0.00, -1.00, 512.0, 135.1)">@</text><text xml:space="preserve" font-family="GillSans,Gill Sans" font-size="22.0" fill="#FF9200" transform="matrix(1.00, 0.00, -0.00, -1.00, 534.2, 135.1)">c</text><text xml:space="preserve" font-family="GillSans,Gill Sans" font-size="22.0" fill="#FF9200" transform="matrix(1.00, 0.00, -0.00, -1.00, 543.9, 135.1)">o</text><text xml:space="preserve" font-family="GillSans,Gill Sans" font-size="22.0" fill="#FF9200" transform="matrix(1.00, 0.00, -0.00, -1.00, 556.0, 135.1)">n</text><text xml:space="preserve" font-family="GillSans,Gill Sans" font-size="22.0" fill="#FF9200" transform="matrix(1.00, 0.00, -0.00, -1.00, 567.0, 135.1)">t</text><text xml:space="preserve" font-family="GillSans,Gill Sans" font-size="22.0" fill="#FF9200" transform="matrix(1.00, 0.00, -0.00, -1.00, 574.3, 135.1)">e</text><text xml:space="preserve" font-family="GillSans,Gill Sans" font-size="22.0" fill="#FF9200" transform="matrix(1.00, 0.00, -0.00, -1.00, 584.9, 135.1)">x</text><text xml:space="preserve" font-family="GillSans,Gill Sans" font-size="22.0" fill="#FF9200" transform="matrix(1.00, 0.00, -0.00, -1.00, 595.9, 135.1)">t</text><text xml:space="preserve" font-family="GillSans,Gill Sans" font-size="22.0" fill="#FEFFFF" transform="matrix(1.00, 0.00, -0.00, -1.00, 603.2, 135.1)">"</text><text xml:space="preserve" font-family="GillSans,Gill Sans" font-size="22.0" fill="#FEFFFF" transform="matrix(1.00, 0.00, -0.00, -1.00, 611.0, 135.1)">:</text><text xml:space="preserve" font-family="GillSans,Gill Sans" font-size="22.0" fill="#FEFFFF" transform="matrix(1.00, 0.00, -0.00, -1.00, 613.6, 135.1)"> </text><text xml:space="preserve" font-family="GillSans,Gill Sans" font-size="22.0" fill="#FEFFFF" transform="matrix(1.00, 0.00, -0.00, -1.00, 619.7, 135.1)">"</text><text xml:space="preserve" font-family="GillSans,Gill Sans" font-size="22.0" fill="#FEFFFF" transform="matrix(1.00, 0.00, -0.00, -1.00, 627.5, 135.1)">h</text><text xml:space="preserve" font-family="GillSans,Gill Sans" font-size="22.0" fill="#FEFFFF" transform="matrix(1.00, 0.00, -0.00, -1.00, 638.5, 135.1)">t</text><text xml:space="preserve" font-family="GillSans,Gill Sans" font-size="22.0" fill="#FEFFFF" transform="matrix(1.00, 0.00, -0.00, -1.00, 645.8, 135.1)">t</text><text xml:space="preserve" font-family="GillSans,Gill Sans" font-size="22.0" fill="#FEFFFF" transform="matrix(1.00, 0.00, -0.00, -1.00, 653.2, 135.1)">p</text><text xml:space="preserve" font-family="GillSans,Gill Sans" font-size="22.0" fill="#FEFFFF" transform="matrix(1.00, 0.00, -0.00, -1.00, 664.2, 135.1)">:</text><text xml:space="preserve" font-family="GillSans,Gill Sans" font-size="22.0" fill="#FEFFFF" transform="matrix(1.00, 0.00, -0.00, -1.00, 669.0, 135.1)">/</text><text xml:space="preserve" font-family="GillSans,Gill Sans" font-size="22.0" fill="#FEFFFF" transform="matrix(1.00, 0.00, -0.00, -1.00, 675.2, 135.1)">/</text><text xml:space="preserve" font-family="GillSans,Gill Sans" font-size="22.0" fill="#FEFFFF" transform="matrix(1.00, 0.00, -0.00, -1.00, 681.3, 135.1)">j</text><text xml:space="preserve" font-family="GillSans,Gill Sans" font-size="22.0" fill="#FEFFFF" transform="matrix(1.00, 0.00, -0.00, -1.00, 686.2, 135.1)">s</text><text xml:space="preserve" font-family="GillSans,Gill Sans" font-size="22.0" fill="#FEFFFF" transform="matrix(1.00, 0.00, -0.00, -1.00, 694.6, 135.1)">o</text><text xml:space="preserve" font-family="GillSans,Gill Sans" font-size="22.0" fill="#FEFFFF" transform="matrix(1.00, 0.00, -0.00, -1.00, 706.7, 135.1)">n</text><text xml:space="preserve" font-family="GillSans,Gill Sans" font-size="22.0" fill="#FEFFFF" transform="matrix(1.00, 0.00, -0.00, -1.00, 717.7, 135.1)">-</text><text xml:space="preserve" font-family="GillSans,Gill Sans" font-size="22.0" fill="#FEFFFF" transform="matrix(1.00, 0.00, -0.00, -1.00, 724.9, 135.1)">l</text><text xml:space="preserve" font-family="GillSans,Gill Sans" font-size="22.0" fill="#FEFFFF" transform="matrix(1.00, 0.00, -0.00, -1.00, 729.7, 135.1)">d</text><text xml:space="preserve" font-family="GillSans,Gill Sans" font-size="22.0" fill="#FEFFFF" transform="matrix(1.00, 0.00, -0.00, -1.00, 740.9, 135.1)">.</text><text xml:space="preserve" font-family="GillSans,Gill Sans" font-size="22.0" fill="#FEFFFF" transform="matrix(1.00, 0.00, -0.00, -1.00, 745.7, 135.1)">o</text><text xml:space="preserve" font-family="GillSans,Gill Sans" font-size="22.0" fill="#FEFFFF" transform="matrix(1.00, 0.00, -0.00, -1.00, 757.9, 135.1)">r</text><text xml:space="preserve" font-family="GillSans,Gill Sans" font-size="22.0" fill="#FEFFFF" transform="matrix(1.00, 0.00, -0.00, -1.00, 766.6, 135.1)">g</text><text xml:space="preserve" font-family="GillSans,Gill Sans" font-size="22.0" fill="#FEFFFF" transform="matrix(1.00, 0.00, -0.00, -1.00, 776.0, 135.1)">/</text><text xml:space="preserve" font-family="GillSans,Gill Sans" font-size="22.0" fill="#FEFFFF" transform="matrix(1.00, 0.00, -0.00, -1.00, 782.1, 135.1)">c</text><text xml:space="preserve" font-family="GillSans,Gill Sans" font-size="22.0" fill="#FEFFFF" transform="matrix(1.00, 0.00, -0.00, -1.00, 791.8, 135.1)">o</text><text xml:space="preserve" font-family="GillSans,Gill Sans" font-size="22.0" fill="#FEFFFF" transform="matrix(1.00, 0.00, -0.00, -1.00, 803.9, 135.1)">n</text><text xml:space="preserve" font-family="GillSans,Gill Sans" font-size="22.0" fill="#FEFFFF" transform="matrix(1.00, 0.00, -0.00, -1.00, 814.9, 135.1)">t</text><text xml:space="preserve" font-family="GillSans,Gill Sans" font-size="22.0" fill="#FEFFFF" transform="matrix(1.00, 0.00, -0.00, -1.00, 822.2, 135.1)">e</text><text xml:space="preserve" font-family="GillSans,Gill Sans" font-size="22.0" fill="#FEFFFF" transform="matrix(1.00, 0.00, -0.00, -1.00, 832.8, 135.1)">x</text><text xml:space="preserve" font-family="GillSans,Gill Sans" font-size="22.0" fill="#FEFFFF" transform="matrix(1.00, 0.00, -0.00, -1.00, 843.8, 135.1)">t</text><text xml:space="preserve" font-family="GillSans,Gill Sans" font-size="22.0" fill="#FEFFFF" transform="matrix(1.00, 0.00, -0.00, -1.00, 851.1, 135.1)">s</text><text xml:space="preserve" font-family="GillSans,Gill Sans" font-size="22.0" fill="#FEFFFF" transform="matrix(1.00, 0.00, -0.00, -1.00, 859.6, 135.1)">/</text><text xml:space="preserve" font-family="GillSans,Gill Sans" font-size="22.0" fill="#FEFFFF" transform="matrix(1.00, 0.00, -0.00, -1.00, 865.7, 135.1)">p</text><text xml:space="preserve" font-family="GillSans,Gill Sans" font-size="22.0" fill="#FEFFFF" transform="matrix(1.00, 0.00, -0.00, -1.00, 876.7, 135.1)">e</text><text xml:space="preserve" font-family="GillSans,Gill Sans" font-size="22.0" fill="#FEFFFF" transform="matrix(1.00, 0.00, -0.00, -1.00, 887.3, 135.1)">r</text><text xml:space="preserve" font-family="GillSans,Gill Sans" font-size="22.0" fill="#FEFFFF" transform="matrix(1.00, 0.00, -0.00, -1.00, 896.0, 135.1)">s</text><text xml:space="preserve" font-family="GillSans,Gill Sans" font-size="22.0" fill="#FEFFFF" transform="matrix(1.00, 0.00, -0.00, -1.00, 904.4, 135.1)">o</text><text xml:space="preserve" font-family="GillSans,Gill Sans" font-size="22.0" fill="#FEFFFF" transform="matrix(1.00, 0.00, -0.00, -1.00, 916.6, 135.1)">n</text><text xml:space="preserve" font-family="GillSans,Gill Sans" font-size="22.0" fill="#FEFFFF" transform="matrix(1.00, 0.00, -0.00, -1.00, 927.6, 135.1)">"</text><text xml:space="preserve" font-family="GillSans,Gill Sans" font-size="22.0" fill="#FEFFFF" transform="matrix(1.00, 0.00, -0.00, -1.00, 935.4, 135.1)">,</text><path d="M 139.5 50.6 L 439.6 50.6 " fill="none" stroke="#FEFFFF" stroke-width="1.10" transform="matrix(1.00, 0.00, 0.00, -1.00, 488.0, 184.0)"></path><text xml:space="preserve" font-family="GillSans,Gill Sans" font-size="22.0" fill="#FEFFFF" transform="matrix(1.00, 0.00, -0.00, -1.00, 492.0, 110.1)"> </text><text xml:space="preserve" font-family="GillSans,Gill Sans" font-size="22.0" fill="#FEFFFF" transform="matrix(1.00, 0.00, -0.00, -1.00, 498.1, 110.1)"> </text><text xml:space="preserve" font-family="GillSans,Gill Sans" font-size="22.0" fill="#FEFFFF" transform="matrix(1.00, 0.00, -0.00, -1.00, 504.2, 110.1)">"</text><text xml:space="preserve" font-family="GillSans,Gill Sans" font-size="22.0" fill="#FF9200" transform="matrix(1.00, 0.00, -0.00, -1.00, 512.0, 110.1)">@</text><text xml:space="preserve" font-family="GillSans,Gill Sans" font-size="22.0" fill="#FF9200" transform="matrix(1.00, 0.00, -0.00, -1.00, 534.2, 110.1)">i</text><text xml:space="preserve" font-family="GillSans,Gill Sans" font-size="22.0" fill="#FF9200" transform="matrix(1.00, 0.00, -0.00, -1.00, 539.0, 110.1)">d</text><text xml:space="preserve" font-family="GillSans,Gill Sans" font-size="22.0" fill="#FEFFFF" transform="matrix(1.00, 0.00, -0.00, -1.00, 550.3, 110.1)">"</text><text xml:space="preserve" font-family="GillSans,Gill Sans" font-size="22.0" fill="#FEFFFF" transform="matrix(1.00, 0.00, -0.00, -1.00, 558.1, 110.1)">:</text><text xml:space="preserve" font-family="GillSans,Gill Sans" font-size="22.0" fill="#FEFFFF" transform="matrix(1.00, 0.00, -0.00, -1.00, 560.7, 110.1)"> </text><text xml:space="preserve" font-family="GillSans,Gill Sans" font-size="22.0" fill="#FEFFFF" transform="matrix(1.00, 0.00, -0.00, -1.00, 566.8, 110.1)">"</text><text xml:space="preserve" font-family="GillSans,Gill Sans" font-size="22.0" fill="#FEFFFF" transform="matrix(1.00, 0.00, -0.00, -1.00, 574.6, 110.1)">h</text><text xml:space="preserve" font-family="GillSans,Gill Sans" font-size="22.0" fill="#FEFFFF" transform="matrix(1.00, 0.00, -0.00, -1.00, 585.6, 110.1)">t</text><text xml:space="preserve" font-family="GillSans,Gill Sans" font-size="22.0" fill="#FEFFFF" transform="matrix(1.00, 0.00, -0.00, -1.00, 592.9, 110.1)">t</text><text xml:space="preserve" font-family="GillSans,Gill Sans" font-size="22.0" fill="#FEFFFF" transform="matrix(1.00, 0.00, -0.00, -1.00, 600.2, 110.1)">p</text><text xml:space="preserve" font-family="GillSans,Gill Sans" font-size="22.0" fill="#FEFFFF" transform="matrix(1.00, 0.00, -0.00, -1.00, 611.2, 110.1)">:</text><text xml:space="preserve" font-family="GillSans,Gill Sans" font-size="22.0" fill="#FEFFFF" transform="matrix(1.00, 0.00, -0.00, -1.00, 616.1, 110.1)">/</text><text xml:space="preserve" font-family="GillSans,Gill Sans" font-size="22.0" fill="#FEFFFF" transform="matrix(1.00, 0.00, -0.00, -1.00, 622.2, 110.1)">/</text><text xml:space="preserve" font-family="GillSans,Gill Sans" font-size="22.0" fill="#FEFFFF" transform="matrix(1.00, 0.00, -0.00, -1.00, 628.4, 110.1)">g</text><text xml:space="preserve" font-family="GillSans,Gill Sans" font-size="22.0" fill="#FEFFFF" transform="matrix(1.00, 0.00, -0.00, -1.00, 637.8, 110.1)">r</text><text xml:space="preserve" font-family="GillSans,Gill Sans" font-size="22.0" fill="#FEFFFF" transform="matrix(1.00, 0.00, -0.00, -1.00, 646.1, 110.1)">e</text><text xml:space="preserve" font-family="GillSans,Gill Sans" font-size="22.0" fill="#FEFFFF" transform="matrix(1.00, 0.00, -0.00, -1.00, 656.6, 110.1)">g</text><text xml:space="preserve" font-family="GillSans,Gill Sans" font-size="22.0" fill="#FEFFFF" transform="matrix(1.00, 0.00, -0.00, -1.00, 666.0, 110.1)">g</text><text xml:space="preserve" font-family="GillSans,Gill Sans" font-size="22.0" fill="#FEFFFF" transform="matrix(1.00, 0.00, -0.00, -1.00, 675.4, 110.1)">k</text><text xml:space="preserve" font-family="GillSans,Gill Sans" font-size="22.0" fill="#FEFFFF" transform="matrix(1.00, 0.00, -0.00, -1.00, 685.2, 110.1)">e</text><text xml:space="preserve" font-family="GillSans,Gill Sans" font-size="22.0" fill="#FEFFFF" transform="matrix(1.00, 0.00, -0.00, -1.00, 695.8, 110.1)">l</text><text xml:space="preserve" font-family="GillSans,Gill Sans" font-size="22.0" fill="#FEFFFF" transform="matrix(1.00, 0.00, -0.00, -1.00, 700.6, 110.1)">l</text><text xml:space="preserve" font-family="GillSans,Gill Sans" font-size="22.0" fill="#FEFFFF" transform="matrix(1.00, 0.00, -0.00, -1.00, 705.4, 110.1)">o</text><text xml:space="preserve" font-family="GillSans,Gill Sans" font-size="22.0" fill="#FEFFFF" transform="matrix(1.00, 0.00, -0.00, -1.00, 717.6, 110.1)">g</text><text xml:space="preserve" font-family="GillSans,Gill Sans" font-size="22.0" fill="#FEFFFF" transform="matrix(1.00, 0.00, -0.00, -1.00, 727.0, 110.1)">g</text><text xml:space="preserve" font-family="GillSans,Gill Sans" font-size="22.0" fill="#FEFFFF" transform="matrix(1.00, 0.00, -0.00, -1.00, 736.3, 110.1)">.</text><text xml:space="preserve" font-family="GillSans,Gill Sans" font-size="22.0" fill="#FEFFFF" transform="matrix(1.00, 0.00, -0.00, -1.00, 741.2, 110.1)">n</text><text xml:space="preserve" font-family="GillSans,Gill Sans" font-size="22.0" fill="#FEFFFF" transform="matrix(1.00, 0.00, -0.00, -1.00, 752.2, 110.1)">e</text><text xml:space="preserve" font-family="GillSans,Gill Sans" font-size="22.0" fill="#FEFFFF" transform="matrix(1.00, 0.00, -0.00, -1.00, 762.7, 110.1)">t</text><text xml:space="preserve" font-family="GillSans,Gill Sans" font-size="22.0" fill="#FEFFFF" transform="matrix(1.00, 0.00, -0.00, -1.00, 770.0, 110.1)">/</text><text xml:space="preserve" font-family="GillSans,Gill Sans" font-size="22.0" fill="#FEFFFF" transform="matrix(1.00, 0.00, -0.00, -1.00, 776.2, 110.1)">f</text><text xml:space="preserve" font-family="GillSans,Gill Sans" font-size="22.0" fill="#FEFFFF" transform="matrix(1.00, 0.00, -0.00, -1.00, 781.5, 110.1)">o</text><text xml:space="preserve" font-family="GillSans,Gill Sans" font-size="22.0" fill="#FEFFFF" transform="matrix(1.00, 0.00, -0.00, -1.00, 793.6, 110.1)">a</text><text xml:space="preserve" font-family="GillSans,Gill Sans" font-size="22.0" fill="#FEFFFF" transform="matrix(1.00, 0.00, -0.00, -1.00, 803.0, 110.1)">f</text><text xml:space="preserve" font-family="GillSans,Gill Sans" font-size="22.0" fill="#FEFFFF" transform="matrix(1.00, 0.00, -0.00, -1.00, 808.5, 110.1)">#</text><text xml:space="preserve" font-family="GillSans,Gill Sans" font-size="22.0" fill="#FEFFFF" transform="matrix(1.00, 0.00, -0.00, -1.00, 821.4, 110.1)">m</text><text xml:space="preserve" font-family="GillSans,Gill Sans" font-size="22.0" fill="#FEFFFF" transform="matrix(1.00, 0.00, -0.00, -1.00, 838.3, 110.1)">e</text><text xml:space="preserve" font-family="GillSans,Gill Sans" font-size="22.0" fill="#FEFFFF" transform="matrix(1.00, 0.00, -0.00, -1.00, 848.9, 110.1)">"</text><text xml:space="preserve" font-family="GillSans,Gill Sans" font-size="22.0" fill="#FEFFFF" transform="matrix(1.00, 0.00, -0.00, -1.00, 856.7, 110.1)">,</text><path d="M 86.6 75.6 L 360.9 75.6 " fill="none" stroke="#FEFFFF" stroke-width="1.10" transform="matrix(1.00, 0.00, 0.00, -1.00, 488.0, 184.0)"></path><text xml:space="preserve" font-family="GillSans,Gill Sans" font-size="22.0" fill="#FEFFFF" transform="matrix(1.00, 0.00, -0.00, -1.00, 492.0, 85.1)"> </text><text xml:space="preserve" font-family="GillSans,Gill Sans" font-size="22.0" fill="#FEFFFF" transform="matrix(1.00, 0.00, -0.00, -1.00, 498.1, 85.1)"> </text><text xml:space="preserve" font-family="GillSans,Gill Sans" font-size="22.0" fill="#FEFFFF" transform="matrix(1.00, 0.00, -0.00, -1.00, 504.2, 85.1)">"</text><text xml:space="preserve" font-family="GillSans,Gill Sans" font-size="22.0" fill="#FF9200" transform="matrix(1.00, 0.00, -0.00, -1.00, 512.0, 85.1)">@</text><text xml:space="preserve" font-family="GillSans,Gill Sans" font-size="22.0" fill="#FF9200" transform="matrix(1.00, 0.00, -0.00, -1.00, 534.2, 85.1)">t</text><text xml:space="preserve" font-family="GillSans,Gill Sans" font-size="22.0" fill="#FF9200" transform="matrix(1.00, 0.00, -0.00, -1.00, 541.5, 85.1)">y</text><text xml:space="preserve" font-family="GillSans,Gill Sans" font-size="22.0" fill="#FF9200" transform="matrix(1.00, 0.00, -0.00, -1.00, 551.2, 85.1)">p</text><text xml:space="preserve" font-family="GillSans,Gill Sans" font-size="22.0" fill="#FF9200" transform="matrix(1.00, 0.00, -0.00, -1.00, 562.2, 85.1)">e</text><text xml:space="preserve" font-family="GillSans,Gill Sans" font-size="22.0" fill="#FEFFFF" transform="matrix(1.00, 0.00, -0.00, -1.00, 572.7, 85.1)">"</text><text xml:space="preserve" font-family="GillSans,Gill Sans" font-size="22.0" fill="#FEFFFF" transform="matrix(1.00, 0.00, -0.00, -1.00, 580.5, 85.1)">:</text><text xml:space="preserve" font-family="GillSans,Gill Sans" font-size="22.0" fill="#FEFFFF" transform="matrix(1.00, 0.00, -0.00, -1.00, 583.1, 85.1)"> </text><text xml:space="preserve" font-family="GillSans,Gill Sans" font-size="22.0" fill="#FEFFFF" transform="matrix(1.00, 0.00, -0.00, -1.00, 589.2, 85.1)">"</text><text xml:space="preserve" font-family="GillSans,Gill Sans" font-size="22.0" fill="#FEFFFF" transform="matrix(1.00, 0.00, -0.00, -1.00, 597.0, 85.1)">P</text><text xml:space="preserve" font-family="GillSans,Gill Sans" font-size="22.0" fill="#FEFFFF" transform="matrix(1.00, 0.00, -0.00, -1.00, 607.7, 85.1)">e</text><text xml:space="preserve" font-family="GillSans,Gill Sans" font-size="22.0" fill="#FEFFFF" transform="matrix(1.00, 0.00, -0.00, -1.00, 618.2, 85.1)">r</text><text xml:space="preserve" font-family="GillSans,Gill Sans" font-size="22.0" fill="#FEFFFF" transform="matrix(1.00, 0.00, -0.00, -1.00, 626.9, 85.1)">s</text><text xml:space="preserve" font-family="GillSans,Gill Sans" font-size="22.0" fill="#FEFFFF" transform="matrix(1.00, 0.00, -0.00, -1.00, 635.4, 85.1)">o</text><text xml:space="preserve" font-family="GillSans,Gill Sans" font-size="22.0" fill="#FEFFFF" transform="matrix(1.00, 0.00, -0.00, -1.00, 647.5, 85.1)">n</text><text xml:space="preserve" font-family="GillSans,Gill Sans" font-size="22.0" fill="#FEFFFF" transform="matrix(1.00, 0.00, -0.00, -1.00, 658.5, 85.1)">"</text><text xml:space="preserve" font-family="GillSans,Gill Sans" font-size="22.0" fill="#FEFFFF" transform="matrix(1.00, 0.00, -0.00, -1.00, 666.3, 85.1)">,</text><text xml:space="preserve" font-family="GillSans,Gill Sans" font-size="22.0" fill="#FEFFFF" transform="matrix(1.00, 0.00, -0.00, -1.00, 492.0, 60.1)"> </text><text xml:space="preserve" font-family="GillSans,Gill Sans" font-size="22.0" fill="#FEFFFF" transform="matrix(1.00, 0.00, -0.00, -1.00, 498.1, 60.1)"> </text><text xml:space="preserve" font-family="GillSans,Gill Sans" font-size="22.0" fill="#FEFFFF" transform="matrix(1.00, 0.00, -0.00, -1.00, 504.2, 60.1)">"</text><text xml:space="preserve" font-family="GillSans,Gill Sans" font-size="22.0" fill="#FEFFFF" transform="matrix(1.00, 0.00, -0.00, -1.00, 512.0, 60.1)">n</text><text xml:space="preserve" font-family="GillSans,Gill Sans" font-size="22.0" fill="#FEFFFF" transform="matrix(1.00, 0.00, -0.00, -1.00, 523.0, 60.1)">a</text><text xml:space="preserve" font-family="GillSans,Gill Sans" font-size="22.0" fill="#FEFFFF" transform="matrix(1.00, 0.00, -0.00, -1.00, 532.4, 60.1)">m</text><text xml:space="preserve" font-family="GillSans,Gill Sans" font-size="22.0" fill="#FEFFFF" transform="matrix(1.00, 0.00, -0.00, -1.00, 549.4, 60.1)">e</text><text xml:space="preserve" font-family="GillSans,Gill Sans" font-size="22.0" fill="#FEFFFF" transform="matrix(1.00, 0.00, -0.00, -1.00, 559.9, 60.1)">"</text><text xml:space="preserve" font-family="GillSans,Gill Sans" font-size="22.0" fill="#FEFFFF" transform="matrix(1.00, 0.00, -0.00, -1.00, 567.7, 60.1)">:</text><text xml:space="preserve" font-family="GillSans,Gill Sans" font-size="22.0" fill="#FEFFFF" transform="matrix(1.00, 0.00, -0.00, -1.00, 570.3, 60.1)"> </text><text xml:space="preserve" font-family="GillSans,Gill Sans" font-size="22.0" fill="#FEFFFF" transform="matrix(1.00, 0.00, -0.00, -1.00, 576.4, 60.1)">"</text><text xml:space="preserve" font-family="GillSans,Gill Sans" font-size="22.0" fill="#FEFFFF" transform="matrix(1.00, 0.00, -0.00, -1.00, 584.2, 60.1)">G</text><text xml:space="preserve" font-family="GillSans,Gill Sans" font-size="22.0" fill="#FEFFFF" transform="matrix(1.00, 0.00, -0.00, -1.00, 600.5, 60.1)">r</text><text xml:space="preserve" font-family="GillSans,Gill Sans" font-size="22.0" fill="#FEFFFF" transform="matrix(1.00, 0.00, -0.00, -1.00, 608.8, 60.1)">e</text><text xml:space="preserve" font-family="GillSans,Gill Sans" font-size="22.0" fill="#FEFFFF" transform="matrix(1.00, 0.00, -0.00, -1.00, 619.3, 60.1)">g</text><text xml:space="preserve" font-family="GillSans,Gill Sans" font-size="22.0" fill="#FEFFFF" transform="matrix(1.00, 0.00, -0.00, -1.00, 628.7, 60.1)">g</text><text xml:space="preserve" font-family="GillSans,Gill Sans" font-size="22.0" fill="#FEFFFF" transform="matrix(1.00, 0.00, -0.00, -1.00, 638.1, 60.1)"> </text><text xml:space="preserve" font-family="GillSans,Gill Sans" font-size="22.0" fill="#FEFFFF" transform="matrix(1.00, 0.00, -0.00, -1.00, 644.2, 60.1)">K</text><text xml:space="preserve" font-family="GillSans,Gill Sans" font-size="22.0" fill="#FEFFFF" transform="matrix(1.00, 0.00, -0.00, -1.00, 657.3, 60.1)">e</text><text xml:space="preserve" font-family="GillSans,Gill Sans" font-size="22.0" fill="#FEFFFF" transform="matrix(1.00, 0.00, -0.00, -1.00, 667.8, 60.1)">l</text><text xml:space="preserve" font-family="GillSans,Gill Sans" font-size="22.0" fill="#FEFFFF" transform="matrix(1.00, 0.00, -0.00, -1.00, 672.6, 60.1)">l</text><text xml:space="preserve" font-family="GillSans,Gill Sans" font-size="22.0" fill="#FEFFFF" transform="matrix(1.00, 0.00, -0.00, -1.00, 677.5, 60.1)">o</text><text xml:space="preserve" font-family="GillSans,Gill Sans" font-size="22.0" fill="#FEFFFF" transform="matrix(1.00, 0.00, -0.00, -1.00, 689.6, 60.1)">g</text><text xml:space="preserve" font-family="GillSans,Gill Sans" font-size="22.0" fill="#FEFFFF" transform="matrix(1.00, 0.00, -0.00, -1.00, 699.0, 60.1)">g</text><text xml:space="preserve" font-family="GillSans,Gill Sans" font-size="22.0" fill="#FEFFFF" transform="matrix(1.00, 0.00, -0.00, -1.00, 708.4, 60.1)">"</text><text xml:space="preserve" font-family="GillSans,Gill Sans" font-size="22.0" fill="#FEFFFF" transform="matrix(1.00, 0.00, -0.00, -1.00, 716.2, 60.1)">,</text><text xml:space="preserve" font-family="GillSans,Gill Sans" font-size="22.0" fill="#FEFFFF" transform="matrix(1.00, 0.00, -0.00, -1.00, 492.0, 35.1)"> </text><text xml:space="preserve" font-family="GillSans,Gill Sans" font-size="22.0" fill="#FEFFFF" transform="matrix(1.00, 0.00, -0.00, -1.00, 498.1, 35.1)"> </text><text xml:space="preserve" font-family="GillSans,Gill Sans" font-size="22.0" fill="#FEFFFF" transform="matrix(1.00, 0.00, -0.00, -1.00, 504.2, 35.1)">"</text><text xml:space="preserve" font-family="GillSans,Gill Sans" font-size="22.0" fill="#FEFFFF" transform="matrix(1.00, 0.00, -0.00, -1.00, 512.0, 35.1)">k</text><text xml:space="preserve" font-family="GillSans,Gill Sans" font-size="22.0" fill="#FEFFFF" transform="matrix(1.00, 0.00, -0.00, -1.00, 522.5, 35.1)">n</text><text xml:space="preserve" font-family="GillSans,Gill Sans" font-size="22.0" fill="#FEFFFF" transform="matrix(1.00, 0.00, -0.00, -1.00, 533.5, 35.1)">o</text><text xml:space="preserve" font-family="GillSans,Gill Sans" font-size="22.0" fill="#FEFFFF" transform="matrix(1.00, 0.00, -0.00, -1.00, 545.5, 35.1)">w</text><text xml:space="preserve" font-family="GillSans,Gill Sans" font-size="22.0" fill="#FEFFFF" transform="matrix(1.00, 0.00, -0.00, -1.00, 561.3, 35.1)">s</text><text xml:space="preserve" font-family="GillSans,Gill Sans" font-size="22.0" fill="#FEFFFF" transform="matrix(1.00, 0.00, -0.00, -1.00, 569.7, 35.1)">"</text><text xml:space="preserve" font-family="GillSans,Gill Sans" font-size="22.0" fill="#FEFFFF" transform="matrix(1.00, 0.00, -0.00, -1.00, 577.5, 35.1)">:</text><text xml:space="preserve" font-family="GillSans,Gill Sans" font-size="22.0" fill="#FEFFFF" transform="matrix(1.00, 0.00, -0.00, -1.00, 580.2, 35.1)"> </text><text xml:space="preserve" font-family="GillSans,Gill Sans" font-size="22.0" fill="#FEFFFF" transform="matrix(1.00, 0.00, -0.00, -1.00, 586.3, 35.1)">"</text><text xml:space="preserve" font-family="GillSans,Gill Sans" font-size="22.0" fill="#00F900" transform="matrix(1.00, 0.00, -0.00, -1.00, 594.1, 35.1)">h</text><text xml:space="preserve" font-family="GillSans,Gill Sans" font-size="22.0" fill="#00F900" transform="matrix(1.00, 0.00, -0.00, -1.00, 605.1, 35.1)">t</text><text xml:space="preserve" font-family="GillSans,Gill Sans" font-size="22.0" fill="#00F900" transform="matrix(1.00, 0.00, -0.00, -1.00, 612.4, 35.1)">t</text><text xml:space="preserve" font-family="GillSans,Gill Sans" font-size="22.0" fill="#00F900" transform="matrix(1.00, 0.00, -0.00, -1.00, 619.7, 35.1)">p</text><text xml:space="preserve" font-family="GillSans,Gill Sans" font-size="22.0" fill="#00F900" transform="matrix(1.00, 0.00, -0.00, -1.00, 630.7, 35.1)">:</text><text xml:space="preserve" font-family="GillSans,Gill Sans" font-size="22.0" fill="#00F900" transform="matrix(1.00, 0.00, -0.00, -1.00, 635.6, 35.1)">/</text><text xml:space="preserve" font-family="GillSans,Gill Sans" font-size="22.0" fill="#00F900" transform="matrix(1.00, 0.00, -0.00, -1.00, 641.7, 35.1)">/</text><text xml:space="preserve" font-family="GillSans,Gill Sans" font-size="22.0" fill="#00F900" transform="matrix(1.00, 0.00, -0.00, -1.00, 647.9, 35.1)">w</text><text xml:space="preserve" font-family="GillSans,Gill Sans" font-size="22.0" fill="#00F900" transform="matrix(1.00, 0.00, -0.00, -1.00, 663.7, 35.1)">w</text><text xml:space="preserve" font-family="GillSans,Gill Sans" font-size="22.0" fill="#00F900" transform="matrix(1.00, 0.00, -0.00, -1.00, 679.6, 35.1)">w</text><text xml:space="preserve" font-family="GillSans,Gill Sans" font-size="22.0" fill="#00F900" transform="matrix(1.00, 0.00, -0.00, -1.00, 694.1, 35.1)">.</text><text xml:space="preserve" font-family="GillSans,Gill Sans" font-size="22.0" fill="#00F900" transform="matrix(1.00, 0.00, -0.00, -1.00, 698.9, 35.1)">m</text><text xml:space="preserve" font-family="GillSans,Gill Sans" font-size="22.0" fill="#00F900" transform="matrix(1.00, 0.00, -0.00, -1.00, 715.8, 35.1)">a</text><text xml:space="preserve" font-family="GillSans,Gill Sans" font-size="22.0" fill="#00F900" transform="matrix(1.00, 0.00, -0.00, -1.00, 725.2, 35.1)">r</text><text xml:space="preserve" font-family="GillSans,Gill Sans" font-size="22.0" fill="#00F900" transform="matrix(1.00, 0.00, -0.00, -1.00, 733.9, 35.1)">k</text><text xml:space="preserve" font-family="GillSans,Gill Sans" font-size="22.0" fill="#00F900" transform="matrix(1.00, 0.00, -0.00, -1.00, 744.5, 35.1)">u</text><text xml:space="preserve" font-family="GillSans,Gill Sans" font-size="22.0" fill="#00F900" transform="matrix(1.00, 0.00, -0.00, -1.00, 755.5, 35.1)">s</text><text xml:space="preserve" font-family="GillSans,Gill Sans" font-size="22.0" fill="#00F900" transform="matrix(1.00, 0.00, -0.00, -1.00, 763.9, 35.1)">-</text><text xml:space="preserve" font-family="GillSans,Gill Sans" font-size="22.0" fill="#00F900" transform="matrix(1.00, 0.00, -0.00, -1.00, 771.1, 35.1)">l</text><text xml:space="preserve" font-family="GillSans,Gill Sans" font-size="22.0" fill="#00F900" transform="matrix(1.00, 0.00, -0.00, -1.00, 775.9, 35.1)">a</text><text xml:space="preserve" font-family="GillSans,Gill Sans" font-size="22.0" fill="#00F900" transform="matrix(1.00, 0.00, -0.00, -1.00, 785.3, 35.1)">n</text><text xml:space="preserve" font-family="GillSans,Gill Sans" font-size="22.0" fill="#00F900" transform="matrix(1.00, 0.00, -0.00, -1.00, 796.3, 35.1)">t</text><text xml:space="preserve" font-family="GillSans,Gill Sans" font-size="22.0" fill="#00F900" transform="matrix(1.00, 0.00, -0.00, -1.00, 803.6, 35.1)">h</text><text xml:space="preserve" font-family="GillSans,Gill Sans" font-size="22.0" fill="#00F900" transform="matrix(1.00, 0.00, -0.00, -1.00, 814.6, 35.1)">a</text><text xml:space="preserve" font-family="GillSans,Gill Sans" font-size="22.0" fill="#00F900" transform="matrix(1.00, 0.00, -0.00, -1.00, 824.0, 35.1)">l</text><text xml:space="preserve" font-family="GillSans,Gill Sans" font-size="22.0" fill="#00F900" transform="matrix(1.00, 0.00, -0.00, -1.00, 828.8, 35.1)">e</text><text xml:space="preserve" font-family="GillSans,Gill Sans" font-size="22.0" fill="#00F900" transform="matrix(1.00, 0.00, -0.00, -1.00, 839.3, 35.1)">r</text><text xml:space="preserve" font-family="GillSans,Gill Sans" font-size="22.0" fill="#00F900" transform="matrix(1.00, 0.00, -0.00, -1.00, 845.9, 35.1)">.</text><text xml:space="preserve" font-family="GillSans,Gill Sans" font-size="22.0" fill="#00F900" transform="matrix(1.00, 0.00, -0.00, -1.00, 850.7, 35.1)">c</text><text xml:space="preserve" font-family="GillSans,Gill Sans" font-size="22.0" fill="#00F900" transform="matrix(1.00, 0.00, -0.00, -1.00, 860.3, 35.1)">o</text><text xml:space="preserve" font-family="GillSans,Gill Sans" font-size="22.0" fill="#00F900" transform="matrix(1.00, 0.00, -0.00, -1.00, 872.5, 35.1)">m</text><text xml:space="preserve" font-family="GillSans,Gill Sans" font-size="22.0" fill="#00F900" transform="matrix(1.00, 0.00, -0.00, -1.00, 889.4, 35.1)">/</text><text xml:space="preserve" font-family="GillSans,Gill Sans" font-size="22.0" fill="#FEFFFF" transform="matrix(1.00, 0.00, -0.00, -1.00, 895.6, 35.1)">"</text><path d="M 106.1 150.6 L 401.4 150.6 " fill="none" stroke="#00F900" stroke-width="1.10" transform="matrix(1.00, 0.00, 0.00, -1.00, 488.0, 184.0)"></path><text xml:space="preserve" font-family="GillSans,Gill Sans" font-size="22.0" fill="#FEFFFF" transform="matrix(1.00, 0.00, -0.00, -1.00, 492.0, 10.1)">}</text></g></g><g><clipPath id="clip0x7fcd2732b6a0"><path d="M -4.2 1.0 L 483.2 1.0 L 483.2 184.0 L -4.2 184.0 Z M -4.2 1.0 "></path></clipPath><g clip-path="url(#clip0x7fcd2732b6a0)"><text xml:space="preserve" font-family="GillSans,Gill Sans" font-size="54.7" fill="#FEFFFF" transform="matrix(1.00, 0.00, -0.00, -1.00, 5.0, 132.1)">•</text><text xml:space="preserve" font-family="GillSans,Gill Sans" font-size="32.0" fill="#FEFFFF" transform="matrix(1.00, 0.00, -0.00, -1.00, 43.9, 140.4)">M</text><text xml:space="preserve" font-family="GillSans,Gill Sans" font-size="32.0" fill="#FEFFFF" transform="matrix(1.00, 0.00, -0.00, -1.00, 68.9, 140.4)">a</text><text xml:space="preserve" font-family="GillSans,Gill Sans" font-size="32.0" fill="#FEFFFF" transform="matrix(1.00, 0.00, -0.00, -1.00, 82.6, 140.4)">k</text><text xml:space="preserve" font-family="GillSans,Gill Sans" font-size="32.0" fill="#FEFFFF" transform="matrix(1.00, 0.00, -0.00, -1.00, 96.9, 140.4)">e</text><text xml:space="preserve" font-family="GillSans,Gill Sans" font-size="32.0" fill="#FEFFFF" transform="matrix(1.00, 0.00, -0.00, -1.00, 112.3, 140.4)"> </text><text xml:space="preserve" font-family="GillSans,Gill Sans" font-size="32.0" fill="#FEFFFF" transform="matrix(1.00, 0.00, -0.00, -1.00, 121.2, 140.4)">f</text><text xml:space="preserve" font-family="GillSans,Gill Sans" font-size="32.0" fill="#FEFFFF" transform="matrix(1.00, 0.00, -0.00, -1.00, 129.2, 140.4)">u</text><text xml:space="preserve" font-family="GillSans,Gill Sans" font-size="32.0" fill="#FEFFFF" transform="matrix(1.00, 0.00, -0.00, -1.00, 145.2, 140.4)">l</text><text xml:space="preserve" font-family="GillSans,Gill Sans" font-size="32.0" fill="#FEFFFF" transform="matrix(1.00, 0.00, -0.00, -1.00, 152.2, 140.4)">l</text><text xml:space="preserve" font-family="GillSans,Gill Sans" font-size="32.0" fill="#FEFFFF" transform="matrix(1.00, 0.00, -0.00, -1.00, 159.2, 140.4)"> </text><text xml:space="preserve" font-family="GillSans,Gill Sans" font-size="32.0" fill="#FEFFFF" transform="matrix(1.00, 0.00, -0.00, -1.00, 168.1, 140.4)">u</text><text xml:space="preserve" font-family="GillSans,Gill Sans" font-size="32.0" fill="#FEFFFF" transform="matrix(1.00, 0.00, -0.00, -1.00, 184.1, 140.4)">s</text><text xml:space="preserve" font-family="GillSans,Gill Sans" font-size="32.0" fill="#FEFFFF" transform="matrix(1.00, 0.00, -0.00, -1.00, 196.4, 140.4)">e</text><text xml:space="preserve" font-family="GillSans,Gill Sans" font-size="32.0" fill="#FEFFFF" transform="matrix(1.00, 0.00, -0.00, -1.00, 211.7, 140.4)"> </text><text xml:space="preserve" font-family="GillSans,Gill Sans" font-size="32.0" fill="#FEFFFF" transform="matrix(1.00, 0.00, -0.00, -1.00, 220.6, 140.4)">o</text><text xml:space="preserve" font-family="GillSans,Gill Sans" font-size="32.0" fill="#FEFFFF" transform="matrix(1.00, 0.00, -0.00, -1.00, 238.3, 140.4)">f</text><text xml:space="preserve" font-family="GillSans,Gill Sans" font-size="32.0" fill="#FEFFFF" transform="matrix(1.00, 0.00, -0.00, -1.00, 246.3, 140.4)"> </text><text xml:space="preserve" font-family="GillSans,Gill Sans" font-size="32.0" fill="#FEFFFF" transform="matrix(1.00, 0.00, -0.00, -1.00, 255.1, 140.4)">J</text><text xml:space="preserve" font-family="GillSans,Gill Sans" font-size="32.0" fill="#FEFFFF" transform="matrix(1.00, 0.00, -0.00, -1.00, 263.1, 140.4)">S</text><text xml:space="preserve" font-family="GillSans,Gill Sans" font-size="32.0" fill="#FEFFFF" transform="matrix(1.00, 0.00, -0.00, -1.00, 277.8, 140.4)">O</text><text xml:space="preserve" font-family="GillSans,Gill Sans" font-size="32.0" fill="#FEFFFF" transform="matrix(1.00, 0.00, -0.00, -1.00, 304.1, 140.4)">N</text><text xml:space="preserve" font-family="GillSans,Gill Sans" font-size="32.0" fill="#FEFFFF" transform="matrix(1.00, 0.00, -0.00, -1.00, 329.1, 140.4)"> </text><text xml:space="preserve" font-family="GillSans,Gill Sans" font-size="32.0" fill="#FEFFFF" transform="matrix(1.00, 0.00, -0.00, -1.00, 338.0, 140.4)">s</text><text xml:space="preserve" font-family="GillSans,Gill Sans" font-size="32.0" fill="#FEFFFF" transform="matrix(1.00, 0.00, -0.00, -1.00, 350.3, 140.4)">y</text><text xml:space="preserve" font-family="GillSans,Gill Sans" font-size="32.0" fill="#FEFFFF" transform="matrix(1.00, 0.00, -0.00, -1.00, 364.3, 140.4)">n</text><text xml:space="preserve" font-family="GillSans,Gill Sans" font-size="32.0" fill="#FEFFFF" transform="matrix(1.00, 0.00, -0.00, -1.00, 380.3, 140.4)">t</text><text xml:space="preserve" font-family="GillSans,Gill Sans" font-size="32.0" fill="#FEFFFF" transform="matrix(1.00, 0.00, -0.00, -1.00, 391.0, 140.4)">a</text><text xml:space="preserve" font-family="GillSans,Gill Sans" font-size="32.0" fill="#FEFFFF" transform="matrix(1.00, 0.00, -0.00, -1.00, 404.6, 140.4)">c</text><text xml:space="preserve" font-family="GillSans,Gill Sans" font-size="32.0" fill="#FEFFFF" transform="matrix(1.00, 0.00, -0.00, -1.00, 418.7, 140.4)">t</text><text xml:space="preserve" font-family="GillSans,Gill Sans" font-size="32.0" fill="#FEFFFF" transform="matrix(1.00, 0.00, -0.00, -1.00, 429.3, 140.4)">i</text><text xml:space="preserve" font-family="GillSans,Gill Sans" font-size="32.0" fill="#FEFFFF" transform="matrix(1.00, 0.00, -0.00, -1.00, 436.3, 140.4)">c</text><text xml:space="preserve" font-family="GillSans,Gill Sans" font-size="32.0" fill="#FEFFFF" transform="matrix(1.00, 0.00, -0.00, -1.00, 450.3, 140.4)"> </text><text xml:space="preserve" font-family="GillSans,Gill Sans" font-size="32.0" fill="#FEFFFF" transform="matrix(1.00, 0.00, -0.00, -1.00, 43.9, 118.8)">r</text><text xml:space="preserve" font-family="GillSans,Gill Sans" font-size="32.0" fill="#FEFFFF" transform="matrix(1.00, 0.00, -0.00, -1.00, 56.0, 118.8)">e</text><text xml:space="preserve" font-family="GillSans,Gill Sans" font-size="32.0" fill="#FEFFFF" transform="matrix(1.00, 0.00, -0.00, -1.00, 71.3, 118.8)">p</text><text xml:space="preserve" font-family="GillSans,Gill Sans" font-size="32.0" fill="#FEFFFF" transform="matrix(1.00, 0.00, -0.00, -1.00, 87.3, 118.8)">r</text><text xml:space="preserve" font-family="GillSans,Gill Sans" font-size="32.0" fill="#FEFFFF" transform="matrix(1.00, 0.00, -0.00, -1.00, 99.3, 118.8)">e</text><text xml:space="preserve" font-family="GillSans,Gill Sans" font-size="32.0" fill="#FEFFFF" transform="matrix(1.00, 0.00, -0.00, -1.00, 114.7, 118.8)">s</text><text xml:space="preserve" font-family="GillSans,Gill Sans" font-size="32.0" fill="#FEFFFF" transform="matrix(1.00, 0.00, -0.00, -1.00, 127.0, 118.8)">e</text><text xml:space="preserve" font-family="GillSans,Gill Sans" font-size="32.0" fill="#FEFFFF" transform="matrix(1.00, 0.00, -0.00, -1.00, 142.3, 118.8)">n</text><text xml:space="preserve" font-family="GillSans,Gill Sans" font-size="32.0" fill="#FEFFFF" transform="matrix(1.00, 0.00, -0.00, -1.00, 158.3, 118.8)">t</text><text xml:space="preserve" font-family="GillSans,Gill Sans" font-size="32.0" fill="#FEFFFF" transform="matrix(1.00, 0.00, -0.00, -1.00, 169.0, 118.8)">a</text><text xml:space="preserve" font-family="GillSans,Gill Sans" font-size="32.0" fill="#FEFFFF" transform="matrix(1.00, 0.00, -0.00, -1.00, 182.6, 118.8)">t</text><text xml:space="preserve" font-family="GillSans,Gill Sans" font-size="32.0" fill="#FEFFFF" transform="matrix(1.00, 0.00, -0.00, -1.00, 193.3, 118.8)">i</text><text xml:space="preserve" font-family="GillSans,Gill Sans" font-size="32.0" fill="#FEFFFF" transform="matrix(1.00, 0.00, -0.00, -1.00, 200.3, 118.8)">o</text><text xml:space="preserve" font-family="GillSans,Gill Sans" font-size="32.0" fill="#FEFFFF" transform="matrix(1.00, 0.00, -0.00, -1.00, 217.9, 118.8)">n</text><text xml:space="preserve" font-family="GillSans,Gill Sans" font-size="32.0" fill="#FEFFFF" transform="matrix(1.00, 0.00, -0.00, -1.00, 233.9, 118.8)">s</text><text xml:space="preserve" font-family="GillSans,Gill Sans" font-size="54.7" fill="#FEFFFF" transform="matrix(1.00, 0.00, -0.00, -1.00, 30.0, 50.9)">•</text><text xml:space="preserve" font-family="GillSans,Gill Sans" font-size="32.0" fill="#FEFFFF" transform="matrix(1.00, 0.00, -0.00, -1.00, 68.9, 59.2)">O</text><text xml:space="preserve" font-family="GillSans,Gill Sans" font-size="32.0" fill="#FEFFFF" transform="matrix(1.00, 0.00, -0.00, -1.00, 95.3, 59.2)">b</text><text xml:space="preserve" font-family="GillSans,Gill Sans" font-size="32.0" fill="#FEFFFF" transform="matrix(1.00, 0.00, -0.00, -1.00, 111.3, 59.2)">j</text><text xml:space="preserve" font-family="GillSans,Gill Sans" font-size="32.0" fill="#FEFFFF" transform="matrix(1.00, 0.00, -0.00, -1.00, 118.3, 59.2)">e</text><text xml:space="preserve" font-family="GillSans,Gill Sans" font-size="32.0" fill="#FEFFFF" transform="matrix(1.00, 0.00, -0.00, -1.00, 133.6, 59.2)">c</text><text xml:space="preserve" font-family="GillSans,Gill Sans" font-size="32.0" fill="#FEFFFF" transform="matrix(1.00, 0.00, -0.00, -1.00, 147.7, 59.2)">t</text><text xml:space="preserve" font-family="GillSans,Gill Sans" font-size="32.0" fill="#FEFFFF" transform="matrix(1.00, 0.00, -0.00, -1.00, 158.3, 59.2)"> </text><text xml:space="preserve" font-family="GillSans,Gill Sans" font-size="32.0" fill="#FEFFFF" transform="matrix(1.00, 0.00, -0.00, -1.00, 167.2, 59.2)">d</text><text xml:space="preserve" font-family="GillSans,Gill Sans" font-size="32.0" fill="#FEFFFF" transform="matrix(1.00, 0.00, -0.00, -1.00, 183.5, 59.2)">e</text><text xml:space="preserve" font-family="GillSans,Gill Sans" font-size="32.0" fill="#FEFFFF" transform="matrix(1.00, 0.00, -0.00, -1.00, 198.8, 59.2)">ﬁ</text><text xml:space="preserve" font-family="GillSans,Gill Sans" font-size="32.0" fill="#FEFFFF" transform="matrix(1.00, 0.00, -0.00, -1.00, 214.8, 59.2)">n</text><text xml:space="preserve" font-family="GillSans,Gill Sans" font-size="32.0" fill="#FEFFFF" transform="matrix(1.00, 0.00, -0.00, -1.00, 230.8, 59.2)">e</text><text xml:space="preserve" font-family="GillSans,Gill Sans" font-size="32.0" fill="#FEFFFF" transform="matrix(1.00, 0.00, -0.00, -1.00, 246.2, 59.2)">s</text><text xml:space="preserve" font-family="GillSans,Gill Sans" font-size="32.0" fill="#FEFFFF" transform="matrix(1.00, 0.00, -0.00, -1.00, 258.5, 59.2)"> </text><text xml:space="preserve" font-family="GillSans,Gill Sans" font-size="32.0" fill="#FEFFFF" transform="matrix(1.00, 0.00, -0.00, -1.00, 267.4, 59.2)">a</text><text xml:space="preserve" font-family="GillSans,Gill Sans" font-size="32.0" fill="#FEFFFF" transform="matrix(1.00, 0.00, -0.00, -1.00, 281.0, 59.2)"> </text><text xml:space="preserve" font-family="GillSans-Italic,Gill Sans" font-style="italic" font-size="32.0" fill="#FEFFFF" transform="matrix(1.00, 0.00, -0.00, -1.00, 289.9, 59.2)">s</text><text xml:space="preserve" font-family="GillSans-Italic,Gill Sans" font-style="italic" font-size="32.0" fill="#FEFFFF" transform="matrix(1.00, 0.00, -0.00, -1.00, 301.2, 59.2)">u</text><text xml:space="preserve" font-family="GillSans-Italic,Gill Sans" font-style="italic" font-size="32.0" fill="#FEFFFF" transform="matrix(1.00, 0.00, -0.00, -1.00, 316.3, 59.2)">b</text><text xml:space="preserve" font-family="GillSans-Italic,Gill Sans" font-style="italic" font-size="32.0" fill="#FEFFFF" transform="matrix(1.00, 0.00, -0.00, -1.00, 331.3, 59.2)">j</text><text xml:space="preserve" font-family="GillSans-Italic,Gill Sans" font-style="italic" font-size="32.0" fill="#FEFFFF" transform="matrix(1.00, 0.00, -0.00, -1.00, 337.3, 59.2)">e</text><text xml:space="preserve" font-family="GillSans-Italic,Gill Sans" font-style="italic" font-size="32.0" fill="#FEFFFF" transform="matrix(1.00, 0.00, -0.00, -1.00, 351.3, 59.2)">c</text><text xml:space="preserve" font-family="GillSans-Italic,Gill Sans" font-style="italic" font-size="32.0" fill="#FEFFFF" transform="matrix(1.00, 0.00, -0.00, -1.00, 363.6, 59.2)">t</text><text xml:space="preserve" font-family="GillSans-Italic,Gill Sans" font-style="italic" font-size="32.0" fill="#FEFFFF" transform="matrix(1.00, 0.00, -0.00, -1.00, 372.6, 59.2)"> </text><text xml:space="preserve" font-family="GillSans-Italic,Gill Sans" font-style="italic" font-size="32.0" fill="#FEFFFF" transform="matrix(1.00, 0.00, -0.00, -1.00, 68.9, 23.1)">d</text><text xml:space="preserve" font-family="GillSans-Italic,Gill Sans" font-style="italic" font-size="32.0" fill="#FEFFFF" transform="matrix(1.00, 0.00, -0.00, -1.00, 84.0, 23.1)">e</text><text xml:space="preserve" font-family="GillSans-Italic,Gill Sans" font-style="italic" font-size="32.0" fill="#FEFFFF" transform="matrix(1.00, 0.00, -0.00, -1.00, 98.0, 23.1)">ﬁ</text><text xml:space="preserve" font-family="GillSans-Italic,Gill Sans" font-style="italic" font-size="32.0" fill="#FEFFFF" transform="matrix(1.00, 0.00, -0.00, -1.00, 113.3, 23.1)">n</text><text xml:space="preserve" font-family="GillSans-Italic,Gill Sans" font-style="italic" font-size="32.0" fill="#FEFFFF" transform="matrix(1.00, 0.00, -0.00, -1.00, 128.3, 23.1)">i</text><text xml:space="preserve" font-family="GillSans-Italic,Gill Sans" font-style="italic" font-size="32.0" fill="#FEFFFF" transform="matrix(1.00, 0.00, -0.00, -1.00, 134.3, 23.1)">t</text><text xml:space="preserve" font-family="GillSans-Italic,Gill Sans" font-style="italic" font-size="32.0" fill="#FEFFFF" transform="matrix(1.00, 0.00, -0.00, -1.00, 143.3, 23.1)">i</text><text xml:space="preserve" font-family="GillSans-Italic,Gill Sans" font-style="italic" font-size="32.0" fill="#FEFFFF" transform="matrix(1.00, 0.00, -0.00, -1.00, 149.3, 23.1)">o</text><text xml:space="preserve" font-family="GillSans-Italic,Gill Sans" font-style="italic" font-size="32.0" fill="#FEFFFF" transform="matrix(1.00, 0.00, -0.00, -1.00, 163.7, 23.1)">n</text></g></g></g></svg>