<?xml version="1.0" encoding="UTF-8" standalone="no"?><svg xmlns="http://www.w3.org/2000/svg" xmlns:xlink="http://www.w3.org/1999/xlink" clip-rule="evenodd" stroke-miterlimit="10" viewBox="0 0 129 101"><desc>SVG generated by Keynote</desc><defs></defs><g transform="matrix(1.00, 0.00, -0.00, -1.00, 0.0, 101.0)"><g><clipPath id="clip0x7fcd2781a9a0"><path d="M -6.9 59.1 L 108.7 107.4 L 136.1 41.9 L 20.5 -6.4 Z M -6.9 59.1 "></path></clipPath><g clip-path="url(#clip0x7fcd2781a9a0)"><text xml:space="preserve" font-family="Mistral,Mistral" font-size="42.0" fill="#FF9200" transform="matrix(0.92, 0.39, 0.39, -0.92, 22.6, 17.1)">L</text><text xml:space="preserve" font-family="Mistral,Mistral" font-size="42.0" fill="#FF9200" transform="matrix(0.92, 0.39, 0.39, -0.92, 34.8, 22.1)">i</text><text xml:space="preserve" font-family="Mistral,Mistral" font-size="42.0" fill="#FF9200" transform="matrix(0.92, 0.39, 0.39, -0.92, 45.6, 26.7)">n</text><text xml:space="preserve" font-family="Mistral,Mistral" font-size="42.0" fill="#FF9200" transform="matrix(0.92, 0.39, 0.39, -0.92, 63.7, 34.2)">k</text><text xml:space="preserve" font-family="Mistral,Mistral" font-size="42.0" fill="#FF9200" transform="matrix(0.92, 0.39, 0.39, -0.92, 78.6, 40.5)">i</text><text xml:space="preserve" font-family="Mistral,Mistral" font-size="42.0" fill="#FF9200" transform="matrix(0.92, 0.39, 0.39, -0.92, 89.5, 45.0)">n</text><text xml:space="preserve" font-family="Mistral,Mistral" font-size="42.0" fill="#FF9200" transform="matrix(0.92, 0.39, 0.39, -0.92, 107.5, 52.6)">g</text></g></g><g><clipPath id="clip0x7fcd297bd1a0"><path d="M 15.5 90.3 L 108.6 90.3 L 108.6 95.3 L 15.5 95.3 Z M 15.5 90.3 "></path></clipPath><g clip-path="url(#clip0x7fcd297bd1a0)"><path d="M 0.0 0.0 L 91.0 1.0 " fill="none" stroke="#FF9200" stroke-width="2.00" transform="matrix(1.00, 0.00, 0.00, -1.00, 16.6, 93.3)"></path></g></g></g></svg>