<?xml version="1.0" encoding="UTF-8" standalone="no"?><svg xmlns="http://www.w3.org/2000/svg" xmlns:xlink="http://www.w3.org/1999/xlink" clip-rule="evenodd" stroke-miterlimit="10" viewBox="0 0 132 36"><desc>SVG generated by Keynote</desc><defs></defs><g transform="matrix(1.00, 0.00, -0.00, -1.00, 0.0, 36.0)"><text xml:space="preserve" font-family="GillSans,Gill Sans" font-size="31.0" fill="#FEFFFF" transform="matrix(1.00, 0.00, -0.00, -1.00, 0.4, 8.1)">@</text><text xml:space="preserve" font-family="GillSans,Gill Sans" font-size="31.0" fill="#FEFFFF" transform="matrix(1.00, 0.00, -0.00, -1.00, 31.7, 8.1)">g</text><text xml:space="preserve" font-family="GillSans,Gill Sans" font-size="31.0" fill="#FEFFFF" transform="matrix(1.00, 0.00, -0.00, -1.00, 44.9, 8.1)">k</text><text xml:space="preserve" font-family="GillSans,Gill Sans" font-size="31.0" fill="#FEFFFF" transform="matrix(1.00, 0.00, -0.00, -1.00, 58.8, 8.1)">e</text><text xml:space="preserve" font-family="GillSans,Gill Sans" font-size="31.0" fill="#FEFFFF" transform="matrix(1.00, 0.00, -0.00, -1.00, 73.7, 8.1)">l</text><text xml:space="preserve" font-family="GillSans,Gill Sans" font-size="31.0" fill="#FEFFFF" transform="matrix(1.00, 0.00, -0.00, -1.00, 80.5, 8.1)">l</text><text xml:space="preserve" font-family="GillSans,Gill Sans" font-size="31.0" fill="#FEFFFF" transform="matrix(1.00, 0.00, -0.00, -1.00, 87.3, 8.1)">o</text><text xml:space="preserve" font-family="GillSans,Gill Sans" font-size="31.0" fill="#FEFFFF" transform="matrix(1.00, 0.00, -0.00, -1.00, 104.4, 8.1)">g</text><text xml:space="preserve" font-family="GillSans,Gill Sans" font-size="31.0" fill="#FEFFFF" transform="matrix(1.00, 0.00, -0.00, -1.00, 117.6, 8.1)">g</text><g><clipPath id="clip0x7fcd2ad036e0"><path d="M -0.6 4.0 L 130.8 4.0 L 130.8 7.6 L -0.6 7.6 Z M -0.6 4.0 "></path></clipPath><g clip-path="url(#clip0x7fcd2ad036e0)"><path d="M 4.5 34.2 L 135.0 34.2 " fill="none" stroke="#FEFFFF" stroke-width="1.54" transform="matrix(1.00, 0.00, 0.00, -1.00, -4.1, 40.0)"></path></g></g></g></svg>