<?xml version="1.0" encoding="UTF-8" standalone="no"?><svg xmlns="http://www.w3.org/2000/svg" xmlns:xlink="http://www.w3.org/1999/xlink" clip-rule="evenodd" stroke-miterlimit="10" viewBox="0 0 1024 768"><desc>SVG generated by Keynote</desc><defs></defs><g transform="matrix(1.00, 0.00, -0.00, -1.00, 0.0, 768.0)"><g><clipPath id="clip0x7fcd297cd970"><path d="M 0.0 768.0 L 1024.0 768.0 L 1024.0 0.0 L 0.0 0.0 Z M 0.0 768.0 "></path></clipPath><g clip-path="url(#clip0x7fcd297cd970)"><image xlink:href="../../AB5CD688-8641-4047-B2F5-A7551A6B8537/assets/4E131E180F71435CE7831D195B770FC0.jpeg" width="2048.00" height="1536.00" transform="matrix(0.50, 0.00, -0.00, -0.50, 0.0, 768.0)"></image></g></g><text xml:space="preserve" font-family="GillSans,Gill Sans" font-size="84.0" fill="#FEFFFF" transform="matrix(1.00, 0.00, -0.00, -1.00, 349.2, 402.4)">J</text><text xml:space="preserve" font-family="GillSans,Gill Sans" font-size="84.0" fill="#FEFFFF" transform="matrix(1.00, 0.00, -0.00, -1.00, 370.2, 402.4)">S</text><text xml:space="preserve" font-family="GillSans,Gill Sans" font-size="84.0" fill="#FEFFFF" transform="matrix(1.00, 0.00, -0.00, -1.00, 408.7, 402.4)">O</text><text xml:space="preserve" font-family="GillSans,Gill Sans" font-size="84.0" fill="#FEFFFF" transform="matrix(1.00, 0.00, -0.00, -1.00, 477.9, 402.4)">N</text><text xml:space="preserve" font-family="GillSans,Gill Sans" font-size="84.0" fill="#FEFFFF" transform="matrix(1.00, 0.00, -0.00, -1.00, 543.4, 402.4)">-</text><text xml:space="preserve" font-family="GillSans,Gill Sans" font-size="84.0" fill="#FEFFFF" transform="matrix(1.00, 0.00, -0.00, -1.00, 570.6, 402.4)">L</text><text xml:space="preserve" font-family="GillSans,Gill Sans" font-size="84.0" fill="#FEFFFF" transform="matrix(1.00, 0.00, -0.00, -1.00, 611.8, 402.4)">D</text><text xml:space="preserve" font-family="GillSans,Gill Sans" font-size="36.0" fill="#FEFFFF" transform="matrix(1.00, 0.00, -0.00, -1.00, 351.5, 335.3)">J</text><text xml:space="preserve" font-family="GillSans,Gill Sans" font-size="36.0" fill="#FEFFFF" transform="matrix(1.00, 0.00, -0.00, -1.00, 360.5, 335.3)">S</text><text xml:space="preserve" font-family="GillSans,Gill Sans" font-size="36.0" fill="#FEFFFF" transform="matrix(1.00, 0.00, -0.00, -1.00, 377.0, 335.3)">O</text><text xml:space="preserve" font-family="GillSans,Gill Sans" font-size="36.0" fill="#FEFFFF" transform="matrix(1.00, 0.00, -0.00, -1.00, 406.6, 335.3)">N</text><text xml:space="preserve" font-family="GillSans,Gill Sans" font-size="36.0" fill="#FEFFFF" transform="matrix(1.00, 0.00, -0.00, -1.00, 434.7, 335.3)"> </text><text xml:space="preserve" font-family="GillSans,Gill Sans" font-size="36.0" fill="#FEFFFF" transform="matrix(1.00, 0.00, -0.00, -1.00, 444.7, 335.3)">f</text><text xml:space="preserve" font-family="GillSans,Gill Sans" font-size="36.0" fill="#FEFFFF" transform="matrix(1.00, 0.00, -0.00, -1.00, 453.4, 335.3)">o</text><text xml:space="preserve" font-family="GillSans,Gill Sans" font-size="36.0" fill="#FEFFFF" transform="matrix(1.00, 0.00, -0.00, -1.00, 473.2, 335.3)">r</text><text xml:space="preserve" font-family="GillSans,Gill Sans" font-size="36.0" fill="#FEFFFF" transform="matrix(1.00, 0.00, -0.00, -1.00, 487.5, 335.3)"> </text><text xml:space="preserve" font-family="GillSans,Gill Sans" font-size="36.0" fill="#FEFFFF" transform="matrix(1.00, 0.00, -0.00, -1.00, 497.5, 335.3)">L</text><text xml:space="preserve" font-family="GillSans,Gill Sans" font-size="36.0" fill="#FEFFFF" transform="matrix(1.00, 0.00, -0.00, -1.00, 515.1, 335.3)">i</text><text xml:space="preserve" font-family="GillSans,Gill Sans" font-size="36.0" fill="#FEFFFF" transform="matrix(1.00, 0.00, -0.00, -1.00, 523.0, 335.3)">n</text><text xml:space="preserve" font-family="GillSans,Gill Sans" font-size="36.0" fill="#FEFFFF" transform="matrix(1.00, 0.00, -0.00, -1.00, 541.0, 335.3)">k</text><text xml:space="preserve" font-family="GillSans,Gill Sans" font-size="36.0" fill="#FEFFFF" transform="matrix(1.00, 0.00, -0.00, -1.00, 557.2, 335.3)">e</text><text xml:space="preserve" font-family="GillSans,Gill Sans" font-size="36.0" fill="#FEFFFF" transform="matrix(1.00, 0.00, -0.00, -1.00, 574.4, 335.3)">d</text><text xml:space="preserve" font-family="GillSans,Gill Sans" font-size="36.0" fill="#FEFFFF" transform="matrix(1.00, 0.00, -0.00, -1.00, 592.8, 335.3)"> </text><text xml:space="preserve" font-family="GillSans,Gill Sans" font-size="36.0" fill="#FEFFFF" transform="matrix(1.00, 0.00, -0.00, -1.00, 602.8, 335.3)">D</text><text xml:space="preserve" font-family="GillSans,Gill Sans" font-size="36.0" fill="#FEFFFF" transform="matrix(1.00, 0.00, -0.00, -1.00, 629.8, 335.3)">a</text><text xml:space="preserve" font-family="GillSans,Gill Sans" font-size="36.0" fill="#FEFFFF" transform="matrix(1.00, 0.00, -0.00, -1.00, 645.1, 335.3)">t</text><text xml:space="preserve" font-family="GillSans,Gill Sans" font-size="36.0" fill="#FEFFFF" transform="matrix(1.00, 0.00, -0.00, -1.00, 657.1, 335.3)">a</text><text xml:space="preserve" font-family="GillSans,Gill Sans" font-size="42.0" fill="#FEFFFF" transform="matrix(1.00, 0.00, -0.00, -1.00, 393.0, 160.7)">G</text><text xml:space="preserve" font-family="GillSans,Gill Sans" font-size="42.0" fill="#FEFFFF" transform="matrix(1.00, 0.00, -0.00, -1.00, 424.1, 160.7)">r</text><text xml:space="preserve" font-family="GillSans,Gill Sans" font-size="42.0" fill="#FEFFFF" transform="matrix(1.00, 0.00, -0.00, -1.00, 439.9, 160.7)">e</text><text xml:space="preserve" font-family="GillSans,Gill Sans" font-size="42.0" fill="#FEFFFF" transform="matrix(1.00, 0.00, -0.00, -1.00, 460.1, 160.7)">g</text><text xml:space="preserve" font-family="GillSans,Gill Sans" font-size="42.0" fill="#FEFFFF" transform="matrix(1.00, 0.00, -0.00, -1.00, 478.0, 160.7)">g</text><text xml:space="preserve" font-family="GillSans,Gill Sans" font-size="42.0" fill="#FEFFFF" transform="matrix(1.00, 0.00, -0.00, -1.00, 495.9, 160.7)"> </text><text xml:space="preserve" font-family="GillSans,Gill Sans" font-size="42.0" fill="#FEFFFF" transform="matrix(1.00, 0.00, -0.00, -1.00, 507.5, 160.7)">K</text><text xml:space="preserve" font-family="GillSans,Gill Sans" font-size="42.0" fill="#FEFFFF" transform="matrix(1.00, 0.00, -0.00, -1.00, 532.6, 160.7)">e</text><text xml:space="preserve" font-family="GillSans,Gill Sans" font-size="42.0" fill="#FEFFFF" transform="matrix(1.00, 0.00, -0.00, -1.00, 552.7, 160.7)">l</text><text xml:space="preserve" font-family="GillSans,Gill Sans" font-size="42.0" fill="#FEFFFF" transform="matrix(1.00, 0.00, -0.00, -1.00, 561.9, 160.7)">l</text><text xml:space="preserve" font-family="GillSans,Gill Sans" font-size="42.0" fill="#FEFFFF" transform="matrix(1.00, 0.00, -0.00, -1.00, 571.1, 160.7)">o</text><text xml:space="preserve" font-family="GillSans,Gill Sans" font-size="42.0" fill="#FEFFFF" transform="matrix(1.00, 0.00, -0.00, -1.00, 594.3, 160.7)">g</text><text xml:space="preserve" font-family="GillSans,Gill Sans" font-size="42.0" fill="#FEFFFF" transform="matrix(1.00, 0.00, -0.00, -1.00, 612.2, 160.7)">g</text><text xml:space="preserve" font-family="GillSans,Gill Sans" font-size="31.0" fill="#FEFFFF" transform="matrix(1.00, 0.00, -0.00, -1.00, 363.0, 101.1)">g</text><text xml:space="preserve" font-family="GillSans,Gill Sans" font-size="31.0" fill="#FEFFFF" transform="matrix(1.00, 0.00, -0.00, -1.00, 376.3, 101.1)">r</text><text xml:space="preserve" font-family="GillSans,Gill Sans" font-size="31.0" fill="#FEFFFF" transform="matrix(1.00, 0.00, -0.00, -1.00, 387.9, 101.1)">e</text><text xml:space="preserve" font-family="GillSans,Gill Sans" font-size="31.0" fill="#FEFFFF" transform="matrix(1.00, 0.00, -0.00, -1.00, 402.8, 101.1)">g</text><text xml:space="preserve" font-family="GillSans,Gill Sans" font-size="31.0" fill="#FEFFFF" transform="matrix(1.00, 0.00, -0.00, -1.00, 416.0, 101.1)">g</text><text xml:space="preserve" font-family="GillSans,Gill Sans" font-size="31.0" fill="#FEFFFF" transform="matrix(1.00, 0.00, -0.00, -1.00, 429.2, 101.1)">@</text><text xml:space="preserve" font-family="GillSans,Gill Sans" font-size="31.0" fill="#FEFFFF" transform="matrix(1.00, 0.00, -0.00, -1.00, 460.5, 101.1)">g</text><text xml:space="preserve" font-family="GillSans,Gill Sans" font-size="31.0" fill="#FEFFFF" transform="matrix(1.00, 0.00, -0.00, -1.00, 473.7, 101.1)">r</text><text xml:space="preserve" font-family="GillSans,Gill Sans" font-size="31.0" fill="#FEFFFF" transform="matrix(1.00, 0.00, -0.00, -1.00, 485.4, 101.1)">e</text><text xml:space="preserve" font-family="GillSans,Gill Sans" font-size="31.0" fill="#FEFFFF" transform="matrix(1.00, 0.00, -0.00, -1.00, 500.2, 101.1)">g</text><text xml:space="preserve" font-family="GillSans,Gill Sans" font-size="31.0" fill="#FEFFFF" transform="matrix(1.00, 0.00, -0.00, -1.00, 513.5, 101.1)">g</text><text xml:space="preserve" font-family="GillSans,Gill Sans" font-size="31.0" fill="#FEFFFF" transform="matrix(1.00, 0.00, -0.00, -1.00, 526.7, 101.1)">k</text><text xml:space="preserve" font-family="GillSans,Gill Sans" font-size="31.0" fill="#FEFFFF" transform="matrix(1.00, 0.00, -0.00, -1.00, 540.6, 101.1)">e</text><text xml:space="preserve" font-family="GillSans,Gill Sans" font-size="31.0" fill="#FEFFFF" transform="matrix(1.00, 0.00, -0.00, -1.00, 555.5, 101.1)">l</text><text xml:space="preserve" font-family="GillSans,Gill Sans" font-size="31.0" fill="#FEFFFF" transform="matrix(1.00, 0.00, -0.00, -1.00, 562.3, 101.1)">l</text><text xml:space="preserve" font-family="GillSans,Gill Sans" font-size="31.0" fill="#FEFFFF" transform="matrix(1.00, 0.00, -0.00, -1.00, 569.1, 101.1)">o</text><text xml:space="preserve" font-family="GillSans,Gill Sans" font-size="31.0" fill="#FEFFFF" transform="matrix(1.00, 0.00, -0.00, -1.00, 586.2, 101.1)">g</text><text xml:space="preserve" font-family="GillSans,Gill Sans" font-size="31.0" fill="#FEFFFF" transform="matrix(1.00, 0.00, -0.00, -1.00, 599.4, 101.1)">g</text><text xml:space="preserve" font-family="GillSans,Gill Sans" font-size="31.0" fill="#FEFFFF" transform="matrix(1.00, 0.00, -0.00, -1.00, 612.6, 101.1)">.</text><text xml:space="preserve" font-family="GillSans,Gill Sans" font-size="31.0" fill="#FEFFFF" transform="matrix(1.00, 0.00, -0.00, -1.00, 619.4, 101.1)">n</text><text xml:space="preserve" font-family="GillSans,Gill Sans" font-size="31.0" fill="#FEFFFF" transform="matrix(1.00, 0.00, -0.00, -1.00, 634.9, 101.1)">e</text><text xml:space="preserve" font-family="GillSans,Gill Sans" font-size="31.0" fill="#FEFFFF" transform="matrix(1.00, 0.00, -0.00, -1.00, 649.8, 101.1)">t</text><g><clipPath id="clip0x7fcd2ad18480"><path d="M 362.0 97.0 L 660.1 97.0 L 660.1 100.6 L 362.0 100.6 Z M 362.0 97.0 "></path></clipPath><g clip-path="url(#clip0x7fcd2ad18480)"><path d="M 4.5 34.2 L 301.6 34.2 " fill="none" stroke="#FEFFFF" stroke-width="1.54" transform="matrix(1.00, 0.00, 0.00, -1.00, 358.5, 133.0)"></path></g></g><text xml:space="preserve" font-family="GillSans,Gill Sans" font-size="31.0" fill="#FEFFFF" transform="matrix(1.00, 0.00, -0.00, -1.00, 446.4, 44.1)">@</text><text xml:space="preserve" font-family="GillSans,Gill Sans" font-size="31.0" fill="#FEFFFF" transform="matrix(1.00, 0.00, -0.00, -1.00, 477.7, 44.1)">g</text><text xml:space="preserve" font-family="GillSans,Gill Sans" font-size="31.0" fill="#FEFFFF" transform="matrix(1.00, 0.00, -0.00, -1.00, 490.9, 44.1)">k</text><text xml:space="preserve" font-family="GillSans,Gill Sans" font-size="31.0" fill="#FEFFFF" transform="matrix(1.00, 0.00, -0.00, -1.00, 504.8, 44.1)">e</text><text xml:space="preserve" font-family="GillSans,Gill Sans" font-size="31.0" fill="#FEFFFF" transform="matrix(1.00, 0.00, -0.00, -1.00, 519.7, 44.1)">l</text><text xml:space="preserve" font-family="GillSans,Gill Sans" font-size="31.0" fill="#FEFFFF" transform="matrix(1.00, 0.00, -0.00, -1.00, 526.5, 44.1)">l</text><text xml:space="preserve" font-family="GillSans,Gill Sans" font-size="31.0" fill="#FEFFFF" transform="matrix(1.00, 0.00, -0.00, -1.00, 533.3, 44.1)">o</text><text xml:space="preserve" font-family="GillSans,Gill Sans" font-size="31.0" fill="#FEFFFF" transform="matrix(1.00, 0.00, -0.00, -1.00, 550.4, 44.1)">g</text><text xml:space="preserve" font-family="GillSans,Gill Sans" font-size="31.0" fill="#FEFFFF" transform="matrix(1.00, 0.00, -0.00, -1.00, 563.6, 44.1)">g</text><g><clipPath id="clip0x7fcd2ad25ee0"><path d="M 445.4 40.0 L 576.8 40.0 L 576.8 43.6 L 445.4 43.6 Z M 445.4 40.0 "></path></clipPath><g clip-path="url(#clip0x7fcd2ad25ee0)"><path d="M 4.5 34.2 L 135.0 34.2 " fill="none" stroke="#FEFFFF" stroke-width="1.54" transform="matrix(1.00, 0.00, 0.00, -1.00, 441.9, 76.0)"></path></g></g><g><clipPath id="clip0x7fcd2ad26ed0"><path d="M 478.1 308.1 L 593.7 356.4 L 621.1 290.9 L 505.5 242.6 Z M 478.1 308.1 "></path></clipPath><g clip-path="url(#clip0x7fcd2ad26ed0)"><text xml:space="preserve" font-family="Mistral,Mistral" font-size="42.0" fill="#FF9200" transform="matrix(0.92, 0.39, 0.39, -0.92, 507.6, 266.1)">L</text><text xml:space="preserve" font-family="Mistral,Mistral" font-size="42.0" fill="#FF9200" transform="matrix(0.92, 0.39, 0.39, -0.92, 519.8, 271.1)">i</text><text xml:space="preserve" font-family="Mistral,Mistral" font-size="42.0" fill="#FF9200" transform="matrix(0.92, 0.39, 0.39, -0.92, 530.6, 275.7)">n</text><text xml:space="preserve" font-family="Mistral,Mistral" font-size="42.0" fill="#FF9200" transform="matrix(0.92, 0.39, 0.39, -0.92, 548.7, 283.2)">k</text><text xml:space="preserve" font-family="Mistral,Mistral" font-size="42.0" fill="#FF9200" transform="matrix(0.92, 0.39, 0.39, -0.92, 563.6, 289.5)">i</text><text xml:space="preserve" font-family="Mistral,Mistral" font-size="42.0" fill="#FF9200" transform="matrix(0.92, 0.39, 0.39, -0.92, 574.5, 294.0)">n</text><text xml:space="preserve" font-family="Mistral,Mistral" font-size="42.0" fill="#FF9200" transform="matrix(0.92, 0.39, 0.39, -0.92, 592.5, 301.6)">g</text></g></g><g><clipPath id="clip0x7fcd2ad2ae70"><path d="M 500.5 339.3 L 593.6 339.3 L 593.6 344.3 L 500.5 344.3 Z M 500.5 339.3 "></path></clipPath><g clip-path="url(#clip0x7fcd2ad2ae70)"><path d="M 0.0 0.0 L 91.0 1.0 " fill="none" stroke="#FF9200" stroke-width="2.00" transform="matrix(1.00, 0.00, 0.00, -1.00, 501.6, 342.3)"></path></g></g></g></svg>