<?xml version="1.0" encoding="UTF-8" standalone="no"?><svg xmlns="http://www.w3.org/2000/svg" xmlns:xlink="http://www.w3.org/1999/xlink" clip-rule="evenodd" stroke-miterlimit="10" viewBox="0 0 301 36"><desc>SVG generated by Keynote</desc><defs></defs><g transform="matrix(1.00, 0.00, -0.00, -1.00, 0.0, 36.0)"><text xml:space="preserve" font-family="GillSans,Gill Sans" font-size="31.0" fill="#FEFFFF" transform="matrix(1.00, 0.00, -0.00, -1.00, 2.0, 8.1)">g</text><text xml:space="preserve" font-family="GillSans,Gill Sans" font-size="31.0" fill="#FEFFFF" transform="matrix(1.00, 0.00, -0.00, -1.00, 15.3, 8.1)">r</text><text xml:space="preserve" font-family="GillSans,Gill Sans" font-size="31.0" fill="#FEFFFF" transform="matrix(1.00, 0.00, -0.00, -1.00, 26.9, 8.1)">e</text><text xml:space="preserve" font-family="GillSans,Gill Sans" font-size="31.0" fill="#FEFFFF" transform="matrix(1.00, 0.00, -0.00, -1.00, 41.8, 8.1)">g</text><text xml:space="preserve" font-family="GillSans,Gill Sans" font-size="31.0" fill="#FEFFFF" transform="matrix(1.00, 0.00, -0.00, -1.00, 55.0, 8.1)">g</text><text xml:space="preserve" font-family="GillSans,Gill Sans" font-size="31.0" fill="#FEFFFF" transform="matrix(1.00, 0.00, -0.00, -1.00, 68.2, 8.1)">@</text><text xml:space="preserve" font-family="GillSans,Gill Sans" font-size="31.0" fill="#FEFFFF" transform="matrix(1.00, 0.00, -0.00, -1.00, 99.5, 8.1)">g</text><text xml:space="preserve" font-family="GillSans,Gill Sans" font-size="31.0" fill="#FEFFFF" transform="matrix(1.00, 0.00, -0.00, -1.00, 112.7, 8.1)">r</text><text xml:space="preserve" font-family="GillSans,Gill Sans" font-size="31.0" fill="#FEFFFF" transform="matrix(1.00, 0.00, -0.00, -1.00, 124.4, 8.1)">e</text><text xml:space="preserve" font-family="GillSans,Gill Sans" font-size="31.0" fill="#FEFFFF" transform="matrix(1.00, 0.00, -0.00, -1.00, 139.2, 8.1)">g</text><text xml:space="preserve" font-family="GillSans,Gill Sans" font-size="31.0" fill="#FEFFFF" transform="matrix(1.00, 0.00, -0.00, -1.00, 152.5, 8.1)">g</text><text xml:space="preserve" font-family="GillSans,Gill Sans" font-size="31.0" fill="#FEFFFF" transform="matrix(1.00, 0.00, -0.00, -1.00, 165.7, 8.1)">k</text><text xml:space="preserve" font-family="GillSans,Gill Sans" font-size="31.0" fill="#FEFFFF" transform="matrix(1.00, 0.00, -0.00, -1.00, 179.6, 8.1)">e</text><text xml:space="preserve" font-family="GillSans,Gill Sans" font-size="31.0" fill="#FEFFFF" transform="matrix(1.00, 0.00, -0.00, -1.00, 194.5, 8.1)">l</text><text xml:space="preserve" font-family="GillSans,Gill Sans" font-size="31.0" fill="#FEFFFF" transform="matrix(1.00, 0.00, -0.00, -1.00, 201.3, 8.1)">l</text><text xml:space="preserve" font-family="GillSans,Gill Sans" font-size="31.0" fill="#FEFFFF" transform="matrix(1.00, 0.00, -0.00, -1.00, 208.1, 8.1)">o</text><text xml:space="preserve" font-family="GillSans,Gill Sans" font-size="31.0" fill="#FEFFFF" transform="matrix(1.00, 0.00, -0.00, -1.00, 225.2, 8.1)">g</text><text xml:space="preserve" font-family="GillSans,Gill Sans" font-size="31.0" fill="#FEFFFF" transform="matrix(1.00, 0.00, -0.00, -1.00, 238.4, 8.1)">g</text><text xml:space="preserve" font-family="GillSans,Gill Sans" font-size="31.0" fill="#FEFFFF" transform="matrix(1.00, 0.00, -0.00, -1.00, 251.6, 8.1)">.</text><text xml:space="preserve" font-family="GillSans,Gill Sans" font-size="31.0" fill="#FEFFFF" transform="matrix(1.00, 0.00, -0.00, -1.00, 258.4, 8.1)">n</text><text xml:space="preserve" font-family="GillSans,Gill Sans" font-size="31.0" fill="#FEFFFF" transform="matrix(1.00, 0.00, -0.00, -1.00, 273.9, 8.1)">e</text><text xml:space="preserve" font-family="GillSans,Gill Sans" font-size="31.0" fill="#FEFFFF" transform="matrix(1.00, 0.00, -0.00, -1.00, 288.8, 8.1)">t</text><g><clipPath id="clip0x7fcd29763a70"><path d="M 1.0 4.0 L 299.1 4.0 L 299.1 7.6 L 1.0 7.6 Z M 1.0 4.0 "></path></clipPath><g clip-path="url(#clip0x7fcd29763a70)"><path d="M 4.5 34.2 L 301.6 34.2 " fill="none" stroke="#FEFFFF" stroke-width="1.54" transform="matrix(1.00, 0.00, 0.00, -1.00, -2.5, 40.0)"></path></g></g></g></svg>