<?xml version="1.0" encoding="UTF-8" standalone="no"?><svg xmlns="http://www.w3.org/2000/svg" xmlns:xlink="http://www.w3.org/1999/xlink" clip-rule="evenodd" stroke-miterlimit="10" viewBox="0 0 1024 768"><desc>SVG generated by Keynote</desc><defs><linearGradient id="gradSh1.0" x1="0.0" y1="0.0" x2="100.0" y2="0.0" gradientUnits="userSpaceOnUse" gradientTransform="matrix(0.00, -1.02, -1.02, 0.00, 512.0, 345.0)"><stop offset="0.00000" stop-color="#0066C1"></stop><stop offset="0.00147" stop-color="#0065C0"></stop><stop offset="0.05352" stop-color="#0164BE"></stop><stop offset="0.06378" stop-color="#0163BE"></stop><stop offset="0.15982" stop-color="#0260B9"></stop><stop offset="0.17669" stop-color="#0260B8"></stop><stop offset="0.37243" stop-color="#045AB0"></stop><stop offset="0.37390" stop-color="#045AAF"></stop><stop offset="0.79692" stop-color="#084C9C"></stop><stop offset="0.80938" stop-color="#084B9C"></stop><stop offset="1.00000" stop-color="#094593"></stop></linearGradient></defs><g transform="matrix(1.00, 0.00, -0.00, -1.00, 0.0, 768.0)"><g><clipPath id="clip0x7fcd222a20e0"><path d="M 0.0 768.0 L 1024.0 768.0 L 1024.0 0.0 L 0.0 0.0 Z M 0.0 768.0 "></path></clipPath><g clip-path="url(#clip0x7fcd222a20e0)"><image xlink:href="../../91442AAD-F006-493B-88D1-0BD5660DF9EE/assets/4E131E180F71435CE7831D195B770FC0.jpeg" width="2048.00" height="1536.00" transform="matrix(0.50, 0.00, -0.00, -0.50, 0.0, 768.0)"></image></g></g><text xml:space="preserve" font-family="GillSans,Gill Sans" font-size="84.0" fill="#FEFFFF" transform="matrix(1.00, 0.00, -0.00, -1.00, 147.9, 667.4)">D</text><text xml:space="preserve" font-family="GillSans,Gill Sans" font-size="84.0" fill="#FEFFFF" transform="matrix(1.00, 0.00, -0.00, -1.00, 210.9, 667.4)">i</text><text xml:space="preserve" font-family="GillSans,Gill Sans" font-size="84.0" fill="#FEFFFF" transform="matrix(1.00, 0.00, -0.00, -1.00, 229.3, 667.4)">g</text><text xml:space="preserve" font-family="GillSans,Gill Sans" font-size="84.0" fill="#FEFFFF" transform="matrix(1.00, 0.00, -0.00, -1.00, 265.2, 667.4)">r</text><text xml:space="preserve" font-family="GillSans,Gill Sans" font-size="84.0" fill="#FEFFFF" transform="matrix(1.00, 0.00, -0.00, -1.00, 296.8, 667.4)">e</text><text xml:space="preserve" font-family="GillSans,Gill Sans" font-size="84.0" fill="#FEFFFF" transform="matrix(1.00, 0.00, -0.00, -1.00, 337.0, 667.4)">s</text><text xml:space="preserve" font-family="GillSans,Gill Sans" font-size="84.0" fill="#FEFFFF" transform="matrix(1.00, 0.00, -0.00, -1.00, 369.3, 667.4)">s</text><text xml:space="preserve" font-family="GillSans,Gill Sans" font-size="84.0" fill="#FEFFFF" transform="matrix(1.00, 0.00, -0.00, -1.00, 401.6, 667.4)">i</text><text xml:space="preserve" font-family="GillSans,Gill Sans" font-size="84.0" fill="#FEFFFF" transform="matrix(1.00, 0.00, -0.00, -1.00, 420.0, 667.4)">o</text><text xml:space="preserve" font-family="GillSans,Gill Sans" font-size="84.0" fill="#FEFFFF" transform="matrix(1.00, 0.00, -0.00, -1.00, 466.4, 667.4)">n</text><text xml:space="preserve" font-family="GillSans,Gill Sans" font-size="84.0" fill="#FEFFFF" transform="matrix(1.00, 0.00, -0.00, -1.00, 508.4, 667.4)">:</text><text xml:space="preserve" font-family="GillSans,Gill Sans" font-size="84.0" fill="#FEFFFF" transform="matrix(1.00, 0.00, -0.00, -1.00, 518.4, 667.4)"> </text><text xml:space="preserve" font-family="GillSans,Gill Sans" font-size="84.0" fill="#FEFFFF" transform="matrix(1.00, 0.00, -0.00, -1.00, 541.7, 667.4)">S</text><text xml:space="preserve" font-family="GillSans,Gill Sans" font-size="84.0" fill="#FEFFFF" transform="matrix(1.00, 0.00, -0.00, -1.00, 580.2, 667.4)">e</text><text xml:space="preserve" font-family="GillSans,Gill Sans" font-size="84.0" fill="#FEFFFF" transform="matrix(1.00, 0.00, -0.00, -1.00, 620.4, 667.4)">r</text><text xml:space="preserve" font-family="GillSans,Gill Sans" font-size="84.0" fill="#FEFFFF" transform="matrix(1.00, 0.00, -0.00, -1.00, 653.7, 667.4)">i</text><text xml:space="preserve" font-family="GillSans,Gill Sans" font-size="84.0" fill="#FEFFFF" transform="matrix(1.00, 0.00, -0.00, -1.00, 672.1, 667.4)">a</text><text xml:space="preserve" font-family="GillSans,Gill Sans" font-size="84.0" fill="#FEFFFF" transform="matrix(1.00, 0.00, -0.00, -1.00, 707.9, 667.4)">l</text><text xml:space="preserve" font-family="GillSans,Gill Sans" font-size="84.0" fill="#FEFFFF" transform="matrix(1.00, 0.00, -0.00, -1.00, 726.4, 667.4)">i</text><text xml:space="preserve" font-family="GillSans,Gill Sans" font-size="84.0" fill="#FEFFFF" transform="matrix(1.00, 0.00, -0.00, -1.00, 744.8, 667.4)">z</text><text xml:space="preserve" font-family="GillSans,Gill Sans" font-size="84.0" fill="#FEFFFF" transform="matrix(1.00, 0.00, -0.00, -1.00, 779.8, 667.4)">i</text><text xml:space="preserve" font-family="GillSans,Gill Sans" font-size="84.0" fill="#FEFFFF" transform="matrix(1.00, 0.00, -0.00, -1.00, 798.3, 667.4)">n</text><text xml:space="preserve" font-family="GillSans,Gill Sans" font-size="84.0" fill="#FEFFFF" transform="matrix(1.00, 0.00, -0.00, -1.00, 840.3, 667.4)">g</text><text xml:space="preserve" font-family="GillSans,Gill Sans" font-size="84.0" fill="#FEFFFF" transform="matrix(1.00, 0.00, -0.00, -1.00, 876.1, 667.4)"> </text><g><clipPath id="clip0x7fcd21ea07b0"><path d="M 79.9 560.0 L 944.1 560.0 L 944.1 744.0 L 79.9 744.0 Z M 79.9 560.0 "></path></clipPath><g clip-path="url(#clip0x7fcd21ea07b0)"><text xml:space="preserve" font-family="GillSans,Gill Sans" font-size="84.0" fill="#FEFFFF" transform="matrix(1.00, 0.00, -0.00, -1.00, 435.4, 571.4)">R</text><text xml:space="preserve" font-family="GillSans,Gill Sans" font-size="84.0" fill="#FEFFFF" transform="matrix(1.00, 0.00, -0.00, -1.00, 486.2, 571.4)">D</text><text xml:space="preserve" font-family="GillSans,Gill Sans" font-size="84.0" fill="#FEFFFF" transform="matrix(1.00, 0.00, -0.00, -1.00, 549.2, 571.4)">F</text></g></g><text xml:space="preserve" font-family="GillSans,Gill Sans" font-size="71.8" fill="#FEFFFF" transform="matrix(1.00, 0.00, -0.00, -1.00, 129.0, 477.6)">•</text><text xml:space="preserve" font-family="GillSans,Gill Sans" font-size="42.0" fill="#FEFFFF" transform="matrix(1.00, 0.00, -0.00, -1.00, 174.0, 487.7)">P</text><text xml:space="preserve" font-family="GillSans,Gill Sans" font-size="42.0" fill="#FEFFFF" transform="matrix(1.00, 0.00, -0.00, -1.00, 195.4, 487.7)">r</text><text xml:space="preserve" font-family="GillSans,Gill Sans" font-size="42.0" fill="#FEFFFF" transform="matrix(1.00, 0.00, -0.00, -1.00, 211.0, 487.7)">o</text><text xml:space="preserve" font-family="GillSans,Gill Sans" font-size="42.0" fill="#FEFFFF" transform="matrix(1.00, 0.00, -0.00, -1.00, 234.2, 487.7)">p</text><text xml:space="preserve" font-family="GillSans,Gill Sans" font-size="42.0" fill="#FEFFFF" transform="matrix(1.00, 0.00, -0.00, -1.00, 255.2, 487.7)">o</text><text xml:space="preserve" font-family="GillSans,Gill Sans" font-size="42.0" fill="#FEFFFF" transform="matrix(1.00, 0.00, -0.00, -1.00, 278.3, 487.7)">s</text><text xml:space="preserve" font-family="GillSans,Gill Sans" font-size="42.0" fill="#FEFFFF" transform="matrix(1.00, 0.00, -0.00, -1.00, 294.5, 487.7)">i</text><text xml:space="preserve" font-family="GillSans,Gill Sans" font-size="42.0" fill="#FEFFFF" transform="matrix(1.00, 0.00, -0.00, -1.00, 303.7, 487.7)">t</text><text xml:space="preserve" font-family="GillSans,Gill Sans" font-size="42.0" fill="#FEFFFF" transform="matrix(1.00, 0.00, -0.00, -1.00, 317.7, 487.7)">i</text><text xml:space="preserve" font-family="GillSans,Gill Sans" font-size="42.0" fill="#FEFFFF" transform="matrix(1.00, 0.00, -0.00, -1.00, 326.9, 487.7)">o</text><text xml:space="preserve" font-family="GillSans,Gill Sans" font-size="42.0" fill="#FEFFFF" transform="matrix(1.00, 0.00, -0.00, -1.00, 350.1, 487.7)">n</text><text xml:space="preserve" font-family="GillSans,Gill Sans" font-size="42.0" fill="#FEFFFF" transform="matrix(1.00, 0.00, -0.00, -1.00, 371.1, 487.7)">:</text><text xml:space="preserve" font-family="GillSans,Gill Sans" font-size="42.0" fill="#FEFFFF" transform="matrix(1.00, 0.00, -0.00, -1.00, 376.1, 487.7)"> </text><text xml:space="preserve" font-family="GillSans,Gill Sans" font-size="42.0" fill="#FEFFFF" transform="matrix(1.00, 0.00, -0.00, -1.00, 387.7, 487.7)">P</text><text xml:space="preserve" font-family="GillSans,Gill Sans" font-size="42.0" fill="#FEFFFF" transform="matrix(1.00, 0.00, -0.00, -1.00, 408.1, 487.7)">e</text><text xml:space="preserve" font-family="GillSans,Gill Sans" font-size="42.0" fill="#FEFFFF" transform="matrix(1.00, 0.00, -0.00, -1.00, 428.2, 487.7)">o</text><text xml:space="preserve" font-family="GillSans,Gill Sans" font-size="42.0" fill="#FEFFFF" transform="matrix(1.00, 0.00, -0.00, -1.00, 451.4, 487.7)">p</text><text xml:space="preserve" font-family="GillSans,Gill Sans" font-size="42.0" fill="#FEFFFF" transform="matrix(1.00, 0.00, -0.00, -1.00, 472.4, 487.7)">l</text><text xml:space="preserve" font-family="GillSans,Gill Sans" font-size="42.0" fill="#FEFFFF" transform="matrix(1.00, 0.00, -0.00, -1.00, 481.6, 487.7)">e</text><text xml:space="preserve" font-family="GillSans,Gill Sans" font-size="42.0" fill="#FEFFFF" transform="matrix(1.00, 0.00, -0.00, -1.00, 501.7, 487.7)"> </text><text xml:space="preserve" font-family="GillSans,Gill Sans" font-size="42.0" fill="#FEFFFF" transform="matrix(1.00, 0.00, -0.00, -1.00, 513.4, 487.7)">r</text><text xml:space="preserve" font-family="GillSans,Gill Sans" font-size="42.0" fill="#FEFFFF" transform="matrix(1.00, 0.00, -0.00, -1.00, 529.2, 487.7)">e</text><text xml:space="preserve" font-family="GillSans,Gill Sans" font-size="42.0" fill="#FEFFFF" transform="matrix(1.00, 0.00, -0.00, -1.00, 549.3, 487.7)">l</text><text xml:space="preserve" font-family="GillSans,Gill Sans" font-size="42.0" fill="#FEFFFF" transform="matrix(1.00, 0.00, -0.00, -1.00, 558.5, 487.7)">a</text><text xml:space="preserve" font-family="GillSans,Gill Sans" font-size="42.0" fill="#FEFFFF" transform="matrix(1.00, 0.00, -0.00, -1.00, 576.4, 487.7)">t</text><text xml:space="preserve" font-family="GillSans,Gill Sans" font-size="42.0" fill="#FEFFFF" transform="matrix(1.00, 0.00, -0.00, -1.00, 590.4, 487.7)">e</text><text xml:space="preserve" font-family="GillSans,Gill Sans" font-size="42.0" fill="#FEFFFF" transform="matrix(1.00, 0.00, -0.00, -1.00, 610.5, 487.7)"> </text><text xml:space="preserve" font-family="GillSans,Gill Sans" font-size="42.0" fill="#FEFFFF" transform="matrix(1.00, 0.00, -0.00, -1.00, 622.2, 487.7)">t</text><text xml:space="preserve" font-family="GillSans,Gill Sans" font-size="42.0" fill="#FEFFFF" transform="matrix(1.00, 0.00, -0.00, -1.00, 636.2, 487.7)">o</text><text xml:space="preserve" font-family="GillSans,Gill Sans" font-size="42.0" fill="#FEFFFF" transform="matrix(1.00, 0.00, -0.00, -1.00, 659.3, 487.7)"> </text><text xml:space="preserve" font-family="GillSans,Gill Sans" font-size="42.0" fill="#FEFFFF" transform="matrix(1.00, 0.00, -0.00, -1.00, 671.0, 487.7)">s</text><text xml:space="preserve" font-family="GillSans,Gill Sans" font-size="42.0" fill="#FEFFFF" transform="matrix(1.00, 0.00, -0.00, -1.00, 687.1, 487.7)">t</text><text xml:space="preserve" font-family="GillSans,Gill Sans" font-size="42.0" fill="#FEFFFF" transform="matrix(1.00, 0.00, -0.00, -1.00, 701.1, 487.7)">r</text><text xml:space="preserve" font-family="GillSans,Gill Sans" font-size="42.0" fill="#FEFFFF" transform="matrix(1.00, 0.00, -0.00, -1.00, 717.8, 487.7)">u</text><text xml:space="preserve" font-family="GillSans,Gill Sans" font-size="42.0" fill="#FEFFFF" transform="matrix(1.00, 0.00, -0.00, -1.00, 738.8, 487.7)">c</text><text xml:space="preserve" font-family="GillSans,Gill Sans" font-size="42.0" fill="#FEFFFF" transform="matrix(1.00, 0.00, -0.00, -1.00, 757.1, 487.7)">t</text><text xml:space="preserve" font-family="GillSans,Gill Sans" font-size="42.0" fill="#FEFFFF" transform="matrix(1.00, 0.00, -0.00, -1.00, 771.1, 487.7)">u</text><text xml:space="preserve" font-family="GillSans,Gill Sans" font-size="42.0" fill="#FEFFFF" transform="matrix(1.00, 0.00, -0.00, -1.00, 792.1, 487.7)">r</text><text xml:space="preserve" font-family="GillSans,Gill Sans" font-size="42.0" fill="#FEFFFF" transform="matrix(1.00, 0.00, -0.00, -1.00, 807.9, 487.7)">e</text><text xml:space="preserve" font-family="GillSans,Gill Sans" font-size="42.0" fill="#FEFFFF" transform="matrix(1.00, 0.00, -0.00, -1.00, 828.0, 487.7)">d</text><text xml:space="preserve" font-family="GillSans,Gill Sans" font-size="42.0" fill="#FEFFFF" transform="matrix(1.00, 0.00, -0.00, -1.00, 849.4, 487.7)"> </text><text xml:space="preserve" font-family="GillSans,Gill Sans" font-size="42.0" fill="#FEFFFF" transform="matrix(1.00, 0.00, -0.00, -1.00, 174.0, 438.7)">d</text><text xml:space="preserve" font-family="GillSans,Gill Sans" font-size="42.0" fill="#FEFFFF" transform="matrix(1.00, 0.00, -0.00, -1.00, 195.4, 438.7)">a</text><text xml:space="preserve" font-family="GillSans,Gill Sans" font-size="42.0" fill="#FEFFFF" transform="matrix(1.00, 0.00, -0.00, -1.00, 213.3, 438.7)">t</text><text xml:space="preserve" font-family="GillSans,Gill Sans" font-size="42.0" fill="#FEFFFF" transform="matrix(1.00, 0.00, -0.00, -1.00, 227.3, 438.7)">a</text><text xml:space="preserve" font-family="GillSans,Gill Sans" font-size="42.0" fill="#FEFFFF" transform="matrix(1.00, 0.00, -0.00, -1.00, 245.2, 438.7)"> </text><text xml:space="preserve" font-family="GillSans,Gill Sans" font-size="42.0" fill="#FEFFFF" transform="matrix(1.00, 0.00, -0.00, -1.00, 256.9, 438.7)">h</text><text xml:space="preserve" font-family="GillSans,Gill Sans" font-size="42.0" fill="#FEFFFF" transform="matrix(1.00, 0.00, -0.00, -1.00, 277.9, 438.7)">i</text><text xml:space="preserve" font-family="GillSans,Gill Sans" font-size="42.0" fill="#FEFFFF" transform="matrix(1.00, 0.00, -0.00, -1.00, 287.1, 438.7)">e</text><text xml:space="preserve" font-family="GillSans,Gill Sans" font-size="42.0" fill="#FEFFFF" transform="matrix(1.00, 0.00, -0.00, -1.00, 307.2, 438.7)">r</text><text xml:space="preserve" font-family="GillSans,Gill Sans" font-size="42.0" fill="#FEFFFF" transform="matrix(1.00, 0.00, -0.00, -1.00, 323.8, 438.7)">a</text><text xml:space="preserve" font-family="GillSans,Gill Sans" font-size="42.0" fill="#FEFFFF" transform="matrix(1.00, 0.00, -0.00, -1.00, 341.8, 438.7)">r</text><text xml:space="preserve" font-family="GillSans,Gill Sans" font-size="42.0" fill="#FEFFFF" transform="matrix(1.00, 0.00, -0.00, -1.00, 357.3, 438.7)">c</text><text xml:space="preserve" font-family="GillSans,Gill Sans" font-size="42.0" fill="#FEFFFF" transform="matrix(1.00, 0.00, -0.00, -1.00, 375.7, 438.7)">h</text><text xml:space="preserve" font-family="GillSans,Gill Sans" font-size="42.0" fill="#FEFFFF" transform="matrix(1.00, 0.00, -0.00, -1.00, 396.7, 438.7)">i</text><text xml:space="preserve" font-family="GillSans,Gill Sans" font-size="42.0" fill="#FEFFFF" transform="matrix(1.00, 0.00, -0.00, -1.00, 406.0, 438.7)">c</text><text xml:space="preserve" font-family="GillSans,Gill Sans" font-size="42.0" fill="#FEFFFF" transform="matrix(1.00, 0.00, -0.00, -1.00, 424.4, 438.7)">a</text><text xml:space="preserve" font-family="GillSans,Gill Sans" font-size="42.0" fill="#FEFFFF" transform="matrix(1.00, 0.00, -0.00, -1.00, 442.3, 438.7)">l</text><text xml:space="preserve" font-family="GillSans,Gill Sans" font-size="42.0" fill="#FEFFFF" transform="matrix(1.00, 0.00, -0.00, -1.00, 451.5, 438.7)">l</text><text xml:space="preserve" font-family="GillSans,Gill Sans" font-size="42.0" fill="#FEFFFF" transform="matrix(1.00, 0.00, -0.00, -1.00, 460.3, 438.7)">y</text><text xml:space="preserve" font-family="GillSans,Gill Sans" font-size="42.0" fill="#FEFFFF" transform="matrix(1.00, 0.00, -0.00, -1.00, 478.7, 438.7)"> </text><text xml:space="preserve" font-family="GillSans,Gill Sans" font-size="42.0" fill="#FEFFFF" transform="matrix(1.00, 0.00, -0.00, -1.00, 490.4, 438.7)">–</text><text xml:space="preserve" font-family="GillSans,Gill Sans" font-size="42.0" fill="#FEFFFF" transform="matrix(1.00, 0.00, -0.00, -1.00, 511.4, 438.7)"> </text><text xml:space="preserve" font-family="GillSans,Gill Sans" font-size="42.0" fill="#FEFFFF" transform="matrix(1.00, 0.00, -0.00, -1.00, 523.0, 438.7)">c</text><text xml:space="preserve" font-family="GillSans,Gill Sans" font-size="42.0" fill="#FEFFFF" transform="matrix(1.00, 0.00, -0.00, -1.00, 541.4, 438.7)">r</text><text xml:space="preserve" font-family="GillSans,Gill Sans" font-size="42.0" fill="#FEFFFF" transform="matrix(1.00, 0.00, -0.00, -1.00, 557.2, 438.7)">e</text><text xml:space="preserve" font-family="GillSans,Gill Sans" font-size="42.0" fill="#FEFFFF" transform="matrix(1.00, 0.00, -0.00, -1.00, 577.3, 438.7)">a</text><text xml:space="preserve" font-family="GillSans,Gill Sans" font-size="42.0" fill="#FEFFFF" transform="matrix(1.00, 0.00, -0.00, -1.00, 595.2, 438.7)">t</text><text xml:space="preserve" font-family="GillSans,Gill Sans" font-size="42.0" fill="#FEFFFF" transform="matrix(1.00, 0.00, -0.00, -1.00, 609.2, 438.7)">e</text><text xml:space="preserve" font-family="GillSans,Gill Sans" font-size="42.0" fill="#FEFFFF" transform="matrix(1.00, 0.00, -0.00, -1.00, 629.3, 438.7)"> </text><text xml:space="preserve" font-family="GillSans,Gill Sans" font-size="42.0" fill="#FEFFFF" transform="matrix(1.00, 0.00, -0.00, -1.00, 641.0, 438.7)">s</text><text xml:space="preserve" font-family="GillSans,Gill Sans" font-size="42.0" fill="#FEFFFF" transform="matrix(1.00, 0.00, -0.00, -1.00, 657.1, 438.7)">t</text><text xml:space="preserve" font-family="GillSans,Gill Sans" font-size="42.0" fill="#FEFFFF" transform="matrix(1.00, 0.00, -0.00, -1.00, 671.1, 438.7)">r</text><text xml:space="preserve" font-family="GillSans,Gill Sans" font-size="42.0" fill="#FEFFFF" transform="matrix(1.00, 0.00, -0.00, -1.00, 687.8, 438.7)">u</text><text xml:space="preserve" font-family="GillSans,Gill Sans" font-size="42.0" fill="#FEFFFF" transform="matrix(1.00, 0.00, -0.00, -1.00, 708.8, 438.7)">c</text><text xml:space="preserve" font-family="GillSans,Gill Sans" font-size="42.0" fill="#FEFFFF" transform="matrix(1.00, 0.00, -0.00, -1.00, 727.2, 438.7)">t</text><text xml:space="preserve" font-family="GillSans,Gill Sans" font-size="42.0" fill="#FEFFFF" transform="matrix(1.00, 0.00, -0.00, -1.00, 741.1, 438.7)">u</text><text xml:space="preserve" font-family="GillSans,Gill Sans" font-size="42.0" fill="#FEFFFF" transform="matrix(1.00, 0.00, -0.00, -1.00, 762.1, 438.7)">r</text><text xml:space="preserve" font-family="GillSans,Gill Sans" font-size="42.0" fill="#FEFFFF" transform="matrix(1.00, 0.00, -0.00, -1.00, 777.9, 438.7)">e</text><text xml:space="preserve" font-family="GillSans,Gill Sans" font-size="42.0" fill="#FEFFFF" transform="matrix(1.00, 0.00, -0.00, -1.00, 798.1, 438.7)"> </text><text xml:space="preserve" font-family="GillSans,Gill Sans" font-size="42.0" fill="#FEFFFF" transform="matrix(1.00, 0.00, -0.00, -1.00, 174.0, 389.7)">t</text><text xml:space="preserve" font-family="GillSans,Gill Sans" font-size="42.0" fill="#FEFFFF" transform="matrix(1.00, 0.00, -0.00, -1.00, 188.0, 389.7)">h</text><text xml:space="preserve" font-family="GillSans,Gill Sans" font-size="42.0" fill="#FEFFFF" transform="matrix(1.00, 0.00, -0.00, -1.00, 209.0, 389.7)">r</text><text xml:space="preserve" font-family="GillSans,Gill Sans" font-size="42.0" fill="#FEFFFF" transform="matrix(1.00, 0.00, -0.00, -1.00, 224.6, 389.7)">o</text><text xml:space="preserve" font-family="GillSans,Gill Sans" font-size="42.0" fill="#FEFFFF" transform="matrix(1.00, 0.00, -0.00, -1.00, 247.7, 389.7)">u</text><text xml:space="preserve" font-family="GillSans,Gill Sans" font-size="42.0" fill="#FEFFFF" transform="matrix(1.00, 0.00, -0.00, -1.00, 268.7, 389.7)">g</text><text xml:space="preserve" font-family="GillSans,Gill Sans" font-size="42.0" fill="#FEFFFF" transform="matrix(1.00, 0.00, -0.00, -1.00, 286.7, 389.7)">h</text><text xml:space="preserve" font-family="GillSans,Gill Sans" font-size="42.0" fill="#FEFFFF" transform="matrix(1.00, 0.00, -0.00, -1.00, 307.7, 389.7)"> </text><text xml:space="preserve" font-family="GillSans,Gill Sans" font-size="42.0" fill="#FEFFFF" transform="matrix(1.00, 0.00, -0.00, -1.00, 319.3, 389.7)">t</text><text xml:space="preserve" font-family="GillSans,Gill Sans" font-size="42.0" fill="#FEFFFF" transform="matrix(1.00, 0.00, -0.00, -1.00, 333.3, 389.7)">o</text><text xml:space="preserve" font-family="GillSans,Gill Sans" font-size="42.0" fill="#FEFFFF" transform="matrix(1.00, 0.00, -0.00, -1.00, 356.5, 389.7)">p</text><text xml:space="preserve" font-family="GillSans,Gill Sans" font-size="42.0" fill="#FEFFFF" transform="matrix(1.00, 0.00, -0.00, -1.00, 377.5, 389.7)">o</text><text xml:space="preserve" font-family="GillSans,Gill Sans" font-size="42.0" fill="#FEFFFF" transform="matrix(1.00, 0.00, -0.00, -1.00, 400.6, 389.7)">l</text><text xml:space="preserve" font-family="GillSans,Gill Sans" font-size="42.0" fill="#FEFFFF" transform="matrix(1.00, 0.00, -0.00, -1.00, 409.8, 389.7)">o</text><text xml:space="preserve" font-family="GillSans,Gill Sans" font-size="42.0" fill="#FEFFFF" transform="matrix(1.00, 0.00, -0.00, -1.00, 433.0, 389.7)">g</text><text xml:space="preserve" font-family="GillSans,Gill Sans" font-size="42.0" fill="#FEFFFF" transform="matrix(1.00, 0.00, -0.00, -1.00, 450.9, 389.7)">i</text><text xml:space="preserve" font-family="GillSans,Gill Sans" font-size="42.0" fill="#FEFFFF" transform="matrix(1.00, 0.00, -0.00, -1.00, 460.1, 389.7)">c</text><text xml:space="preserve" font-family="GillSans,Gill Sans" font-size="42.0" fill="#FEFFFF" transform="matrix(1.00, 0.00, -0.00, -1.00, 478.5, 389.7)">a</text><text xml:space="preserve" font-family="GillSans,Gill Sans" font-size="42.0" fill="#FEFFFF" transform="matrix(1.00, 0.00, -0.00, -1.00, 496.5, 389.7)">l</text><text xml:space="preserve" font-family="GillSans,Gill Sans" font-size="42.0" fill="#FEFFFF" transform="matrix(1.00, 0.00, -0.00, -1.00, 505.7, 389.7)">l</text><text xml:space="preserve" font-family="GillSans,Gill Sans" font-size="42.0" fill="#FEFFFF" transform="matrix(1.00, 0.00, -0.00, -1.00, 514.5, 389.7)">y</text><text xml:space="preserve" font-family="GillSans,Gill Sans" font-size="42.0" fill="#FEFFFF" transform="matrix(1.00, 0.00, -0.00, -1.00, 532.9, 389.7)"> </text><text xml:space="preserve" font-family="GillSans,Gill Sans" font-size="42.0" fill="#FEFFFF" transform="matrix(1.00, 0.00, -0.00, -1.00, 544.5, 389.7)">a</text><text xml:space="preserve" font-family="GillSans,Gill Sans" font-size="42.0" fill="#FEFFFF" transform="matrix(1.00, 0.00, -0.00, -1.00, 562.5, 389.7)">n</text><text xml:space="preserve" font-family="GillSans,Gill Sans" font-size="42.0" fill="#FEFFFF" transform="matrix(1.00, 0.00, -0.00, -1.00, 583.5, 389.7)">a</text><text xml:space="preserve" font-family="GillSans,Gill Sans" font-size="42.0" fill="#FEFFFF" transform="matrix(1.00, 0.00, -0.00, -1.00, 601.4, 389.7)">l</text><text xml:space="preserve" font-family="GillSans,Gill Sans" font-size="42.0" fill="#FEFFFF" transform="matrix(1.00, 0.00, -0.00, -1.00, 610.2, 389.7)">y</text><text xml:space="preserve" font-family="GillSans,Gill Sans" font-size="42.0" fill="#FEFFFF" transform="matrix(1.00, 0.00, -0.00, -1.00, 628.6, 389.7)">s</text><text xml:space="preserve" font-family="GillSans,Gill Sans" font-size="42.0" fill="#FEFFFF" transform="matrix(1.00, 0.00, -0.00, -1.00, 644.7, 389.7)">i</text><text xml:space="preserve" font-family="GillSans,Gill Sans" font-size="42.0" fill="#FEFFFF" transform="matrix(1.00, 0.00, -0.00, -1.00, 653.9, 389.7)">s</text><text xml:space="preserve" font-family="GillSans,Gill Sans" font-size="18.0" fill="#FEFFFF" transform="matrix(1.00, 0.00, -0.00, -1.00, 507.0, 18.1)">3</text><path d="M 56.0 327.0 L 266.0 327.0 L 266.0 261.0 L 56.0 261.0 Z M 55.7 327.0 " fill="#FEFFFE"></path><g><clipPath id="clip0x7fcd21f3b830"><path d="M 53.7 259.0 L 460.7 259.0 L 460.7 329.0 L 53.7 329.0 Z M 53.7 259.0 "></path></clipPath><g clip-path="url(#clip0x7fcd21f3b830)"><text xml:space="preserve" font-family="Courier,Courier" font-size="24.0" fill="#000000" transform="matrix(1.00, 0.00, -0.00, -1.00, 59.7, 299.9)">&lt;</text><text xml:space="preserve" font-family="Courier,Courier" font-size="24.0" fill="#000000" transform="matrix(1.00, 0.00, -0.00, -1.00, 74.1, 299.9)">a</text><text xml:space="preserve" font-family="Courier,Courier" font-size="24.0" fill="#000000" transform="matrix(1.00, 0.00, -0.00, -1.00, 88.5, 299.9)">&gt;</text><text xml:space="preserve" font-family="Courier,Courier" font-size="24.0" fill="#000000" transform="matrix(1.00, 0.00, -0.00, -1.00, 102.9, 299.9)"> </text><text xml:space="preserve" font-family="Courier,Courier" font-size="24.0" fill="#000000" transform="matrix(1.00, 0.00, -0.00, -1.00, 117.3, 299.9)">&lt;</text><text xml:space="preserve" font-family="Courier,Courier" font-size="24.0" fill="#000000" transform="matrix(1.00, 0.00, -0.00, -1.00, 131.7, 299.9)">b</text><text xml:space="preserve" font-family="Courier,Courier" font-size="24.0" fill="#000000" transform="matrix(1.00, 0.00, -0.00, -1.00, 146.1, 299.9)">&gt;</text><text xml:space="preserve" font-family="Courier,Courier" font-size="24.0" fill="#000000" transform="matrix(1.00, 0.00, -0.00, -1.00, 160.5, 299.9)"> </text><text xml:space="preserve" font-family="Courier,Courier" font-size="24.0" fill="#000000" transform="matrix(1.00, 0.00, -0.00, -1.00, 174.9, 299.9)">_</text><text xml:space="preserve" font-family="Courier,Courier" font-size="24.0" fill="#000000" transform="matrix(1.00, 0.00, -0.00, -1.00, 189.3, 299.9)">:</text><text xml:space="preserve" font-family="Courier,Courier" font-size="24.0" fill="#000000" transform="matrix(1.00, 0.00, -0.00, -1.00, 203.7, 299.9)">c</text><text xml:space="preserve" font-family="Courier,Courier" font-size="24.0" fill="#000000" transform="matrix(1.00, 0.00, -0.00, -1.00, 218.1, 299.9)"> </text><text xml:space="preserve" font-family="Courier,Courier" font-size="24.0" fill="#000000" transform="matrix(1.00, 0.00, -0.00, -1.00, 232.5, 299.9)">.</text><text xml:space="preserve" font-family="Courier,Courier" font-size="24.0" fill="#000000" transform="matrix(1.00, 0.00, -0.00, -1.00, 59.7, 270.9)">_</text><text xml:space="preserve" font-family="Courier,Courier" font-size="24.0" fill="#000000" transform="matrix(1.00, 0.00, -0.00, -1.00, 74.1, 270.9)">:</text><text xml:space="preserve" font-family="Courier,Courier" font-size="24.0" fill="#000000" transform="matrix(1.00, 0.00, -0.00, -1.00, 88.5, 270.9)">c</text><text xml:space="preserve" font-family="Courier,Courier" font-size="24.0" fill="#000000" transform="matrix(1.00, 0.00, -0.00, -1.00, 102.9, 270.9)"> </text><text xml:space="preserve" font-family="Courier,Courier" font-size="24.0" fill="#000000" transform="matrix(1.00, 0.00, -0.00, -1.00, 117.3, 270.9)">&lt;</text><text xml:space="preserve" font-family="Courier,Courier" font-size="24.0" fill="#000000" transform="matrix(1.00, 0.00, -0.00, -1.00, 131.7, 270.9)">d</text><text xml:space="preserve" font-family="Courier,Courier" font-size="24.0" fill="#000000" transform="matrix(1.00, 0.00, -0.00, -1.00, 146.1, 270.9)">&gt;</text><text xml:space="preserve" font-family="Courier,Courier" font-size="24.0" fill="#000000" transform="matrix(1.00, 0.00, -0.00, -1.00, 160.5, 270.9)"> </text><text xml:space="preserve" font-family="Courier,Courier" font-size="24.0" fill="#000000" transform="matrix(1.00, 0.00, -0.00, -1.00, 174.9, 270.9)">&lt;</text><text xml:space="preserve" font-family="Courier,Courier" font-size="24.0" fill="#000000" transform="matrix(1.00, 0.00, -0.00, -1.00, 189.3, 270.9)">f</text><text xml:space="preserve" font-family="Courier,Courier" font-size="24.0" fill="#000000" transform="matrix(1.00, 0.00, -0.00, -1.00, 203.7, 270.9)">&gt;</text><text xml:space="preserve" font-family="Courier,Courier" font-size="24.0" fill="#000000" transform="matrix(1.00, 0.00, -0.00, -1.00, 218.1, 270.9)"> </text><text xml:space="preserve" font-family="Courier,Courier" font-size="24.0" fill="#000000" transform="matrix(1.00, 0.00, -0.00, -1.00, 232.5, 270.9)">.</text></g></g><path d="M 644.0 312.0 L 926.0 312.0 L 926.0 275.0 L 644.0 275.0 Z M 643.7 312.5 " fill="#FEFFFE"></path><g><clipPath id="clip0x7fcd222983c0"><path d="M 641.7 273.5 L 928.3 273.5 L 928.3 314.5 L 641.7 314.5 Z M 641.7 273.5 "></path></clipPath><g clip-path="url(#clip0x7fcd222983c0)"><text xml:space="preserve" font-family="Courier,Courier" font-size="24.0" fill="#000000" transform="matrix(1.00, 0.00, -0.00, -1.00, 647.7, 285.4)">&lt;</text><text xml:space="preserve" font-family="Courier,Courier" font-size="24.0" fill="#000000" transform="matrix(1.00, 0.00, -0.00, -1.00, 662.1, 285.4)">a</text><text xml:space="preserve" font-family="Courier,Courier" font-size="24.0" fill="#000000" transform="matrix(1.00, 0.00, -0.00, -1.00, 676.5, 285.4)">&gt;</text><text xml:space="preserve" font-family="Courier,Courier" font-size="24.0" fill="#000000" transform="matrix(1.00, 0.00, -0.00, -1.00, 690.9, 285.4)"> </text><text xml:space="preserve" font-family="Courier,Courier" font-size="24.0" fill="#000000" transform="matrix(1.00, 0.00, -0.00, -1.00, 705.3, 285.4)">&lt;</text><text xml:space="preserve" font-family="Courier,Courier" font-size="24.0" fill="#000000" transform="matrix(1.00, 0.00, -0.00, -1.00, 719.7, 285.4)">b</text><text xml:space="preserve" font-family="Courier,Courier" font-size="24.0" fill="#000000" transform="matrix(1.00, 0.00, -0.00, -1.00, 734.1, 285.4)">&gt;</text><text xml:space="preserve" font-family="Courier,Courier" font-size="24.0" fill="#000000" transform="matrix(1.00, 0.00, -0.00, -1.00, 748.5, 285.4)"> </text><text xml:space="preserve" font-family="Courier,Courier" font-size="24.0" fill="#000000" transform="matrix(1.00, 0.00, -0.00, -1.00, 762.9, 285.4)">[</text><text xml:space="preserve" font-family="Courier,Courier" font-size="24.0" fill="#000000" transform="matrix(1.00, 0.00, -0.00, -1.00, 777.3, 285.4)">&lt;</text><text xml:space="preserve" font-family="Courier,Courier" font-size="24.0" fill="#000000" transform="matrix(1.00, 0.00, -0.00, -1.00, 791.7, 285.4)">d</text><text xml:space="preserve" font-family="Courier,Courier" font-size="24.0" fill="#000000" transform="matrix(1.00, 0.00, -0.00, -1.00, 806.1, 285.4)">&gt;</text><text xml:space="preserve" font-family="Courier,Courier" font-size="24.0" fill="#000000" transform="matrix(1.00, 0.00, -0.00, -1.00, 820.5, 285.4)"> </text><text xml:space="preserve" font-family="Courier,Courier" font-size="24.0" fill="#000000" transform="matrix(1.00, 0.00, -0.00, -1.00, 834.9, 285.4)">&lt;</text><text xml:space="preserve" font-family="Courier,Courier" font-size="24.0" fill="#000000" transform="matrix(1.00, 0.00, -0.00, -1.00, 849.3, 285.4)">f</text><text xml:space="preserve" font-family="Courier,Courier" font-size="24.0" fill="#000000" transform="matrix(1.00, 0.00, -0.00, -1.00, 863.7, 285.4)">&gt;</text><text xml:space="preserve" font-family="Courier,Courier" font-size="24.0" fill="#000000" transform="matrix(1.00, 0.00, -0.00, -1.00, 878.1, 285.4)">]</text><text xml:space="preserve" font-family="Courier,Courier" font-size="24.0" fill="#000000" transform="matrix(1.00, 0.00, -0.00, -1.00, 892.5, 285.4)"> </text><text xml:space="preserve" font-family="Courier,Courier" font-size="24.0" fill="#000000" transform="matrix(1.00, 0.00, -0.00, -1.00, 906.9, 285.4)">.</text></g></g><image xlink:href="C0FC09519A5A24C2DB905D5EC12D684A.png" width="112.00" height="112.00" transform="matrix(1.00, 0.00, -0.00, -1.00, 456.0, 350.0)" opacity="0.80"></image><g><clipPath id="clip0x7fcd221716c0"><path d="M 498.0 278.0 L 498.0 244.0 L 562.0 294.0 L 498.0 344.0 L 498.0 310.0 L 462.0 310.0 L 462.0 278.0 Z M 498.0 278.0 "></path></clipPath><g clip-path="url(#clip0x7fcd221716c0)"><path d="M 498.0 278.0 L 498.0 244.0 L 562.0 294.0 L 498.0 344.0 L 498.0 310.0 L 462.0 310.0 L 462.0 278.0 Z M 498.0 278.0 " fill="url(#gradSh1.0)"></path></g></g><text xml:space="preserve" font-family="GillSans,Gill Sans" font-size="68.2" fill="#FEFFFF" transform="matrix(1.00, 0.00, -0.00, -1.00, 149.0, 197.2)">•</text><text xml:space="preserve" font-family="GillSans,Gill Sans" font-size="39.9" fill="#FEFFFF" transform="matrix(1.00, 0.00, -0.00, -1.00, 191.8, 207.2)">S</text><text xml:space="preserve" font-family="GillSans,Gill Sans" font-size="39.9" fill="#FEFFFF" transform="matrix(1.00, 0.00, -0.00, -1.00, 210.0, 207.2)">u</text><text xml:space="preserve" font-family="GillSans,Gill Sans" font-size="39.9" fill="#FEFFFF" transform="matrix(1.00, 0.00, -0.00, -1.00, 230.0, 207.2)">b</text><text xml:space="preserve" font-family="GillSans,Gill Sans" font-size="39.9" fill="#FEFFFF" transform="matrix(1.00, 0.00, -0.00, -1.00, 249.9, 207.2)">j</text><text xml:space="preserve" font-family="GillSans,Gill Sans" font-size="39.9" fill="#FEFFFF" transform="matrix(1.00, 0.00, -0.00, -1.00, 258.7, 207.2)">e</text><text xml:space="preserve" font-family="GillSans,Gill Sans" font-size="39.9" fill="#FEFFFF" transform="matrix(1.00, 0.00, -0.00, -1.00, 277.8, 207.2)">c</text><text xml:space="preserve" font-family="GillSans,Gill Sans" font-size="39.9" fill="#FEFFFF" transform="matrix(1.00, 0.00, -0.00, -1.00, 295.3, 207.2)">t</text><text xml:space="preserve" font-family="GillSans,Gill Sans" font-size="39.9" fill="#FEFFFF" transform="matrix(1.00, 0.00, -0.00, -1.00, 308.6, 207.2)">s</text><text xml:space="preserve" font-family="GillSans,Gill Sans" font-size="39.9" fill="#FEFFFF" transform="matrix(1.00, 0.00, -0.00, -1.00, 323.9, 207.2)"> </text><text xml:space="preserve" font-family="GillSans,Gill Sans" font-size="39.9" fill="#FEFFFF" transform="matrix(1.00, 0.00, -0.00, -1.00, 335.0, 207.2)">w</text><text xml:space="preserve" font-family="GillSans,Gill Sans" font-size="39.9" fill="#FEFFFF" transform="matrix(1.00, 0.00, -0.00, -1.00, 363.7, 207.2)">i</text><text xml:space="preserve" font-family="GillSans,Gill Sans" font-size="39.9" fill="#FEFFFF" transform="matrix(1.00, 0.00, -0.00, -1.00, 372.4, 207.2)">t</text><text xml:space="preserve" font-family="GillSans,Gill Sans" font-size="39.9" fill="#FEFFFF" transform="matrix(1.00, 0.00, -0.00, -1.00, 385.7, 207.2)">h</text><text xml:space="preserve" font-family="GillSans,Gill Sans" font-size="39.9" fill="#FEFFFF" transform="matrix(1.00, 0.00, -0.00, -1.00, 405.7, 207.2)"> </text><text xml:space="preserve" font-family="GillSans,Gill Sans" font-size="39.9" fill="#FEFFFF" transform="matrix(1.00, 0.00, -0.00, -1.00, 416.8, 207.2)">t</text><text xml:space="preserve" font-family="GillSans,Gill Sans" font-size="39.9" fill="#FEFFFF" transform="matrix(1.00, 0.00, -0.00, -1.00, 430.0, 207.2)">y</text><text xml:space="preserve" font-family="GillSans,Gill Sans" font-size="39.9" fill="#FEFFFF" transform="matrix(1.00, 0.00, -0.00, -1.00, 447.5, 207.2)">p</text><text xml:space="preserve" font-family="GillSans,Gill Sans" font-size="39.9" fill="#FEFFFF" transform="matrix(1.00, 0.00, -0.00, -1.00, 467.5, 207.2)">e</text><text xml:space="preserve" font-family="GillSans,Gill Sans" font-size="39.9" fill="#FEFFFF" transform="matrix(1.00, 0.00, -0.00, -1.00, 486.6, 207.2)">s</text><text xml:space="preserve" font-family="GillSans,Gill Sans" font-size="68.2" fill="#FEFFFF" transform="matrix(1.00, 0.00, -0.00, -1.00, 149.0, 128.4)">•</text><text xml:space="preserve" font-family="GillSans,Gill Sans" font-size="39.9" fill="#FEFFFF" transform="matrix(1.00, 0.00, -0.00, -1.00, 191.8, 138.4)">O</text><text xml:space="preserve" font-family="GillSans,Gill Sans" font-size="39.9" fill="#FEFFFF" transform="matrix(1.00, 0.00, -0.00, -1.00, 224.6, 138.4)">u</text><text xml:space="preserve" font-family="GillSans,Gill Sans" font-size="39.9" fill="#FEFFFF" transform="matrix(1.00, 0.00, -0.00, -1.00, 244.6, 138.4)">t</text><text xml:space="preserve" font-family="GillSans,Gill Sans" font-size="39.9" fill="#FEFFFF" transform="matrix(1.00, 0.00, -0.00, -1.00, 257.8, 138.4)">g</text><text xml:space="preserve" font-family="GillSans,Gill Sans" font-size="39.9" fill="#FEFFFF" transform="matrix(1.00, 0.00, -0.00, -1.00, 274.5, 138.4)">o</text><text xml:space="preserve" font-family="GillSans,Gill Sans" font-size="39.9" fill="#FEFFFF" transform="matrix(1.00, 0.00, -0.00, -1.00, 296.5, 138.4)">i</text><text xml:space="preserve" font-family="GillSans,Gill Sans" font-size="39.9" fill="#FEFFFF" transform="matrix(1.00, 0.00, -0.00, -1.00, 305.2, 138.4)">n</text><text xml:space="preserve" font-family="GillSans,Gill Sans" font-size="39.9" fill="#FEFFFF" transform="matrix(1.00, 0.00, -0.00, -1.00, 325.2, 138.4)">g</text><text xml:space="preserve" font-family="GillSans,Gill Sans" font-size="39.9" fill="#FEFFFF" transform="matrix(1.00, 0.00, -0.00, -1.00, 342.2, 138.4)"> </text><text xml:space="preserve" font-family="GillSans,Gill Sans" font-size="39.9" fill="#FEFFFF" transform="matrix(1.00, 0.00, -0.00, -1.00, 353.3, 138.4)">l</text><text xml:space="preserve" font-family="GillSans,Gill Sans" font-size="39.9" fill="#FEFFFF" transform="matrix(1.00, 0.00, -0.00, -1.00, 362.0, 138.4)">i</text><text xml:space="preserve" font-family="GillSans,Gill Sans" font-size="39.9" fill="#FEFFFF" transform="matrix(1.00, 0.00, -0.00, -1.00, 370.8, 138.4)">n</text><text xml:space="preserve" font-family="GillSans,Gill Sans" font-size="39.9" fill="#FEFFFF" transform="matrix(1.00, 0.00, -0.00, -1.00, 390.7, 138.4)">k</text><text xml:space="preserve" font-family="GillSans,Gill Sans" font-size="39.9" fill="#FEFFFF" transform="matrix(1.00, 0.00, -0.00, -1.00, 409.9, 138.4)">s</text><text xml:space="preserve" font-family="GillSans,Gill Sans" font-size="39.9" fill="#FEFFFF" transform="matrix(1.00, 0.00, -0.00, -1.00, 425.2, 138.4)"> </text><text xml:space="preserve" font-family="GillSans,Gill Sans" font-size="39.9" fill="#FEFFFF" transform="matrix(1.00, 0.00, -0.00, -1.00, 436.3, 138.4)">&gt;</text><text xml:space="preserve" font-family="GillSans,Gill Sans" font-size="39.9" fill="#FEFFFF" transform="matrix(1.00, 0.00, -0.00, -1.00, 459.6, 138.4)"> </text><text xml:space="preserve" font-family="GillSans,Gill Sans" font-size="39.9" fill="#FEFFFF" transform="matrix(1.00, 0.00, -0.00, -1.00, 470.7, 138.4)">I</text><text xml:space="preserve" font-family="GillSans,Gill Sans" font-size="39.9" fill="#FEFFFF" transform="matrix(1.00, 0.00, -0.00, -1.00, 480.6, 138.4)">n</text><text xml:space="preserve" font-family="GillSans,Gill Sans" font-size="39.9" fill="#FEFFFF" transform="matrix(1.00, 0.00, -0.00, -1.00, 500.6, 138.4)">c</text><text xml:space="preserve" font-family="GillSans,Gill Sans" font-size="39.9" fill="#FEFFFF" transform="matrix(1.00, 0.00, -0.00, -1.00, 518.1, 138.4)">o</text><text xml:space="preserve" font-family="GillSans,Gill Sans" font-size="39.9" fill="#FEFFFF" transform="matrix(1.00, 0.00, -0.00, -1.00, 540.1, 138.4)">m</text><text xml:space="preserve" font-family="GillSans,Gill Sans" font-size="39.9" fill="#FEFFFF" transform="matrix(1.00, 0.00, -0.00, -1.00, 570.8, 138.4)">i</text><text xml:space="preserve" font-family="GillSans,Gill Sans" font-size="39.9" fill="#FEFFFF" transform="matrix(1.00, 0.00, -0.00, -1.00, 579.6, 138.4)">n</text><text xml:space="preserve" font-family="GillSans,Gill Sans" font-size="39.9" fill="#FEFFFF" transform="matrix(1.00, 0.00, -0.00, -1.00, 599.5, 138.4)">g</text><text xml:space="preserve" font-family="GillSans,Gill Sans" font-size="39.9" fill="#FEFFFF" transform="matrix(1.00, 0.00, -0.00, -1.00, 616.6, 138.4)"> </text><text xml:space="preserve" font-family="GillSans,Gill Sans" font-size="39.9" fill="#FEFFFF" transform="matrix(1.00, 0.00, -0.00, -1.00, 627.6, 138.4)">l</text><text xml:space="preserve" font-family="GillSans,Gill Sans" font-size="39.9" fill="#FEFFFF" transform="matrix(1.00, 0.00, -0.00, -1.00, 636.4, 138.4)">i</text><text xml:space="preserve" font-family="GillSans,Gill Sans" font-size="39.9" fill="#FEFFFF" transform="matrix(1.00, 0.00, -0.00, -1.00, 645.1, 138.4)">n</text><text xml:space="preserve" font-family="GillSans,Gill Sans" font-size="39.9" fill="#FEFFFF" transform="matrix(1.00, 0.00, -0.00, -1.00, 665.1, 138.4)">k</text><text xml:space="preserve" font-family="GillSans,Gill Sans" font-size="39.9" fill="#FEFFFF" transform="matrix(1.00, 0.00, -0.00, -1.00, 684.2, 138.4)">s</text><text xml:space="preserve" font-family="GillSans,Gill Sans" font-size="68.2" fill="#FEFFFF" transform="matrix(1.00, 0.00, -0.00, -1.00, 149.0, 59.6)">•</text><text xml:space="preserve" font-family="GillSans,Gill Sans" font-size="39.9" fill="#FEFFFF" transform="matrix(1.00, 0.00, -0.00, -1.00, 191.8, 69.6)">U</text><text xml:space="preserve" font-family="GillSans,Gill Sans" font-size="39.9" fill="#FEFFFF" transform="matrix(1.00, 0.00, -0.00, -1.00, 220.0, 69.6)">R</text><text xml:space="preserve" font-family="GillSans,Gill Sans" font-size="39.9" fill="#FEFFFF" transform="matrix(1.00, 0.00, -0.00, -1.00, 244.1, 69.6)">I</text><text xml:space="preserve" font-family="GillSans,Gill Sans" font-size="39.9" fill="#FEFFFF" transform="matrix(1.00, 0.00, -0.00, -1.00, 254.1, 69.6)">s</text><text xml:space="preserve" font-family="GillSans,Gill Sans" font-size="39.9" fill="#FEFFFF" transform="matrix(1.00, 0.00, -0.00, -1.00, 269.4, 69.6)"> </text><text xml:space="preserve" font-family="GillSans,Gill Sans" font-size="39.9" fill="#FEFFFF" transform="matrix(1.00, 0.00, -0.00, -1.00, 280.5, 69.6)">v</text><text xml:space="preserve" font-family="GillSans,Gill Sans" font-size="39.9" fill="#FEFFFF" transform="matrix(1.00, 0.00, -0.00, -1.00, 298.0, 69.6)">s</text><text xml:space="preserve" font-family="GillSans,Gill Sans" font-size="39.9" fill="#FEFFFF" transform="matrix(1.00, 0.00, -0.00, -1.00, 313.3, 69.6)"> </text><text xml:space="preserve" font-family="GillSans,Gill Sans" font-size="39.9" fill="#FEFFFF" transform="matrix(1.00, 0.00, -0.00, -1.00, 324.4, 69.6)">B</text><text xml:space="preserve" font-family="GillSans,Gill Sans" font-size="39.9" fill="#FEFFFF" transform="matrix(1.00, 0.00, -0.00, -1.00, 346.9, 69.6)">l</text><text xml:space="preserve" font-family="GillSans,Gill Sans" font-size="39.9" fill="#FEFFFF" transform="matrix(1.00, 0.00, -0.00, -1.00, 355.6, 69.6)">a</text><text xml:space="preserve" font-family="GillSans,Gill Sans" font-size="39.9" fill="#FEFFFF" transform="matrix(1.00, 0.00, -0.00, -1.00, 372.6, 69.6)">n</text><text xml:space="preserve" font-family="GillSans,Gill Sans" font-size="39.9" fill="#FEFFFF" transform="matrix(1.00, 0.00, -0.00, -1.00, 392.6, 69.6)">k</text><text xml:space="preserve" font-family="GillSans,Gill Sans" font-size="39.9" fill="#FEFFFF" transform="matrix(1.00, 0.00, -0.00, -1.00, 411.7, 69.6)"> </text><text xml:space="preserve" font-family="GillSans,Gill Sans" font-size="39.9" fill="#FEFFFF" transform="matrix(1.00, 0.00, -0.00, -1.00, 422.8, 69.6)">N</text><text xml:space="preserve" font-family="GillSans,Gill Sans" font-size="39.9" fill="#FEFFFF" transform="matrix(1.00, 0.00, -0.00, -1.00, 453.9, 69.6)">o</text><text xml:space="preserve" font-family="GillSans,Gill Sans" font-size="39.9" fill="#FEFFFF" transform="matrix(1.00, 0.00, -0.00, -1.00, 475.9, 69.6)">d</text><text xml:space="preserve" font-family="GillSans,Gill Sans" font-size="39.9" fill="#FEFFFF" transform="matrix(1.00, 0.00, -0.00, -1.00, 496.3, 69.6)">e</text><text xml:space="preserve" font-family="GillSans,Gill Sans" font-size="39.9" fill="#FEFFFF" transform="matrix(1.00, 0.00, -0.00, -1.00, 515.4, 69.6)">s</text></g></svg>