<?xml version="1.0" encoding="UTF-8" standalone="no"?><svg xmlns="http://www.w3.org/2000/svg" xmlns:xlink="http://www.w3.org/1999/xlink" clip-rule="evenodd" stroke-miterlimit="10" viewBox="0 0 1024 768"><desc>SVG generated by Keynote</desc><defs></defs><g transform="matrix(1.00, 0.00, -0.00, -1.00, 0.0, 768.0)"><path d="M 0.0 768.0 L 1024.0 768.0 L 1024.0 0.0 L 0.0 0.0 Z M 0.0 768.0 " fill="#FEFFFF"></path><text xml:space="preserve" font-family="Helvetica,Helvetica" font-size="12.0" fill="#000000" transform="matrix(1.00, 0.00, -0.00, -1.00, 434.4, 25.8)">B</text><text xml:space="preserve" font-family="Helvetica,Helvetica" font-size="12.0" fill="#000000" transform="matrix(1.00, 0.00, -0.00, -1.00, 442.4, 25.8)">e</text><text xml:space="preserve" font-family="Helvetica,Helvetica" font-size="12.0" fill="#000000" transform="matrix(1.00, 0.00, -0.00, -1.00, 449.1, 25.8)">r</text><text xml:space="preserve" font-family="Helvetica,Helvetica" font-size="12.0" fill="#000000" transform="matrix(1.00, 0.00, -0.00, -1.00, 453.1, 25.8)">l</text><text xml:space="preserve" font-family="Helvetica,Helvetica" font-size="12.0" fill="#000000" transform="matrix(1.00, 0.00, -0.00, -1.00, 455.7, 25.8)">i</text><text xml:space="preserve" font-family="Helvetica,Helvetica" font-size="12.0" fill="#000000" transform="matrix(1.00, 0.00, -0.00, -1.00, 458.4, 25.8)">n</text><text xml:space="preserve" font-family="Helvetica,Helvetica" font-size="12.0" fill="#000000" transform="matrix(1.00, 0.00, -0.00, -1.00, 465.1, 25.8)"> </text><text xml:space="preserve" font-family="Helvetica,Helvetica" font-size="12.0" fill="#000000" transform="matrix(1.00, 0.00, -0.00, -1.00, 468.4, 25.8)">S</text><text xml:space="preserve" font-family="Helvetica,Helvetica" font-size="12.0" fill="#000000" transform="matrix(1.00, 0.00, -0.00, -1.00, 476.4, 25.8)">e</text><text xml:space="preserve" font-family="Helvetica,Helvetica" font-size="12.0" fill="#000000" transform="matrix(1.00, 0.00, -0.00, -1.00, 483.1, 25.8)">m</text><text xml:space="preserve" font-family="Helvetica,Helvetica" font-size="12.0" fill="#000000" transform="matrix(1.00, 0.00, -0.00, -1.00, 493.1, 25.8)">a</text><text xml:space="preserve" font-family="Helvetica,Helvetica" font-size="12.0" fill="#000000" transform="matrix(1.00, 0.00, -0.00, -1.00, 499.8, 25.8)">n</text><text xml:space="preserve" font-family="Helvetica,Helvetica" font-size="12.0" fill="#000000" transform="matrix(1.00, 0.00, -0.00, -1.00, 506.5, 25.8)">t</text><text xml:space="preserve" font-family="Helvetica,Helvetica" font-size="12.0" fill="#000000" transform="matrix(1.00, 0.00, -0.00, -1.00, 509.8, 25.8)">i</text><text xml:space="preserve" font-family="Helvetica,Helvetica" font-size="12.0" fill="#000000" transform="matrix(1.00, 0.00, -0.00, -1.00, 512.5, 25.8)">c</text><text xml:space="preserve" font-family="Helvetica,Helvetica" font-size="12.0" fill="#000000" transform="matrix(1.00, 0.00, -0.00, -1.00, 518.5, 25.8)"> </text><text xml:space="preserve" font-family="Helvetica,Helvetica" font-size="12.0" fill="#000000" transform="matrix(1.00, 0.00, -0.00, -1.00, 521.8, 25.8)">W</text><text xml:space="preserve" font-family="Helvetica,Helvetica" font-size="12.0" fill="#000000" transform="matrix(1.00, 0.00, -0.00, -1.00, 532.9, 25.8)">e</text><text xml:space="preserve" font-family="Helvetica,Helvetica" font-size="12.0" fill="#000000" transform="matrix(1.00, 0.00, -0.00, -1.00, 539.6, 25.8)">b</text><text xml:space="preserve" font-family="Helvetica,Helvetica" font-size="12.0" fill="#000000" transform="matrix(1.00, 0.00, -0.00, -1.00, 546.3, 25.8)"> </text><text xml:space="preserve" font-family="Helvetica,Helvetica" font-size="12.0" fill="#000000" transform="matrix(1.00, 0.00, -0.00, -1.00, 549.6, 25.8)">M</text><text xml:space="preserve" font-family="Helvetica,Helvetica" font-size="12.0" fill="#000000" transform="matrix(1.00, 0.00, -0.00, -1.00, 559.6, 25.8)">e</text><text xml:space="preserve" font-family="Helvetica,Helvetica" font-size="12.0" fill="#000000" transform="matrix(1.00, 0.00, -0.00, -1.00, 566.3, 25.8)">e</text><text xml:space="preserve" font-family="Helvetica,Helvetica" font-size="12.0" fill="#000000" transform="matrix(1.00, 0.00, -0.00, -1.00, 572.9, 25.8)">t</text><text xml:space="preserve" font-family="Helvetica,Helvetica" font-size="12.0" fill="#000000" transform="matrix(1.00, 0.00, -0.00, -1.00, 576.3, 25.8)">u</text><text xml:space="preserve" font-family="Helvetica,Helvetica" font-size="12.0" fill="#000000" transform="matrix(1.00, 0.00, -0.00, -1.00, 582.9, 25.8)">p</text><text xml:space="preserve" font-family="Helvetica,Helvetica" font-size="12.0" fill="#000000" transform="matrix(1.00, 0.00, -0.00, -1.00, 107.2, 25.8)">J</text><text xml:space="preserve" font-family="Helvetica,Helvetica" font-size="12.0" fill="#000000" transform="matrix(1.00, 0.00, -0.00, -1.00, 113.2, 25.8)">u</text><text xml:space="preserve" font-family="Helvetica,Helvetica" font-size="12.0" fill="#000000" transform="matrix(1.00, 0.00, -0.00, -1.00, 119.9, 25.8)">n</text><text xml:space="preserve" font-family="Helvetica,Helvetica" font-size="12.0" fill="#000000" transform="matrix(1.00, 0.00, -0.00, -1.00, 126.6, 25.8)">e</text><text xml:space="preserve" font-family="Helvetica,Helvetica" font-size="12.0" fill="#000000" transform="matrix(1.00, 0.00, -0.00, -1.00, 133.2, 25.8)"> </text><text xml:space="preserve" font-family="Helvetica,Helvetica" font-size="12.0" fill="#000000" transform="matrix(1.00, 0.00, -0.00, -1.00, 136.6, 25.8)">2</text><text xml:space="preserve" font-family="Helvetica,Helvetica" font-size="12.0" fill="#000000" transform="matrix(1.00, 0.00, -0.00, -1.00, 143.2, 25.8)">0</text><text xml:space="preserve" font-family="Helvetica,Helvetica" font-size="12.0" fill="#000000" transform="matrix(1.00, 0.00, -0.00, -1.00, 149.9, 25.8)">1</text><text xml:space="preserve" font-family="Helvetica,Helvetica" font-size="12.0" fill="#000000" transform="matrix(1.00, 0.00, -0.00, -1.00, 156.6, 25.8)">5</text><text xml:space="preserve" font-family="Helvetica-Light,Helvetica" font-size="50.0" fill="#000000" transform="matrix(1.00, 0.00, -0.00, -1.00, 313.4, 629.5)">H</text><text xml:space="preserve" font-family="Helvetica-Light,Helvetica" font-size="50.0" fill="#000000" transform="matrix(1.00, 0.00, -0.00, -1.00, 349.5, 629.5)">e</text><text xml:space="preserve" font-family="Helvetica-Light,Helvetica" font-size="50.0" fill="#000000" transform="matrix(1.00, 0.00, -0.00, -1.00, 377.3, 629.5)">l</text><text xml:space="preserve" font-family="Helvetica-Light,Helvetica" font-size="50.0" fill="#000000" transform="matrix(1.00, 0.00, -0.00, -1.00, 388.4, 629.5)">l</text><text xml:space="preserve" font-family="Helvetica-Light,Helvetica" font-size="50.0" fill="#000000" transform="matrix(1.00, 0.00, -0.00, -1.00, 399.5, 629.5)">o</text><text xml:space="preserve" font-family="Helvetica-Light,Helvetica" font-size="50.0" fill="#000000" transform="matrix(1.00, 0.00, -0.00, -1.00, 427.3, 629.5)">,</text><text xml:space="preserve" font-family="Helvetica-Light,Helvetica" font-size="50.0" fill="#000000" transform="matrix(1.00, 0.00, -0.00, -1.00, 441.2, 629.5)"> </text><text xml:space="preserve" font-family="Helvetica-Light,Helvetica" font-size="50.0" fill="#000000" transform="matrix(1.00, 0.00, -0.00, -1.00, 455.1, 629.5)">w</text><text xml:space="preserve" font-family="Helvetica-Light,Helvetica" font-size="50.0" fill="#000000" transform="matrix(1.00, 0.00, -0.00, -1.00, 491.2, 629.5)">o</text><text xml:space="preserve" font-family="Helvetica-Light,Helvetica" font-size="50.0" fill="#000000" transform="matrix(1.00, 0.00, -0.00, -1.00, 519.0, 629.5)">r</text><text xml:space="preserve" font-family="Helvetica-Light,Helvetica" font-size="50.0" fill="#000000" transform="matrix(1.00, 0.00, -0.00, -1.00, 535.6, 629.5)">l</text><text xml:space="preserve" font-family="Helvetica-Light,Helvetica" font-size="50.0" fill="#000000" transform="matrix(1.00, 0.00, -0.00, -1.00, 546.7, 629.5)">d</text><text xml:space="preserve" font-family="Helvetica-Light,Helvetica" font-size="50.0" fill="#000000" transform="matrix(1.00, 0.00, -0.00, -1.00, 577.3, 629.5)">!</text><text xml:space="preserve" font-family="Helvetica-Light,Helvetica" font-size="50.0" fill="#000000" transform="matrix(1.00, 0.00, -0.00, -1.00, 593.9, 629.5)"> </text><text xml:space="preserve" font-family="Helvetica-Light,Helvetica" font-size="50.0" fill="#000000" transform="matrix(1.00, 0.00, -0.00, -1.00, 607.8, 629.5)">(</text><text xml:space="preserve" font-family="Helvetica-Light,Helvetica" font-size="50.0" fill="#000000" transform="matrix(1.00, 0.00, -0.00, -1.00, 624.5, 629.5)">2</text><text xml:space="preserve" font-family="Helvetica-Light,Helvetica" font-size="50.0" fill="#000000" transform="matrix(1.00, 0.00, -0.00, -1.00, 652.3, 629.5)">/</text><text xml:space="preserve" font-family="Helvetica-Light,Helvetica" font-size="50.0" fill="#000000" transform="matrix(1.00, 0.00, -0.00, -1.00, 666.2, 629.5)">2</text><text xml:space="preserve" font-family="Helvetica-Light,Helvetica" font-size="50.0" fill="#000000" transform="matrix(1.00, 0.00, -0.00, -1.00, 694.0, 629.5)">)</text><text xml:space="preserve" font-family="Helvetica-Light,Helvetica" font-size="27.0" fill="#000000" transform="matrix(1.00, 0.00, -0.00, -1.00, 79.0, 527.4)">•</text><text xml:space="preserve" font-family="Courier,Courier" font-size="36.0" fill="#000000" transform="matrix(1.00, 0.00, -0.00, -1.00, 114.0, 524.3)">c</text><text xml:space="preserve" font-family="Courier,Courier" font-size="36.0" fill="#000000" transform="matrix(1.00, 0.00, -0.00, -1.00, 135.6, 524.3)">a</text><text xml:space="preserve" font-family="Courier,Courier" font-size="36.0" fill="#000000" transform="matrix(1.00, 0.00, -0.00, -1.00, 157.2, 524.3)">t</text><text xml:space="preserve" font-family="Courier,Courier" font-size="36.0" fill="#000000" transform="matrix(1.00, 0.00, -0.00, -1.00, 178.8, 524.3)"> </text><text xml:space="preserve" font-family="Courier,Courier" font-size="36.0" fill="#000000" transform="matrix(1.00, 0.00, -0.00, -1.00, 200.4, 524.3)">h</text><text xml:space="preserve" font-family="Courier,Courier" font-size="36.0" fill="#000000" transform="matrix(1.00, 0.00, -0.00, -1.00, 222.0, 524.3)">e</text><text xml:space="preserve" font-family="Courier,Courier" font-size="36.0" fill="#000000" transform="matrix(1.00, 0.00, -0.00, -1.00, 243.6, 524.3)">l</text><text xml:space="preserve" font-family="Courier,Courier" font-size="36.0" fill="#000000" transform="matrix(1.00, 0.00, -0.00, -1.00, 265.2, 524.3)">l</text><text xml:space="preserve" font-family="Courier,Courier" font-size="36.0" fill="#000000" transform="matrix(1.00, 0.00, -0.00, -1.00, 286.9, 524.3)">o</text><text xml:space="preserve" font-family="Courier,Courier" font-size="36.0" fill="#000000" transform="matrix(1.00, 0.00, -0.00, -1.00, 308.5, 524.3)">2</text><text xml:space="preserve" font-family="Courier,Courier" font-size="36.0" fill="#000000" transform="matrix(1.00, 0.00, -0.00, -1.00, 330.1, 524.3)">.</text><text xml:space="preserve" font-family="Courier,Courier" font-size="36.0" fill="#000000" transform="matrix(1.00, 0.00, -0.00, -1.00, 351.7, 524.3)">r</text><text xml:space="preserve" font-family="Courier,Courier" font-size="36.0" fill="#000000" transform="matrix(1.00, 0.00, -0.00, -1.00, 373.3, 524.3)">b</text><text xml:space="preserve" font-family="LucidaGrande,Lucida Grande" font-size="36.0" fill="#000000" transform="matrix(1.00, 0.00, -0.00, -1.00, 394.8, 524.3)"> </text><text xml:space="preserve" font-family="LucidaGrande,Lucida Grande" font-size="36.0" fill="#000000" transform="matrix(1.00, 0.00, -0.00, -1.00, 114.0, 480.7)"> </text><text xml:space="preserve" font-family="LucidaGrande,Lucida Grande" font-size="36.0" fill="#000000" transform="matrix(1.00, 0.00, -0.00, -1.00, 114.0, 437.7)"> </text><text xml:space="preserve" font-family="LucidaGrande,Lucida Grande" font-size="36.0" fill="#000000" transform="matrix(1.00, 0.00, -0.00, -1.00, 114.0, 394.7)"> </text><text xml:space="preserve" font-family="LucidaGrande,Lucida Grande" font-size="36.0" fill="#000000" transform="matrix(1.00, 0.00, -0.00, -1.00, 114.0, 351.7)"> </text><text xml:space="preserve" font-family="LucidaGrande,Lucida Grande" font-size="36.0" fill="#000000" transform="matrix(1.00, 0.00, -0.00, -1.00, 114.0, 308.7)"> </text><text xml:space="preserve" font-family="Courier,Courier" font-size="27.0" fill="#000000" transform="matrix(1.00, 0.00, -0.00, -1.00, 79.0, 209.6)">•</text><text xml:space="preserve" font-family="Courier,Courier" font-size="36.0" fill="#000000" transform="matrix(1.00, 0.00, -0.00, -1.00, 114.0, 206.3)">r</text><text xml:space="preserve" font-family="Courier,Courier" font-size="36.0" fill="#000000" transform="matrix(1.00, 0.00, -0.00, -1.00, 135.6, 206.3)">u</text><text xml:space="preserve" font-family="Courier,Courier" font-size="36.0" fill="#000000" transform="matrix(1.00, 0.00, -0.00, -1.00, 157.2, 206.3)">b</text><text xml:space="preserve" font-family="Courier,Courier" font-size="36.0" fill="#000000" transform="matrix(1.00, 0.00, -0.00, -1.00, 178.8, 206.3)">y</text><text xml:space="preserve" font-family="Courier,Courier" font-size="36.0" fill="#000000" transform="matrix(1.00, 0.00, -0.00, -1.00, 200.4, 206.3)"> </text><text xml:space="preserve" font-family="Courier,Courier" font-size="36.0" fill="#000000" transform="matrix(1.00, 0.00, -0.00, -1.00, 222.0, 206.3)">h</text><text xml:space="preserve" font-family="Courier,Courier" font-size="36.0" fill="#000000" transform="matrix(1.00, 0.00, -0.00, -1.00, 243.6, 206.3)">e</text><text xml:space="preserve" font-family="Courier,Courier" font-size="36.0" fill="#000000" transform="matrix(1.00, 0.00, -0.00, -1.00, 265.2, 206.3)">l</text><text xml:space="preserve" font-family="Courier,Courier" font-size="36.0" fill="#000000" transform="matrix(1.00, 0.00, -0.00, -1.00, 286.9, 206.3)">l</text><text xml:space="preserve" font-family="Courier,Courier" font-size="36.0" fill="#000000" transform="matrix(1.00, 0.00, -0.00, -1.00, 308.5, 206.3)">o</text><text xml:space="preserve" font-family="Courier,Courier" font-size="36.0" fill="#000000" transform="matrix(1.00, 0.00, -0.00, -1.00, 330.1, 206.3)">2</text><text xml:space="preserve" font-family="Courier,Courier" font-size="36.0" fill="#000000" transform="matrix(1.00, 0.00, -0.00, -1.00, 351.7, 206.3)">.</text><text xml:space="preserve" font-family="Courier,Courier" font-size="36.0" fill="#000000" transform="matrix(1.00, 0.00, -0.00, -1.00, 373.3, 206.3)">r</text><text xml:space="preserve" font-family="Courier,Courier" font-size="36.0" fill="#000000" transform="matrix(1.00, 0.00, -0.00, -1.00, 394.9, 206.3)">b</text><text xml:space="preserve" font-family="Courier,Courier" font-size="36.0" fill="#000000" transform="matrix(1.00, 0.00, -0.00, -1.00, 416.5, 206.3)"> </text><text xml:space="preserve" font-family="Helvetica-Light,Helvetica" font-size="12.0" fill="#000000" transform="matrix(1.00, 0.00, -0.00, -1.00, 932.2, 25.8)">9</text><text xml:space="preserve" font-family="CourierNewPS-BoldMT,Courier New" font-weight="bold" font-size="20.0" fill="#000000" transform="matrix(1.00, 0.00, -0.00, -1.00, 118.8, 480.2)">r</text><text xml:space="preserve" font-family="CourierNewPS-BoldMT,Courier New" font-weight="bold" font-size="20.0" fill="#000000" transform="matrix(1.00, 0.00, -0.00, -1.00, 130.8, 480.2)">e</text><text xml:space="preserve" font-family="CourierNewPS-BoldMT,Courier New" font-weight="bold" font-size="20.0" fill="#000000" transform="matrix(1.00, 0.00, -0.00, -1.00, 142.8, 480.2)">q</text><text xml:space="preserve" font-family="CourierNewPS-BoldMT,Courier New" font-weight="bold" font-size="20.0" fill="#000000" transform="matrix(1.00, 0.00, -0.00, -1.00, 154.8, 480.2)">u</text><text xml:space="preserve" font-family="CourierNewPS-BoldMT,Courier New" font-weight="bold" font-size="20.0" fill="#000000" transform="matrix(1.00, 0.00, -0.00, -1.00, 166.8, 480.2)">i</text><text xml:space="preserve" font-family="CourierNewPS-BoldMT,Courier New" font-weight="bold" font-size="20.0" fill="#000000" transform="matrix(1.00, 0.00, -0.00, -1.00, 178.8, 480.2)">r</text><text xml:space="preserve" font-family="CourierNewPS-BoldMT,Courier New" font-weight="bold" font-size="20.0" fill="#000000" transform="matrix(1.00, 0.00, -0.00, -1.00, 190.8, 480.2)">e</text><text xml:space="preserve" font-family="CourierNewPSMT,Courier New" font-size="20.0" fill="#000000" transform="matrix(1.00, 0.00, -0.00, -1.00, 202.8, 480.2)"> </text><text xml:space="preserve" font-family="CourierNewPSMT,Courier New" font-size="20.0" fill="#CC1C00" transform="matrix(1.00, 0.00, -0.00, -1.00, 214.8, 480.2)">'</text><text xml:space="preserve" font-family="CourierNewPSMT,Courier New" font-size="20.0" fill="#CC1C00" transform="matrix(1.00, 0.00, -0.00, -1.00, 226.8, 480.2)">r</text><text xml:space="preserve" font-family="CourierNewPSMT,Courier New" font-size="20.0" fill="#CC1C00" transform="matrix(1.00, 0.00, -0.00, -1.00, 238.8, 480.2)">d</text><text xml:space="preserve" font-family="CourierNewPSMT,Courier New" font-size="20.0" fill="#CC1C00" transform="matrix(1.00, 0.00, -0.00, -1.00, 250.8, 480.2)">f</text><text xml:space="preserve" font-family="CourierNewPSMT,Courier New" font-size="20.0" fill="#CC1C00" transform="matrix(1.00, 0.00, -0.00, -1.00, 262.8, 480.2)">'</text><text xml:space="preserve" font-family="CourierNewPSMT,Courier New" font-size="20.0" fill="#000000" transform="matrix(1.00, 0.00, -0.00, -1.00, 274.8, 480.2)"> </text><text xml:space="preserve" font-family="CourierNewPS-BoldMT,Courier New" font-weight="bold" font-size="20.0" fill="#000000" transform="matrix(1.00, 0.00, -0.00, -1.00, 118.8, 457.2)">r</text><text xml:space="preserve" font-family="CourierNewPS-BoldMT,Courier New" font-weight="bold" font-size="20.0" fill="#000000" transform="matrix(1.00, 0.00, -0.00, -1.00, 130.8, 457.2)">e</text><text xml:space="preserve" font-family="CourierNewPS-BoldMT,Courier New" font-weight="bold" font-size="20.0" fill="#000000" transform="matrix(1.00, 0.00, -0.00, -1.00, 142.8, 457.2)">q</text><text xml:space="preserve" font-family="CourierNewPS-BoldMT,Courier New" font-weight="bold" font-size="20.0" fill="#000000" transform="matrix(1.00, 0.00, -0.00, -1.00, 154.8, 457.2)">u</text><text xml:space="preserve" font-family="CourierNewPS-BoldMT,Courier New" font-weight="bold" font-size="20.0" fill="#000000" transform="matrix(1.00, 0.00, -0.00, -1.00, 166.8, 457.2)">i</text><text xml:space="preserve" font-family="CourierNewPS-BoldMT,Courier New" font-weight="bold" font-size="20.0" fill="#000000" transform="matrix(1.00, 0.00, -0.00, -1.00, 178.8, 457.2)">r</text><text xml:space="preserve" font-family="CourierNewPS-BoldMT,Courier New" font-weight="bold" font-size="20.0" fill="#000000" transform="matrix(1.00, 0.00, -0.00, -1.00, 190.8, 457.2)">e</text><text xml:space="preserve" font-family="CourierNewPSMT,Courier New" font-size="20.0" fill="#000000" transform="matrix(1.00, 0.00, -0.00, -1.00, 202.8, 457.2)"> </text><text xml:space="preserve" font-family="CourierNewPSMT,Courier New" font-size="20.0" fill="#CC1C00" transform="matrix(1.00, 0.00, -0.00, -1.00, 214.8, 457.2)">'</text><text xml:space="preserve" font-family="CourierNewPSMT,Courier New" font-size="20.0" fill="#CC1C00" transform="matrix(1.00, 0.00, -0.00, -1.00, 226.8, 457.2)">r</text><text xml:space="preserve" font-family="CourierNewPSMT,Courier New" font-size="20.0" fill="#CC1C00" transform="matrix(1.00, 0.00, -0.00, -1.00, 238.8, 457.2)">d</text><text xml:space="preserve" font-family="CourierNewPSMT,Courier New" font-size="20.0" fill="#CC1C00" transform="matrix(1.00, 0.00, -0.00, -1.00, 250.8, 457.2)">f</text><text xml:space="preserve" font-family="CourierNewPSMT,Courier New" font-size="20.0" fill="#CC1C00" transform="matrix(1.00, 0.00, -0.00, -1.00, 262.8, 457.2)">/</text><text xml:space="preserve" font-family="CourierNewPSMT,Courier New" font-size="20.0" fill="#CC1C00" transform="matrix(1.00, 0.00, -0.00, -1.00, 274.8, 457.2)">n</text><text xml:space="preserve" font-family="CourierNewPSMT,Courier New" font-size="20.0" fill="#CC1C00" transform="matrix(1.00, 0.00, -0.00, -1.00, 286.8, 457.2)">t</text><text xml:space="preserve" font-family="CourierNewPSMT,Courier New" font-size="20.0" fill="#CC1C00" transform="matrix(1.00, 0.00, -0.00, -1.00, 298.8, 457.2)">r</text><text xml:space="preserve" font-family="CourierNewPSMT,Courier New" font-size="20.0" fill="#CC1C00" transform="matrix(1.00, 0.00, -0.00, -1.00, 310.8, 457.2)">i</text><text xml:space="preserve" font-family="CourierNewPSMT,Courier New" font-size="20.0" fill="#CC1C00" transform="matrix(1.00, 0.00, -0.00, -1.00, 322.9, 457.2)">p</text><text xml:space="preserve" font-family="CourierNewPSMT,Courier New" font-size="20.0" fill="#CC1C00" transform="matrix(1.00, 0.00, -0.00, -1.00, 334.9, 457.2)">l</text><text xml:space="preserve" font-family="CourierNewPSMT,Courier New" font-size="20.0" fill="#CC1C00" transform="matrix(1.00, 0.00, -0.00, -1.00, 346.9, 457.2)">e</text><text xml:space="preserve" font-family="CourierNewPSMT,Courier New" font-size="20.0" fill="#CC1C00" transform="matrix(1.00, 0.00, -0.00, -1.00, 358.9, 457.2)">s</text><text xml:space="preserve" font-family="CourierNewPSMT,Courier New" font-size="20.0" fill="#CC1C00" transform="matrix(1.00, 0.00, -0.00, -1.00, 370.9, 457.2)">'</text><text xml:space="preserve" font-family="CourierNewPSMT,Courier New" font-size="20.0" fill="#000000" transform="matrix(1.00, 0.00, -0.00, -1.00, 382.8, 457.2)"> </text><text xml:space="preserve" font-family="CourierNewPS-BoldMT,Courier New" font-weight="bold" font-size="20.0" fill="#000000" transform="matrix(1.00, 0.00, -0.00, -1.00, 118.8, 411.2)">i</text><text xml:space="preserve" font-family="CourierNewPS-BoldMT,Courier New" font-weight="bold" font-size="20.0" fill="#000000" transform="matrix(1.00, 0.00, -0.00, -1.00, 130.8, 411.2)">n</text><text xml:space="preserve" font-family="CourierNewPS-BoldMT,Courier New" font-weight="bold" font-size="20.0" fill="#000000" transform="matrix(1.00, 0.00, -0.00, -1.00, 142.8, 411.2)">c</text><text xml:space="preserve" font-family="CourierNewPS-BoldMT,Courier New" font-weight="bold" font-size="20.0" fill="#000000" transform="matrix(1.00, 0.00, -0.00, -1.00, 154.8, 411.2)">l</text><text xml:space="preserve" font-family="CourierNewPS-BoldMT,Courier New" font-weight="bold" font-size="20.0" fill="#000000" transform="matrix(1.00, 0.00, -0.00, -1.00, 166.8, 411.2)">u</text><text xml:space="preserve" font-family="CourierNewPS-BoldMT,Courier New" font-weight="bold" font-size="20.0" fill="#000000" transform="matrix(1.00, 0.00, -0.00, -1.00, 178.8, 411.2)">d</text><text xml:space="preserve" font-family="CourierNewPS-BoldMT,Courier New" font-weight="bold" font-size="20.0" fill="#000000" transform="matrix(1.00, 0.00, -0.00, -1.00, 190.8, 411.2)">e</text><text xml:space="preserve" font-family="CourierNewPSMT,Courier New" font-size="20.0" fill="#000000" transform="matrix(1.00, 0.00, -0.00, -1.00, 202.8, 411.2)"> </text><text xml:space="preserve" font-family="CourierNewPSMT,Courier New" font-size="20.0" fill="#000000" transform="matrix(1.00, 0.00, -0.00, -1.00, 214.8, 411.2)">R</text><text xml:space="preserve" font-family="CourierNewPSMT,Courier New" font-size="20.0" fill="#000000" transform="matrix(1.00, 0.00, -0.00, -1.00, 226.8, 411.2)">D</text><text xml:space="preserve" font-family="CourierNewPSMT,Courier New" font-size="20.0" fill="#000000" transform="matrix(1.00, 0.00, -0.00, -1.00, 238.8, 411.2)">F</text><text xml:space="preserve" font-family="CourierNewPSMT,Courier New" font-size="20.0" fill="#000000" transform="matrix(1.00, 0.00, -0.00, -1.00, 250.8, 411.2)"> </text><text xml:space="preserve" font-family="CourierNewPSMT,Courier New" font-size="20.0" fill="#000000" transform="matrix(1.00, 0.00, -0.00, -1.00, 118.8, 365.2)">g</text><text xml:space="preserve" font-family="CourierNewPSMT,Courier New" font-size="20.0" fill="#000000" transform="matrix(1.00, 0.00, -0.00, -1.00, 130.8, 365.2)">r</text><text xml:space="preserve" font-family="CourierNewPSMT,Courier New" font-size="20.0" fill="#000000" transform="matrix(1.00, 0.00, -0.00, -1.00, 142.8, 365.2)">a</text><text xml:space="preserve" font-family="CourierNewPSMT,Courier New" font-size="20.0" fill="#000000" transform="matrix(1.00, 0.00, -0.00, -1.00, 154.8, 365.2)">p</text><text xml:space="preserve" font-family="CourierNewPSMT,Courier New" font-size="20.0" fill="#000000" transform="matrix(1.00, 0.00, -0.00, -1.00, 166.8, 365.2)">h</text><text xml:space="preserve" font-family="CourierNewPSMT,Courier New" font-size="20.0" fill="#000000" transform="matrix(1.00, 0.00, -0.00, -1.00, 178.8, 365.2)"> </text><text xml:space="preserve" font-family="CourierNewPSMT,Courier New" font-size="20.0" fill="#000000" transform="matrix(1.00, 0.00, -0.00, -1.00, 190.8, 365.2)">=</text><text xml:space="preserve" font-family="CourierNewPSMT,Courier New" font-size="20.0" fill="#000000" transform="matrix(1.00, 0.00, -0.00, -1.00, 202.8, 365.2)"> </text><text xml:space="preserve" font-family="CourierNewPSMT,Courier New" font-size="20.0" fill="#000000" transform="matrix(1.00, 0.00, -0.00, -1.00, 214.8, 365.2)">G</text><text xml:space="preserve" font-family="CourierNewPSMT,Courier New" font-size="20.0" fill="#000000" transform="matrix(1.00, 0.00, -0.00, -1.00, 226.8, 365.2)">r</text><text xml:space="preserve" font-family="CourierNewPSMT,Courier New" font-size="20.0" fill="#000000" transform="matrix(1.00, 0.00, -0.00, -1.00, 238.8, 365.2)">a</text><text xml:space="preserve" font-family="CourierNewPSMT,Courier New" font-size="20.0" fill="#000000" transform="matrix(1.00, 0.00, -0.00, -1.00, 250.8, 365.2)">p</text><text xml:space="preserve" font-family="CourierNewPSMT,Courier New" font-size="20.0" fill="#000000" transform="matrix(1.00, 0.00, -0.00, -1.00, 262.8, 365.2)">h</text><text xml:space="preserve" font-family="CourierNewPSMT,Courier New" font-size="20.0" fill="#000000" transform="matrix(1.00, 0.00, -0.00, -1.00, 274.9, 365.2)">.</text><text xml:space="preserve" font-family="CourierNewPSMT,Courier New" font-size="20.0" fill="#000000" transform="matrix(1.00, 0.00, -0.00, -1.00, 286.9, 365.2)">n</text><text xml:space="preserve" font-family="CourierNewPSMT,Courier New" font-size="20.0" fill="#000000" transform="matrix(1.00, 0.00, -0.00, -1.00, 298.9, 365.2)">e</text><text xml:space="preserve" font-family="CourierNewPSMT,Courier New" font-size="20.0" fill="#000000" transform="matrix(1.00, 0.00, -0.00, -1.00, 310.9, 365.2)">w</text><text xml:space="preserve" font-family="CourierNewPSMT,Courier New" font-size="20.0" fill="#000000" transform="matrix(1.00, 0.00, -0.00, -1.00, 322.9, 365.2)"> </text><text xml:space="preserve" font-family="CourierNewPSMT,Courier New" font-size="20.0" fill="#000000" transform="matrix(1.00, 0.00, -0.00, -1.00, 118.8, 319.2)">g</text><text xml:space="preserve" font-family="CourierNewPSMT,Courier New" font-size="20.0" fill="#000000" transform="matrix(1.00, 0.00, -0.00, -1.00, 130.8, 319.2)">r</text><text xml:space="preserve" font-family="CourierNewPSMT,Courier New" font-size="20.0" fill="#000000" transform="matrix(1.00, 0.00, -0.00, -1.00, 142.8, 319.2)">a</text><text xml:space="preserve" font-family="CourierNewPSMT,Courier New" font-size="20.0" fill="#000000" transform="matrix(1.00, 0.00, -0.00, -1.00, 154.8, 319.2)">p</text><text xml:space="preserve" font-family="CourierNewPSMT,Courier New" font-size="20.0" fill="#000000" transform="matrix(1.00, 0.00, -0.00, -1.00, 166.8, 319.2)">h</text><text xml:space="preserve" font-family="CourierNewPSMT,Courier New" font-size="20.0" fill="#000000" transform="matrix(1.00, 0.00, -0.00, -1.00, 178.8, 319.2)"> </text><text xml:space="preserve" font-family="CourierNewPSMT,Courier New" font-size="20.0" fill="#000000" transform="matrix(1.00, 0.00, -0.00, -1.00, 190.8, 319.2)">&lt;</text><text xml:space="preserve" font-family="CourierNewPSMT,Courier New" font-size="20.0" fill="#000000" transform="matrix(1.00, 0.00, -0.00, -1.00, 202.8, 319.2)">&lt;</text><text xml:space="preserve" font-family="CourierNewPSMT,Courier New" font-size="20.0" fill="#000000" transform="matrix(1.00, 0.00, -0.00, -1.00, 214.8, 319.2)"> </text><text xml:space="preserve" font-family="CourierNewPSMT,Courier New" font-size="20.0" fill="#000000" transform="matrix(1.00, 0.00, -0.00, -1.00, 226.8, 319.2)">[</text><text xml:space="preserve" font-family="CourierNewPS-BoldMT,Courier New" font-weight="bold" font-size="20.0" fill="#000000" transform="matrix(1.00, 0.00, -0.00, -1.00, 238.8, 319.2)">:</text><text xml:space="preserve" font-family="CourierNewPS-BoldMT,Courier New" font-weight="bold" font-size="20.0" fill="#000000" transform="matrix(1.00, 0.00, -0.00, -1.00, 250.8, 319.2)">h</text><text xml:space="preserve" font-family="CourierNewPS-BoldMT,Courier New" font-weight="bold" font-size="20.0" fill="#000000" transform="matrix(1.00, 0.00, -0.00, -1.00, 262.8, 319.2)">e</text><text xml:space="preserve" font-family="CourierNewPS-BoldMT,Courier New" font-weight="bold" font-size="20.0" fill="#000000" transform="matrix(1.00, 0.00, -0.00, -1.00, 274.8, 319.2)">l</text><text xml:space="preserve" font-family="CourierNewPS-BoldMT,Courier New" font-weight="bold" font-size="20.0" fill="#000000" transform="matrix(1.00, 0.00, -0.00, -1.00, 286.8, 319.2)">l</text><text xml:space="preserve" font-family="CourierNewPS-BoldMT,Courier New" font-weight="bold" font-size="20.0" fill="#000000" transform="matrix(1.00, 0.00, -0.00, -1.00, 298.8, 319.2)">o</text><text xml:space="preserve" font-family="CourierNewPSMT,Courier New" font-size="20.0" fill="#000000" transform="matrix(1.00, 0.00, -0.00, -1.00, 310.8, 319.2)">,</text><text xml:space="preserve" font-family="CourierNewPSMT,Courier New" font-size="20.0" fill="#000000" transform="matrix(1.00, 0.00, -0.00, -1.00, 322.8, 319.2)"> </text><text xml:space="preserve" font-family="CourierNewPSMT,Courier New" font-size="20.0" fill="#000000" transform="matrix(1.00, 0.00, -0.00, -1.00, 334.8, 319.2)">D</text><text xml:space="preserve" font-family="CourierNewPSMT,Courier New" font-size="20.0" fill="#000000" transform="matrix(1.00, 0.00, -0.00, -1.00, 346.8, 319.2)">C</text><text xml:space="preserve" font-family="CourierNewPSMT,Courier New" font-size="20.0" fill="#000000" transform="matrix(1.00, 0.00, -0.00, -1.00, 358.8, 319.2)">.</text><text xml:space="preserve" font-family="CourierNewPSMT,Courier New" font-size="20.0" fill="#000000" transform="matrix(1.00, 0.00, -0.00, -1.00, 370.9, 319.2)">t</text><text xml:space="preserve" font-family="CourierNewPSMT,Courier New" font-size="20.0" fill="#000000" transform="matrix(1.00, 0.00, -0.00, -1.00, 382.9, 319.2)">i</text><text xml:space="preserve" font-family="CourierNewPSMT,Courier New" font-size="20.0" fill="#000000" transform="matrix(1.00, 0.00, -0.00, -1.00, 394.9, 319.2)">t</text><text xml:space="preserve" font-family="CourierNewPSMT,Courier New" font-size="20.0" fill="#000000" transform="matrix(1.00, 0.00, -0.00, -1.00, 406.9, 319.2)">l</text><text xml:space="preserve" font-family="CourierNewPSMT,Courier New" font-size="20.0" fill="#000000" transform="matrix(1.00, 0.00, -0.00, -1.00, 418.9, 319.2)">e</text><text xml:space="preserve" font-family="CourierNewPSMT,Courier New" font-size="20.0" fill="#000000" transform="matrix(1.00, 0.00, -0.00, -1.00, 430.9, 319.2)">,</text><text xml:space="preserve" font-family="CourierNewPSMT,Courier New" font-size="20.0" fill="#000000" transform="matrix(1.00, 0.00, -0.00, -1.00, 442.9, 319.2)"> </text><text xml:space="preserve" font-family="CourierNewPSMT,Courier New" font-size="20.0" fill="#CC1C00" transform="matrix(1.00, 0.00, -0.00, -1.00, 454.9, 319.2)">"</text><text xml:space="preserve" font-family="CourierNewPSMT,Courier New" font-size="20.0" fill="#CC1C00" transform="matrix(1.00, 0.00, -0.00, -1.00, 466.9, 319.2)">H</text><text xml:space="preserve" font-family="CourierNewPSMT,Courier New" font-size="20.0" fill="#CC1C00" transform="matrix(1.00, 0.00, -0.00, -1.00, 478.9, 319.2)">e</text><text xml:space="preserve" font-family="CourierNewPSMT,Courier New" font-size="20.0" fill="#CC1C00" transform="matrix(1.00, 0.00, -0.00, -1.00, 490.9, 319.2)">l</text><text xml:space="preserve" font-family="CourierNewPSMT,Courier New" font-size="20.0" fill="#CC1C00" transform="matrix(1.00, 0.00, -0.00, -1.00, 502.9, 319.2)">l</text><text xml:space="preserve" font-family="CourierNewPSMT,Courier New" font-size="20.0" fill="#CC1C00" transform="matrix(1.00, 0.00, -0.00, -1.00, 514.9, 319.2)">o</text><text xml:space="preserve" font-family="CourierNewPSMT,Courier New" font-size="20.0" fill="#CC1C00" transform="matrix(1.00, 0.00, -0.00, -1.00, 526.9, 319.2)">,</text><text xml:space="preserve" font-family="CourierNewPSMT,Courier New" font-size="20.0" fill="#CC1C00" transform="matrix(1.00, 0.00, -0.00, -1.00, 538.9, 319.2)"> </text><text xml:space="preserve" font-family="CourierNewPSMT,Courier New" font-size="20.0" fill="#CC1C00" transform="matrix(1.00, 0.00, -0.00, -1.00, 550.9, 319.2)">w</text><text xml:space="preserve" font-family="CourierNewPSMT,Courier New" font-size="20.0" fill="#CC1C00" transform="matrix(1.00, 0.00, -0.00, -1.00, 562.9, 319.2)">o</text><text xml:space="preserve" font-family="CourierNewPSMT,Courier New" font-size="20.0" fill="#CC1C00" transform="matrix(1.00, 0.00, -0.00, -1.00, 574.9, 319.2)">r</text><text xml:space="preserve" font-family="CourierNewPSMT,Courier New" font-size="20.0" fill="#CC1C00" transform="matrix(1.00, 0.00, -0.00, -1.00, 586.9, 319.2)">l</text><text xml:space="preserve" font-family="CourierNewPSMT,Courier New" font-size="20.0" fill="#CC1C00" transform="matrix(1.00, 0.00, -0.00, -1.00, 598.9, 319.2)">d</text><text xml:space="preserve" font-family="CourierNewPSMT,Courier New" font-size="20.0" fill="#CC1C00" transform="matrix(1.00, 0.00, -0.00, -1.00, 610.9, 319.2)">!</text><text xml:space="preserve" font-family="CourierNewPSMT,Courier New" font-size="20.0" fill="#CC1C00" transform="matrix(1.00, 0.00, -0.00, -1.00, 622.9, 319.2)">"</text><text xml:space="preserve" font-family="CourierNewPSMT,Courier New" font-size="20.0" fill="#000000" transform="matrix(1.00, 0.00, -0.00, -1.00, 634.9, 319.2)">]</text><text xml:space="preserve" font-family="CourierNewPSMT,Courier New" font-size="20.0" fill="#000000" transform="matrix(1.00, 0.00, -0.00, -1.00, 646.9, 319.2)"> </text><text xml:space="preserve" font-family="CourierNewPSMT,Courier New" font-size="20.0" fill="#000000" transform="matrix(1.00, 0.00, -0.00, -1.00, 118.8, 273.2)">p</text><text xml:space="preserve" font-family="CourierNewPSMT,Courier New" font-size="20.0" fill="#000000" transform="matrix(1.00, 0.00, -0.00, -1.00, 130.8, 273.2)">u</text><text xml:space="preserve" font-family="CourierNewPSMT,Courier New" font-size="20.0" fill="#000000" transform="matrix(1.00, 0.00, -0.00, -1.00, 142.8, 273.2)">t</text><text xml:space="preserve" font-family="CourierNewPSMT,Courier New" font-size="20.0" fill="#000000" transform="matrix(1.00, 0.00, -0.00, -1.00, 154.8, 273.2)">s</text><text xml:space="preserve" font-family="CourierNewPSMT,Courier New" font-size="20.0" fill="#000000" transform="matrix(1.00, 0.00, -0.00, -1.00, 166.8, 273.2)"> </text><text xml:space="preserve" font-family="CourierNewPSMT,Courier New" font-size="20.0" fill="#000000" transform="matrix(1.00, 0.00, -0.00, -1.00, 178.8, 273.2)">g</text><text xml:space="preserve" font-family="CourierNewPSMT,Courier New" font-size="20.0" fill="#000000" transform="matrix(1.00, 0.00, -0.00, -1.00, 190.8, 273.2)">r</text><text xml:space="preserve" font-family="CourierNewPSMT,Courier New" font-size="20.0" fill="#000000" transform="matrix(1.00, 0.00, -0.00, -1.00, 202.8, 273.2)">a</text><text xml:space="preserve" font-family="CourierNewPSMT,Courier New" font-size="20.0" fill="#000000" transform="matrix(1.00, 0.00, -0.00, -1.00, 214.8, 273.2)">p</text><text xml:space="preserve" font-family="CourierNewPSMT,Courier New" font-size="20.0" fill="#000000" transform="matrix(1.00, 0.00, -0.00, -1.00, 226.8, 273.2)">h</text><text xml:space="preserve" font-family="CourierNewPSMT,Courier New" font-size="20.0" fill="#000000" transform="matrix(1.00, 0.00, -0.00, -1.00, 238.8, 273.2)">.</text><text xml:space="preserve" font-family="CourierNewPSMT,Courier New" font-size="20.0" fill="#021993" transform="matrix(1.00, 0.00, -0.00, -1.00, 250.8, 273.2)">d</text><text xml:space="preserve" font-family="CourierNewPSMT,Courier New" font-size="20.0" fill="#021993" transform="matrix(1.00, 0.00, -0.00, -1.00, 262.8, 273.2)">u</text><text xml:space="preserve" font-family="CourierNewPSMT,Courier New" font-size="20.0" fill="#021993" transform="matrix(1.00, 0.00, -0.00, -1.00, 274.8, 273.2)">m</text><text xml:space="preserve" font-family="CourierNewPSMT,Courier New" font-size="20.0" fill="#021993" transform="matrix(1.00, 0.00, -0.00, -1.00, 286.8, 273.2)">p</text><text xml:space="preserve" font-family="CourierNewPSMT,Courier New" font-size="20.0" fill="#000000" transform="matrix(1.00, 0.00, -0.00, -1.00, 298.8, 273.2)">(</text><text xml:space="preserve" font-family="CourierNewPS-BoldMT,Courier New" font-weight="bold" font-size="20.0" fill="#000000" transform="matrix(1.00, 0.00, -0.00, -1.00, 310.8, 273.2)">:</text><text xml:space="preserve" font-family="CourierNewPS-BoldMT,Courier New" font-weight="bold" font-size="20.0" fill="#000000" transform="matrix(1.00, 0.00, -0.00, -1.00, 322.8, 273.2)">n</text><text xml:space="preserve" font-family="CourierNewPS-BoldMT,Courier New" font-weight="bold" font-size="20.0" fill="#000000" transform="matrix(1.00, 0.00, -0.00, -1.00, 334.8, 273.2)">t</text><text xml:space="preserve" font-family="CourierNewPS-BoldMT,Courier New" font-weight="bold" font-size="20.0" fill="#000000" transform="matrix(1.00, 0.00, -0.00, -1.00, 346.8, 273.2)">r</text><text xml:space="preserve" font-family="CourierNewPS-BoldMT,Courier New" font-weight="bold" font-size="20.0" fill="#000000" transform="matrix(1.00, 0.00, -0.00, -1.00, 358.8, 273.2)">i</text><text xml:space="preserve" font-family="CourierNewPS-BoldMT,Courier New" font-weight="bold" font-size="20.0" fill="#000000" transform="matrix(1.00, 0.00, -0.00, -1.00, 370.9, 273.2)">p</text><text xml:space="preserve" font-family="CourierNewPS-BoldMT,Courier New" font-weight="bold" font-size="20.0" fill="#000000" transform="matrix(1.00, 0.00, -0.00, -1.00, 382.9, 273.2)">l</text><text xml:space="preserve" font-family="CourierNewPS-BoldMT,Courier New" font-weight="bold" font-size="20.0" fill="#000000" transform="matrix(1.00, 0.00, -0.00, -1.00, 394.9, 273.2)">e</text><text xml:space="preserve" font-family="CourierNewPS-BoldMT,Courier New" font-weight="bold" font-size="20.0" fill="#000000" transform="matrix(1.00, 0.00, -0.00, -1.00, 406.9, 273.2)">s</text><text xml:space="preserve" font-family="CourierNewPSMT,Courier New" font-size="20.0" fill="#000000" transform="matrix(1.00, 0.00, -0.00, -1.00, 418.8, 273.2)">)</text><text xml:space="preserve" font-family="CourierNewPSMT,Courier New" font-size="20.0" fill="#000000" transform="matrix(1.00, 0.00, -0.00, -1.00, 430.9, 273.2)"> </text><text xml:space="preserve" font-family="CourierNewPSMT,Courier New" font-size="20.0" fill="#000000" transform="matrix(1.00, 0.00, -0.00, -1.00, 118.3, 146.6)">_</text><text xml:space="preserve" font-family="CourierNewPSMT,Courier New" font-size="20.0" fill="#000000" transform="matrix(1.00, 0.00, -0.00, -1.00, 130.3, 146.6)">:</text><text xml:space="preserve" font-family="CourierNewPSMT,Courier New" font-size="20.0" fill="#000000" transform="matrix(1.00, 0.00, -0.00, -1.00, 142.3, 146.6)">h</text><text xml:space="preserve" font-family="CourierNewPSMT,Courier New" font-size="20.0" fill="#000000" transform="matrix(1.00, 0.00, -0.00, -1.00, 154.4, 146.6)">e</text><text xml:space="preserve" font-family="CourierNewPSMT,Courier New" font-size="20.0" fill="#000000" transform="matrix(1.00, 0.00, -0.00, -1.00, 166.4, 146.6)">l</text><text xml:space="preserve" font-family="CourierNewPSMT,Courier New" font-size="20.0" fill="#000000" transform="matrix(1.00, 0.00, -0.00, -1.00, 178.4, 146.6)">l</text><text xml:space="preserve" font-family="CourierNewPSMT,Courier New" font-size="20.0" fill="#000000" transform="matrix(1.00, 0.00, -0.00, -1.00, 190.4, 146.6)">o</text><text xml:space="preserve" font-family="CourierNewPSMT,Courier New" font-size="20.0" fill="#000000" transform="matrix(1.00, 0.00, -0.00, -1.00, 202.4, 146.6)"> </text><text xml:space="preserve" font-family="CourierNewPSMT,Courier New" font-size="20.0" fill="#000000" transform="matrix(1.00, 0.00, -0.00, -1.00, 214.4, 146.6)">&lt;</text><text xml:space="preserve" font-family="CourierNewPSMT,Courier New" font-size="20.0" fill="#000000" transform="matrix(1.00, 0.00, -0.00, -1.00, 226.4, 146.6)">h</text><text xml:space="preserve" font-family="CourierNewPSMT,Courier New" font-size="20.0" fill="#000000" transform="matrix(1.00, 0.00, -0.00, -1.00, 238.4, 146.6)">t</text><text xml:space="preserve" font-family="CourierNewPSMT,Courier New" font-size="20.0" fill="#000000" transform="matrix(1.00, 0.00, -0.00, -1.00, 250.4, 146.6)">t</text><text xml:space="preserve" font-family="CourierNewPSMT,Courier New" font-size="20.0" fill="#000000" transform="matrix(1.00, 0.00, -0.00, -1.00, 262.4, 146.6)">p</text><text xml:space="preserve" font-family="CourierNewPSMT,Courier New" font-size="20.0" fill="#000000" transform="matrix(1.00, 0.00, -0.00, -1.00, 274.4, 146.6)">:</text><text xml:space="preserve" font-family="CourierNewPSMT,Courier New" font-size="20.0" fill="#000000" transform="matrix(1.00, 0.00, -0.00, -1.00, 286.4, 146.6)">/</text><text xml:space="preserve" font-family="CourierNewPSMT,Courier New" font-size="20.0" fill="#000000" transform="matrix(1.00, 0.00, -0.00, -1.00, 298.4, 146.6)">/</text><text xml:space="preserve" font-family="CourierNewPSMT,Courier New" font-size="20.0" fill="#000000" transform="matrix(1.00, 0.00, -0.00, -1.00, 310.4, 146.6)">p</text><text xml:space="preserve" font-family="CourierNewPSMT,Courier New" font-size="20.0" fill="#000000" transform="matrix(1.00, 0.00, -0.00, -1.00, 322.4, 146.6)">u</text><text xml:space="preserve" font-family="CourierNewPSMT,Courier New" font-size="20.0" fill="#000000" transform="matrix(1.00, 0.00, -0.00, -1.00, 334.4, 146.6)">r</text><text xml:space="preserve" font-family="CourierNewPSMT,Courier New" font-size="20.0" fill="#000000" transform="matrix(1.00, 0.00, -0.00, -1.00, 346.4, 146.6)">l</text><text xml:space="preserve" font-family="CourierNewPSMT,Courier New" font-size="20.0" fill="#000000" transform="matrix(1.00, 0.00, -0.00, -1.00, 358.4, 146.6)">.</text><text xml:space="preserve" font-family="CourierNewPSMT,Courier New" font-size="20.0" fill="#000000" transform="matrix(1.00, 0.00, -0.00, -1.00, 370.4, 146.6)">o</text><text xml:space="preserve" font-family="CourierNewPSMT,Courier New" font-size="20.0" fill="#000000" transform="matrix(1.00, 0.00, -0.00, -1.00, 382.4, 146.6)">r</text><text xml:space="preserve" font-family="CourierNewPSMT,Courier New" font-size="20.0" fill="#000000" transform="matrix(1.00, 0.00, -0.00, -1.00, 394.4, 146.6)">g</text><text xml:space="preserve" font-family="CourierNewPSMT,Courier New" font-size="20.0" fill="#000000" transform="matrix(1.00, 0.00, -0.00, -1.00, 406.4, 146.6)">/</text><text xml:space="preserve" font-family="CourierNewPSMT,Courier New" font-size="20.0" fill="#000000" transform="matrix(1.00, 0.00, -0.00, -1.00, 418.4, 146.6)">d</text><text xml:space="preserve" font-family="CourierNewPSMT,Courier New" font-size="20.0" fill="#000000" transform="matrix(1.00, 0.00, -0.00, -1.00, 430.4, 146.6)">c</text><text xml:space="preserve" font-family="CourierNewPSMT,Courier New" font-size="20.0" fill="#000000" transform="matrix(1.00, 0.00, -0.00, -1.00, 442.4, 146.6)">/</text><text xml:space="preserve" font-family="CourierNewPSMT,Courier New" font-size="20.0" fill="#000000" transform="matrix(1.00, 0.00, -0.00, -1.00, 454.5, 146.6)">t</text><text xml:space="preserve" font-family="CourierNewPSMT,Courier New" font-size="20.0" fill="#000000" transform="matrix(1.00, 0.00, -0.00, -1.00, 466.5, 146.6)">e</text><text xml:space="preserve" font-family="CourierNewPSMT,Courier New" font-size="20.0" fill="#000000" transform="matrix(1.00, 0.00, -0.00, -1.00, 478.5, 146.6)">r</text><text xml:space="preserve" font-family="CourierNewPSMT,Courier New" font-size="20.0" fill="#000000" transform="matrix(1.00, 0.00, -0.00, -1.00, 490.5, 146.6)">m</text><text xml:space="preserve" font-family="CourierNewPSMT,Courier New" font-size="20.0" fill="#000000" transform="matrix(1.00, 0.00, -0.00, -1.00, 502.5, 146.6)">s</text><text xml:space="preserve" font-family="CourierNewPSMT,Courier New" font-size="20.0" fill="#000000" transform="matrix(1.00, 0.00, -0.00, -1.00, 514.5, 146.6)">/</text><text xml:space="preserve" font-family="CourierNewPSMT,Courier New" font-size="20.0" fill="#000000" transform="matrix(1.00, 0.00, -0.00, -1.00, 526.5, 146.6)">t</text><text xml:space="preserve" font-family="CourierNewPSMT,Courier New" font-size="20.0" fill="#000000" transform="matrix(1.00, 0.00, -0.00, -1.00, 538.5, 146.6)">i</text><text xml:space="preserve" font-family="CourierNewPSMT,Courier New" font-size="20.0" fill="#000000" transform="matrix(1.00, 0.00, -0.00, -1.00, 550.5, 146.6)">t</text><text xml:space="preserve" font-family="CourierNewPSMT,Courier New" font-size="20.0" fill="#000000" transform="matrix(1.00, 0.00, -0.00, -1.00, 562.5, 146.6)">l</text><text xml:space="preserve" font-family="CourierNewPSMT,Courier New" font-size="20.0" fill="#000000" transform="matrix(1.00, 0.00, -0.00, -1.00, 574.5, 146.6)">e</text><text xml:space="preserve" font-family="CourierNewPSMT,Courier New" font-size="20.0" fill="#000000" transform="matrix(1.00, 0.00, -0.00, -1.00, 586.5, 146.6)">&gt;</text><text xml:space="preserve" font-family="CourierNewPSMT,Courier New" font-size="20.0" fill="#000000" transform="matrix(1.00, 0.00, -0.00, -1.00, 598.5, 146.6)"> </text><text xml:space="preserve" font-family="CourierNewPSMT,Courier New" font-size="20.0" fill="#000000" transform="matrix(1.00, 0.00, -0.00, -1.00, 610.5, 146.6)">"</text><text xml:space="preserve" font-family="CourierNewPSMT,Courier New" font-size="20.0" fill="#000000" transform="matrix(1.00, 0.00, -0.00, -1.00, 622.5, 146.6)">H</text><text xml:space="preserve" font-family="CourierNewPSMT,Courier New" font-size="20.0" fill="#000000" transform="matrix(1.00, 0.00, -0.00, -1.00, 634.5, 146.6)">e</text><text xml:space="preserve" font-family="CourierNewPSMT,Courier New" font-size="20.0" fill="#000000" transform="matrix(1.00, 0.00, -0.00, -1.00, 646.5, 146.6)">l</text><text xml:space="preserve" font-family="CourierNewPSMT,Courier New" font-size="20.0" fill="#000000" transform="matrix(1.00, 0.00, -0.00, -1.00, 658.5, 146.6)">l</text><text xml:space="preserve" font-family="CourierNewPSMT,Courier New" font-size="20.0" fill="#000000" transform="matrix(1.00, 0.00, -0.00, -1.00, 670.5, 146.6)">o</text><text xml:space="preserve" font-family="CourierNewPSMT,Courier New" font-size="20.0" fill="#000000" transform="matrix(1.00, 0.00, -0.00, -1.00, 682.5, 146.6)">,</text><text xml:space="preserve" font-family="CourierNewPSMT,Courier New" font-size="20.0" fill="#000000" transform="matrix(1.00, 0.00, -0.00, -1.00, 694.5, 146.6)"> </text><text xml:space="preserve" font-family="CourierNewPSMT,Courier New" font-size="20.0" fill="#000000" transform="matrix(1.00, 0.00, -0.00, -1.00, 706.5, 146.6)">w</text><text xml:space="preserve" font-family="CourierNewPSMT,Courier New" font-size="20.0" fill="#000000" transform="matrix(1.00, 0.00, -0.00, -1.00, 718.5, 146.6)">o</text><text xml:space="preserve" font-family="CourierNewPSMT,Courier New" font-size="20.0" fill="#000000" transform="matrix(1.00, 0.00, -0.00, -1.00, 730.5, 146.6)">r</text><text xml:space="preserve" font-family="CourierNewPSMT,Courier New" font-size="20.0" fill="#000000" transform="matrix(1.00, 0.00, -0.00, -1.00, 742.5, 146.6)">l</text><text xml:space="preserve" font-family="CourierNewPSMT,Courier New" font-size="20.0" fill="#000000" transform="matrix(1.00, 0.00, -0.00, -1.00, 754.5, 146.6)">d</text><text xml:space="preserve" font-family="CourierNewPSMT,Courier New" font-size="20.0" fill="#000000" transform="matrix(1.00, 0.00, -0.00, -1.00, 766.6, 146.6)">!</text><text xml:space="preserve" font-family="CourierNewPSMT,Courier New" font-size="20.0" fill="#000000" transform="matrix(1.00, 0.00, -0.00, -1.00, 778.6, 146.6)">"</text><text xml:space="preserve" font-family="CourierNewPSMT,Courier New" font-size="20.0" fill="#000000" transform="matrix(1.00, 0.00, -0.00, -1.00, 790.6, 146.6)"> </text><text xml:space="preserve" font-family="CourierNewPSMT,Courier New" font-size="20.0" fill="#000000" transform="matrix(1.00, 0.00, -0.00, -1.00, 802.6, 146.6)">.</text><text xml:space="preserve" font-family="CourierNewPSMT,Courier New" font-size="20.0" fill="#000000" transform="matrix(1.00, 0.00, -0.00, -1.00, 814.6, 146.6)"> </text></g></svg>