<?xml version="1.0" encoding="UTF-8" standalone="no"?><svg xmlns="http://www.w3.org/2000/svg" xmlns:xlink="http://www.w3.org/1999/xlink" clip-rule="evenodd" stroke-miterlimit="10" viewBox="0 0 1024 768"><desc>SVG generated by Keynote</desc><defs></defs><g transform="matrix(1.00, 0.00, -0.00, -1.00, 0.0, 768.0)"><path d="M 0.0 768.0 L 1024.0 768.0 L 1024.0 0.0 L 0.0 0.0 Z M 0.0 768.0 " fill="#FEFFFF"></path><text xml:space="preserve" font-family="Helvetica-Light,Helvetica" font-size="70.4" fill="#000000" transform="matrix(1.00, 0.00, -0.00, -1.00, 249.9, 567.2)">L</text><text xml:space="preserve" font-family="Helvetica-Light,Helvetica" font-size="70.4" fill="#000000" transform="matrix(1.00, 0.00, -0.00, -1.00, 289.0, 567.2)">i</text><text xml:space="preserve" font-family="Helvetica-Light,Helvetica" font-size="70.4" fill="#000000" transform="matrix(1.00, 0.00, -0.00, -1.00, 304.6, 567.2)">n</text><text xml:space="preserve" font-family="Helvetica-Light,Helvetica" font-size="70.4" fill="#000000" transform="matrix(1.00, 0.00, -0.00, -1.00, 343.8, 567.2)">k</text><text xml:space="preserve" font-family="Helvetica-Light,Helvetica" font-size="70.4" fill="#000000" transform="matrix(1.00, 0.00, -0.00, -1.00, 379.0, 567.2)">e</text><text xml:space="preserve" font-family="Helvetica-Light,Helvetica" font-size="70.4" fill="#000000" transform="matrix(1.00, 0.00, -0.00, -1.00, 418.1, 567.2)">d</text><text xml:space="preserve" font-family="Helvetica-Light,Helvetica" font-size="70.4" fill="#000000" transform="matrix(1.00, 0.00, -0.00, -1.00, 461.1, 567.2)"> </text><text xml:space="preserve" font-family="Helvetica-Light,Helvetica" font-size="70.4" fill="#000000" transform="matrix(1.00, 0.00, -0.00, -1.00, 480.7, 567.2)">D</text><text xml:space="preserve" font-family="Helvetica-Light,Helvetica" font-size="70.4" fill="#000000" transform="matrix(1.00, 0.00, -0.00, -1.00, 531.5, 567.2)">a</text><text xml:space="preserve" font-family="Helvetica-Light,Helvetica" font-size="70.4" fill="#000000" transform="matrix(1.00, 0.00, -0.00, -1.00, 570.7, 567.2)">t</text><text xml:space="preserve" font-family="Helvetica-Light,Helvetica" font-size="70.4" fill="#000000" transform="matrix(1.00, 0.00, -0.00, -1.00, 590.2, 567.2)">a</text><text xml:space="preserve" font-family="Helvetica-Light,Helvetica" font-size="70.4" fill="#000000" transform="matrix(1.00, 0.00, -0.00, -1.00, 629.4, 567.2)"> </text><text xml:space="preserve" font-family="Helvetica-Light,Helvetica" font-size="70.4" fill="#000000" transform="matrix(1.00, 0.00, -0.00, -1.00, 649.0, 567.2)">w</text><text xml:space="preserve" font-family="Helvetica-Light,Helvetica" font-size="70.4" fill="#000000" transform="matrix(1.00, 0.00, -0.00, -1.00, 699.8, 567.2)">i</text><text xml:space="preserve" font-family="Helvetica-Light,Helvetica" font-size="70.4" fill="#000000" transform="matrix(1.00, 0.00, -0.00, -1.00, 715.4, 567.2)">t</text><text xml:space="preserve" font-family="Helvetica-Light,Helvetica" font-size="70.4" fill="#000000" transform="matrix(1.00, 0.00, -0.00, -1.00, 735.0, 567.2)">h</text><text xml:space="preserve" font-family="LucidaGrande,Lucida Grande" font-size="70.4" fill="#000000" transform="matrix(1.00, 0.00, -0.00, -1.00, 774.1, 567.2)"> </text><text xml:space="preserve" font-family="Helvetica-Light,Helvetica" font-size="70.4" fill="#000000" transform="matrix(1.00, 0.00, -0.00, -1.00, 242.7, 483.2)">R</text><text xml:space="preserve" font-family="Helvetica-Light,Helvetica" font-size="70.4" fill="#000000" transform="matrix(1.00, 0.00, -0.00, -1.00, 289.6, 483.2)">u</text><text xml:space="preserve" font-family="Helvetica-Light,Helvetica" font-size="70.4" fill="#000000" transform="matrix(1.00, 0.00, -0.00, -1.00, 328.8, 483.2)">b</text><text xml:space="preserve" font-family="Helvetica-Light,Helvetica" font-size="70.4" fill="#000000" transform="matrix(1.00, 0.00, -0.00, -1.00, 371.8, 483.2)">y</text><text xml:space="preserve" font-family="Helvetica-Light,Helvetica" font-size="70.4" fill="#000000" transform="matrix(1.00, 0.00, -0.00, -1.00, 407.0, 483.2)"> </text><text xml:space="preserve" font-family="Helvetica-Light,Helvetica" font-size="70.4" fill="#000000" transform="matrix(1.00, 0.00, -0.00, -1.00, 426.6, 483.2)">a</text><text xml:space="preserve" font-family="Helvetica-Light,Helvetica" font-size="70.4" fill="#000000" transform="matrix(1.00, 0.00, -0.00, -1.00, 465.7, 483.2)">n</text><text xml:space="preserve" font-family="Helvetica-Light,Helvetica" font-size="70.4" fill="#000000" transform="matrix(1.00, 0.00, -0.00, -1.00, 504.9, 483.2)">d</text><text xml:space="preserve" font-family="Helvetica-Light,Helvetica" font-size="70.4" fill="#000000" transform="matrix(1.00, 0.00, -0.00, -1.00, 547.9, 483.2)"> </text><text xml:space="preserve" font-family="Helvetica-Light,Helvetica" font-size="70.4" fill="#000000" transform="matrix(1.00, 0.00, -0.00, -1.00, 567.4, 483.2)">R</text><text xml:space="preserve" font-family="Helvetica-Light,Helvetica" font-size="70.4" fill="#000000" transform="matrix(1.00, 0.00, -0.00, -1.00, 614.4, 483.2)">D</text><text xml:space="preserve" font-family="Helvetica-Light,Helvetica" font-size="70.4" fill="#000000" transform="matrix(1.00, 0.00, -0.00, -1.00, 665.2, 483.2)">F</text><text xml:space="preserve" font-family="Helvetica-Light,Helvetica" font-size="70.4" fill="#000000" transform="matrix(1.00, 0.00, -0.00, -1.00, 695.3, 483.2)">.</text><text xml:space="preserve" font-family="Helvetica-Light,Helvetica" font-size="70.4" fill="#000000" transform="matrix(1.00, 0.00, -0.00, -1.00, 714.9, 483.2)">r</text><text xml:space="preserve" font-family="Helvetica-Light,Helvetica" font-size="70.4" fill="#000000" transform="matrix(1.00, 0.00, -0.00, -1.00, 738.3, 483.2)">b</text><text xml:space="preserve" font-family="LucidaGrande,Lucida Grande" font-size="70.4" fill="#000000" transform="matrix(1.00, 0.00, -0.00, -1.00, 781.3, 483.2)"> </text><text xml:space="preserve" font-family="Helvetica-Light,Helvetica" font-size="22.7" fill="#000000" transform="matrix(1.00, 0.00, -0.00, -1.00, 439.8, 347.2)">A</text><text xml:space="preserve" font-family="Helvetica-Light,Helvetica" font-size="22.7" fill="#000000" transform="matrix(1.00, 0.00, -0.00, -1.00, 455.0, 347.2)">r</text><text xml:space="preserve" font-family="Helvetica-Light,Helvetica" font-size="22.7" fill="#000000" transform="matrix(1.00, 0.00, -0.00, -1.00, 462.9, 347.2)">t</text><text xml:space="preserve" font-family="Helvetica-Light,Helvetica" font-size="22.7" fill="#000000" transform="matrix(1.00, 0.00, -0.00, -1.00, 469.3, 347.2)">o</text><text xml:space="preserve" font-family="Helvetica-Light,Helvetica" font-size="22.7" fill="#000000" transform="matrix(1.00, 0.00, -0.00, -1.00, 481.9, 347.2)"> </text><text xml:space="preserve" font-family="Helvetica-Light,Helvetica" font-size="22.7" fill="#000000" transform="matrix(1.00, 0.00, -0.00, -1.00, 488.2, 347.2)">B</text><text xml:space="preserve" font-family="Helvetica-Light,Helvetica" font-size="22.7" fill="#000000" transform="matrix(1.00, 0.00, -0.00, -1.00, 503.4, 347.2)">e</text><text xml:space="preserve" font-family="Helvetica-Light,Helvetica" font-size="22.7" fill="#000000" transform="matrix(1.00, 0.00, -0.00, -1.00, 516.0, 347.2)">n</text><text xml:space="preserve" font-family="Helvetica-Light,Helvetica" font-size="22.7" fill="#000000" transform="matrix(1.00, 0.00, -0.00, -1.00, 528.6, 347.2)">d</text><text xml:space="preserve" font-family="Helvetica-Light,Helvetica" font-size="22.7" fill="#000000" transform="matrix(1.00, 0.00, -0.00, -1.00, 542.5, 347.2)">i</text><text xml:space="preserve" font-family="Helvetica-Light,Helvetica" font-size="22.7" fill="#000000" transform="matrix(1.00, 0.00, -0.00, -1.00, 547.6, 347.2)">k</text><text xml:space="preserve" font-family="Helvetica-Light,Helvetica" font-size="22.7" fill="#000000" transform="matrix(1.00, 0.00, -0.00, -1.00, 558.9, 347.2)">e</text><text xml:space="preserve" font-family="Helvetica-Light,Helvetica" font-size="22.7" fill="#000000" transform="matrix(1.00, 0.00, -0.00, -1.00, 571.5, 347.2)">n</text><text xml:space="preserve" font-family="Helvetica-Light,Helvetica" font-size="22.7" fill="#000000" transform="matrix(1.00, 0.00, -0.00, -1.00, 584.2, 347.2)"> </text><text xml:space="preserve" font-family="Helvetica-Light,Helvetica" font-size="22.7" fill="#000000" transform="matrix(1.00, 0.00, -0.00, -1.00, 416.8, 321.2)">a</text><text xml:space="preserve" font-family="Helvetica-Light,Helvetica" font-size="22.7" fill="#000000" transform="matrix(1.00, 0.00, -0.00, -1.00, 429.5, 321.2)">r</text><text xml:space="preserve" font-family="Helvetica-Light,Helvetica" font-size="22.7" fill="#000000" transform="matrix(1.00, 0.00, -0.00, -1.00, 437.4, 321.2)">t</text><text xml:space="preserve" font-family="Helvetica-Light,Helvetica" font-size="22.7" fill="#000000" transform="matrix(1.00, 0.00, -0.00, -1.00, 443.8, 321.2)">o</text><text xml:space="preserve" font-family="Helvetica-Light,Helvetica" font-size="22.7" fill="#000000" transform="matrix(1.00, 0.00, -0.00, -1.00, 456.4, 321.2)">@</text><text xml:space="preserve" font-family="Helvetica-Light,Helvetica" font-size="22.7" fill="#000000" transform="matrix(1.00, 0.00, -0.00, -1.00, 474.6, 321.2)">b</text><text xml:space="preserve" font-family="Helvetica-Light,Helvetica" font-size="22.7" fill="#000000" transform="matrix(1.00, 0.00, -0.00, -1.00, 488.5, 321.2)">e</text><text xml:space="preserve" font-family="Helvetica-Light,Helvetica" font-size="22.7" fill="#000000" transform="matrix(1.00, 0.00, -0.00, -1.00, 501.1, 321.2)">n</text><text xml:space="preserve" font-family="Helvetica-Light,Helvetica" font-size="22.7" fill="#000000" transform="matrix(1.00, 0.00, -0.00, -1.00, 513.7, 321.2)">d</text><text xml:space="preserve" font-family="Helvetica-Light,Helvetica" font-size="22.7" fill="#000000" transform="matrix(1.00, 0.00, -0.00, -1.00, 527.6, 321.2)">i</text><text xml:space="preserve" font-family="Helvetica-Light,Helvetica" font-size="22.7" fill="#000000" transform="matrix(1.00, 0.00, -0.00, -1.00, 532.6, 321.2)">k</text><text xml:space="preserve" font-family="Helvetica-Light,Helvetica" font-size="22.7" fill="#000000" transform="matrix(1.00, 0.00, -0.00, -1.00, 544.0, 321.2)">e</text><text xml:space="preserve" font-family="Helvetica-Light,Helvetica" font-size="22.7" fill="#000000" transform="matrix(1.00, 0.00, -0.00, -1.00, 556.6, 321.2)">n</text><text xml:space="preserve" font-family="Helvetica-Light,Helvetica" font-size="22.7" fill="#000000" transform="matrix(1.00, 0.00, -0.00, -1.00, 569.3, 321.2)">.</text><text xml:space="preserve" font-family="Helvetica-Light,Helvetica" font-size="22.7" fill="#000000" transform="matrix(1.00, 0.00, -0.00, -1.00, 575.6, 321.2)">n</text><text xml:space="preserve" font-family="Helvetica-Light,Helvetica" font-size="22.7" fill="#000000" transform="matrix(1.00, 0.00, -0.00, -1.00, 588.2, 321.2)">e</text><text xml:space="preserve" font-family="Helvetica-Light,Helvetica" font-size="22.7" fill="#000000" transform="matrix(1.00, 0.00, -0.00, -1.00, 600.8, 321.2)">t</text><text xml:space="preserve" font-family="Helvetica-Light,Helvetica" font-size="22.7" fill="#000000" transform="matrix(1.00, 0.00, -0.00, -1.00, 607.2, 321.2)"> </text><g><clipPath id="clip0x7fcd22c43a70"><path d="M 415.8 318.0 L 607.2 318.0 L 607.2 321.1 L 415.8 321.1 Z M 415.8 318.0 "></path></clipPath><g clip-path="url(#clip0x7fcd22c43a70)"><path d="M 316.8 52.5 L 507.2 52.5 " fill="none" stroke="#000000" stroke-width="1.14" transform="matrix(1.00, 0.00, 0.00, -1.00, 100.0, 372.0)"></path></g></g><text xml:space="preserve" font-family="Helvetica-Light,Helvetica" font-size="22.7" fill="#000000" transform="matrix(1.00, 0.00, -0.00, -1.00, 455.6, 295.2)">@</text><text xml:space="preserve" font-family="Helvetica-Light,Helvetica" font-size="22.7" fill="#000000" transform="matrix(1.00, 0.00, -0.00, -1.00, 473.7, 295.2)">b</text><text xml:space="preserve" font-family="Helvetica-Light,Helvetica" font-size="22.7" fill="#000000" transform="matrix(1.00, 0.00, -0.00, -1.00, 487.6, 295.2)">e</text><text xml:space="preserve" font-family="Helvetica-Light,Helvetica" font-size="22.7" fill="#000000" transform="matrix(1.00, 0.00, -0.00, -1.00, 500.3, 295.2)">n</text><text xml:space="preserve" font-family="Helvetica-Light,Helvetica" font-size="22.7" fill="#000000" transform="matrix(1.00, 0.00, -0.00, -1.00, 512.9, 295.2)">d</text><text xml:space="preserve" font-family="Helvetica-Light,Helvetica" font-size="22.7" fill="#000000" transform="matrix(1.00, 0.00, -0.00, -1.00, 526.8, 295.2)">i</text><text xml:space="preserve" font-family="Helvetica-Light,Helvetica" font-size="22.7" fill="#000000" transform="matrix(1.00, 0.00, -0.00, -1.00, 531.8, 295.2)">k</text><text xml:space="preserve" font-family="Helvetica-Light,Helvetica" font-size="22.7" fill="#000000" transform="matrix(1.00, 0.00, -0.00, -1.00, 543.2, 295.2)">e</text><text xml:space="preserve" font-family="Helvetica-Light,Helvetica" font-size="22.7" fill="#000000" transform="matrix(1.00, 0.00, -0.00, -1.00, 555.8, 295.2)">n</text><text xml:space="preserve" font-family="Helvetica-Light,Helvetica" font-size="22.7" fill="#000000" transform="matrix(1.00, 0.00, -0.00, -1.00, 395.4, 218.9)">h</text><text xml:space="preserve" font-family="Helvetica-Light,Helvetica" font-size="22.7" fill="#000000" transform="matrix(1.00, 0.00, -0.00, -1.00, 408.1, 218.9)">t</text><text xml:space="preserve" font-family="Helvetica-Light,Helvetica" font-size="22.7" fill="#000000" transform="matrix(1.00, 0.00, -0.00, -1.00, 414.4, 218.9)">t</text><text xml:space="preserve" font-family="Helvetica-Light,Helvetica" font-size="22.7" fill="#000000" transform="matrix(1.00, 0.00, -0.00, -1.00, 420.7, 218.9)">p</text><text xml:space="preserve" font-family="Helvetica-Light,Helvetica" font-size="22.7" fill="#000000" transform="matrix(1.00, 0.00, -0.00, -1.00, 434.6, 218.9)">:</text><text xml:space="preserve" font-family="Helvetica-Light,Helvetica" font-size="22.7" fill="#000000" transform="matrix(1.00, 0.00, -0.00, -1.00, 440.9, 218.9)">/</text><text xml:space="preserve" font-family="Helvetica-Light,Helvetica" font-size="22.7" fill="#000000" transform="matrix(1.00, 0.00, -0.00, -1.00, 447.2, 218.9)">/</text><text xml:space="preserve" font-family="Helvetica-Light,Helvetica" font-size="22.7" fill="#000000" transform="matrix(1.00, 0.00, -0.00, -1.00, 453.5, 218.9)">r</text><text xml:space="preserve" font-family="Helvetica-Light,Helvetica" font-size="22.7" fill="#000000" transform="matrix(1.00, 0.00, -0.00, -1.00, 461.1, 218.9)">u</text><text xml:space="preserve" font-family="Helvetica-Light,Helvetica" font-size="22.7" fill="#000000" transform="matrix(1.00, 0.00, -0.00, -1.00, 473.7, 218.9)">b</text><text xml:space="preserve" font-family="Helvetica-Light,Helvetica" font-size="22.7" fill="#000000" transform="matrix(1.00, 0.00, -0.00, -1.00, 487.6, 218.9)">y</text><text xml:space="preserve" font-family="Helvetica-Light,Helvetica" font-size="22.7" fill="#000000" transform="matrix(1.00, 0.00, -0.00, -1.00, 499.0, 218.9)">-</text><text xml:space="preserve" font-family="Helvetica-Light,Helvetica" font-size="22.7" fill="#000000" transform="matrix(1.00, 0.00, -0.00, -1.00, 506.5, 218.9)">r</text><text xml:space="preserve" font-family="Helvetica-Light,Helvetica" font-size="22.7" fill="#000000" transform="matrix(1.00, 0.00, -0.00, -1.00, 513.7, 218.9)">d</text><text xml:space="preserve" font-family="Helvetica-Light,Helvetica" font-size="22.7" fill="#000000" transform="matrix(1.00, 0.00, -0.00, -1.00, 527.6, 218.9)">f</text><text xml:space="preserve" font-family="Helvetica-Light,Helvetica" font-size="22.7" fill="#000000" transform="matrix(1.00, 0.00, -0.00, -1.00, 533.9, 218.9)">.</text><text xml:space="preserve" font-family="Helvetica-Light,Helvetica" font-size="22.7" fill="#000000" transform="matrix(1.00, 0.00, -0.00, -1.00, 540.2, 218.9)">g</text><text xml:space="preserve" font-family="Helvetica-Light,Helvetica" font-size="22.7" fill="#000000" transform="matrix(1.00, 0.00, -0.00, -1.00, 554.1, 218.9)">i</text><text xml:space="preserve" font-family="Helvetica-Light,Helvetica" font-size="22.7" fill="#000000" transform="matrix(1.00, 0.00, -0.00, -1.00, 559.1, 218.9)">t</text><text xml:space="preserve" font-family="Helvetica-Light,Helvetica" font-size="22.7" fill="#000000" transform="matrix(1.00, 0.00, -0.00, -1.00, 565.4, 218.9)">h</text><text xml:space="preserve" font-family="Helvetica-Light,Helvetica" font-size="22.7" fill="#000000" transform="matrix(1.00, 0.00, -0.00, -1.00, 578.1, 218.9)">u</text><text xml:space="preserve" font-family="Helvetica-Light,Helvetica" font-size="22.7" fill="#000000" transform="matrix(1.00, 0.00, -0.00, -1.00, 590.7, 218.9)">b</text><text xml:space="preserve" font-family="Helvetica-Light,Helvetica" font-size="22.7" fill="#000000" transform="matrix(1.00, 0.00, -0.00, -1.00, 604.6, 218.9)">.</text><text xml:space="preserve" font-family="Helvetica-Light,Helvetica" font-size="22.7" fill="#000000" transform="matrix(1.00, 0.00, -0.00, -1.00, 610.9, 218.9)">i</text><text xml:space="preserve" font-family="Helvetica-Light,Helvetica" font-size="22.7" fill="#000000" transform="matrix(1.00, 0.00, -0.00, -1.00, 615.9, 218.9)">o</text><text xml:space="preserve" font-family="Helvetica-Light,Helvetica" font-size="22.7" fill="#000000" transform="matrix(1.00, 0.00, -0.00, -1.00, 628.6, 218.9)"> </text><g><clipPath id="clip0x7fcd22c52fb0"><path d="M 394.4 215.6 L 628.6 215.6 L 628.6 218.7 L 394.4 218.7 Z M 394.4 215.6 "></path></clipPath><g clip-path="url(#clip0x7fcd22c52fb0)"><path d="M 295.4 26.5 L 528.6 26.5 " fill="none" stroke="#000000" stroke-width="1.14" transform="matrix(1.00, 0.00, 0.00, -1.00, 100.0, 243.7)"></path></g></g><text xml:space="preserve" font-family="Helvetica-Light,Helvetica" font-size="22.7" fill="#000000" transform="matrix(1.00, 0.00, -0.00, -1.00, 359.7, 166.9)">h</text><text xml:space="preserve" font-family="Helvetica-Light,Helvetica" font-size="22.7" fill="#000000" transform="matrix(1.00, 0.00, -0.00, -1.00, 372.3, 166.9)">t</text><text xml:space="preserve" font-family="Helvetica-Light,Helvetica" font-size="22.7" fill="#000000" transform="matrix(1.00, 0.00, -0.00, -1.00, 378.6, 166.9)">t</text><text xml:space="preserve" font-family="Helvetica-Light,Helvetica" font-size="22.7" fill="#000000" transform="matrix(1.00, 0.00, -0.00, -1.00, 384.9, 166.9)">p</text><text xml:space="preserve" font-family="Helvetica-Light,Helvetica" font-size="22.7" fill="#000000" transform="matrix(1.00, 0.00, -0.00, -1.00, 398.8, 166.9)">s</text><text xml:space="preserve" font-family="Helvetica-Light,Helvetica" font-size="22.7" fill="#000000" transform="matrix(1.00, 0.00, -0.00, -1.00, 410.2, 166.9)">:</text><text xml:space="preserve" font-family="Helvetica-Light,Helvetica" font-size="22.7" fill="#000000" transform="matrix(1.00, 0.00, -0.00, -1.00, 416.5, 166.9)">/</text><text xml:space="preserve" font-family="Helvetica-Light,Helvetica" font-size="22.7" fill="#000000" transform="matrix(1.00, 0.00, -0.00, -1.00, 422.8, 166.9)">/</text><text xml:space="preserve" font-family="Helvetica-Light,Helvetica" font-size="22.7" fill="#000000" transform="matrix(1.00, 0.00, -0.00, -1.00, 429.1, 166.9)">g</text><text xml:space="preserve" font-family="Helvetica-Light,Helvetica" font-size="22.7" fill="#000000" transform="matrix(1.00, 0.00, -0.00, -1.00, 443.0, 166.9)">i</text><text xml:space="preserve" font-family="Helvetica-Light,Helvetica" font-size="22.7" fill="#000000" transform="matrix(1.00, 0.00, -0.00, -1.00, 448.0, 166.9)">t</text><text xml:space="preserve" font-family="Helvetica-Light,Helvetica" font-size="22.7" fill="#000000" transform="matrix(1.00, 0.00, -0.00, -1.00, 454.3, 166.9)">h</text><text xml:space="preserve" font-family="Helvetica-Light,Helvetica" font-size="22.7" fill="#000000" transform="matrix(1.00, 0.00, -0.00, -1.00, 467.0, 166.9)">u</text><text xml:space="preserve" font-family="Helvetica-Light,Helvetica" font-size="22.7" fill="#000000" transform="matrix(1.00, 0.00, -0.00, -1.00, 479.6, 166.9)">b</text><text xml:space="preserve" font-family="Helvetica-Light,Helvetica" font-size="22.7" fill="#000000" transform="matrix(1.00, 0.00, -0.00, -1.00, 493.5, 166.9)">.</text><text xml:space="preserve" font-family="Helvetica-Light,Helvetica" font-size="22.7" fill="#000000" transform="matrix(1.00, 0.00, -0.00, -1.00, 499.8, 166.9)">c</text><text xml:space="preserve" font-family="Helvetica-Light,Helvetica" font-size="22.7" fill="#000000" transform="matrix(1.00, 0.00, -0.00, -1.00, 512.4, 166.9)">o</text><text xml:space="preserve" font-family="Helvetica-Light,Helvetica" font-size="22.7" fill="#000000" transform="matrix(1.00, 0.00, -0.00, -1.00, 525.1, 166.9)">m</text><text xml:space="preserve" font-family="Helvetica-Light,Helvetica" font-size="22.7" fill="#000000" transform="matrix(1.00, 0.00, -0.00, -1.00, 544.0, 166.9)">/</text><text xml:space="preserve" font-family="Helvetica-Light,Helvetica" font-size="22.7" fill="#000000" transform="matrix(1.00, 0.00, -0.00, -1.00, 550.3, 166.9)">r</text><text xml:space="preserve" font-family="Helvetica-Light,Helvetica" font-size="22.7" fill="#000000" transform="matrix(1.00, 0.00, -0.00, -1.00, 557.9, 166.9)">u</text><text xml:space="preserve" font-family="Helvetica-Light,Helvetica" font-size="22.7" fill="#000000" transform="matrix(1.00, 0.00, -0.00, -1.00, 570.5, 166.9)">b</text><text xml:space="preserve" font-family="Helvetica-Light,Helvetica" font-size="22.7" fill="#000000" transform="matrix(1.00, 0.00, -0.00, -1.00, 584.4, 166.9)">y</text><text xml:space="preserve" font-family="Helvetica-Light,Helvetica" font-size="22.7" fill="#000000" transform="matrix(1.00, 0.00, -0.00, -1.00, 595.8, 166.9)">-</text><text xml:space="preserve" font-family="Helvetica-Light,Helvetica" font-size="22.7" fill="#000000" transform="matrix(1.00, 0.00, -0.00, -1.00, 603.3, 166.9)">r</text><text xml:space="preserve" font-family="Helvetica-Light,Helvetica" font-size="22.7" fill="#000000" transform="matrix(1.00, 0.00, -0.00, -1.00, 610.5, 166.9)">d</text><text xml:space="preserve" font-family="Helvetica-Light,Helvetica" font-size="22.7" fill="#000000" transform="matrix(1.00, 0.00, -0.00, -1.00, 624.4, 166.9)">f</text><text xml:space="preserve" font-family="Helvetica-Light,Helvetica" font-size="22.7" fill="#000000" transform="matrix(1.00, 0.00, -0.00, -1.00, 630.7, 166.9)">/</text><text xml:space="preserve" font-family="Helvetica-Light,Helvetica" font-size="22.7" fill="#000000" transform="matrix(1.00, 0.00, -0.00, -1.00, 637.0, 166.9)">r</text><text xml:space="preserve" font-family="Helvetica-Light,Helvetica" font-size="22.7" fill="#000000" transform="matrix(1.00, 0.00, -0.00, -1.00, 644.2, 166.9)">d</text><text xml:space="preserve" font-family="Helvetica-Light,Helvetica" font-size="22.7" fill="#000000" transform="matrix(1.00, 0.00, -0.00, -1.00, 658.0, 166.9)">f</text><g><clipPath id="clip0x7fcd22c5fec0"><path d="M 358.7 163.6 L 664.3 163.6 L 664.3 166.7 L 358.7 166.7 Z M 358.7 163.6 "></path></clipPath><g clip-path="url(#clip0x7fcd22c5fec0)"><path d="M 259.7 78.5 L 564.3 78.5 " fill="none" stroke="#000000" stroke-width="1.14" transform="matrix(1.00, 0.00, 0.00, -1.00, 100.0, 243.7)"></path></g></g></g></svg>