<?xml version="1.0" encoding="UTF-8" standalone="no"?><svg xmlns="http://www.w3.org/2000/svg" xmlns:xlink="http://www.w3.org/1999/xlink" clip-rule="evenodd" stroke-miterlimit="4.00" viewBox="0 0 1024 768"><desc>SVG generated by Keynote</desc><defs></defs><g transform="matrix(1.00, 0.00, -0.00, -1.00, 0.0, 768.0)"><path d="M 0.0 768.0 L 1024.0 768.0 L 1024.0 0.0 L 0.0 0.0 Z M 0.0 768.0 " fill="#FEFFFF"></path><text xml:space="preserve" font-family="Helvetica" font-size="12.0" fill="#000000" transform="matrix(1.00, 0.00, -0.00, -1.00, 472.0, 26.0)">H</text><text xml:space="preserve" font-family="Helvetica" font-size="12.0" fill="#000000" transform="matrix(1.00, 0.00, -0.00, -1.00, 480.7, 26.0)">y</text><text xml:space="preserve" font-family="Helvetica" font-size="12.0" fill="#000000" transform="matrix(1.00, 0.00, -0.00, -1.00, 486.7, 26.0)">d</text><text xml:space="preserve" font-family="Helvetica" font-size="12.0" fill="#000000" transform="matrix(1.00, 0.00, -0.00, -1.00, 493.3, 26.0)">r</text><text xml:space="preserve" font-family="Helvetica" font-size="12.0" fill="#000000" transform="matrix(1.00, 0.00, -0.00, -1.00, 497.3, 26.0)">a</text><text xml:space="preserve" font-family="Helvetica" font-size="12.0" fill="#000000" transform="matrix(1.00, 0.00, -0.00, -1.00, 504.0, 26.0)"> </text><text xml:space="preserve" font-family="Helvetica" font-size="12.0" fill="#000000" transform="matrix(1.00, 0.00, -0.00, -1.00, 507.3, 26.0)">C</text><text xml:space="preserve" font-family="Helvetica" font-size="12.0" fill="#000000" transform="matrix(1.00, 0.00, -0.00, -1.00, 516.0, 26.0)">o</text><text xml:space="preserve" font-family="Helvetica" font-size="12.0" fill="#000000" transform="matrix(1.00, 0.00, -0.00, -1.00, 522.7, 26.0)">n</text><text xml:space="preserve" font-family="Helvetica" font-size="12.0" fill="#000000" transform="matrix(1.00, 0.00, -0.00, -1.00, 529.4, 26.0)">n</text><text xml:space="preserve" font-family="Helvetica" font-size="12.0" fill="#000000" transform="matrix(1.00, 0.00, -0.00, -1.00, 536.0, 26.0)">e</text><text xml:space="preserve" font-family="Helvetica" font-size="12.0" fill="#000000" transform="matrix(1.00, 0.00, -0.00, -1.00, 542.7, 26.0)">c</text><text xml:space="preserve" font-family="Helvetica" font-size="12.0" fill="#000000" transform="matrix(1.00, 0.00, -0.00, -1.00, 548.7, 26.0)">t</text><text xml:space="preserve" font-family="Helvetica" font-size="12.0" fill="#000000" transform="matrix(1.00, 0.00, -0.00, -1.00, 107.0, 26.0)">S</text><text xml:space="preserve" font-family="Helvetica" font-size="12.0" fill="#000000" transform="matrix(1.00, 0.00, -0.00, -1.00, 115.0, 26.0)">e</text><text xml:space="preserve" font-family="Helvetica" font-size="12.0" fill="#000000" transform="matrix(1.00, 0.00, -0.00, -1.00, 121.7, 26.0)">p</text><text xml:space="preserve" font-family="Helvetica" font-size="12.0" fill="#000000" transform="matrix(1.00, 0.00, -0.00, -1.00, 128.4, 26.0)">t</text><text xml:space="preserve" font-family="Helvetica" font-size="12.0" fill="#000000" transform="matrix(1.00, 0.00, -0.00, -1.00, 131.7, 26.0)">e</text><text xml:space="preserve" font-family="Helvetica" font-size="12.0" fill="#000000" transform="matrix(1.00, 0.00, -0.00, -1.00, 138.4, 26.0)">m</text><text xml:space="preserve" font-family="Helvetica" font-size="12.0" fill="#000000" transform="matrix(1.00, 0.00, -0.00, -1.00, 148.4, 26.0)">b</text><text xml:space="preserve" font-family="Helvetica" font-size="12.0" fill="#000000" transform="matrix(1.00, 0.00, -0.00, -1.00, 155.0, 26.0)">e</text><text xml:space="preserve" font-family="Helvetica" font-size="12.0" fill="#000000" transform="matrix(1.00, 0.00, -0.00, -1.00, 161.7, 26.0)">r</text><text xml:space="preserve" font-family="Helvetica" font-size="12.0" fill="#000000" transform="matrix(1.00, 0.00, -0.00, -1.00, 165.7, 26.0)"> </text><text xml:space="preserve" font-family="Helvetica" font-size="12.0" fill="#000000" transform="matrix(1.00, 0.00, -0.00, -1.00, 169.0, 26.0)">2</text><text xml:space="preserve" font-family="Helvetica" font-size="12.0" fill="#000000" transform="matrix(1.00, 0.00, -0.00, -1.00, 175.7, 26.0)">0</text><text xml:space="preserve" font-family="Helvetica" font-size="12.0" fill="#000000" transform="matrix(1.00, 0.00, -0.00, -1.00, 182.4, 26.0)">1</text><text xml:space="preserve" font-family="Helvetica" font-size="12.0" fill="#000000" transform="matrix(1.00, 0.00, -0.00, -1.00, 189.1, 26.0)">5</text><text xml:space="preserve" font-family="Helvetica-Light" font-size="50.0" fill="#000000" transform="matrix(1.00, 0.00, -0.00, -1.00, 260.0, 629.0)">B</text><text xml:space="preserve" font-family="Helvetica-Light" font-size="50.0" fill="#000000" transform="matrix(1.00, 0.00, -0.00, -1.00, 293.4, 629.0)">l</text><text xml:space="preserve" font-family="Helvetica-Light" font-size="50.0" fill="#000000" transform="matrix(1.00, 0.00, -0.00, -1.00, 304.4, 629.0)">a</text><text xml:space="preserve" font-family="Helvetica-Light" font-size="50.0" fill="#000000" transform="matrix(1.00, 0.00, -0.00, -1.00, 332.2, 629.0)">n</text><text xml:space="preserve" font-family="Helvetica-Light" font-size="50.0" fill="#000000" transform="matrix(1.00, 0.00, -0.00, -1.00, 360.1, 629.0)">k</text><text xml:space="preserve" font-family="Helvetica-Light" font-size="50.0" fill="#000000" transform="matrix(1.00, 0.00, -0.00, -1.00, 385.1, 629.0)"> </text><text xml:space="preserve" font-family="Helvetica-Light" font-size="50.0" fill="#000000" transform="matrix(1.00, 0.00, -0.00, -1.00, 398.9, 629.0)">N</text><text xml:space="preserve" font-family="Helvetica-Light" font-size="50.0" fill="#000000" transform="matrix(1.00, 0.00, -0.00, -1.00, 435.0, 629.0)">o</text><text xml:space="preserve" font-family="Helvetica-Light" font-size="50.0" fill="#000000" transform="matrix(1.00, 0.00, -0.00, -1.00, 462.9, 629.0)">d</text><text xml:space="preserve" font-family="Helvetica-Light" font-size="50.0" fill="#000000" transform="matrix(1.00, 0.00, -0.00, -1.00, 493.4, 629.0)">e</text><text xml:space="preserve" font-family="Helvetica-Light" font-size="50.0" fill="#000000" transform="matrix(1.00, 0.00, -0.00, -1.00, 521.2, 629.0)">s</text><text xml:space="preserve" font-family="Helvetica-Light" font-size="50.0" fill="#000000" transform="matrix(1.00, 0.00, -0.00, -1.00, 546.2, 629.0)"> </text><text xml:space="preserve" font-family="Helvetica-Light" font-size="50.0" fill="#000000" transform="matrix(1.00, 0.00, -0.00, -1.00, 560.1, 629.0)">i</text><text xml:space="preserve" font-family="Helvetica-Light" font-size="50.0" fill="#000000" transform="matrix(1.00, 0.00, -0.00, -1.00, 571.2, 629.0)">n</text><text xml:space="preserve" font-family="Helvetica-Light" font-size="50.0" fill="#000000" transform="matrix(1.00, 0.00, -0.00, -1.00, 599.0, 629.0)"> </text><text xml:space="preserve" font-family="Helvetica-Light" font-size="50.0" fill="#000000" transform="matrix(1.00, 0.00, -0.00, -1.00, 612.9, 629.0)">R</text><text xml:space="preserve" font-family="Helvetica-Light" font-size="50.0" fill="#000000" transform="matrix(1.00, 0.00, -0.00, -1.00, 646.2, 629.0)">D</text><text xml:space="preserve" font-family="Helvetica-Light" font-size="50.0" fill="#000000" transform="matrix(1.00, 0.00, -0.00, -1.00, 682.4, 629.0)">F</text><text xml:space="preserve" font-family="Helvetica-Light" font-size="50.0" fill="#000000" transform="matrix(1.00, 0.00, -0.00, -1.00, 703.7, 629.0)">.</text><text xml:space="preserve" font-family="Helvetica-Light" font-size="50.0" fill="#000000" transform="matrix(1.00, 0.00, -0.00, -1.00, 717.6, 629.0)">r</text><text xml:space="preserve" font-family="Helvetica-Light" font-size="50.0" fill="#000000" transform="matrix(1.00, 0.00, -0.00, -1.00, 734.2, 629.0)">b</text><text xml:space="preserve" font-family="Helvetica-Light" font-size="26.7" fill="#000000" transform="matrix(1.00, 0.00, -0.00, -1.00, 79.0, 528.1)">•</text><text xml:space="preserve" font-family="Helvetica-Light" font-size="35.6" fill="#000000" transform="matrix(1.00, 0.00, -0.00, -1.00, 114.0, 525.0)">S</text><text xml:space="preserve" font-family="Helvetica-Light" font-size="35.6" fill="#000000" transform="matrix(1.00, 0.00, -0.00, -1.00, 135.8, 525.0)">i</text><text xml:space="preserve" font-family="Helvetica-Light" font-size="35.6" fill="#000000" transform="matrix(1.00, 0.00, -0.00, -1.00, 143.7, 525.0)">m</text><text xml:space="preserve" font-family="Helvetica-Light" font-size="35.6" fill="#000000" transform="matrix(1.00, 0.00, -0.00, -1.00, 173.4, 525.0)">p</text><text xml:space="preserve" font-family="Helvetica-Light" font-size="35.6" fill="#000000" transform="matrix(1.00, 0.00, -0.00, -1.00, 195.2, 525.0)">l</text><text xml:space="preserve" font-family="Helvetica-Light" font-size="35.6" fill="#000000" transform="matrix(1.00, 0.00, -0.00, -1.00, 203.1, 525.0)">e</text><text xml:space="preserve" font-family="Helvetica-Light" font-size="35.6" fill="#000000" transform="matrix(1.00, 0.00, -0.00, -1.00, 222.9, 525.0)"> </text><text xml:space="preserve" font-family="Helvetica-Light" font-size="35.6" fill="#000000" transform="matrix(1.00, 0.00, -0.00, -1.00, 232.8, 525.0)">m</text><text xml:space="preserve" font-family="Helvetica-Light" font-size="35.6" fill="#000000" transform="matrix(1.00, 0.00, -0.00, -1.00, 262.5, 525.0)">o</text><text xml:space="preserve" font-family="Helvetica-Light" font-size="35.6" fill="#000000" transform="matrix(1.00, 0.00, -0.00, -1.00, 282.3, 525.0)">d</text><text xml:space="preserve" font-family="Helvetica-Light" font-size="35.6" fill="#000000" transform="matrix(1.00, 0.00, -0.00, -1.00, 304.1, 525.0)">e</text><text xml:space="preserve" font-family="Helvetica-Light" font-size="35.6" fill="#000000" transform="matrix(1.00, 0.00, -0.00, -1.00, 323.9, 525.0)">l</text><text xml:space="preserve" font-family="Helvetica-Light" font-size="35.6" fill="#000000" transform="matrix(1.00, 0.00, -0.00, -1.00, 331.8, 525.0)"> </text><text xml:space="preserve" font-family="Courier" font-size="14.8" fill="#000000" transform="matrix(1.00, 0.00, -0.00, -1.00, 114.0, 482.8)">•</text><text xml:space="preserve" font-family="Courier" font-size="19.8" fill="#000000" transform="matrix(1.00, 0.00, -0.00, -1.00, 133.0, 481.0)">R</text><text xml:space="preserve" font-family="Courier" font-size="19.8" fill="#000000" transform="matrix(1.00, 0.00, -0.00, -1.00, 144.9, 481.0)">D</text><text xml:space="preserve" font-family="Courier" font-size="19.8" fill="#000000" transform="matrix(1.00, 0.00, -0.00, -1.00, 156.8, 481.0)">F</text><text xml:space="preserve" font-family="Courier" font-size="19.8" fill="#000000" transform="matrix(1.00, 0.00, -0.00, -1.00, 168.7, 481.0)">:</text><text xml:space="preserve" font-family="Courier" font-size="19.8" fill="#000000" transform="matrix(1.00, 0.00, -0.00, -1.00, 180.5, 481.0)">:</text><text xml:space="preserve" font-family="Courier" font-size="19.8" fill="#000000" transform="matrix(1.00, 0.00, -0.00, -1.00, 192.4, 481.0)">N</text><text xml:space="preserve" font-family="Courier" font-size="19.8" fill="#000000" transform="matrix(1.00, 0.00, -0.00, -1.00, 204.3, 481.0)">o</text><text xml:space="preserve" font-family="Courier" font-size="19.8" fill="#000000" transform="matrix(1.00, 0.00, -0.00, -1.00, 216.2, 481.0)">d</text><text xml:space="preserve" font-family="Courier" font-size="19.8" fill="#000000" transform="matrix(1.00, 0.00, -0.00, -1.00, 228.1, 481.0)">e</text><text xml:space="preserve" font-family="Courier" font-size="19.8" fill="#000000" transform="matrix(1.00, 0.00, -0.00, -1.00, 240.0, 481.0)">(</text><text xml:space="preserve" font-family="Courier" font-size="19.8" fill="#000000" transform="matrix(1.00, 0.00, -0.00, -1.00, 251.8, 481.0)">"</text><text xml:space="preserve" font-family="Courier" font-size="19.8" fill="#000000" transform="matrix(1.00, 0.00, -0.00, -1.00, 263.7, 481.0)">f</text><text xml:space="preserve" font-family="Courier" font-size="19.8" fill="#000000" transform="matrix(1.00, 0.00, -0.00, -1.00, 275.6, 481.0)">o</text><text xml:space="preserve" font-family="Courier" font-size="19.8" fill="#000000" transform="matrix(1.00, 0.00, -0.00, -1.00, 287.5, 481.0)">o</text><text xml:space="preserve" font-family="Courier" font-size="19.8" fill="#000000" transform="matrix(1.00, 0.00, -0.00, -1.00, 299.4, 481.0)">"</text><text xml:space="preserve" font-family="Courier" font-size="19.8" fill="#000000" transform="matrix(1.00, 0.00, -0.00, -1.00, 311.2, 481.0)">)</text><text xml:space="preserve" font-family="Courier" font-size="14.8" fill="#000000" transform="matrix(1.00, 0.00, -0.00, -1.00, 114.0, 442.0)">•</text><text xml:space="preserve" font-family="Courier" font-size="19.8" fill="#000000" transform="matrix(1.00, 0.00, -0.00, -1.00, 133.0, 440.0)">R</text><text xml:space="preserve" font-family="Courier" font-size="19.8" fill="#000000" transform="matrix(1.00, 0.00, -0.00, -1.00, 144.9, 440.0)">D</text><text xml:space="preserve" font-family="Courier" font-size="19.8" fill="#000000" transform="matrix(1.00, 0.00, -0.00, -1.00, 156.8, 440.0)">F</text><text xml:space="preserve" font-family="Courier" font-size="19.8" fill="#000000" transform="matrix(1.00, 0.00, -0.00, -1.00, 168.7, 440.0)">:</text><text xml:space="preserve" font-family="Courier" font-size="19.8" fill="#000000" transform="matrix(1.00, 0.00, -0.00, -1.00, 180.5, 440.0)">:</text><text xml:space="preserve" font-family="Courier" font-size="19.8" fill="#000000" transform="matrix(1.00, 0.00, -0.00, -1.00, 192.4, 440.0)">N</text><text xml:space="preserve" font-family="Courier" font-size="19.8" fill="#000000" transform="matrix(1.00, 0.00, -0.00, -1.00, 204.3, 440.0)">o</text><text xml:space="preserve" font-family="Courier" font-size="19.8" fill="#000000" transform="matrix(1.00, 0.00, -0.00, -1.00, 216.2, 440.0)">d</text><text xml:space="preserve" font-family="Courier" font-size="19.8" fill="#000000" transform="matrix(1.00, 0.00, -0.00, -1.00, 228.1, 440.0)">e</text><text xml:space="preserve" font-family="Courier" font-size="19.8" fill="#000000" transform="matrix(1.00, 0.00, -0.00, -1.00, 240.0, 440.0)">.</text><text xml:space="preserve" font-family="Courier" font-size="19.8" fill="#000000" transform="matrix(1.00, 0.00, -0.00, -1.00, 251.8, 440.0)">n</text><text xml:space="preserve" font-family="Courier" font-size="19.8" fill="#000000" transform="matrix(1.00, 0.00, -0.00, -1.00, 263.7, 440.0)">e</text><text xml:space="preserve" font-family="Courier" font-size="19.8" fill="#000000" transform="matrix(1.00, 0.00, -0.00, -1.00, 275.6, 440.0)">w</text><text xml:space="preserve" font-family="Courier" font-size="14.8" fill="#000000" transform="matrix(1.00, 0.00, -0.00, -1.00, 114.0, 401.2)">•</text><text xml:space="preserve" font-family="Courier" font-size="19.8" fill="#000000" transform="matrix(1.00, 0.00, -0.00, -1.00, 133.0, 399.0)">R</text><text xml:space="preserve" font-family="Courier" font-size="19.8" fill="#000000" transform="matrix(1.00, 0.00, -0.00, -1.00, 144.9, 399.0)">D</text><text xml:space="preserve" font-family="Courier" font-size="19.8" fill="#000000" transform="matrix(1.00, 0.00, -0.00, -1.00, 156.8, 399.0)">F</text><text xml:space="preserve" font-family="Courier" font-size="19.8" fill="#000000" transform="matrix(1.00, 0.00, -0.00, -1.00, 168.7, 399.0)">:</text><text xml:space="preserve" font-family="Courier" font-size="19.8" fill="#000000" transform="matrix(1.00, 0.00, -0.00, -1.00, 180.5, 399.0)">:</text><text xml:space="preserve" font-family="Courier" font-size="19.8" fill="#000000" transform="matrix(1.00, 0.00, -0.00, -1.00, 192.4, 399.0)">N</text><text xml:space="preserve" font-family="Courier" font-size="19.8" fill="#000000" transform="matrix(1.00, 0.00, -0.00, -1.00, 204.3, 399.0)">o</text><text xml:space="preserve" font-family="Courier" font-size="19.8" fill="#000000" transform="matrix(1.00, 0.00, -0.00, -1.00, 216.2, 399.0)">d</text><text xml:space="preserve" font-family="Courier" font-size="19.8" fill="#000000" transform="matrix(1.00, 0.00, -0.00, -1.00, 228.1, 399.0)">e</text><text xml:space="preserve" font-family="Courier" font-size="19.8" fill="#000000" transform="matrix(1.00, 0.00, -0.00, -1.00, 240.0, 399.0)">.</text><text xml:space="preserve" font-family="Courier" font-size="19.8" fill="#000000" transform="matrix(1.00, 0.00, -0.00, -1.00, 251.8, 399.0)">i</text><text xml:space="preserve" font-family="Courier" font-size="19.8" fill="#000000" transform="matrix(1.00, 0.00, -0.00, -1.00, 263.7, 399.0)">n</text><text xml:space="preserve" font-family="Courier" font-size="19.8" fill="#000000" transform="matrix(1.00, 0.00, -0.00, -1.00, 275.6, 399.0)">t</text><text xml:space="preserve" font-family="Courier" font-size="19.8" fill="#000000" transform="matrix(1.00, 0.00, -0.00, -1.00, 287.5, 399.0)">e</text><text xml:space="preserve" font-family="Courier" font-size="19.8" fill="#000000" transform="matrix(1.00, 0.00, -0.00, -1.00, 299.4, 399.0)">r</text><text xml:space="preserve" font-family="Courier" font-size="19.8" fill="#000000" transform="matrix(1.00, 0.00, -0.00, -1.00, 311.3, 399.0)">n</text><text xml:space="preserve" font-family="Courier" font-size="19.8" fill="#000000" transform="matrix(1.00, 0.00, -0.00, -1.00, 323.1, 399.0)">(</text><text xml:space="preserve" font-family="Courier" font-size="19.8" fill="#000000" transform="matrix(1.00, 0.00, -0.00, -1.00, 335.0, 399.0)">"</text><text xml:space="preserve" font-family="Courier" font-size="19.8" fill="#000000" transform="matrix(1.00, 0.00, -0.00, -1.00, 346.9, 399.0)">b</text><text xml:space="preserve" font-family="Courier" font-size="19.8" fill="#000000" transform="matrix(1.00, 0.00, -0.00, -1.00, 358.8, 399.0)">a</text><text xml:space="preserve" font-family="Courier" font-size="19.8" fill="#000000" transform="matrix(1.00, 0.00, -0.00, -1.00, 370.7, 399.0)">r</text><text xml:space="preserve" font-family="Courier" font-size="19.8" fill="#000000" transform="matrix(1.00, 0.00, -0.00, -1.00, 382.6, 399.0)">"</text><text xml:space="preserve" font-family="Courier" font-size="19.8" fill="#000000" transform="matrix(1.00, 0.00, -0.00, -1.00, 394.4, 399.0)">)</text><text xml:space="preserve" font-family="Helvetica-Light" font-size="26.7" fill="#000000" transform="matrix(1.00, 0.00, -0.00, -1.00, 79.0, 346.8)">•</text><text xml:space="preserve" font-family="Helvetica-Light" font-size="35.6" fill="#000000" transform="matrix(1.00, 0.00, -0.00, -1.00, 114.0, 344.0)">E</text><text xml:space="preserve" font-family="Helvetica-Light" font-size="35.6" fill="#000000" transform="matrix(1.00, 0.00, -0.00, -1.00, 135.8, 344.0)">q</text><text xml:space="preserve" font-family="Helvetica-Light" font-size="35.6" fill="#000000" transform="matrix(1.00, 0.00, -0.00, -1.00, 157.6, 344.0)">u</text><text xml:space="preserve" font-family="Helvetica-Light" font-size="35.6" fill="#000000" transform="matrix(1.00, 0.00, -0.00, -1.00, 177.4, 344.0)">i</text><text xml:space="preserve" font-family="Helvetica-Light" font-size="35.6" fill="#000000" transform="matrix(1.00, 0.00, -0.00, -1.00, 185.3, 344.0)">v</text><text xml:space="preserve" font-family="Helvetica-Light" font-size="35.6" fill="#000000" transform="matrix(1.00, 0.00, -0.00, -1.00, 203.1, 344.0)">a</text><text xml:space="preserve" font-family="Helvetica-Light" font-size="35.6" fill="#000000" transform="matrix(1.00, 0.00, -0.00, -1.00, 222.9, 344.0)">l</text><text xml:space="preserve" font-family="Helvetica-Light" font-size="35.6" fill="#000000" transform="matrix(1.00, 0.00, -0.00, -1.00, 230.8, 344.0)">e</text><text xml:space="preserve" font-family="Helvetica-Light" font-size="35.6" fill="#000000" transform="matrix(1.00, 0.00, -0.00, -1.00, 250.6, 344.0)">n</text><text xml:space="preserve" font-family="Helvetica-Light" font-size="35.6" fill="#000000" transform="matrix(1.00, 0.00, -0.00, -1.00, 270.5, 344.0)">c</text><text xml:space="preserve" font-family="Helvetica-Light" font-size="35.6" fill="#000000" transform="matrix(1.00, 0.00, -0.00, -1.00, 290.3, 344.0)">e</text><text xml:space="preserve" font-family="Helvetica-Light" font-size="35.6" fill="#000000" transform="matrix(1.00, 0.00, -0.00, -1.00, 310.1, 344.0)"> </text><text xml:space="preserve" font-family="Helvetica-Light" font-size="35.6" fill="#000000" transform="matrix(1.00, 0.00, -0.00, -1.00, 320.0, 344.0)">i</text><text xml:space="preserve" font-family="Helvetica-Light" font-size="35.6" fill="#000000" transform="matrix(1.00, 0.00, -0.00, -1.00, 327.9, 344.0)">s</text><text xml:space="preserve" font-family="Helvetica-Light" font-size="35.6" fill="#000000" transform="matrix(1.00, 0.00, -0.00, -1.00, 345.7, 344.0)">s</text><text xml:space="preserve" font-family="Helvetica-Light" font-size="35.6" fill="#000000" transform="matrix(1.00, 0.00, -0.00, -1.00, 363.6, 344.0)">u</text><text xml:space="preserve" font-family="Helvetica-Light" font-size="35.6" fill="#000000" transform="matrix(1.00, 0.00, -0.00, -1.00, 383.4, 344.0)">e</text><text xml:space="preserve" font-family="Helvetica-Light" font-size="35.6" fill="#000000" transform="matrix(1.00, 0.00, -0.00, -1.00, 403.2, 344.0)">s</text><text xml:space="preserve" font-family="Helvetica-Light" font-size="35.6" fill="#000000" transform="matrix(1.00, 0.00, -0.00, -1.00, 421.0, 344.0)"> </text><text xml:space="preserve" font-family="Courier" font-size="14.8" fill="#000000" transform="matrix(1.00, 0.00, -0.00, -1.00, 114.0, 301.5)">•</text><text xml:space="preserve" font-family="Courier" font-size="19.8" fill="#000000" transform="matrix(1.00, 0.00, -0.00, -1.00, 133.0, 300.0)">R</text><text xml:space="preserve" font-family="Courier" font-size="19.8" fill="#000000" transform="matrix(1.00, 0.00, -0.00, -1.00, 144.9, 300.0)">D</text><text xml:space="preserve" font-family="Courier" font-size="19.8" fill="#000000" transform="matrix(1.00, 0.00, -0.00, -1.00, 156.8, 300.0)">F</text><text xml:space="preserve" font-family="Courier" font-size="19.8" fill="#000000" transform="matrix(1.00, 0.00, -0.00, -1.00, 168.7, 300.0)">:</text><text xml:space="preserve" font-family="Courier" font-size="19.8" fill="#000000" transform="matrix(1.00, 0.00, -0.00, -1.00, 180.5, 300.0)">:</text><text xml:space="preserve" font-family="Courier" font-size="19.8" fill="#000000" transform="matrix(1.00, 0.00, -0.00, -1.00, 192.4, 300.0)">N</text><text xml:space="preserve" font-family="Courier" font-size="19.8" fill="#000000" transform="matrix(1.00, 0.00, -0.00, -1.00, 204.3, 300.0)">o</text><text xml:space="preserve" font-family="Courier" font-size="19.8" fill="#000000" transform="matrix(1.00, 0.00, -0.00, -1.00, 216.2, 300.0)">d</text><text xml:space="preserve" font-family="Courier" font-size="19.8" fill="#000000" transform="matrix(1.00, 0.00, -0.00, -1.00, 228.1, 300.0)">e</text><text xml:space="preserve" font-family="Courier" font-size="19.8" fill="#000000" transform="matrix(1.00, 0.00, -0.00, -1.00, 240.0, 300.0)">(</text><text xml:space="preserve" font-family="Courier" font-size="19.8" fill="#000000" transform="matrix(1.00, 0.00, -0.00, -1.00, 251.8, 300.0)">“</text><text xml:space="preserve" font-family="Courier" font-size="19.8" fill="#000000" transform="matrix(1.00, 0.00, -0.00, -1.00, 263.7, 300.0)">f</text><text xml:space="preserve" font-family="Courier" font-size="19.8" fill="#000000" transform="matrix(1.00, 0.00, -0.00, -1.00, 275.6, 300.0)">o</text><text xml:space="preserve" font-family="Courier" font-size="19.8" fill="#000000" transform="matrix(1.00, 0.00, -0.00, -1.00, 287.5, 300.0)">o</text><text xml:space="preserve" font-family="Courier" font-size="19.8" fill="#000000" transform="matrix(1.00, 0.00, -0.00, -1.00, 299.4, 300.0)">”</text><text xml:space="preserve" font-family="Courier" font-size="19.8" fill="#000000" transform="matrix(1.00, 0.00, -0.00, -1.00, 311.3, 300.0)">)</text><text xml:space="preserve" font-family="Courier" font-size="19.8" fill="#000000" transform="matrix(1.00, 0.00, -0.00, -1.00, 323.1, 300.0)">.</text><text xml:space="preserve" font-family="Courier" font-size="19.8" fill="#000000" transform="matrix(1.00, 0.00, -0.00, -1.00, 335.0, 300.0)">e</text><text xml:space="preserve" font-family="Courier" font-size="19.8" fill="#000000" transform="matrix(1.00, 0.00, -0.00, -1.00, 346.9, 300.0)">q</text><text xml:space="preserve" font-family="Courier" font-size="19.8" fill="#000000" transform="matrix(1.00, 0.00, -0.00, -1.00, 358.8, 300.0)">l</text><text xml:space="preserve" font-family="Courier" font-size="19.8" fill="#000000" transform="matrix(1.00, 0.00, -0.00, -1.00, 370.7, 300.0)">?</text><text xml:space="preserve" font-family="Courier" font-size="19.8" fill="#000000" transform="matrix(1.00, 0.00, -0.00, -1.00, 382.6, 300.0)"> </text><text xml:space="preserve" font-family="Courier" font-size="19.8" fill="#000000" transform="matrix(1.00, 0.00, -0.00, -1.00, 394.4, 300.0)">R</text><text xml:space="preserve" font-family="Courier" font-size="19.8" fill="#000000" transform="matrix(1.00, 0.00, -0.00, -1.00, 406.3, 300.0)">D</text><text xml:space="preserve" font-family="Courier" font-size="19.8" fill="#000000" transform="matrix(1.00, 0.00, -0.00, -1.00, 418.2, 300.0)">F</text><text xml:space="preserve" font-family="Courier" font-size="19.8" fill="#000000" transform="matrix(1.00, 0.00, -0.00, -1.00, 430.1, 300.0)">:</text><text xml:space="preserve" font-family="Courier" font-size="19.8" fill="#000000" transform="matrix(1.00, 0.00, -0.00, -1.00, 442.0, 300.0)">:</text><text xml:space="preserve" font-family="Courier" font-size="19.8" fill="#000000" transform="matrix(1.00, 0.00, -0.00, -1.00, 453.9, 300.0)">N</text><text xml:space="preserve" font-family="Courier" font-size="19.8" fill="#000000" transform="matrix(1.00, 0.00, -0.00, -1.00, 465.7, 300.0)">o</text><text xml:space="preserve" font-family="Courier" font-size="19.8" fill="#000000" transform="matrix(1.00, 0.00, -0.00, -1.00, 477.6, 300.0)">d</text><text xml:space="preserve" font-family="Courier" font-size="19.8" fill="#000000" transform="matrix(1.00, 0.00, -0.00, -1.00, 489.5, 300.0)">e</text><text xml:space="preserve" font-family="Courier" font-size="19.8" fill="#000000" transform="matrix(1.00, 0.00, -0.00, -1.00, 501.4, 300.0)">(</text><text xml:space="preserve" font-family="Courier" font-size="19.8" fill="#000000" transform="matrix(1.00, 0.00, -0.00, -1.00, 513.3, 300.0)">“</text><text xml:space="preserve" font-family="Courier" font-size="19.8" fill="#000000" transform="matrix(1.00, 0.00, -0.00, -1.00, 525.2, 300.0)">f</text><text xml:space="preserve" font-family="Courier" font-size="19.8" fill="#000000" transform="matrix(1.00, 0.00, -0.00, -1.00, 537.1, 300.0)">o</text><text xml:space="preserve" font-family="Courier" font-size="19.8" fill="#000000" transform="matrix(1.00, 0.00, -0.00, -1.00, 548.9, 300.0)">o</text><text xml:space="preserve" font-family="Courier" font-size="19.8" fill="#000000" transform="matrix(1.00, 0.00, -0.00, -1.00, 560.8, 300.0)">"</text><text xml:space="preserve" font-family="Courier" font-size="19.8" fill="#000000" transform="matrix(1.00, 0.00, -0.00, -1.00, 572.6, 300.0)">)</text><text xml:space="preserve" font-family="Courier" font-size="19.8" fill="#000000" transform="matrix(1.00, 0.00, -0.00, -1.00, 584.5, 300.0)"> </text><text xml:space="preserve" font-family="Courier" font-size="19.8" fill="#000000" transform="matrix(1.00, 0.00, -0.00, -1.00, 596.4, 300.0)">#</text><text xml:space="preserve" font-family="Courier" font-size="19.8" fill="#000000" transform="matrix(1.00, 0.00, -0.00, -1.00, 608.3, 300.0)">=</text><text xml:space="preserve" font-family="Courier" font-size="19.8" fill="#000000" transform="matrix(1.00, 0.00, -0.00, -1.00, 620.2, 300.0)">&gt;</text><text xml:space="preserve" font-family="Courier" font-size="19.8" fill="#000000" transform="matrix(1.00, 0.00, -0.00, -1.00, 632.1, 300.0)"> </text><text xml:space="preserve" font-family="Courier" font-size="19.8" fill="#000000" transform="matrix(1.00, 0.00, -0.00, -1.00, 643.9, 300.0)">f</text><text xml:space="preserve" font-family="Courier" font-size="19.8" fill="#000000" transform="matrix(1.00, 0.00, -0.00, -1.00, 655.8, 300.0)">a</text><text xml:space="preserve" font-family="Courier" font-size="19.8" fill="#000000" transform="matrix(1.00, 0.00, -0.00, -1.00, 667.7, 300.0)">l</text><text xml:space="preserve" font-family="Courier" font-size="19.8" fill="#000000" transform="matrix(1.00, 0.00, -0.00, -1.00, 679.6, 300.0)">s</text><text xml:space="preserve" font-family="Courier" font-size="19.8" fill="#000000" transform="matrix(1.00, 0.00, -0.00, -1.00, 691.5, 300.0)">e</text><text xml:space="preserve" font-family="Courier" font-size="14.8" fill="#000000" transform="matrix(1.00, 0.00, -0.00, -1.00, 114.0, 260.7)">•</text><text xml:space="preserve" font-family="Courier" font-size="19.8" fill="#000000" transform="matrix(1.00, 0.00, -0.00, -1.00, 133.0, 259.0)">n</text><text xml:space="preserve" font-family="Courier" font-size="19.8" fill="#000000" transform="matrix(1.00, 0.00, -0.00, -1.00, 144.9, 259.0)"> </text><text xml:space="preserve" font-family="Courier" font-size="19.8" fill="#000000" transform="matrix(1.00, 0.00, -0.00, -1.00, 156.8, 259.0)">=</text><text xml:space="preserve" font-family="Courier" font-size="19.8" fill="#000000" transform="matrix(1.00, 0.00, -0.00, -1.00, 168.7, 259.0)"> </text><text xml:space="preserve" font-family="Courier" font-size="19.8" fill="#000000" transform="matrix(1.00, 0.00, -0.00, -1.00, 180.5, 259.0)">R</text><text xml:space="preserve" font-family="Courier" font-size="19.8" fill="#000000" transform="matrix(1.00, 0.00, -0.00, -1.00, 192.4, 259.0)">D</text><text xml:space="preserve" font-family="Courier" font-size="19.8" fill="#000000" transform="matrix(1.00, 0.00, -0.00, -1.00, 204.3, 259.0)">F</text><text xml:space="preserve" font-family="Courier" font-size="19.8" fill="#000000" transform="matrix(1.00, 0.00, -0.00, -1.00, 216.2, 259.0)">:</text><text xml:space="preserve" font-family="Courier" font-size="19.8" fill="#000000" transform="matrix(1.00, 0.00, -0.00, -1.00, 228.1, 259.0)">:</text><text xml:space="preserve" font-family="Courier" font-size="19.8" fill="#000000" transform="matrix(1.00, 0.00, -0.00, -1.00, 240.0, 259.0)">N</text><text xml:space="preserve" font-family="Courier" font-size="19.8" fill="#000000" transform="matrix(1.00, 0.00, -0.00, -1.00, 251.8, 259.0)">o</text><text xml:space="preserve" font-family="Courier" font-size="19.8" fill="#000000" transform="matrix(1.00, 0.00, -0.00, -1.00, 263.7, 259.0)">d</text><text xml:space="preserve" font-family="Courier" font-size="19.8" fill="#000000" transform="matrix(1.00, 0.00, -0.00, -1.00, 275.6, 259.0)">e</text><text xml:space="preserve" font-family="Courier" font-size="19.8" fill="#000000" transform="matrix(1.00, 0.00, -0.00, -1.00, 287.5, 259.0)">(</text><text xml:space="preserve" font-family="Courier" font-size="19.8" fill="#000000" transform="matrix(1.00, 0.00, -0.00, -1.00, 299.4, 259.0)">"</text><text xml:space="preserve" font-family="Courier" font-size="19.8" fill="#000000" transform="matrix(1.00, 0.00, -0.00, -1.00, 311.3, 259.0)">f</text><text xml:space="preserve" font-family="Courier" font-size="19.8" fill="#000000" transform="matrix(1.00, 0.00, -0.00, -1.00, 323.1, 259.0)">o</text><text xml:space="preserve" font-family="Courier" font-size="19.8" fill="#000000" transform="matrix(1.00, 0.00, -0.00, -1.00, 335.0, 259.0)">o</text><text xml:space="preserve" font-family="Courier" font-size="19.8" fill="#000000" transform="matrix(1.00, 0.00, -0.00, -1.00, 346.9, 259.0)">"</text><text xml:space="preserve" font-family="Courier" font-size="19.8" fill="#000000" transform="matrix(1.00, 0.00, -0.00, -1.00, 358.8, 259.0)">)</text><text xml:space="preserve" font-family="Courier" font-size="19.8" fill="#000000" transform="matrix(1.00, 0.00, -0.00, -1.00, 370.6, 259.0)">;</text><text xml:space="preserve" font-family="Courier" font-size="19.8" fill="#000000" transform="matrix(1.00, 0.00, -0.00, -1.00, 382.5, 259.0)"> </text><text xml:space="preserve" font-family="Courier" font-size="19.8" fill="#000000" transform="matrix(1.00, 0.00, -0.00, -1.00, 394.4, 259.0)">n</text><text xml:space="preserve" font-family="Courier" font-size="19.8" fill="#000000" transform="matrix(1.00, 0.00, -0.00, -1.00, 406.3, 259.0)"> </text><text xml:space="preserve" font-family="Courier" font-size="19.8" fill="#000000" transform="matrix(1.00, 0.00, -0.00, -1.00, 418.2, 259.0)">=</text><text xml:space="preserve" font-family="Courier" font-size="19.8" fill="#000000" transform="matrix(1.00, 0.00, -0.00, -1.00, 430.1, 259.0)">=</text><text xml:space="preserve" font-family="Courier" font-size="19.8" fill="#000000" transform="matrix(1.00, 0.00, -0.00, -1.00, 441.9, 259.0)"> </text><text xml:space="preserve" font-family="Courier" font-size="19.8" fill="#000000" transform="matrix(1.00, 0.00, -0.00, -1.00, 453.8, 259.0)">n</text><text xml:space="preserve" font-family="Courier" font-size="19.8" fill="#000000" transform="matrix(1.00, 0.00, -0.00, -1.00, 465.7, 259.0)">.</text><text xml:space="preserve" font-family="Courier" font-size="19.8" fill="#000000" transform="matrix(1.00, 0.00, -0.00, -1.00, 477.6, 259.0)">d</text><text xml:space="preserve" font-family="Courier" font-size="19.8" fill="#000000" transform="matrix(1.00, 0.00, -0.00, -1.00, 489.5, 259.0)">u</text><text xml:space="preserve" font-family="Courier" font-size="19.8" fill="#000000" transform="matrix(1.00, 0.00, -0.00, -1.00, 501.4, 259.0)">p</text><text xml:space="preserve" font-family="Helvetica-Light" font-size="26.7" fill="#000000" transform="matrix(1.00, 0.00, -0.00, -1.00, 79.0, 206.3)">•</text><text xml:space="preserve" font-family="Helvetica-Light" font-size="35.6" fill="#000000" transform="matrix(1.00, 0.00, -0.00, -1.00, 114.0, 203.0)">I</text><text xml:space="preserve" font-family="Helvetica-Light" font-size="35.6" fill="#000000" transform="matrix(1.00, 0.00, -0.00, -1.00, 123.9, 203.0)">n</text><text xml:space="preserve" font-family="Helvetica-Light" font-size="35.6" fill="#000000" transform="matrix(1.00, 0.00, -0.00, -1.00, 143.7, 203.0)">t</text><text xml:space="preserve" font-family="Helvetica-Light" font-size="35.6" fill="#000000" transform="matrix(1.00, 0.00, -0.00, -1.00, 153.6, 203.0)">e</text><text xml:space="preserve" font-family="Helvetica-Light" font-size="35.6" fill="#000000" transform="matrix(1.00, 0.00, -0.00, -1.00, 173.4, 203.0)">r</text><text xml:space="preserve" font-family="Helvetica-Light" font-size="35.6" fill="#000000" transform="matrix(1.00, 0.00, -0.00, -1.00, 186.0, 203.0)">n</text><text xml:space="preserve" font-family="Helvetica-Light" font-size="35.6" fill="#000000" transform="matrix(1.00, 0.00, -0.00, -1.00, 205.8, 203.0)">i</text><text xml:space="preserve" font-family="Helvetica-Light" font-size="35.6" fill="#000000" transform="matrix(1.00, 0.00, -0.00, -1.00, 213.7, 203.0)">n</text><text xml:space="preserve" font-family="Helvetica-Light" font-size="35.6" fill="#000000" transform="matrix(1.00, 0.00, -0.00, -1.00, 233.5, 203.0)">g</text><text xml:space="preserve" font-family="Helvetica-Light" font-size="35.6" fill="#000000" transform="matrix(1.00, 0.00, -0.00, -1.00, 255.3, 203.0)"> </text><text xml:space="preserve" font-family="Helvetica-Light" font-size="26.7" fill="#000000" transform="matrix(1.00, 0.00, -0.00, -1.00, 114.0, 147.5)">•</text><text xml:space="preserve" font-family="Helvetica-Light" font-size="35.6" fill="#000000" transform="matrix(1.00, 0.00, -0.00, -1.00, 149.0, 145.0)">I</text><text xml:space="preserve" font-family="Helvetica-Light" font-size="35.6" fill="#000000" transform="matrix(1.00, 0.00, -0.00, -1.00, 158.9, 145.0)">n</text><text xml:space="preserve" font-family="Helvetica-Light" font-size="35.6" fill="#000000" transform="matrix(1.00, 0.00, -0.00, -1.00, 178.7, 145.0)"> </text><text xml:space="preserve" font-family="Helvetica-Light" font-size="35.6" fill="#000000" transform="matrix(1.00, 0.00, -0.00, -1.00, 188.6, 145.0)">t</text><text xml:space="preserve" font-family="Helvetica-Light" font-size="35.6" fill="#000000" transform="matrix(1.00, 0.00, -0.00, -1.00, 198.5, 145.0)">h</text><text xml:space="preserve" font-family="Helvetica-Light" font-size="35.6" fill="#000000" transform="matrix(1.00, 0.00, -0.00, -1.00, 218.4, 145.0)">e</text><text xml:space="preserve" font-family="Helvetica-Light" font-size="35.6" fill="#000000" transform="matrix(1.00, 0.00, -0.00, -1.00, 238.2, 145.0)">o</text><text xml:space="preserve" font-family="Helvetica-Light" font-size="35.6" fill="#000000" transform="matrix(1.00, 0.00, -0.00, -1.00, 258.0, 145.0)">r</text><text xml:space="preserve" font-family="Helvetica-Light" font-size="35.6" fill="#000000" transform="matrix(1.00, 0.00, -0.00, -1.00, 270.5, 145.0)">y</text><text xml:space="preserve" font-family="Helvetica-Light" font-size="35.6" fill="#000000" transform="matrix(1.00, 0.00, -0.00, -1.00, 288.3, 145.0)">:</text><text xml:space="preserve" font-family="Helvetica-Light" font-size="35.6" fill="#000000" transform="matrix(1.00, 0.00, -0.00, -1.00, 298.2, 145.0)"> </text><text xml:space="preserve" font-family="Courier" font-size="19.8" fill="#000000" transform="matrix(1.00, 0.00, -0.00, -1.00, 308.1, 145.0)">R</text><text xml:space="preserve" font-family="Courier" font-size="19.8" fill="#000000" transform="matrix(1.00, 0.00, -0.00, -1.00, 320.0, 145.0)">D</text><text xml:space="preserve" font-family="Courier" font-size="19.8" fill="#000000" transform="matrix(1.00, 0.00, -0.00, -1.00, 331.9, 145.0)">F</text><text xml:space="preserve" font-family="Courier" font-size="19.8" fill="#000000" transform="matrix(1.00, 0.00, -0.00, -1.00, 343.8, 145.0)">:</text><text xml:space="preserve" font-family="Courier" font-size="19.8" fill="#000000" transform="matrix(1.00, 0.00, -0.00, -1.00, 355.7, 145.0)">:</text><text xml:space="preserve" font-family="Courier" font-size="19.8" fill="#000000" transform="matrix(1.00, 0.00, -0.00, -1.00, 367.6, 145.0)">N</text><text xml:space="preserve" font-family="Courier" font-size="19.8" fill="#000000" transform="matrix(1.00, 0.00, -0.00, -1.00, 379.4, 145.0)">o</text><text xml:space="preserve" font-family="Courier" font-size="19.8" fill="#000000" transform="matrix(1.00, 0.00, -0.00, -1.00, 391.3, 145.0)">d</text><text xml:space="preserve" font-family="Courier" font-size="19.8" fill="#000000" transform="matrix(1.00, 0.00, -0.00, -1.00, 403.2, 145.0)">e</text><text xml:space="preserve" font-family="Courier" font-size="19.8" fill="#000000" transform="matrix(1.00, 0.00, -0.00, -1.00, 415.1, 145.0)">.</text><text xml:space="preserve" font-family="Courier" font-size="19.8" fill="#000000" transform="matrix(1.00, 0.00, -0.00, -1.00, 427.0, 145.0)">i</text><text xml:space="preserve" font-family="Courier" font-size="19.8" fill="#000000" transform="matrix(1.00, 0.00, -0.00, -1.00, 438.9, 145.0)">n</text><text xml:space="preserve" font-family="Courier" font-size="19.8" fill="#000000" transform="matrix(1.00, 0.00, -0.00, -1.00, 450.7, 145.0)">t</text><text xml:space="preserve" font-family="Courier" font-size="19.8" fill="#000000" transform="matrix(1.00, 0.00, -0.00, -1.00, 462.6, 145.0)">e</text><text xml:space="preserve" font-family="Courier" font-size="19.8" fill="#000000" transform="matrix(1.00, 0.00, -0.00, -1.00, 474.5, 145.0)">r</text><text xml:space="preserve" font-family="Courier" font-size="19.8" fill="#000000" transform="matrix(1.00, 0.00, -0.00, -1.00, 486.4, 145.0)">n</text><text xml:space="preserve" font-family="Courier" font-size="19.8" fill="#000000" transform="matrix(1.00, 0.00, -0.00, -1.00, 498.3, 145.0)">(</text><text xml:space="preserve" font-family="Courier" font-size="19.8" fill="#000000" transform="matrix(1.00, 0.00, -0.00, -1.00, 510.2, 145.0)">"</text><text xml:space="preserve" font-family="Courier" font-size="19.8" fill="#000000" transform="matrix(1.00, 0.00, -0.00, -1.00, 522.0, 145.0)">f</text><text xml:space="preserve" font-family="Courier" font-size="19.8" fill="#000000" transform="matrix(1.00, 0.00, -0.00, -1.00, 533.9, 145.0)">o</text><text xml:space="preserve" font-family="Courier" font-size="19.8" fill="#000000" transform="matrix(1.00, 0.00, -0.00, -1.00, 545.8, 145.0)">o</text><text xml:space="preserve" font-family="Courier" font-size="19.8" fill="#000000" transform="matrix(1.00, 0.00, -0.00, -1.00, 557.7, 145.0)">"</text><text xml:space="preserve" font-family="Courier" font-size="19.8" fill="#000000" transform="matrix(1.00, 0.00, -0.00, -1.00, 569.6, 145.0)">)</text><text xml:space="preserve" font-family="Courier" font-size="19.8" fill="#000000" transform="matrix(1.00, 0.00, -0.00, -1.00, 581.5, 145.0)"> </text><text xml:space="preserve" font-family="Courier" font-size="19.8" fill="#000000" transform="matrix(1.00, 0.00, -0.00, -1.00, 593.3, 145.0)">=</text><text xml:space="preserve" font-family="Courier" font-size="19.8" fill="#000000" transform="matrix(1.00, 0.00, -0.00, -1.00, 605.2, 145.0)">=</text><text xml:space="preserve" font-family="Courier" font-size="19.8" fill="#000000" transform="matrix(1.00, 0.00, -0.00, -1.00, 617.1, 145.0)"> </text><text xml:space="preserve" font-family="Courier" font-size="19.8" fill="#000000" transform="matrix(1.00, 0.00, -0.00, -1.00, 629.0, 145.0)">R</text><text xml:space="preserve" font-family="Courier" font-size="19.8" fill="#000000" transform="matrix(1.00, 0.00, -0.00, -1.00, 640.9, 145.0)">D</text><text xml:space="preserve" font-family="Courier" font-size="19.8" fill="#000000" transform="matrix(1.00, 0.00, -0.00, -1.00, 652.8, 145.0)">F</text><text xml:space="preserve" font-family="Courier" font-size="19.8" fill="#000000" transform="matrix(1.00, 0.00, -0.00, -1.00, 664.7, 145.0)">:</text><text xml:space="preserve" font-family="Courier" font-size="19.8" fill="#000000" transform="matrix(1.00, 0.00, -0.00, -1.00, 676.5, 145.0)">:</text><text xml:space="preserve" font-family="Courier" font-size="19.8" fill="#000000" transform="matrix(1.00, 0.00, -0.00, -1.00, 688.4, 145.0)">N</text><text xml:space="preserve" font-family="Courier" font-size="19.8" fill="#000000" transform="matrix(1.00, 0.00, -0.00, -1.00, 700.3, 145.0)">o</text><text xml:space="preserve" font-family="Courier" font-size="19.8" fill="#000000" transform="matrix(1.00, 0.00, -0.00, -1.00, 712.2, 145.0)">d</text><text xml:space="preserve" font-family="Courier" font-size="19.8" fill="#000000" transform="matrix(1.00, 0.00, -0.00, -1.00, 724.1, 145.0)">e</text><text xml:space="preserve" font-family="Courier" font-size="19.8" fill="#000000" transform="matrix(1.00, 0.00, -0.00, -1.00, 736.0, 145.0)">.</text><text xml:space="preserve" font-family="Courier" font-size="19.8" fill="#000000" transform="matrix(1.00, 0.00, -0.00, -1.00, 747.8, 145.0)">i</text><text xml:space="preserve" font-family="Courier" font-size="19.8" fill="#000000" transform="matrix(1.00, 0.00, -0.00, -1.00, 759.7, 145.0)">n</text><text xml:space="preserve" font-family="Courier" font-size="19.8" fill="#000000" transform="matrix(1.00, 0.00, -0.00, -1.00, 771.6, 145.0)">t</text><text xml:space="preserve" font-family="Courier" font-size="19.8" fill="#000000" transform="matrix(1.00, 0.00, -0.00, -1.00, 783.5, 145.0)">e</text><text xml:space="preserve" font-family="Courier" font-size="19.8" fill="#000000" transform="matrix(1.00, 0.00, -0.00, -1.00, 795.4, 145.0)">r</text><text xml:space="preserve" font-family="Courier" font-size="19.8" fill="#000000" transform="matrix(1.00, 0.00, -0.00, -1.00, 807.3, 145.0)">n</text><text xml:space="preserve" font-family="Courier" font-size="19.8" fill="#000000" transform="matrix(1.00, 0.00, -0.00, -1.00, 819.1, 145.0)">(</text><text xml:space="preserve" font-family="Courier" font-size="19.8" fill="#000000" transform="matrix(1.00, 0.00, -0.00, -1.00, 831.0, 145.0)">"</text><text xml:space="preserve" font-family="Courier" font-size="19.8" fill="#000000" transform="matrix(1.00, 0.00, -0.00, -1.00, 842.9, 145.0)">f</text><text xml:space="preserve" font-family="Courier" font-size="19.8" fill="#000000" transform="matrix(1.00, 0.00, -0.00, -1.00, 854.8, 145.0)">o</text><text xml:space="preserve" font-family="Courier" font-size="19.8" fill="#000000" transform="matrix(1.00, 0.00, -0.00, -1.00, 866.7, 145.0)">o</text><text xml:space="preserve" font-family="Courier" font-size="19.8" fill="#000000" transform="matrix(1.00, 0.00, -0.00, -1.00, 878.6, 145.0)">"</text><text xml:space="preserve" font-family="Courier" font-size="19.8" fill="#000000" transform="matrix(1.00, 0.00, -0.00, -1.00, 890.4, 145.0)">)</text><text xml:space="preserve" font-family="Helvetica-Light" font-size="35.6" fill="#000000" transform="matrix(1.00, 0.00, -0.00, -1.00, 902.2, 145.0)"> </text><text xml:space="preserve" font-family="Helvetica-Light" font-size="26.7" fill="#000000" transform="matrix(1.00, 0.00, -0.00, -1.00, 149.0, 88.7)">•</text><text xml:space="preserve" font-family="Helvetica-Light" font-size="35.6" fill="#000000" transform="matrix(1.00, 0.00, -0.00, -1.00, 184.0, 86.0)">o</text><text xml:space="preserve" font-family="Helvetica-Light" font-size="35.6" fill="#000000" transform="matrix(1.00, 0.00, -0.00, -1.00, 203.8, 86.0)">u</text><text xml:space="preserve" font-family="Helvetica-Light" font-size="35.6" fill="#000000" transform="matrix(1.00, 0.00, -0.00, -1.00, 223.6, 86.0)">t</text><text xml:space="preserve" font-family="Helvetica-Light" font-size="35.6" fill="#000000" transform="matrix(1.00, 0.00, -0.00, -1.00, 233.5, 86.0)">s</text><text xml:space="preserve" font-family="Helvetica-Light" font-size="35.6" fill="#000000" transform="matrix(1.00, 0.00, -0.00, -1.00, 251.4, 86.0)">t</text><text xml:space="preserve" font-family="Helvetica-Light" font-size="35.6" fill="#000000" transform="matrix(1.00, 0.00, -0.00, -1.00, 261.3, 86.0)">a</text><text xml:space="preserve" font-family="Helvetica-Light" font-size="35.6" fill="#000000" transform="matrix(1.00, 0.00, -0.00, -1.00, 281.1, 86.0)">n</text><text xml:space="preserve" font-family="Helvetica-Light" font-size="35.6" fill="#000000" transform="matrix(1.00, 0.00, -0.00, -1.00, 300.9, 86.0)">d</text><text xml:space="preserve" font-family="Helvetica-Light" font-size="35.6" fill="#000000" transform="matrix(1.00, 0.00, -0.00, -1.00, 322.7, 86.0)">i</text><text xml:space="preserve" font-family="Helvetica-Light" font-size="35.6" fill="#000000" transform="matrix(1.00, 0.00, -0.00, -1.00, 330.6, 86.0)">n</text><text xml:space="preserve" font-family="Helvetica-Light" font-size="35.6" fill="#000000" transform="matrix(1.00, 0.00, -0.00, -1.00, 350.4, 86.0)">g</text><text xml:space="preserve" font-family="Helvetica-Light" font-size="35.6" fill="#000000" transform="matrix(1.00, 0.00, -0.00, -1.00, 372.2, 86.0)"> </text><text xml:space="preserve" font-family="Helvetica-Light" font-size="35.6" fill="#000000" transform="matrix(1.00, 0.00, -0.00, -1.00, 382.1, 86.0)">i</text><text xml:space="preserve" font-family="Helvetica-Light" font-size="35.6" fill="#000000" transform="matrix(1.00, 0.00, -0.00, -1.00, 390.0, 86.0)">s</text><text xml:space="preserve" font-family="Helvetica-Light" font-size="35.6" fill="#000000" transform="matrix(1.00, 0.00, -0.00, -1.00, 407.8, 86.0)">s</text><text xml:space="preserve" font-family="Helvetica-Light" font-size="35.6" fill="#000000" transform="matrix(1.00, 0.00, -0.00, -1.00, 425.6, 86.0)">u</text><text xml:space="preserve" font-family="Helvetica-Light" font-size="35.6" fill="#000000" transform="matrix(1.00, 0.00, -0.00, -1.00, 445.5, 86.0)">e</text><text xml:space="preserve" font-family="Helvetica-Light" font-size="35.6" fill="#000000" transform="matrix(1.00, 0.00, -0.00, -1.00, 465.3, 86.0)">.</text><text xml:space="preserve" font-family="Helvetica-Light" font-size="12.0" fill="#000000" transform="matrix(1.00, 0.00, -0.00, -1.00, 929.0, 26.0)">5</text><text xml:space="preserve" font-family="Helvetica-Light" font-size="12.0" fill="#000000" transform="matrix(1.00, 0.00, -0.00, -1.00, 935.7, 26.0)">1</text></g></svg>