<?xml version="1.0" encoding="UTF-8" standalone="no"?><svg xmlns="http://www.w3.org/2000/svg" xmlns:xlink="http://www.w3.org/1999/xlink" clip-rule="evenodd" stroke-miterlimit="10" viewBox="0 0 1024 768"><desc>SVG generated by Keynote</desc><defs></defs><g transform="matrix(1.00, 0.00, -0.00, -1.00, 0.0, 768.0)"><g><clipPath id="clip0x7fcd22bc6030"><path d="M 0.0 768.0 L 1024.0 768.0 L 1024.0 0.0 L 0.0 0.0 Z M 0.0 768.0 "></path></clipPath><g clip-path="url(#clip0x7fcd22bc6030)"><image xlink:href="../../D1633A7A-1E45-48FF-BA06-56002168097B/assets/4E131E180F71435CE7831D195B770FC0.jpeg" width="2048.00" height="1536.00" transform="matrix(0.50, 0.00, -0.00, -0.50, 0.0, 768.0)"></image></g></g><text xml:space="preserve" font-family="Helvetica-Light,Helvetica" font-size="80.0" fill="#FEFFFF" transform="matrix(1.00, 0.00, -0.00, -1.00, 343.0, 622.4)">M</text><text xml:space="preserve" font-family="Helvetica-Light,Helvetica" font-size="80.0" fill="#FEFFFF" transform="matrix(1.00, 0.00, -0.00, -1.00, 409.7, 622.4)">e</text><text xml:space="preserve" font-family="Helvetica-Light,Helvetica" font-size="80.0" fill="#FEFFFF" transform="matrix(1.00, 0.00, -0.00, -1.00, 454.2, 622.4)">t</text><text xml:space="preserve" font-family="Helvetica-Light,Helvetica" font-size="80.0" fill="#FEFFFF" transform="matrix(1.00, 0.00, -0.00, -1.00, 476.4, 622.4)">a</text><text xml:space="preserve" font-family="Helvetica-Light,Helvetica" font-size="80.0" fill="#FEFFFF" transform="matrix(1.00, 0.00, -0.00, -1.00, 520.9, 622.4)">d</text><text xml:space="preserve" font-family="Helvetica-Light,Helvetica" font-size="80.0" fill="#FEFFFF" transform="matrix(1.00, 0.00, -0.00, -1.00, 569.8, 622.4)">a</text><text xml:space="preserve" font-family="Helvetica-Light,Helvetica" font-size="80.0" fill="#FEFFFF" transform="matrix(1.00, 0.00, -0.00, -1.00, 614.2, 622.4)">t</text><text xml:space="preserve" font-family="Helvetica-Light,Helvetica" font-size="80.0" fill="#FEFFFF" transform="matrix(1.00, 0.00, -0.00, -1.00, 636.5, 622.4)">a</text><text xml:space="preserve" font-family="Helvetica-Light,Helvetica" font-size="27.9" fill="#FEFFFF" transform="matrix(1.00, 0.00, -0.00, -1.00, 79.0, 526.4)">•</text><text xml:space="preserve" font-family="Helvetica-Light,Helvetica" font-size="37.2" fill="#FEFFFF" transform="matrix(1.00, 0.00, -0.00, -1.00, 114.3, 522.6)">F</text><text xml:space="preserve" font-family="Helvetica-Light,Helvetica" font-size="37.2" fill="#FEFFFF" transform="matrix(1.00, 0.00, -0.00, -1.00, 135.0, 522.6)">i</text><text xml:space="preserve" font-family="Helvetica-Light,Helvetica" font-size="37.2" fill="#FEFFFF" transform="matrix(1.00, 0.00, -0.00, -1.00, 143.3, 522.6)">n</text><text xml:space="preserve" font-family="Helvetica-Light,Helvetica" font-size="37.2" fill="#FEFFFF" transform="matrix(1.00, 0.00, -0.00, -1.00, 164.0, 522.6)">d</text><text xml:space="preserve" font-family="Helvetica-Light,Helvetica" font-size="37.2" fill="#FEFFFF" transform="matrix(1.00, 0.00, -0.00, -1.00, 186.7, 522.6)">i</text><text xml:space="preserve" font-family="Helvetica-Light,Helvetica" font-size="37.2" fill="#FEFFFF" transform="matrix(1.00, 0.00, -0.00, -1.00, 195.0, 522.6)">n</text><text xml:space="preserve" font-family="Helvetica-Light,Helvetica" font-size="37.2" fill="#FEFFFF" transform="matrix(1.00, 0.00, -0.00, -1.00, 215.7, 522.6)">g</text><text xml:space="preserve" font-family="Helvetica-Light,Helvetica" font-size="37.2" fill="#FEFFFF" transform="matrix(1.00, 0.00, -0.00, -1.00, 238.4, 522.6)"> </text><text xml:space="preserve" font-family="Helvetica-Light,Helvetica" font-size="37.2" fill="#FEFFFF" transform="matrix(1.00, 0.00, -0.00, -1.00, 248.8, 522.6)">M</text><text xml:space="preserve" font-family="Helvetica-Light,Helvetica" font-size="37.2" fill="#FEFFFF" transform="matrix(1.00, 0.00, -0.00, -1.00, 279.8, 522.6)">e</text><text xml:space="preserve" font-family="Helvetica-Light,Helvetica" font-size="37.2" fill="#FEFFFF" transform="matrix(1.00, 0.00, -0.00, -1.00, 300.5, 522.6)">t</text><text xml:space="preserve" font-family="Helvetica-Light,Helvetica" font-size="37.2" fill="#FEFFFF" transform="matrix(1.00, 0.00, -0.00, -1.00, 310.9, 522.6)">a</text><text xml:space="preserve" font-family="Helvetica-Light,Helvetica" font-size="37.2" fill="#FEFFFF" transform="matrix(1.00, 0.00, -0.00, -1.00, 331.6, 522.6)">d</text><text xml:space="preserve" font-family="Helvetica-Light,Helvetica" font-size="37.2" fill="#FEFFFF" transform="matrix(1.00, 0.00, -0.00, -1.00, 354.3, 522.6)">a</text><text xml:space="preserve" font-family="Helvetica-Light,Helvetica" font-size="37.2" fill="#FEFFFF" transform="matrix(1.00, 0.00, -0.00, -1.00, 375.0, 522.6)">t</text><text xml:space="preserve" font-family="Helvetica-Light,Helvetica" font-size="37.2" fill="#FEFFFF" transform="matrix(1.00, 0.00, -0.00, -1.00, 385.4, 522.6)">a</text><text xml:space="preserve" font-family="Helvetica-Light,Helvetica" font-size="37.2" fill="#FEFFFF" transform="matrix(1.00, 0.00, -0.00, -1.00, 406.1, 522.6)"> </text><text xml:space="preserve" font-family="Helvetica-Light,Helvetica" font-size="37.2" fill="#FEFFFF" transform="matrix(1.00, 0.00, -0.00, -1.00, 416.4, 522.6)">f</text><text xml:space="preserve" font-family="Helvetica-Light,Helvetica" font-size="37.2" fill="#FEFFFF" transform="matrix(1.00, 0.00, -0.00, -1.00, 426.8, 522.6)">r</text><text xml:space="preserve" font-family="Helvetica-Light,Helvetica" font-size="37.2" fill="#FEFFFF" transform="matrix(1.00, 0.00, -0.00, -1.00, 438.5, 522.6)">o</text><text xml:space="preserve" font-family="Helvetica-Light,Helvetica" font-size="37.2" fill="#FEFFFF" transform="matrix(1.00, 0.00, -0.00, -1.00, 459.2, 522.6)">m</text><text xml:space="preserve" font-family="Helvetica-Light,Helvetica" font-size="37.2" fill="#FEFFFF" transform="matrix(1.00, 0.00, -0.00, -1.00, 490.3, 522.6)"> </text><text xml:space="preserve" font-family="Helvetica-Light,Helvetica" font-size="37.2" fill="#FEFFFF" transform="matrix(1.00, 0.00, -0.00, -1.00, 500.6, 522.6)">a</text><text xml:space="preserve" font-family="Helvetica-Light,Helvetica" font-size="37.2" fill="#FEFFFF" transform="matrix(1.00, 0.00, -0.00, -1.00, 521.3, 522.6)"> </text><text xml:space="preserve" font-family="Helvetica-Light,Helvetica" font-size="37.2" fill="#FEFFFF" transform="matrix(1.00, 0.00, -0.00, -1.00, 531.7, 522.6)">C</text><text xml:space="preserve" font-family="Helvetica-Light,Helvetica" font-size="37.2" fill="#FEFFFF" transform="matrix(1.00, 0.00, -0.00, -1.00, 558.6, 522.6)">S</text><text xml:space="preserve" font-family="Helvetica-Light,Helvetica" font-size="37.2" fill="#FEFFFF" transform="matrix(1.00, 0.00, -0.00, -1.00, 581.3, 522.6)">V</text><text xml:space="preserve" font-family="Helvetica-Light,Helvetica" font-size="37.2" fill="#FEFFFF" transform="matrix(1.00, 0.00, -0.00, -1.00, 604.1, 522.6)"> </text><text xml:space="preserve" font-family="Helvetica-Light,Helvetica" font-size="27.9" fill="#FEFFFF" transform="matrix(1.00, 0.00, -0.00, -1.00, 115.0, 439.3)">•</text><text xml:space="preserve" font-family="Helvetica-Light,Helvetica" font-size="37.2" fill="#FEFFFF" transform="matrix(1.00, 0.00, -0.00, -1.00, 150.3, 435.4)">U</text><text xml:space="preserve" font-family="Helvetica-Light,Helvetica" font-size="37.2" fill="#FEFFFF" transform="matrix(1.00, 0.00, -0.00, -1.00, 177.2, 435.4)">s</text><text xml:space="preserve" font-family="Helvetica-Light,Helvetica" font-size="37.2" fill="#FEFFFF" transform="matrix(1.00, 0.00, -0.00, -1.00, 195.8, 435.4)">e</text><text xml:space="preserve" font-family="Helvetica-Light,Helvetica" font-size="37.2" fill="#FEFFFF" transform="matrix(1.00, 0.00, -0.00, -1.00, 216.5, 435.4)">r</text><text xml:space="preserve" font-family="Helvetica-Light,Helvetica" font-size="37.2" fill="#FEFFFF" transform="matrix(1.00, 0.00, -0.00, -1.00, 226.8, 435.4)">-</text><text xml:space="preserve" font-family="Helvetica-Light,Helvetica" font-size="37.2" fill="#FEFFFF" transform="matrix(1.00, 0.00, -0.00, -1.00, 239.2, 435.4)">s</text><text xml:space="preserve" font-family="Helvetica-Light,Helvetica" font-size="37.2" fill="#FEFFFF" transform="matrix(1.00, 0.00, -0.00, -1.00, 257.9, 435.4)">p</text><text xml:space="preserve" font-family="Helvetica-Light,Helvetica" font-size="37.2" fill="#FEFFFF" transform="matrix(1.00, 0.00, -0.00, -1.00, 280.6, 435.4)">e</text><text xml:space="preserve" font-family="Helvetica-Light,Helvetica" font-size="37.2" fill="#FEFFFF" transform="matrix(1.00, 0.00, -0.00, -1.00, 301.3, 435.4)">c</text><text xml:space="preserve" font-family="Helvetica-Light,Helvetica" font-size="37.2" fill="#FEFFFF" transform="matrix(1.00, 0.00, -0.00, -1.00, 322.0, 435.4)">i</text><text xml:space="preserve" font-family="Helvetica-Light,Helvetica" font-size="37.2" fill="#FEFFFF" transform="matrix(1.00, 0.00, -0.00, -1.00, 330.3, 435.4)">ﬁ</text><text xml:space="preserve" font-family="Helvetica-Light,Helvetica" font-size="37.2" fill="#FEFFFF" transform="matrix(1.00, 0.00, -0.00, -1.00, 348.9, 435.4)">e</text><text xml:space="preserve" font-family="Helvetica-Light,Helvetica" font-size="37.2" fill="#FEFFFF" transform="matrix(1.00, 0.00, -0.00, -1.00, 369.6, 435.4)">d</text><text xml:space="preserve" font-family="Helvetica-Light,Helvetica" font-size="37.2" fill="#FEFFFF" transform="matrix(1.00, 0.00, -0.00, -1.00, 392.4, 435.4)">,</text><text xml:space="preserve" font-family="Helvetica-Light,Helvetica" font-size="37.2" fill="#FEFFFF" transform="matrix(1.00, 0.00, -0.00, -1.00, 402.7, 435.4)"> </text><text xml:space="preserve" font-family="Helvetica-Light,Helvetica" font-size="37.2" fill="#FEFFFF" transform="matrix(1.00, 0.00, -0.00, -1.00, 413.1, 435.4)">L</text><text xml:space="preserve" font-family="Helvetica-Light,Helvetica" font-size="37.2" fill="#FEFFFF" transform="matrix(1.00, 0.00, -0.00, -1.00, 433.8, 435.4)">i</text><text xml:space="preserve" font-family="Helvetica-Light,Helvetica" font-size="37.2" fill="#FEFFFF" transform="matrix(1.00, 0.00, -0.00, -1.00, 442.1, 435.4)">n</text><text xml:space="preserve" font-family="Helvetica-Light,Helvetica" font-size="37.2" fill="#FEFFFF" transform="matrix(1.00, 0.00, -0.00, -1.00, 462.8, 435.4)">k</text><text xml:space="preserve" font-family="Helvetica-Light,Helvetica" font-size="37.2" fill="#FEFFFF" transform="matrix(1.00, 0.00, -0.00, -1.00, 481.4, 435.4)"> </text><text xml:space="preserve" font-family="Helvetica-Light,Helvetica" font-size="37.2" fill="#FEFFFF" transform="matrix(1.00, 0.00, -0.00, -1.00, 491.7, 435.4)">H</text><text xml:space="preserve" font-family="Helvetica-Light,Helvetica" font-size="37.2" fill="#FEFFFF" transform="matrix(1.00, 0.00, -0.00, -1.00, 518.6, 435.4)">e</text><text xml:space="preserve" font-family="Helvetica-Light,Helvetica" font-size="37.2" fill="#FEFFFF" transform="matrix(1.00, 0.00, -0.00, -1.00, 539.3, 435.4)">a</text><text xml:space="preserve" font-family="Helvetica-Light,Helvetica" font-size="37.2" fill="#FEFFFF" transform="matrix(1.00, 0.00, -0.00, -1.00, 560.0, 435.4)">d</text><text xml:space="preserve" font-family="Helvetica-Light,Helvetica" font-size="37.2" fill="#FEFFFF" transform="matrix(1.00, 0.00, -0.00, -1.00, 582.8, 435.4)">e</text><text xml:space="preserve" font-family="Helvetica-Light,Helvetica" font-size="37.2" fill="#FEFFFF" transform="matrix(1.00, 0.00, -0.00, -1.00, 603.5, 435.4)">r</text><text xml:space="preserve" font-family="Helvetica-Light,Helvetica" font-size="37.2" fill="#FEFFFF" transform="matrix(1.00, 0.00, -0.00, -1.00, 612.5, 435.4)">,</text><text xml:space="preserve" font-family="Helvetica-Light,Helvetica" font-size="37.2" fill="#FEFFFF" transform="matrix(1.00, 0.00, -0.00, -1.00, 622.8, 435.4)"> </text><text xml:space="preserve" font-family="Helvetica-Light,Helvetica" font-size="37.2" fill="#FEFFFF" transform="matrix(1.00, 0.00, -0.00, -1.00, 633.2, 435.4)">w</text><text xml:space="preserve" font-family="Helvetica-Light,Helvetica" font-size="37.2" fill="#FEFFFF" transform="matrix(1.00, 0.00, -0.00, -1.00, 660.1, 435.4)">e</text><text xml:space="preserve" font-family="Helvetica-Light,Helvetica" font-size="37.2" fill="#FEFFFF" transform="matrix(1.00, 0.00, -0.00, -1.00, 680.8, 435.4)">l</text><text xml:space="preserve" font-family="Helvetica-Light,Helvetica" font-size="37.2" fill="#FEFFFF" transform="matrix(1.00, 0.00, -0.00, -1.00, 689.0, 435.4)">l</text><text xml:space="preserve" font-family="Helvetica-Light,Helvetica" font-size="37.2" fill="#FEFFFF" transform="matrix(1.00, 0.00, -0.00, -1.00, 697.3, 435.4)">-</text><text xml:space="preserve" font-family="Helvetica-Light,Helvetica" font-size="37.2" fill="#FEFFFF" transform="matrix(1.00, 0.00, -0.00, -1.00, 709.7, 435.4)">k</text><text xml:space="preserve" font-family="Helvetica-Light,Helvetica" font-size="37.2" fill="#FEFFFF" transform="matrix(1.00, 0.00, -0.00, -1.00, 728.3, 435.4)">n</text><text xml:space="preserve" font-family="Helvetica-Light,Helvetica" font-size="37.2" fill="#FEFFFF" transform="matrix(1.00, 0.00, -0.00, -1.00, 749.0, 435.4)">o</text><text xml:space="preserve" font-family="Helvetica-Light,Helvetica" font-size="37.2" fill="#FEFFFF" transform="matrix(1.00, 0.00, -0.00, -1.00, 769.7, 435.4)">w</text><text xml:space="preserve" font-family="Helvetica-Light,Helvetica" font-size="37.2" fill="#FEFFFF" transform="matrix(1.00, 0.00, -0.00, -1.00, 796.6, 435.4)">n</text><text xml:space="preserve" font-family="Helvetica-Light,Helvetica" font-size="37.2" fill="#FEFFFF" transform="matrix(1.00, 0.00, -0.00, -1.00, 817.3, 435.4)"> </text><text xml:space="preserve" font-family="Helvetica-Light,Helvetica" font-size="37.2" fill="#FEFFFF" transform="matrix(1.00, 0.00, -0.00, -1.00, 150.3, 389.4)">l</text><text xml:space="preserve" font-family="Helvetica-Light,Helvetica" font-size="37.2" fill="#FEFFFF" transform="matrix(1.00, 0.00, -0.00, -1.00, 158.5, 389.4)">o</text><text xml:space="preserve" font-family="Helvetica-Light,Helvetica" font-size="37.2" fill="#FEFFFF" transform="matrix(1.00, 0.00, -0.00, -1.00, 179.3, 389.4)">c</text><text xml:space="preserve" font-family="Helvetica-Light,Helvetica" font-size="37.2" fill="#FEFFFF" transform="matrix(1.00, 0.00, -0.00, -1.00, 200.0, 389.4)">a</text><text xml:space="preserve" font-family="Helvetica-Light,Helvetica" font-size="37.2" fill="#FEFFFF" transform="matrix(1.00, 0.00, -0.00, -1.00, 220.7, 389.4)">t</text><text xml:space="preserve" font-family="Helvetica-Light,Helvetica" font-size="37.2" fill="#FEFFFF" transform="matrix(1.00, 0.00, -0.00, -1.00, 231.0, 389.4)">i</text><text xml:space="preserve" font-family="Helvetica-Light,Helvetica" font-size="37.2" fill="#FEFFFF" transform="matrix(1.00, 0.00, -0.00, -1.00, 239.3, 389.4)">o</text><text xml:space="preserve" font-family="Helvetica-Light,Helvetica" font-size="37.2" fill="#FEFFFF" transform="matrix(1.00, 0.00, -0.00, -1.00, 260.0, 389.4)">n</text><text xml:space="preserve" font-family="Helvetica-Light,Helvetica" font-size="37.2" fill="#FEFFFF" transform="matrix(1.00, 0.00, -0.00, -1.00, 280.7, 389.4)">s</text><text xml:space="preserve" font-family="Helvetica-Light,Helvetica" font-size="37.2" fill="#FEFFFF" transform="matrix(1.00, 0.00, -0.00, -1.00, 299.3, 389.4)"> </text><text xml:space="preserve" font-family="Helvetica-Light,Helvetica" font-size="27.9" fill="#FEFFFF" transform="matrix(1.00, 0.00, -0.00, -1.00, 79.0, 306.1)">•</text><text xml:space="preserve" font-family="Helvetica-Light,Helvetica" font-size="37.2" fill="#FEFFFF" transform="matrix(1.00, 0.00, -0.00, -1.00, 114.3, 302.2)">M</text><text xml:space="preserve" font-family="Helvetica-Light,Helvetica" font-size="37.2" fill="#FEFFFF" transform="matrix(1.00, 0.00, -0.00, -1.00, 145.3, 302.2)">a</text><text xml:space="preserve" font-family="Helvetica-Light,Helvetica" font-size="37.2" fill="#FEFFFF" transform="matrix(1.00, 0.00, -0.00, -1.00, 166.0, 302.2)">t</text><text xml:space="preserve" font-family="Helvetica-Light,Helvetica" font-size="37.2" fill="#FEFFFF" transform="matrix(1.00, 0.00, -0.00, -1.00, 176.4, 302.2)">c</text><text xml:space="preserve" font-family="Helvetica-Light,Helvetica" font-size="37.2" fill="#FEFFFF" transform="matrix(1.00, 0.00, -0.00, -1.00, 197.1, 302.2)">h</text><text xml:space="preserve" font-family="Helvetica-Light,Helvetica" font-size="37.2" fill="#FEFFFF" transform="matrix(1.00, 0.00, -0.00, -1.00, 217.8, 302.2)">i</text><text xml:space="preserve" font-family="Helvetica-Light,Helvetica" font-size="37.2" fill="#FEFFFF" transform="matrix(1.00, 0.00, -0.00, -1.00, 226.0, 302.2)">n</text><text xml:space="preserve" font-family="Helvetica-Light,Helvetica" font-size="37.2" fill="#FEFFFF" transform="matrix(1.00, 0.00, -0.00, -1.00, 246.7, 302.2)">g</text><text xml:space="preserve" font-family="Helvetica-Light,Helvetica" font-size="37.2" fill="#FEFFFF" transform="matrix(1.00, 0.00, -0.00, -1.00, 269.5, 302.2)"> </text><text xml:space="preserve" font-family="Helvetica-Light,Helvetica" font-size="37.2" fill="#FEFFFF" transform="matrix(1.00, 0.00, -0.00, -1.00, 279.8, 302.2)">M</text><text xml:space="preserve" font-family="Helvetica-Light,Helvetica" font-size="37.2" fill="#FEFFFF" transform="matrix(1.00, 0.00, -0.00, -1.00, 310.9, 302.2)">e</text><text xml:space="preserve" font-family="Helvetica-Light,Helvetica" font-size="37.2" fill="#FEFFFF" transform="matrix(1.00, 0.00, -0.00, -1.00, 331.6, 302.2)">t</text><text xml:space="preserve" font-family="Helvetica-Light,Helvetica" font-size="37.2" fill="#FEFFFF" transform="matrix(1.00, 0.00, -0.00, -1.00, 341.9, 302.2)">a</text><text xml:space="preserve" font-family="Helvetica-Light,Helvetica" font-size="37.2" fill="#FEFFFF" transform="matrix(1.00, 0.00, -0.00, -1.00, 362.6, 302.2)">d</text><text xml:space="preserve" font-family="Helvetica-Light,Helvetica" font-size="37.2" fill="#FEFFFF" transform="matrix(1.00, 0.00, -0.00, -1.00, 385.4, 302.2)">a</text><text xml:space="preserve" font-family="Helvetica-Light,Helvetica" font-size="37.2" fill="#FEFFFF" transform="matrix(1.00, 0.00, -0.00, -1.00, 406.1, 302.2)">t</text><text xml:space="preserve" font-family="Helvetica-Light,Helvetica" font-size="37.2" fill="#FEFFFF" transform="matrix(1.00, 0.00, -0.00, -1.00, 416.4, 302.2)">a</text><text xml:space="preserve" font-family="Helvetica-Light,Helvetica" font-size="37.2" fill="#FEFFFF" transform="matrix(1.00, 0.00, -0.00, -1.00, 437.2, 302.2)"> </text><text xml:space="preserve" font-family="Helvetica-Light,Helvetica" font-size="37.2" fill="#FEFFFF" transform="matrix(1.00, 0.00, -0.00, -1.00, 447.5, 302.2)">t</text><text xml:space="preserve" font-family="Helvetica-Light,Helvetica" font-size="37.2" fill="#FEFFFF" transform="matrix(1.00, 0.00, -0.00, -1.00, 457.9, 302.2)">o</text><text xml:space="preserve" font-family="Helvetica-Light,Helvetica" font-size="37.2" fill="#FEFFFF" transform="matrix(1.00, 0.00, -0.00, -1.00, 478.6, 302.2)"> </text><text xml:space="preserve" font-family="Helvetica-Light,Helvetica" font-size="37.2" fill="#FEFFFF" transform="matrix(1.00, 0.00, -0.00, -1.00, 488.9, 302.2)">a</text><text xml:space="preserve" font-family="Helvetica-Light,Helvetica" font-size="37.2" fill="#FEFFFF" transform="matrix(1.00, 0.00, -0.00, -1.00, 509.6, 302.2)"> </text><text xml:space="preserve" font-family="Helvetica-Light,Helvetica" font-size="37.2" fill="#FEFFFF" transform="matrix(1.00, 0.00, -0.00, -1.00, 520.0, 302.2)">C</text><text xml:space="preserve" font-family="Helvetica-Light,Helvetica" font-size="37.2" fill="#FEFFFF" transform="matrix(1.00, 0.00, -0.00, -1.00, 546.9, 302.2)">S</text><text xml:space="preserve" font-family="Helvetica-Light,Helvetica" font-size="37.2" fill="#FEFFFF" transform="matrix(1.00, 0.00, -0.00, -1.00, 569.6, 302.2)">V</text><text xml:space="preserve" font-family="Helvetica-Light,Helvetica" font-size="37.2" fill="#FEFFFF" transform="matrix(1.00, 0.00, -0.00, -1.00, 592.4, 302.2)"> </text><text xml:space="preserve" font-family="Helvetica-Light,Helvetica" font-size="27.9" fill="#FEFFFF" transform="matrix(1.00, 0.00, -0.00, -1.00, 115.0, 218.9)">•</text><text xml:space="preserve" font-family="Helvetica-Light,Helvetica" font-size="37.2" fill="#FEFFFF" transform="matrix(1.00, 0.00, -0.00, -1.00, 150.3, 215.1)">C</text><text xml:space="preserve" font-family="Helvetica-Light,Helvetica" font-size="37.2" fill="#FEFFFF" transform="matrix(1.00, 0.00, -0.00, -1.00, 177.2, 215.1)">S</text><text xml:space="preserve" font-family="Helvetica-Light,Helvetica" font-size="37.2" fill="#FEFFFF" transform="matrix(1.00, 0.00, -0.00, -1.00, 199.9, 215.1)">V</text><text xml:space="preserve" font-family="Helvetica-Light,Helvetica" font-size="37.2" fill="#FEFFFF" transform="matrix(1.00, 0.00, -0.00, -1.00, 222.7, 215.1)"> </text><text xml:space="preserve" font-family="Helvetica-Light,Helvetica" font-size="37.2" fill="#FEFFFF" transform="matrix(1.00, 0.00, -0.00, -1.00, 233.0, 215.1)">m</text><text xml:space="preserve" font-family="Helvetica-Light,Helvetica" font-size="37.2" fill="#FEFFFF" transform="matrix(1.00, 0.00, -0.00, -1.00, 264.0, 215.1)">u</text><text xml:space="preserve" font-family="Helvetica-Light,Helvetica" font-size="37.2" fill="#FEFFFF" transform="matrix(1.00, 0.00, -0.00, -1.00, 284.8, 215.1)">s</text><text xml:space="preserve" font-family="Helvetica-Light,Helvetica" font-size="37.2" fill="#FEFFFF" transform="matrix(1.00, 0.00, -0.00, -1.00, 303.4, 215.1)">t</text><text xml:space="preserve" font-family="Helvetica-Light,Helvetica" font-size="37.2" fill="#FEFFFF" transform="matrix(1.00, 0.00, -0.00, -1.00, 313.7, 215.1)"> </text><text xml:space="preserve" font-family="Helvetica-Light,Helvetica" font-size="37.2" fill="#FEFFFF" transform="matrix(1.00, 0.00, -0.00, -1.00, 324.1, 215.1)">b</text><text xml:space="preserve" font-family="Helvetica-Light,Helvetica" font-size="37.2" fill="#FEFFFF" transform="matrix(1.00, 0.00, -0.00, -1.00, 346.8, 215.1)">e</text><text xml:space="preserve" font-family="Helvetica-Light,Helvetica" font-size="37.2" fill="#FEFFFF" transform="matrix(1.00, 0.00, -0.00, -1.00, 367.5, 215.1)"> </text><text xml:space="preserve" font-family="Helvetica-Light,Helvetica" font-size="37.2" fill="#FEFFFF" transform="matrix(1.00, 0.00, -0.00, -1.00, 377.9, 215.1)">c</text><text xml:space="preserve" font-family="Helvetica-Light,Helvetica" font-size="37.2" fill="#FEFFFF" transform="matrix(1.00, 0.00, -0.00, -1.00, 398.6, 215.1)">o</text><text xml:space="preserve" font-family="Helvetica-Light,Helvetica" font-size="37.2" fill="#FEFFFF" transform="matrix(1.00, 0.00, -0.00, -1.00, 419.3, 215.1)">m</text><text xml:space="preserve" font-family="Helvetica-Light,Helvetica" font-size="37.2" fill="#FEFFFF" transform="matrix(1.00, 0.00, -0.00, -1.00, 450.3, 215.1)">p</text><text xml:space="preserve" font-family="Helvetica-Light,Helvetica" font-size="37.2" fill="#FEFFFF" transform="matrix(1.00, 0.00, -0.00, -1.00, 473.1, 215.1)">a</text><text xml:space="preserve" font-family="Helvetica-Light,Helvetica" font-size="37.2" fill="#FEFFFF" transform="matrix(1.00, 0.00, -0.00, -1.00, 493.8, 215.1)">t</text><text xml:space="preserve" font-family="Helvetica-Light,Helvetica" font-size="37.2" fill="#FEFFFF" transform="matrix(1.00, 0.00, -0.00, -1.00, 504.1, 215.1)">i</text><text xml:space="preserve" font-family="Helvetica-Light,Helvetica" font-size="37.2" fill="#FEFFFF" transform="matrix(1.00, 0.00, -0.00, -1.00, 512.4, 215.1)">b</text><text xml:space="preserve" font-family="Helvetica-Light,Helvetica" font-size="37.2" fill="#FEFFFF" transform="matrix(1.00, 0.00, -0.00, -1.00, 535.2, 215.1)">l</text><text xml:space="preserve" font-family="Helvetica-Light,Helvetica" font-size="37.2" fill="#FEFFFF" transform="matrix(1.00, 0.00, -0.00, -1.00, 543.4, 215.1)">e</text><text xml:space="preserve" font-family="Helvetica-Light,Helvetica" font-size="37.2" fill="#FEFFFF" transform="matrix(1.00, 0.00, -0.00, -1.00, 564.1, 215.1)"> </text><text xml:space="preserve" font-family="Helvetica-Light,Helvetica" font-size="37.2" fill="#FEFFFF" transform="matrix(1.00, 0.00, -0.00, -1.00, 574.5, 215.1)">w</text><text xml:space="preserve" font-family="Helvetica-Light,Helvetica" font-size="37.2" fill="#FEFFFF" transform="matrix(1.00, 0.00, -0.00, -1.00, 601.4, 215.1)">i</text><text xml:space="preserve" font-family="Helvetica-Light,Helvetica" font-size="37.2" fill="#FEFFFF" transform="matrix(1.00, 0.00, -0.00, -1.00, 609.6, 215.1)">t</text><text xml:space="preserve" font-family="Helvetica-Light,Helvetica" font-size="37.2" fill="#FEFFFF" transform="matrix(1.00, 0.00, -0.00, -1.00, 620.0, 215.1)">h</text><text xml:space="preserve" font-family="Helvetica-Light,Helvetica" font-size="37.2" fill="#FEFFFF" transform="matrix(1.00, 0.00, -0.00, -1.00, 640.7, 215.1)"> </text><text xml:space="preserve" font-family="Helvetica-Light,Helvetica" font-size="37.2" fill="#FEFFFF" transform="matrix(1.00, 0.00, -0.00, -1.00, 651.0, 215.1)">m</text><text xml:space="preserve" font-family="Helvetica-Light,Helvetica" font-size="37.2" fill="#FEFFFF" transform="matrix(1.00, 0.00, -0.00, -1.00, 682.1, 215.1)">e</text><text xml:space="preserve" font-family="Helvetica-Light,Helvetica" font-size="37.2" fill="#FEFFFF" transform="matrix(1.00, 0.00, -0.00, -1.00, 702.8, 215.1)">t</text><text xml:space="preserve" font-family="Helvetica-Light,Helvetica" font-size="37.2" fill="#FEFFFF" transform="matrix(1.00, 0.00, -0.00, -1.00, 713.1, 215.1)">a</text><text xml:space="preserve" font-family="Helvetica-Light,Helvetica" font-size="37.2" fill="#FEFFFF" transform="matrix(1.00, 0.00, -0.00, -1.00, 733.8, 215.1)">d</text><text xml:space="preserve" font-family="Helvetica-Light,Helvetica" font-size="37.2" fill="#FEFFFF" transform="matrix(1.00, 0.00, -0.00, -1.00, 756.6, 215.1)">a</text><text xml:space="preserve" font-family="Helvetica-Light,Helvetica" font-size="37.2" fill="#FEFFFF" transform="matrix(1.00, 0.00, -0.00, -1.00, 777.3, 215.1)">t</text><text xml:space="preserve" font-family="Helvetica-Light,Helvetica" font-size="37.2" fill="#FEFFFF" transform="matrix(1.00, 0.00, -0.00, -1.00, 787.6, 215.1)">a</text><text xml:space="preserve" font-family="Helvetica-Light,Helvetica" font-size="37.2" fill="#FEFFFF" transform="matrix(1.00, 0.00, -0.00, -1.00, 808.3, 215.1)"> </text><text xml:space="preserve" font-family="Helvetica-Light,Helvetica" font-size="37.2" fill="#FEFFFF" transform="matrix(1.00, 0.00, -0.00, -1.00, 818.7, 215.1)">(</text><text xml:space="preserve" font-family="Helvetica-Light,Helvetica" font-size="37.2" fill="#FEFFFF" transform="matrix(1.00, 0.00, -0.00, -1.00, 831.1, 215.1)">t</text><text xml:space="preserve" font-family="Helvetica-Light,Helvetica" font-size="37.2" fill="#FEFFFF" transform="matrix(1.00, 0.00, -0.00, -1.00, 841.5, 215.1)">i</text><text xml:space="preserve" font-family="Helvetica-Light,Helvetica" font-size="37.2" fill="#FEFFFF" transform="matrix(1.00, 0.00, -0.00, -1.00, 849.7, 215.1)">t</text><text xml:space="preserve" font-family="Helvetica-Light,Helvetica" font-size="37.2" fill="#FEFFFF" transform="matrix(1.00, 0.00, -0.00, -1.00, 860.1, 215.1)">l</text><text xml:space="preserve" font-family="Helvetica-Light,Helvetica" font-size="37.2" fill="#FEFFFF" transform="matrix(1.00, 0.00, -0.00, -1.00, 868.3, 215.1)">e</text><text xml:space="preserve" font-family="Helvetica-Light,Helvetica" font-size="37.2" fill="#FEFFFF" transform="matrix(1.00, 0.00, -0.00, -1.00, 889.0, 215.1)">s</text><text xml:space="preserve" font-family="Helvetica-Light,Helvetica" font-size="37.2" fill="#FEFFFF" transform="matrix(1.00, 0.00, -0.00, -1.00, 907.7, 215.1)">/</text><text xml:space="preserve" font-family="Helvetica-Light,Helvetica" font-size="37.2" fill="#FEFFFF" transform="matrix(1.00, 0.00, -0.00, -1.00, 150.3, 169.1)">n</text><text xml:space="preserve" font-family="Helvetica-Light,Helvetica" font-size="37.2" fill="#FEFFFF" transform="matrix(1.00, 0.00, -0.00, -1.00, 171.0, 169.1)">a</text><text xml:space="preserve" font-family="Helvetica-Light,Helvetica" font-size="37.2" fill="#FEFFFF" transform="matrix(1.00, 0.00, -0.00, -1.00, 191.7, 169.1)">m</text><text xml:space="preserve" font-family="Helvetica-Light,Helvetica" font-size="37.2" fill="#FEFFFF" transform="matrix(1.00, 0.00, -0.00, -1.00, 222.7, 169.1)">e</text><text xml:space="preserve" font-family="Helvetica-Light,Helvetica" font-size="37.2" fill="#FEFFFF" transform="matrix(1.00, 0.00, -0.00, -1.00, 243.4, 169.1)">s</text><text xml:space="preserve" font-family="Helvetica-Light,Helvetica" font-size="37.2" fill="#FEFFFF" transform="matrix(1.00, 0.00, -0.00, -1.00, 262.0, 169.1)">)</text><text xml:space="preserve" font-family="Helvetica-Light,Helvetica" font-size="37.2" fill="#FEFFFF" transform="matrix(1.00, 0.00, -0.00, -1.00, 274.4, 169.1)"> </text><text xml:space="preserve" font-family="Helvetica-Light,Helvetica" font-size="27.9" fill="#FEFFFF" transform="matrix(1.00, 0.00, -0.00, -1.00, 115.0, 85.8)">•</text><text xml:space="preserve" font-family="Helvetica-Light,Helvetica" font-size="37.2" fill="#FEFFFF" transform="matrix(1.00, 0.00, -0.00, -1.00, 150.3, 81.9)">M</text><text xml:space="preserve" font-family="Helvetica-Light,Helvetica" font-size="37.2" fill="#FEFFFF" transform="matrix(1.00, 0.00, -0.00, -1.00, 181.3, 81.9)">e</text><text xml:space="preserve" font-family="Helvetica-Light,Helvetica" font-size="37.2" fill="#FEFFFF" transform="matrix(1.00, 0.00, -0.00, -1.00, 202.0, 81.9)">t</text><text xml:space="preserve" font-family="Helvetica-Light,Helvetica" font-size="37.2" fill="#FEFFFF" transform="matrix(1.00, 0.00, -0.00, -1.00, 212.4, 81.9)">a</text><text xml:space="preserve" font-family="Helvetica-Light,Helvetica" font-size="37.2" fill="#FEFFFF" transform="matrix(1.00, 0.00, -0.00, -1.00, 233.1, 81.9)">d</text><text xml:space="preserve" font-family="Helvetica-Light,Helvetica" font-size="37.2" fill="#FEFFFF" transform="matrix(1.00, 0.00, -0.00, -1.00, 255.8, 81.9)">a</text><text xml:space="preserve" font-family="Helvetica-Light,Helvetica" font-size="37.2" fill="#FEFFFF" transform="matrix(1.00, 0.00, -0.00, -1.00, 276.5, 81.9)">t</text><text xml:space="preserve" font-family="Helvetica-Light,Helvetica" font-size="37.2" fill="#FEFFFF" transform="matrix(1.00, 0.00, -0.00, -1.00, 286.9, 81.9)">a</text><text xml:space="preserve" font-family="Helvetica-Light,Helvetica" font-size="37.2" fill="#FEFFFF" transform="matrix(1.00, 0.00, -0.00, -1.00, 307.6, 81.9)"> </text><text xml:space="preserve" font-family="Helvetica-Light,Helvetica" font-size="37.2" fill="#FEFFFF" transform="matrix(1.00, 0.00, -0.00, -1.00, 317.9, 81.9)">m</text><text xml:space="preserve" font-family="Helvetica-Light,Helvetica" font-size="37.2" fill="#FEFFFF" transform="matrix(1.00, 0.00, -0.00, -1.00, 349.0, 81.9)">u</text><text xml:space="preserve" font-family="Helvetica-Light,Helvetica" font-size="37.2" fill="#FEFFFF" transform="matrix(1.00, 0.00, -0.00, -1.00, 369.7, 81.9)">s</text><text xml:space="preserve" font-family="Helvetica-Light,Helvetica" font-size="37.2" fill="#FEFFFF" transform="matrix(1.00, 0.00, -0.00, -1.00, 388.3, 81.9)">t</text><text xml:space="preserve" font-family="Helvetica-Light,Helvetica" font-size="37.2" fill="#FEFFFF" transform="matrix(1.00, 0.00, -0.00, -1.00, 398.6, 81.9)"> </text><text xml:space="preserve" font-family="Helvetica-Light,Helvetica" font-size="37.2" fill="#FEFFFF" transform="matrix(1.00, 0.00, -0.00, -1.00, 409.0, 81.9)">r</text><text xml:space="preserve" font-family="Helvetica-Light,Helvetica" font-size="37.2" fill="#FEFFFF" transform="matrix(1.00, 0.00, -0.00, -1.00, 420.7, 81.9)">e</text><text xml:space="preserve" font-family="Helvetica-Light,Helvetica" font-size="37.2" fill="#FEFFFF" transform="matrix(1.00, 0.00, -0.00, -1.00, 441.4, 81.9)">f</text><text xml:space="preserve" font-family="Helvetica-Light,Helvetica" font-size="37.2" fill="#FEFFFF" transform="matrix(1.00, 0.00, -0.00, -1.00, 451.8, 81.9)">e</text><text xml:space="preserve" font-family="Helvetica-Light,Helvetica" font-size="37.2" fill="#FEFFFF" transform="matrix(1.00, 0.00, -0.00, -1.00, 472.5, 81.9)">r</text><text xml:space="preserve" font-family="Helvetica-Light,Helvetica" font-size="37.2" fill="#FEFFFF" transform="matrix(1.00, 0.00, -0.00, -1.00, 484.2, 81.9)">e</text><text xml:space="preserve" font-family="Helvetica-Light,Helvetica" font-size="37.2" fill="#FEFFFF" transform="matrix(1.00, 0.00, -0.00, -1.00, 504.9, 81.9)">n</text><text xml:space="preserve" font-family="Helvetica-Light,Helvetica" font-size="37.2" fill="#FEFFFF" transform="matrix(1.00, 0.00, -0.00, -1.00, 525.6, 81.9)">c</text><text xml:space="preserve" font-family="Helvetica-Light,Helvetica" font-size="37.2" fill="#FEFFFF" transform="matrix(1.00, 0.00, -0.00, -1.00, 546.3, 81.9)">e</text><text xml:space="preserve" font-family="Helvetica-Light,Helvetica" font-size="37.2" fill="#FEFFFF" transform="matrix(1.00, 0.00, -0.00, -1.00, 567.0, 81.9)"> </text><text xml:space="preserve" font-family="Helvetica-Light,Helvetica" font-size="37.2" fill="#FEFFFF" transform="matrix(1.00, 0.00, -0.00, -1.00, 577.4, 81.9)">C</text><text xml:space="preserve" font-family="Helvetica-Light,Helvetica" font-size="37.2" fill="#FEFFFF" transform="matrix(1.00, 0.00, -0.00, -1.00, 604.3, 81.9)">S</text><text xml:space="preserve" font-family="Helvetica-Light,Helvetica" font-size="37.2" fill="#FEFFFF" transform="matrix(1.00, 0.00, -0.00, -1.00, 627.0, 81.9)">V</text><text xml:space="preserve" font-family="Helvetica-Light,Helvetica" font-size="37.2" fill="#FEFFFF" transform="matrix(1.00, 0.00, -0.00, -1.00, 649.8, 81.9)"> </text><text xml:space="preserve" font-family="Helvetica-Light,Helvetica" font-size="37.2" fill="#FEFFFF" transform="matrix(1.00, 0.00, -0.00, -1.00, 660.1, 81.9)">U</text><text xml:space="preserve" font-family="Helvetica-Light,Helvetica" font-size="37.2" fill="#FEFFFF" transform="matrix(1.00, 0.00, -0.00, -1.00, 687.0, 81.9)">R</text><text xml:space="preserve" font-family="Helvetica-Light,Helvetica" font-size="37.2" fill="#FEFFFF" transform="matrix(1.00, 0.00, -0.00, -1.00, 711.9, 81.9)">L</text><text xml:space="preserve" font-family="Helvetica-Light,Helvetica" font-size="18.0" fill="#FEFFFF" transform="matrix(1.00, 0.00, -0.00, -1.00, 501.5, 18.1)">1</text><text xml:space="preserve" font-family="Helvetica-Light,Helvetica" font-size="18.0" fill="#FEFFFF" transform="matrix(1.00, 0.00, -0.00, -1.00, 511.5, 18.1)">0</text></g></svg>